<?xml version="1.0" standalone="no"?>
<!DOCTYPE svg PUBLIC "-//W3C//DTD SVG 1.1//EN" "http://www.w3.org/Graphics/SVG/1.1/DTD/svg11.dtd">
<svg xmlns="http://www.w3.org/2000/svg"><metadata>This SVG WebFont was generated by YouWorkForThem.
Copyright (c) 2019 by Tom Chalky. All rights reserved.</metadata><defs><font horiz-adv-x="1231" id="ywftsvg"><font-face ascent="800" bbox="-107 -335 1803 1146" cap-height="700" descent="-200" font-family="" font-stretch="normal" font-weight="400" panose-1="0 0 0 0 0 0 0 0 0 0" underline-position="0" underline-thickness="0" unicode-range="U+000D-2122" units-per-em="1000" x-height="685"/><missing-glyph horiz-adv-x="400"/><glyph glyph-name=".notdef" horiz-adv-x="400"/><glyph glyph-name="glyph1" horiz-adv-x="0"/><glyph glyph-name="glyph2" horiz-adv-x="333"/><glyph glyph-name="glyph3" horiz-adv-x="0"/><glyph glyph-name="glyph3" horiz-adv-x="0"/><glyph glyph-name="space" horiz-adv-x="400" unicode=" "/><glyph d="M70 674l3 3v14q4 4 10 4q3 -1 8 0t7 1h7.5h7.5h8h8h88q13 2 38 2q20 0 31 -1q2 0 7 -0.5t8 -0.5q31 0 37 1q10 2 18 -1q4 -1 14 -1q0 -1 0.5 -2.5t0.5 -2.5v-9.5v-12v-10.5q-2 -8 1 -16q1 -2 1 -7q1 -103 0 -207q0 -11 -4 -31v-4q-1 -9 -3 -29q-2 -8 -2 -13 q-2 -9 -4.5 -27.5t-3.5 -28.5q-4 -28 -6 -43q-3 -22 -3 -23l-3 -18q-2 -2 -6 -2q-25 0 -30 1q-13 1 -35 1h-35q-2 0 -6.5 -0.5t-6.5 -0.5q-1 0 -5 -0.5t-5 -0.5h-34q-1 -1 -3 -1h-3t-5 -0.5t-6 -0.5h-58q-1 0 -2 1q-1 11 -5 28q0 2 -1.5 12.5t-1.5 15.5q0 4 -1 6 q0 2 -2.5 18.5t-3.5 25.5q0 11 -3 20q0 2 -0.5 6.5t-0.5 6.5q-1 4 -2 12.5t-2 12.5q-2 16 -4 26v2q-2 11 -2 51v46q0 11 -1 16q-1 3 -1 15v35q0 4 -3 5v106zM370 142v-2l1 -2q-1 -44 -1 -131q0 -1 -0.5 -1t-0.5 -1q-1 -1 -4 -1.5t-4 -0.5h-86q-19 0 -28 -1q-5 -1 -31 -1h-28 q-10 0 -15 2h-6h-74q-7 0 -10 -1t-8 2v11v74q0 13 -1 16q-1 1 -1 3v29v4q2 2 6 2l11 -1q10 0 10 1q12 0 14 1h9q24 2 50 0q15 0 18 -1h10q26 0 78 -0.5t77 -0.5h14z" glyph-name="exclam" horiz-adv-x="444" unicode="!"/><glyph d="M187 662q1 0 4 -0.5t5 -0.5h17q4 0 10 0.5t9 0.5h35q7 0 11 1h4q4 -1 12 -1t12 -1h4h52h47q30 0 44 -1h4q0 -1 -2 -5q-24 -51 -25 -53q-2 -4 -6.5 -12.5t-6.5 -12.5q-5 -9 -13.5 -27.5t-12.5 -28.5q-7 -20 -10 -25q-2 -5 -8 -18t-9 -20l-20 -40l-1 -1q-1 -1 -1 -2h-1 q-38 -2 -59 -1q-4 0 -13 0.5t-14 0.5q-10 -1 -57 -1q-37 0 -56 1q-11 1 -67 1q-3 0 -5 1q2 3 4 8.5t4 7.5q3 9 8 19q2 2 4.5 7t3.5 8q0 1 1 3.5t2 3.5q2 3 5.5 10l5.5 11q8 14 11 22q4 9 12.5 27t12.5 27q2 5 5.5 14.5t5.5 13.5q12 25 23 49q3 8 9 14zM829 660q-1 -2 -1 -4 l-24 -51q-1 -2 -3 -5.5t-3 -5.5q-5 -8 -16 -34l-2.5 -5t-2.5 -4q-12 -23 -24 -55q-8 -20 -13 -29q-8 -18 -13 -26q-6 -13 -13 -26h-1q-6 0 -24.5 -1t-28.5 0q-6 0 -20 0.5t-20 0.5q-21 -2 -32 -1h-35.5t-34.5 1q-10 0 -30 2h-11h-34q1 3 3 7q10 22 15 32q4 9 12 25q3 5 7 13 q9 14 21 44q4 8 6 13q12 26 18 40l9 21q10 23 19 40l3 6q3 4 9 4q6 -2 17 -2q45 3 81 2q26 -1 78 -1t78 -1h10z" glyph-name="quotedbl" horiz-adv-x="899" unicode="&quot;"/><glyph d="M168 101h-3h-21q-9 1 -27 1t-27 1q-12 0 -19 1v4q0 19 1 23v9v30q1 18 1 107q0 1 1 2l2 1h2q37 -1 113 -1q18 0 28 -1h6q0 2 1.5 6t2.5 6q5 13 14 39.5t13 40.5q5 18 7 23v5q-1 1 -3 1h-26q-8 0 -24.5 0.5t-25.5 0.5q-6 0 -18 2v2q-1 2 -1 3q1 10 1 30.5t1 31.5l-1 9 q0 9 1 9q1 16 1 43.5v43.5v3h22h21h22h22h22q3 0 10 -0.5t11 -0.5h22v2l1 2q1 3 4.5 11.5t4.5 13.5q11 34 14 44l3 9q6 18 9 26q0 3 2 5q7 0 10 -1q11 0 17 -1h2q13 0 38.5 -0.5t38.5 -0.5q6 0 18 1t17 1h10q21 1 64 1h6q-20 -61 -37 -110h5q6 -1 19 -1.5t19 -0.5 q11 -1 29 -1h29q1 0 4 0.5t5 0.5q6 19 18 55q10 31 17 55h5h20q18 1 55 1h28t28 1h62q16 0 25 -1q-3 -10 -9.5 -28t-9.5 -28q-17 -50 -18 -55q1 -1 3 -1h59h23q4 0 14 -2q1 -1 1 -2q0 -16 1 -20v-9v-56v-70q0 -4 -2 -16q-9 0 -14 -1h-7q-29 -1 -85 -1q-6 0 -17 -0.5 t-16 -0.5q-3 0 -8 -1t-7 -1q-2 -4 -2 -6q-2 -7 -7 -20.5t-7 -19.5q-2 -5 -6 -15.5t-6 -16.5q-3 -8 -4 -10q-2 -9 -8 -27v-2l2 -1h2h53q2 0 6 0.5t6 0.5q13 0 20 -1q1 0 5 -0.5t6 -0.5v-2q0 -9 1 -29t1 -29v-9v-10.5v-8.5q0 -47 -1 -71q0 -2 -0.5 -6.5t-0.5 -7.5 q-5 -1 -14 -1q-2 -1 -4 -1h-4q-28 -1 -85 -1q-5 0 -16 -0.5t-17 -0.5q-3 0 -8.5 -1t-8.5 -1q-4 -8 -5 -13q-3 -12 -8 -20q-1 -3 -3 -8.5t-3 -7.5q-2 -7 -5.5 -18.5t-4.5 -15.5q0 -3 -2 -7.5t-2 -6.5q-2 -2 -2 -5q-8 1 -20 -1q-3 -1 -10 -1h-50q-14 2 -21 2h-16 q-15 0 -45 0.5t-45 0.5q-6 0 -10 2q1 3 2.5 8.5t2.5 7.5q1 6 4.5 18t5.5 18q4 12 12 38q3 9 3 12h-108q-1 -3 -3.5 -11t-4.5 -12q0 -2 -2 -6q-6 -10 -11 -28q-6 -20 -9 -29q-1 -2 -2.5 -7.5t-2.5 -8.5l-2 -1h-2q-11 0 -31.5 -0.5t-30.5 -0.5q-13 0 -37 -2h-13h-81 q-14 0 -21 1q12 42 14 52q2 8 7.5 25.5t8.5 27.5zM556 279q15 40 39 120h-108q-2 -5 -4.5 -14t-3.5 -13q-8 -22 -12 -32q-6 -16 -9 -25q-4 -9 -10 -29q0 -3 -1 -5h10q2 -1 7 -1h7q5 0 14.5 -0.5t14.5 -0.5q24 -1 48 0h8z" glyph-name="numbersign" horiz-adv-x="1044" unicode="#"/><glyph d="M437 -167q-2 3 -2 9v99q0 9 -0.5 27t-0.5 26q-1 2 -8 2h-35h-29q-3 0 -4 1q-3 1 -8.5 1.5t-7.5 0.5q-15 0 -23 1q-3 1 -20 1h-57h-51h-87h-12q-1 2 -1 6v6q-2 3 -2 11v67v83q0 2 0.5 6t0.5 5q1 3 5 3q18 -1 52 -1h165q12 0 18 -1q3 -1 10 -1h60h51h4q7 -2 30 -2 q62 0 93 -1q2 0 8 -0.5t8 -0.5q3 0 8.5 0.5t8.5 0.5q19 0 22 -1l2 -1h59q10 2 15 2q10 2 14 2q1 0 2.5 0.5t2.5 0.5q6 -1 23 4q15 6 21 20q3 6 3 11v14q-6 10 -17 13q-16 4 -24 5q-1 0 -18 1t-25 2q-20 1 -58 1h-18h-22h-18h-143q-6 0 -9 1q-4 1 -12 1q-14 0 -42.5 0.5 t-42.5 0.5q-12 0 -14 1h-3.5t-3.5 1q-17 0 -22 2h-4q-14 0 -29 3q-33 6 -35 6q-43 17 -52 24q-4 3 -12 7q-31 21 -48 44q-5 7 -8 14q-8 20 -11 31l-6 18q-1 4 -2 9t-2 11.5t-2 9.5q-3 18 -1 55q0 25 12 56q11 28 17 37q4 8 16 22q6 7 20 21q13 11 21 15l21 12q26 15 60 23 q12 4 29 7q14 2 20 2l42 3q2 0 6 -0.5t6 -0.5q1 -1 4 -1h85h3q1 1 1 7q0 57 1 86q0 4 0.5 11t0.5 10v36q0 7 -1 10q-2 4 2 7q6 0 10 1q3 0 3 2h55q1 -2 5 -2q7 0 21 -0.5t21 -0.5q15 0 43 0.5t42 0.5h58q5 0 7 1q1 1 2 1h11q2 -2 3 -2h11q3 -2 3 -6v-43q0 -5 1 -15t1 -15 v-30q0 -35 1 -53v-4q1 -2 5 -2h69h4q8 2 36 2h17.5h21h17.5h5q6 -2 28 -2h71q10 0 15 1q4 1 21 1l1 -2v-3v-175v-3q-1 0 -2.5 -0.5t-2.5 -0.5h-56q-13 0 -19 -2h-8h-142q-2 0 -6 0.5t-6 0.5q-1 0 -3.5 0.5t-3.5 0.5h-57h-87h-25q-2 0 -9 0.5t-11 1.5q0 1 -4 1l-5 -1 q-29 0 -44 1q-16 0 -25 1q-16 2 -24 -1h-10q-2 -1 -6.5 -1.5t-6.5 -0.5q-4 0 -7 -1q-10 0 -15 -1q-2 -1 -7 -1h-21q-14 0 -25 -11q-10 -12 -9 -28q2 -5 5 -10q11 -9 25 -8h60q8 0 13 -2h8q28 0 41 -1q3 0 7 -0.5t6 -0.5h45q5 2 26 1.5t27 -0.5h4q6 -2 18.5 -2h15.5h42h5 q7 -2 30 -2q1 -1 3 -1h2q8 -2 38 -2h42q14 1 42 -3q6 0 28 -5q7 -2 18.5 -5.5t15.5 -4.5q19 -6 41 -20q18 -12 28 -18l4 -4q36 -34 47 -62q0 -1 1.5 -5t2.5 -6q11 -43 11 -48q2 -5 2 -17v-45q0 -13 -6 -37q0 -4 -2 -12q-10 -33 -29 -57q-10 -15 -28 -31l-7 -7 q-19 -20 -49 -33q-16 -8 -39 -15q-16 -5 -27 -4h-106q-6 0 -16 2h-6h-50q-3 0 -5 -1q-2 -4 0 -11v-12q1 -16 1 -49t1 -49q0 -5 0.5 -17t0.5 -17v-7q-1 -2 -8 -2h-75h-88q-22 0 -33 -2h-12.5t-13.5 -1h-32q-4 0 -5 -2h-32z" glyph-name="dollar" horiz-adv-x="1173" unicode="$"/><glyph d="M630 221q-12 -10 -14 -12q-9 -7 -29 -25l-27 -24l-21 -18l-48 -45q-8 -7 -24.5 -22t-25.5 -22l-36 -33q-9 -7 -27 -23q-19 -1 -57 -1h-74h-29q-27 0 -35 -2h-9h-51q-12 0 -18 2h-17h-14q0 1 2 4q2 2 8 7t8 7q22 20 32 28q3 2 8.5 7t8.5 8q16 14 25 22q30 28 44 40 q4 4 12 11t13 11q20 18 30 26q1 1 4 3q5 5 15.5 15t16.5 15q8 7 24.5 21.5t25.5 21.5l24 21q19 17 38 32q3 2 8 6.5t7 6.5q-2 2 -6 2h-40q-9 0 -13 1q-5 -1 -15 -1h-134q-24 0 -37 -1q-5 0 -14.5 2t-12.5 2q-12 2 -13 3q-15 3 -36 17l-10 10q-19 20 -25 49q-2 14 -2 21v174 q0 8 5 40q3 14 12 23q9 13 22 21q17 12 45 19q9 2 26 2h33q6 0 18 2h21q2 -1 6.5 -1.5t6.5 -0.5h37q14 0 43 0.5t43 0.5q3 0 10.5 -0.5t11.5 -0.5q14 0 21 2h13q23 -3 46 0h7q4 -1 11.5 -1.5t9.5 -0.5q35 -5 58 -21q2 -2 7 -6.5t7 -6.5l9 -12q5 -7 12 -27q3 -10 3 -20v-77 v-37q0 -2 0.5 -4t0.5 -4q1 1 4 1q4 4 7 6q7 6 20 18.5t19 19.5q18 19 39 36q6 4 17 13t17 14l3 3q3 2 19 15q10 10 34 32l3 3q5 3 9.5 7.5t10 9.5t8.5 8q22 20 33 31h3h4h3q10 -2 30 -2h66q14 0 21 -1q3 -2 7 0q7 1 20 1h37q11 0 16 -2h7h29q3 0 7 1t6 1h45q1 0 3 -1 q0 -3 -1 -3l-18 -15q-6 -4 -16 -14q-10 -11 -19 -18q-2 -1 -5 -4q-2 -2 -43 -37l-21 -18q-5 -4 -14.5 -12.5t-13.5 -12.5q-5 -3 -13 -11q-6 -6 -13.5 -12.5t-17 -14.5t-14.5 -12l-24 -21q-24 -20 -68 -62q-9 -9 -27 -25q-12 -10 -18 -16q-1 -1 -1 -2q2 -1 10 -1h36 q2 0 6 -0.5t6 -0.5h7q4 1 14 1h137h34q27 -2 48 -10q33 -12 50 -44q11 -19 11 -40v-70v-111q0 -25 -3 -37q-5 -22 -18 -35q-12 -13 -28 -22l-24 -9q-15 -5 -37 -5h-36q-9 0 -14 -1h-18q-3 0 -8.5 0.5t-7.5 0.5h-38h-85h-27q-3 0 -8.5 -0.5t-7.5 -0.5h-14q-22 3 -44 0h-5 q-3 0 -8 0.5t-7 0.5t-7 1t-8 1q-13 2 -25 6h-2q-27 15 -31 19q-1 2 -5.5 6.5t-6.5 7.5q-12 14 -19 41q-2 16 -2 24v104v13zM929 124q1 1 3 2.5t3 1.5q11 8 15 19q5 11 6 22q2 26 -2 44q-5 27 -25 40q-8 2 -11 2l-18 3q-2 0 -15 -2q-8 0 -17 -7q-17 -15 -18 -37 q-1 -3 -1.5 -9.5t-0.5 -9.5q2 -7 1 -13q0 -7 4 -19q5 -21 18 -31q3 -5 9 -5q7 -2 23 -4q8 -1 26 3zM397 497q0 1 -1 11t-2 15q-3 18 -13 32q-7 11 -21 13q-8 2 -11 2q-20 2 -30 -2q-3 -1 -7 -3q-22 -16 -22 -40q0 -2 -0.5 -7t-1.5 -8q-2 -3 0 -6q1 -2 1 -13q2 -24 17 -43 q6 -10 16 -11q7 0 11 -1q10 -4 30 0q8 2 10 5q18 11 21 31q1 5 2 14.5t1 10.5z" glyph-name="percent" horiz-adv-x="1244" unicode="%"/><glyph d="M152 370q-1 2 -3 5.5t-3 5.5q-3 7 -11 21q-7 12 -10 30l-3 12q-2 7 -2 20v39q-1 14 4 33v7q0 6 8 44q5 14 15 26q8 8 11 12q19 20 50 39q17 11 44 20q6 2 9 2q14 2 20 3q8 2 12 2q19 0 29 2h25q2 0 7 0.5t8 1.5h10h40h3q5 -1 47 -1q41 -1 122 -1h106q3 0 8 -0.5t6 -0.5 q4 0 10.5 0.5t9.5 0.5h82q10 0 15 -1q3 -1 8 -1h39h6q2 -2 2 -6q0 -62 -1 -94q-1 -17 -1 -51q0 -14 1 -17q1 -1 0.5 -3t-2.5 -3h-5h-23h-9q-6 2 -13 0h-10q-39 -1 -117 -1h-142q-12 0 -18 -1q-4 -1 -11 -1h-42q-16 -2 -23 -6q-17 -9 -19 -29v-17q6 -18 23 -26q3 -2 19 -10 q41 0 61 1q6 0 17 0.5t16 0.5q12 0 18 -1q7 -1 22 -1h112h76q9 0 14 -2h8h104h5q7 2 31 2q66 0 100 1q7 0 11 1h7h85h5l1 -1v-2v-153q-4 -4 -8 -4q-19 0 -30 2q-8 1 -26 -1q-5 -1 -15 -1h-34q-3 -2 -3 -6q0 -35 1 -42q1 -12 1 -72v-71v-6q-1 -2 -1 -14v-36q0 -15 1 -18v-1 l-1 -2h-1q-2 -1 -3 -1q-3 0 -13 -0.5t-15 -1.5q-3 -1 -8 -1h-82h-5q-2 0 -10.5 -1t-10.5 0q-3 1 -21 1h-21q-1 0 -3.5 0.5t-3.5 0.5q-2 0 -5 0.5t-4 0.5q-3 -1 -9.5 -1.5t-8.5 -0.5q-29 0 -38 -2q-5 0 -7 1q-5 1 -15 1q-38 0 -57 1h-10q-3 1 -7 1q-7 0 -19 0.5t-18 0.5 q-12 0 -18 1q-3 1 -9 1h-158h-100q-2 0 -6 0.5t-6 0.5q-4 1 -10 1q-31 0 -46 1q-8 0 -13 1h-9q-9 0 -25.5 1.5t-24.5 1.5q-4 1 -14 3t-15 4l-21 6q-13 4 -31 16q-15 10 -29 23l-4 4q-25 28 -32 38l-6 12t-5 11q-4 9 -9 36q-3 13 -3 26q0 1 -0.5 3.5t-0.5 3.5q0 3 -0.5 8.5 t-0.5 8.5q1 6 1.5 16.5t0.5 13.5q3 30 19 53q3 5 10.5 15.5t11.5 16.5q4 4 5 6t4 5l5 5q10 19 25 28zM396 224q0 -1 0.5 -3t1.5 -3q7 -28 27 -34q1 0 1 -1l2 -1q10 -6 26 -6q23 0 70.5 -0.5t71.5 -0.5h10q4 -1 11 -1q5 -1 17 -1q2 0 5 0.5t4 0.5q2 0 5.5 0.5t5.5 0.5 q11 0 32.5 0.5t31.5 0.5q6 0 19 -0.5t19 -0.5h6v1l1 2v83q0 4 -2 6q-1 1 -4 1q-23 0 -30 2q-1 0 -3 -0.5t-4 -0.5t-5 -0.5t-4 -0.5h-93q-5 0 -7 1q-6 1 -19 1h-117q-30 0 -53 -12q-13 -7 -20 -20q-2 -4 -6 -14z" glyph-name="ampersand" horiz-adv-x="1246" unicode="&amp;"/><glyph d="M220 442q-18 22 -27 39q-5 8 -17 24q-2 3 -5.5 9.5t-5.5 10.5q-1 1 -3 5q-1 9 -11 21q-24 34 -33 52q-5 8 -10 19q-12 26 -32 54l-6 9q2 1 5 1h15q10 0 14 1q3 1 10 1h103h94h43h23h6q5 -4 7 -9q22 -43 32 -71q7 -13 11 -25l18 -39q3 -8 8 -16q3 -6 27 -53q2 -4 6 -12.5 t6 -12.5q0 -1 1 -2.5t0 -2.5q-1 0 -3 -0.5t-3 -0.5h-21q-15 0 -22 -1q-5 -1 -15.5 -1h-15.5h-39q-4 0 -11 -0.5t-11 -0.5q-16 -1 -32 0q-19 3 -38 0q-15 -2 -32 0q-6 1 -20 1h-16z" glyph-name="quotesingle" horiz-adv-x="570" unicode="'"/><glyph d="M516 905v-9q1 -48 1 -143q0 -11 -2 -35q0 -15 -1 -23q-1 0 -5 -0.5t-6 -0.5h-20q-5 0 -16 -0.5t-16 -0.5q-3 -1 -9.5 -2.5t-9.5 -1.5q-10 -2 -17 -4q-26 -6 -45 -30q-7 -9 -13 -29q-2 -4 -2 -12q0 -4 -0.5 -14t-0.5 -14v-190q0 -11 2 -35v-5v-76v-35.5t-1 -35.5 q-1 -23 -1 -136q0 -6 1 -8t2 -7t1 -7q3 -13 16 -25q10 -9 28 -18q13 -7 28 -7h29q9 -1 57 -1q1 0 2 -1q1 -5 1 -17l1 -52q0 -52 -1 -52q-1 -14 -1 -41.5v-41.5q0 -4 -1 -5h-11.5h-13h-10.5q-9 0 -13 -1h-16q-11 -1 -33 -1h-33q-8 0 -22 -2h-4h-39q-16 2 -24 2h-10t-10 1 q-10 0 -20 3q-8 2 -13 2q-8 0 -18 4q-2 0 -4 1t-4.5 2.5t-3.5 2.5q-3 1 -7.5 3.5t-5.5 3.5q-4 2 -5 4q-14 10 -21 14q-10 6 -25 23q-9 10 -13 19q-1 2 -4 5q-10 11 -18 29q-2 5 -5.5 12.5t-4.5 9.5q-4 6 -7 16q-10 24 -17 59q-1 6 -3 16q-1 4 -2 10t-1 9q-2 16 -2 25 q-2 20 -2 32v30v2l1 2v200q-1 9 -1.5 24t-0.5 20q-1 17 -1 50q0 12 2 38v100v19v14q1 10 1 32q0 20 1 30q0 5 2 13t2 13q0 2 0.5 5t1 5.5t1.5 4.5q1 7 8 29q2 5 5.5 15.5t5.5 15.5q4 14 12 28q5 11 10 19q1 4 4 8l21 30q7 9 15 14q20 16 31 24q24 14 38 18q1 0 20 3 q1 0 17 3h3q10 0 15 1q21 4 51 2q9 0 26.5 0.5t25.5 0.5q27 0 41 1q2 0 6.5 0.5t6.5 0.5q1 0 4.5 0.5t5.5 0.5h38q5 0 19 -2z" glyph-name="parenleft" horiz-adv-x="590" unicode="("/><glyph d="M72 -210v7v69q-1 18 -1 109q0 16 1 24q1 1 4 1h17q15 -1 43 1h18q23 -2 43 11q12 8 21 15q13 13 15 26q0 3 1 4q2 8 2 24v119v34t-1 34q-1 14 -1 85q0 9 2 29v9v198q0 5 -1 14.5t-1 15.5t-7 25q-1 5 -8 12q-16 21 -39 28q-4 1 -12 2.5t-12 2.5q-6 2 -11 2q-14 3 -41 3 h-16q-2 0 -6 0.5t-7 0.5v5q0 27 -1 40q-1 10 -1 56v69q0 14 2 40q2 2 11 4q9 1 54 1q2 0 6 -0.5t7 -0.5q4 -1 13 -1q13 0 40 -1t41 -1h31q10 0 30 -2q2 -1 5 -1q7 0 21 -2q4 -1 10 -1q10 -1 26 -7q2 -1 12.5 -6t15.5 -9q26 -18 38 -30q3 -2 7 -8q14 -18 20 -28q3 -3 9 -16 q16 -31 19 -45q2 -8 7.5 -23t8.5 -23q2 -7 4 -21q1 -4 3 -14t2 -29q1 -15 1 -47v-45v-43v-34q1 -7 1 -20.5t1 -20.5q1 -25 0 -51q0 -27 -1 -40q-1 -23 -1 -63v-63v-83q0 -3 1 -13.5t0 -16.5q0 -10 -2 -32v-6q1 -10 -4 -38q-1 -7 -3 -19q-9 -39 -14 -50q-2 -8 -4 -12 q-4 -12 -7 -18q-10 -19 -17 -35q-1 -2 -4 -6.5t-5 -6.5q-3 -3 -7 -9q-5 -10 -12 -17q-17 -19 -30 -27q-2 -1 -13 -9q-3 -1 -12.5 -7t-15.5 -9q-7 -4 -23 -6q-7 0 -15 -3q-12 -2 -18 -2q-2 -1 -5.5 -1h-5.5q-10 0 -30 -2h-10h-32q-3 0 -9.5 1t-10.5 1h-4q-38 0 -57 1 q-26 0 -32 1h-22h-6.5h-8h-7.5z" glyph-name="parenright" horiz-adv-x="590" unicode=")"/><glyph d="M279 188q0 6 -0.5 17t-1.5 17q-1 19 -1 58q0 18 1 28v6h-2q-6 -3 -17.5 -8t-17.5 -7q-5 -3 -20.5 -9.5t-23.5 -10.5q-5 -2 -12.5 -5.5t-9.5 -4.5l-18 -6q-2 -1 -11.5 -4.5t-14.5 -5.5l-6 15q-2 4 -5.5 12t-5.5 12q-1 2 -3.5 6.5t-3.5 6.5q-8 21 -10 29q-1 3 -3.5 9 t-3.5 8l-5.5 11t-5.5 10q-1 2 -3 8q-1 6 -5 18q81 39 115 52q-7 4 -20 9.5t-19 8.5t-19 8.5t-19 8.5q-36 15 -38 16q0 1 5 11q2 4 4 6q1 3 4.5 9.5t5.5 9.5q2 4 6 12.5t6 13.5q14 28 20 42q6 16 8 24q2 4 3 7q2 4 2 7q4 2 7 3l135 -60l1 2q-1 10 -1 29v25q0 4 -0.5 11 t-0.5 10q0 5 0.5 15.5t0.5 16.5q4 1 8 4q3 -1 10 -1.5t9 -0.5q13 -2 60 -1.5t61 0.5q4 0 12 1t12 1h15q14 2 22 2q3 0 5 1q1 -4 1 -10v-56v-44v-6q126 56 138 61l6 -3q10 -28 16 -41q2 -5 6.5 -14.5t6.5 -14.5q1 -2 5 -11t7 -14l9 -18l1 -1l6 -12q1 -2 7 -11q1 -1 1 -4 q-2 -2 -4 -3q-4 -2 -12.5 -5.5t-12.5 -4.5q-5 -2 -14.5 -6.5t-14.5 -7.5q-10 -4 -28 -11.5t-24 -10.5q-2 -2 -4 -3q7 -3 57 -25l57 -27q-1 -3 -2.5 -9t-2.5 -9q-5 -13 -7 -16q-5 -9 -13 -27q0 -1 -1 -3q-1 -10 -9 -26q-4 -10 -7 -14q-2 -2 -3.5 -7.5t-2.5 -6.5 q-2 -4 -5.5 -12.5t-5.5 -12.5q-1 -1 -1 -2q-9 4 -27 10q-10 4 -16 6q-14 6 -21 10q-47 21 -66 28l-12 6q-4 2 -7 2v-1q-1 -11 -1 -67q0 -3 0.5 -10t0.5 -10q0 -2 -0.5 -4t-0.5 -3q-1 -2 -1 -5q-1 -5 -1 -14.5t-1 -14.5q-4 -1 -15 -1h-3h-12.5h-15h-12.5q-7 -1 -19.5 -1 h-18.5t-18 2q-1 0 -5 0.5t-5 0.5q-13 -1 -40 -1q-15 0 -22 1h-9q-9 0 -13 1z" glyph-name="asterisk" horiz-adv-x="770" unicode="*"/><glyph d="M74 453h63q29 -2 88 -2h74q13 0 20 3l1 2v3q0 13 -2 20q-1 3 -1 9q0 8 0.5 24t0.5 23v39q0 14 1 17v9q0 3 0.5 12t1.5 14q1 6 1 19v1l1 2q2 2 5 2q52 -1 155 -1q8 -1 71 -1h70q8 0 12 -1v-4v-78q-2 -14 -2 -22v-5q2 -9 2 -40v-11q0 -23 3 -35h3l2 -1h57q2 0 6.5 1t6.5 1 h33h2q7 -2 30 -2h80q12 0 18 -3v-6q0 -2 0.5 -7t1.5 -7v-6v-4q0 -82 1 -124q0 -8 -3 -17q-2 -1 -6 -1q-32 -2 -50 -2h-49q-8 0 -20 -2h-28h-76q-2 0 -5.5 -0.5t-4.5 -0.5q-2 -2 -2 -6q0 -16 -2 -23v-13v-37q2 -20 2 -32v-7q-2 -4 -2 -21v-34q0 -10 2 -15q-1 -3 -2.5 -10 t-2.5 -10q-2 -2 -7 -2h-137q-2 0 -6.5 -0.5t-6.5 -0.5h-13q-6 1 -17 1h-91h-28q-1 1 -2 1l-1 1v1q-3 63 -3 64q0 5 -2 15q0 3 -0.5 11t-1.5 13v7v75q0 16 2 24q-1 0 -2.5 0.5t-2.5 0.5q-6 0 -20 -0.5t-21 -0.5h-14q-18 1 -54 1h-85l-45 3q-2 2 -2 6q0 64 1 77q1 14 1 85 q0 1 0.5 3.5t0.5 4.5z" glyph-name="plus" horiz-adv-x="950" unicode="+"/><glyph d="M175 192q5 3 10 1q5 -1 14 -1q16 2 25 2h36h24q24 -2 66.5 -1.5t66.5 -0.5h20q35 0 53 -1h1q-1 -2 -2.5 -5.5t-1.5 -4.5q-14 -28 -20 -42q-5 -12 -13 -36q-19 -51 -31 -72q-6 -12 -10 -18q-8 -19 -8 -23q0 -3 -2 -9q-2 -4 -6 -13t-6 -13q-16 -36 -25 -54q-1 -2 -3.5 -6.5 t-3.5 -6.5l-4 -8l-3 -6h-2q-19 -1 -56 -1h-22h-35q-12 -1 -22 0q-11 1 -33.5 1h-33.5q-8 0 -26 2h-7h-45v1q1 1 1 2q5 15 15 47q1 2 4 10q1 4 11 31q1 5 4.5 13t4.5 10q2 6 6.5 19t6.5 20q3 11 11 33q2 7 6 21.5t6 21.5q3 8 8 26t8 26q6 16 8 24q1 2 2.5 5.5t2.5 5.5z" glyph-name="comma" horiz-adv-x="561" unicode=","/><glyph d="M71 268q0 22 1 26v6v15q0 14 1 57.5t0 67.5v3h4h114q5 0 15.5 -0.5t16.5 -0.5q19 1 50.5 1h49.5q23 1 137 1q12 0 36 -2h3h25q25 -1 25 0q12 1 68 1q20 -1 60 -1h25q7 1 42 1q9 0 13 -1h5h77h23q4 0 16 -2v-4q0 -4 0.5 -11t0.5 -10v-60v-72q0 -2 -0.5 -7.5t-0.5 -8.5 q-3 0 -8.5 -0.5t-7.5 -0.5h-23q-12 -1 -68 -1q-5 -1 -17 -1t-17 -1h-9.5h-12h-9.5h-99q-9 0 -29 2h-9h-164h-23q-9 1 -54 1q-8 0 -26 -2h-3h-39q-25 1 -67.5 1h-67.5q-6 0 -18 0.5t-18 0.5t-18 2z" glyph-name="hyphen" horiz-adv-x="949" unicode="-"/><glyph d="M367 180v-6v-96q-1 -25 -1 -74q0 -1 -1 -1l-1 -1h-3h-35q-23 -1 -71 -1q-5 0 -15.5 -1.5t-12.5 -1.5h-21h-1q-1 1 -2 1q-7 0 -20.5 0.5t-20.5 0.5q-5 0 -15 0.5t-16 0.5h-48q-2 0 -4 -2q-1 1 -4 1.5t-4 0.5v7q0 73 -1 109v57v6h2q1 1 2 1q5 -1 15 -1q5 0 7 1 q5 0 15.5 0.5t16.5 0.5h47q16 -1 93 -1q15 -1 45.5 -1h46.5h7z" glyph-name="period" horiz-adv-x="438" unicode="."/><glyph d="M70 -148q8 22 12 32q20 48 29 71q6 13 16.5 38.5t15.5 38.5l24 54q12 27 34 81q8 18 22 56q5 12 15 35.5t15 35.5q1 5 4.5 14t5.5 14q10 25 30 77l39 96q8 19 22.5 54t17.5 41l15 36q0 2 2 4l3 6q9 20 25 60q1 2 2 5t2 4q8 21 26 65q3 7 10.5 25.5t11.5 28.5q11 24 17 44 q4 6 12 8h7h96h30q6 0 17.5 -0.5t17.5 -0.5h20q19 0 29 1q14 1 42 1q3 0 9 0.5t9 0.5q2 0 6 -0.5t6 -0.5q-1 -3 -2.5 -8t-1.5 -6q-4 -9 -12 -29t-12 -29q-7 -16 -19 -48l-21 -51q-5 -9 -13 -27.5t-12 -27.5q-4 -8 -36 -86q-12 -30 -18 -46q-4 -10 -14 -34t-15 -37 q-3 -8 -9.5 -23.5t-9.5 -23.5q-3 -7 -8.5 -22t-8.5 -23q-6 -16 -20 -50q-7 -19 -23 -57q-5 -11 -14.5 -33.5t-13.5 -33.5l-30 -72q0 -1 -1 -2q-4 -6 -7 -13.5t-7 -17t-6 -15.5l-18 -42l-9 -24q-9 -21 -27 -65q-3 -6 -7.5 -18.5t-6.5 -18.5l-18 -42h-7h-16h-103q-6 0 -18 2 h-17h-49h-68q-3 -1 -9.5 -1.5t-9.5 -0.5z" glyph-name="slash" horiz-adv-x="857" unicode="/"/><glyph d="M72 270v55q0 11 -2 33v26q0 8 0.5 23.5t0.5 23.5q1 14 1 42v30q0 12 2 38q0 3 2 9q3 16 12 31q2 3 6 10.5t5 9.5q2 4 13 19q0 2 2 2q6 10 19 21q2 1 6 4.5t6 5.5l12 9q32 17 62 25q18 5 35 5q22 2 32 2q4 1 14 1h20h23.5h20.5q18 1 55 1q18 0 27 -1q4 0 12 -0.5t11 -0.5 q10 -1 20 0q7 0 21 0.5t21 0.5h25h18q75 0 113 -1h18q21 0 31 1q2 0 5 -0.5t4 -0.5q2 -1 6 -1q8 2 25 0q20 0 30 -1q7 0 19 -2q5 -1 14 -1q6 -1 23 -5q7 -2 14.5 -5t16.5 -7t14 -6q17 -9 29 -19q20 -16 31 -31l6 -9q15 -27 17 -32q7 -14 10 -31q2 -12 2 -53v-9.5v-12.5v-11 q2 -20 2 -30v-8q-1 -3 -1 -7v-52v-18v-15v-68v-62q0 -4 -0.5 -11t-0.5 -10q0 -2 -1 -7t-1 -7q-6 -33 -16 -53q-3 -8 -9 -16q-3 -5 -10 -14.5t-11 -14.5l-3 -3l-2 -1l-12 -9q-12 -12 -19 -15q-4 -2 -10 -6q-16 -10 -26 -13q-4 -2 -11.5 -5t-11.5 -4q-18 -3 -20 -3 q-8 -2 -13 -3q-8 -2 -14 -1q-2 1 -7 0t-7 -1q-3 -1 -8 -1h-55q-37 0 -55 1t-55 1q-13 0 -40.5 -0.5t-41.5 -0.5h-27q-4 0 -13.5 0.5t-14.5 0.5q-8 0 -26 -0.5t-27 -0.5q-11 -1 -31 -1q-29 0 -44 -1h-26q-33 0 -50 1q-3 0 -9 0.5t-11 1t-9 1.5h-6q-25 2 -39 9q-10 4 -32 12 l-27 15q-10 8 -14 13q-2 1 -5.5 4.5l-4.5 4.5q-6 5 -20 24q-16 18 -26 49q-2 7 -7 28q-1 4 -1 12q-2 30 -2 35q1 11 1 61zM372 287h-1v-29q0 -1 0.5 -3t0.5 -3q2 -9 12 -25q6 -10 23 -27q10 -12 26 -15q3 -1 9.5 -2t10.5 -1q5 0 14 -0.5t13 -0.5h35h6q10 0 30.5 0.5 t30.5 0.5q6 0 20 1t20 1q3 0 5 1q7 1 16 5q5 1 14.5 6t11.5 6q4 2 5 4q6 7 18 23q9 12 9 27q1 20 1 62v62q2 26 0 52q-2 17 -5 25q-6 12 -10 17q-9 11 -15 15q-12 10 -20 13q-2 1 -6 2.5t-6 1.5q-13 6 -28 4q-8 -1 -26 1h-27q-7 0 -10 1q-5 1 -11 0h-9q-6 -1 -19 -1.5 t-19 -0.5t-20 -2q-3 0 -10 -1t-11 -1q-14 -1 -27 -8q-27 -13 -44 -40q-2 -4 -4 -10q-3 -8 -3 -32v-7v-8.5v-7.5v-76q-1 0 0 -15v-15z" glyph-name="zero" horiz-adv-x="1075" unicode="0"/><glyph d="M70 431q0 1 0.5 1t0.5 1v6q0 10 0.5 30t0.5 30v28q-1 9 -1 52q0 15 2 45q9 5 17 8q40 14 60 22q6 2 20 6q6 2 29 11q18 8 26 12q2 1 8.5 3.5t10.5 4.5q2 1 7 1q15 2 22 1q9 -1 27.5 -1h27.5h33t32 -1q3 0 8 0.5t7 0.5h7q3 -1 17 -1q2 0 5.5 0.5t4.5 0.5q12 0 18 1h13 h15.5h12.5h6v-4q0 -31 1 -46q1 -7 1 -21.5t1 -21.5v-55v-55t1 -56q0 -12 0.5 -35t0.5 -34q-1 -43 -1.5 -123t-0.5 -105q0 -38 -1 -56q-1 -27 -1 -79v-5h-5q-26 0 -39 -1q-3 0 -9 -0.5t-9 -0.5q-12 1 -70 1h-15h-12h-3q-13 1 -40 1h-92h-6v7v124q0 6 -0.5 16t-0.5 16v39v145 q-1 6 -1 32l-3 30q0 2 -0.5 6t-0.5 7h-5q-15 1 -45 1h-45q-23 0 -34 1q-2 0 -3 1v9z" glyph-name="one" horiz-adv-x="582" unicode="1"/><glyph d="M377 455h-7h-52q-4 0 -12.5 -0.5t-12.5 -0.5h-23q-6 0 -16 0.5t-15 0.5q-7 0 -20.5 -0.5t-20.5 -0.5h-98q-2 0 -6.5 -1t-6.5 -1q-1 0 -3 -0.5t-3 -0.5q-6 3 -5 9q1 12 1 37q1 42 23 82q10 18 25 35q2 2 5 5.5t4 5.5q7 8 32 26q19 16 38 24q25 11 43 13q5 0 15 2t15 2 l27 3h26h129q25 -3 56 -1q7 0 20.5 0.5t19.5 0.5q20 -1 56.5 -1.5t47.5 -0.5q5 0 15 -0.5t15 -0.5q5 1 14.5 1.5t14.5 0.5q12 1 37 1q7 0 17 -4q6 -2 7 -2l24 -9q2 -1 6.5 -3t6.5 -3q16 -5 37 -19q2 -1 13 -7t23 -18l21 -21q8 -10 14 -20q16 -24 21 -38q4 -9 8 -25 q0 -5 1.5 -15t2.5 -16q3 -16 1 -37q0 -7 -2 -19q0 -3 -0.5 -9t-0.5 -9q-1 -4 -2 -11.5t-2 -11.5q-2 -11 -12 -33q0 -1 -4 -9.5t-6 -13.5q-1 -2 -3 -4.5t-3 -3.5t-6 -6.5t-7 -9.5q-1 0 -3 -2l-3 -3q-9 -8 -27 -22q-11 -8 -20 -13q-4 -2 -6 -4q-16 -12 -38 -18q-17 -6 -29 -8 q-2 -1 -5 -1q-4 -1 -13 -1q-2 0 -5 -1t-4 -1h-70h-44t-43 -1h-87h-11q-18 -1 -54 -1q-5 0 -17 -2q-2 0 -7 -1t-8 -1q-12 -3 -20 -13q-9 -11 -15 -31q-1 -2 -1 -5q0 -7 -1 -12h5h16q11 1 67 1q4 0 11.5 -0.5t11.5 -0.5q1 0 5 0.5t6 0.5h4h17q6 0 18 0.5t17 0.5q14 1 41.5 1 h41.5h60q8 0 22.5 -0.5t21.5 -0.5q80 0 119 1q35 0 52 1q18 0 28 1q1 0 5 0.5t7 0.5v-5l-1 -18q0 -18 1 -18q1 -14 1 -86q0 -11 -2 -29v-19v-9q-6 -2 -10 -2t-11 -0.5t-11 -0.5q-27 2 -74.5 1.5t-74.5 0.5h-63t-64 1q-10 0 -31 0.5t-32 0.5q-5 0 -14 -1t-13 -1q-2 -1 -6 -1 h-60h-44q-10 1 -29 1h-28h-25t-25 1q-10 0 -29.5 0.5t-29.5 0.5q-6 0 -19.5 -1t-20.5 -1h-1q-7 0 -21 -1t-21 -1h-70q-1 0 -2 0.5t-2 0.5q-10 2 -15 -1h-34q-3 2 -3 6v49q1 17 1 51v27q1 25 1 76q1 7 1 20t1 20q0 13 5 26q8 28 22 47q2 3 5 8.5t4 8.5q3 3 7.5 9.5t8.5 11.5 t8 9q6 6 8 9q12 14 30 21q4 1 11 4.5t10 5.5q3 1 7.5 3t8.5 3.5t8 2.5q18 6 27 8q3 0 9 1t9 1t9.5 0.5t9.5 1.5q6 1 17 1q21 1 42 0h37q9 0 29 2h3h13q49 0 74 1q18 1 47.5 1h46.5q25 2 39 12q6 5 9 9q5 5 5 14q0 14 -9 23q-5 5 -15 13q-10 6 -21 6h-40q-23 -2 -35 -1t-72 1 q-8 0 -24 -2l-2 -1q-1 -1 -2 -1q-20 -9 -30 -17q-11 -8 -16 -23q0 -2 -0.5 -5t-0.5 -4z" glyph-name="two" horiz-adv-x="1029" unicode="2"/><glyph d="M102 470q-2 10 -2 56q0 2 3 20q5 18 12 36q2 6 4 9q19 30 39 47q21 18 45 30q20 8 29 11q15 7 32 10q2 0 34 3q9 1 77 1q13 0 39 -2h13h146h42q44 1 130 1q5 0 16 -1t17 -1q11 0 31 -4q8 -1 19 -5q19 -6 43 -20q16 -10 24 -20q4 -4 12.5 -13t13.5 -14q3 -3 8 -9.5t8 -9.5 q13 -19 19 -43q2 -9 4 -25q3 -30 3 -31q2 -15 -1 -29q-2 -23 -8 -38q-1 -5 -4.5 -14.5t-5.5 -14.5q-6 -14 -19 -33q-4 -5 -10 -13q4 -4 12 -10q1 0 1 -1t1 -2q6 -5 16 -15q8 -7 18 -25l6 -15q1 0 1 -1l1 -2q4 -5 9 -25q2 -7 4 -37q0 -4 0.5 -11.5t0.5 -11.5q0 -1 0.5 -2.5 t0.5 -2.5v-33q0 -2 -0.5 -5.5t-0.5 -4.5q-3 -31 -18 -58q-2 -3 -6.5 -10t-6.5 -10q-9 -12 -23 -24q-13 -12 -27 -21q-17 -10 -30 -14q-22 -8 -33 -10q-6 -1 -20 -3q-12 -2 -19 -2q-1 -1 -3 -1q-16 1 -48 1h-85q-28 0 -42 -1q-40 -2 -51 -1h-110h-87h-43q-26 0 -39 1 q-9 1 -26 1.5t-26 0.5q-2 0 -6 0.5t-6 0.5q-18 2 -47 10q-26 9 -49 27q-26 21 -38 47q-2 5 -8 15q-2 4 -4 12q-1 2 -2.5 6.5t-2.5 6.5q-5 14 -6 27l-3 24v2q1 5 1 31v3h6q12 1 74 1q11 2 16 1q21 -1 40 0q17 0 51 0.5t51 0.5q12 0 17 -1q12 0 34 2h6q1 -1 3.5 -2t3.5 -1 q1 -5 5 -8q6 -10 16 -16q4 -2 6 -2q10 -2 14 -2h49q8 0 33 -0.5t39 -1.5h43q9 -1 24.5 -1.5t20.5 -0.5q6 0 16 4q16 11 18 13q8 10 10 25v7q0 8 -3 14q-4 14 -20 16h-3q-5 2 -14 2q-31 0 -46 2h-29q-13 1 -36.5 1.5t-30.5 0.5q-26 0 -39 1q-14 1 -42 1q-3 0 -9.5 0.5 t-9.5 0.5q-1 2 -1 4v30q1 13 1 75q1 3 1 10.5v11.5q0 17 1 26q2 0 6.5 0.5t7.5 0.5h108h39t40 -1q8 0 17 3q21 8 29 29q7 15 1 29q-3 8 -12 13q-11 5 -21 6q-3 1 -9.5 1.5t-9.5 0.5q-20 1 -124 1q-19 0 -32 -8q-7 -5 -17 -13q-5 -5 -15 -17q-3 0 -11 -0.5t-12 -0.5 q-37 0 -55 1q-27 3 -58 1q-30 -1 -89 -1q-4 0 -16 1t-19 0q-5 0 -14 -0.5t-13 -0.5h-6z" glyph-name="three" horiz-adv-x="1056" unicode="3"/><glyph d="M604 -3v3l-1 2v54q0 4 0.5 14t0.5 14v4q-4 0 -5 1q-8 0 -11 -1q-4 0 -11.5 -0.5t-10.5 -0.5q-4 1 -12 1t-12 1q-39 2 -58 0q-29 -2 -56 0q-19 1 -56 1h-55q-41 0 -62 -1l-22 -1q-22 0 -22 1q-19 1 -57 1q-14 0 -21 -1q0 -1 -18 -1l-18 1h-6q-3 1 -8 1h-11q-2 2 -2 5 q1 3 1 7v53q0 7 -0.5 22.5t-0.5 23.5v17q0 4 0.5 12t0.5 12q0 3 3 6q28 36 48 67q4 6 12 16l18 27q5 7 18.5 28t22.5 32q2 2 5.5 6t4.5 6q13 15 21 28q20 28 29 43q4 6 37 50q4 6 8 13q3 4 29 41q4 4 10 14q16 22 23 34q2 2 4.5 6.5t3.5 6.5q3 4 7 10q1 1 2 4t1 4 q1 1 2.5 3.5t2.5 3.5q7 0 22 0.5t23 0.5q25 1 52 0q24 -1 72 -1q13 0 37 2q10 1 29.5 1h29.5q16 1 49 1q8 0 24 -2h17h4q7 1 14 0q-3 -4 -7 -12q-3 -5 -9 -14.5t-9 -13.5q-3 -5 -9 -13t-7 -9q-5 -7 -15 -23q-7 -8 -19 -26q-1 -2 -4 -7t-5 -7q-3 -6 -11.5 -16.5t-10.5 -13.5 q-3 -5 -9 -13.5t-10 -12.5q-2 -2 -2 -4q-6 -15 -26 -41q-2 -2 -6 -8q-7 -16 -23 -35q-6 -7 -17 -21.5t-16 -21.5q-2 -2 -12 -20q-3 -6 -10.5 -18t-11.5 -18q-4 -5 -8 -11t-8.5 -13.5t-7.5 -11.5q-6 -10 -10 -16h4h18q11 -1 97 -1h7q0 3 1 4q0 20 1 30q0 5 2 19v5v23 q0 13 0.5 39t0.5 40h16q2 0 5 -0.5t4 -0.5h61q15 1 44 1h37q26 2 52 0h31.5t30.5 -1h18v-5v-55q0 -20 1 -29q3 -20 3 -61v-5l1 -1v-2q3 -1 10 -1q15 2 32 0h7h58q2 -8 1 -11v-36q-2 -8 0 -14v-15t1 -15q1 -6 1 -19q0 -7 2 -25v-4v-26q0 -3 -0.5 -10t-0.5 -10h-9 q-16 -1 -99 -1h-7q0 -15 1 -22v-6v-37q0 -2 0.5 -5.5t0.5 -4.5q0 -8 -1 -12h-4h-16q-1 0 -3.5 -0.5t-3.5 -0.5h-7q-7 2 -15 0q-1 -1 -3 -1q-8 0 -22.5 -0.5t-21.5 -0.5q-53 0 -79 1h-82q-1 0 -2.5 0.5t-2.5 0.5h-8q-10 0 -14 -1h-17z" glyph-name="four" horiz-adv-x="1090" unicode="4"/><glyph d="M76 689q1 0 3.5 1t4.5 1.5t4 0.5h48q31 -1 183 -1q7 0 22 1t23 1h22h12q59 0 89 -1q24 -1 71 -1h98q6 0 17.5 -0.5t17.5 -0.5q7 0 19 0.5t19 0.5q3 0 10 0.5t11 0.5q12 0 18 -2h5h68q3 0 11 0.5t11 0.5t8 -0.5t7 -0.5q2 -1 5 -1.5t5 -0.5v-3q0 -12 1 -18q1 -3 1 -10v-106 v-13q1 -6 -1 -18q-1 -3 -1 -10q-2 -1 -6 -1l-21 1q-21 0 -21 -1q-15 -1 -47 -1q-33 -3 -77 -1q-3 0 -9 0.5t-9 0.5h-32h-47q-31 0 -46 2h-40h-8h-26h-95q-17 0 -26 -1l-3 -3q-4 -29 0 -48q1 -1 5 -1h22q10 0 29 -0.5t29 -0.5h53q4 0 11.5 -0.5t11.5 -0.5h7q1 0 3 1 q6 0 17.5 0.5t17.5 0.5q15 1 44 1.5t44 0.5q25 0 38 1q8 0 24 -2q2 0 22 -3q26 -6 38 -12q21 -9 28 -14q6 -5 18 -13q10 -6 14 -10q2 -1 6 -5q2 -2 6 -5.5t6 -5.5q10 -12 16 -17q3 -3 18 -23q1 -1 2.5 -4t2.5 -4q15 -26 18 -49q0 -2 2 -6t2 -6q1 -8 1 -23v-20q1 -7 1 -42 q0 -5 -2 -19l-6 -30q-5 -18 -14 -34q-3 -5 -8.5 -13t-7.5 -11q-8 -10 -16 -19q-16 -16 -32 -29q-27 -20 -52 -28q-19 -6 -25 -7q-4 -1 -12 -2.5t-12 -2.5l-15 -3q-10 -3 -23 -3q-5 0 -16 0.5t-17 0.5h-13q-6 -1 -16 -1h-22q-11 1 -33.5 1t-33.5 1q-46 1 -93 0 q-10 0 -30 -0.5t-31 -0.5q-4 0 -11 -0.5t-10 -0.5q-4 0 -16 0.5t-18 1.5q-19 1 -39 0q-22 -1 -66 -1q-42 0 -63 1h-15h-31l-1 -1h-58l-2 1q-1 1 -1 7q-1 9 -1 28q1 41 1 122q0 4 0.5 10t0.5 10q2 1 5 1q12 2 16 2q14 1 39.5 1h39.5q20 2 30 2h18h2l2 -1q24 0 36 1q23 0 34 1 q3 1 9.5 0t8.5 -1q21 2 42 0q40 0 61 -1q18 -1 54 -1q3 0 7.5 0.5t6.5 0.5h68q5 1 15 1q5 2 19 4q8 3 20 13q7 6 10 14q2 12 1 17l-3 12q-3 12 -15 17q-10 6 -23 9q-13 4 -23 5q-14 2 -43 2q-17 -1 -53 -1q-13 0 -20 1t-21.5 0t-19.5 -1h-123q-15 -1 -45 -1q-18 0 -27 1 q-21 0 -31 -1q-7 -1 -21 -1q-15 0 -22 1h-22q-9 1 -19 0h-11q-1 4 -1 12q1 3 1 8q0 2 -0.5 6.5t-0.5 6.5v170v39q1 25 1 154q0 6 2 22z" glyph-name="five" horiz-adv-x="1003" unicode="5"/><glyph d="M593 697q1 -1 5 -1h60h59.5t58.5 -1q35 0 53 -1q26 -1 78 -1q10 0 30 2h4v-5v-30q0 -38 2 -58v-25.5v-29.5v-25v-8h-3q-6 0 -18 -1t-18 -1h-13h-15.5h-12.5q-32 -2 -63 0q-28 1 -55 0q-76 0 -115 -1h-61q-26 -1 -78 -1q-23 0 -34 -1q-22 -1 -43 -9q-10 -5 -23 -19 q-10 -10 -10 -27v-15q1 0 2.5 -0.5t2.5 -0.5h17q27 1 84 1q21 1 62.5 1t62.5 1l10 -1q11 0 11 1q17 1 46 1h46q25 0 37 -1q1 0 17 -1t24 -2q22 -3 26 -4q8 -2 12 -4q20 -8 34 -16q1 0 3 -1t3 -1q2 -1 8 -3.5t9 -4.5q4 -3 13 -9.5t14 -9.5q2 -1 4 -3q2 -3 8 -8t7 -6 q7 -7 10 -11q2 -3 19 -28q13 -22 17 -40q2 -8 4 -24q1 -6 1.5 -16.5t0.5 -13.5v-14v-12q0 -8 -1 -13q0 -12 -1 -18q0 -2 -0.5 -5t-0.5 -4q0 -18 -10 -40q-16 -32 -27 -46q-5 -5 -11 -13q-10 -10 -14 -16q-11 -11 -17 -15q-16 -12 -40 -24q-11 -5 -33 -11q-14 -2 -21 -4 q-6 -1 -17 -1h-48q-38 0 -57 1q-4 0 -14 0.5t-14 0.5q-9 0 -38.5 -0.5t-45.5 -1.5q-18 -1 -52 -1h-51q-25 0 -38 1q-3 0 -10 0.5t-10 0.5q-1 1 -3 1h-83q-11 0 -35 -2h-16q-18 0 -38 3q-2 0 -5.5 0.5t-5.5 0.5q-5 0 -17 4q-3 1 -8.5 3t-8.5 3q-11 4 -13 6q-17 10 -29 21 l-30 27q-22 20 -33 44q0 1 -1 2.5t-2 2.5q-3 11 -11 31q-2 6 -4 18l-6 36q-1 10 -1 30q-1 12 -1 36.5t-1 37.5q0 31 -1 46q0 6 -0.5 16t-0.5 15l-1 1v2v23l1 2q0 5 0.5 13.5t0.5 12.5q0 3 0.5 8t1.5 8l3 39q3 38 3 40q5 31 14 49q9 20 14 27q4 5 12 13q18 22 27 30 q20 17 39 23q2 0 5.5 1.5t4.5 2.5q13 6 45 12q16 2 26 4q18 2 27 2h83q133 0 150 1h18q1 0 2 0.5t2 0.5h44zM379 253v-14q0 -17 8 -28q1 -1 2.5 -3.5t2.5 -3.5q11 -13 21 -15q2 0 6 -1t5 -1q18 -5 32 -5q13 -1 38 -1.5t38 -0.5h40h18q18 1 18 0q24 0 43 4q16 3 28 12 q8 6 8 16v7q0 10 -7 19q-8 9 -29 13q-2 1 -7 1t-8 1q-6 0 -19.5 0.5t-20.5 0.5h-5q-10 1 -30 1q-26 -2 -38 -2h-20h-48q-8 0 -23.5 -0.5t-23.5 -0.5h-9q-3 0 -10 0.5t-10 0.5z" glyph-name="six" horiz-adv-x="1066" unicode="6"/><glyph d="M967 697q1 -2 1 -8q0 -3 -0.5 -9t-0.5 -9t0.5 -9.5t0.5 -8.5v-90q0 -7 -1 -9q1 -5 1 -14q-1 -4 -9 -14t-20 -24q-1 -1 -6 -7.5t-8 -9.5q-2 -3 -7.5 -9.5t-8.5 -10.5q-2 -2 -11 -14.5t-14 -19.5q-7 -8 -20 -25.5t-19 -26.5q-9 -13 -12 -17q-2 -4 -8 -10q-1 -1 -14 -17 q-12 -14 -17 -21l-36 -42l-15 -18q-8 -10 -11 -16q-2 0 -2 -2q-5 -4 -9.5 -10t-10.5 -13.5t-9 -11.5q-6 -8 -20 -24q-3 -5 -10.5 -14.5t-11.5 -13.5q-24 -28 -35 -41q-5 -7 -19 -23q-4 -4 -11.5 -13t-10.5 -14l-18 -21q-11 -15 -31 -33l-4 -4h-2q-4 0 -13.5 -0.5t-14.5 0.5 h-27h-29h-94q-9 1 -54 1q-26 0 -39 -2h-57q-16 -2 -31 0h-22q3 4 8 9l24 27q1 1 9.5 10.5t12.5 14.5q15 15 21 23l45 57q22 28 33 41q4 4 10 14q5 6 14.5 18.5t14.5 18.5t16 19.5t16 20.5q4 5 12.5 15t13.5 15t15 19l9 9q6 8 17 22.5t15 20.5q2 2 4.5 6t3.5 6q3 3 8.5 10 t8.5 11q1 2 5 6q8 7 20 23q1 1 14 17q6 8 9 13q16 18 23 28q3 3 7 8t7 8q-1 1 -5 1h-103q-5 0 -14 1t-13 1q-2 0 -7 0.5t-8 0.5q-7 1 -15 0h-16h-35q-5 0 -13 0.5t-12 0.5q-5 0 -15.5 -1t-16.5 -1h-20q-70 0 -104 -1h-60q-20 0 -30 1h-2v1q-2 16 -2 23q-1 12 -1 76 q0 8 0.5 22t0.5 22q0 2 -0.5 6.5t-0.5 6.5v6q1 5 0 11v8l4 2q11 -1 34 -1h22h78h13.5h15h12.5q47 0 70 -1h18q18 0 27 1h45q6 0 19 -0.5t19 -0.5q13 -1 40 -1h2q17 1 51 1q18 1 54 1q9 0 28 0.5t29 0.5h2q1 1 2 1h45q1 0 3 -1h21q12 0 18 -1q5 0 13 -0.5t13 -0.5 q19 -1 56 -1q13 0 39 2h33q18 0 27 1q2 0 6.5 -0.5t7.5 -0.5q10 0 14 1h11q1 0 3 1h1z" glyph-name="seven" horiz-adv-x="1038" unicode="7"/><glyph d="M919 360l18 -18q7 -7 19 -23q1 -2 3.5 -6t4.5 -6q5 -8 14 -35q1 -5 2 -10.5t2 -12.5t2 -11q1 -2 1.5 -6.5t0.5 -6.5q2 -31 1 -48q-2 -42 -18 -72q-3 -5 -7.5 -14l-6.5 -13q-8 -14 -23 -26q-2 -2 -25 -19q-10 -8 -19 -11q-1 -1 -2 -1q-13 -8 -33 -15q-6 -2 -18 -4 q-4 -1 -13 -1q-2 -1 -6 -1h-70q-2 0 -5 0.5t-4 0.5q-2 0 -5.5 0.5t-4.5 0.5h-121q-35 -1 -106 -1h-59h-136q-7 0 -19 -0.5t-18 -0.5t-8 1q-7 0 -23 2q-42 8 -58 16q-28 14 -37 20q-16 12 -22 19q-19 18 -23 26q-4 6 -10 20q-2 6 -6 16t-7 23v4q0 1 -3 19v2q1 7 0.5 20.5 t-0.5 19.5q2 18 2 28q1 8 10 41q1 3 6 17q2 4 11 18q3 5 11 15q1 2 3.5 4.5l3.5 3.5q3 2 5 5q10 12 20 17q-2 2 -2 4q-15 18 -23 36l-2 2q-7 11 -11 30q-4 31 -5 44v11q-1 10 0 10v7q0 13 2 41q0 7 4 17q4 15 11 35q8 14 12 20q3 4 9.5 11.5t9.5 11.5q3 3 11 9q14 11 27 16 q2 0 4 2q22 14 51 21q15 4 19 5q2 0 6.5 1t8 1.5t6.5 0.5q22 3 52 1h22q22 1 67 1q42 -2 63 -2h58h47h41q28 0 41 1q25 1 74 1q2 0 6.5 -1t7.5 -1q2 0 8 -0.5t8 -0.5q42 3 83 -21q13 -8 27 -20q18 -14 26 -22q24 -22 34 -53q7 -21 11 -37q4 -13 4 -32v-25q-1 -15 -5 -45 q-1 -7 -8 -29q-5 -18 -20 -38q-1 -2 -4.5 -5t-4.5 -5zM465 270h-29h-5q-16 -6 -29 -15q-12 -10 -14 -19q-2 -10 -2 -16q2 -17 14 -24q2 -2 14 -7q15 -5 38 -5q4 0 11 0.5t11 0.5t13.5 -0.5t14.5 -0.5h52q10 0 29.5 0.5t29.5 0.5q9 0 14 1q20 7 25 11q6 6 9 8q7 7 7 19 q1 16 -13 34q-2 2 -4 3q-7 5 -23 9q-6 2 -9 2h-30h-52q-25 0 -38 -1q-5 0 -17 -0.5t-17 -0.5zM603 433q6 3 9 4q11 1 22 11q7 6 9 18v11q-2 12 -8 17q-7 7 -17 12q-1 0 -2.5 0.5t-3.5 1.5t-3 1q-8 1 -25 1h-30q-2 0 -4 0.5t-4 0.5h-24q-5 0 -14.5 -0.5t-14.5 -0.5h-35h-4 q-21 -6 -32 -23q-6 -8 -6 -14q-4 -12 4 -20l3 -3q1 -4 5 -6l15 -9q8 -5 18 -5q5 0 13.5 0.5t12.5 0.5q12 0 34 0.5t33 0.5q9 0 25 0.5t24 0.5z" glyph-name="eight" horiz-adv-x="1058" unicode="8"/><glyph d="M474 -3q0 1 -5 1q-21 1 -60 1h-118q-36 0 -53 1q-26 1 -79 1q-5 0 -15 -0.5t-14 -0.5h-4v4v31q0 9 -1 28t-1 29q-1 14 -1 37.5v38.5v12h3q7 1 20 1.5t17 0.5q13 1 40 1q43 0 64 -1h54q19 0 57.5 0.5t57.5 0.5q10 0 31 0.5t31 0.5h77q6 0 17.5 0.5t17.5 0.5q21 1 42 9 q11 5 24 19q10 11 10 28v14q-2 1 -6 1h-43q-9 0 -27 -0.5t-27 -0.5q-17 0 -68.5 -0.5t-80.5 -1.5h-93l-18 -1q-18 0 -18 1q-40 3 -41 3q-14 2 -21 2l-18 6q-6 3 -34 16q-2 1 -6 2.5t-6 2.5q-6 3 -18 11q-16 11 -20 13l-3 3q-3 4 -15 14l-11 11q-3 5 -9.5 14.5t-9.5 14.5 q-12 21 -16 39q-1 4 -2.5 12t-2.5 12q-1 5 -1 30q0 3 -0.5 8t-0.5 8q0 4 0.5 15.5t1.5 17.5q1 5 1 17q2 23 12 44q2 4 6 11.5t6 10.5q1 2 3.5 5.5t3.5 5.5q7 11 22 27q3 2 7 8q10 13 25 22q11 8 35 20q10 5 32 11q4 1 11.5 2.5t10.5 1.5q10 2 15 2q34 0 50 -1q38 0 56 -1h30 q55 0 83 1q34 1 102 1q26 0 38 -1q3 0 10 -0.5t11 -0.5q3 -1 10 -1q50 0 75 1q24 0 36 1l9 1q9 0 9 -1q11 0 35 -2q8 -2 12 -2q5 0 17 -4q8 -2 17 -6q6 -1 13 -5q20 -14 29 -21q10 -9 29 -28q21 -20 33 -43l3 -6q8 -20 11 -30l2.5 -10l2.5 -10q4 -21 5 -35q2 -20 2 -31 q0 -13 0.5 -37t0.5 -36q1 -15 1 -46q1 -10 1 -30q1 -8 1 -22q0 -10 -2 -28q0 -12 -1 -17q0 -3 -0.5 -8t-1.5 -8v-3q-1 -6 -1 -17t-1 -16q0 -19 -5 -42q-4 -21 -16 -49q-5 -11 -14 -21q-1 -1 -9.5 -11t-13.5 -15q-2 -2 -7 -6.5t-7 -7.5q-12 -11 -42 -23q-13 -6 -27 -9 q-5 -1 -15.5 -3t-15.5 -3q-6 0 -18 -2q-8 -2 -14 -2q-29 -3 -87 -1h-97q-5 1 -15 1q-11 0 -33 -1t-33 -1h-1l-1 -1h-44zM688 442q0 21 -3 31q0 3 -2 5l-9 12q-9 12 -21 15q-3 1 -8.5 2.5t-8.5 1.5q-8 2 -11 2q-22 2 -31 2q-29 0 -43 1h-30h-31q-31 -1 -31 0q-30 0 -44 -4 q-16 -3 -28 -12q-8 -6 -8 -15v-8q2 -20 18 -27q13 -6 25 -5h4q8 -2 24 -2q5 0 14.5 -0.5t14.5 -1.5q5 0 15 0.5t15 0.5q7 1 19 1h49t61 2h19q3 0 7 -0.5t7 -0.5h17z" glyph-name="nine" horiz-adv-x="1066" unicode="9"/><glyph d="M78 423l-2 1h-4q-1 2 -1 6l1 55q0 55 -1 55q0 10 -0.5 29t-0.5 28v6q4 1 18 1l2 -1q3 1 9 1t10 1h4h65q17 -1 45.5 -1h45.5h92h7q1 -33 -0.5 -93.5t-1.5 -84.5h-3q-1 -1 -13 0h-11q-14 0 -41.5 -1t-41.5 -1q-9 0 -13 -1q-20 -2 -31 -2q-11 1 -34 1q-4 0 -11 1t-10 1h-71 q-4 0 -8 -1zM368 211v-6q0 -64 -1 -96q-1 -13 -1 -37.5v-36.5v-1h-2l-2 -1h-35q-24 -1 -71 -1q-1 0 -28 -3h-21q-1 0 -3 1q-28 0 -41 1q-6 0 -16 0.5t-15 0.5h-49q-1 0 -3 -2q-3 0 -9 2v7v109q0 10 -0.5 29t-0.5 28v6l2 1h2q5 -1 15 -1h7q22 2 32 2h48q16 -1 92 -1 q31 -1 93 -1h7z" glyph-name="colon" horiz-adv-x="439" unicode=":"/><glyph d="M491 203l-6 -12q-1 -3 -8 -18t-10 -23q-2 -3 -15 -38q-13 -40 -31 -72q-4 -10 -8 -14q-1 0 -1 -1t-1 -2q-4 -11 -5 -14q-1 -1 -1 -4q0 -5 -2 -11q-6 -14 -9 -22q-10 -20 -28 -60q-1 -2 -3.5 -6t-3.5 -6q-2 -2 -4.5 -7l-3.5 -7h-4q-9 -1 -26 -1h-26h-29h-23h-35h-6 q-28 0 -42 1q-22 0 -32 1q-9 1 -55 1h-3q0 2 1 2q3 8 8 23.5t7 23.5q3 9 4 11q2 5 5 15.5t5 15.5q1 2 4.5 10t4.5 13q7 18 12 36l12 36l12 42l18 57q1 2 3.5 8.5t3.5 10.5q0 2 2 6t2 6q8 2 11 1q5 -1 15 -1q18 2 29 2h34h22q9 -1 84 -1q11 -1 34 -1h35q8 0 26 -0.5t27 -0.5z M472 603v-6v-97v-36t-1 -36v-2h-5h-16.5t-17.5 -1q-12 0 -36 -0.5t-36 -0.5q-8 0 -11 -1q-22 -2 -33 -2q-11 1 -33 1q-3 0 -10 1t-11 1h-71q-5 0 -8 -1l-3 1h-4v6v110q-1 18 -1 56v7h4q2 0 7.5 -0.5t8.5 -0.5q2 0 7.5 0.5t8.5 0.5q1 0 4 0.5t5 0.5h38h25q10 -1 91 -1h91h7z " glyph-name="semicolon" horiz-adv-x="561" unicode=";"/><glyph d="M798 689v-12q-1 -12 -1 -38q0 -2 0.5 -7.5t0.5 -8.5v-10q0 -14 -1 -21q-1 -33 -1 -99v-4q-6 -2 -15.5 -5.5t-12.5 -4.5q-13 -5 -36 -12.5t-31 -10.5q-4 -1 -22 -8t-28 -10q-3 -1 -9 -2.5t-9 -2.5q-17 -4 -49 -16q-15 -6 -42.5 -15.5t-33.5 -11.5q-42 -14 -62 -21 q-6 -2 -20 -6.5t-21 -7.5q-1 -1 -2.5 -1t-2.5 -1q4 -3 8 -4q13 -4 41 -13t41 -14q13 -4 38 -13t38 -14q6 -2 21.5 -7.5t24.5 -8.5q10 -4 32 -10q10 -2 19 -6q10 -3 47 -17q26 -8 39 -13q22 -7 49 -17v-4v-73v-60v-56v-6q-2 -1 -9 2q-18 7 -54 19q-8 3 -59 22l-24 8t-28 9 t-28 9q-26 9 -46 14q-6 2 -18.5 6.5t-18.5 6.5q-12 4 -36.5 12.5t-36.5 12.5q-5 2 -15.5 6.5t-16.5 6.5q-12 5 -38 13q-11 4 -49 16q-48 18 -72 26q-17 7 -38 13q-3 0 -8 1.5t-8 2.5t-12.5 4.5t-15.5 5.5q-1 1 -3 1t-3 1q-5 4 -17 8l-36 12q-6 2 -15.5 5.5t-12.5 4.5 q-1 1 -3.5 2t-4.5 1v3q0 8 0.5 23.5t0.5 22.5q-1 13 -1 40t-1 40q0 25 -1 38v1l1 2q10 4 32 12q0 1 2 1q6 0 14 4q6 2 17.5 5.5t14.5 4.5l4 2q8 5 38 14q44 14 66 22q58 20 87 31q3 1 9.5 2.5t11.5 3t9 3.5q30 10 45 17q12 5 36 13t29 10q7 2 29.5 10t35.5 12q6 2 40 12 q14 4 31 11q22 8 33 11l36 12q39 14 67 25q26 8 40 13z" glyph-name="less" horiz-adv-x="869" unicode="&lt;"/><glyph d="M71 418q0 22 1 26q1 2 1 12q0 85 1 127v8q2 2 7 2h116h136q24 2 69 2h55q4 0 5 -1q8 -1 46 -1h96h95h43q13 0 19 -2h6h7.5h6.5t6 0.5t7 0.5q18 1 54 1q12 0 18 -2q3 -1 11 -1q2 -1 2 -6q0 -12 0.5 -35t0.5 -35q0 -10 1 -14v-4q-1 -7 -1 -59q0 -13 -2 -20q-1 -1 -5 -1 q-33 0 -50 -1q-14 -1 -40 -1.5t-34 -0.5h-75q-4 0 -11 -0.5t-11 -0.5q-8 0 -25 0.5t-26 0.5q-22 0 -33 1q-10 0 -15 1h-3h-4.5h-3.5h-106q-18 0 -52 0.5t-52 0.5q-15 0 -22 -2q-4 -1 -12 -1q-10 0 -28 0.5t-27 0.5h-70q-19 0 -23 1h-9q-21 1 -63 1q-1 0 -7 2zM71 127 q0 22 1 26q1 2 1 12q0 85 1 127v8q1 2 7 2h116h136q8 2 62 2h62h5q11 -2 46 -2h95h96h43q13 0 19 -1q6 -2 20 0h13q18 1 54 1q12 0 18 -2q3 -1 11 -1q2 -1 2 -5q0 -12 0.5 -35.5t0.5 -35.5q0 -10 1 -14v-4q-1 -6 -1 -59q0 -3 -0.5 -9.5t-0.5 -9.5q-2 -2 -6 -2q-32 0 -48 -1 q-25 -1 -75 -1q-25 -1 -76 -1q-4 0 -11 -0.5t-11 -0.5q-8 0 -25 0.5t-26 0.5q-11 1 -33 1q-10 0 -15 1q-3 1 -11 1h-33.5h-39h-33.5h-104q-15 0 -22 -2h-13h-56h-68q-19 0 -23 1h-5t-4 1h-63q-4 2 -7 2z" glyph-name="equal" horiz-adv-x="951" unicode="="/><glyph d="M73 495v5v74q0 26 -1 39q-2 11 0 20v22v29v10l10.5 -3.5t11.5 -4.5q7 -2 21.5 -7t21.5 -8q10 -4 62 -22l63 -21q50 -16 56 -18q18 -6 52 -17.5t45 -15.5q7 -2 21 -7.5t19 -7.5q53 -19 58 -21q13 -4 37.5 -12t29.5 -10q11 -4 34 -12t34 -12q9 -3 25.5 -8t21.5 -7 q12 -4 18 -8q1 0 2 -1t2 -1q20 -6 39 -13l1 -1h2q7 0 29 -9q3 -2 11 -4v-5v-14q-1 -14 -1 -41v-40q-1 -19 -1 -57q0 -8 1 -13q-10 -4 -14 -5q-11 -4 -33 -11.5t-33 -11.5l-2 -1h-3q-6 -4 -33 -14q-46 -14 -68 -22q-13 -5 -43.5 -15.5t-46.5 -16.5h-1q-1 -1 -2 -1 q-3 -1 -55 -18l-39 -15q-17 -7 -53 -19q-7 -2 -23 -7.5t-25 -8.5q-14 -5 -44 -13q-20 -8 -31 -11q-39 -13 -47 -16q-6 -2 -17 -5.5t-16 -5.5q-9 -3 -24.5 -9t-19.5 -7q-34 -12 -50 -18q-2 0 -4 -1v2v51q1 18 1 52q-1 22 -1 64v26v4q16 7 35 13q11 4 31 10.5t28 9.5 q26 10 39 14q12 5 36 11q14 4 42 14q5 2 24 9t29 10q81 28 104 35q16 6 23 9q4 0 8 3q-10 3 -18 6q-14 5 -41.5 14.5t-41.5 14.5l-63 21q-7 3 -21 8.5t-21 7.5q-6 2 -18.5 5.5t-18.5 5.5q-8 2 -21.5 6.5l-16.5 5.5q-40 14 -59 21q-6 2 -25.5 9t-29.5 11q-1 0 -2 1z" glyph-name="greater" horiz-adv-x="869" unicode=">"/><glyph d="M274 196v36v7q0 15 0.5 46t0.5 47q2 40 8 60q5 15 15 25q12 13 34 18q26 4 38 4q8 0 25.5 0.5t26.5 0.5q10 0 30.5 0.5t31.5 0.5h98q5 0 13 2l15 6q5 2 18 13q10 12 7 27q-4 13 -19 25l-6 3q-2 1 -8 3q-13 3 -24 2h-7q-31 0 -47 -1q-9 0 -26.5 -0.5t-25.5 -0.5 q-4 0 -11.5 -0.5t-10.5 -0.5q-3 -1 -9 -1h-16h-8q-5 1 -19 -3q-3 0 -7 -4q-16 -16 -20 -32q-1 -2 -1 -6t-1 -6h-5h-61q-10 0 -30 2q-2 0 -5.5 0.5t-5.5 0.5h-71h-45q-27 0 -40 -1q-9 0 -14 1q-14 0 -21 1v5q-1 4 -1 13v2q2 22 3 32q0 6 2 18q0 3 2 11l3 12l6 24q6 16 18 31 q11 13 23 26q13 12 26 18q2 1 31 17q13 8 39 15q10 3 32 7q6 1 19 1q6 0 19 -0.5t19 -0.5q8 0 23 0.5t22 0.5h16q11 -1 30 -1h30q0 -1 17 0h18q88 0 106 1h71q11 0 35 -2h13h62q19 0 34 -7q5 -2 15 -5.5t15 -5.5q31 -12 54 -30q18 -14 35 -38q10 -14 14 -22q4 -6 7 -16 q2 -5 5.5 -15.5t5.5 -15.5q0 -3 1 -9.5t2 -9.5q2 -44 1 -68q0 -8 -2 -26q-4 -20 -8 -31q-10 -26 -25 -44q-2 -4 -7 -10t-6 -8q-3 -4 -10 -10t-9 -8q-8 -7 -41 -28q-8 -4 -18 -8q-30 -11 -34 -12q-14 -5 -31 -7q-7 -1 -22 -2t-23 -2h-4q-26 0 -39 -1h-63q-10 0 -20 -10 q-9 -10 -9 -26v-23v-6h-2q-4 0 -11.5 -0.5t-11.5 -0.5h-30h-6h-232h-6zM274 144h15h18q25 3 75 1q16 -1 46 -1h45h91h7q1 -11 0 -68t-1 -68h-2l-2 -1h-35q-50 0 -75 -1q-4 0 -12 -1t-12 -1h-23q-2 1 -5 1h-24q-14 1 -89 1q-4 0 -7 -1q-1 0 -4 0.5t-5 0.5v7v82q0 8 -0.5 21.5 t-0.5 21.5v6z" glyph-name="question" horiz-adv-x="1015" unicode="?"/><glyph d="M70 416v2l1 2v31q0 24 1 37q1 3 0 9.5t-1 7.5q0 7 0.5 21.5t1.5 21.5q0 11 6 33q2 8 10 24q7 17 23 38q1 2 4 5l11 11q10 12 27 20q20 10 30 14q5 3 25 7q6 0 16 2h4q56 2 84 1h29h76h273h33h12h79q21 0 31 -1q1 0 3.5 -0.5t3.5 -0.5l21 -3q2 0 4.5 -0.5t5.5 -1.5t5 -1 q6 -3 18.5 -9t18.5 -9q13 -8 22 -17q2 -3 7 -8q14 -14 26 -38q8 -16 14 -31q3 -5 5 -19q1 -5 2 -13.5t1 -9.5v-38v-16v-18q1 -16 1 -48q0 -3 0.5 -7t0.5 -7q0 -5 -0.5 -14.5t-0.5 -13.5q0 -7 0.5 -20t0.5 -20q0 -4 -0.5 -14t-0.5 -15q0 -2 0.5 -5t0.5 -4q0 -2 -0.5 -6.5 t-0.5 -6.5q0 -27 -1 -41v-25v-11v-31q-1 -3 -1 -10q1 -17 -6 -41q-1 -5 -5 -13t-5 -11q-8 -19 -23 -39q-1 -1 -2 -2.5t-2 -2.5l-3.5 -3.5t-4.5 -4t-3 -3.5q-11 -12 -28 -20q-8 -4 -13 -7q-11 -6 -31 -8q-17 -2 -53 -2q-25 1 -48 15l-10.5 7t-11.5 7q-22 19 -33 34 q-13 17 -29 40q-11 16 -18 33q-10 20 -16 30q-12 22 -18 32q-7 13 -21 37q-2 3 -5.5 9t-4.5 9q-1 1 -2.5 3.5t-2.5 3.5q-12 0 -35.5 -0.5t-35.5 -0.5h-35.5t-35.5 1q-2 -4 -4 -6q-1 -2 -19 -35l-9 -15h-80q-27 -1 -81 1q0 1 2 4t2 5q2 5 6.5 13.5t6.5 12.5l9 18q1 2 8 14 q1 2 17 31q16 26 23 39q4 6 18 32q3 4 8 13t8 14q18 30 20 35q4 6 5 10l30 54q2 3 5.5 9.5t4.5 10.5q3 1 7 1h99q8 0 24 -0.5t25 -0.5q5 0 15.5 -0.5t16.5 -0.5q3 -8 11.5 -20.5t10.5 -15.5q3 -5 24 -43q0 -2 1 -2q4 -10 7 -14q6 -8 9 -17q3 -8 15 -27q3 -5 8.5 -14.5 t7.5 -14.5l1 -1q5 -7 12.5 -19.5l10.5 -17.5q0 -2 2 -5t2 -4q11 -22 26 -47q2 -3 6 -10.5t7 -11.5q3 -5 8 -14t7 -14q5 -11 13 -17t18 -5q4 1 8 7q3 5 3 11q2 20 2 30q0 33 1 49q1 15 1 87v2q0 11 -0.5 32.5t-0.5 33.5q0 4 -0.5 12.5t-0.5 13.5q-1 4 -2 17.5t-3 20.5 q-6 22 -14 32q-19 23 -43 32q-5 2 -15 4q-12 2 -32 4h-41h-306h-27q-26 0 -39 -1q-5 0 -14 -2t-11 -2q-13 -2 -21 -7q-21 -10 -36 -31q-4 -4 -7 -12q-7 -17 -8 -33q-2 -26 -2 -39q-1 -15 -1 -44q-1 -18 -1 -111q0 -8 0.5 -23t0.5 -23q0 -16 1 -24q1 -4 2 -18t3 -21 q6 -22 14 -32q21 -24 43 -32q10 -2 14 -3q10 -2 30 -4q16 -1 47 -1h238h6v-1q1 -38 1 -113v-3h-6h-249q-3 0 -9 0.5t-9 0.5q-2 0 -6 -0.5t-6 -0.5h-86q-4 0 -12 0.5t-12 0.5q-3 1 -8 1q-3 0 -9.5 1t-9.5 2q-8 0 -14 3q-34 14 -50 25q-4 3 -10 9l-9 9q-15 15 -26 37 q-7 15 -14 33q-3 5 -5 19q0 1 -3 23q0 6 -0.5 18t-0.5 18q0 1 0.5 4t0.5 4v9q0 4 -0.5 11.5t-0.5 10.5v45q0 1 -1 3v1v11l1 1v28q-1 1 -1 2v40v1l1 2v26q-1 1 -1 2v10zM507 354q8 -1 27.5 -1t21.5 1q-8 16 -13 24q-4 6 -8 13q-1 2 -3 4q-14 -22 -25 -41z" glyph-name="at" horiz-adv-x="1075" unicode="@"/><glyph d="M478 705h41q18 -1 50 -1h51q18 -1 54 -1h85q6 0 20 2q1 -2 5 -6q10 -16 16 -24q2 -3 6 -7.5t4 -5.5q3 -5 11.5 -16t12.5 -18q4 -9 27 -44q28 -42 41 -63l3.5 -7t4.5 -7q2 -4 3 -5q8 -8 17 -24q5 -10 17 -32q5 -10 17 -28t28 -41l12 -18t11 -16q2 -2 13 -19q2 -4 7 -9.5 t6 -6.5q0 -1 1.5 -2.5t1.5 -2.5q5 -9 27 -41q15 -21 25 -41q4 -7 12 -19q3 -5 25 -41q14 -22 22 -32q4 -4 9.5 -13t7.5 -12q4 -6 11 -17.5t11 -16.5q10 -15 32 -45q1 -2 4 -6.5l5 -7.5q3 -3 2 -5h-344q-2 4 -5 7q-6 10 -9 14q-2 3 -10.5 15.5t-11.5 20.5q0 1 -1.5 3t-2.5 3 q-2 4 -7.5 12t-8.5 12q-1 1 -3 4t-3 4t-3 3.5t-3 4.5q-3 4 -8 11t-7 11h-9q-2 0 -6.5 -0.5t-6.5 -0.5h-31q-31 1 -31 0q-41 -3 -92 -1q-30 1 -90 1h-89h-6q-10 -12 -13 -19q-2 -5 -7.5 -12.5t-6.5 -9.5q-4 -6 -12.5 -19t-12.5 -20q-3 -5 -16 -23q-1 -1 -1 -2q-8 -12 -12 -19 h-6h-114h-111h-15q-6 0 -10 2h-6h-65h-6l12 24q15 25 17 29q10 16 14 25q6 10 8 15q12 25 34 54q4 6 12 17.5t12 17.5q3 5 26 41l21 30q4 6 12.5 18.5t12.5 18.5q3 5 19 29l18 30q10 14 15 22q3 5 9.5 15.5t10.5 15.5t12 16.5t12 17.5q3 4 9 14t9 14q3 5 10 14.5t10 14.5 q12 15 21 33q10 18 20 31l9 15q12 20 18 29q3 6 10 17t9 14l18 27l9 18q1 2 14 20zM692 308q-17 25 -19 27q-1 2 -3 5t-3 5q-3 4 -8 11t-7 11q-4 6 -5 7q-2 5 -14 21l-6 3l-2 -2q-17 -26 -32 -46q-16 -24 -19 -29q-1 -1 -8 -13h126z" glyph-name="A" horiz-adv-x="1273" unicode="A"/><glyph d="M71 6v19v157v75t1 75q1 22 1 133q0 23 2 35v29q1 19 1.5 55.5t0.5 48.5q-1 12 -1.5 34.5t-0.5 29.5q0 6 3 10l2 1h3q17 0 20 1h6q3 0 8 -0.5t8 -0.5q63 0 95 -1h64q39 0 58 1q58 2 88 1q17 -1 107 -1q18 1 48 1h47h26q6 0 19 -0.5t19 -1.5h64q13 -1 25 0q23 1 68 1l21 -3 h3q21 0 47 -7q34 -9 64 -27q7 -5 13 -10q12 -11 21 -21q17 -18 30 -54q7 -23 8 -28q4 -14 4 -22v-28t-1 -29q0 -8 -2 -22q-3 -19 -9 -35q-7 -21 -21 -43q0 -1 -2 -3q7 -6 19 -18q16 -14 25 -27q13 -19 18 -33q6 -15 9 -30q2 -8 2 -13q1 -4 1 -14v-40q0 -4 -0.5 -12.5 t-0.5 -13.5q-1 -1 -1 -4q0 -30 -14 -60q-10 -22 -23 -36q-2 -3 -7.5 -8t-8.5 -8q-15 -13 -28 -21q-8 -6 -18 -9q-24 -8 -36 -11q-26 -6 -39 -8q-6 0 -18 -2q-5 0 -15 -2h-1q-8 -1 -23 -1h-70q-11 0 -33 -2q-18 -2 -38 0q-21 0 -31 1q-35 2 -105 0h-59.5t-59.5 -1 q-18 -1 -55 -1h-56q-19 -1 -55 -1q-5 0 -21.5 0.5t-25.5 1.5h-39q-21 1 -62.5 1h-63.5q-7 0 -25 2zM377 189h5q22 0 33 1q1 0 5 -0.5t6 -0.5q3 0 8 0.5t7 0.5q20 -2 31 -2q19 -1 56 -1q8 0 32.5 -0.5t38.5 -1.5q15 0 23 -1q10 -1 31 -1q43 0 52 1q2 0 9 0.5t11 1.5 q19 1 37 12q13 7 19 23q7 14 -4 32q-1 1 -1 2q-20 15 -44 15h-37t-38 1q-14 0 -21 1q-10 1 -29 1h-111h-7q-16 -2 -24 -2q-6 -1 -36 2q-10 1 -27.5 0t-23.5 -1q-1 -1 -1 -2v-81zM376 438h7h170q20 -1 120 -1q2 0 6.5 0.5t6.5 0.5q18 4 25 9l1 1q15 8 21 27q4 8 0 21l-3 6 q-8 11 -23 14q-8 2 -13 3q-21 3 -22 3q-14 1 -43 1q-37 0 -56 -1q-44 0 -66 1q-42 1 -126 1q-1 0 -2 -0.5t-2 -0.5v-6v-69q0 -1 -0.5 -4.5t-0.5 -5.5z" glyph-name="B" horiz-adv-x="1174" unicode="B"/><glyph d="M843 281h9h143q17 -1 46.5 -1h45.5q3 0 9 -0.5t8 -0.5q3 -1 9.5 -1.5t8.5 -0.5q9 0 14 -1q1 -2 1 -6v-85q0 -6 -4 -22q-8 -30 -10 -34q-9 -21 -19 -35q-25 -30 -33 -37q-9 -9 -14 -13q-2 -2 -3 -2q-2 0 -15 -8q-27 -14 -54 -20q-12 -2 -19 -2q-2 0 -5 -1t-5 -1 q-16 -2 -23 -3h-2q-5 0 -19.5 -1t-22.5 0q-16 1 -42.5 1h-42.5h-4q-7 0 -29.5 -1t-35.5 0q-6 -1 -37 -1q-24 -2 -34 -2q-8 -1 -24 -1q-10 0 -28 -0.5t-28 -0.5q-17 1 -103 1q-8 0 -24 -0.5t-24 -0.5h-25q-11 1 -32 1q-10 2 -14 1q-11 -1 -28.5 -1h-27.5q-6 0 -16.5 1 t-15.5 1q-6 0 -18 2q-22 3 -40 10q-6 2 -17 7.5t-12 5.5q-1 1 -4 2t-4 1l-12 6q-28 18 -32 21q-15 13 -24 25q-8 10 -13 17q-13 15 -16 39q-3 9 -5 27v3q-1 10 -1 29t-1 29q0 45 -1 68q0 21 -1 32t-1 29.5v29.5q-1 12 -1 72q0 9 2 25q1 5 1 16q1 6 1.5 16t0.5 13t0.5 6 t1.5 7.5t1 6.5q1 4 3.5 11t3.5 11q3 12 15 34q2 4 7 11.5l7 10.5l4 4q28 29 51 43q20 12 37 17l10.5 3.5t11.5 3.5q10 2 16 3t20 1q3 0 7 0.5t7 0.5q1 0 4 -0.5t5 -0.5h3q3 0 7 0.5t7 0.5q12 1 31.5 1h31.5q17 1 50 1q24 1 145 1q18 0 27 -1t54 -1q17 1 45 1h45 q10 -1 27.5 -1h27.5q5 0 13 -0.5t12 -0.5q7 1 21 1h21q10 1 30 1q8 1 43 1q7 0 21 -2h1q10 1 35 -6q29 -6 52 -22q3 -2 11 -6t11 -6q13 -8 28 -25l18 -21q8 -14 10 -16q12 -21 16 -39q1 -4 3 -14q0 -8 2 -22v-4v-88v-2q-12 -2 -17 -2h-42q-22 1 -198 1q-9 1 -29 -1 q-1 0 -5 -0.5t-5 -0.5q-1 2 -1 7t-1 8q0 1 -0.5 4t-0.5 4q-4 13 -13 30q-10 15 -23 20q-4 2 -12 5.5t-12 5.5q-12 4 -19 4q-4 -1 -13 -1q-4 1 -13 1t-14 1h-46q-39 -3 -87 -1q-10 0 -28.5 0.5t-27.5 0.5q-11 0 -33 -2q-2 -1 -6 -1t-24 -2q-5 0 -28 -5q-14 -4 -28 -12 q-9 -6 -10 -7q-9 -6 -21 -24q-3 -6 -3 -14q-2 -12 -2 -18l-1 -1v-1q0 -17 -1 -25q0 -1 -0.5 -4t-0.5 -5q0 -4 1 -11t1 -10v-8v-25q0 -12 1 -35t1 -34q0 -16 3 -24t4 -10q7 -16 23 -27q12 -8 23 -14q3 -1 11 -3q5 -1 16 -1q24 -2 36 -2h7q21 -1 63 -1h5h6h5h11h9 q8 -1 24.5 -1.5t24.5 -0.5q10 -1 31 -1q19 0 29 1q7 1 21 1q5 0 14.5 1t13.5 1q9 0 17 4q1 0 3 1t3 1q9 1 20 10l15 12q14 10 19 22q6 18 8 27q1 2 1.5 5t0.5 5z" glyph-name="C" horiz-adv-x="1207" unicode="C"/><glyph d="M73 8q-1 11 -1 31q-1 10 -1 90q0 9 2 27v18q1 23 1 135q0 5 1 16t1 17v6v64q0 33 -1 48q-1 27 -1 73v72q1 15 1.5 42t0.5 36q0 10 1 16h6q7 1 19 1t19 1q1 0 25 3h5h114q9 0 27.5 1t27.5 1q25 0 38 1q9 1 26.5 1h26.5q20 1 59 1q32 -2 49 -1h49.5t48.5 1q28 1 76 1h76 q14 -1 37 -1h37q20 -1 59 -1q3 0 8.5 -1t8.5 -1q1 0 3 -0.5t3 -0.5q19 0 29 -1q30 -3 57 -13q20 -8 37 -19q3 -2 19 -15q32 -27 49 -60q7 -12 11 -33q1 -4 2 -11t1 -11q1 -2 1.5 -6.5t0.5 -6.5q0 -18 1 -27q0 -9 2 -27v-1q1 -5 1 -14.5t1 -14.5q0 -9 2 -27q0 -2 0.5 -8 t0.5 -9q2 -20 2 -30q2 -18 2 -27v-79q0 -5 -1 -17t-2 -17v-14q0 -17 -3 -35q-2 -8 -6 -26q-2 -16 -17 -36q-10 -15 -23 -29q-4 -5 -14 -15q-1 -1 -4 -5t-5 -6q-17 -17 -38 -29q-4 -2 -12.5 -6t-12.5 -6q-12 -6 -28 -9q-5 -1 -16 -2.5t-16 -2.5q-7 0 -23 -2h-10.5t-11.5 -1 q-9 -1 -57 -1q-2 0 -5.5 0.5t-5.5 0.5q-23 -1 -138 -1h-13q-14 -3 -31 -1q-34 2 -102 0h-181q-23 1 -62.5 1h-62.5q-31 0 -47 1q-8 0 -24 2h-9h-41q-11 -1 -32 -1q-2 0 -5.5 -0.5t-5.5 -0.5q-1 0 -3 0.5t-3 0.5zM373 519q-2 -24 -2 -34q-1 -4 -1.5 -12.5t-0.5 -12.5 q0 -36 2 -54v-1q0 -9 2 -23q0 -8 0.5 -22.5t0.5 -21.5v-129v-7h5q14 -1 42 -1q1 0 3 -1q4 0 11 -1t11 -1q45 0 67 -2q14 -1 42 -1h57h6q16 2 25 2q10 1 30 1h31h18t23 2q7 0 19 2q16 2 21 5q23 5 32 20q1 0 1 1q11 12 19 41q2 15 3 16q2 16 2 24q0 51 -1 77v31v5l-3 18 q-3 20 -10 33q-9 16 -13 19q-1 1 -4.5 5t-5.5 7l-1 1q-12 7 -22 8q-4 1 -12 1q-20 2 -31 2q-11 1 -34 1q-5 0 -19.5 0.5t-22.5 1.5h-43q-7 0 -21 0.5t-22 0.5h-74q-11 0 -31.5 -0.5t-30.5 -0.5q-3 0 -4 -1h-26q-13 1 -38 1z" glyph-name="D" horiz-adv-x="1214" unicode="D"/><glyph d="M77 697h7h33.5h39h33.5q40 0 60 1h23.5t22.5 1q13 0 39 2h10h72q3 0 8.5 -0.5t8.5 -0.5q6 0 16 2h3q9 0 13 -1q2 0 5.5 -0.5t4.5 -0.5h48q27 2 40 1q30 -2 45 -1q11 1 64 1q0 1 21 1l20 -1q5 0 15.5 -0.5t16.5 -0.5q12 0 18 -1q4 -1 25 -1q11 -1 98 -1q42 -2 65 -2h64 l1 -2q0 -10 2 -24q1 -5 1 -14q1 -8 1 -25v-109v-5h-5h-92q-3 0 -9 -0.5t-8 -0.5q-22 0 -33 1q-9 1 -29 1h-78q-22 -2 -34 -2h-9q-17 -1 -51 -1q-7 0 -21 0.5t-21 0.5h-4q-13 2 -25 0q-35 0 -42 -1q-17 -2 -48 -2h-38h-19q-12 -1 -33.5 -1h-33.5q-2 0 -7 -0.5t-7 -0.5v-6 q0 -2 -0.5 -7.5t-0.5 -8.5v-2q0 -7 0.5 -21t0.5 -22v-2h5h92q8 1 24.5 1t24.5 1q9 1 27.5 1h27.5q12 0 34 2h3h147q11 -1 65 -1q3 0 10.5 0.5t11.5 0.5h52q3 0 9 -1t9 -1h14v-5v-17.5t1 -16.5v-119q0 -16 -1 -25q-2 -1 -8 -1t-8 -1q-5 0 -17 -2h-5h-51q-7 0 -22.5 -0.5 t-23.5 -0.5q-9 0 -27 2h-2q-9 0 -25.5 0.5t-24.5 0.5q-7 0 -21.5 0.5t-21.5 1.5q-17 1 -45 1h-45q-6 -1 -17 -1.5t-15 -0.5q-18 0 -27 -1q-4 -1 -12 -1h-12q-9 -1 -27 -1q-16 -1 -100 -1h-4v-17q0 -5 -1 -15.5t-1 -15.5v-24q10 -2 16 -2h141q2 0 6.5 -0.5t5.5 -0.5 q11 1 32 1q3 0 9 1t9 1q7 0 21 2h16h81q26 0 39 -2q24 -2 48 0h37h32q28 0 42 1q13 1 76 1q6 0 17.5 -0.5t16.5 -0.5q1 0 2 -1h2q1 -14 1 -29t-0.5 -33.5t-0.5 -28.5v-91h-3q-9 0 -25 -2q-15 -3 -29 -3q-16 -1 -45 -1q-6 0 -17 -0.5t-17 -1.5q-32 -2 -62 0q-41 0 -62 1 q-19 0 -29 1h-14t-13 1q-14 1 -81 1q-20 0 -30 -1q-9 -1 -53 -1q-4 0 -10.5 -0.5t-9.5 -0.5h-1q-6 1 -18 0t-18 0q-7 1 -22 1h-23h-19.5t-20.5 1q-12 1 -33 1h-33q-23 1 -65 1.5t-55 0.5q-28 0 -42 1q-24 0 -35 1q-19 1 -58 1h-1q0 1 -0.5 2.5t-0.5 2.5q0 37 1 45 q1 14 0.5 42.5t0.5 43.5q1 8 1 24.5v24.5v20t1 20q3 24 1 54v36.5t-1 37.5q-1 18 -1 107q0 4 1 6q1 5 1 13v17.5v20.5v17q3 30 1 68q-1 13 -1 39.5v39.5v9v1q1 2 1 3z" glyph-name="E" horiz-adv-x="1091" unicode="E"/><glyph d="M998 697l4 -4q1 -1 1 -3v-30v-56q-1 -14 -1 -81v-3q-3 -9 -10 -9q-19 -1 -56 -1q-24 -2 -107 -1.5t-107 0.5q-29 -1 -176 -1q-2 0 -5 0.5t-5 0.5h-10q-14 -3 -30 0q-2 0 -8.5 0.5t-9.5 0.5h-10q-10 0 -28 0.5t-28 0.5q-6 0 -20 -2h-4q-4 -1 -12 -1q-4 -4 -4 -10 q-2 -20 -2 -61q0 -5 3 -10h5q8 0 26 -2h3q17 -1 51 -1q10 0 30 2h3h6q33 -1 98 -1q8 -2 14 0q9 1 27.5 1h27.5q13 1 39 1q33 2 49 1q20 -1 61 -1q4 -1 12 -1t12 -1h6q26 0 39 1q19 0 28 -2v-1q2 -27 2 -82q0 -6 -0.5 -24.5t-1.5 -28.5v-26t-1 -26h-4h-52q-30 1 -81 1h-82 q-8 1 -49 1q-16 -1 -47 -1q-11 0 -29 2h-4h-67q-10 0 -26 -2h-6h-79h-6q0 -1 -0.5 -2t-0.5 -2v-8q0 -3 -0.5 -10t-0.5 -10q0 -1 -0.5 -4t-0.5 -5v-27q-1 -21 -1 -124q-1 -12 -1 -36q-1 -9 -10 -10q-8 -1 -25 -1h-25q-12 -1 -71 -1h-102q-4 0 -12 1t-12 1q-5 0 -14.5 0.5 t-14.5 1.5h-7q-6 3 -6 9v13v339q1 27 1 73.5v73.5q0 20 -2 58v47q-2 22 -2 66v7q0 11 13 13q13 1 41 1h88q25 1 230 1q25 0 38 -1h12h14.5h11.5q6 -1 16.5 -1h15.5h15t15 -1q29 -3 66 -1h22t22 1q17 1 51 1q14 -1 42 -1t42 -1q37 -2 75 0q10 0 28 0.5t28 0.5q4 0 11.5 -1 t10.5 -1h5h15z" glyph-name="F" horiz-adv-x="1074" unicode="F"/><glyph d="M1122 697q0 -1 1 -5t1 -5q1 -27 1 -73.5v-73.5q0 -8 -2 -26q-2 0 -7.5 -1t-8.5 -2q-42 -2 -62 -1h-20.5t-19.5 1q-22 2 -34 1q-11 -1 -32 -1q-17 1 -51 1q-24 0 -36 -1q-5 -1 -14.5 -1h-13.5h-12.5t-11.5 -1q-6 -1 -32 -1q-38 -2 -75 0q-13 0 -39 2q-17 0 -25 1t-74 1 q0 1 -37 0h-37q-15 0 -30 -3q-25 -6 -44 -17q-21 -14 -30 -37q-5 -12 -7 -29q0 -3 -1 -10t-1 -10v-18q2 -18 2 -26q1 -2 1 -6v-77q-1 -5 -1 -17q0 -24 12 -40l4.5 -4.5l5.5 -5.5q8 -7 28 -17q8 -4 12 -4q8 -2 24 -4h4h70q22 2 32 2h25h19q27 0 41 -1q17 -2 33 0q26 2 51 0 q17 -1 45 -1h44q5 0 15 -2h8q0 10 0.5 30t0.5 31h-3h-13q-5 0 -16.5 1t-17.5 1h-34q-9 0 -29 2h-15q-7 0 -21 0.5t-21 0.5q-8 0 -24 -2q-9 0 -13 1t-13 1h-4v5v33q0 11 -2 33v9v74q0 4 0.5 12t0.5 12h5h41q4 1 12 1q35 0 52 -1q16 0 24 -1q9 -1 55 -1q10 0 28 2h6h52 q21 0 32 -1q8 -1 51 -1h40q14 1 85 1q6 0 20 -0.5t21 -0.5v-4q1 -6 2 -16t1 -16v-7v-110q-1 -8 -1 -76v-75q0 -4 -0.5 -12.5t-1.5 -12.5t-2 -10t-2 -10q-4 -17 -19 -34q-13 -15 -39 -31q-14 -8 -31 -11q-3 -1 -8 -1l-30 -3h-7h-48q-7 0 -20 0.5t-20 1.5h-65q-4 2 -9 0 q-29 0 -43 -1q-16 -1 -47 -1q-5 0 -15 1t-15 1h-54q-21 0 -32 -1q-17 -1 -53 -1q-18 1 -109 1q-6 0 -18 -0.5t-19 -0.5h-31q-5 0 -15.5 1t-15.5 1h-14h-51q-13 -1 -38 1q-4 0 -7 1t-10 1.5t-10 0.5q-27 7 -31 9q-2 1 -29 13l-1 1q-1 1 -2 1q-17 6 -45 26q-19 14 -32 33 q-1 2 -3.5 5t-3.5 5q-10 13 -18 39q-2 10 -4 28v2q-1 7 -1 20t-1 19v27q-1 11 -1 31v30q0 21 -1 32q-1 9 -1 29t-1 30v72q0 7 2 25q0 11 1 16t1 28q1 4 2 11t2 10q6 20 6 22q2 7 8.5 19.5t7.5 14.5q8 15 20 26l12 12q19 16 37 27q17 11 43 18q7 2 21.5 5t21.5 4h4h8 q21 1 61 1q14 2 23 2q2 1 7 1h43q44 -1 44 0q11 0 33.5 0.5t33.5 0.5q5 0 15.5 -1t15.5 -1h16q21 0 31 -1q28 -1 84 -1q38 0 56 2q12 1 36 1h35h32h23q59 0 71 -1q34 -2 67 0q46 0 69 1h57q0 -1 1 -1z" glyph-name="G" horiz-adv-x="1216" unicode="G"/><glyph d="M371 455q2 0 3.5 -0.5t2.5 -0.5q62 0 93 1q22 1 65.5 1h65.5q39 1 117 1q18 0 52 -2q19 0 28 -1q1 0 2.5 0.5t2.5 0.5q0 1 0.5 2.5t0.5 2.5v99q-1 17 -1 49q0 5 -1 13t-1 12v5v42q0 9 1 13q2 2 7 2q5 1 14.5 2t13.5 1q14 0 21 1q6 1 40 1h19q18 -2 28 -2h7h110q20 0 30 1 q5 0 9 -4q0 -9 1 -14q0 -15 0.5 -46t0.5 -47v-17q-1 -13 -1 -38t-1 -38v-76q0 -30 1 -45q0 -21 1 -31q1 -23 1 -68v-74q1 -18 1 -49.5v-49.5q1 -22 1 -68q0 -19 -1 -28q0 -3 -2 -5h-6q-25 0 -38 -1q-23 0 -34 -1q-12 0 -18 -1q-7 0 -19 -2h-1q-30 -2 -45 -1q-20 0 -30 1 q-7 0 -19 2h-2q-22 0 -33 -1h-4h-38q-3 0 -9 2q-2 8 -2 11v20q-1 16 -1 96q0 6 -0.5 17.5t-0.5 17.5q-1 5 -1 14t-1 13v66v5q-2 0 -4 0.5t-3 0.5h-85q-72 2 -146 0h-70t-70 -1q-7 0 -21 0.5t-22 0.5h-6v-4v-71v-25t1 -26q1 -14 1 -81q0 -6 -0.5 -17.5t-0.5 -17.5 q0 -3 -2 -13v-2q-3 0 -9 -0.5t-10 -0.5q-22 -2 -34 -2q-19 -2 -29 0h-6h-19.5t-19.5 1h-19h-59h-32q-5 0 -14.5 -0.5t-14.5 -0.5h-6t-6 -1q-1 0 -5 -0.5t-6 -0.5t-5 0.5t-4 0.5q-1 1 -2 2.5t-1 2.5q0 2 -0.5 6t-0.5 6v78q2 36 1 56q-1 18 -1 108q1 42 1.5 119t0.5 101t-1 35 q-1 27 -1 72.5v72.5q0 11 2 33q3 6 11 6h10.5h12.5h11q31 0 47 1q12 1 34 1q12 -1 71 -1q43 0 65 1h20q12 -2 16 -2q0 -2 0.5 -5.5t0.5 -5.5v-117v-53t-1 -52v-9z" glyph-name="H" horiz-adv-x="1176" unicode="H"/><glyph d="M365 699q1 -3 4 -4q0 -7 0.5 -20.5t0.5 -19.5q-1 -18 -1 -105q-1 -11 -1 -33.5t-1 -33.5q0 -9 1 -14v-31t1 -31q1 -12 1 -70q-1 -51 -1 -306q0 -6 -2 -22q0 -8 -7 -9q-1 0 -3 -0.5t-3 -0.5q-8 0 -12 -1q-2 0 -3 1q-3 1 -24 1h-2q-14 -2 -20 -2t-18 -0.5t-19 -0.5h-164 h-13q-5 0 -8 4v22v27q1 15 1 45q2 18 1 27q-1 20 -1 54v54q-1 27 -1 73v73q0 7 0.5 20.5t0.5 20.5q1 7 1 19q0 22 -1 33q-1 15 -1 44l1 55q0 56 -1 56q-1 21 -1 63v8q2 5 8 5q5 -1 14 -1.5t14 -0.5h3h31q4 0 12.5 0.5t13.5 0.5q8 -1 23.5 -1t23.5 -1h22q5 0 13 0.5t13 0.5 q5 2 11 0q32 0 39 1h8q5 0 16 0.5t17 0.5q2 0 6 -0.5t7 -0.5z" glyph-name="I" horiz-adv-x="441" unicode="I"/><glyph d="M405 697h1q6 1 17 1t16 1q23 0 34 1q7 1 46 1h43q14 1 81 1q4 0 12.5 0.5t12.5 1.5h13.5t12.5 1h7q0 -1 0.5 -3t0.5 -3v-22.5v-26.5v-22q0 -23 1 -35q0 -3 0.5 -9t0.5 -9q1 -22 1 -59v-59v-30q1 -22 1 -131q0 -6 -0.5 -17.5t-0.5 -16.5q0 -4 -0.5 -10.5t-0.5 -9.5 t-0.5 -12.5t-1.5 -14.5v-30q0 -5 -1 -15.5t-1 -15.5q-2 -17 -7 -29q-4 -15 -16 -34t-27 -31q-2 -2 -6.5 -5t-6.5 -5q-13 -10 -52 -30q-16 -7 -29 -11q-29 -6 -31 -6q-5 -1 -13 -2t-9 -1q-14 -1 -38 -1h-39q-12 2 -33.5 2h-26.5q-10 0 -30 -0.5t-31 -0.5h-66q-41 0 -61 -1 q-14 -1 -87 -1q-3 0 -7 0.5t-7 0.5q-4 2 -5 2q-1 6 -1 17q-2 17 0 34q0 23 1 35v11.5t1 11.5q1 10 1 65v7q1 1 2 1q5 1 16 1.5t16 0.5h47.5h55.5h47q36 0 54 1l18 3q2 1 8 2t8 1q1 0 3 0.5l4 1t3 1.5q16 8 23 14l5 5q2 1 4 5q9 6 12 20q1 3 2.5 10t2.5 11v4v13q0 22 1 33 q3 21 1 47q-1 13 -1 40v145q0 24 -1 36q-1 9 -1 52v18q0 9 0.5 25t0.5 24z" glyph-name="J" horiz-adv-x="777" unicode="J"/><glyph d="M370 682q0 -1 0.5 -3t0.5 -3q2 -24 2 -35q-2 -17 -1 -26q1 -17 1 -53q0 -26 -2 -38q-1 -8 -1 -24v-24q1 0 1 -1q1 0 3 2q51 32 58 37q4 2 10 6.5t10 6.5q6 4 17 9.5t16 9.5q3 2 10 6.5t11 6.5q4 3 12.5 8t12.5 7q31 18 60 39q4 3 8 5.5t8.5 5t7.5 4.5q4 3 13 7t13 7 q9 5 25 17q24 16 37 23q4 2 5 2q32 2 48 1q8 -1 48 -1h103q34 1 102 1q11 0 32 -0.5t32 -0.5q16 -1 97 -1l1 -1h2l1 -1v-2q-5 -6 -15 -11q-5 -3 -24 -14.5t-29 -17.5q-2 -1 -7 -5t-8 -5q-10 -8 -42 -26q-8 -4 -21 -12t-16 -10q-34 -20 -51 -31q-4 -2 -12 -7.5t-12 -8.5 q-26 -14 -38 -22q-6 -3 -17 -9.5t-16 -9.5t-52 -33q-14 -7 -29 -17q-8 -4 -11 -7q-7 -5 -20.5 -14t-20.5 -14q-5 -3 -15.5 -9t-13.5 -8q-2 -1 -9.5 -6t-12.5 -7l-30 -15q-4 -2 -7 -3q2 -2 6 -4q12 -8 18 -14q1 -1 4 -2.5t4 -2.5q6 -5 17.5 -12.5t14.5 -9.5q28 -18 42 -28 q7 -5 21.5 -13t20.5 -12q9 -6 28 -16.5t28 -16.5q34 -20 50 -31q3 -2 26 -17q1 0 1 -1l2 -1q19 -11 53 -35q3 -3 11 -7.5t11 -6.5q7 -4 21 -14q24 -17 45 -29q32 -18 49 -27q2 -1 5.5 -3t5.5 -3q18 -10 26 -16q8 -4 18 -10q12 -8 36 -22q6 -4 10 -7q-1 -1 -3 -4h-38 q-3 0 -10.5 -0.5t-12.5 -1.5q-2 -1 -14 -1q-1 0 -3 0.5t-3 0.5h-8q-9 0 -27 0.5t-26 0.5q-18 1 -53 1h-53h-79h-40h-55h-4h-1l-1 -1q-19 0 -28 1h-21q-1 0 -3 0.5t-3 1.5q-5 2 -12.5 7t-9.5 6q-12 8 -22 16q-5 3 -13 10t-13 10q-16 11 -29 19q-11 7 -33 19q-1 0 -3 1h-1 q-6 4 -18.5 12t-18.5 12t-18 12.5t-18 12.5q-7 5 -8 5q-8 6 -24 16q-5 3 -14.5 9t-11.5 8q-12 10 -18 14q-6 3 -17.5 11t-17.5 11q-6 4 -17 12t-17 12l-8 8q0 -1 -1 -3v-1v-23q0 -11 -0.5 -33t-0.5 -33q0 -39 2 -58q1 -10 1 -29v-29v-5l1 -2q-2 -5 -2 -15v-12v-2 q-4 -2 -7 -2q-26 0 -38 -1q-16 -1 -96 -1q-2 0 -7 0.5t-8 0.5q-4 0 -12 0.5t-12 0.5q-11 1 -70 1q-27 0 -40 -1q-5 0 -7 2q-3 12 -1 28q1 11 1 69q0 8 -1 23t-1 23v34.5t-1 33.5v127q0 13 -0.5 39t-0.5 40q0 11 2 33v13t1 14q1 14 1 43.5v43.5v25t1 25q0 1 0.5 4.5t0.5 5.5 q0 8 -2 24v8q0 19 1 29q0 3 3 5q17 2 50 2q12 -1 36 -1q19 0 28 1q25 3 45 2h35.5t35.5 -1q14 -1 41 -1q3 -1 10 -1.5t11 -0.5z" glyph-name="K" horiz-adv-x="1289" unicode="K"/><glyph d="M366 685q3 -5 3 -9v-74q0 -8 -0.5 -23.5t-0.5 -22.5q0 -3 1 -13.5t0 -16.5q-1 -10 -1 -61q0 -26 1 -40q1 -9 1 -29q1 -10 1 -57v-49q0 -7 -0.5 -21t-0.5 -20v-43v-28q2 -2 7 -2q28 -2 43 -2q5 0 19 -2h8h53h28t27 1q4 0 17.5 0.5t20.5 1.5q20 2 38 0q15 -1 43.5 -1h42.5 q10 -1 28 -0.5t27 0.5h54h21q9 -1 56 -1q4 0 17 1t20 0h16h5h6h5q4 0 12 -2v-19q1 -25 1 -152v-5q-2 -4 -6 -4h-5h-31h-7h-30h-37h-3h-33h-10h-17h-24q-4 -2 -7 0h-12q-28 2 -43 2q-2 0 -6.5 -0.5t-6.5 -0.5q-5 -1 -14 -1h-148q-11 0 -32.5 0.5t-31.5 0.5q-11 0 -32.5 -0.5 t-32.5 -0.5h-131q-2 0 -6 -0.5t-7 -0.5q-21 0 -31 1h-28t-29 1q-7 0 -23 -0.5t-24 -0.5h-28h-8q-1 -1 -2 0h-19h-6v8q0 12 -1 14v5v30q0 24 -0.5 71.5t-1.5 71.5q-1 20 -1 60v60q0 18 2 58q0 28 1 42v42q0 5 0.5 13t0.5 12q0 11 -0.5 46t-1.5 54v48t-1 49q0 1 0.5 3.5 t0.5 3.5q8 1 17 0h22q3 0 8 0.5t7 0.5h16q2 0 7.5 -1t8.5 0q24 0 35 1q3 0 7 0.5t6 0.5q10 -1 63 -1h64q5 0 14 0.5t13 0.5h6z" glyph-name="L" horiz-adv-x="1056" unicode="L"/><glyph d="M1262 -3l-2 -1h-2h-66h-63q-9 0 -29 0.5t-29 0.5q-14 1 -83 1h-21q-1 1 -3 1v4v115q0 5 1 15.5t1 15.5q0 30 -1 36v9v48q0 2 0.5 4t0.5 4v8q-8 -8 -10 -12q-6 -9 -18 -25q-5 -5 -11 -13t-18 -22q-2 -4 -4 -6l-6 -9q-3 -4 -4 -8q-2 -1 -5 -5t-4 -5q-12 -16 -18 -23 q-2 -2 -6 -6.5t-6 -7.5q-1 -1 -2.5 -3t-2.5 -3q-1 -2 -8.5 -11.5t-11.5 -14.5q-8 -10 -11 -15q-8 -10 -11 -16q-4 -1 -13 -1h-162q-8 0 -24.5 0.5t-25.5 0.5q-10 0 -29 0.5t-29 0.5h-2q-5 3 -9 10q-3 5 -6.5 10t-8 11t-6.5 9q-6 8 -10 14t-15 20q-4 5 -11 14.5t-8 10.5 q-3 3 -10.5 12.5t-12.5 14.5q-10 14 -14 21q-5 7 -15 19l-7 7q-6 8 -14 18q-4 6 -5 7t-2.5 3t-2.5 3v-10q0 -7 1 -10q0 -20 1 -30q1 -12 1 -34q-1 -21 -1 -125q0 -25 1 -37v-14v-2q-1 -1 -1 -2h-2q-13 -1 -38 -1q-47 0 -71 1h-29t-28 1q-13 1 -36 1h-36q-10 1 -29 1 q-4 0 -12 -0.5t-12 -0.5t-5 1t-1 2v35q0 5 0.5 16t0.5 17q1 18 1 159q0 14 -2 44q0 1 0.5 5t0.5 6v6q0 63 1 75v72v14q1 15 0 15q0 4 -0.5 13.5t-0.5 14.5q1 10 1 31v127v10q0 16 1 23q2 3 8 3h14h16.5h13.5q30 2 44 1q32 -3 72 -1q25 1 76 1q21 -1 63 -1l9 -9q9 -11 38 -52 q4 -5 11.5 -16t11.5 -17q8 -10 12 -16q8 -8 22 -26q8 -10 22 -30q4 -6 12.5 -18t12.5 -18q2 -2 4 -5.5t4 -5.5q5 -8 26 -34q12 -17 31 -41q7 -9 19 -23q4 -6 13.5 -18t14.5 -18q4 -5 11 -14t11 -13q1 -2 4 -5q2 2 5.5 7t5.5 7q7 10 31 41q4 5 12.5 16t12.5 17t12.5 18 t13.5 18q3 4 6.5 8.5t8 10t6.5 8.5l5 7.5t4 6.5q6 11 18 23q9 9 14 18q5 7 13 17q2 3 7 10t8 10q5 5 12 15t9 13q6 8 17.5 23t13.5 17q5 7 14.5 20.5t14.5 20.5q9 12 10 13q3 3 5 7q4 4 5 6h11h181q7 0 20 0.5t20 0.5q12 -1 72 -1q2 0 4 -1q0 -3 0.5 -8t0.5 -7v-64 q2 -36 1 -54q-1 -23 -1 -68v-67q0 -5 1 -20t0 -23q-1 -38 -1 -102.5v-102.5q1 -24 1 -142q1 -5 0 -14.5t-1 -13.5z" glyph-name="M" horiz-adv-x="1334" unicode="M"/><glyph d="M73 -3q-2 2 -2 6v20q0 1 1 4v116q-1 9 -1.5 25.5t-0.5 21.5q0 13 1 19q0 10 2 34v1v54q-2 32 -1 49q1 21 1 62v36q-1 15 -1 44t-1 44v23q0 11 1 17q0 2 0.5 4.5t0.5 3.5v81q0 2 -0.5 7t-0.5 7v6q2 0 6 1t6 1q13 0 20 1q9 1 25.5 1h25.5q17 1 47 1.5t39 0.5q6 0 18 -1 t17 -1h92q10 0 16 -6q10 -9 25 -20q20 -14 29 -22q1 -2 9 -7q6 -5 17.5 -15t17.5 -15q21 -16 23 -17q15 -13 37 -29q15 -12 26 -19q6 -5 18 -14.5t18 -14.5q2 -1 6 -3.5t6 -4.5q17 -14 29 -22q6 -5 17.5 -14.5t17.5 -14.5q18 -16 27 -23q7 -7 11 -10q2 -2 22 -16 q19 -15 25 -20q14 -12 23 -19q4 -4 12.5 -10t10.5 -7q3 -2 8.5 -7t8.5 -7q2 -2 7.5 -6t6.5 -5v5v128q0 5 -0.5 16t-0.5 17v38q2 14 1 20q-1 7 -1 21q1 6 1 39v37v18t-1 18q0 5 2 7q12 2 18 2q76 0 114 -1h58q9 0 31 2h17h51q1 0 3 -0.5t4 -0.5v-4v-17.5v-20.5v-17 q1 -27 1 -72.5v-72.5q2 -42 1 -63q-1 -24 -1 -139v-107q0 -46 1 -69q2 -29 1 -43q0 -6 -0.5 -18t-0.5 -18q0 -4 -0.5 -10.5t-0.5 -9.5t-3 -6h-2q-17 0 -20 -1h-9h-14q-24 1 -72 1h-24q-28 1 -84 1q-11 0 -33 -0.5t-33 -0.5h-13q-6 0 -11 5q-2 2 -10 8t-12 10t-9.5 8 t-12.5 8.5t-11 7.5q-5 4 -14.5 12t-14.5 12q-6 4 -16 12q-7 5 -21 17q-2 1 -5 4q-4 6 -11 10q-4 3 -8.5 6.5t-10 8t-8.5 6.5q-5 4 -15.5 13t-15.5 13q-8 7 -23.5 18.5t-19.5 14.5q-3 2 -7 5.5t-5 4.5q-23 17 -25 19q-6 4 -16.5 12.5t-11.5 9.5q-10 7 -11 9q-3 4 -10 9.5 t-10 8.5q-8 6 -13 9q-22 19 -44 35q-7 7 -14 10l-1 1q-14 12 -21 17l-24 21v-4q0 -27 -1 -41v-22v-26.5v-22.5v-13.5v-16v-13.5q1 0 0 -35v-36q1 -33 1 -98v-27v-7q-5 -1 -12 -1q-3 -1 -9.5 -1h-9.5h-37t-38 -1q-33 -1 -88.5 -1h-88.5q-2 0 -7 0.5t-8 0.5z" glyph-name="N" horiz-adv-x="1213" unicode="N"/><glyph d="M1161 279q-1 -1 -1 -3q0 -7 -1 -22t-1 -23q-1 -17 -1 -51q0 -3 -1 -9t-1 -8q0 -8 -4 -22q-9 -30 -15 -43q-6 -12 -15 -24q-15 -18 -16 -19q-6 -7 -22 -19q-15 -11 -49 -25q-17 -5 -51 -13q-8 -2 -14 -2q-9 0 -26 -0.5t-25 -0.5q-4 0 -10.5 -0.5t-9.5 -0.5q-24 1 -65 1 h-65q-5 0 -20 -1t-24 0q-20 1 -59 1q-45 0 -68 -1q-46 -1 -91 0h-37t-37 1q-16 1 -93 1q-9 0 -26 -0.5t-25 -0.5q-7 0 -19 2q-8 0 -12 1q-4 0 -12.5 2t-12.5 3q-10 2 -30 8q-4 1 -20 7q-18 5 -36 20q-17 12 -32 32q-9 10 -15 21q-7 13 -14 34q-2 6 -4.5 16.5t-3.5 14.5 t-1 12q-2 12 -2 37q0 28 -1 42q-1 4 -1 14v15q-1 7 -1 41q1 18 1 48v48q0 6 0.5 17t1.5 17q0 13 1 19q1 5 1 15v15t2 17q0 2 0.5 5.5t0.5 5.5q1 7 8 29q3 10 8 23q6 14 22 34q2 2 5.5 6.5t6.5 7.5t20 18q18 13 50 24q10 4 43 13q14 2 20 2l18 3h3q24 1 71 1h155 q37 -1 111 -1h48q43 3 97 1q35 -1 105 -1q9 -1 26 -1.5t26 -0.5q4 0 13 -0.5t13 -0.5q1 -1 3 -1q24 0 48 -6q19 -3 34 -9q16 -4 42 -19q1 -1 5 -3q13 -5 27 -22q16 -18 22 -28q11 -15 15 -33q6 -20 9 -29q0 -2 0.5 -6.5t1.5 -6.5q0 -7 2 -17v-4v-16q0 -32 1 -49 q0 -4 1 -13.5t1 -14.5q0 -4 1 -4v-46l-1 -1v-27q0 -1 1 -1v-46zM703 173h17q41 0 52 2q21 3 33 12q8 4 22 14q23 19 25 51q0 3 1 4q0 2 0.5 7t0.5 8q1 6 1.5 17.5t0.5 17.5q0 62 -1 75q-1 2 0 5t1 4v22t-1 22q-1 14 -11 27q-3 4 -9.5 11t-9.5 10q-18 15 -32 18q-5 1 -14.5 3 t-13.5 2q-10 0 -14 1q-5 0 -13.5 1t-12.5 1q-44 0 -53 -1q-6 -1 -18 -1q-16 0 -49.5 0.5t-50.5 0.5q-39 0 -59 -2h-2q-8 0 -22 -2q-4 0 -14 -2q-10 -1 -28 -9q-19 -8 -27 -18q-12 -14 -14 -21q-4 -14 -5 -21q-1 -4 -1 -13q0 -3 -1 -7.5t-1.5 -8.5t-0.5 -8v-45t1 -45 q1 0 0 -28v-28q0 -2 1 -6t1 -6q7 -22 20 -34q3 -4 9 -10q2 -5 9 -8q14 -7 17 -8q6 -2 10 -2q5 -1 14 -1t14 -1h22q104 0 125 -1q8 0 26 0.5t26 0.5h29z" glyph-name="O" unicode="O"/><glyph d="M373 204v-7v-56q-1 -5 -1 -14.5t-1 -14.5v-8.5v-10.5v-9q-1 -6 -1 -19v-19q0 -2 -0.5 -7t-0.5 -7q0 -4 -0.5 -13t-0.5 -13v-4q-4 -1 -11 -1h-36q-13 -1 -35 -1.5t-29 -0.5q-18 -1 -49.5 -1h-49.5q-7 0 -21 -0.5t-21 -0.5q-4 0 -12 1t-13 1h-5h-14v5v30q1 15 0 29v18v21.5 v18.5v28v86q0 48 -1 71q0 6 -0.5 18t-0.5 18q1 10 1 64q1 32 0 63q-1 14 -1 41.5v41.5v83v42q0 2 2 10l4 4l2 1q36 0 54 1q7 0 25 -2h21q2 1 8 1h47q9 0 29 0.5t30 0.5h71q22 -1 66 -1q3 0 14 1t17 0t39 -1q51 3 115 1q44 -1 119.5 -1h119.5q4 0 12 -1t13 -1q4 -1 14 -1 q4 0 11 -0.5t10 -0.5q18 -4 28 -7q2 0 4.5 -1t3.5 -1q36 -14 58 -26q3 -2 8 -4.5t9 -5t7 -5.5l20 -20q8 -10 13 -15q14 -16 18 -26q10 -20 13 -31q3 -9 7 -27q2 -10 4 -26q2 -12 2 -17v-32q0 -18 -1 -27q-5 -43 -24 -80q-2 -4 -5.5 -11.5t-4.5 -11.5q-13 -24 -30 -41 q-15 -15 -19 -18q-11 -10 -29 -18q-31 -16 -58 -21q-7 -2 -25 -4q-3 0 -9.5 -1t-9.5 -2h-2q-9 -1 -26 -1h-23.5t-23.5 -1q-6 0 -20 -0.5t-20 -0.5q-4 0 -10 0.5t-9 0.5q-35 0 -53 -1q-12 -1 -32 -1h-32q-5 -1 -15 -1t-15 -1h-6q-60 1 -181 1q-3 0 -9.5 0.5t-9.5 0.5 q-5 0 -16 -0.5t-17 -0.5zM373 386h7h85h7q16 2 23 2h205q2 0 5 -0.5t4 -0.5h11q1 0 3 0.5t4 0.5q16 2 24 6q28 15 43 37q12 15 3 36q-1 4 -11 16q-8 8 -32 21q-1 1 -3 1q-3 1 -8.5 2t-8.5 1q-16 2 -25 2h-26q-1 0 -4 0.5t-5 0.5q-7 -1 -21 -1t-21 -1q-68 0 -81 1h-24.5 t-24.5 1q-13 1 -39 -1q-30 0 -36 1h-5q-6 -1 -17 -1.5t-17 -0.5h-17q-2 -10 -2 -12q0 -21 1 -31q0 -10 1 -29.5t1 -29.5q0 -13 1 -21z" glyph-name="P" horiz-adv-x="1178" unicode="P"/><glyph d="M974 -120h-1q-1 1 -2 1q-5 1 -15 1t-15 1q-11 1 -33 1q-8 0 -23 0.5t-22 0.5q-5 0 -15.5 -1t-16.5 -1h-5q-6 -1 -17.5 -1h-17.5h-29h-74h-23h-10h-7q-38 67 -80 119h-5h-54q-52 0 -78 1q-31 1 -95 1q-8 0 -24 -0.5t-25 -0.5q-5 0 -19 2q-9 0 -13 1t-11.5 2t-10.5 2 q-24 5 -41 13q-3 1 -8.5 2.5t-8.5 2.5q-9 3 -30 18q-17 12 -32 32q-2 2 -5 6.5t-5.5 8t-4.5 6.5q-7 13 -12 29q-1 4 -4.5 16t-4.5 18q-2 10 -2 13q0 4 -0.5 11t-0.5 11v12t-1 12q-1 6 -1 17v17v14t-1 14q-1 14 -1 42q1 16 1 48t1 48q0 23 1 33q0 9 2 25v17q0 8 2 26 q2 16 4 22q11 35 12 38q8 18 23 36q4 4 12 14q9 9 21 18q18 13 49 24q7 2 21.5 6t21.5 6q11 3 20 3q12 2 18 2q1 1 2 1q5 0 15 0.5t15 0.5q132 0 197 -1h111h48q48 1 96 0q71 0 106 -1q35 0 52 -1q8 0 26 -2q3 0 9 -0.5t9 -0.5q15 0 32 -5q19 -3 35 -9q16 -4 42 -19 q0 -1 1 -1t2 -1q16 -7 30 -24q18 -20 22 -27q11 -19 14 -33q2 -5 4.5 -13.5t3.5 -11.5l3 -18q0 -6 2 -16v-5v-13q0 -8 0.5 -25t1.5 -25v-15t1 -15q1 -7 1 -43q-2 -21 -1 -32q1 -14 1 -42q0 -6 -1 -17t-1 -16q0 -18 -1 -26t-1 -23.5v-23.5q0 -6 -2 -16q0 -6 -1 -9l-9 -36 q-3 -9 -11 -25q-3 -7 -17 -26q-5 -5 -11 -13q-7 -7 -23 -19q-14 -11 -52 -26q-15 -4 -20 -5q-9 -3 -27 -7q-10 -2 -15 -2q-8 -1 -25 -1t-25 -1q1 -1 1 -2l21 -30q4 -6 12.5 -18.5t12.5 -18.5t11.5 -17t10.5 -16q6 -9 9 -19h-22zM703 180h29q26 0 39 2q22 4 34 12q7 4 21 14 q23 19 26 50v5q0 5 2 15q0 5 0.5 17t0.5 18q0 63 -1 75q0 2 0.5 5t0.5 4q0 37 -1 44q-1 14 -11 27q-12 14 -19 21q-16 15 -31 17q-25 5 -29 5q-3 1 -7.5 1t-6.5 1q-4 0 -13 1t-13 1q-44 0 -53 -1q-6 -1 -18 -1h-131q-19 0 -29 -1h-1q-7 0 -21 -2q-9 0 -14 -2q-25 -5 -43 -16 q-17 -11 -26 -31q-4 -7 -6 -22q-1 -5 -1 -13q-2 -16 -2 -24l-1 -45q0 -45 1 -45q1 -9 1 -56q0 -8 1 -12q7 -22 20 -35l9 -9q2 -4 10 -8q8 -5 16 -8q2 0 5.5 -1t4.5 -2q5 0 15 -0.5t15 -0.5h21q105 0 127 -1q6 0 17 0.5t16 0.5h46z" glyph-name="Q" unicode="Q"/><glyph d="M907 245q20 -22 30 -32q5 -5 14.5 -15.5t14.5 -15.5q8 -8 22 -24t19 -21q30 -33 31 -34q23 -23 34 -35q13 -12 38 -37q17 -17 25 -26q0 -1 1 -2h-6h-52q-30 -2 -46 -1q-5 0 -15 0.5t-15 0.5q-4 0 -10.5 -0.5t-9.5 -0.5h-18q-26 1 -155 1h-13q-1 0 -3 -0.5t-3 -0.5h-6 q-4 0 -12 0.5t-12 0.5q-4 5 -14 15q-4 5 -12.5 15.5t-12.5 15.5q-4 4 -14 16q-3 4 -10.5 12.5t-11.5 12.5q-4 5 -12.5 14.5t-12.5 14.5q-1 1 -5 7q-4 7 -14 19q-3 3 -7.5 8t-6.5 8q-1 1 -3 3.5t-4 4.5q-3 3 -8 9.5t-8 9.5q-15 15 -24 28l-9 9q-1 1 -3.5 4t-5 5t-4.5 4h-6 h-124q-12 1 -35 1q-13 0 -19 -1v-1q-1 -1 -1 -2v-74v-21q-1 -4 -1 -11.5v-11.5q-1 -10 -1 -60q-2 -22 -2 -34q-1 -2 -1 -5.5v-6.5v-6q-2 0 -7 -0.5t-7 -0.5h-38h-25t-25 -1q-20 -1 -117 -1q-5 0 -15 -0.5t-14 -0.5q-9 0 -29 2h-11h-8q0 19 1 22v4v99q-1 27 -1 80v102 q-2 24 -1 35q1 22 1 64v63q-1 28 -1 83v82v43q0 2 0.5 5.5t0.5 5.5q1 1 2.5 2t2.5 2h5q16 1 49 1q8 1 26 -1l11 -1q10 0 10 1h9q31 0 46 1q10 0 30 0.5t29 0.5q48 0 72 -1q33 -1 65 0h10.5h12h9.5q19 -1 38 0q54 2 110 0h122t123 -1q8 0 24 -2h16q13 0 25 -3q35 -7 83 -30 q13 -7 26 -17q3 -1 8 -6q11 -11 33 -35q8 -10 12 -19l11 -22q5 -15 8 -26q1 -6 3 -17t3 -17q2 -10 2 -60q0 -2 -2 -8q-10 -38 -25 -68q-3 -5 -7 -15q-12 -25 -32 -45q-6 -5 -17 -16q-9 -7 -29 -17q-27 -14 -58 -22q-16 -2 -26 -4q-3 0 -5 -1zM374 420h6h86h6q10 2 31 2 q188 0 212 -1q1 0 5 0.5t5 0.5q2 0 6 1t6 1q24 4 33 29q3 7 1 22q-7 21 -24 30q-3 2 -16 6q-20 2 -24 2q-3 0 -11 0.5t-12 0.5h-10h-18.5t-23.5 -2h-40t-41 1q-8 1 -24.5 1h-24.5q-20 2 -38 0q-19 -2 -37 0q-2 2 -5 0q-10 0 -34 -2h-15v-5v-19v-44q-2 -12 1 -24z" glyph-name="R" horiz-adv-x="1206" unicode="R"/><glyph d="M92 2q0 4 -0.5 13t-1.5 13q-1 9 -1 51q1 18 1 106v5h5q21 0 31 -1h97q16 -1 49 -1h49h53t52 -1q20 0 30 -1t29 -1q9 0 27.5 -0.5t28.5 -0.5h44q1 0 2 -0.5t2 -0.5q7 -1 14 0q4 1 13 1q30 -2 47 -2q2 0 7.5 -0.5t8.5 -0.5q12 0 24 3q11 0 16 1q23 2 33 6q18 8 22 24 q2 6 2 8v12q-4 11 -22 15q-9 2 -25 4q-7 0 -21 1t-21 1h-16.5t-17.5 1q-12 1 -72 1h-136q-36 0 -54 2h-33.5t-33.5 1q-19 0 -28 1q-1 0 -3 0.5t-3 0.5q-6 1 -17 1l-21 3q-6 1 -16 3q-11 1 -35 9q-19 5 -40 20q-1 1 -4 3q-12 6 -31 23q-3 2 -5.5 5t-5.5 6l-5 5q-10 10 -17 28 q-12 30 -17 55q-1 3 -2 9.5t-2 9.5q0 7 -2 19q0 3 0.5 11t0.5 12v4q0 30 14 67q8 21 18 38q3 5 8.5 12t7.5 9q12 13 30 28q6 4 18 10q3 2 19 10q22 12 52 19q10 3 30 7l21 3q16 2 24 2q25 0 29 -1h8q34 -1 104 -1q7 -1 20 -1h21q11 -1 69 -1q3 -1 9.5 0t9.5 1h36q13 -1 33 1 h8q7 -1 7 0q7 1 43 1q5 0 14 -0.5t13 -0.5q13 1 77 1q4 0 13 1t13 1h3h7q40 0 60 -1q18 -1 48 -1h48q6 0 17 0.5t16 0.5h8q1 -8 0 -46t-1 -45q1 -31 1 -91q-1 -1 -4 -1h-22q-7 -1 -23 -1h-24q-9 -1 -55 -1h-101q-6 0 -18 1t-18 1q-21 0 -31 -1h-6h-81q-8 1 -24 1t-24 1h-27 t-27 1q-5 0 -15 0.5t-15 0.5q-18 2 -27 0q-2 -2 -4 0q-3 0 -8 -1t-8 -1t-12.5 -1.5t-14.5 -1.5h-24q-12 0 -21.5 -8t-12.5 -19q-2 -6 0 -14q2 -10 18 -16q3 -1 10 -1h62q5 0 21 -0.5t25 -1.5q31 -3 71 -1h13.5h15h12.5q46 0 69 -1q5 0 15 -0.5t15 -0.5q4 0 12 -1t12 -1h3 q14 0 27 -3h6h68q8 0 28 -2q9 -1 27 -5q29 -7 50 -16q11 -4 26 -13q5 -4 15.5 -10.5t15.5 -10.5q3 -2 8 -7q24 -26 26 -30q14 -19 20 -39q1 -4 3 -11.5t3 -11.5q4 -15 5 -25q2 -10 2 -60q0 -8 -1 -12q-1 -7 -5 -26q-4 -20 -8 -30q-12 -26 -28 -47q-12 -15 -27 -27 q-8 -8 -12 -11q-14 -16 -40 -26q-7 -3 -20.5 -8t-20.5 -7q-11 -4 -25 -4h-79q-7 0 -19.5 0.5t-18.5 0.5q-15 1 -45 1h-87q-48 -1 -145 -1q-7 -1 -45 -1q-4 0 -12 -1t-13 -2q-10 0 -15 -1q-18 -1 -54 -1q-10 0 -30 2q-2 1 -7 1t-7 1q-22 0 -32 1q-8 1 -44 1q-6 0 -26 -1 t-31 0q-7 0 -21 0.5t-21 0.5q-11 -1 -67 -1h-6z" glyph-name="S" horiz-adv-x="1175" unicode="S"/><glyph d="M1034 687q-1 -1 -1 -6q0 -11 -0.5 -32.5t-0.5 -32.5v-83q0 -13 -1 -20q-4 -1 -8 0h-7h-123q-19 -1 -57.5 -1h-57.5q-10 0 -28 -2h-1h-32q-10 1 -29 1h-5v-2v-67q0 -3 1 -10.5t0 -11.5q-1 -7 -1 -41q1 -29 1 -78.5v-78.5q-1 -9 -1 -52q-3 -40 -1 -90q1 -21 1 -63v-3 q1 -3 -1 -12h-23q-12 -2 -34.5 -2h-27.5q-31 0 -93.5 0.5t-93.5 0.5q-4 0 -10 -0.5t-9 -0.5t-6 1v17q-1 9 -1 55q-2 16 -2 25q-1 1 -1 4q0 39 1 59v33.5t1 33.5q0 9 2 27q0 19 -1 23v13v16q1 16 0 16v51q0 5 0.5 14t0.5 13q-1 13 -1 36v36q-1 7 -1 21q0 8 1 11v5 q-2 0 -6 0.5t-6 0.5q-10 1 -32 1q-61 0 -91 1h-16.5h-19h-16.5q-20 0 -30 -1q-15 -2 -45 -2q-14 -1 -43 -1q-5 0 -15 0.5t-15 0.5q-2 0 -10 2q0 4 -2 14q-1 10 -1 28v28v19q0 28 -1 41v16q2 14 2 21v13q4 1 20 1q5 -2 16 -2q35 0 53 1h12t12 1q27 3 62 1q19 -1 51.5 -1h51.5 q5 -1 17 -1h17q10 -1 59 -1q4 0 13 0.5t14 0.5t14 0.5t13 0.5q12 1 36 1q6 0 18.5 -1t18.5 -1q34 0 41 1h6h104h17h26h12h80q7 0 19 0.5t18 0.5h52.5t53.5 -1q11 -1 35 -1h35v-5z" glyph-name="T" horiz-adv-x="1069" unicode="T"/><glyph d="M848 696q1 -1 3 -2l1 -1h32h89q11 0 17 -2h23q2 0 9.5 -0.5t11.5 -1.5h9h57q1 0 3.5 -0.5t3.5 -0.5q1 -2 1 -4v-165q0 -10 -1 -15q-1 -3 -1 -11v-78q0 -17 2 -25v-8v-77q0 -3 -0.5 -10.5t-0.5 -11.5q-2 -21 1 -31v-11v-58q0 -5 -2 -32q-1 -7 -5 -16q-12 -29 -28 -56 l-1 -2q-1 -1 -11.5 -13.5t-16.5 -17.5q-20 -18 -46 -29q-20 -8 -58 -16q-22 -5 -55 -5h-215h-76h-38h-5q-5 2 -23 2h-203q-10 0 -15 -1q-3 -1 -9 -1h-36q-5 0 -13 2l-18 3q-4 0 -10 2q-5 2 -16 4t-17 4q-8 3 -16 9q-2 2 -13 9t-16 11q-6 3 -11 8q-13 16 -29 32q-5 6 -10 18 q-11 25 -19 55q-2 12 -2 17v66q0 10 -1 15q-1 3 -1 9v84q0 11 -1 16q-1 1 -1 9v42v7q2 6 2 17q0 22 2 33v8v68q0 17 -1 25q-1 10 -1 29v26q0 12 -2 18v7v13q-1 7 3 23q3 1 10 1h61h49q4 0 16 2h14q8 -2 24 -2h27q10 0 15 2h7q13 0 19 2h3h43q2 1 8 -2q1 -2 1 -14v-165 q0 -17 2 -25v-8v-61v-102q0 -7 0.5 -23t0.5 -23v-6q2 -5 2 -15t2 -15q1 -8 8 -16q21 -19 47 -30q7 -3 21 -5h46q3 0 9 -0.5t9 -0.5h32q1 0 5 0.5t6 0.5h54q1 0 4 0.5t5 0.5q10 3 22 1q10 -2 14 -2h25q13 0 20 2h6q13 0 28 5q3 1 10 2.5t11 2.5q11 2 25 13q6 5 15 23 q2 6 4 18q1 5 2 15.5t2 15.5q1 7 1 21q-1 64 -1 193v120q0 10 -1 15v8q-1 18 -1 53q0 1 0.5 2.5t0.5 2.5q1 0 5 1t5 1t3 2h28z" glyph-name="U" horiz-adv-x="1179" unicode="U"/><glyph d="M35 693h39h24q10 0 15 -2h8h81h3q13 2 61 2h118h12q16 -27 17 -29q5 -10 17 -28q8 -11 13 -20q18 -30 26 -39q13 -18 21 -34q7 -15 23 -43q10 -18 32 -52q21 -31 23 -36l3 -6q9 -13 26 -38.5t25 -38.5q2 -3 6 -9.5t6 -10.5q2 -3 4 -9l1 -2q1 -1 1 -2l3 2q11 15 31 45 q2 5 7 12.5t6 9.5l27 42q6 9 16 27q5 9 15.5 25.5t15.5 24.5t15 26q3 5 9 15.5t9 15.5l27 42q22 34 32 51q4 8 12 22t10 18q1 2 4.5 6.5t4.5 6.5q5 4 12 4h68h98h60q1 0 4.5 0.5t5.5 0.5h18q2 0 5.5 -0.5t5.5 -0.5h68q4 -1 12 -1q0 -1 -0.5 -2.5t-1.5 -2.5q-4 -7 -13 -21.5 t-14 -22.5q-13 -18 -14 -20q-11 -19 -35 -55q-2 -2 -3.5 -4.5t-3 -5.5l-2.5 -5q-5 -9 -13 -20q-3 -5 -11.5 -18.5t-13.5 -20.5q-10 -18 -16 -27q-2 -4 -4 -7q-24 -44 -27 -50q-6 -10 -18 -30.5t-18 -30.5q0 -1 -3 -4.5t-4 -5.5q-9 -14 -17 -25q-11 -20 -31 -47l-24 -39 q-9 -14 -25 -42q-2 -3 -6.5 -9t-6.5 -9q-36 -54 -53 -81q-2 -3 -16 -25q-6 -10 -10 -14q-9 -11 -30 -43q0 -3 -2 -3l-1 -1q-8 0 -21 -1t-23.5 -1.5t-19.5 -0.5q-16 2 -24 2h-113h-77q-18 0 -27 -1q-3 -1 -24 -1q-1 1 -2.5 3.5t-2.5 3.5l-33 51q-6 10 -10 18q-4 10 -9 16 q-2 4 -6.5 11t-6.5 10q-11 19 -24 36q-7 9 -8 13q-1 5 -5 11t-21 30.5t-26 37.5l-18 27q-3 4 -6.5 10.5t-5.5 8.5q-6 11 -18 31q-6 9 -16 29q-15 31 -31 54l-18 30q-1 2 -3 5.5t-4 5.5q-13 18 -24 41q-1 1 -2.5 3.5t-2.5 3.5q-11 17 -33 53q-31 48 -46 67l-36 51 q-14 17 -22 36z" glyph-name="V" horiz-adv-x="1276" unicode="V"/><glyph d="M1082 -6q-2 2 -4 2h-24h-53h-44q-4 4 -5 7q-2 5 -7 15.5t-8 15.5q-24 47 -27 53q-1 2 -3 5.5t-3 5.5q-15 33 -19 40q-1 2 -4 7t-4 8q-12 26 -17 39q-3 6 -7.5 17t-8.5 20t-8 17q-10 18 -28 54l-1 1q-1 1 -1 2l-2 -1q-1 0 -1 -1q-1 -3 -3.5 -9t-3.5 -9q-7 -23 -20 -47 q-9 -18 -25 -52q-4 -9 -23 -50q-2 -3 -4.5 -10t-3.5 -10q-3 -4 -4 -8l-45 -90q-2 -4 -6.5 -11t-5.5 -9h-5h-52q-15 0 -23 2q-6 1 -19 1h-39q-10 0 -30 -0.5t-30 -0.5t-14 -1q-2 -1 -5 -1h-78h-1q-1 1 -2 1q-4 2 -6 8q-18 31 -30 66l-27 57q-28 59 -29 61q-2 4 -6 14t-6 14 q-6 19 -15 35q-15 31 -26 56q-12 28 -22 49q-5 13 -7 16q-2 5 -6.5 15t-6.5 15q-24 51 -29 64q-4 10 -7 14q-11 24 -22 50q-1 3 -3.5 7.5t-4.5 8.5l-4 8q-4 9 -11.5 26.5t-11.5 25.5q-4 7 -11 20.5t-10 20.5q-6 13 -20 39v3h1q1 1 2 1h63q2 0 8.5 1.5t8.5 -0.5q3 -1 17 -1 h67h31h53q10 0 15 1q3 1 8 1h39q3 0 10 -1t10 -1q2 -2 4 -6q1 -1 1 -2q24 -48 34 -73l21 -48q7 -13 18.5 -39t14.5 -31q5 -10 25 -55q6 -15 18 -43l6 -12q2 -1 4 2q1 2 6 13.5t9 17.5q17 32 28 60l18 39q4 7 10 21q1 2 2.5 6.5t3 8t3.5 6.5q4 10 26 56q3 7 9 21.5t8 19.5 q1 4 4.5 12.5t5.5 12.5q1 3 5 7q1 1 3 1q26 2 39 2q1 0 5 -0.5t5 -0.5q2 0 5.5 -0.5t5.5 -0.5h76h32q2 0 4 0.5t3 0.5q3 1 9 1h105h6q1 -1 2 -2.5t2 -2.5l3 -6q8 -19 26 -59l3 -6q9 -15 20 -42q2 -5 4.5 -10.5t5.5 -12t5 -10.5q20 -38 32 -72q2 -3 4.5 -8t3.5 -8 q10 -20 28 -62q3 -6 4 -6q4 4 7 10q3 7 10.5 23t11.5 24q5 10 13 27t11 23l51 114q1 2 2.5 4.5t2 4t1.5 3.5l2 4q6 14 8 21q21 48 24 53q1 0 3 0.5t3 0.5h45q12 0 18 -2h8q71 0 107 -1q15 0 23 -1q10 -1 30 -1q15 0 22 -1q3 -1 9 -1h56q5 0 7 -2q-4 -10 -7 -16q0 -1 -1 -3 t-1 -3q-6 -10 -28 -60q-25 -54 -27 -61q-5 -14 -17.5 -41.5t-18.5 -41.5q-3 -8 -11 -24q-5 -10 -13 -28.5t-11 -24.5q-5 -13 -32 -71q-10 -21 -17 -40q-3 -7 -9 -20.5t-9 -19.5q-5 -13 -7 -16q-7 -19 -22 -47l-3.5 -7t-4.5 -7q-6 -10 -14.5 -27.5t-11.5 -23.5q-3 -7 -11 -21 t-11 -22q-2 -6 -7.5 -19t-8.5 -20l-12 -24h-8h-91q-8 0 -9 -2h-68z" glyph-name="W" horiz-adv-x="1613" unicode="W"/><glyph d="M1443 690q-27 -23 -45 -38q-8 -6 -22 -18q-6 -6 -7 -6q-2 -1 -29 -23l-18 -15q-16 -14 -24 -20q-12 -10 -19 -14t-16 -13q-1 -1 -5.5 -4.5t-8.5 -4.5q-2 -1 -5 -4q-10 -10 -15 -14q-12 -14 -30 -25q-1 -1 -11.5 -9.5t-16.5 -12.5l-66 -48q-18 -14 -26 -21l-12 -9 q-14 -12 -20 -17q-10 -7 -30 -23q0 -1 2 -3q6 -5 19 -14.5t20 -13.5q23 -17 25 -19q10 -9 27 -19q18 -12 27 -19q9 -5 16 -11q4 -3 36.5 -26.5t49.5 -37.5v-1q8 -5 22.5 -15t21.5 -15q3 -3 9.5 -7.5t11.5 -8.5t9 -8q3 -3 23 -18q5 -4 21 -16.5t25 -19.5q6 -5 18 -14.5 t18 -14.5q17 -13 28 -23l30 -24q2 -2 3 -4q-2 -1 -6.5 -1h-6.5q-22 -2 -63 -2h-50h-114h-61q-16 0 -19 1h-3q-3 0 -9 -0.5t-9 -0.5h-103h-4q-12 7 -23 17q-19 15 -25 20q-3 2 -5.5 5t-6 6.5l-5.5 5.5q-4 4 -14 12q-11 7 -41 32q-5 6 -7 6q-3 2 -53 38l-3 3q-5 6 -44 37 q-3 2 -12 8.5t-14 10.5q-2 0 -5 -3q-24 -19 -26 -20q-4 -3 -31 -25q-9 -8 -26 -23t-26 -22q-1 -1 -3 -2.5t-3 -2.5q-3 -2 -8 -6t-8 -6q-6 -5 -18 -14.5t-18 -14.5q-4 -3 -46 -34q-3 -2 -35 -26l-4 -2h-451q2 2 6 5t6 5q9 7 49 35l45 36q2 1 4 3q10 6 28 19.5t21 15.5 q4 2 22 18q2 1 6 5q7 4 37 26l12 9q9 5 35 26q16 13 17 14q30 19 57 42l18 15q27 22 29 23q18 15 39 27q7 5 19 14.5t16 12.5q8 6 11 9q-25 24 -47 37q-11 6 -24 19q-3 2 -9.5 7t-9.5 8q-10 7 -30 20.5t-30 20.5q-17 15 -20 18q-18 16 -28 23q-7 4 -19 14q-6 5 -17.5 14 t-17.5 13q-10 8 -30 22q-7 6 -20 15.5t-19 14.5q-18 15 -34 24l-15 12q-8 6 -13 11q-11 7 -19 16l-24 18q-4 4 -5 7h6h12q4 -1 11 -1h47q9 -1 26.5 0t22.5 1q13 1 38 1q2 0 6 0.5t5 0.5q5 -1 16 -1q4 -1 13 -1h13q18 0 21 -1h9h39q11 0 17 1q7 1 22 1q19 0 24 2h17.5 t17.5 -2h7q21 0 31 2q2 0 5.5 -0.5t5.5 -0.5q2 -1 5 -1.5t5 -0.5q14 -8 31 -23q10 -9 30 -25q7 -6 21 -16q4 -3 12.5 -10t12.5 -11q5 -3 13.5 -10t12.5 -11q9 -8 27 -22t27 -22q7 -5 21 -17l12 -9q9 6 25.5 19t24.5 20q3 2 8 5.5t7 5.5q15 11 25 20q7 5 21 17q8 8 24.5 21 t22.5 18q9 8 26.5 22t20.5 16q2 1 4.5 4t5 5t5.5 3q43 1 86 0h5q7 -2 20 -2q41 1 122 1q8 0 26 2l13 -1q14 0 14 1q14 2 21 2h5q7 -2 34 -2q61 0 91 -1h8z" glyph-name="X" horiz-adv-x="1549" unicode="X"/><glyph d="M606 -6q-1 2 -5 2h-40q-11 0 -16 1q-2 1 -2 7v47v76q0 17 1 21q1 2 1 7v33q0 5 -2 15q-1 5 1 15q1 9 -6 18q-12 12 -24 20q-6 6 -20 17t-20 16q-3 3 -10 9.5t-11 9.5q-3 3 -9 8.5t-9 8.5t-9 11q-5 7 -11 10q-19 15 -53 49q-2 2 -5.5 5t-5.5 4q-36 31 -40 35q-2 2 -6 5.5 t-6 5.5q-7 6 -21 20q-5 5 -15 13.5t-13 10.5l-5 5l-63 57q-9 8 -15 15q-7 7 -21 19q-6 6 -16 14q-19 15 -38 32q-3 3 -9 8.5t-9 8.5t-13 11.5t-16 12.5q-4 3 -10 11h10h15t15 1q13 1 36 1.5t30 0.5h121q2 0 6 0.5t6 0.5q17 1 35 0q1 0 4 -0.5t5 -0.5q64 -1 129 0h21 q1 -1 3 -2l1 -1q28 -29 84 -85l51 -51q7 -7 20.5 -19t18.5 -16q1 -1 9 -8t13 -11q18 -12 27 -19q6 4 9 7q7 5 19 17q15 16 45 46q5 5 15.5 16t15.5 16q28 25 29 26l2 2q9 9 29 27q5 5 16 15t16 15l2 2q2 3 4 4q8 6 14 14l4 4q5 1 11 0q7 -3 23 -1q1 1 4 1.5t4 0.5q12 0 18 2 h8h46q9 0 14 -1q3 -1 10 -1h86h4q7 2 34 2h163h13q-2 -2 -2 -3q-9 -5 -24 -20q-18 -18 -28 -27q-3 -3 -9.5 -10t-10.5 -11q-14 -11 -38 -35q-7 -6 -19 -20q-26 -23 -49 -46q-6 -5 -17 -15.5t-17 -15.5q-12 -11 -36 -31q-5 -5 -16.5 -14t-17.5 -13q-3 -3 -13 -11 q-11 -8 -33 -28q-12 -10 -35 -33l-18 -15q-12 -12 -19 -17l-42 -39q-52 -46 -53 -47q-5 -4 -13 -12v-20q0 -4 -0.5 -10t-0.5 -9q0 -25 0.5 -74.5t0.5 -73.5v-33q-1 -4 -1 -11q-2 -3 -5 -3h-52q-12 0 -18 2h-10h-36q-23 0 -29 -2h-18q-2 0 -4 -2h-64z" glyph-name="Y" horiz-adv-x="1388" unicode="Y"/><glyph d="M177 -6q-1 0 -1 0.5t-1 0.5q-2 1 -5 1h-87h-6q-4 5 -4 15v45v52q-1 1 -1 2v2q-1 6 -1 49q1 4 7 8q26 14 38 21q4 2 19 11t24 14q20 12 31 17q5 4 16 9.5t17 9.5q5 3 11 7q3 2 8 5t7 5q8 6 22 16q10 9 25 17q20 12 25 17q3 2 55 35q4 2 19.5 11.5t23.5 15.5q10 7 30 19 q6 4 22.5 14t24.5 16q2 2 3 2q11 6 47 31q7 4 20 12.5t19 12.5q8 6 20 16q1 2 1 3q-2 0 -5 0.5t-4 0.5h-38q-21 0 -25 1h-8h-27q-25 0 -31 -1q-9 -1 -29 -1h-129h-30q-14 0 -20 -1q-4 -1 -22 -1h-79q-24 0 -35 1q-8 0 -11 -1q-3 0 -9 -2q-2 2 -4 2v1q-1 1 -1 2q0 3 -0.5 12 t-1.5 14v7q1 4 1 35q-1 5 -1 31q0 8 1 13v10q1 17 1 50v7q1 4 7 4q9 1 26 1h40q15 0 18 1h3q5 -1 29 -1h27q15 2 42.5 2h33.5q4 0 14 -2h12h192q1 0 4.5 0.5t5.5 0.5q1 0 4 0.5t4 0.5h78q8 0 12 -1q3 -1 9 -1h97h196h88q5 0 17 -2q6 -1 18 -1h9q1 -1 1 -3v-16.5v-19.5v-17 q-1 -11 -1.5 -31.5t-0.5 -27.5q0 -16 2 -25v-16q-4 -4 -7 -5q-18 -10 -35 -26q-1 -1 -3.5 -2.5t-3.5 -2.5q-8 -6 -24 -16l-30 -18q-13 -8 -37 -24q-3 -2 -8 -5.5t-7 -5.5q-5 -4 -14.5 -11t-14.5 -10q-45 -30 -66 -41q-13 -8 -39 -26q-6 -4 -17 -11.5t-16 -11.5 q-22 -17 -54 -37q-36 -22 -55 -33q-5 -3 -16 -9t-17 -10q-4 -3 -13 -9.5t-14 -9.5q-7 -6 -34 -26q-1 0 -2 -1l-2 -2q5 -1 13 -1h224q2 0 6 0.5t6 0.5t5 0.5t5 0.5h75q10 0 16 2h10h141q19 0 29 1h18q3 -2 3 -6q0 -17 1 -26q0 -3 1 -4v-47v-1q-1 -1 -1 -2q-1 -3 -1 -10v-84 q0 -5 -2 -7h-3h-100q-4 0 -7 1q-5 1 -15 1h-60h-8q-7 -2 -21 -2h-202q-2 0 -6 0.5t-5 0.5q-2 0 -6.5 0.5t-6.5 0.5t-6 -0.5t-7 -0.5q-2 0 -6.5 -0.5t-7.5 -0.5h-125h-27h-57q-26 0 -39 1q-8 3 -16 0q-2 -1 -6 -1h-41q-2 0 -5.5 0.5t-4.5 0.5h-14q-29 -1 -87 -1q-6 0 -8 -1 q-1 0 -1 -0.5t-1 -0.5h-30z" glyph-name="Z" horiz-adv-x="1180" unicode="Z"/><glyph d="M71 -194v7v35q0 14 1 17v5q1 24 1 72v86q0 11 -2 16v3v4.5v3.5v127q0 3 0.5 7t0.5 6q0 23 -1 26v8v155q0 10 -0.5 31t-0.5 32q0 8 0.5 24.5t0.5 24.5v82q0 23 1 34q1 12 1 38v34q0 2 -1 4q-1 4 -1 34q-1 51 -1 153v44q2 3 8 3q3 1 7 1l29 1q28 0 28 -1q16 -1 45.5 -1.5 t38.5 -0.5q14 0 41.5 0.5t41.5 0.5q7 0 10 1h7h161h5q8 -2 22 -2h18h8v-6q1 -8 1 -23q0 -12 1 -15v-2q0 -7 1.5 -22t1.5 -23q0 -40 1 -60q0 -14 1 -17v-5q0 -2 -1 -3h-22h-22h-22h-22h-23h-22h-21h-22q-2 -3 -2 -8v-58v-43q0 -13 2 -19v-8v-64q0 -10 -1 -15q-1 -3 -1 -8v-33 q2 -12 2 -19q0 -12 -1 -17q-1 -7 -1 -21v-207q0 -15 2 -22v-10v-60q0 -12 -1 -18q-1 -2 -1 -8v-120q0 -1 0.5 -2.5t0.5 -2.5q1 -1 9 -1h72h83q4 0 6 -1q1 -2 1 -5q0 -14 -1 -21q-1 -11 -1 -33v-105v-10q-1 -2 -6 -2q-28 0 -42 -1q-14 0 -17 -1t-8 -1h-106q-4 0 -14 2h-14 h-51h-4q-12 -2 -34.5 -2h-27.5q-9 2 -42 2q-6 0 -16 -0.5t-16 -0.5h-24.5t-24.5 -1q-8 0 -17 3l-1 1q-1 1 -2 1z" glyph-name="bracketleft" horiz-adv-x="618" unicode="["/><glyph d="M788 -153q-6 1 -16 1q-4 1 -11 1h-46q-12 1 -37 1q-28 0 -42 -1q-11 -1 -32 -1.5t-28 -0.5h-66h-12h-8q0 1 -1.5 4.5t-2.5 5.5q-3 6 -7.5 16t-6.5 16q-3 10 -10 26.5t-9 22.5q-3 9 -11 27t-11 27l-9 24q-5 11 -14.5 33t-13.5 33q-2 4 -6.5 14t-6.5 14q-4 10 -12 29.5 t-12 29.5q-16 36 -23 54l-24 57q-15 43 -38 98l-42 105q-4 11 -13 33.5t-14 33.5q-17 44 -34 83q-5 13 -17 37q-6 15 -18.5 44.5t-18.5 43.5q-7 17 -34 85q-7 16 -11 29q2 0 7 1t8 0q4 -1 14 -1h34h15t14 -1q21 -3 47 -1q25 1 74 1h71q7 0 10 -1q4 -1 7 -7q22 -56 28 -70 q4 -10 12.5 -31t12.5 -32l21 -51q3 -9 20 -47l8 -16q20 -48 22 -53q4 -10 12.5 -30.5t12.5 -30.5q3 -8 10 -25t11 -25q6 -14 17.5 -43t16.5 -44q3 -7 13 -33t16 -40l20 -50q22 -52 32 -79q4 -12 13 -33t11 -26q4 -8 14.5 -32t16.5 -38q19 -43 32 -77q14 -33 40 -99l2.5 -5 t2.5 -6z" glyph-name="backslash" horiz-adv-x="858" unicode="\"/><glyph d="M249 753q-12 0 -17 -1h-5h-154h-2q-2 6 0 11q0 1 1 3q0 4 0.5 13t0.5 14v41q0 26 1 39q0 6 2 14v7q1 9 1 28v7h5h13q27 0 40 2h30h109q17 -1 50 -1h50q13 -1 37 -1q20 1 121 1h16v-6v-59q-1 -29 -1.5 -83t-0.5 -71q0 -26 -1 -39q0 -4 -0.5 -10t-0.5 -10q0 -11 2 -31v-62 v-31t1 -31q1 -15 1 -46q-2 -42 -2 -120.5v-96.5v-24q2 0 1 -75l-1 -75q-1 -20 -1 -54.5v-54.5q0 -5 -0.5 -14.5t-0.5 -14.5q1 -8 1.5 -24.5t0.5 -24.5v-28t1 -29l-1 -1v-1q-3 -4 -8 -4h-52h-124q-8 0 -25 0.5t-26 0.5h-25q-24 -1 -141 -1q-9 0 -31 2h-20h-15v5v9.5v12v9.5 q1 13 1 81q0 13 -2 37v20v3h43h42h43q28 0 43 -1v5v121q-2 61 -1 92q1 40 1 118v118q0 8 -0.5 23t-0.5 22t0.5 23t0.5 23q-1 13 -1 77v35t1 34q1 21 1 65q0 1 -0.5 4t-0.5 5z" glyph-name="bracketright" horiz-adv-x="618" unicode="]"/><glyph d="M403 186q-15 -3 -59 -3q-2 0 -6.5 1t-7.5 1q-2 0 -6.5 -1t-7.5 -1h-146h-87h-13q0 4 1 6l2 4q20 32 31 48l18 27t17 27q5 7 13 21q2 4 8 12q2 4 12 19q12 18 17 27q1 1 7 10q10 16 23 32q11 14 18 28q29 48 34 55q7 9 19 29.5t18 29.5l30 42q1 1 10 13q8 14 16 25 q12 16 17 24q2 3 6 9.5t6 9.5q2 5 5 10h7q4 1 12.5 1.5t12.5 0.5q9 0 14 -1q2 -1 6 -1h103h21q13 0 20 2h9h45h6q15 -4 40 0q11 0 13 -1q14 -22 16 -26q10 -14 28 -42q26 -41 29 -47q8 -14 12 -20q9 -13 17 -28q3 -5 10 -15.5t11 -15.5l30 -48q12 -18 19 -27q12 -17 36 -49 q22 -28 32 -42q1 -2 4 -6.5t4 -6.5q17 -25 22 -30q2 -2 16 -22q16 -27 44 -61q1 -2 6 -8.5t8 -9.5q-1 -2 -5 -2q-9 -1 -28 -1h-83h-59q-5 0 -7 1q-9 2 -27 0q-3 0 -9 -0.5t-9 -0.5h-34q-11 0 -16 -1q-3 -1 -9 -1h-32q-7 -1 -20.5 0.5t-19.5 1.5q-3 3 -7 10t-5 9 q-8 13 -22 37t-22 37q-15 27 -17 32q-4 8 -10 17q-15 19 -21 33q-3 6 -7 10q-7 9 -11 18q-4 11 -17 29q-1 -2 -3 -4.5t-3 -3.5q-5 -9 -28 -41q-3 -4 -8.5 -12.5t-8.5 -12.5q-5 -7 -14 -21.5t-13 -21.5q-4 -6 -11.5 -18.5t-10.5 -18.5q-5 -9 -17 -25q-4 -6 -12.5 -18.5 t-12.5 -18.5z" glyph-name="asciicircum" horiz-adv-x="1121" unicode="^"/><glyph d="M1209 37q1 -27 1 -77q0 -2 0.5 -6.5t0.5 -6.5v-3q-1 -12 -1 -31v-31q0 -3 -0.5 -9t-0.5 -8q-1 -2 -5 -2q-32 0 -48 -1q-14 -1 -40.5 -1.5t-34.5 -0.5h-76q-16 -2 -25 -2q-8 0 -24 1t-24 1q-23 0 -34 1q-10 0 -14 1h-2.5h-3h-2.5h-30q-14 0 -16 -1q0 -1 -4 -1l-5 1 q-48 -1 -145 -1q-2 0 -7 -0.5t-7 -0.5h-31h-9q-27 0 -81.5 0.5t-81.5 1.5q-15 0 -18 1h-5q-17 0 -51.5 0.5t-51.5 0.5q-16 0 -24 -2q-3 -1 -11 -1q-22 0 -67.5 0.5t-68.5 0.5q-7 1 -43 1q-14 1 -40 1q-5 0 -8 2v22q1 3 1 8t1 8v129v5q2 3 8 3q14 0 42 -0.5t42 -0.5 q105 0 157 1q15 0 23 1q2 1 9 1h103q4 -1 13 -1q2 -1 13 -1h114h67q14 1 124 1q3 2 5 0q4 -1 25 -1h23.5h27.5h23q29 -1 87 -1q15 0 45 0.5t46 0.5q6 0 22 -2h20q4 1 12 1h55q12 0 18 -1q3 -1 12 -1z" glyph-name="underscore" horiz-adv-x="1281" unicode="_"/><glyph d="M220 746q-18 22 -27 39q-5 8 -17 24q-2 4 -5.5 10t-5.5 10q-1 1 -3 5q-1 9 -11 21q-24 34 -33 52q-5 8 -10 19q-12 26 -32 54l-6 9q2 1 5 1h15q10 0 14 1q3 1 10 1h103h94h43h23h6q5 -4 7 -9q22 -43 32 -71q7 -13 11 -25l18 -39q3 -8 8 -16q3 -6 27 -53q2 -4 6 -12.5 t6 -12.5q0 -1 1 -2.5t0 -2.5q-1 0 -3 -0.5t-3 -0.5h-21q-15 0 -22 -1q-5 -1 -15.5 -1h-15.5h-39q-4 0 -11 -0.5t-11 -0.5q-16 -1 -32 0q-19 3 -38 0q-15 -2 -32 0q-6 1 -20 1h-16z" glyph-name="grave" horiz-adv-x="570" unicode="`"/><glyph d="M478 705h41q18 -1 50 -1h51q18 -1 54 -1h85q6 0 20 2q1 -2 5 -6q10 -16 16 -24q2 -3 6 -7.5t4 -5.5q3 -5 11.5 -16t12.5 -18q4 -9 27 -44q28 -42 41 -63l3.5 -7t4.5 -7q2 -4 3 -5q8 -8 17 -24q5 -10 17 -32q5 -10 17 -28t28 -41l12 -18t11 -16q2 -2 13 -19q2 -4 7 -9.5 t6 -6.5q0 -1 1.5 -2.5t1.5 -2.5q5 -9 27 -41q15 -21 25 -41q4 -7 12 -19q3 -5 25 -41q14 -22 22 -32q4 -4 9.5 -13t7.5 -12q4 -6 11 -17.5t11 -16.5q10 -15 32 -45q1 -2 4 -6.5l5 -7.5q3 -3 2 -5h-344q-2 4 -5 7q-6 10 -9 14q-2 3 -10.5 15.5t-11.5 20.5q0 1 -1.5 3t-2.5 3 q-2 4 -7.5 12t-8.5 12q-1 1 -3 4t-3 4t-3 3.5t-3 4.5q-3 4 -8 11t-7 11h-9q-2 0 -6.5 -0.5t-6.5 -0.5h-31q-31 1 -31 0q-41 -3 -92 -1q-30 1 -90 1h-89h-6q-10 -12 -13 -19q-2 -5 -7.5 -12.5t-6.5 -9.5q-4 -6 -12.5 -19t-12.5 -20q-3 -5 -16 -23q-1 -1 -1 -2q-8 -12 -12 -19 h-6h-114h-111h-15q-6 0 -10 2h-6h-65h-6l12 24q15 25 17 29q10 16 14 25q6 10 8 15q12 25 34 54q4 6 12 17.5t12 17.5q3 5 26 41l21 30q4 6 12.5 18.5t12.5 18.5q3 5 19 29l18 30q10 14 15 22q3 5 9.5 15.5t10.5 15.5t12 16.5t12 17.5q3 4 9 14t9 14q3 5 10 14.5t10 14.5 q12 15 21 33q10 18 20 31l9 15q12 20 18 29q3 6 10 17t9 14l18 27l9 18q1 2 14 20zM692 308q-17 25 -19 27q-1 2 -3 5t-3 5q-3 4 -8 11t-7 11q-4 6 -5 7q-2 5 -14 21l-6 3l-2 -2q-17 -26 -32 -46q-16 -24 -19 -29q-1 -1 -8 -13h126z" glyph-name="a" horiz-adv-x="1273" unicode="a"/><glyph d="M71 6v19v157v75t1 75q1 22 1 133q0 23 2 35v29q1 19 1.5 55.5t0.5 48.5q-1 12 -1.5 34.5t-0.5 29.5q0 6 3 10l2 1h3q17 0 20 1h6q3 0 8 -0.5t8 -0.5q63 0 95 -1h64q39 0 58 1q58 2 88 1q17 -1 107 -1q18 1 48 1h47h26q6 0 19 -0.5t19 -1.5h64q13 -1 25 0q23 1 68 1l21 -3 h3q21 0 47 -7q34 -9 64 -27q7 -5 13 -10q12 -11 21 -21q17 -18 30 -54q7 -23 8 -28q4 -14 4 -22v-28t-1 -29q0 -8 -2 -22q-3 -19 -9 -35q-7 -21 -21 -43q0 -1 -2 -3q7 -6 19 -18q16 -14 25 -27q13 -19 18 -33q6 -15 9 -30q2 -8 2 -13q1 -4 1 -14v-40q0 -4 -0.5 -12.5 t-0.5 -13.5q-1 -1 -1 -4q0 -30 -14 -60q-10 -22 -23 -36q-2 -3 -7.5 -8t-8.5 -8q-15 -13 -28 -21q-8 -6 -18 -9q-24 -8 -36 -11q-26 -6 -39 -8q-6 0 -18 -2q-5 0 -15 -2h-1q-8 -1 -23 -1h-70q-11 0 -33 -2q-18 -2 -38 0q-21 0 -31 1q-35 2 -105 0h-59.5t-59.5 -1 q-18 -1 -55 -1h-56q-19 -1 -55 -1q-5 0 -21.5 0.5t-25.5 1.5h-39q-21 1 -62.5 1h-63.5q-7 0 -25 2zM377 189h5q22 0 33 1q1 0 5 -0.5t6 -0.5q3 0 8 0.5t7 0.5q20 -2 31 -2q19 -1 56 -1q8 0 32.5 -0.5t38.5 -1.5q15 0 23 -1q10 -1 31 -1q43 0 52 1q2 0 9 0.5t11 1.5 q19 1 37 12q13 7 19 23q7 14 -4 32q-1 1 -1 2q-20 15 -44 15h-37t-38 1q-14 0 -21 1q-10 1 -29 1h-111h-7q-16 -2 -24 -2q-6 -1 -36 2q-10 1 -27.5 0t-23.5 -1q-1 -1 -1 -2v-81zM376 438h7h170q20 -1 120 -1q2 0 6.5 0.5t6.5 0.5q18 4 25 9l1 1q15 8 21 27q4 8 0 21l-3 6 q-8 11 -23 14q-8 2 -13 3q-21 3 -22 3q-14 1 -43 1q-37 0 -56 -1q-44 0 -66 1q-42 1 -126 1q-1 0 -2 -0.5t-2 -0.5v-6v-69q0 -1 -0.5 -4.5t-0.5 -5.5z" glyph-name="b" horiz-adv-x="1174" unicode="b"/><glyph d="M843 281h9h143q17 -1 46.5 -1h45.5q3 0 9 -0.5t8 -0.5q3 -1 9.5 -1.5t8.5 -0.5q9 0 14 -1q1 -2 1 -6v-85q0 -6 -4 -22q-8 -30 -10 -34q-9 -21 -19 -35q-25 -30 -33 -37q-9 -9 -14 -13q-2 -2 -3 -2q-2 0 -15 -8q-27 -14 -54 -20q-12 -2 -19 -2q-2 0 -5 -1t-5 -1 q-16 -2 -23 -3h-2q-5 0 -19.5 -1t-22.5 0q-16 1 -42.5 1h-42.5h-4q-7 0 -29.5 -1t-35.5 0q-6 -1 -37 -1q-24 -2 -34 -2q-8 -1 -24 -1q-10 0 -28 -0.5t-28 -0.5q-17 1 -103 1q-8 0 -24 -0.5t-24 -0.5h-25q-11 1 -32 1q-10 2 -14 1q-11 -1 -28.5 -1h-27.5q-6 0 -16.5 1 t-15.5 1q-6 0 -18 2q-22 3 -40 10q-6 2 -17 7.5t-12 5.5q-1 1 -4 2t-4 1l-12 6q-28 18 -32 21q-15 13 -24 25q-8 10 -13 17q-13 15 -16 39q-3 9 -5 27v3q-1 10 -1 29t-1 29q0 45 -1 68q0 21 -1 32t-1 29.5v29.5q-1 12 -1 72q0 9 2 25q1 5 1 16q1 6 1.5 16t0.5 13t0.5 6 t1.5 7.5t1 6.5q1 4 3.5 11t3.5 11q3 12 15 34q2 4 7 11.5l7 10.5l4 4q28 29 51 43q20 12 37 17l10.5 3.5t11.5 3.5q10 2 16 3t20 1q3 0 7 0.5t7 0.5q1 0 4 -0.5t5 -0.5h3q3 0 7 0.5t7 0.5q12 1 31.5 1h31.5q17 1 50 1q24 1 145 1q18 0 27 -1t54 -1q17 1 45 1h45 q10 -1 27.5 -1h27.5q5 0 13 -0.5t12 -0.5q7 1 21 1h21q10 1 30 1q8 1 43 1q7 0 21 -2h1q10 1 35 -6q29 -6 52 -22q3 -2 11 -6t11 -6q13 -8 28 -25l18 -21q8 -14 10 -16q12 -21 16 -39q1 -4 3 -14q0 -8 2 -22v-4v-88v-2q-12 -2 -17 -2h-42q-22 1 -198 1q-9 1 -29 -1 q-1 0 -5 -0.5t-5 -0.5q-1 2 -1 7t-1 8q0 1 -0.5 4t-0.5 4q-4 13 -13 30q-10 15 -23 20q-4 2 -12 5.5t-12 5.5q-12 4 -19 4q-4 -1 -13 -1q-4 1 -13 1t-14 1h-46q-39 -3 -87 -1q-10 0 -28.5 0.5t-27.5 0.5q-11 0 -33 -2q-2 -1 -6 -1t-24 -2q-5 0 -28 -5q-14 -4 -28 -12 q-9 -6 -10 -7q-9 -6 -21 -24q-3 -6 -3 -14q-2 -12 -2 -18l-1 -1v-1q0 -17 -1 -25q0 -1 -0.5 -4t-0.5 -5q0 -4 1 -11t1 -10v-8v-25q0 -12 1 -35t1 -34q0 -16 3 -24t4 -10q7 -16 23 -27q12 -8 23 -14q3 -1 11 -3q5 -1 16 -1q24 -2 36 -2h7q21 -1 63 -1h5h6h5h11h9 q8 -1 24.5 -1.5t24.5 -0.5q10 -1 31 -1q19 0 29 1q7 1 21 1q5 0 14.5 1t13.5 1q9 0 17 4q1 0 3 1t3 1q9 1 20 10l15 12q14 10 19 22q6 18 8 27q1 2 1.5 5t0.5 5z" glyph-name="c" horiz-adv-x="1207" unicode="c"/><glyph d="M73 8q-1 11 -1 31q-1 10 -1 90q0 9 2 27v18q1 23 1 135q0 5 1 16t1 17v6v64q0 33 -1 48q-1 27 -1 73v72q1 15 1.5 42t0.5 36q0 10 1 16h6q7 1 19 1t19 1q1 0 25 3h5h114q9 0 27.5 1t27.5 1q25 0 38 1q9 1 26.5 1h26.5q20 1 59 1q32 -2 49 -1h49.5t48.5 1q28 1 76 1h76 q14 -1 37 -1h37q20 -1 59 -1q3 0 8.5 -1t8.5 -1q1 0 3 -0.5t3 -0.5q19 0 29 -1q30 -3 57 -13q20 -8 37 -19q3 -2 19 -15q32 -27 49 -60q7 -12 11 -33q1 -4 2 -11t1 -11q1 -2 1.5 -6.5t0.5 -6.5q0 -18 1 -27q0 -9 2 -27v-1q1 -5 1 -14.5t1 -14.5q0 -9 2 -27q0 -2 0.5 -8 t0.5 -9q2 -20 2 -30q2 -18 2 -27v-79q0 -5 -1 -17t-2 -17v-14q0 -17 -3 -35q-2 -8 -6 -26q-2 -16 -17 -36q-10 -15 -23 -29q-4 -5 -14 -15q-1 -1 -4 -5t-5 -6q-17 -17 -38 -29q-4 -2 -12.5 -6t-12.5 -6q-12 -6 -28 -9q-5 -1 -16 -2.5t-16 -2.5q-7 0 -23 -2h-10.5t-11.5 -1 q-9 -1 -57 -1q-2 0 -5.5 0.5t-5.5 0.5q-23 -1 -138 -1h-13q-14 -3 -31 -1q-34 2 -102 0h-181q-23 1 -62.5 1h-62.5q-31 0 -47 1q-8 0 -24 2h-9h-41q-11 -1 -32 -1q-2 0 -5.5 -0.5t-5.5 -0.5q-1 0 -3 0.5t-3 0.5zM373 519q-2 -24 -2 -34q-1 -4 -1.5 -12.5t-0.5 -12.5 q0 -36 2 -54v-1q0 -9 2 -23q0 -8 0.5 -22.5t0.5 -21.5v-129v-7h5q14 -1 42 -1q1 0 3 -1q4 0 11 -1t11 -1q45 0 67 -2q14 -1 42 -1h57h6q16 2 25 2q10 1 30 1h31h18t23 2q7 0 19 2q16 2 21 5q23 5 32 20q1 0 1 1q11 12 19 41q2 15 3 16q2 16 2 24q0 51 -1 77v31v5l-3 18 q-3 20 -10 33q-9 16 -13 19q-1 1 -4.5 5t-5.5 7l-1 1q-12 7 -22 8q-4 1 -12 1q-20 2 -31 2q-11 1 -34 1q-5 0 -19.5 0.5t-22.5 1.5h-43q-7 0 -21 0.5t-22 0.5h-74q-11 0 -31.5 -0.5t-30.5 -0.5q-3 0 -4 -1h-26q-13 1 -38 1z" glyph-name="d" horiz-adv-x="1214" unicode="d"/><glyph d="M77 697h7h33.5h39h33.5q40 0 60 1h23.5t22.5 1q13 0 39 2h10h72q3 0 8.5 -0.5t8.5 -0.5q6 0 16 2h3q9 0 13 -1q2 0 5.5 -0.5t4.5 -0.5h48q27 2 40 1q30 -2 45 -1q11 1 64 1q0 1 21 1l20 -1q5 0 15.5 -0.5t16.5 -0.5q12 0 18 -1q4 -1 25 -1q11 -1 98 -1q42 -2 65 -2h64 l1 -2q0 -10 2 -24q1 -5 1 -14q1 -8 1 -25v-109v-5h-5h-92q-3 0 -9 -0.5t-8 -0.5q-22 0 -33 1q-9 1 -29 1h-78q-22 -2 -34 -2h-9q-17 -1 -51 -1q-7 0 -21 0.5t-21 0.5h-4q-13 2 -25 0q-35 0 -42 -1q-17 -2 -48 -2h-38h-19q-12 -1 -33.5 -1h-33.5q-2 0 -7 -0.5t-7 -0.5v-6 q0 -2 -0.5 -7.5t-0.5 -8.5v-2q0 -7 0.5 -21t0.5 -22v-2h5h92q8 1 24.5 1t24.5 1q9 1 27.5 1h27.5q12 0 34 2h3h147q11 -1 65 -1q3 0 10.5 0.5t11.5 0.5h52q3 0 9 -1t9 -1h14v-5v-17.5t1 -16.5v-119q0 -16 -1 -25q-2 -1 -8 -1t-8 -1q-5 0 -17 -2h-5h-51q-7 0 -22.5 -0.5 t-23.5 -0.5q-9 0 -27 2h-2q-9 0 -25.5 0.5t-24.5 0.5q-7 0 -21.5 0.5t-21.5 1.5q-17 1 -45 1h-45q-6 -1 -17 -1.5t-15 -0.5q-18 0 -27 -1q-4 -1 -12 -1h-12q-9 -1 -27 -1q-16 -1 -100 -1h-4v-17q0 -5 -1 -15.5t-1 -15.5v-24q10 -2 16 -2h141q2 0 6.5 -0.5t5.5 -0.5 q11 1 32 1q3 0 9 1t9 1q7 0 21 2h16h81q26 0 39 -2q24 -2 48 0h37h32q28 0 42 1q13 1 76 1q6 0 17.5 -0.5t16.5 -0.5q1 0 2 -1h2q1 -14 1 -29t-0.5 -33.5t-0.5 -28.5v-91h-3q-9 0 -25 -2q-15 -3 -29 -3q-16 -1 -45 -1q-6 0 -17 -0.5t-17 -1.5q-32 -2 -62 0q-41 0 -62 1 q-19 0 -29 1h-14t-13 1q-14 1 -81 1q-20 0 -30 -1q-9 -1 -53 -1q-4 0 -10.5 -0.5t-9.5 -0.5h-1q-6 1 -18 0t-18 0q-7 1 -22 1h-23h-19.5t-20.5 1q-12 1 -33 1h-33q-23 1 -65 1.5t-55 0.5q-28 0 -42 1q-24 0 -35 1q-19 1 -58 1h-1q0 1 -0.5 2.5t-0.5 2.5q0 37 1 45 q1 14 0.5 42.5t0.5 43.5q1 8 1 24.5v24.5v20t1 20q3 24 1 54v36.5t-1 37.5q-1 18 -1 107q0 4 1 6q1 5 1 13v17.5v20.5v17q3 30 1 68q-1 13 -1 39.5v39.5v9v1q1 2 1 3z" glyph-name="e" horiz-adv-x="1091" unicode="e"/><glyph d="M998 697l4 -4q1 -1 1 -3v-30v-56q-1 -14 -1 -81v-3q-3 -9 -10 -9q-19 -1 -56 -1q-24 -2 -107 -1.5t-107 0.5q-29 -1 -176 -1q-2 0 -5 0.5t-5 0.5h-10q-14 -3 -30 0q-2 0 -8.5 0.5t-9.5 0.5h-10q-10 0 -28 0.5t-28 0.5q-6 0 -20 -2h-4q-4 -1 -12 -1q-4 -4 -4 -10 q-2 -20 -2 -61q0 -5 3 -10h5q8 0 26 -2h3q17 -1 51 -1q10 0 30 2h3h6q33 -1 98 -1q8 -2 14 0q9 1 27.5 1h27.5q13 1 39 1q33 2 49 1q20 -1 61 -1q4 -1 12 -1t12 -1h6q26 0 39 1q19 0 28 -2v-1q2 -27 2 -82q0 -6 -0.5 -24.5t-1.5 -28.5v-26t-1 -26h-4h-52q-30 1 -81 1h-82 q-8 1 -49 1q-16 -1 -47 -1q-11 0 -29 2h-4h-67q-10 0 -26 -2h-6h-79h-6q0 -1 -0.5 -2t-0.5 -2v-8q0 -3 -0.5 -10t-0.5 -10q0 -1 -0.5 -4t-0.5 -5v-27q-1 -21 -1 -124q-1 -12 -1 -36q-1 -9 -10 -10q-8 -1 -25 -1h-25q-12 -1 -71 -1h-102q-4 0 -12 1t-12 1q-5 0 -14.5 0.5 t-14.5 1.5h-7q-6 3 -6 9v13v339q1 27 1 73.5v73.5q0 20 -2 58v47q-2 22 -2 66v7q0 11 13 13q13 1 41 1h88q25 1 230 1q25 0 38 -1h12h14.5h11.5q6 -1 16.5 -1h15.5h15t15 -1q29 -3 66 -1h22t22 1q17 1 51 1q14 -1 42 -1t42 -1q37 -2 75 0q10 0 28 0.5t28 0.5q4 0 11.5 -1 t10.5 -1h5h15z" glyph-name="f" horiz-adv-x="1074" unicode="f"/><glyph d="M1122 697q0 -1 1 -5t1 -5q1 -27 1 -73.5v-73.5q0 -8 -2 -26q-2 0 -7.5 -1t-8.5 -2q-42 -2 -62 -1h-20.5t-19.5 1q-22 2 -34 1q-11 -1 -32 -1q-17 1 -51 1q-24 0 -36 -1q-5 -1 -14.5 -1h-13.5h-12.5t-11.5 -1q-6 -1 -32 -1q-38 -2 -75 0q-13 0 -39 2q-17 0 -25 1t-74 1 q0 1 -37 0h-37q-15 0 -30 -3q-25 -6 -44 -17q-21 -14 -30 -37q-5 -12 -7 -29q0 -3 -1 -10t-1 -10v-18q2 -18 2 -26q1 -2 1 -6v-77q-1 -5 -1 -17q0 -24 12 -40l4.5 -4.5l5.5 -5.5q8 -7 28 -17q8 -4 12 -4q8 -2 24 -4h4h70q22 2 32 2h25h19q27 0 41 -1q17 -2 33 0q26 2 51 0 q17 -1 45 -1h44q5 0 15 -2h8q0 10 0.5 30t0.5 31h-3h-13q-5 0 -16.5 1t-17.5 1h-34q-9 0 -29 2h-15q-7 0 -21 0.5t-21 0.5q-8 0 -24 -2q-9 0 -13 1t-13 1h-4v5v33q0 11 -2 33v9v74q0 4 0.5 12t0.5 12h5h41q4 1 12 1q35 0 52 -1q16 0 24 -1q9 -1 55 -1q10 0 28 2h6h52 q21 0 32 -1q8 -1 51 -1h40q14 1 85 1q6 0 20 -0.5t21 -0.5v-4q1 -6 2 -16t1 -16v-7v-110q-1 -8 -1 -76v-75q0 -4 -0.5 -12.5t-1.5 -12.5t-2 -10t-2 -10q-4 -17 -19 -34q-13 -15 -39 -31q-14 -8 -31 -11q-3 -1 -8 -1l-30 -3h-7h-48q-7 0 -20 0.5t-20 1.5h-65q-4 2 -9 0 q-29 0 -43 -1q-16 -1 -47 -1q-5 0 -15 1t-15 1h-54q-21 0 -32 -1q-17 -1 -53 -1q-18 1 -109 1q-6 0 -18 -0.5t-19 -0.5h-31q-5 0 -15.5 1t-15.5 1h-14h-51q-13 -1 -38 1q-4 0 -7 1t-10 1.5t-10 0.5q-27 7 -31 9q-2 1 -29 13l-1 1q-1 1 -2 1q-17 6 -45 26q-19 14 -32 33 q-1 2 -3.5 5t-3.5 5q-10 13 -18 39q-2 10 -4 28v2q-1 7 -1 20t-1 19v27q-1 11 -1 31v30q0 21 -1 32q-1 9 -1 29t-1 30v72q0 7 2 25q0 11 1 16t1 28q1 4 2 11t2 10q6 20 6 22q2 7 8.5 19.5t7.5 14.5q8 15 20 26l12 12q19 16 37 27q17 11 43 18q7 2 21.5 5t21.5 4h4h8 q21 1 61 1q14 2 23 2q2 1 7 1h43q44 -1 44 0q11 0 33.5 0.5t33.5 0.5q5 0 15.5 -1t15.5 -1h16q21 0 31 -1q28 -1 84 -1q38 0 56 2q12 1 36 1h35h32h23q59 0 71 -1q34 -2 67 0q46 0 69 1h57q0 -1 1 -1z" glyph-name="g" horiz-adv-x="1216" unicode="g"/><glyph d="M371 455q2 0 3.5 -0.5t2.5 -0.5q62 0 93 1q22 1 65.5 1h65.5q39 1 117 1q18 0 52 -2q19 0 28 -1q1 0 2.5 0.5t2.5 0.5q0 1 0.5 2.5t0.5 2.5v99q-1 17 -1 49q0 5 -1 13t-1 12v5v42q0 9 1 13q2 2 7 2q5 1 14.5 2t13.5 1q14 0 21 1q6 1 40 1h19q18 -2 28 -2h7h110q20 0 30 1 q5 0 9 -4q0 -9 1 -14q0 -15 0.5 -46t0.5 -47v-17q-1 -13 -1 -38t-1 -38v-76q0 -30 1 -45q0 -21 1 -31q1 -23 1 -68v-74q1 -18 1 -49.5v-49.5q1 -22 1 -68q0 -19 -1 -28q0 -3 -2 -5h-6q-25 0 -38 -1q-23 0 -34 -1q-12 0 -18 -1q-7 0 -19 -2h-1q-30 -2 -45 -1q-20 0 -30 1 q-7 0 -19 2h-2q-22 0 -33 -1h-4h-38q-3 0 -9 2q-2 8 -2 11v20q-1 16 -1 96q0 6 -0.5 17.5t-0.5 17.5q-1 5 -1 14t-1 13v66v5q-2 0 -4 0.5t-3 0.5h-85q-72 2 -146 0h-70t-70 -1q-7 0 -21 0.5t-22 0.5h-6v-4v-71v-25t1 -26q1 -14 1 -81q0 -6 -0.5 -17.5t-0.5 -17.5 q0 -3 -2 -13v-2q-3 0 -9 -0.5t-10 -0.5q-22 -2 -34 -2q-19 -2 -29 0h-6h-19.5t-19.5 1h-19h-59h-32q-5 0 -14.5 -0.5t-14.5 -0.5h-6t-6 -1q-1 0 -5 -0.5t-6 -0.5t-5 0.5t-4 0.5q-1 1 -2 2.5t-1 2.5q0 2 -0.5 6t-0.5 6v78q2 36 1 56q-1 18 -1 108q1 42 1.5 119t0.5 101t-1 35 q-1 27 -1 72.5v72.5q0 11 2 33q3 6 11 6h10.5h12.5h11q31 0 47 1q12 1 34 1q12 -1 71 -1q43 0 65 1h20q12 -2 16 -2q0 -2 0.5 -5.5t0.5 -5.5v-117v-53t-1 -52v-9z" glyph-name="h" horiz-adv-x="1176" unicode="h"/><glyph d="M365 699q1 -3 4 -4q0 -7 0.5 -20.5t0.5 -19.5q-1 -18 -1 -105q-1 -11 -1 -33.5t-1 -33.5q0 -9 1 -14v-31t1 -31q1 -12 1 -70q-1 -51 -1 -306q0 -6 -2 -22q0 -8 -7 -9q-1 0 -3 -0.5t-3 -0.5q-8 0 -12 -1q-2 0 -3 1q-3 1 -24 1h-2q-14 -2 -20 -2t-18 -0.5t-19 -0.5h-164 h-13q-5 0 -8 4v22v27q1 15 1 45q2 18 1 27q-1 20 -1 54v54q-1 27 -1 73v73q0 7 0.5 20.5t0.5 20.5q1 7 1 19q0 22 -1 33q-1 15 -1 44l1 55q0 56 -1 56q-1 21 -1 63v8q2 5 8 5q5 -1 14 -1.5t14 -0.5h3h31q4 0 12.5 0.5t13.5 0.5q8 -1 23.5 -1t23.5 -1h22q5 0 13 0.5t13 0.5 q5 2 11 0q32 0 39 1h8q5 0 16 0.5t17 0.5q2 0 6 -0.5t7 -0.5z" glyph-name="i" horiz-adv-x="441" unicode="i"/><glyph d="M405 697h1q6 1 17 1t16 1q23 0 34 1q7 1 46 1h43q14 1 81 1q4 0 12.5 0.5t12.5 1.5h13.5t12.5 1h7q0 -1 0.5 -3t0.5 -3v-22.5v-26.5v-22q0 -23 1 -35q0 -3 0.5 -9t0.5 -9q1 -22 1 -59v-59v-30q1 -22 1 -131q0 -6 -0.5 -17.5t-0.5 -16.5q0 -4 -0.5 -10.5t-0.5 -9.5 t-0.5 -12.5t-1.5 -14.5v-30q0 -5 -1 -15.5t-1 -15.5q-2 -17 -7 -29q-4 -15 -16 -34t-27 -31q-2 -2 -6.5 -5t-6.5 -5q-13 -10 -52 -30q-16 -7 -29 -11q-29 -6 -31 -6q-5 -1 -13 -2t-9 -1q-14 -1 -38 -1h-39q-12 2 -33.5 2h-26.5q-10 0 -30 -0.5t-31 -0.5h-66q-41 0 -61 -1 q-14 -1 -87 -1q-3 0 -7 0.5t-7 0.5q-4 2 -5 2q-1 6 -1 17q-2 17 0 34q0 23 1 35v11.5t1 11.5q1 10 1 65v7q1 1 2 1q5 1 16 1.5t16 0.5h47.5h55.5h47q36 0 54 1l18 3q2 1 8 2t8 1q1 0 3 0.5l4 1t3 1.5q16 8 23 14l5 5q2 1 4 5q9 6 12 20q1 3 2.5 10t2.5 11v4v13q0 22 1 33 q3 21 1 47q-1 13 -1 40v145q0 24 -1 36q-1 9 -1 52v18q0 9 0.5 25t0.5 24z" glyph-name="j" horiz-adv-x="777" unicode="j"/><glyph d="M370 682q0 -1 0.5 -3t0.5 -3q2 -24 2 -35q-2 -17 -1 -26q1 -17 1 -53q0 -26 -2 -38q-1 -8 -1 -24v-24q1 0 1 -1q1 0 3 2q51 32 58 37q4 2 10 6.5t10 6.5q6 4 17 9.5t16 9.5q3 2 10 6.5t11 6.5q4 3 12.5 8t12.5 7q31 18 60 39q4 3 8 5.5t8.5 5t7.5 4.5q4 3 13 7t13 7 q9 5 25 17q24 16 37 23q4 2 5 2q32 2 48 1q8 -1 48 -1h103q34 1 102 1q11 0 32 -0.5t32 -0.5q16 -1 97 -1l1 -1h2l1 -1v-2q-5 -6 -15 -11q-5 -3 -24 -14.5t-29 -17.5q-2 -1 -7 -5t-8 -5q-10 -8 -42 -26q-8 -4 -21 -12t-16 -10q-34 -20 -51 -31q-4 -2 -12 -7.5t-12 -8.5 q-26 -14 -38 -22q-6 -3 -17 -9.5t-16 -9.5t-52 -33q-14 -7 -29 -17q-8 -4 -11 -7q-7 -5 -20.5 -14t-20.5 -14q-5 -3 -15.5 -9t-13.5 -8q-2 -1 -9.5 -6t-12.5 -7l-30 -15q-4 -2 -7 -3q2 -2 6 -4q12 -8 18 -14q1 -1 4 -2.5t4 -2.5q6 -5 17.5 -12.5t14.5 -9.5q28 -18 42 -28 q7 -5 21.5 -13t20.5 -12q9 -6 28 -16.5t28 -16.5q34 -20 50 -31q3 -2 26 -17q1 0 1 -1l2 -1q19 -11 53 -35q3 -3 11 -7.5t11 -6.5q7 -4 21 -14q24 -17 45 -29q32 -18 49 -27q2 -1 5.5 -3t5.5 -3q18 -10 26 -16q8 -4 18 -10q12 -8 36 -22q6 -4 10 -7q-1 -1 -3 -4h-38 q-3 0 -10.5 -0.5t-12.5 -1.5q-2 -1 -14 -1q-1 0 -3 0.5t-3 0.5h-8q-9 0 -27 0.5t-26 0.5q-18 1 -53 1h-53h-79h-40h-55h-4h-1l-1 -1q-19 0 -28 1h-21q-1 0 -3 0.5t-3 1.5q-5 2 -12.5 7t-9.5 6q-12 8 -22 16q-5 3 -13 10t-13 10q-16 11 -29 19q-11 7 -33 19q-1 0 -3 1h-1 q-6 4 -18.5 12t-18.5 12t-18 12.5t-18 12.5q-7 5 -8 5q-8 6 -24 16q-5 3 -14.5 9t-11.5 8q-12 10 -18 14q-6 3 -17.5 11t-17.5 11q-6 4 -17 12t-17 12l-8 8q0 -1 -1 -3v-1v-23q0 -11 -0.5 -33t-0.5 -33q0 -39 2 -58q1 -10 1 -29v-29v-5l1 -2q-2 -5 -2 -15v-12v-2 q-4 -2 -7 -2q-26 0 -38 -1q-16 -1 -96 -1q-2 0 -7 0.5t-8 0.5q-4 0 -12 0.5t-12 0.5q-11 1 -70 1q-27 0 -40 -1q-5 0 -7 2q-3 12 -1 28q1 11 1 69q0 8 -1 23t-1 23v34.5t-1 33.5v127q0 13 -0.5 39t-0.5 40q0 11 2 33v13t1 14q1 14 1 43.5v43.5v25t1 25q0 1 0.5 4.5t0.5 5.5 q0 8 -2 24v8q0 19 1 29q0 3 3 5q17 2 50 2q12 -1 36 -1q19 0 28 1q25 3 45 2h35.5t35.5 -1q14 -1 41 -1q3 -1 10 -1.5t11 -0.5z" glyph-name="k" horiz-adv-x="1289" unicode="k"/><glyph d="M366 685q3 -5 3 -9v-74q0 -8 -0.5 -23.5t-0.5 -22.5q0 -3 1 -13.5t0 -16.5q-1 -10 -1 -61q0 -26 1 -40q1 -9 1 -29q1 -10 1 -57v-49q0 -7 -0.5 -21t-0.5 -20v-43v-28q2 -2 7 -2q28 -2 43 -2q5 0 19 -2h8h53h28t27 1q4 0 17.5 0.5t20.5 1.5q20 2 38 0q15 -1 43.5 -1h42.5 q10 -1 28 -0.5t27 0.5h54h21q9 -1 56 -1q4 0 17 1t20 0h16h5h6h5q4 0 12 -2v-19q1 -25 1 -152v-5q-2 -4 -6 -4h-5h-31h-7h-30h-37h-3h-33h-10h-17h-24q-4 -2 -7 0h-12q-28 2 -43 2q-2 0 -6.5 -0.5t-6.5 -0.5q-5 -1 -14 -1h-148q-11 0 -32.5 0.5t-31.5 0.5q-11 0 -32.5 -0.5 t-32.5 -0.5h-131q-2 0 -6 -0.5t-7 -0.5q-21 0 -31 1h-28t-29 1q-7 0 -23 -0.5t-24 -0.5h-28h-8q-1 -1 -2 0h-19h-6v8q0 12 -1 14v5v30q0 24 -0.5 71.5t-1.5 71.5q-1 20 -1 60v60q0 18 2 58q0 28 1 42v42q0 5 0.5 13t0.5 12q0 11 -0.5 46t-1.5 54v48t-1 49q0 1 0.5 3.5 t0.5 3.5q8 1 17 0h22q3 0 8 0.5t7 0.5h16q2 0 7.5 -1t8.5 0q24 0 35 1q3 0 7 0.5t6 0.5q10 -1 63 -1h64q5 0 14 0.5t13 0.5h6z" glyph-name="l" horiz-adv-x="1056" unicode="l"/><glyph d="M1262 -3l-2 -1h-2h-66h-63q-9 0 -29 0.5t-29 0.5q-14 1 -83 1h-21q-1 1 -3 1v4v115q0 5 1 15.5t1 15.5q0 30 -1 36v9v48q0 2 0.5 4t0.5 4v8q-8 -8 -10 -12q-6 -9 -18 -25q-5 -5 -11 -13t-18 -22q-2 -4 -4 -6l-6 -9q-3 -4 -4 -8q-2 -1 -5 -5t-4 -5q-12 -16 -18 -23 q-2 -2 -6 -6.5t-6 -7.5q-1 -1 -2.5 -3t-2.5 -3q-1 -2 -8.5 -11.5t-11.5 -14.5q-8 -10 -11 -15q-8 -10 -11 -16q-4 -1 -13 -1h-162q-8 0 -24.5 0.5t-25.5 0.5q-10 0 -29 0.5t-29 0.5h-2q-5 3 -9 10q-3 5 -6.5 10t-8 11t-6.5 9q-6 8 -10 14t-15 20q-4 5 -11 14.5t-8 10.5 q-3 3 -10.5 12.5t-12.5 14.5q-10 14 -14 21q-5 7 -15 19l-7 7q-6 8 -14 18q-4 6 -5 7t-2.5 3t-2.5 3v-10q0 -7 1 -10q0 -20 1 -30q1 -12 1 -34q-1 -21 -1 -125q0 -25 1 -37v-14v-2q-1 -1 -1 -2h-2q-13 -1 -38 -1q-47 0 -71 1h-29t-28 1q-13 1 -36 1h-36q-10 1 -29 1 q-4 0 -12 -0.5t-12 -0.5t-5 1t-1 2v35q0 5 0.5 16t0.5 17q1 18 1 159q0 14 -2 44q0 1 0.5 5t0.5 6v6q0 63 1 75v72v14q1 15 0 15q0 4 -0.5 13.5t-0.5 14.5q1 10 1 31v127v10q0 16 1 23q2 3 8 3h14h16.5h13.5q30 2 44 1q32 -3 72 -1q25 1 76 1q21 -1 63 -1l9 -9q9 -11 38 -52 q4 -5 11.5 -16t11.5 -17q8 -10 12 -16q8 -8 22 -26q8 -10 22 -30q4 -6 12.5 -18t12.5 -18q2 -2 4 -5.5t4 -5.5q5 -8 26 -34q12 -17 31 -41q7 -9 19 -23q4 -6 13.5 -18t14.5 -18q4 -5 11 -14t11 -13q1 -2 4 -5q2 2 5.5 7t5.5 7q7 10 31 41q4 5 12.5 16t12.5 17t12.5 18 t13.5 18q3 4 6.5 8.5t8 10t6.5 8.5l5 7.5t4 6.5q6 11 18 23q9 9 14 18q5 7 13 17q2 3 7 10t8 10q5 5 12 15t9 13q6 8 17.5 23t13.5 17q5 7 14.5 20.5t14.5 20.5q9 12 10 13q3 3 5 7q4 4 5 6h11h181q7 0 20 0.5t20 0.5q12 -1 72 -1q2 0 4 -1q0 -3 0.5 -8t0.5 -7v-64 q2 -36 1 -54q-1 -23 -1 -68v-67q0 -5 1 -20t0 -23q-1 -38 -1 -102.5v-102.5q1 -24 1 -142q1 -5 0 -14.5t-1 -13.5z" glyph-name="m" horiz-adv-x="1334" unicode="m"/><glyph d="M73 -3q-2 2 -2 6v20q0 1 1 4v116q-1 9 -1.5 25.5t-0.5 21.5q0 13 1 19q0 10 2 34v1v54q-2 32 -1 49q1 21 1 62v36q-1 15 -1 44t-1 44v23q0 11 1 17q0 2 0.5 4.5t0.5 3.5v81q0 2 -0.5 7t-0.5 7v6q2 0 6 1t6 1q13 0 20 1q9 1 25.5 1h25.5q17 1 47 1.5t39 0.5q6 0 18 -1 t17 -1h92q10 0 16 -6q10 -9 25 -20q20 -14 29 -22q1 -2 9 -7q6 -5 17.5 -15t17.5 -15q21 -16 23 -17q15 -13 37 -29q15 -12 26 -19q6 -5 18 -14.5t18 -14.5q2 -1 6 -3.5t6 -4.5q17 -14 29 -22q6 -5 17.5 -14.5t17.5 -14.5q18 -16 27 -23q7 -7 11 -10q2 -2 22 -16 q19 -15 25 -20q14 -12 23 -19q4 -4 12.5 -10t10.5 -7q3 -2 8.5 -7t8.5 -7q2 -2 7.5 -6t6.5 -5v5v128q0 5 -0.5 16t-0.5 17v38q2 14 1 20q-1 7 -1 21q1 6 1 39v37v18t-1 18q0 5 2 7q12 2 18 2q76 0 114 -1h58q9 0 31 2h17h51q1 0 3 -0.5t4 -0.5v-4v-17.5v-20.5v-17 q1 -27 1 -72.5v-72.5q2 -42 1 -63q-1 -24 -1 -139v-107q0 -46 1 -69q2 -29 1 -43q0 -6 -0.5 -18t-0.5 -18q0 -4 -0.5 -10.5t-0.5 -9.5t-3 -6h-2q-17 0 -20 -1h-9h-14q-24 1 -72 1h-24q-28 1 -84 1q-11 0 -33 -0.5t-33 -0.5h-13q-6 0 -11 5q-2 2 -10 8t-12 10t-9.5 8 t-12.5 8.5t-11 7.5q-5 4 -14.5 12t-14.5 12q-6 4 -16 12q-7 5 -21 17q-2 1 -5 4q-4 6 -11 10q-4 3 -8.5 6.5t-10 8t-8.5 6.5q-5 4 -15.5 13t-15.5 13q-8 7 -23.5 18.5t-19.5 14.5q-3 2 -7 5.5t-5 4.5q-23 17 -25 19q-6 4 -16.5 12.5t-11.5 9.5q-10 7 -11 9q-3 4 -10 9.5 t-10 8.5q-8 6 -13 9q-22 19 -44 35q-7 7 -14 10l-1 1q-14 12 -21 17l-24 21v-4q0 -27 -1 -41v-22v-26.5v-22.5v-13.5v-16v-13.5q1 0 0 -35v-36q1 -33 1 -98v-27v-7q-5 -1 -12 -1q-3 -1 -9.5 -1h-9.5h-37t-38 -1q-33 -1 -88.5 -1h-88.5q-2 0 -7 0.5t-8 0.5z" glyph-name="n" horiz-adv-x="1213" unicode="n"/><glyph d="M1161 279q-1 -1 -1 -3q0 -7 -1 -22t-1 -23q-1 -17 -1 -51q0 -3 -1 -9t-1 -8q0 -8 -4 -22q-9 -30 -15 -43q-6 -12 -15 -24q-15 -18 -16 -19q-6 -7 -22 -19q-15 -11 -49 -25q-17 -5 -51 -13q-8 -2 -14 -2q-9 0 -26 -0.5t-25 -0.5q-4 0 -10.5 -0.5t-9.5 -0.5q-24 1 -65 1 h-65q-5 0 -20 -1t-24 0q-20 1 -59 1q-45 0 -68 -1q-46 -1 -91 0h-37t-37 1q-16 1 -93 1q-9 0 -26 -0.5t-25 -0.5q-7 0 -19 2q-8 0 -12 1q-4 0 -12.5 2t-12.5 3q-10 2 -30 8q-4 1 -20 7q-18 5 -36 20q-17 12 -32 32q-9 10 -15 21q-7 13 -14 34q-2 6 -4.5 16.5t-3.5 14.5 t-1 12q-2 12 -2 37q0 28 -1 42q-1 4 -1 14v15q-1 7 -1 41q1 18 1 48v48q0 6 0.5 17t1.5 17q0 13 1 19q1 5 1 15v15t2 17q0 2 0.5 5.5t0.5 5.5q1 7 8 29q3 10 8 23q6 14 22 34q2 2 5.5 6.5t6.5 7.5t20 18q18 13 50 24q10 4 43 13q14 2 20 2l18 3h3q24 1 71 1h155 q37 -1 111 -1h48q43 3 97 1q35 -1 105 -1q9 -1 26 -1.5t26 -0.5q4 0 13 -0.5t13 -0.5q1 -1 3 -1q24 0 48 -6q19 -3 34 -9q16 -4 42 -19q1 -1 5 -3q13 -5 27 -22q16 -18 22 -28q11 -15 15 -33q6 -20 9 -29q0 -2 0.5 -6.5t1.5 -6.5q0 -7 2 -17v-4v-16q0 -32 1 -49 q0 -4 1 -13.5t1 -14.5q0 -4 1 -4v-46l-1 -1v-27q0 -1 1 -1v-46zM703 173h17q41 0 52 2q21 3 33 12q8 4 22 14q23 19 25 51q0 3 1 4q0 2 0.5 7t0.5 8q1 6 1.5 17.5t0.5 17.5q0 62 -1 75q-1 2 0 5t1 4v22t-1 22q-1 14 -11 27q-3 4 -9.5 11t-9.5 10q-18 15 -32 18q-5 1 -14.5 3 t-13.5 2q-10 0 -14 1q-5 0 -13.5 1t-12.5 1q-44 0 -53 -1q-6 -1 -18 -1q-16 0 -49.5 0.5t-50.5 0.5q-39 0 -59 -2h-2q-8 0 -22 -2q-4 0 -14 -2q-10 -1 -28 -9q-19 -8 -27 -18q-12 -14 -14 -21q-4 -14 -5 -21q-1 -4 -1 -13q0 -3 -1 -7.5t-1.5 -8.5t-0.5 -8v-45t1 -45 q1 0 0 -28v-28q0 -2 1 -6t1 -6q7 -22 20 -34q3 -4 9 -10q2 -5 9 -8q14 -7 17 -8q6 -2 10 -2q5 -1 14 -1t14 -1h22q104 0 125 -1q8 0 26 0.5t26 0.5h29z" glyph-name="o" unicode="o"/><glyph d="M373 204v-7v-56q-1 -5 -1 -14.5t-1 -14.5v-8.5v-10.5v-9q-1 -6 -1 -19v-19q0 -2 -0.5 -7t-0.5 -7q0 -4 -0.5 -13t-0.5 -13v-4q-4 -1 -11 -1h-36q-13 -1 -35 -1.5t-29 -0.5q-18 -1 -49.5 -1h-49.5q-7 0 -21 -0.5t-21 -0.5q-4 0 -12 1t-13 1h-5h-14v5v30q1 15 0 29v18v21.5 v18.5v28v86q0 48 -1 71q0 6 -0.5 18t-0.5 18q1 10 1 64q1 32 0 63q-1 14 -1 41.5v41.5v83v42q0 2 2 10l4 4l2 1q36 0 54 1q7 0 25 -2h21q2 1 8 1h47q9 0 29 0.5t30 0.5h71q22 -1 66 -1q3 0 14 1t17 0t39 -1q51 3 115 1q44 -1 119.5 -1h119.5q4 0 12 -1t13 -1q4 -1 14 -1 q4 0 11 -0.5t10 -0.5q18 -4 28 -7q2 0 4.5 -1t3.5 -1q36 -14 58 -26q3 -2 8 -4.5t9 -5t7 -5.5l20 -20q8 -10 13 -15q14 -16 18 -26q10 -20 13 -31q3 -9 7 -27q2 -10 4 -26q2 -12 2 -17v-32q0 -18 -1 -27q-5 -43 -24 -80q-2 -4 -5.5 -11.5t-4.5 -11.5q-13 -24 -30 -41 q-15 -15 -19 -18q-11 -10 -29 -18q-31 -16 -58 -21q-7 -2 -25 -4q-3 0 -9.5 -1t-9.5 -2h-2q-9 -1 -26 -1h-23.5t-23.5 -1q-6 0 -20 -0.5t-20 -0.5q-4 0 -10 0.5t-9 0.5q-35 0 -53 -1q-12 -1 -32 -1h-32q-5 -1 -15 -1t-15 -1h-6q-60 1 -181 1q-3 0 -9.5 0.5t-9.5 0.5 q-5 0 -16 -0.5t-17 -0.5zM373 386h7h85h7q16 2 23 2h205q2 0 5 -0.5t4 -0.5h11q1 0 3 0.5t4 0.5q16 2 24 6q28 15 43 37q12 15 3 36q-1 4 -11 16q-8 8 -32 21q-1 1 -3 1q-3 1 -8.5 2t-8.5 1q-16 2 -25 2h-26q-1 0 -4 0.5t-5 0.5q-7 -1 -21 -1t-21 -1q-68 0 -81 1h-24.5 t-24.5 1q-13 1 -39 -1q-30 0 -36 1h-5q-6 -1 -17 -1.5t-17 -0.5h-17q-2 -10 -2 -12q0 -21 1 -31q0 -10 1 -29.5t1 -29.5q0 -13 1 -21z" glyph-name="p" horiz-adv-x="1178" unicode="p"/><glyph d="M974 -120h-1q-1 1 -2 1q-5 1 -15 1t-15 1q-11 1 -33 1q-8 0 -23 0.5t-22 0.5q-5 0 -15.5 -1t-16.5 -1h-5q-6 -1 -17.5 -1h-17.5h-29h-74h-23h-10h-7q-38 67 -80 119h-5h-54q-52 0 -78 1q-31 1 -95 1q-8 0 -24 -0.5t-25 -0.5q-5 0 -19 2q-9 0 -13 1t-11.5 2t-10.5 2 q-24 5 -41 13q-3 1 -8.5 2.5t-8.5 2.5q-9 3 -30 18q-17 12 -32 32q-2 2 -5 6.5t-5.5 8t-4.5 6.5q-7 13 -12 29q-1 4 -4.5 16t-4.5 18q-2 10 -2 13q0 4 -0.5 11t-0.5 11v12t-1 12q-1 6 -1 17v17v14t-1 14q-1 14 -1 42q1 16 1 48t1 48q0 23 1 33q0 9 2 25v17q0 8 2 26 q2 16 4 22q11 35 12 38q8 18 23 36q4 4 12 14q9 9 21 18q18 13 49 24q7 2 21.5 6t21.5 6q11 3 20 3q12 2 18 2q1 1 2 1q5 0 15 0.5t15 0.5q132 0 197 -1h111h48q48 1 96 0q71 0 106 -1q35 0 52 -1q8 0 26 -2q3 0 9 -0.5t9 -0.5q15 0 32 -5q19 -3 35 -9q16 -4 42 -19 q0 -1 1 -1t2 -1q16 -7 30 -24q18 -20 22 -27q11 -19 14 -33q2 -5 4.5 -13.5t3.5 -11.5l3 -18q0 -6 2 -16v-5v-13q0 -8 0.5 -25t1.5 -25v-15t1 -15q1 -7 1 -43q-2 -21 -1 -32q1 -14 1 -42q0 -6 -1 -17t-1 -16q0 -18 -1 -26t-1 -23.5v-23.5q0 -6 -2 -16q0 -6 -1 -9l-9 -36 q-3 -9 -11 -25q-3 -7 -17 -26q-5 -5 -11 -13q-7 -7 -23 -19q-14 -11 -52 -26q-15 -4 -20 -5q-9 -3 -27 -7q-10 -2 -15 -2q-8 -1 -25 -1t-25 -1q1 -1 1 -2l21 -30q4 -6 12.5 -18.5t12.5 -18.5t11.5 -17t10.5 -16q6 -9 9 -19h-22zM703 180h29q26 0 39 2q22 4 34 12q7 4 21 14 q23 19 26 50v5q0 5 2 15q0 5 0.5 17t0.5 18q0 63 -1 75q0 2 0.5 5t0.5 4q0 37 -1 44q-1 14 -11 27q-12 14 -19 21q-16 15 -31 17q-25 5 -29 5q-3 1 -7.5 1t-6.5 1q-4 0 -13 1t-13 1q-44 0 -53 -1q-6 -1 -18 -1h-131q-19 0 -29 -1h-1q-7 0 -21 -2q-9 0 -14 -2q-25 -5 -43 -16 q-17 -11 -26 -31q-4 -7 -6 -22q-1 -5 -1 -13q-2 -16 -2 -24l-1 -45q0 -45 1 -45q1 -9 1 -56q0 -8 1 -12q7 -22 20 -35l9 -9q2 -4 10 -8q8 -5 16 -8q2 0 5.5 -1t4.5 -2q5 0 15 -0.5t15 -0.5h21q105 0 127 -1q6 0 17 0.5t16 0.5h46z" glyph-name="q" unicode="q"/><glyph d="M907 245q20 -22 30 -32q5 -5 14.5 -15.5t14.5 -15.5q8 -8 22 -24t19 -21q30 -33 31 -34q23 -23 34 -35q13 -12 38 -37q17 -17 25 -26q0 -1 1 -2h-6h-52q-30 -2 -46 -1q-5 0 -15 0.5t-15 0.5q-4 0 -10.5 -0.5t-9.5 -0.5h-18q-26 1 -155 1h-13q-1 0 -3 -0.5t-3 -0.5h-6 q-4 0 -12 0.5t-12 0.5q-4 5 -14 15q-4 5 -12.5 15.5t-12.5 15.5q-4 4 -14 16q-3 4 -10.5 12.5t-11.5 12.5q-4 5 -12.5 14.5t-12.5 14.5q-1 1 -5 7q-4 7 -14 19q-3 3 -7.5 8t-6.5 8q-1 1 -3 3.5t-4 4.5q-3 3 -8 9.5t-8 9.5q-15 15 -24 28l-9 9q-1 1 -3.5 4t-5 5t-4.5 4h-6 h-124q-12 1 -35 1q-13 0 -19 -1v-1q-1 -1 -1 -2v-74v-21q-1 -4 -1 -11.5v-11.5q-1 -10 -1 -60q-2 -22 -2 -34q-1 -2 -1 -5.5v-6.5v-6q-2 0 -7 -0.5t-7 -0.5h-38h-25t-25 -1q-20 -1 -117 -1q-5 0 -15 -0.5t-14 -0.5q-9 0 -29 2h-11h-8q0 19 1 22v4v99q-1 27 -1 80v102 q-2 24 -1 35q1 22 1 64v63q-1 28 -1 83v82v43q0 2 0.5 5.5t0.5 5.5q1 1 2.5 2t2.5 2h5q16 1 49 1q8 1 26 -1l11 -1q10 0 10 1h9q31 0 46 1q10 0 30 0.5t29 0.5q48 0 72 -1q33 -1 65 0h10.5h12h9.5q19 -1 38 0q54 2 110 0h122t123 -1q8 0 24 -2h16q13 0 25 -3q35 -7 83 -30 q13 -7 26 -17q3 -1 8 -6q11 -11 33 -35q8 -10 12 -19l11 -22q5 -15 8 -26q1 -6 3 -17t3 -17q2 -10 2 -60q0 -2 -2 -8q-10 -38 -25 -68q-3 -5 -7 -15q-12 -25 -32 -45q-6 -5 -17 -16q-9 -7 -29 -17q-27 -14 -58 -22q-16 -2 -26 -4q-3 0 -5 -1zM374 420h6h86h6q10 2 31 2 q188 0 212 -1q1 0 5 0.5t5 0.5q2 0 6 1t6 1q24 4 33 29q3 7 1 22q-7 21 -24 30q-3 2 -16 6q-20 2 -24 2q-3 0 -11 0.5t-12 0.5h-10h-18.5t-23.5 -2h-40t-41 1q-8 1 -24.5 1h-24.5q-20 2 -38 0q-19 -2 -37 0q-2 2 -5 0q-10 0 -34 -2h-15v-5v-19v-44q-2 -12 1 -24z" glyph-name="r" horiz-adv-x="1206" unicode="r"/><glyph d="M92 2q0 4 -0.5 13t-1.5 13q-1 9 -1 51q1 18 1 106v5h5q21 0 31 -1h97q16 -1 49 -1h49h53t52 -1q20 0 30 -1t29 -1q9 0 27.5 -0.5t28.5 -0.5h44q1 0 2 -0.5t2 -0.5q7 -1 14 0q4 1 13 1q30 -2 47 -2q2 0 7.5 -0.5t8.5 -0.5q12 0 24 3q11 0 16 1q23 2 33 6q18 8 22 24 q2 6 2 8v12q-4 11 -22 15q-9 2 -25 4q-7 0 -21 1t-21 1h-16.5t-17.5 1q-12 1 -72 1h-136q-36 0 -54 2h-33.5t-33.5 1q-19 0 -28 1q-1 0 -3 0.5t-3 0.5q-6 1 -17 1l-21 3q-6 1 -16 3q-11 1 -35 9q-19 5 -40 20q-1 1 -4 3q-12 6 -31 23q-3 2 -5.5 5t-5.5 6l-5 5q-10 10 -17 28 q-12 30 -17 55q-1 3 -2 9.5t-2 9.5q0 7 -2 19q0 3 0.5 11t0.5 12v4q0 30 14 67q8 21 18 38q3 5 8.5 12t7.5 9q12 13 30 28q6 4 18 10q3 2 19 10q22 12 52 19q10 3 30 7l21 3q16 2 24 2q25 0 29 -1h8q34 -1 104 -1q7 -1 20 -1h21q11 -1 69 -1q3 -1 9.5 0t9.5 1h36q13 -1 33 1 h8q7 -1 7 0q7 1 43 1q5 0 14 -0.5t13 -0.5q13 1 77 1q4 0 13 1t13 1h3h7q40 0 60 -1q18 -1 48 -1h48q6 0 17 0.5t16 0.5h8q1 -8 0 -46t-1 -45q1 -31 1 -91q-1 -1 -4 -1h-22q-7 -1 -23 -1h-24q-9 -1 -55 -1h-101q-6 0 -18 1t-18 1q-21 0 -31 -1h-6h-81q-8 1 -24 1t-24 1h-27 t-27 1q-5 0 -15 0.5t-15 0.5q-18 2 -27 0q-2 -2 -4 0q-3 0 -8 -1t-8 -1t-12.5 -1.5t-14.5 -1.5h-24q-12 0 -21.5 -8t-12.5 -19q-2 -6 0 -14q2 -10 18 -16q3 -1 10 -1h62q5 0 21 -0.5t25 -1.5q31 -3 71 -1h13.5h15h12.5q46 0 69 -1q5 0 15 -0.5t15 -0.5q4 0 12 -1t12 -1h3 q14 0 27 -3h6h68q8 0 28 -2q9 -1 27 -5q29 -7 50 -16q11 -4 26 -13q5 -4 15.5 -10.5t15.5 -10.5q3 -2 8 -7q24 -26 26 -30q14 -19 20 -39q1 -4 3 -11.5t3 -11.5q4 -15 5 -25q2 -10 2 -60q0 -8 -1 -12q-1 -7 -5 -26q-4 -20 -8 -30q-12 -26 -28 -47q-12 -15 -27 -27 q-8 -8 -12 -11q-14 -16 -40 -26q-7 -3 -20.5 -8t-20.5 -7q-11 -4 -25 -4h-79q-7 0 -19.5 0.5t-18.5 0.5q-15 1 -45 1h-87q-48 -1 -145 -1q-7 -1 -45 -1q-4 0 -12 -1t-13 -2q-10 0 -15 -1q-18 -1 -54 -1q-10 0 -30 2q-2 1 -7 1t-7 1q-22 0 -32 1q-8 1 -44 1q-6 0 -26 -1 t-31 0q-7 0 -21 0.5t-21 0.5q-11 -1 -67 -1h-6z" glyph-name="s" horiz-adv-x="1175" unicode="s"/><glyph d="M1069 687q-1 -1 -1 -6q0 -11 -0.5 -32.5t-0.5 -32.5v-83q0 -13 -1 -20q-4 -1 -8 0h-7h-123q-19 -1 -57.5 -1h-57.5q-10 0 -28 -2h-1h-32q-10 1 -29 1h-5v-2v-67q0 -3 1 -10.5t0 -11.5q-1 -7 -1 -41q1 -29 1 -78.5v-78.5q-1 -9 -1 -52q-3 -40 -1 -90q1 -21 1 -63v-3 q1 -3 -1 -12h-23q-12 -2 -34.5 -2h-27.5q-31 0 -93.5 0.5t-93.5 0.5q-4 0 -10 -0.5t-9 -0.5t-6 1v17q-1 9 -1 55q-2 16 -2 25q-1 1 -1 4q0 39 1 59q1 11 1 33.5v33.5q0 9 2 27q0 19 -1 23v13l1 16q0 16 -1 16v51q0 5 0.5 14t0.5 13q-1 13 -1 36v36q-1 7 -1 21q0 8 1 11v5 q-2 0 -6 0.5t-6 0.5q-10 1 -32 1q-61 0 -91 1h-52q-20 0 -30 -1q-15 -2 -45 -2q-14 -1 -43 -1q-5 0 -15 0.5t-15 0.5q-2 0 -10 2q0 4 -2 14v28t-1 28v19q0 28 -1 41v16q2 14 2 21v13q4 1 20 1q5 -2 16 -2q35 0 53 1h12t12 1q27 3 62 1q19 -1 51.5 -1h51.5q5 -1 17 -1h17 q10 -1 59 -1q5 0 14 0.5t13 0.5t13 0.5t14 0.5q12 1 36 1q6 0 18.5 -1t18.5 -1q34 0 41 1h6h104h17h26h12h80q7 0 19 0.5t18 0.5h52.5t53.5 -1q12 -1 35.5 -1h34.5v-5z" glyph-name="t" horiz-adv-x="1139" unicode="t"/><glyph d="M848 696q1 -1 3 -2l1 -1h32h89q11 0 17 -2h23q2 0 9.5 -0.5t11.5 -1.5h9h57q1 0 3.5 -0.5t3.5 -0.5q1 -2 1 -4v-165q0 -10 -1 -15q-1 -3 -1 -11v-78q0 -17 2 -25v-8v-77q0 -3 -0.5 -10.5t-0.5 -11.5q-2 -21 1 -31v-11v-58q0 -5 -2 -32q-1 -7 -5 -16q-12 -29 -28 -56 l-1 -2q-1 -1 -11.5 -13.5t-16.5 -17.5q-20 -18 -46 -29q-20 -8 -58 -16q-22 -5 -55 -5h-215h-76h-38h-5q-5 2 -23 2h-203q-10 0 -15 -1q-3 -1 -9 -1h-36q-5 0 -13 2l-18 3q-4 0 -10 2q-5 2 -16 4t-17 4q-8 3 -16 9q-2 2 -13 9t-16 11q-6 3 -11 8q-13 16 -29 32q-5 6 -10 18 q-11 25 -19 55q-2 12 -2 17v66q0 10 -1 15q-1 3 -1 9v84q0 11 -1 16q-1 1 -1 9v42v7q2 6 2 17q0 22 2 33v8v68q0 17 -1 25q-1 10 -1 29v26q0 12 -2 18v7v13q-1 7 3 23q3 1 10 1h61h49q4 0 16 2h14q8 -2 24 -2h27q10 0 15 2h7q13 0 19 2h3h43q2 1 8 -2q1 -2 1 -14v-165 q0 -17 2 -25v-8v-61v-102q0 -7 0.5 -23t0.5 -23v-6q2 -5 2 -15t2 -15q1 -8 8 -16q21 -19 47 -30q7 -3 21 -5h46q3 0 9 -0.5t9 -0.5h32q1 0 5 0.5t6 0.5h54q1 0 4 0.5t5 0.5q10 3 22 1q10 -2 14 -2h25q13 0 20 2h6q13 0 28 5q3 1 10 2.5t11 2.5q11 2 25 13q6 5 15 23 q2 6 4 18q1 5 2 15.5t2 15.5q1 7 1 21q-1 64 -1 193v120q0 10 -1 15v8q-1 18 -1 53q0 1 0.5 2.5t0.5 2.5q1 0 5 1t5 1t3 2h28z" glyph-name="u" horiz-adv-x="1179" unicode="u"/><glyph d="M35 693h39h24q10 0 15 -2h8h81h3q13 2 61 2h118h12q16 -27 17 -29q5 -10 17 -28q8 -11 13 -20q18 -30 26 -39q13 -18 21 -34q7 -15 23 -43q10 -18 32 -52q21 -31 23 -36l3 -6q9 -13 26 -38.5t25 -38.5q2 -3 6 -9.5t6 -10.5q2 -3 4 -9l1 -2q1 -1 1 -2l3 2q11 15 31 45 q2 5 7 12.5t6 9.5l27 42q6 9 16 27q5 9 15.5 25.5t15.5 24.5t15 26q3 5 9 15.5t9 15.5l27 42q22 34 32 51q4 8 12 22t10 18q1 2 4.5 6.5t4.5 6.5q5 4 12 4h68h98h60q1 0 4.5 0.5t5.5 0.5h18q2 0 5.5 -0.5t5.5 -0.5h68q4 -1 12 -1q0 -1 -0.5 -2.5t-1.5 -2.5q-4 -7 -13 -21.5 t-14 -22.5q-13 -18 -14 -20q-11 -19 -35 -55q-2 -2 -3.5 -4.5t-3 -5.5l-2.5 -5q-5 -9 -13 -20q-3 -5 -11.5 -18.5t-13.5 -20.5q-10 -18 -16 -27q-2 -4 -4 -7q-24 -44 -27 -50q-6 -10 -18 -30.5t-18 -30.5q0 -1 -3 -4.5t-4 -5.5q-9 -14 -17 -25q-11 -20 -31 -47l-24 -39 q-9 -14 -25 -42q-2 -3 -6.5 -9t-6.5 -9q-36 -54 -53 -81q-2 -3 -16 -25q-6 -10 -10 -14q-9 -11 -30 -43q0 -3 -2 -3l-1 -1q-8 0 -21 -1t-23.5 -1.5t-19.5 -0.5q-16 2 -24 2h-113h-77q-18 0 -27 -1q-3 -1 -24 -1q-1 1 -2.5 3.5t-2.5 3.5l-33 51q-6 10 -10 18q-4 10 -9 16 q-2 4 -6.5 11t-6.5 10q-11 19 -24 36q-7 9 -8 13q-1 5 -5 11t-21 30.5t-26 37.5l-18 27q-3 4 -6.5 10.5t-5.5 8.5q-6 11 -18 31q-6 9 -16 29q-15 31 -31 54l-18 30q-1 2 -3 5.5t-4 5.5q-13 18 -24 41q-1 1 -2.5 3.5t-2.5 3.5q-11 17 -33 53q-31 48 -46 67l-36 51 q-14 17 -22 36z" glyph-name="v" horiz-adv-x="1276" unicode="v"/><glyph d="M1082 -6q-2 2 -4 2h-24h-53h-44q-4 4 -5 7q-2 5 -7 15.5t-8 15.5q-24 47 -27 53q-1 2 -3 5.5t-3 5.5q-15 33 -19 40q-1 2 -4 7t-4 8q-12 26 -17 39q-3 6 -7.5 17t-8.5 20t-8 17q-10 18 -28 54l-1 1q-1 1 -1 2l-2 -1q-1 0 -1 -1q-1 -3 -3.5 -9t-3.5 -9q-7 -23 -20 -47 q-9 -18 -25 -52q-4 -9 -23 -50q-2 -3 -4.5 -10t-3.5 -10q-3 -4 -4 -8l-45 -90q-2 -4 -6.5 -11t-5.5 -9h-5h-52q-15 0 -23 2q-6 1 -19 1h-39q-10 0 -30 -0.5t-30 -0.5t-14 -1q-2 -1 -5 -1h-78h-1q-1 1 -2 1q-4 2 -6 8q-18 31 -30 66l-27 57q-28 59 -29 61q-2 4 -6 14t-6 14 q-6 19 -15 35q-15 31 -26 56q-12 28 -22 49q-5 13 -7 16q-2 5 -6.5 15t-6.5 15q-24 51 -29 64q-4 10 -7 14q-11 24 -22 50q-1 3 -3.5 7.5t-4.5 8.5l-4 8q-4 9 -11.5 26.5t-11.5 25.5q-4 7 -11 20.5t-10 20.5q-6 13 -20 39v3h1q1 1 2 1h63q2 0 8.5 1.5t8.5 -0.5q3 -1 17 -1 h67h31h53q10 0 15 1q3 1 8 1h39q3 0 10 -1t10 -1q2 -2 4 -6q1 -1 1 -2q24 -48 34 -73l21 -48q7 -13 18.5 -39t14.5 -31q5 -10 25 -55q6 -15 18 -43l6 -12q2 -1 4 2q1 2 6 13.5t9 17.5q17 32 28 60l18 39q4 7 10 21q1 2 2.5 6.5t3 8t3.5 6.5q4 10 26 56q3 7 9 21.5t8 19.5 q1 4 4.5 12.5t5.5 12.5q1 3 5 7q1 1 3 1q26 2 39 2q1 0 5 -0.5t5 -0.5q2 0 5.5 -0.5t5.5 -0.5h76h32q2 0 4 0.5t3 0.5q3 1 9 1h105h6q1 -1 2 -2.5t2 -2.5l3 -6q8 -19 26 -59l3 -6q9 -15 20 -42q2 -5 4.5 -10.5t5.5 -12t5 -10.5q20 -38 32 -72q2 -3 4.5 -8t3.5 -8 q10 -20 28 -62q3 -6 4 -6q4 4 7 10q3 7 10.5 23t11.5 24q5 10 13 27t11 23l51 114q1 2 2.5 4.5t2 4t1.5 3.5l2 4q6 14 8 21q21 48 24 53q1 0 3 0.5t3 0.5h45q12 0 18 -2h8q71 0 107 -1q15 0 23 -1q10 -1 30 -1q15 0 22 -1q3 -1 9 -1h56q5 0 7 -2q-4 -10 -7 -16q0 -1 -1 -3 t-1 -3q-6 -10 -28 -60q-25 -54 -27 -61q-5 -14 -17.5 -41.5t-18.5 -41.5q-3 -8 -11 -24q-5 -10 -13 -28.5t-11 -24.5q-5 -13 -32 -71q-10 -21 -17 -40q-3 -7 -9 -20.5t-9 -19.5q-5 -13 -7 -16q-7 -19 -22 -47l-3.5 -7t-4.5 -7q-6 -10 -14.5 -27.5t-11.5 -23.5q-3 -7 -11 -21 t-11 -22q-2 -6 -7.5 -19t-8.5 -20l-12 -24h-8h-91q-8 0 -9 -2h-68z" glyph-name="w" horiz-adv-x="1613" unicode="w"/><glyph d="M1443 690q-27 -23 -45 -38q-8 -6 -22 -18q-6 -6 -7 -6q-2 -1 -29 -23l-18 -15q-16 -14 -24 -20q-12 -10 -19 -14t-16 -13q-1 -1 -5.5 -4.5t-8.5 -4.5q-2 -1 -5 -4q-10 -10 -15 -14q-12 -14 -30 -25q-1 -1 -11.5 -9.5t-16.5 -12.5l-66 -48q-18 -14 -26 -21l-12 -9 q-14 -12 -20 -17q-10 -7 -30 -23q0 -1 2 -3q6 -5 19 -14.5t20 -13.5q23 -17 25 -19q10 -9 27 -19q18 -12 27 -19q9 -5 16 -11q4 -3 36.5 -26.5t49.5 -37.5v-1q8 -5 22.5 -15t21.5 -15q3 -3 9.5 -7.5t11.5 -8.5t9 -8q3 -3 23 -18q5 -4 21 -16.5t25 -19.5q6 -5 18 -14.5 t18 -14.5q17 -13 28 -23l30 -24q2 -2 3 -4q-2 -1 -6.5 -1h-6.5q-22 -2 -63 -2h-50h-114h-61q-16 0 -19 1h-3q-3 0 -9 -0.5t-9 -0.5h-103h-4q-12 7 -23 17q-19 15 -25 20q-3 2 -5.5 5t-6 6.5l-5.5 5.5q-4 4 -14 12q-11 7 -41 32q-5 6 -7 6q-3 2 -53 38l-3 3q-5 6 -44 37 q-3 2 -12 8.5t-14 10.5q-2 0 -5 -3q-24 -19 -26 -20q-4 -3 -31 -25q-9 -8 -26 -23t-26 -22q-1 -1 -3 -2.5t-3 -2.5q-3 -2 -8 -6t-8 -6q-6 -5 -18 -14.5t-18 -14.5q-4 -3 -46 -34q-3 -2 -35 -26l-4 -2h-451q2 2 6 5t6 5q9 7 49 35l45 36q2 1 4 3q10 6 28 19.5t21 15.5 q4 2 22 18q2 1 6 5q7 4 37 26l12 9q9 5 35 26q16 13 17 14q30 19 57 42l18 15q27 22 29 23q18 15 39 27q7 5 19 14.5t16 12.5q8 6 11 9q-25 24 -47 37q-11 6 -24 19q-3 2 -9.5 7t-9.5 8q-10 7 -30 20.5t-30 20.5q-17 15 -20 18q-18 16 -28 23q-7 4 -19 14q-6 5 -17.5 14 t-17.5 13q-10 8 -30 22q-7 6 -20 15.5t-19 14.5q-18 15 -34 24l-15 12q-8 6 -13 11q-11 7 -19 16l-24 18q-4 4 -5 7h6h12q4 -1 11 -1h47q9 -1 26.5 0t22.5 1q13 1 38 1q2 0 6 0.5t5 0.5q5 -1 16 -1q4 -1 13 -1h13q18 0 21 -1h9h39q11 0 17 1q7 1 22 1q19 0 24 2h17.5 t17.5 -2h7q21 0 31 2q2 0 5.5 -0.5t5.5 -0.5q2 -1 5 -1.5t5 -0.5q14 -8 31 -23q10 -9 30 -25q7 -6 21 -16q4 -3 12.5 -10t12.5 -11q5 -3 13.5 -10t12.5 -11q9 -8 27 -22t27 -22q7 -5 21 -17l12 -9q9 6 25.5 19t24.5 20q3 2 8 5.5t7 5.5q15 11 25 20q7 5 21 17q8 8 24.5 21 t22.5 18q9 8 26.5 22t20.5 16q2 1 4.5 4t5 5t5.5 3q43 1 86 0h5q7 -2 20 -2q41 1 122 1q8 0 26 2l13 -1q14 0 14 1q14 2 21 2h5q7 -2 34 -2q61 0 91 -1h8z" glyph-name="x" horiz-adv-x="1549" unicode="x"/><glyph d="M606 -6q-1 2 -5 2h-40q-11 0 -16 1q-2 1 -2 7v47v76q0 17 1 21q1 2 1 7v33q0 5 -2 15q-1 5 1 15q1 9 -6 18q-12 12 -24 20q-6 6 -20 17t-20 16q-3 3 -10 9.5t-11 9.5q-3 3 -9 8.5t-9 8.5t-9 11q-5 7 -11 10q-19 15 -53 49q-2 2 -5.5 5t-5.5 4q-36 31 -40 35q-2 2 -6 5.5 t-6 5.5q-7 6 -21 20q-5 5 -15 13.5t-13 10.5l-5 5l-63 57q-9 8 -15 15q-7 7 -21 19q-6 6 -16 14q-19 15 -38 32q-3 3 -9 8.5t-9 8.5t-13 11.5t-16 12.5q-4 3 -10 11h10h15t15 1q13 1 36 1.5t30 0.5h121q2 0 6 0.5t6 0.5q17 1 35 0q1 0 4 -0.5t5 -0.5q64 -1 129 0h21 q1 -1 3 -2l1 -1q28 -29 84 -85l51 -51q7 -7 20.5 -19t18.5 -16q1 -1 9 -8t13 -11q18 -12 27 -19q6 4 9 7q7 5 19 17q15 16 45 46q5 5 15.5 16t15.5 16q28 25 29 26l2 2q9 9 29 27q5 5 16 15t16 15l2 2q2 3 4 4q8 6 14 14l4 4q5 1 11 0q7 -3 23 -1q1 1 4 1.5t4 0.5q12 0 18 2 h8h46q9 0 14 -1q3 -1 10 -1h86h4q7 2 34 2h163h13q-2 -2 -2 -3q-9 -5 -24 -20q-18 -18 -28 -27q-3 -3 -9.5 -10t-10.5 -11q-14 -11 -38 -35q-7 -6 -19 -20q-26 -23 -49 -46q-6 -5 -17 -15.5t-17 -15.5q-12 -11 -36 -31q-5 -5 -16.5 -14t-17.5 -13q-3 -3 -13 -11 q-11 -8 -33 -28q-12 -10 -35 -33l-18 -15q-12 -12 -19 -17l-42 -39q-52 -46 -53 -47q-5 -4 -13 -12v-20q0 -4 -0.5 -10t-0.5 -9q0 -25 0.5 -74.5t0.5 -73.5v-33q-1 -4 -1 -11q-2 -3 -5 -3h-52q-12 0 -18 2h-10h-36q-23 0 -29 -2h-18q-2 0 -4 -2h-64z" glyph-name="y" horiz-adv-x="1388" unicode="y"/><glyph d="M177 -6q-1 0 -1 0.5t-1 0.5q-2 1 -5 1h-87h-6q-4 5 -4 15v45v52q-1 1 -1 2v2q-1 6 -1 49q1 4 7 8q26 14 38 21q4 2 19 11t24 14q20 12 31 17q5 4 16 9.5t17 9.5q5 3 11 7q3 2 8 5t7 5q8 6 22 16q10 9 25 17q20 12 25 17q3 2 55 35q4 2 19.5 11.5t23.5 15.5q10 7 30 19 q6 4 22.5 14t24.5 16q2 2 3 2q11 6 47 31q7 4 20 12.5t19 12.5q8 6 20 16q1 2 1 3q-2 0 -5 0.5t-4 0.5h-38q-21 0 -25 1h-8h-27q-25 0 -31 -1q-9 -1 -29 -1h-129h-30q-14 0 -20 -1q-4 -1 -22 -1h-79q-24 0 -35 1q-8 0 -11 -1q-3 0 -9 -2q-2 2 -4 2v1q-1 1 -1 2q0 3 -0.5 12 t-1.5 14v7q1 4 1 35q-1 5 -1 31q0 8 1 13v10q1 17 1 50v7q1 4 7 4q9 1 26 1h40q15 0 18 1h3q5 -1 29 -1h27q15 2 42.5 2h33.5q4 0 14 -2h12h192q1 0 4.5 0.5t5.5 0.5q1 0 4 0.5t4 0.5h78q8 0 12 -1q3 -1 9 -1h97h196h88q5 0 17 -2q6 -1 18 -1h9q1 -1 1 -3v-16.5v-19.5v-17 q-1 -11 -1.5 -31.5t-0.5 -27.5q0 -16 2 -25v-16q-4 -4 -7 -5q-18 -10 -35 -26q-1 -1 -3.5 -2.5t-3.5 -2.5q-8 -6 -24 -16l-30 -18q-13 -8 -37 -24q-3 -2 -8 -5.5t-7 -5.5q-5 -4 -14.5 -11t-14.5 -10q-45 -30 -66 -41q-13 -8 -39 -26q-6 -4 -17 -11.5t-16 -11.5 q-22 -17 -54 -37q-36 -22 -55 -33q-5 -3 -16 -9t-17 -10q-4 -3 -13 -9.5t-14 -9.5q-7 -6 -34 -26q-1 0 -2 -1l-2 -2q5 -1 13 -1h224q2 0 6 0.5t6 0.5t5 0.5t5 0.5h75q10 0 16 2h10h141q19 0 29 1h18q3 -2 3 -6q0 -17 1 -26q0 -3 1 -4v-47v-1q-1 -1 -1 -2q-1 -3 -1 -10v-84 q0 -5 -2 -7h-3h-100q-4 0 -7 1q-5 1 -15 1h-60h-8q-7 -2 -21 -2h-202q-2 0 -6 0.5t-5 0.5q-2 0 -6.5 0.5t-6.5 0.5t-6 -0.5t-7 -0.5q-2 0 -6.5 -0.5t-7.5 -0.5h-125h-27h-57q-26 0 -39 1q-8 3 -16 0q-2 -1 -6 -1h-41q-2 0 -5.5 0.5t-4.5 0.5h-14q-29 -1 -87 -1q-6 0 -8 -1 q-1 0 -1 -0.5t-1 -0.5h-30z" glyph-name="z" horiz-adv-x="1180" unicode="z"/><glyph d="M556 15q1 -10 1 -102.5t-1 -105.5q0 -1 -5 -1h-24q-13 0 -20 -2h-14q-22 -1 -66 -1q-9 0 -13 -1q-3 -1 -8 -1h-60q-3 0 -4 1q-2 1 -17 1q-17 0 -30 4q-2 1 -7 1q-22 2 -39 13q-3 2 -16 10t-19 13q-12 8 -20 18q-13 14 -19 24q0 4 -3 5q-8 8 -15 24q-4 10 -10 20 q-10 19 -22 61q-1 4 -3 12.5t-3 12.5q-2 16 -4 23l-3 33q-1 9 -1 111v22v26.5v22.5v6q-7 9 -24 11l-15 3l-2 1v1v160q0 2 1 2q0 1 1 2q2 1 15 4.5t19 7.5l4 8v33v65.5t1 64.5q0 16 1 19v12q0 5 0.5 10.5t1.5 13t1 11.5q1 3 2.5 10t2.5 11q0 5 3 11q3 8 8.5 24t6.5 20 q3 10 11 28q0 1 2 3q7 17 29 47q8 12 18 20q32 27 58 39q15 7 29 8q1 0 22 3h2q4 0 12 1t14.5 1.5t12.5 0.5q32 1 97 1q15 0 23 1q9 1 28 1h44q9 0 14 -5v-52.5t1 -51.5q0 -68 -3 -103q-2 -3 -5 -3h-20h-16q-8 0 -24 -2l-18 -3t-18 -4q-25 -8 -41 -27q-10 -11 -15 -32 q-1 -3 -1 -10q0 -2 -0.5 -9t-1.5 -11v-11q0 -35 -1 -53v-87q0 -18 -7 -41q-6 -15 -18 -27q-15 -17 -22 -21q-6 -4 -9 -7l4 -2q5 -2 15 -8q16 -12 23 -20q17 -19 17 -43q0 -42 -1 -62v-9q0 -2 -0.5 -6t-0.5 -6q0 -78 -1 -117q0 -4 2 -12q0 -1 3 -14q5 -12 8 -16 q22 -25 56 -33h13h30q3 0 8 -0.5t8 -0.5q11 -2 22 0q7 1 15 0z" glyph-name="braceleft" horiz-adv-x="627" unicode="{"/><glyph d="M370 -158q-3 0 -8 0.5t-8 1.5h-11h-44q-13 1 -38 1q-29 0 -43 -1q-11 -1 -64 -1h-64q-1 0 -4.5 -0.5t-5.5 -0.5h-8v3q-2 27 -1 41q1 21 1 55v55q0 5 0.5 14.5t0.5 13.5q0 8 -0.5 25t-0.5 26v10q0 1 -0.5 5t-0.5 6v7v103v119q0 40 1 61q1 18 1 110v40q1 13 1 79 q0 38 -1 57q-1 13 -1.5 36.5t-0.5 31.5v13q0 67 1 101q0 2 0.5 6.5t0.5 6.5q2 0 8 1t9 0h13q3 0 9 -0.5t9 -0.5q29 0 43 -1q32 -2 47 -1q12 1 73 1h23h27h23q10 0 13 -3q1 -3 0 -7v-14v-19v-8q0 -60 -1 -90v-52q0 -39 1 -47v-34t1 -34v-67v-68v-38q0 -9 -0.5 -27.5 t-1.5 -27.5q-1 -27 -1 -71.5v-71.5q0 -11 -0.5 -33t-0.5 -33q1 -13 1 -39t1 -39q1 -11 1 -32.5v-32.5v-5v-6v-5v-103v-17z" glyph-name="bar" horiz-adv-x="441" unicode="|"/><glyph d="M72 -184v6q0 46 -1 69v113v21h5h17q7 0 22 0.5t23 0.5h13q26 -1 52 15l15 12q13 13 14 25q0 2 1 4.5t1 3.5q2 10 2 15v114q-1 26 -1 78v1q-4 34 24 58q2 1 6.5 4.5t6.5 5.5q6 6 18 10l4 2q-8 6 -10 7q-11 7 -28 28q-15 19 -18 47q-1 9 -1 24v23q-1 19 -1 112q0 5 -1 14.5 t-1 14.5t-7 26q-3 6 -8 11q-16 21 -39 28q-4 1 -11.5 2.5t-11.5 2.5q-5 1 -13 3q-12 2 -38 2h-4q-22 0 -26 1q-1 1 -1 2q0 21 -1 31q-1 12 -1 67v71q0 7 0.5 20t0.5 19q2 2 11 4q7 1 45 1q8 0 26 -2h3q11 -1 34 -1.5t34 -0.5l25 1q26 0 26 -1q5 0 15 -1t14 -1q1 0 3 -0.5 t3 -0.5q7 0 21 -2q3 -1 10 -1q12 -1 25 -7q26 -13 29 -15q26 -18 38 -29q3 -3 7 -9q9 -12 20 -28l9 -15q2 -5 6.5 -14.5t6.5 -14.5q9 -23 14 -41q4 -10 10 -30q1 -3 1.5 -6t1 -6.5t0.5 -5.5q2 -14 4 -21v-3q0 -10 0.5 -31t0.5 -32v-43v-43v-33q0 -4 0.5 -11.5t0.5 -10.5 q2 -8 10 -12q1 -1 29 -9q0 -1 0.5 -3t0.5 -3v-88q-1 -18 -1 -54q0 -3 0.5 -9t0.5 -9q-2 -1 -5 -1t-4 -1q-8 0 -22 -4q-6 -1 -10 -7v-6v-116q0 -4 0.5 -12.5t0.5 -13.5q0 -12 -2 -34v-8q0 -16 -5 -38q0 -6 -2 -18q-9 -35 -14 -49q-2 -8 -4 -11q-1 -4 -4 -10t-4 -10 q-5 -11 -17 -33q-1 -3 -4.5 -8t-4.5 -6l-6 -9q-18 -30 -44 -44q-8 -6 -11 -8q-13 -9 -28 -17q-7 -4 -23 -6q-7 0 -16 -3q-10 -2 -17 -2h-8t-7 -1q-8 0 -26 -2h-10h-32q-3 0 -9.5 1t-10.5 1h-5h-65q-4 1 -12 1t-12 1q-3 0 -7 0.5t-6 0.5h-30z" glyph-name="braceright" horiz-adv-x="629" unicode="}"/><glyph d="M272 183q-3 -1 -27 2q-35 10 -64 14q-33 7 -44 10q-6 1 -17.5 5t-16.5 5q-3 1 -11 3t-11 3q-7 2 -10 7q-1 2 1 8l12 42q1 7 5 14q15 36 33 61q5 7 19 19q4 3 13 10.5t13 11.5q9 5 27 17q26 14 40 19q22 6 41 9q17 2 50 0q10 0 30 -4q14 -2 42 -8q9 -2 25.5 -5.5 t23.5 -5.5q10 -2 28.5 -6.5t21.5 -5.5q7 -1 20.5 -4.5t20.5 -5.5q23 -5 39 -4q14 2 19 6l9 6q5 2 8 7q2 4 5.5 10t5.5 9q7 9 10 11q3 1 15 -1q4 -2 22 -4q2 0 9 -1.5t11 -2.5q5 -1 32 -9q42 -13 59 -16q19 -3 32 -7q10 -2 11 -5t0 -7q-2 -5 -5.5 -14.5t-5.5 -14.5 q-1 -5 -4 -14.5t-5 -14.5q-18 -50 -23 -59q-7 -12 -8 -13q-24 -26 -38 -38q-11 -8 -26 -15q-6 -4 -34 -15q-22 -7 -39 -8q-6 -1 -17.5 -2.5t-16.5 -1.5q-9 -1 -27 -1q-9 1 -19 3t-21.5 5t-18.5 4q-18 4 -28 6q-2 0 -8 2q-4 1 -13 3.5t-14 3.5q-4 1 -11.5 2.5t-11.5 2.5 l-36 9q-23 5 -27 5q-3 1 -9 2t-9 2l-15 3q-7 2 -18 -3q-22 -11 -36 -33q-1 -2 -2.5 -4.5t-2.5 -4.5l-2 -2t-1 -2z" glyph-name="asciitilde" horiz-adv-x="895" unicode="~"/><glyph d="M70 24v106q3 1 3 5v35q0 12 1 15q1 5 1 16v46q0 40 2 51v2q2 10 4 26q1 4 2 12.5t2 12.5q0 2 0.5 6.5t0.5 6.5q3 9 3 20q0 7 1 14t2.5 16t2.5 14q1 2 1 6q0 5 1.5 15.5t1.5 12.5q4 17 5 28l2 1h58q2 0 6 -0.5t5 -0.5h3t3 -1h34q1 0 5 -0.5t5 -0.5q2 0 6.5 -0.5t6.5 -0.5 h34.5t35.5 1q5 1 30 1q4 0 6 -2l3 -18q0 -1 3 -23q2 -15 6 -43q1 -9 3.5 -28t4.5 -28q0 -5 2 -13q2 -20 3 -29v-4q4 -20 4 -31q1 -104 0 -207q0 -5 -1 -7q-3 -8 -1 -16v-32q0 -1 -0.5 -2.5t-0.5 -2.5q-10 0 -14 -1q-8 -3 -18 -1q-6 1 -37 1q-3 0 -8 -0.5t-7 -0.5 q-11 -1 -31 -1q-25 0 -38 2h-88h-31q-2 0 -7 1t-8 0q-6 0 -10 4v14zM370 556h-14q-25 0 -77 -0.5t-78 -0.5h-3h-4h-3q-3 -1 -18 -1q-26 -2 -50 0h-9q-2 1 -14 1h-21q-4 0 -6 2v4v29q0 2 1 3q1 3 1 16v74v11q5 3 8 2t10 -1h74h6q5 2 15 2h28q26 0 31 -1q9 -1 28 -1h86 q1 0 4 -0.5t4 -1.5q0 -1 0.5 -1t0.5 -1q0 -87 1 -131l-1 -2v-2z" glyph-name="exclamdown" horiz-adv-x="444" unicode=""/><glyph d="M666 405q-1 3 -2 11.5t-3 12.5q-8 20 -16 26q-1 1 -2.5 2t-2.5 2q-20 10 -31 13q-3 1 -10 1q-2 -2 -2 -6v-21v-123q-2 -19 -2 -87v-11q2 -3 5 -3q5 0 7 1t7.5 2.5t8.5 2.5l9 6q8 5 13 10q15 12 18 28q1 2 2.5 7t1.5 8q3 2 10 2h61h119q1 0 6 -0.5t8 -1.5q2 -1 8 -1h13 q3 -2 3 -6v-63q0 -5 -2 -13q-3 -17 -7 -28q-7 -17 -16 -30q-15 -21 -36 -40l-12 -6q-27 -15 -47 -18h-2q-1 -1 -2 -1q-8 0 -22 -2t-18 -2q-10 -1 -30 -1q-3 0 -10 0.5t-11 0.5q-9 0 -14 1q-6 2 -12 0q-3 -1 -19 -1q-11 -1 -33 -1h-5v-3.5v-3v-3.5v-3v-14v-12v-14v-14v-13 v-13v-13v-13q0 -8 -1 -12q-2 -2 -7 -2q-18 1 -53 1h-55q-2 0 -7 -1t-8 -1h-33q-5 1 -16 1h-28q-1 0 -5 -0.5t-6 -0.5h-8h-4q-1 15 -1 44v42q1 8 1 23v22h-8q-68 0 -101 1h-29q-41 7 -54 13q-5 3 -14 7t-12 5q-13 6 -30 19q-13 11 -31 37q-7 10 -9 23q-2 7 -4 23q-2 17 -2 50 v41q0 10 -1 15q-1 2 -1 7v109v23q0 5 1 7q1 5 1 16q0 28 15 61q1 2 3.5 6.5t3.5 6.5q10 16 17 22q16 16 31 27q19 9 23 11q29 12 52 12q4 0 7 1q9 2 14 -1q10 2 15 2h75q2 0 7 0.5t8 1.5h12q1 0 4 0.5t5 0.5q1 2 1 8q0 63 1 94q0 10 1 12q6 5 16 3q9 -1 25.5 -1.5t21.5 -0.5 h146h14q1 0 7 -2v-17v-17v-16v-16v-16v-17l-1 -8q0 -7 1 -7q3 -2 8 -2h90q11 2 33 2q12 0 15 -1q2 -1 5 -1q8 0 26 -4q12 -1 25 -8q5 -2 13 -6q5 -3 13.5 -8t12.5 -7q11 -7 21 -20q16 -18 24 -35q9 -17 10 -32q2 -24 2 -37v-51q-2 -2 -6 -2q-13 -1 -38 -1q-32 1 -96 1h-59 q-17 0 -25 -2h-5zM367 469q-24 -5 -41 -17q-4 -2 -10 -8q-9 -11 -10 -19q-2 -14 -2 -22v-85v-5q1 -3 1.5 -9t0.5 -8v-19q0 -2 0.5 -5.5t0.5 -4.5q4 -15 19 -28q9 -7 21 -12q7 -3 17 -1q1 2 1 8q0 90 1 136v18q0 2 0.5 6t0.5 6v59v10z" glyph-name="cent" horiz-adv-x="965" unicode=""/><glyph d="M510 256q-3 -11 -3 -19q2 -32 2 -49l1 -1v-1q1 -1 7 -1q49 0 74 -1h14h1q2 -1 3 -1q5 1 19.5 0.5t20.5 -0.5h41h40h81q7 0 11 1q3 1 8 1h72h70l3 -1q2 -1 2 -5q0 -9 0.5 -26.5t0.5 -25.5q0 -19 1 -23v-15.5t-1 -16.5q-2 -11 0 -23q3 -18 0 -37q0 -8 -1 -12q-1 -1 -7 -1 h-86h-90h-87q-36 0 -43 1h-8q-52 1 -156 1h-92h-42h-89h-51h-48q-14 0 -20 1q-2 2 -5 0q-9 -2 -20 0q-5 1 -16 1q-12 -2 -37 -2h-6q-2 3 -2 7v79q0 10 -1 15q-1 3 -1 10v38v5q2 5 2 24v1l1 2q1 0 2 0.5t2 0.5q3 0 10 0.5t11 0.5q11 1 32 1q2 0 6 -0.5t5 -0.5q10 0 15 1h41h6 q2 2 2 6v62v2q-1 1 -7 1h-50h-74q-2 2 -2 6v97q0 23 -1 27v6v8q-2 23 2 39q1 1 7 1h79h31q3 0 5 1q2 8 2 13q0 2 0.5 6t0.5 6q0 24 4 44v7q1 8 8 43q1 6 5 11q3 8 8 13q21 30 22 31q4 4 12 14q1 1 3 3.5t3 4.5q9 11 25 20q31 18 46 23q6 3 42 13h6q5 0 7 1q7 2 32 2 q13 0 37.5 -0.5t36.5 -0.5q19 0 57 0.5t57 0.5h71h9.5h12h10.5q17 3 40 1q4 0 12.5 -0.5t13.5 -0.5h72q18 0 21 1q2 2 5 0q7 -2 21 0q7 1 15 0q2 -1 6.5 -1.5t6.5 -0.5q2 -3 2 -13q1 -27 1 -81v-72q0 -9 -1 -14q-1 -1 -2 -1t-2 -1q-12 -1 -107 -1h-19q-2 0 -6 0.5t-6 0.5h-8 h-142q-11 -1 -65 -1q-23 -9 -39 -28l-15 -21q-6 -11 -4 -24q2 -1 5 -1h164q2 0 7 0.5t8 0.5q6 -1 37 -1h61h1q1 -1 2 -1q0 -1 0.5 -2t0.5 -2v-84v-85q0 -4 -1 -6l-1 -2q-4 0 -23.5 -1t-23.5 0q-1 1 -4 0q-13 -2 -41 0q-12 1 -38 1h-147h-9z" glyph-name="sterling" horiz-adv-x="1050" unicode=""/><glyph d="M879 43q-1 -8 -1 -21v-20q-2 -2 -10 -2q-20 0 -62 0.5t-63 0.5q-17 0 -26 -2q-3 -1 -20 -1h-101q-3 0 -8.5 1t-8.5 2v12v3v4v3v12q-1 4 -1 11q-2 1 -4 1q-3 0 -7 -0.5t-6 -0.5q-13 -1 -37 -1q-48 1 -144 1q-9 0 -14 1h-12q-5 0 -15 0.5t-15 0.5q0 1 -0.5 2t-0.5 2 q1 2 1 7v7q1 4 1 13q0 61 1 92q0 7 1 8q5 1 17 1h19h18h17h18h19h18h18h18h18h18h18h18h18q3 3 1 6q0 13 -1 20v22l-1 1v2l-1 1h-2q-5 -2 -16 -2h-38h-137q-13 0 -19 1q-3 1 -10 1h-31q-2 6 0 18q1 5 1 14q0 15 0.5 45.5t0.5 46.5v6q2 2 8 2h86q10 0 11 1q-1 1 -3.5 4.5 t-4.5 4.5q-6 4 -25 23q-5 5 -15 13q-42 37 -46 41q-3 3 -13 11l-3 3q-5 7 -16.5 16.5t-14.5 12.5q-11 9 -31 27q-30 27 -31 28q-7 6 -20 19q-24 24 -44 40q-11 9 -33 29q-6 6 -22 20q-8 6 -11 10q-6 4 -10 8q-12 10 -18 17q6 2 11 0q14 -3 27 0q2 0 5 0.5t4 0.5h56 q11 0 17 2h7h34q18 -1 36 0h94q9 0 13 -1q2 -1 7 -1h85h7q7 2 30 2q2 -2 4.5 -4t5 -5t3.5 -4q1 -2 3 -3.5t4 -3.5l3 -3q2 -1 5.5 -4t4.5 -5q15 -17 35 -36l1 -1q15 -17 39 -38q2 -2 6.5 -7.5t7.5 -8.5l42 -39q10 -8 28 -24q4 -4 10 -8q3 -3 10.5 -8.5t11.5 -8.5q2 0 4 -2 q1 0 1 1l2 1q3 3 13 11.5t16.5 15t11.5 13.5l6 6q40 40 60 61q1 1 4 3.5t4 3.5l27 24q4 4 11.5 11t11.5 10q2 1 6 5q21 21 32 31q10 10 15 16h4h78h97q105 0 157 1h12q12 1 25 0q7 0 11 1q24 0 35 -1q10 0 15 -1q0 -1 -1 -1l-1 -2q-5 -3 -14 -12l-22 -22q-4 -3 -12 -11 q-5 -3 -8 -8l-10 -10q-9 -7 -24 -22q-12 -12 -19 -18l-2 -2q-6 -8 -29 -29q-6 -5 -17 -16q-32 -30 -49 -46q-2 -2 -12 -10q-6 -5 -22.5 -18.5t-24.5 -21.5q-8 -6 -22 -17.5t-25.5 -21t-21.5 -18.5q-3 -3 -11.5 -10.5t-12.5 -12.5q1 -2 5 -2h56q33 0 43 -3v-1l1 -2 q4 -103 -1 -125q-1 -1 -5 -1h-27q-11 0 -16 -2h-8q-122 0 -183 -1q-9 0 -11 -2q-1 -7 -1.5 -23.5t0.5 -23.5h11h86q32 0 39 -1h10q14 0 41.5 0.5t41.5 0.5q3 0 11 -1t11 -2q2 -22 2 -32v-33v-32q0 -26 -1 -31q-3 -2 -6 -2h-25q-15 0 -18 -1h-8q-61 -1 -183 -1h-8z" glyph-name="yen" horiz-adv-x="1456" unicode=""/><glyph d="M368 360q-19 -1 -38 0q-22 0 -28 2h-8h-57q-13 0 -20 -2h-6h-67q-6 1 -18.5 1.5t-18.5 1.5t-17 1t-16 1h-2v7v6q0 38 0.5 114.5t0.5 114.5q0 25 -1 38q-2 17 -2 50v41v91l3 18q2 1 8 1h53q6 0 14 -2h30h90q14 0 42 0.5t42 0.5q2 0 6 -0.5t7 -0.5q3 -3 4 -5q1 -1 1 -3 q-3 -7 -1 -15q2 -9 0 -17v-17q-1 -58 -1 -175q0 -10 2 -15v-8v-219q0 -6 -2 -10zM368 -179q-10 0 -14 1q-1 0 -5 0.5t-6 0.5h-63h-58h-6q-6 -2 -26 -2h-116h-2q-2 3 -2 9q0 18 0.5 53t0.5 52v31q0 12 1 15v7v15q1 15 0 15q-1 10 -1 29t-1 28v35v150v41v1l1 2q1 3 5 3h14.5 h17h14.5q12 -1 33 -1.5t28 -0.5h54q12 0 18 -2h10h48q11 0 16 2h4h33q2 -1 2 -7v-85v-31q0 -4 -0.5 -15.5t-1.5 -17.5v-14v-58q0 -19 1 -23q1 -3 1 -8q0 -49 1 -74q0 -14 1 -22q0 -15 -1 -22v-10q-1 -30 -1 -90v-7z" glyph-name="brokenbar" horiz-adv-x="440" unicode=""/><glyph d="M373 -250q-2 2 -3 2h-12q-5 0 -10 0.5t-11.5 1.5t-10.5 1q-44 2 -65 1h-12q-3 -1 -9 -1h-25q-14 0 -17 1h-36q-3 -1 -8 -1h-55h-5l-2 4q-3 61 -2 73q0 2 0.5 7t0.5 7v10v79q0 1 0.5 3t0.5 3q1 2 5 2h29h6q7 -2 21 -2h137h132q9 0 14 -2h7q67 0 101 -1q14 0 16 -1h4h45 q6 0 20.5 -0.5t21.5 -0.5q13 0 20 -1t15 0q7 0 21.5 1.5t21.5 2.5q14 2 20 4q19 6 26 24q0 1 0.5 2.5t1.5 2.5v17q-7 11 -20 14q-33 5 -38 5q-6 0 -9 1h-8q-13 1 -39 1q-11 0 -16 1q-2 1 -11 1h-192q-33 0 -49 1h-5q-4 1 -22 1q-22 1 -65 1q-1 0 -4 0.5t-5 0.5 q-1 0 -3.5 0.5t-3.5 0.5q-11 -1 -29 3q-34 5 -41 7q-29 10 -37 14q-30 18 -43 29q-12 9 -22 19q-13 13 -19 29q-12 26 -20 61q-3 12 -3 25q-3 20 -2 24q0 2 0.5 6t0.5 6v7q0 19 9 50q14 36 25 53q1 1 1 2q1 2 1 3q0 2 -1 3q-12 15 -21 43q-1 6 -8 26q0 2 -6 29q-3 18 -1 55 q2 31 13 57q5 15 16 36q6 11 13 19q14 15 29 29q3 3 30 19q29 17 53 22q33 9 44 11q12 2 36 4q3 0 11.5 1t13.5 0q2 0 5.5 -0.5t5.5 -0.5q1 0 4 -0.5t4 -0.5h85h14h6q6 -2 26 -2h69h82q2 0 6 0.5t6 0.5t4.5 0.5t3.5 0.5h39h111q3 0 9.5 0.5t9.5 0.5q8 2 23 2q11 0 32.5 -0.5 t31.5 -0.5q10 -2 29 -2h23h52q9 0 13 1q1 1 5 1h16q2 -2 2 -6v-35v-134v-6q-2 -3 -6 -3h-61q-8 0 -12 -1q-3 -1 -9 -1h-143h-5q-12 2 -67 2h-91h-27q-11 0 -17 2h-9q-28 0 -41 1q-19 0 -29 1q-16 2 -25 -1h-8q-9 0 -14 -2h-3t-4 -1h-7q-7 -2 -34 -2q-9 0 -16 -3 q-17 -9 -20 -29q-1 -7 6 -18q10 -9 24 -7h52q18 0 23 -2h6q6 0 20 -0.5t21 -0.5h6q6 -1 52 -1q5 1 49 1q9 0 14 -1h10q20 -1 60 -1h6q3 -1 6 -1.5t6 0t6 -0.5q3 0 11.5 -0.5t13.5 -1.5q6 -1 18 -1h64q27 0 47 -5q32 -8 47 -13q23 -8 40 -20l27 -18q4 -2 10 -8q13 -13 18 -19 q21 -24 30 -55q6 -18 8 -32q3 -27 3 -28v-43q0 -10 -4 -32q-1 -4 -2.5 -12t-2.5 -12q-1 -2 -2.5 -7t-2.5 -7q-12 -26 -21 -37v-2q1 -1 1 -2q15 -17 24 -46q6 -22 9 -40q1 -2 1 -6q1 -37 0 -74q0 -5 -2 -15q-8 -46 -33 -78q-12 -14 -28 -29q-2 -3 -5 -5q-24 -26 -61 -41 q-6 -2 -15.5 -5.5t-12.5 -4.5q-18 -6 -34 -5h-68q-2 0 -6 0.5t-6 0.5q-1 0 -3 0.5t-4 0.5h-169h-122q-11 0 -17 -2h-9q-29 0 -43 -1q-8 0 -22 -2h-17q-3 0 -4 -2h-49zM775 250q-7 15 -23 13h-5h-78h-8q-6 2 -18 2h-42.5t-53.5 2q-12 1 -35 1q-12 0 -17 -1q-5 -2 -17 -2 q-5 0 -7 -1q-3 0 -7.5 -0.5t-6.5 -0.5h-6.5h-7.5h-6q-18 -2 -29 -13q-3 -4 -7 -14v-14q3 -10 14 -15q7 -3 17 -3h58h24q23 -1 34 -3h66h52h61q13 0 26 5q24 9 22 32v12z" glyph-name="section" horiz-adv-x="1174" unicode=""/><glyph d="M77 748q-2 1 -5 1l-1 2q-1 2 -1 7v108v57v7h9q7 -1 19 1h3h43q11 -1 64 -1h65h7v-5v-45q0 -20 -0.5 -61t-0.5 -62v-5h-3l-1 -1h-17q-38 0 -57 -1q-6 0 -18 -2q-6 -1 -18 -1q-1 1 -3 1q-19 0 -29 1q-9 1 -50 1q-5 0 -6 -2zM379 930q2 0 6 -0.5t6 -0.5q3 0 7 0.5t6 0.5h3 l2 1h14h16h13q11 -1 65 -1h64h7q0 -1 0.5 -2.5t0.5 -2.5q0 -30 -1 -46v-93q0 -20 -1 -30v-4q-1 0 -2 -0.5t-2 -0.5l-15 1q-15 0 -15 -1q-7 -1 -21.5 -1h-22.5q-3 0 -9 -1t-9 -1q-5 -1 -17 -1l-2 1h-2q-19 0 -29 1q-9 1 -50 1q-5 0 -6 -2q-2 1 -5 1q0 1 -0.5 1t-0.5 1v6v109 v57v7z" glyph-name="dieresis" horiz-adv-x="659" unicode=""/><glyph d="M423 693v-18v-26q1 -12 1 -32.5v-32.5v-6h-5h-44q-17 0 -51 -2q-5 0 -13 -2t-11 -2q-13 -2 -21 -7q-21 -11 -36 -30l-2 -4t-2 -4.5t-2 -3.5q-6 -17 -9 -33q0 -7 -0.5 -20t-1.5 -20v-21.5t-1 -21.5q-1 -13 -1 -80v-33q1 -14 1 -44q1 -5 1 -13.5t1 -12.5q3 -32 4 -37 q5 -21 15 -33q17 -22 43 -32q8 -2 13 -2q12 -3 33 -5q16 -1 41.5 -1h41.5h5q1 -16 0.5 -57t-0.5 -57l-3 -1q-10 -2 -15 -2q-31 0 -46 1h-13q-15 0 -44.5 -0.5t-44.5 -0.5q-11 0 -29 2h-6q-4 1 -11.5 2t-8.5 1q-10 2 -14 3q-30 12 -49 25q-4 3 -11 10l-9 9q-15 15 -26 37 q-9 17 -14 32q-1 3 -2.5 9.5t-2.5 9.5q-2 16 -2 23q-2 26 -1 38l1 8q0 7 -1 7v36q0 21 -1 31v14v28v40v29v14q0 19 1 29v27v17v11v14q0 24 1 36q2 16 4 23q9 32 27 61q4 7 29 34q11 9 20 13q5 3 16 8t16 7q7 4 24 6q6 0 16 2h4q48 3 85 2h18q4 -1 13 -1h12q6 1 19 1h30 q12 -2 18 -2zM624 114h35h32q5 0 16 1t17 1q5 0 13 2t11 2q12 2 22 7q21 13 34 30q2 2 7 13q7 17 8 33l3 39q0 29 1 43q2 53 0 106q0 34 -1 52q0 16 -1 24q-2 30 -5 39q-6 23 -14 32q-19 22 -43 32q-2 0 -6.5 1t-6.5 2q-11 2 -33 4q-16 1 -42.5 1h-42.5h-4q-1 22 0 61.5 t1 52.5h1l2 1q10 2 14 2h47q2 0 6.5 -0.5t6.5 -0.5q14 0 42 0.5t42 0.5q11 0 33 -2h7q6 -1 20 -3l6 -1q5 -1 7 -2q30 -12 49 -25q8 -6 11 -9l9 -9q13 -13 26 -37q3 -5 5.5 -10.5t5 -12t4.5 -10.5q2 -7 4 -19q3 -11 3 -23q0 -6 0.5 -18.5t0.5 -19.5q0 -2 -0.5 -7.5t-0.5 -8.5 t0.5 -9.5t0.5 -10.5v-46q0 -2 0.5 -6.5t0.5 -6.5q0 -5 -0.5 -15t-0.5 -14q0 -6 0.5 -19t0.5 -20q0 -5 -0.5 -15t-0.5 -15q0 -3 0.5 -7t0.5 -7q0 -5 -0.5 -14t-0.5 -14v-26q0 -3 -0.5 -9.5t-0.5 -9.5q0 -8 1 -11v-13q0 -24 -3 -47q-2 -17 -7 -29q-2 -4 -5.5 -13t-5.5 -13 q-13 -24 -29 -40q-1 -1 -3 -3.5t-3 -3.5q-9 -10 -25 -19q-22 -10 -32 -15q-8 -4 -24 -6q-2 0 -6 -0.5t-7 -0.5q-3 -1 -8 -1.5t-8 -0.5q-9 0 -26 -0.5t-26 -0.5q-34 0 -50 1h-12q-9 0 -25 -0.5t-24 -0.5q-7 0 -19 2q-2 0 -4 1v2q0 14 -0.5 42t-0.5 42v23v5zM713 376h-99 q0 2 -1.5 7.5t-2.5 8.5q-6 19 -27 19q-3 0 -11 1t-13 0h-19t-18 -1q-2 0 -5 0.5t-5 0.5q-10 0 -28 -2q-18 -3 -26 -17q-2 -4 -4 -10v-39q0 -24 1 -37q0 -17 18 -27q2 -1 5 -1q3 -1 9.5 -1t9.5 -1h15h2q9 1 25.5 0t24.5 -1q4 0 11 1t10 1q5 0 11 4q7 4 12 11q3 4 5 15l1 2v3 q1 0 2 1h2q4 0 12 -0.5t11 -0.5h3h48q7 0 21 -2q0 -2 1 -3v-17q0 -31 -6 -45q-9 -19 -21 -30q-14 -13 -33 -14q-3 0 -8.5 -1t-8.5 -1h-7h-18t-18 1q-5 0 -19 -2q-9 0 -28.5 -0.5t-29.5 -0.5q-22 1 -66 1q-2 0 -7 -0.5t-8 -0.5q-9 1 -25 3q-4 0 -8 2q-16 6 -27 16 q-19 18 -22 39q-2 15 -2 45v31q-1 16 -1 49q0 13 2 37q3 21 13 36q15 23 39 30q3 0 5 1q12 0 18 1q14 0 42.5 0.5t42.5 0.5q4 0 15 -1t17 0q10 1 30 1q13 -1 39 -1q5 0 14.5 0.5t14.5 0.5q22 0 38 -13q6 -4 8 -6q19 -18 24 -44v-11v-39z" glyph-name="copyright" horiz-adv-x="1048" unicode=""/><glyph d="M423 693v-17q0 -61 1 -91v-7h-6h-61l-42 -3l-15 -3q-13 -2 -21 -7q-19 -9 -36 -31q-4 -4 -6 -11q-7 -18 -8 -33q-1 -6 -1.5 -12.5t-1 -15t-0.5 -12.5v-21.5t-1 -21.5q-1 -27 -1 -80v-32q0 -7 0.5 -22t0.5 -23q1 -9 1 -26q1 -5 1.5 -13.5t1.5 -15.5t3 -13q4 -10 6 -14 q5 -14 23 -29q12 -10 26 -16l15 -3q10 -3 33 -5q15 -1 41 -1h42h4h2v-5q0 -37 -1 -56v-53q-1 0 -2 -0.5t-2 -0.5q-8 -2 -14 -2q-31 0 -46 1h-13q-15 0 -45 -0.5t-44 -0.5q-11 0 -29 2q-4 0 -7 1t-9.5 1.5t-9.5 0.5q-10 2 -14 4q-28 10 -49 24q-8 6 -11 10l-8 8 q-15 15 -27 37q-10 22 -14 33q-2 3 -3 10t-2 9q-2 8 -2 24q-2 24 -1 37l1 8q0 7 -1 7v36q0 21 -1 31v14v29v39v30v13q0 4 0.5 14t0.5 15v27v17v11v14q0 24 1 36q0 11 6 33q6 16 10 24q7 17 23 38q1 2 5 6l10 10q12 13 29 21q4 3 14 7t14 7q8 4 25 6q6 0 16 2h5q46 2 69 2 q26 0 40 -1h15q2 0 6 0.5t7 0.5h38q3 0 9 -1t10 -1zM631 578v6v17v20.5v17.5q1 9 1 26.5v26.5h1q1 1 2 1q10 2 15 2h45q3 0 7 -0.5t7 -0.5q14 0 42 0.5t42 0.5q11 0 33 -2h7q3 -1 6.5 -1.5t8 -1t6.5 -0.5q1 0 3 -0.5t3.5 -1l3 -1t2.5 -0.5q29 -12 50 -25q4 -3 10 -9l9 -9 q13 -13 26 -37q3 -5 5.5 -10.5t5 -12t4.5 -10.5q2 -7 4 -19q3 -11 3 -23q0 -6 0.5 -18.5t0.5 -19.5q0 -2 -0.5 -7.5t-0.5 -8.5t0.5 -9.5t0.5 -9.5v-47q0 -2 0.5 -6.5t0.5 -6.5q0 -5 -0.5 -15t-0.5 -14q0 -6 0.5 -19t0.5 -20q0 -20 -1 -30q0 -1 0.5 -4t0.5 -5t-0.5 -6 t-0.5 -7v-45q0 -4 -0.5 -10.5t-0.5 -9.5q0 -4 0.5 -11t0.5 -11q0 -6 -0.5 -19t-0.5 -20q-1 -18 -7 -33q-2 -8 -10 -24q-4 -12 -23 -39q-3 -3 -4 -5l-11 -11q-10 -12 -27 -20q-4 -2 -14 -6.5t-15 -7.5q-8 -4 -26 -6q-4 0 -16 -2h-5q-46 -2 -69 -2q-26 0 -39 1h-14 q-4 0 -12.5 -0.5t-12.5 -0.5h-29q-10 2 -16 2q-1 2 -1 3q0 14 -0.5 42t-0.5 42v23v5h6h60q15 1 43 3q2 0 5.5 1t5.5 1q22 3 35 14q18 14 25 23q4 7 7 14q7 17 8 33q2 26 2 39q0 7 1 21.5t1 21.5v31.5v37.5v32q0 38 -1 57q0 16 -1 24q-2 30 -5 39q-6 23 -14 32q-19 22 -43 32 q-2 0 -6.5 1t-6.5 2q-11 2 -33 4q-16 1 -42.5 1h-42.5h-4zM666 299l8 -8l36 -39q6 -7 39 -40q5 -6 12 -12q0 -1 1 -2q-17 0 -25 -1q-4 0 -13.5 0.5t-14.5 -0.5h-27h-66h-12q-2 3 -8 9q-5 7 -16 20t-17 20q-1 1 -3.5 4t-4.5 5q-7 9 -23 27q-8 10 -13 15h-33q-24 0 -36 1 q-2 0 -5 -0.5t-4 -0.5q0 -2 -0.5 -3.5t-0.5 -2.5v-12.5v-15v-12.5v-21t-1 -21q0 -1 -0.5 -4.5t-0.5 -5.5q-1 0 -2.5 -0.5t-2.5 -0.5h-30q-18 -1 -54 -1q-1 0 -4 -0.5t-5 -0.5q-8 0 -26 2v6v120q0 3 -0.5 8.5t-0.5 8.5q1 8 1 52q-1 29 -1 87q0 2 0.5 5t0.5 4q1 0 3 1h2h23h5 q7 -1 14 0h23h63h91h102q35 -3 39 -4q26 -9 38 -19q2 -1 6 -4.5t5 -4.5q15 -16 19 -36q2 -10 4 -26q0 -12 -3 -23q-5 -16 -12 -29q-12 -26 -39 -36q-16 -6 -26 -7q-1 0 -5 -2zM441 374q1 0 3 -0.5t3 -0.5q8 0 23.5 0.5t23.5 0.5h58h37q4 0 12 4q7 4 7 11q3 17 -13 22 q-10 2 -14 2h-31q0 -1 -18 -1l-18 1h-52q-14 0 -21 -1v-38z" glyph-name="registered" horiz-adv-x="1055" unicode=""/><glyph d="M380 559q0 -21 -9 -50q-8 -29 -35 -56q-10 -10 -29 -17q-12 -5 -34 -9q-33 -5 -43 -4q-4 0 -10.5 -0.5t-9.5 -0.5q-14 0 -42 2q-12 2 -19 3q-17 3 -34 18q-10 8 -14 12l-9 9q-16 20 -20 46q0 1 -0.5 5t-0.5 6v33v10q0 20 6 43q5 17 21 39q15 19 31 29q8 4 12 5q15 6 31 9 q25 4 40 5q8 0 26 2h7q26 -2 39 -5q8 -1 19 -5q5 -2 13.5 -5.5t12.5 -5.5q12 -6 24 -20q19 -27 23 -55q0 -4 1 -11.5t1 -11.5q1 -3 1.5 -10t0.5 -10zM178 565q0 -5 2 -15q0 -14 12 -26l2 -1l2 -1q3 -1 14 -4q20 -3 37 6q7 4 12 12q8 13 8 31q0 29 -27 36q-22 3 -41 -4 q-7 -1 -14 -10q-8 -12 -7 -24z" glyph-name="degree" horiz-adv-x="450" unicode=""/><glyph d="M189 497q1 -1 6 -1q3 0 9 0.5t8 0.5q4 0 10 -0.5t9 -0.5q1 0 4 0.5t5 0.5h127h24q6 1 19 1v-70q-5 -1 -14 -1h-84h-20q-6 1 -17 1q-16 0 -24 -1h-25q-5 -1 -16.5 0t-17.5 0h-18q-17 2 -26 1q-18 -1 -54 -1q-11 0 -17 -1q-1 0 -3 0.5t-4 0.5v7v46q0 7 0.5 21t0.5 22 q0 7 4 15q8 18 19 31q9 9 19 13q12 6 20 7q8 2 13 2q12 2 34 2h27q21 1 63 1q6 0 12 3q9 4 8 16l-7 7q-4 4 -11 4h-59q-11 0 -21 -10q-3 -3 -5 -10q-1 0 -2 -0.5t-2 -0.5h-70h-13h-17q-7 0 -10 -1q-1 1 -1 4v13q0 19 13 39q13 19 35 30q6 3 19 5q12 3 36 3q20 0 59.5 -0.5 t59.5 -0.5h10h15q1 1 4 1h4q9 0 21 -5q19 -7 32 -16q21 -16 28 -40q6 -20 2 -38q0 -8 -1 -11q-1 -4 -6 -20q-4 -9 -13 -18q-14 -12 -26 -17q-8 -6 -24 -8q-7 -1 -41 -1h-80q-6 0 -16 -2q-6 -1 -11 -8q-3 -5 -3 -15z" glyph-name="uni00B2" horiz-adv-x="482" unicode=""/><glyph d="M71 510h102q4 0 6 1q5 0 8 -1q2 -4 3 -5q4 -6 12 -6h7q10 0 29.5 -0.5t28.5 -0.5q3 0 8 -0.5t7 -0.5q19 2 18 20q0 4 -2 8q-7 4 -14 4q-22 0 -66 2q-17 0 -26 1q-1 3 -1 27t1 32q8 2 11 2h21q15 -1 45 -1q16 0 19 13q2 5 0 9q0 4 -5 6q-8 4 -13 4h-51q-10 0 -20 -10 q-1 -1 -3 -4q0 -1 -28 0h-28h-56q-2 1 -2 4v18q4 21 14 33q12 15 32 23q12 5 28 7h32q13 -1 38 -1h38h75q25 0 41 -12q5 -4 13 -12q3 -3 9 -11q9 -11 11 -25q0 -4 0.5 -10t0.5 -9q0 -22 -13 -43q-1 -1 -2.5 -4t-2.5 -4l2 -1q2 -1 2 -2q3 -3 4 -5q6 -4 12 -16q4 -10 6 -16v-2 q0 -5 0.5 -15.5t0.5 -16.5q-2 -23 -15 -38q-2 -2 -6 -5t-6 -5q-12 -9 -35 -14q-9 -1 -27 -1h-53h-6h-7h-6q-21 1 -42 0q-9 -1 -25.5 -1h-24.5q-12 0 -32 2q-14 0 -28 6q-18 7 -26 21q-12 18 -13 37v18z" glyph-name="uni00B3" horiz-adv-x="493" unicode=""/><glyph d="M498 989q-1 -1 -2 -3t-2 -3q-20 -30 -43 -76q-15 -29 -36 -54q-5 -7 -8 -14q-2 -10 -12 -24q-5 -8 -14.5 -23t-13.5 -22l-18 -24q-2 -1 -6 -1h-194q-2 0 -6 0.5t-6 0.5q-1 0 -4 0.5t-5 0.5h-49q-1 0 -4 0.5t-5 0.5q0 2 3 11q4 6 10 20t10 21q2 2 2 5q2 3 4.5 9t3.5 8 q8 11 21 42q10 20 15 31l18 42l21 45q5 9 10 11q9 -4 24 -2q14 2 39.5 2h31.5q12 0 18 -2h11h129q9 0 25.5 -0.5t24.5 -0.5q4 0 7 -1z" glyph-name="acute" horiz-adv-x="568" unicode=""/><glyph d="M427 18q-1 -3 -1 -9.5v-10.5q-2 -18 11 -26q3 -3 7 -3q15 -3 29 -3h35q5 0 13 -1t12 -1q20 -2 37 -11q20 -10 29 -15q16 -8 23 -13q8 -6 17 -16q18 -26 22 -36q7 -15 10 -34q2 -24 2 -36q0 -15 -6 -30q-1 -1 -2.5 -5t-2.5 -6q-4 -9 -12 -19q-17 -22 -22 -27 q-20 -20 -44 -30q-1 -1 -4 -2.5l-5 -2.5t-5 -2t-4 -2q-20 -6 -30 -8q-1 0 -23 -3q-12 -1 -36 -1q-18 1 -104 1h-87q-2 0 -6.5 -0.5t-6.5 -0.5q-9 0 -29 2q-4 0 -11 0.5t-10 0.5q-44 4 -70 19q-26 14 -43 31q-13 12 -31 42q-4 6 -8 24q-1 15 0 30q10 2 14 2q7 0 19 0.5 t19 0.5q3 0 10.5 0.5t11.5 0.5q22 0 65.5 -0.5t65.5 -0.5q8 0 22 -0.5t22 -0.5q1 0 3 -0.5t3 -0.5h15q1 -1 1 -6q0 -10 1 -12q3 -9 10 -12q15 -7 29 0t17 24q4 16 -5 32q-4 6 -12 9q-12 5 -27 7t-44 2h-80q-8 0 -24 2q-8 1 -18 9q-5 4 -13 14q-7 7 -11 23q-6 21 -3 43v15v51 v4h6h39.5t40.5 -1q13 -1 39.5 -1h40.5q6 0 17 0.5t17 0.5q8 0 24 -0.5t24 -0.5h17z" glyph-name="cedilla" horiz-adv-x="743" unicode=""/><glyph d="M72 668q6 2 7 2q8 4 26 10q23 9 29 11q2 1 9 3q6 1 16.5 0t14.5 -1q7 1 22 1h23q11 0 17 1l1 -1h2v-4q1 -7 1 -21q1 -31 1 -185q0 -10 -0.5 -28t-0.5 -28q-1 -1 -1 -2q-3 0 -11 -0.5t-12 -0.5h-33q-3 0 -10.5 0.5t-11.5 0.5h-9.5h-12h-9.5h-6v7v123q0 10 -2 32h-2l-2 1 h-31q-10 0 -16 1q-1 4 0 12.5t1 12.5q0 5 -0.5 13.5t-0.5 12.5q0 5 0.5 14t0.5 13z" glyph-name="uni00B9" horiz-adv-x="312" unicode=""/><glyph d="M321 425h-27q-5 0 -15.5 -0.5t-16.5 -0.5q-4 0 -11.5 0.5t-11.5 0.5q-3 0 -10 -0.5t-11 -0.5q-19 1 -58 1h-19q-16 0 -31 6q-16 8 -22 15q-16 22 -17 45v36v47q-1 14 -1 41q1 8 1 26q2 8 4 12q1 3 3 8t3 6q10 17 31 25q7 4 15 4h3q36 0 43 1q3 0 8 -0.5t8 -0.5 q2 0 4.5 0.5t3.5 0.5q10 -1 28 -1q1 0 3.5 0.5t3.5 0.5q10 -1 30 -1q1 0 3 0.5t3 0.5q10 -1 29 -1h3q8 1 29 0.5t29 -0.5q17 0 33 -11q17 -11 26 -37q0 -2 0.5 -5t1.5 -5q0 -8 0.5 -25t0.5 -25q0 -11 -2 -35q0 -11 2 -31v-16q0 -1 -0.5 -3.5t-0.5 -4.5q1 -12 -4 -28 q-6 -17 -20 -30q-9 -9 -31 -13q-9 -2 -27 -2h-16zM294 562v21q0 4 -2 8q-4 8 -17 14q-4 2 -9 2.5t-10.5 0.5h-8.5t-9.5 -0.5t-9.5 -0.5q-12 0 -21 -6q-7 -4 -10 -12q-1 -4 -1 -12q0 -26 1 -39q0 -6 3 -11q7 -11 18 -12q4 0 12 -0.5t11 -0.5q5 0 15 0.5t16 0.5q2 0 3 1 q17 5 19 23v23z" glyph-name="ordmasculine" horiz-adv-x="490" unicode=""/><glyph d="M263 0q-11 10 -12 13q0 1 -2 3q-5 5 -7 8q-12 11 -32.5 32.5t-27.5 28.5q-1 0 -1 1t2 3q54 54 81 80q3 4 11 11.5t12 11.5q9 10 33.5 34t36.5 37q18 19 51 52l46 46q8 8 26 24l2 2l35 35q16 17 48 49q15 14 43 42l5.5 5.5l6.5 6.5l6 6q9 10 29 30q2 2 10 8l3 3 q27 28 55 55q7 9 16 16q2 2 6 5.5t6 5.5l2 -2q1 -2 3 -3.5l4 -3t4 -3.5q10 -9 29 -28l35 -35q1 -1 2 -2.5t2 -3.5t2 -3q-7 -7 -10 -11l-16 -16q-16 -17 -48 -49q-16 -16 -23 -25q-3 -4 -7 -7.5t-8.5 -8l-6.5 -6.5l-70 -70q-7 -7 -21 -19l-7 -7l-116 -116l-16 -16 q-7 -6 -39 -38q-3 -3 -8.5 -9.5t-8.5 -9.5l-3 -3l-27 -27q-18 -17 -50.5 -50t-45.5 -45q-17 -17 -26 -25q-4 -4 -14 -12zM70 468h102q4 0 6 1q5 0 8 -1q0 -1 1 -2.5t2 -2.5q5 -6 13 -6h7q9 0 28.5 -0.5t29.5 -0.5q2 0 6.5 -0.5t7.5 -0.5q20 2 19 20q-2 6 -3 8q-5 4 -13 4 q-22 0 -66 2q-18 0 -26 1q-1 3 -1 27t1 33q2 0 5 0.5t5 0.5h21q15 -1 46 -1q15 0 18 13q1 3 1 9q-1 3 -5 7q-7 3 -14 3h-51q-8 0 -20 -10q-1 -1 -3 -4h-56h-17.5h-21h-17.5q-2 2 -2 4v19q3 20 14 33q13 14 33 22q12 5 28 7h9.5h12h9.5q12 -1 38 -1h39h23h27.5h23.5 q25 0 41 -12q5 -4 13 -12q4 -3 10 -11q8 -10 10 -25q1 -6 1 -19q1 -21 -12 -43q-1 -1 -3 -3.5t-3 -3.5q3 -3 5 -4q1 -3 4 -4q7 -7 12 -17q4 -10 5 -16v-2q2 -20 1 -32q0 -22 -15 -38q-2 -2 -6 -5t-6 -5q-10 -8 -34 -14h-9h-10.5h-8.5h-26t-26 -1l-10 -1q-10 0 -10 1 q-21 1 -42 0q-8 -1 -25 -1h-25q-10 0 -32 2q-15 0 -27 6q-16 6 -27 21q-12 18 -13 37v18zM760 168h3h16h90h5q0 -11 1 -17q0 -28 1 -41v-3q3 -1 7.5 -1h6.5h14h14v-7v-32q0 -4 0.5 -12.5t0.5 -12.5v-7h-43q-1 -2 -1 -8q1 -3 1 -12.5t-1 -13.5h-13q-11 0 -16 -1h-4q0 1 -9 0 h-9q-16 1 -50 1h-15q0 28 1 34h-4q-42 2 -127 2q-1 0 -5 -0.5t-6 -0.5h-15h-27q-3 0 -10.5 0.5t-11.5 0.5v59q26 35 33 46q7 12 8 13q16 20 23 30q22 32 33 47q19 28 23 36h4h54q7 0 22 0.5t23 0.5q5 0 16.5 -0.5t17.5 -0.5q1 0 3 0.5t4 0.5q-7 -12 -8 -13q-4 -5 -10.5 -14 t-9.5 -14q-3 -4 -9 -12.5t-9 -12.5l-4 -8q-2 -2 -4 -6q-23 -33 -27 -38q-1 -2 -3.5 -6t-4.5 -6q-10 -17 -20 -31q8 -2 11 -2h37q0 1 1 2v2q1 13 1 37q0 3 0.5 10t0.5 11z" glyph-name="threequarters" horiz-adv-x="989" unicode=""/><glyph d="M604 699q1 -1 4 -1h17q36 -2 54 -2h46q2 0 3 1q4 1 11 -1v-7v-82q0 -7 0.5 -21t0.5 -22v-6h-16q-20 0 -24 -1h-3h-20.5h-24.5h-20q-16 1 -92 1h-91h-7v6q0 48 1 73q0 38 1 58h4h25q28 1 84 1q4 1 11 1.5t11 0.5q1 0 1 1h24zM645 235h24h13.5h15.5h14q9 0 29 -2h11h72 q8 0 23 -0.5t22 -0.5t20 0.5t20 0.5h15q7 0 19 -2v-3q1 -5 1 -14v-4q0 -1 -1 -13t-2 -18q-1 -3 -1 -8.5t-1 -8.5q-1 -4 -2 -11t-2 -10q-4 -18 -7 -26q-6 -17 -18 -31q-1 -1 -9.5 -11t-13.5 -15q-14 -12 -26 -19q-5 -3 -31 -16q-9 -6 -43 -17q-18 -4 -36 -6q-17 -2 -35 0h-41 q-5 0 -16 -0.5t-17 -0.5q-11 1 -32.5 1.5t-28.5 0.5h-35q-18 -1 -53 -1h-53q-21 -1 -64 -1q-28 2 -43 2h-12q-40 0 -61 1q-18 0 -35 6q-6 3 -16.5 6.5l-13.5 4.5q-32 13 -54 30q-17 14 -36 39q-11 14 -18 31q-1 4 -4 12.5t-5 12.5q-1 3 -2.5 8.5t-2.5 8.5q-1 2 -1 7t-1 8 q-1 21 -1 65q0 10 2 28q4 34 23 63q14 21 27 34q11 13 33 28q3 2 10 6.5t11 6.5q7 5 21 10q4 2 9.5 4t12.5 4.5t11 3.5q15 5 30 6q7 1 22.5 2.5t23.5 2.5h9h35q20 1 61 1q12 0 21 10q9 11 9 25v23v7h5q13 0 19 1q10 1 30 -1h7h232h6v-4v-73q0 -10 -0.5 -30t-0.5 -30 q-2 -37 -7 -55q-4 -16 -16 -28q-13 -15 -34 -18q-16 -4 -37 -4q-9 0 -26.5 -0.5t-25.5 -0.5q-20 -1 -59 -1h-100q-8 0 -16 -3q-5 -3 -11 -4q-10 -4 -20 -14q-12 -11 -7 -28q3 -16 18 -24q12 -7 22 -8h22h50q16 1 48 1q10 0 24 2h9h17h7q1 0 19 3q4 1 7 4q17 19 20 33 q1 2 1 5.5t1 5.5z" glyph-name="questiondown" horiz-adv-x="1014" unicode=""/><glyph d="M513 705h41q18 -1 50 -1h51q18 -1 54 -1h85q6 0 20 2q1 -2 5 -6q10 -16 16 -24q2 -3 6 -7.5t4 -5.5q3 -5 11.5 -16t12.5 -18q4 -9 27 -44q28 -42 41 -63l3.5 -7t4.5 -7q2 -4 3 -5q8 -8 17 -24q5 -10 17 -32q5 -10 17 -28t28 -41l12 -18t11 -16q2 -2 13 -19q2 -4 7 -9.5 t6 -6.5q0 -1 1.5 -2.5t1.5 -2.5q5 -9 27 -41q15 -21 25 -41q4 -7 12 -19q3 -5 25 -41q14 -22 22 -32q4 -4 9.5 -13t7.5 -12q4 -6 11 -17.5t11 -16.5q10 -15 32 -45q1 -2 4 -6.5l5 -7.5q3 -3 2 -5h-344q-2 4 -5 7q-6 10 -9 14q-2 3 -10.5 15.5t-11.5 20.5q-1 1 -2.5 3t-1.5 3 q-2 4 -7.5 12t-8.5 12q-1 1 -3 4t-3 4t-3 3.5t-3 4.5q-3 4 -8 11t-7 11h-9q-2 0 -6.5 -0.5t-6.5 -0.5h-31q-31 1 -31 0q-41 -3 -92 -1q-30 1 -90 1h-89h-6q-10 -12 -13 -19q-2 -5 -7.5 -12.5t-6.5 -9.5q-4 -6 -12.5 -19t-12.5 -20q-3 -5 -16 -23q-1 -1 -1 -2q-8 -12 -12 -19 h-6h-114h-111h-15q-6 0 -10 2h-6h-65h-6l4 8t4.5 8.5t3.5 7.5q15 25 17 29q10 16 14 25q6 10 8 15q12 25 34 54q4 6 12 17.5t12 17.5q3 5 26 41q2 3 6.5 9.5t8 11.5t6.5 9q4 6 12 18.5t13 18.5q3 5 19 29l18 30q10 14 15 22q4 5 10.5 15.5t9.5 15.5q4 5 12 16.5t12 17.5 q3 4 9 14t9 14q3 5 10 14.5t10 14.5q12 15 21 33q10 18 20 31l9 15q12 20 18 29q3 6 10 17t9 14l18 27l9 18q1 2 14 20zM727 308q-18 25 -19 27t-3 5t-3 5q-3 4 -8 11t-7 11q-4 6 -5 7q-2 5 -14 21l-6 3l-2 -2q-17 -26 -32 -46q-16 -24 -19 -29q-1 -1 -8 -13h126zM526 826 q-18 22 -27 39q-5 8 -17 24q-2 3 -5.5 10t-5.5 10q-1 1 -3 5q-1 9 -11 21q-24 34 -33 52q-5 8 -10 19q-12 26 -32 54l-6 9q2 1 5 1h15q10 0 14 1q3 1 10 1h103h94h43h23h6q5 -4 7 -9q22 -43 32 -71q7 -13 11 -25l18 -39q3 -8 8 -16q3 -6 27 -53q2 -4 6 -12.5t6 -12.5 q0 -1 1 -2.5t0 -2.5q-1 0 -3 -0.5t-3 -0.5h-21q-15 0 -22 -1q-5 -1 -15.5 -1h-15.5h-39q-4 0 -11 -0.5t-11 -0.5q-16 -1 -32 0q-19 3 -38 0q-15 -2 -32 0q-6 1 -20 1h-16z" glyph-name="Agrave" horiz-adv-x="1343" unicode=""/><glyph d="M513 705h41q18 -1 50 -1h51q18 -1 54 -1h85q6 0 20 2q1 -2 5 -6q10 -16 16 -24q2 -3 6 -7.5t4 -5.5q3 -5 11.5 -16t12.5 -18q4 -9 27 -44q28 -42 41 -63l3.5 -7t4.5 -7q2 -4 3 -5q8 -8 17 -24q5 -10 17 -32q5 -10 17 -28t28 -41l12 -18t11 -16q2 -2 13 -19q2 -4 7 -9.5 t6 -6.5q0 -1 1.5 -2.5t1.5 -2.5q5 -9 27 -41q15 -21 25 -41q4 -7 12 -19q3 -5 25 -41q14 -22 22 -32q4 -4 9.5 -13t7.5 -12q4 -6 11 -17.5t11 -16.5q10 -15 32 -45q1 -2 4 -6.5l5 -7.5q3 -3 2 -5h-344q-2 4 -5 7q-6 10 -9 14q-2 3 -10.5 15.5t-11.5 20.5q-1 1 -2.5 3t-1.5 3 q-2 4 -7.5 12t-8.5 12q-1 1 -3 4t-3 4t-3 3.5t-3 4.5q-3 4 -8 11t-7 11h-9q-2 0 -6.5 -0.5t-6.5 -0.5h-31q-31 1 -31 0q-41 -3 -92 -1q-30 1 -90 1h-89h-6q-10 -12 -13 -19q-2 -5 -7.5 -12.5t-6.5 -9.5q-4 -6 -12.5 -19t-12.5 -20q-3 -5 -16 -23q-1 -1 -1 -2q-8 -12 -12 -19 h-6h-114h-111h-15q-6 0 -10 2h-6h-65h-6l4 8t4.5 8.5t3.5 7.5q15 25 17 29q10 16 14 25q6 10 8 15q12 25 34 54q4 6 12 17.5t12 17.5q3 5 26 41q2 3 6.5 9.5t8 11.5t6.5 9q4 6 12 18.5t13 18.5q3 5 19 29l18 30q10 14 15 22q4 5 10.5 15.5t9.5 15.5q4 5 12 16.5t12 17.5 q3 4 9 14t9 14q3 5 10 14.5t10 14.5q12 15 21 33q10 18 20 31l9 15q12 20 18 29q3 6 10 17t9 14l18 27l9 18q1 2 14 20zM727 308q-18 25 -19 27t-3 5t-3 5q-3 4 -8 11t-7 11q-4 6 -5 7q-2 5 -14 21l-6 3l-2 -2q-17 -26 -32 -46q-16 -24 -19 -29q-1 -1 -8 -13h126zM958 1066 q-1 -1 -2 -3t-2 -3q-20 -30 -43 -76q-15 -28 -36 -54q-5 -7 -8 -14q-2 -10 -12 -24q-4 -7 -14 -22t-14 -23l-18 -24q-2 -1 -6 -1h-194q-2 0 -6 0.5t-6 0.5q-1 0 -4 0.5t-5 0.5h-49q-1 0 -4 0.5t-5 0.5q0 2 3 11q4 6 10 20t10 21q2 2 2 5q2 3 4.5 9t3.5 8q8 11 21 42 q10 20 15 31l18 42l21 45q5 9 10 11q9 -4 24 -2q14 2 39.5 2h31.5q12 0 18 -2h3h4.5h3.5h129q9 0 25.5 -0.5t24.5 -0.5q4 0 7 -1z" glyph-name="Aacute" horiz-adv-x="1343" unicode=""/><glyph d="M513 705h41q18 -1 50 -1h51q18 -1 54 -1h85q6 0 20 2q1 -2 5 -6q10 -16 16 -24q2 -3 6 -7.5t4 -5.5q3 -5 11.5 -16t12.5 -18q4 -9 27 -44q28 -42 41 -63l3.5 -7t4.5 -7q2 -4 3 -5q8 -8 17 -24q5 -10 17 -32q5 -10 17 -28t28 -41l12 -18t11 -16q2 -2 13 -19q2 -4 7 -9.5 t6 -6.5q0 -1 1.5 -2.5t1.5 -2.5q5 -9 27 -41q15 -21 25 -41q4 -7 12 -19q3 -5 25 -41q14 -22 22 -32q4 -4 9.5 -13t7.5 -12q4 -6 11 -17.5t11 -16.5q10 -15 32 -45q1 -2 4 -6.5l5 -7.5q3 -3 2 -5h-344q-2 4 -5 7q-6 10 -9 14q-2 3 -10.5 15.5t-11.5 20.5q-1 1 -2.5 3t-1.5 3 q-2 4 -7.5 12t-8.5 12q-1 1 -3 4t-3 4t-3 3.5t-3 4.5q-3 4 -8 11t-7 11h-9q-2 0 -6.5 -0.5t-6.5 -0.5h-31q-31 1 -31 0q-41 -3 -92 -1q-30 1 -90 1h-89h-6q-10 -12 -13 -19q-2 -5 -7.5 -12.5t-6.5 -9.5q-4 -6 -12.5 -19t-12.5 -20q-3 -5 -16 -23q-1 -1 -1 -2q-8 -12 -12 -19 h-6h-114h-111h-15q-6 0 -10 2h-6h-65h-6l4 8t4.5 8.5t3.5 7.5q15 25 17 29q10 16 14 25q6 10 8 15q12 25 34 54q4 6 12 17.5t12 17.5q3 5 26 41q2 3 6.5 9.5t8 11.5t6.5 9q4 6 12 18.5t13 18.5q3 5 19 29l18 30q10 14 15 22q4 5 10.5 15.5t9.5 15.5q4 5 12 16.5t12 17.5 q3 4 9 14t9 14q3 5 10 14.5t10 14.5q12 15 21 33q10 18 20 31l9 15q12 20 18 29q3 6 10 17t9 14l18 27l9 18q1 2 14 20zM727 308q-18 25 -19 27t-3 5t-3 5q-3 4 -8 11t-7 11q-4 6 -5 7q-2 5 -14 21l-6 3l-2 -2q-17 -26 -32 -46q-16 -24 -19 -29q-1 -1 -8 -13h126zM666 936 q-1 -2 -4 -5t-4 -5q-14 -24 -22 -36q-4 -8 -7 -11q-14 -22 -22 -33q-1 -3 -3.5 -7.5t-4.5 -6.5l-2 -2q-9 -2 -37 -2q0 1 -18 0h-17h-35q-4 0 -12 -0.5t-12 -0.5q-2 0 -6 0.5t-6 0.5t-8 -0.5t-9 -0.5h-8q-7 0 -22 0.5t-23 0.5h-36h-5q1 3 3 7q6 11 20 31.5t20 30.5 q5 8 14.5 22.5t11.5 18.5q11 17 30 43q5 7 15 25q17 25 19 28q6 11 7 13q11 17 13 20q4 5 11 15.5t11 15.5q1 2 3.5 6t4.5 6q15 22 19 30q2 2 2 3h11h12.5h10.5q10 -2 15 0h3h29h13h22h96h26q1 0 1 -1q3 -5 10 -15.5t11 -15.5q12 -20 17 -29q7 -10 19 -30q6 -10 18.5 -30.5 t19.5 -30.5q4 -6 12 -16.5t11 -14.5q33 -44 37 -50q3 -4 9 -12.5t9 -12.5q6 -10 10 -15l9 -12t11 -14.5t10 -12.5q-12 -2 -18 -2h-103l-22 1q-23 0 -23 -1q-16 -1 -42.5 -1h-42.5q-3 0 -9 0.5t-10 0.5q-4 8 -10 17l-33 57q-6 11 -14 23q-1 2 -3 5.5t-3 4.5z" glyph-name="Acircumflex" horiz-adv-x="1343" unicode=""/><glyph d="M513 705h41q18 -1 50 -1h51q18 -1 54 -1h85q6 0 20 2q1 -2 5 -6q10 -16 16 -24q2 -3 6 -7.5t4 -5.5q3 -5 11.5 -16t12.5 -18q4 -9 27 -44q28 -42 41 -63l3.5 -7t4.5 -7q2 -4 3 -5q8 -8 17 -24q5 -10 17 -32q5 -10 17 -28t28 -41l12 -18t11 -16q2 -2 13 -19q2 -4 7 -9.5 t6 -6.5q0 -1 1.5 -2.5t1.5 -2.5q5 -9 27 -41q15 -21 25 -41q4 -7 12 -19q3 -5 25 -41q14 -22 22 -32q4 -4 9.5 -13t7.5 -12q4 -6 11 -17.5t11 -16.5q10 -15 32 -45q1 -2 4 -6.5l5 -7.5q3 -3 2 -5h-344q-2 4 -5 7q-6 10 -9 14q-2 3 -10.5 15.5t-11.5 20.5q-1 1 -2.5 3t-1.5 3 q-2 4 -7.5 12t-8.5 12q-1 1 -3 4t-3 4t-3 3.5t-3 4.5q-3 4 -8 11t-7 11h-9q-2 0 -6.5 -0.5t-6.5 -0.5h-31q-31 1 -31 0q-41 -3 -92 -1q-30 1 -90 1h-89h-6q-10 -12 -13 -19q-2 -5 -7.5 -12.5t-6.5 -9.5q-4 -6 -12.5 -19t-12.5 -20q-3 -5 -16 -23q-1 -1 -1 -2q-8 -12 -12 -19 h-6h-114h-111h-15q-6 0 -10 2h-6h-65h-6l4 8t4.5 8.5t3.5 7.5q15 25 17 29q10 16 14 25q6 10 8 15q12 25 34 54q4 6 12 17.5t12 17.5q3 5 26 41q2 3 6.5 9.5t8 11.5t6.5 9q4 6 12 18.5t13 18.5q3 5 19 29l18 30q10 14 15 22q4 5 10.5 15.5t9.5 15.5q4 5 12 16.5t12 17.5 q3 4 9 14t9 14q3 5 10 14.5t10 14.5q12 15 21 33q10 18 20 31l9 15q12 20 18 29q3 6 10 17t9 14l18 27l9 18q1 2 14 20zM727 308q-18 25 -19 27t-3 5t-3 5q-3 4 -8 11t-7 11q-4 6 -5 7q-2 5 -14 21l-6 3l-2 -2q-17 -26 -32 -46q-16 -24 -19 -29q-1 -1 -8 -13h126zM771 826 h-2q-9 0 -29 4h-2q-2 1 -3 1l-8 2q-18 4 -28 6l-12 3q-4 1 -10 3q-3 0 -9 2q-2 0 -4.5 0.5t-3.5 0.5q-8 2 -13 4l-6 1q-3 0 -9 2q-5 2 -19 4l-15 3q-8 3 -14 3q-13 -3 -23 -19q-2 -2 -4 -6q-1 -2 -3 -4l-3 -6l-6 -1q-8 -2 -11 -2q-2 0 -10 2q-2 1 -6.5 2t-7.5 1l-39 9 q-2 0 -28 6q-8 2 -13 3q-2 0 -7 1.5t-8 2.5t-7 3q-1 0 -3 0.5t-3 0.5q-2 1 -8 3q-12 3 -17 15l-1 5l1 4q2 4 4 12q2 9 8 27q10 29 25 50q10 15 16 20q25 21 45 33q22 12 35 16q14 5 31 7q6 1 21 1h13h6q12 0 21 -3l5 -1q22 -4 55 -11q6 -1 16.5 -3.5t13.5 -3.5t9 -2.5 t9 -2.5q4 -1 12 -2.5t12 -2.5l12 -3q8 -2 15 -2q5 0 6 1h2q11 3 14 9v1q2 2 4.5 6t3.5 6q1 3 4 6l2 2l2 3l5 2q3 1 9 1t12 -2t10 -2h3q19 -3 37 -9q41 -12 45 -13q3 -1 7 -2t7 -1q4 0 12 -2h1q12 -4 16 -9l4 -4l-1 -7q0 -4 -1 -7q0 -2 -1.5 -6t-2.5 -6l-3 -9q-2 -6 -3 -10 q-1 -2 -2.5 -6.5t-2.5 -6.5t-2.5 -6t-1.5 -5q-8 -22 -10 -27q-9 -19 -19 -28q-10 -12 -21 -20q-12 -10 -19 -13q-28 -15 -55 -20q-3 -1 -11 -1q-1 0 -4 -1q-4 0 -5 -1q-2 0 -5.5 -0.5t-6.5 -0.5h-19z" glyph-name="Atilde" horiz-adv-x="1343" unicode=""/><glyph d="M513 705h41q18 -1 50 -1h51q18 -1 54 -1h85q6 0 20 2q1 -2 5 -6q10 -16 16 -24q2 -3 6 -7.5t4 -5.5q3 -5 11.5 -16t12.5 -18q4 -9 27 -44q28 -42 41 -63l3.5 -7t4.5 -7q2 -4 3 -5q8 -8 17 -24q5 -10 17 -32q5 -10 17 -28t28 -41l12 -18t11 -16q2 -2 13 -19q2 -4 7 -9.5 t6 -6.5q0 -1 1.5 -2.5t1.5 -2.5q5 -9 27 -41q15 -21 25 -41q4 -7 12 -19q3 -5 25 -41q14 -22 22 -32q4 -4 9.5 -13t7.5 -12q4 -6 11 -17.5t11 -16.5q10 -15 32 -45q1 -2 4 -6.5l5 -7.5q3 -3 2 -5h-344q-2 4 -5 7q-6 10 -9 14q-2 3 -10.5 15.5t-11.5 20.5q-1 1 -2.5 3t-1.5 3 q-2 4 -7.5 12t-8.5 12q-1 1 -3 4t-3 4t-3 3.5t-3 4.5q-3 4 -8 11t-7 11h-9q-2 0 -6.5 -0.5t-6.5 -0.5h-31q-31 1 -31 0q-41 -3 -92 -1q-30 1 -90 1h-89h-6q-10 -12 -13 -19q-2 -5 -7.5 -12.5t-6.5 -9.5q-4 -6 -12.5 -19t-12.5 -20q-3 -5 -16 -23q-1 -1 -1 -2q-8 -12 -12 -19 h-6h-114h-111h-15q-6 0 -10 2h-6h-65h-6l4 8t4.5 8.5t3.5 7.5q15 25 17 29q10 16 14 25q6 10 8 15q12 25 34 54q4 6 12 17.5t12 17.5q3 5 26 41q2 3 6.5 9.5t8 11.5t6.5 9q4 6 12 18.5t13 18.5q3 5 19 29l18 30q10 14 15 22q4 5 10.5 15.5t9.5 15.5q4 5 12 16.5t12 17.5 q3 4 9 14t9 14q3 5 10 14.5t10 14.5q12 15 21 33q10 18 20 31l9 15q12 20 18 29q3 6 10 17t9 14l18 27l9 18q1 2 14 20zM727 308q-18 25 -19 27t-3 5t-3 5q-3 4 -8 11t-7 11q-4 6 -5 7q-2 5 -14 21l-6 3l-2 -2q-17 -26 -32 -46q-16 -24 -19 -29q-1 -1 -8 -13h126zM419 828 q-2 1 -5 1l-1 2q-1 2 -1 7v108v57v7h9q6 -1 19 1h3h43q11 -1 64 -1h65h7v-5v-45q0 -20 -0.5 -61t-0.5 -62v-5h-3l-1 -1h-17q-38 0 -57 -1q-6 0 -18 -2q-6 -1 -18 -1q-1 1 -3 1q-19 0 -29 1q-9 1 -50 1q-5 0 -6 -2zM721 1010q2 0 6 -0.5t6 -0.5q3 0 7 0.5t6 0.5h3l2 1h43 q11 -1 65 -1h64h7q0 -1 0.5 -2.5t0.5 -2.5q0 -30 -1 -46v-93q0 -20 -1 -30v-4q-1 0 -2 -0.5t-2 -0.5h-30q-7 -1 -22 -1h-22q-3 0 -9 -1t-9 -1q-5 -1 -17 -1l-2 1h-2q-19 0 -29 1q-8 1 -50 1q-5 0 -6 -2q-2 1 -5 1q0 1 -0.5 1t-0.5 1v6v109v57v7z" glyph-name="Adieresis" horiz-adv-x="1343" unicode=""/><glyph d="M513 705h41q18 -1 50 -1h51q18 -1 54 -1h85q6 0 20 2q1 -2 5 -6q10 -16 16 -24q2 -3 6 -7.5t4 -5.5q3 -5 11.5 -16t12.5 -18q4 -9 27 -44q28 -42 41 -63l3.5 -7t4.5 -7q2 -4 3 -5q8 -8 17 -24q5 -10 17 -32q5 -10 17 -28t28 -41l12 -18t11 -16q2 -2 13 -19q2 -4 7 -9.5 t6 -6.5q0 -1 1.5 -2.5t1.5 -2.5q5 -9 27 -41q15 -21 25 -41q4 -7 12 -19q3 -5 25 -41q14 -22 22 -32q4 -4 9.5 -13t7.5 -12q4 -6 11 -17.5t11 -16.5q10 -15 32 -45q1 -2 4 -6.5l5 -7.5q3 -3 2 -5h-344q-2 4 -5 7q-6 10 -9 14q-2 3 -10.5 15.5t-11.5 20.5q-1 1 -2.5 3t-1.5 3 q-2 4 -7.5 12t-8.5 12q-1 1 -3 4t-3 4t-3 3.5t-3 4.5q-3 4 -8 11t-7 11h-9q-2 0 -6.5 -0.5t-6.5 -0.5h-31q-31 1 -31 0q-41 -3 -92 -1q-30 1 -90 1h-89h-6q-10 -12 -13 -19q-2 -5 -7.5 -12.5t-6.5 -9.5q-4 -6 -12.5 -19t-12.5 -20q-3 -5 -16 -23q-1 -1 -1 -2q-8 -12 -12 -19 h-6h-114h-111h-15q-6 0 -10 2h-6h-65h-6l4 8t4.5 8.5t3.5 7.5q15 25 17 29q10 16 14 25q6 10 8 15q12 25 34 54q4 6 12 17.5t12 17.5q3 5 26 41q2 3 6.5 9.5t8 11.5t6.5 9q4 6 12 18.5t13 18.5q3 5 19 29l18 30q10 14 15 22q4 5 10.5 15.5t9.5 15.5q4 5 12 16.5t12 17.5 q3 4 9 14t9 14q3 5 10 14.5t10 14.5q12 15 21 33q10 18 20 31l9 15q12 20 18 29q3 6 10 17t9 14l18 27l9 18q1 2 14 20zM727 308q-18 25 -19 27t-3 5t-3 5q-3 4 -8 11t-7 11q-4 6 -5 7q-2 5 -14 21l-6 3l-2 -2q-17 -26 -32 -46q-16 -24 -19 -29q-1 -1 -8 -13h126zM827 967 q0 -21 -9 -50q-8 -29 -35 -56q-10 -10 -29 -17q-12 -5 -34 -9q-33 -5 -43 -4q-3 0 -10 -0.5t-10 -0.5q-14 0 -42 2q-12 2 -19 3q-17 3 -34 18q-10 8 -14 12l-9 9q-16 20 -20 46q0 1 -0.5 5t-0.5 6v33v10q0 20 6 43q5 17 21 39q15 19 31 29q8 4 12 5q15 6 31 9q25 4 40 5 q8 0 26 2h7q26 -2 39 -5q8 -1 19 -5q5 -2 13.5 -5.5t12.5 -5.5q12 -6 24 -20q19 -27 23 -55q1 -4 1 -11.5t1 -11.5q1 -3 1.5 -10t0.5 -10zM625 973q0 -5 2 -15q0 -14 12 -26q1 0 2 -1t2 -1q3 -1 14 -4q20 -3 37 6q8 4 12 12q8 13 8 31q0 29 -27 36q-22 3 -41 -4 q-7 -1 -14 -10q-8 -12 -7 -24z" glyph-name="Aring" horiz-adv-x="1343" unicode=""/><glyph d="M1673 183q2 -37 -1 -58v-10v-100v-12l-1 -1h-2q-12 0 -36 -4h-1q-2 -1 -3 -1q-6 0 -41 -2q-45 0 -68 -1q-5 0 -15 -0.5t-16 -0.5q-2 0 -6 0.5t-7 0.5q-11 0 -17 1h-57q-3 1 -9 1t-9 1h-40h-96h-5q-6 -2 -17.5 -2h-13.5h-59h-53h-2q-12 2 -71 2h-18q-3 0 -13.5 0.5 t-16.5 1.5h-18q-42 1 -124 1q-9 0 -13 1t-13 1q-48 0 -71 1q-10 0 -11 1v30v29v28v30q-2 1 -6 1h-2q-77 1 -231 1h-7q-8 -10 -11 -15q-6 -10 -8 -14q-7 -10 -18 -27.5t-15 -24.5q-1 -2 -3 -4t-3 -4q-12 -19 -23 -34q-2 0 -5 -0.5t-5 -0.5q-150 0 -225 1q-18 0 -23 2h-8h-55 h-11q2 5 6 13t7 12q10 19 32 57q2 2 4 8q14 30 41 65q14 20 20 30q13 22 43 64q6 8 16 24q11 16 19 29q4 6 29 46q2 3 10 14q10 17 23 35q4 6 35 53q6 9 20 28t20 29q1 1 8 13q12 23 22 36l6 9q4 8 35 57q27 43 33 56q1 1 6 8t7 11h9q80 0 120 -1q8 0 12 -1q3 0 11 -0.5 t12 -0.5h106q17 0 25 2q3 2 6 0q4 -2 12 -2h30.5t30.5 1q14 1 39.5 1.5t33.5 0.5h5q11 2 34 2h85h6q17 1 53 0t53 0h65h93h37h5q6 -2 27 -2q4 0 11.5 -0.5t11.5 -1.5q3 -1 10.5 -1h11.5h126q2 0 6 -0.5t6 -0.5h16h45q2 0 4 -0.5t3 -0.5q1 -2 1 -5q0 -14 2 -21q1 -6 1 -18 q0 -9 1 -14q1 -2 1 -8v-104q0 -1 -0.5 -3.5t-0.5 -3.5q-4 -2 -6 -2h-22h-103q-12 0 -18 2h-10h-96h-4q-7 -2 -29 -2q-27 0 -41 -1q-5 0 -8 -1h-7q-11 2 -33 2h-77q-11 0 -16 -2h-10h-58q-21 0 -32 -1q-13 -1 -36.5 -1.5t-31.5 -0.5h-7q-2 -1 -2 -5q0 -15 -1 -18q-1 -1 0 -2 q1 -7 1 -19.5v-19.5l1 -2v-2h2l2 -1h94h4q8 2 35 2q42 0 63 1q11 0 17 1q3 0 9.5 0.5t10.5 0.5h133q24 0 36 -1q10 -1 30 -1q18 2 27 2h63q4 0 12 -2q11 0 16 -1q1 -1 1 -6v-26q0 -15 1 -22q1 -3 1 -9v-96q0 -8 -2 -22q-2 -2 -6 -2q-16 0 -23 -2q-4 -1 -11 -1h-95 q-29 0 -34 1q-15 2 -43.5 2h-34.5q-2 0 -5 0.5t-5 0.5t-6 0.5t-6 0.5h-74q-3 0 -8.5 -0.5t-8.5 -0.5q-3 -1 -9 -1h-34q-3 0 -5 -1q-7 -1 -20.5 -1.5t-17.5 -0.5q-26 0 -33 -2h-8h-60h-13q0 -1 -0.5 -3t-0.5 -3q0 -17 -2 -22v-42q2 -2 10 -2h49q6 0 23 -1t27 0h49q31 0 37 1 q2 1 6.5 1h6.5q18 0 27 1q3 1 20 1q70 0 105 -1q11 0 17 -1h10h28q11 0 17 1q8 2 16 0q24 -3 55 -1q15 1 133 1q10 0 13 -2zM726 303q-4 5 -11 15t-10 14q-1 2 -3 4q-3 5 -26 41q-6 8 -10 12q-2 3 -5 2q-2 -2 -4 -5.5t-4 -5.5q-19 -28 -37 -52q-8 -14 -13 -21l-1 -2 q-1 -2 0 -3h4h117q1 0 3 1z" glyph-name="AE" horiz-adv-x="1749" unicode=""/><glyph d="M843 281h9h143q17 -1 46.5 -1h45.5q3 0 9 -0.5t8 -0.5q3 -1 9.5 -1.5t8.5 -0.5q9 0 14 -1q1 -2 1 -6v-85q0 -6 -4 -22q-8 -30 -10 -34q-9 -21 -19 -35q-25 -30 -33 -37q-9 -9 -14 -13q-2 -2 -3 -2q-2 0 -15 -8q-27 -14 -54 -20q-12 -2 -19 -2q-2 0 -5 -1t-5 -1 q-16 -2 -23 -3h-2q-5 0 -19.5 -1t-22.5 0q-16 1 -42.5 1h-42.5h-4q-7 0 -29.5 -1t-35.5 0q-6 -1 -37 -1q-24 -2 -34 -2q-8 -1 -24 -1q-10 0 -28 -0.5t-28 -0.5q-17 1 -103 1q-8 0 -24 -0.5t-24 -0.5h-25q-11 1 -32 1q-10 2 -14 1q-11 -1 -28.5 -1h-27.5q-6 0 -16.5 1 t-15.5 1q-6 0 -18 2q-22 3 -40 10q-6 2 -17 7.5t-12 5.5q-1 1 -4 2t-4 1l-12 6q-28 18 -32 21q-15 13 -24 25q-8 10 -13 17q-13 15 -16 39q-3 9 -5 27v3q-1 10 -1 29t-1 29q0 45 -1 68q0 21 -1 32t-1 29.5v29.5q-1 12 -1 72q0 9 2 25q1 5 1 16q1 6 1.5 16t0.5 13t0.5 6 t1.5 7.5t1 6.5q1 4 3.5 11t3.5 11q3 12 15 34q2 4 7 11.5l7 10.5l4 4q28 29 51 43q20 12 37 17l10.5 3.5t11.5 3.5q10 2 16 3t20 1q3 0 7 0.5t7 0.5q1 0 4 -0.5t5 -0.5h3q3 0 7 0.5t7 0.5q12 1 31.5 1h31.5q17 1 50 1q24 1 145 1q18 0 27 -1t54 -1q17 1 45 1h45 q10 -1 27.5 -1h27.5q5 0 13 -0.5t12 -0.5q7 1 21 1h21q10 1 30 1q8 1 43 1q7 0 21 -2h1q10 1 35 -6q29 -6 52 -22q3 -2 11 -6t11 -6q13 -8 28 -25l18 -21q8 -14 10 -16q12 -21 16 -39q1 -4 3 -14q0 -8 2 -22v-4v-88v-2q-12 -2 -17 -2h-42q-22 1 -198 1q-9 1 -29 -1 q-1 0 -5 -0.5t-5 -0.5q-1 2 -1 7t-1 8q0 1 -0.5 4t-0.5 4q-4 13 -13 30q-10 15 -23 20q-4 2 -12 5.5t-12 5.5q-12 4 -19 4q-4 -1 -13 -1q-4 1 -13 1t-14 1h-46q-39 -3 -87 -1q-10 0 -28.5 0.5t-27.5 0.5q-11 0 -33 -2q-2 -1 -6 -1t-24 -2q-5 0 -28 -5q-14 -4 -28 -12 q-9 -6 -10 -7q-9 -6 -21 -24q-3 -6 -3 -14q-2 -12 -2 -18l-1 -1v-1q0 -17 -1 -25q0 -1 -0.5 -4t-0.5 -5q0 -4 1 -11t1 -10v-8v-25q0 -12 1 -35t1 -34q0 -16 3 -24t4 -10q7 -16 23 -27q12 -8 23 -14q3 -1 11 -3q5 -1 16 -1q24 -2 36 -2h7q21 -1 63 -1h5h6h5h11h9 q8 -1 24.5 -1.5t24.5 -0.5q10 -1 31 -1q19 0 29 1q7 1 21 1q5 0 14.5 1t13.5 1q9 0 17 4q1 0 3 1t3 1q9 1 20 10l15 12q14 10 19 22q6 18 8 27q1 2 1.5 5t0.5 5zM659 18q-1 -4 -1 -10v-10q-2 -18 11 -26q3 -3 7 -3q15 -3 29 -3h35q5 0 13 -1t12 -1q20 -2 37 -11 q20 -10 29 -15q16 -8 23 -13q8 -6 17 -16q17 -26 22 -36q7 -15 10 -34q2 -24 2 -36q0 -15 -6 -30q-1 -1 -2.5 -5t-2.5 -6q-4 -9 -12 -19q-17 -22 -22 -27q-20 -20 -44 -30l-5 -2.5t-4 -2.5t-4 -2t-5 -2q-20 -6 -30 -8q-1 0 -23 -3q-12 -1 -36 -1q-18 1 -104 1h-87 q-2 0 -6.5 -0.5t-6.5 -0.5q-9 0 -29 2q-4 0 -11 0.5t-10 0.5q-44 4 -70 19q-26 14 -43 31q-13 12 -31 42q-4 6 -8 24q-1 15 0 30q10 2 14 2q7 0 19 0.5t19 0.5q3 0 10.5 0.5t11.5 0.5q22 0 65.5 -0.5t65.5 -0.5q8 0 22 -0.5t22 -0.5q1 0 3 -0.5t3 -0.5h15q1 -1 1 -6 q0 -10 1 -12q3 -9 10 -12q15 -7 29 0t17 24q4 16 -5 32q-4 6 -12 9q-12 5 -27 7t-44 2h-80q-8 0 -24 2q-8 1 -18 9q-5 4 -13 14q-7 7 -11 23q-6 21 -3 43v15v51v4h6h40t40 -1q14 -1 40 -1h40q6 0 17 0.5t17 0.5q8 0 24 -0.5t24 -0.5h17z" glyph-name="Ccedilla" horiz-adv-x="1207" unicode=""/><glyph d="M77 697h7h33.5h39h33.5q40 0 60 1h23.5t22.5 1q13 0 39 2h10h72q3 0 8.5 -0.5t8.5 -0.5q6 0 16 2h3q9 0 13 -1q2 0 5.5 -0.5t4.5 -0.5h48q27 2 40 1q30 -2 45 -1q11 1 64 1q0 1 21 1l20 -1q5 0 15.5 -0.5t16.5 -0.5q12 0 18 -1q4 -1 25 -1q11 -1 98 -1q42 -2 65 -2h64 l1 -2q0 -10 2 -24q1 -5 1 -14q1 -8 1 -25v-109v-5h-5h-92q-3 0 -9 -0.5t-8 -0.5q-22 0 -33 1q-9 1 -29 1h-78q-22 -2 -34 -2h-9q-17 -1 -51 -1q-7 0 -21 0.5t-21 0.5h-4q-13 2 -25 0q-35 0 -42 -1q-17 -2 -48 -2h-38h-19q-12 -1 -33.5 -1h-33.5q-2 0 -7 -0.5t-7 -0.5v-6 q0 -2 -0.5 -7.5t-0.5 -8.5v-2q0 -7 0.5 -21t0.5 -22v-2h5h92q8 1 24.5 1t24.5 1q9 1 27.5 1h27.5q12 0 34 2h3h147q11 -1 65 -1q3 0 10.5 0.5t11.5 0.5h52q3 0 9 -1t9 -1h14v-5v-17.5t1 -16.5v-119q0 -16 -1 -25q-2 -1 -8 -1t-8 -1q-5 0 -17 -2h-5h-51q-7 0 -22.5 -0.5 t-23.5 -0.5q-9 0 -27 2h-2q-9 0 -25.5 0.5t-24.5 0.5q-7 0 -21.5 0.5t-21.5 1.5q-17 1 -45 1h-45q-6 -1 -17 -1.5t-15 -0.5q-18 0 -27 -1q-4 -1 -12 -1h-12q-9 -1 -27 -1q-16 -1 -100 -1h-4v-17q0 -5 -1 -15.5t-1 -15.5v-24q10 -2 16 -2h141q2 0 6.5 -0.5t5.5 -0.5 q11 1 32 1q3 0 9 1t9 1q7 0 21 2h16h81q26 0 39 -2q24 -2 48 0h37h32q28 0 42 1q13 1 76 1q6 0 17.5 -0.5t16.5 -0.5q1 0 2 -1h2q1 -14 1 -29t-0.5 -33.5t-0.5 -28.5v-91h-3q-9 0 -25 -2q-15 -3 -29 -3q-16 -1 -45 -1q-6 0 -17 -0.5t-17 -1.5q-32 -2 -62 0q-41 0 -62 1 q-19 0 -29 1h-14t-13 1q-14 1 -81 1q-20 0 -30 -1q-9 -1 -53 -1q-4 0 -10.5 -0.5t-9.5 -0.5h-1q-6 1 -18 0t-18 0q-7 1 -22 1h-23h-19.5t-20.5 1q-12 1 -33 1h-33q-23 1 -65 1.5t-55 0.5q-28 0 -42 1q-24 0 -35 1q-19 1 -58 1h-1q0 1 -0.5 2.5t-0.5 2.5q0 37 1 45 q1 14 0.5 42.5t0.5 43.5q1 8 1 24.5v24.5v20t1 20q3 24 1 54v36.5t-1 37.5q-1 18 -1 107q0 4 1 6q1 5 1 13v17.5v20.5v17q3 30 1 68q-1 13 -1 39.5v39.5v9v1q1 2 1 3zM460 826q-18 22 -27 39q-5 8 -17 24q-2 3 -5.5 10t-5.5 10q-1 1 -3 5q-1 9 -11 21q-24 34 -33 52 q-5 8 -10 19q-12 26 -32 54l-6 9q2 1 5 1h15q10 0 14 1q3 1 10 1h103h94h43h23h6q5 -4 7 -9q22 -43 32 -71q7 -13 11 -25l18 -39q3 -8 8 -16q3 -6 27 -53q2 -4 6 -12.5t6 -12.5q0 -1 1 -2.5t0 -2.5q-1 0 -3 -0.5t-3 -0.5h-21q-15 0 -22 -1q-5 -1 -15.5 -1h-15.5h-39 q-4 0 -11 -0.5t-11 -0.5q-16 -1 -32 0q-19 3 -38 0q-15 -2 -32 0q-6 1 -20 1h-16z" glyph-name="Egrave" horiz-adv-x="1091" unicode=""/><glyph d="M77 697h7h33.5h39h33.5q40 0 60 1h23.5t22.5 1q13 0 39 2h10h72q3 0 8.5 -0.5t8.5 -0.5q6 0 16 2h3q9 0 13 -1q2 0 5.5 -0.5t4.5 -0.5h48q27 2 40 1q30 -2 45 -1q11 1 64 1q0 1 21 1l20 -1q5 0 15.5 -0.5t16.5 -0.5q12 0 18 -1q4 -1 25 -1q11 -1 98 -1q42 -2 65 -2h64 l1 -2q0 -10 2 -24q1 -5 1 -14q1 -8 1 -25v-109v-5h-5h-92q-3 0 -9 -0.5t-8 -0.5q-22 0 -33 1q-9 1 -29 1h-78q-22 -2 -34 -2h-9q-17 -1 -51 -1q-7 0 -21 0.5t-21 0.5h-4q-13 2 -25 0q-35 0 -42 -1q-17 -2 -48 -2h-38h-19q-12 -1 -33.5 -1h-33.5q-2 0 -7 -0.5t-7 -0.5v-6 q0 -2 -0.5 -7.5t-0.5 -8.5v-2q0 -7 0.5 -21t0.5 -22v-2h5h92q8 1 24.5 1t24.5 1q9 1 27.5 1h27.5q12 0 34 2h3h147q11 -1 65 -1q3 0 10.5 0.5t11.5 0.5h52q3 0 9 -1t9 -1h14v-5v-17.5t1 -16.5v-119q0 -16 -1 -25q-2 -1 -8 -1t-8 -1q-5 0 -17 -2h-5h-51q-7 0 -22.5 -0.5 t-23.5 -0.5q-9 0 -27 2h-2q-9 0 -25.5 0.5t-24.5 0.5q-7 0 -21.5 0.5t-21.5 1.5q-17 1 -45 1h-45q-6 -1 -17 -1.5t-15 -0.5q-18 0 -27 -1q-4 -1 -12 -1h-12q-9 -1 -27 -1q-16 -1 -100 -1h-4v-17q0 -5 -1 -15.5t-1 -15.5v-24q10 -2 16 -2h141q2 0 6.5 -0.5t5.5 -0.5 q11 1 32 1q3 0 9 1t9 1q7 0 21 2h16h81q26 0 39 -2q24 -2 48 0h37h32q28 0 42 1q13 1 76 1q6 0 17.5 -0.5t16.5 -0.5q1 0 2 -1h2q1 -14 1 -29t-0.5 -33.5t-0.5 -28.5v-91h-3q-9 0 -25 -2q-15 -3 -29 -3q-16 -1 -45 -1q-6 0 -17 -0.5t-17 -1.5q-32 -2 -62 0q-41 0 -62 1 q-19 0 -29 1h-14t-13 1q-14 1 -81 1q-20 0 -30 -1q-9 -1 -53 -1q-4 0 -10.5 -0.5t-9.5 -0.5h-1q-6 1 -18 0t-18 0q-7 1 -22 1h-23h-19.5t-20.5 1q-12 1 -33 1h-33q-23 1 -65 1.5t-55 0.5q-28 0 -42 1q-24 0 -35 1q-19 1 -58 1h-1q0 1 -0.5 2.5t-0.5 2.5q0 37 1 45 q1 14 0.5 42.5t0.5 43.5q1 8 1 24.5v24.5v20t1 20q3 24 1 54v36.5t-1 37.5q-1 18 -1 107q0 4 1 6q1 5 1 13v17.5v20.5v17q3 30 1 68q-1 13 -1 39.5v39.5v9v1q1 2 1 3zM819 1069q-1 -1 -2 -3t-2 -3q-20 -30 -43 -76q-15 -29 -36 -54q-5 -7 -8 -14q-2 -10 -12 -24 q-5 -7 -14.5 -22t-13.5 -23l-18 -24q-2 -1 -6 -1h-194q-2 0 -6 0.5t-6 0.5t-5 0.5t-4 0.5h-49q-1 0 -4 0.5t-5 0.5q0 2 3 11q4 7 10 20.5t10 20.5q2 2 2 5q2 3 4.5 9t3.5 8q8 11 21 42q10 20 15 31l18 42l21 45q5 9 10 11q9 -4 24 -2q14 2 39.5 2h31.5q12 0 18 -2h11h129 q9 0 25.5 -0.5t24.5 -0.5q4 0 7 -1z" glyph-name="Eacute" horiz-adv-x="1091" unicode=""/><glyph d="M77 697h7h33.5h39h33.5q40 0 60 1h23.5t22.5 1q13 0 39 2h10h72q3 0 8.5 -0.5t8.5 -0.5q6 0 16 2h3q9 0 13 -1q2 0 5.5 -0.5t4.5 -0.5h48q27 2 40 1q30 -2 45 -1q11 1 64 1q0 1 21 1l20 -1q5 0 15.5 -0.5t16.5 -0.5q12 0 18 -1q4 -1 25 -1q11 -1 98 -1q42 -2 65 -2h64 l1 -2q0 -10 2 -24q1 -5 1 -14q1 -8 1 -25v-109v-5h-5h-92q-3 0 -9 -0.5t-8 -0.5q-22 0 -33 1q-9 1 -29 1h-78q-22 -2 -34 -2h-9q-17 -1 -51 -1q-7 0 -21 0.5t-21 0.5h-4q-13 2 -25 0q-35 0 -42 -1q-17 -2 -48 -2h-38h-19q-12 -1 -33.5 -1h-33.5q-2 0 -7 -0.5t-7 -0.5v-6 q0 -2 -0.5 -7.5t-0.5 -8.5v-2q0 -7 0.5 -21t0.5 -22v-2h5h92q8 1 24.5 1t24.5 1q9 1 27.5 1h27.5q12 0 34 2h3h147q11 -1 65 -1q3 0 10.5 0.5t11.5 0.5h52q3 0 9 -1t9 -1h14v-5v-17.5t1 -16.5v-119q0 -16 -1 -25q-2 -1 -8 -1t-8 -1q-5 0 -17 -2h-5h-51q-7 0 -22.5 -0.5 t-23.5 -0.5q-9 0 -27 2h-2q-9 0 -25.5 0.5t-24.5 0.5q-7 0 -21.5 0.5t-21.5 1.5q-17 1 -45 1h-45q-6 -1 -17 -1.5t-15 -0.5q-18 0 -27 -1q-4 -1 -12 -1h-12q-9 -1 -27 -1q-16 -1 -100 -1h-4v-17q0 -5 -1 -15.5t-1 -15.5v-24q10 -2 16 -2h141q2 0 6.5 -0.5t5.5 -0.5 q11 1 32 1q3 0 9 1t9 1q7 0 21 2h16h81q26 0 39 -2q24 -2 48 0h37h32q28 0 42 1q13 1 76 1q6 0 17.5 -0.5t16.5 -0.5q1 0 2 -1h2q1 -14 1 -29t-0.5 -33.5t-0.5 -28.5v-91h-3q-9 0 -25 -2q-15 -3 -29 -3q-16 -1 -45 -1q-6 0 -17 -0.5t-17 -1.5q-32 -2 -62 0q-41 0 -62 1 q-19 0 -29 1h-14t-13 1q-14 1 -81 1q-20 0 -30 -1q-9 -1 -53 -1q-4 0 -10.5 -0.5t-9.5 -0.5h-1q-6 1 -18 0t-18 0q-7 1 -22 1h-23h-19.5t-20.5 1q-12 1 -33 1h-33q-23 1 -65 1.5t-55 0.5q-28 0 -42 1q-24 0 -35 1q-19 1 -58 1h-1q0 1 -0.5 2.5t-0.5 2.5q0 37 1 45 q1 14 0.5 42.5t0.5 43.5q1 8 1 24.5v24.5v20t1 20q3 24 1 54v36.5t-1 37.5q-1 18 -1 107q0 4 1 6q1 5 1 13v17.5v20.5v17q3 30 1 68q-1 13 -1 39.5v39.5v9v1q1 2 1 3zM540 930q-1 -2 -4 -5t-4 -5q-14 -24 -22 -36q-4 -8 -7 -11q-14 -22 -22 -33q-1 -2 -4 -7t-4 -7l-2 -2 q-9 -2 -37 -2q0 1 -18 0h-17h-35q-4 0 -12 -0.5t-12 -0.5q-2 0 -6 0.5t-6 0.5t-8 -0.5t-9 -0.5h-8q-7 0 -22 0.5t-23 0.5h-36h-5q1 3 3 7q7 11 20.5 31t19.5 31q5 8 14.5 22.5t11.5 18.5q11 17 30 43q5 7 15 25q17 25 19 28q6 11 7 13q11 16 13 20q3 5 11 15.5t11 15.5 q1 2 3.5 6t4.5 6q15 22 19 30q2 2 2 3h11h12.5h10.5q10 -2 15 0h3h29h13h22h96h26q1 0 1 -1q3 -5 10 -15.5t11 -15.5q12 -20 17 -29q7 -10 19 -30q7 -10 19 -30.5t19 -30.5q4 -6 12 -16.5t11 -14.5q33 -44 37 -50q3 -4 9 -12.5t9 -12.5q6 -10 10 -15l9 -12t11 -14.5 t10 -12.5q-12 -2 -18 -2h-103h-45q-16 -1 -42.5 -1h-42.5q-3 0 -9 0.5t-10 0.5q-4 8 -10 17l-33 57q-6 11 -14 23q-1 2 -3 5t-3 5z" glyph-name="Ecircumflex" horiz-adv-x="1091" unicode=""/><glyph d="M77 697h7h33.5h39h33.5q40 0 60 1h23.5t22.5 1q13 0 39 2h10h72q3 0 8.5 -0.5t8.5 -0.5q6 0 16 2h3q9 0 13 -1q2 0 5.5 -0.5t4.5 -0.5h48q27 2 40 1q30 -2 45 -1q11 1 64 1q0 1 21 1l20 -1q5 0 15.5 -0.5t16.5 -0.5q12 0 18 -1q4 -1 25 -1q11 -1 98 -1q42 -2 65 -2h64 l1 -2q0 -10 2 -24q1 -5 1 -14q1 -8 1 -25v-109v-5h-5h-92q-3 0 -9 -0.5t-8 -0.5q-22 0 -33 1q-9 1 -29 1h-78q-22 -2 -34 -2h-9q-17 -1 -51 -1q-7 0 -21 0.5t-21 0.5h-4q-13 2 -25 0q-35 0 -42 -1q-17 -2 -48 -2h-38h-19q-12 -1 -33.5 -1h-33.5q-2 0 -7 -0.5t-7 -0.5v-6 q0 -2 -0.5 -7.5t-0.5 -8.5v-2q0 -7 0.5 -21t0.5 -22v-2h5h92q8 1 24.5 1t24.5 1q9 1 27.5 1h27.5q12 0 34 2h3h147q11 -1 65 -1q3 0 10.5 0.5t11.5 0.5h52q3 0 9 -1t9 -1h14v-5v-17.5t1 -16.5v-119q0 -16 -1 -25q-2 -1 -8 -1t-8 -1q-5 0 -17 -2h-5h-51q-7 0 -22.5 -0.5 t-23.5 -0.5q-9 0 -27 2h-2q-9 0 -25.5 0.5t-24.5 0.5q-7 0 -21.5 0.5t-21.5 1.5q-17 1 -45 1h-45q-6 -1 -17 -1.5t-15 -0.5q-18 0 -27 -1q-4 -1 -12 -1h-12q-9 -1 -27 -1q-16 -1 -100 -1h-4v-17q0 -5 -1 -15.5t-1 -15.5v-24q10 -2 16 -2h141q2 0 6.5 -0.5t5.5 -0.5 q11 1 32 1q3 0 9 1t9 1q7 0 21 2h16h81q26 0 39 -2q24 -2 48 0h37h32q28 0 42 1q13 1 76 1q6 0 17.5 -0.5t16.5 -0.5q1 0 2 -1h2q1 -14 1 -29t-0.5 -33.5t-0.5 -28.5v-91h-3q-9 0 -25 -2q-15 -3 -29 -3q-16 -1 -45 -1q-6 0 -17 -0.5t-17 -1.5q-32 -2 -62 0q-41 0 -62 1 q-19 0 -29 1h-14t-13 1q-14 1 -81 1q-20 0 -30 -1q-9 -1 -53 -1q-4 0 -10.5 -0.5t-9.5 -0.5h-1q-6 1 -18 0t-18 0q-7 1 -22 1h-23h-19.5t-20.5 1q-12 1 -33 1h-33q-23 1 -65 1.5t-55 0.5q-28 0 -42 1q-24 0 -35 1q-19 1 -58 1h-1q0 1 -0.5 2.5t-0.5 2.5q0 37 1 45 q1 14 0.5 42.5t0.5 43.5q1 8 1 24.5v24.5v20t1 20q3 24 1 54v36.5t-1 37.5q-1 18 -1 107q0 4 1 6q1 5 1 13v17.5v20.5v17q3 30 1 68q-1 13 -1 39.5v39.5v9v1q1 2 1 3zM293 818q-2 1 -5 1l-1 2q-1 2 -1 7v108v57v7h9q6 -1 19 1h3h43q11 -1 64 -1h65h7v-5v-45q0 -20 -0.5 -61 t-0.5 -62v-5h-3l-1 -1h-17q-38 0 -57 -1q-6 0 -18 -2q-6 -1 -18 -1q-1 1 -3 1q-19 0 -29 1q-8 1 -50 1q-5 0 -6 -2zM595 1000q2 0 6 -0.5t6 -0.5q3 0 7 0.5t6 0.5h3l2 1h43q11 -1 65 -1h64h7q0 -1 0.5 -2.5t0.5 -2.5q0 -30 -1 -46v-93q0 -20 -1 -30v-4q-1 0 -2 -0.5t-2 -0.5 h-30q-7 -1 -22 -1h-22q-3 0 -9 -1t-9 -1q-5 -1 -17 -1l-2 1h-2q-19 0 -29 1q-8 1 -50 1q-5 0 -6 -2q-2 1 -5 1q0 1 -0.5 1t-0.5 1v6v109v57v7z" glyph-name="Edieresis" horiz-adv-x="1091" unicode=""/><glyph d="M365 699q1 -3 4 -4q0 -7 0.5 -20.5t0.5 -19.5q-1 -18 -1 -105q-1 -11 -1 -33.5t-1 -33.5q0 -9 1 -14v-31t1 -31q1 -12 1 -70q-1 -51 -1 -306q0 -6 -2 -22q0 -8 -7 -9q-1 0 -3 -0.5t-3 -0.5q-8 0 -12 -1q-2 0 -3 1q-3 1 -24 1h-2q-14 -2 -20 -2t-18 -0.5t-19 -0.5h-164 h-13q-5 0 -8 4v22v27q1 15 1 45q2 18 1 27q-1 20 -1 54v54q-1 27 -1 73v73q0 7 0.5 20.5t0.5 20.5q1 7 1 19q0 22 -1 33q-1 15 -1 44l1 55q0 56 -1 56q-1 21 -1 63v8q2 5 8 5q5 -1 14 -1.5t14 -0.5h3h31q4 0 12.5 0.5t13.5 0.5q8 -1 23.5 -1t23.5 -1h22q5 0 13 0.5t13 0.5 q5 2 11 0q32 0 39 1h8q5 0 16 0.5t17 0.5q2 0 6 -0.5t7 -0.5zM76 826q-18 22 -27 39q-5 8 -17 24q-2 3 -5.5 10t-5.5 10q-1 1 -3 5q-1 9 -11 21q-24 34 -33 52q-5 8 -10 19q-12 26 -32 54l-6 9q2 1 5 1h15q10 0 14 1q3 1 10 1h103h94h43h23h6q5 -4 7 -9q22 -43 32 -71 q6 -13 11 -25l18 -39q3 -8 8 -16q3 -6 27 -53q2 -4 6 -12.5t6 -12.5q0 -1 1 -2.5t0 -2.5q-1 0 -3 -0.5t-3 -0.5h-21q-15 0 -22 -1q-5 -1 -15.5 -1h-15.5h-39q-4 0 -11 -0.5t-11 -0.5q-16 -1 -32 0q-19 3 -38 0q-15 -2 -32 0q-6 1 -20 1h-16z" glyph-name="Igrave" horiz-adv-x="441" unicode=""/><glyph d="M365 699q1 -3 4 -4q0 -7 0.5 -20.5t0.5 -19.5q-1 -18 -1 -105q-1 -11 -1 -33.5t-1 -33.5q0 -9 1 -14v-31t1 -31q1 -12 1 -70q-1 -51 -1 -306q0 -6 -2 -22q0 -8 -7 -9q-1 0 -3 -0.5t-3 -0.5q-8 0 -12 -1q-2 0 -3 1q-3 1 -24 1h-2q-14 -2 -20 -2t-18 -0.5t-19 -0.5h-164 h-13q-5 0 -8 4v22v27q1 15 1 45q2 18 1 27q-1 20 -1 54v54q-1 27 -1 73v73q0 7 0.5 20.5t0.5 20.5q1 7 1 19q0 22 -1 33q-1 15 -1 44l1 55q0 56 -1 56q-1 21 -1 63v8q2 5 8 5q5 -1 14 -1.5t14 -0.5h3h31q4 0 12.5 0.5t13.5 0.5q8 -1 23.5 -1t23.5 -1h22q5 0 13 0.5t13 0.5 q5 2 11 0q32 0 39 1h8q5 0 16 0.5t17 0.5q2 0 6 -0.5t7 -0.5zM505 1069q-1 -1 -2 -3t-2 -3q-20 -30 -43 -76q-15 -29 -36 -54q-5 -7 -8 -14q-2 -10 -12 -24q-4 -7 -13.5 -22t-14.5 -23l-18 -24q-2 -1 -6 -1h-194q-2 0 -6 0.5t-6 0.5t-5 0.5t-4 0.5h-49q-2 0 -5 0.5t-4 0.5 q0 2 3 11q4 7 10 20.5t10 20.5q2 2 2 5q2 3 4.5 9t3.5 8q8 11 21 42q10 20 15 31l18 42l21 45q5 9 10 11q9 -4 24 -2q14 2 39.5 2h31.5q12 0 18 -2h3h4.5h3.5h129q9 0 25.5 -0.5t24.5 -0.5q4 0 7 -1z" glyph-name="Iacute" horiz-adv-x="441" unicode=""/><glyph d="M365 699q1 -3 4 -4q0 -7 0.5 -20.5t0.5 -19.5q-1 -18 -1 -105q-1 -11 -1 -33.5t-1 -33.5q0 -9 1 -14v-31t1 -31q1 -12 1 -70q-1 -51 -1 -306q0 -6 -2 -22q0 -8 -7 -9q-1 0 -3 -0.5t-3 -0.5q-8 0 -12 -1q-2 0 -3 1q-3 1 -24 1h-2q-14 -2 -20 -2t-18 -0.5t-19 -0.5h-164 h-13q-5 0 -8 4v22v27q1 15 1 45q2 18 1 27q-1 20 -1 54v54q-1 27 -1 73v73q0 7 0.5 20.5t0.5 20.5q1 7 1 19q0 22 -1 33q-1 15 -1 44l1 55q0 56 -1 56q-1 21 -1 63v8q2 5 8 5q5 -1 14 -1.5t14 -0.5h3h31q4 0 12.5 0.5t13.5 0.5q8 -1 23.5 -1t23.5 -1h22q5 0 13 0.5t13 0.5 q5 2 11 0q32 0 39 1h8q5 0 16 0.5t17 0.5q2 0 6 -0.5t7 -0.5zM216 937q-1 -2 -4 -5t-4 -5q-14 -24 -22 -36q-4 -8 -7 -11q-14 -22 -22 -33q-1 -3 -3.5 -7t-4.5 -7l-2 -2q-9 -2 -37 -2q0 1 -18 1l-17 -1h-35q-4 0 -12 -0.5t-12 -0.5q-2 0 -6 0.5t-6 0.5t-8 -0.5t-9 -0.5h-8 q-7 0 -22 0.5t-23 0.5h-36h-5q1 3 3 7q6 11 19.5 31t20.5 31q5 8 14.5 22.5t11.5 18.5q11 17 30 43q5 7 15 25q17 25 19 28q6 11 7 13q11 16 13 20q4 5 11.5 15.5t10.5 15.5q1 2 3.5 6t4.5 6q15 22 19 30q2 2 2 3h34q10 -2 15 0h3h29h13h22h96h26q1 0 1 -1q4 -5 11 -15.5 t10 -15.5q12 -20 17 -29q7 -10 19 -30q6 -10 19 -30.5t19 -30.5q4 -6 12 -16.5t11 -14.5q33 -44 37 -50q3 -4 9 -12.5t9 -12.5q6 -10 10 -15l9 -12t11 -14.5t10 -12.5q-12 -2 -18 -2h-103h-22q-23 1 -23 0q-16 -1 -42.5 -1h-42.5q-3 0 -9 0.5t-10 0.5q-4 8 -10 17l-33 57 q-6 11 -14 23q-1 1 -3 4.5t-3 5.5z" glyph-name="Icircumflex" horiz-adv-x="441" unicode=""/><glyph d="M365 699q1 -3 4 -4q0 -7 0.5 -20.5t0.5 -19.5q-1 -18 -1 -105q-1 -11 -1 -33.5t-1 -33.5q0 -9 1 -14v-31t1 -31q1 -12 1 -70q-1 -51 -1 -306q0 -6 -2 -22q0 -8 -7 -9q-1 0 -3 -0.5t-3 -0.5q-8 0 -12 -1q-2 0 -3 1q-3 1 -24 1h-2q-14 -2 -20 -2t-18 -0.5t-19 -0.5h-164 h-13q-5 0 -8 4v22v27q1 15 1 45q2 18 1 27q-1 20 -1 54v54q-1 27 -1 73v73q0 7 0.5 20.5t0.5 20.5q1 7 1 19q0 22 -1 33q-1 15 -1 44l1 55q0 56 -1 56q-1 21 -1 63v8q2 5 8 5q5 -1 14 -1.5t14 -0.5h3h31q4 0 12.5 0.5t13.5 0.5q8 -1 23.5 -1t23.5 -1h22q5 0 13 0.5t13 0.5 q5 2 11 0q32 0 39 1h8q5 0 16 0.5t17 0.5q2 0 6 -0.5t7 -0.5zM-32 828q-2 1 -5 1l-1 2q-1 2 -1 7v108v57v7h9q6 -1 19 1h3h43q10 -1 64 -1h65h7v-5v-45q0 -20 -0.5 -61t-0.5 -62v-5h-2l-2 -1h-17q-38 0 -57 -1q-6 0 -18 -2q-6 -1 -18 -1q-1 1 -3 1q-19 0 -29 1q-8 1 -50 1 q-5 0 -6 -2zM270 1010q2 0 6 -0.5t6 -0.5q3 0 7 0.5t6 0.5h3l2 1h43q11 -1 65 -1h64h7q0 -1 0.5 -2.5t0.5 -2.5q0 -30 -1 -46v-93q0 -20 -1 -30v-4h-2l-2 -1h-30q-7 -1 -21.5 -1h-22.5q-3 0 -9 -1t-9 -1q-5 -1 -17 -1l-1 1h-3q-19 0 -29 1q-8 1 -50 1q-5 0 -6 -2q-2 1 -5 1 q0 1 -0.5 1t-0.5 1v6v109v57v7z" glyph-name="Idieresis" horiz-adv-x="441" unicode=""/><glyph d="M189 269q-78 0 -117 3q-1 1 -1 7q0 63 1 75q1 16 1 44v44q0 3 1 4v1q3 1 7 1h50q24 -2 37 -2h19q6 3 4 7q-2 5 -2 15v118q0 11 2 16v11v54q0 3 0.5 9.5t0.5 10.5q4 2 6 2h34q5 0 11 2h4q7 0 21 1.5t21 1.5h47q3 0 10.5 -0.5t11.5 -0.5q14 -2 28 0q5 1 17 1q18 1 56 1 q3 0 10 0.5t10 0.5q13 0 54 1t63 0q40 -1 81 0q37 2 112 2t112 -1h33q22 0 26 -1h13q13 -1 39 -1q18 0 22 -1q2 -1 5 -1q7 1 40 -2q32 -5 57 -16q27 -13 45 -29q28 -22 49 -58q8 -15 13 -34q1 -3 1 -9.5t1 -9.5q4 -28 3 -41q0 -5 2 -13q0 -15 1 -23q0 -13 1 -15v-3 q0 -10 2 -29t2 -25q0 -25 2 -38q1 -7 1.5 -20t0.5 -17v-53q0 -8 -2 -22q-1 -8 -1 -24q1 -21 -7 -61q0 -2 -1 -6.5t-2 -6.5q-3 -9 -11 -23q-3 -5 -10.5 -14.5t-11.5 -14.5t-9 -10.5t-11.5 -12t-9.5 -10.5q-20 -20 -36 -28q-3 -1 -13 -7t-16 -8q-17 -6 -37 -9q-4 -1 -13 -1.5 t-14 -2.5h-2q-2 0 -3 -1q-15 0 -22 -1q-3 -1 -18 -1h-58h-22h-122q-12 0 -17 -1q-9 -3 -19 -1q-14 2 -21 2q-119 0 -142 -1h-58.5t-59.5 -1q-11 0 -17 1q-5 1 -15 1h-106h-35q-1 0 -4.5 0.5t-5.5 0.5q-3 1 -8 1h-98q-10 0 -12 1q0 2 -1 5.5t-1.5 6.5t-0.5 6v94v8.5v10v8.5 q2 13 2 61q1 0 1 30l-1 30v11zM490 192l3 -1q9 -1 26 -1t26 -1q27 -3 53 -3h5q15 0 43 -2h80h12q9 2 25 2h35q12 0 17 1q7 1 21 1q24 -1 46 3q15 2 26 7q13 4 18 9q14 16 18 26q6 14 8 22q1 2 1.5 6.5t0.5 6.5q4 22 4 32q-1 29 -1 88q0 20 -2 30q-4 26 -9 38q-4 10 -13 23 q-5 6 -15 16q-10 5 -15 6q-16 2 -26 2q-6 0 -9 1q-4 1 -27 1q-14 1 -41 1h-7q-12 2 -18 2h-76h-196h-8h-3l-2 -1q-1 -6 -3 -16q-1 -7 -1 -21v-21q4 -3 14 -3h47q6 0 9 1q2 0 5.5 0.5t5.5 0.5q4 0 12 -0.5t12 -0.5q35 -1 105 -1q3 0 7 0.5t6 0.5q14 1 41 1q1 -1 2 -1 q2 0 6 -0.5t7 -0.5h79h25q7 -2 8 -5q0 -11 1 -14q1 -5 1 -15v-122q0 -13 -3 -19h-27q-18 -2 -27 -2h-45q-17 0 -25 -2h-7h-139h-13q-12 2 -17 2h-80q-4 0 -6 -2v-37q-1 -38 0 -38z" glyph-name="Eth" horiz-adv-x="1330" unicode=""/><glyph d="M73 -3q-2 2 -2 6v20q0 1 1 4v116q-1 9 -1.5 25.5t-0.5 21.5q0 13 1 19q0 10 2 34v1v54q-2 32 -1 49q1 21 1 62v36q-1 15 -1 44t-1 44v23q0 11 1 17q0 2 0.5 4.5t0.5 3.5v81q0 2 -0.5 7t-0.5 7v6q2 0 6 1t6 1q13 0 20 1q9 1 25.5 1h25.5q17 1 47 1.5t39 0.5q6 0 18 -1 t17 -1h92q10 0 16 -6q10 -9 25 -20q20 -14 29 -22q1 -2 9 -7q6 -5 17.5 -15t17.5 -15q21 -16 23 -17q15 -13 37 -29q15 -12 26 -19q6 -5 18 -14.5t18 -14.5q2 -1 6 -3.5t6 -4.5q17 -14 29 -22q6 -5 17.5 -14.5t17.5 -14.5q18 -16 27 -23q7 -7 11 -10q2 -2 22 -16 q19 -15 25 -20q14 -12 23 -19q4 -4 12.5 -10t10.5 -7q3 -2 8.5 -7t8.5 -7q2 -2 7.5 -6t6.5 -5v5v128q0 5 -0.5 16t-0.5 17v38q2 14 1 20q-1 7 -1 21q1 6 1 39v37v18t-1 18q0 5 2 7q12 2 18 2q76 0 114 -1h58q9 0 31 2h17h51q1 0 3 -0.5t4 -0.5v-4v-17.5v-20.5v-17 q1 -27 1 -72.5v-72.5q2 -42 1 -63q-1 -24 -1 -139v-107q0 -46 1 -69q2 -29 1 -43q0 -6 -0.5 -18t-0.5 -18q0 -4 -0.5 -10.5t-0.5 -9.5t-3 -6h-2q-17 0 -20 -1h-9h-14q-24 1 -72 1h-24q-28 1 -84 1q-11 0 -33 -0.5t-33 -0.5h-13q-6 0 -11 5q-2 2 -10 8t-12 10t-9.5 8 t-12.5 8.5t-11 7.5q-5 4 -14.5 12t-14.5 12q-6 4 -16 12q-7 5 -21 17q-2 1 -5 4q-4 6 -11 10q-4 3 -8.5 6.5t-10 8t-8.5 6.5q-5 4 -15.5 13t-15.5 13q-8 7 -23.5 18.5t-19.5 14.5q-3 2 -7 5.5t-5 4.5q-23 17 -25 19q-6 4 -16.5 12.5t-11.5 9.5q-10 7 -11 9q-3 4 -10 9.5 t-10 8.5q-8 6 -13 9q-22 19 -44 35q-7 7 -14 10l-1 1q-14 12 -21 17l-24 21v-4q0 -27 -1 -41v-22v-26.5v-22.5v-13.5v-16v-13.5q1 0 0 -35v-36q1 -33 1 -98v-27v-7q-5 -1 -12 -1q-3 -1 -9.5 -1h-9.5h-37t-38 -1q-33 -1 -88.5 -1h-88.5q-2 0 -7 0.5t-8 0.5zM706 826h-2 q-9 0 -29 4h-2q-2 1 -3 1l-8 2q-18 4 -28 6l-12 3q-4 1 -10 3q-3 0 -9 2q-2 0 -4.5 0.5t-3.5 0.5q-8 2 -13 4l-6 1q-3 0 -9 2q-5 2 -19 4l-15 3q-8 3 -14 3q-13 -3 -23 -19q-2 -2 -4 -6q-1 -2 -3 -4l-3 -6l-6 -1q-8 -2 -11 -2q-2 0 -10 2q-2 1 -7 2t-7 1l-39 9q-2 0 -28 6 q-8 2 -13 3q-2 0 -7 1.5t-8 2.5t-7 3q-1 0 -3 0.5t-3 0.5q-2 1 -8 3q-12 3 -17 15l-1 5l1 4q2 4 4 12q2 9 8 27q10 29 25 50q10 15 16 20q25 21 45 33q22 12 35 16q14 5 31 7q6 1 21 1h13h6q12 0 21 -3l5 -1q22 -4 55 -11q6 -1 16.5 -3.5t13.5 -3.5t9 -2.5t9 -2.5 q4 -1 12 -2.5t12 -2.5l12 -3q8 -2 15 -2q5 0 6 1h2q11 3 14 9v1q2 2 4.5 6t3.5 6q1 3 4 6l2 2l2 3l5 2q3 1 9 1t12 -2t10 -2h3q19 -3 37 -9q41 -12 45 -13q3 -1 7 -2t7 -1q4 0 12 -2h1q12 -4 16 -9l4 -4l-1 -7q0 -4 -1 -7q0 -2 -2 -6t-2 -6l-3 -9q-2 -6 -3 -10 q-1 -2 -2.5 -6.5t-2.5 -6.5t-2.5 -6t-1.5 -5q-7 -22 -10 -27q-9 -19 -19 -28q-10 -12 -21 -20q-12 -10 -19 -13q-28 -15 -55 -20q-3 -1 -11 -1l-2 -1h-2q-4 0 -5 -1q-2 0 -5.5 -0.5t-6.5 -0.5h-19z" glyph-name="Ntilde" horiz-adv-x="1213" unicode=""/><glyph d="M1161 279q-1 -1 -1 -3q0 -7 -1 -22t-1 -23q-1 -17 -1 -51q0 -3 -1 -9t-1 -8q0 -8 -4 -22q-9 -30 -15 -43q-6 -12 -15 -24q-15 -18 -16 -19q-6 -7 -22 -19q-15 -11 -49 -25q-17 -5 -51 -13q-8 -2 -14 -2q-9 0 -26 -0.5t-25 -0.5q-4 0 -10.5 -0.5t-9.5 -0.5q-24 1 -65 1 h-65q-5 0 -20 -1t-24 0q-20 1 -59 1q-45 0 -68 -1q-46 -1 -91 0h-37t-37 1q-16 1 -93 1q-9 0 -26 -0.5t-25 -0.5q-7 0 -19 2q-8 0 -12 1q-4 0 -12.5 2t-12.5 3q-10 2 -30 8q-4 1 -20 7q-18 5 -36 20q-17 12 -32 32q-9 10 -15 21q-7 13 -14 34q-2 6 -4.5 16.5t-3.5 14.5 t-1 12q-2 12 -2 37q0 28 -1 42q-1 4 -1 14v15q-1 7 -1 41q1 18 1 48v48q0 6 0.5 17t1.5 17q0 13 1 19q1 5 1 15v15t2 17q0 2 0.5 5.5t0.5 5.5q1 7 8 29q3 10 8 23q6 14 22 34q2 2 5.5 6.5t6.5 7.5t20 18q18 13 50 24q10 4 43 13q14 2 20 2l18 3h3q24 1 71 1h155 q37 -1 111 -1h48q43 3 97 1q35 -1 105 -1q9 -1 26 -1.5t26 -0.5q4 0 13 -0.5t13 -0.5q1 -1 3 -1q24 0 48 -6q19 -3 34 -9q16 -4 42 -19q1 -1 5 -3q13 -5 27 -22q16 -18 22 -28q11 -15 15 -33q6 -20 9 -29q0 -2 0.5 -6.5t1.5 -6.5q0 -7 2 -17v-4v-16q0 -32 1 -49 q0 -4 1 -13.5t1 -14.5q0 -4 1 -4v-46l-1 -1v-27q0 -1 1 -1v-46zM703 173h17q41 0 52 2q21 3 33 12q8 4 22 14q23 19 25 51q0 3 1 4q0 2 0.5 7t0.5 8q1 6 1.5 17.5t0.5 17.5q0 62 -1 75q-1 2 0 5t1 4v22t-1 22q-1 14 -11 27q-3 4 -9.5 11t-9.5 10q-18 15 -32 18q-5 1 -14.5 3 t-13.5 2q-10 0 -14 1q-5 0 -13.5 1t-12.5 1q-44 0 -53 -1q-6 -1 -18 -1q-16 0 -49.5 0.5t-50.5 0.5q-39 0 -59 -2h-2q-8 0 -22 -2q-4 0 -14 -2q-10 -1 -28 -9q-19 -8 -27 -18q-12 -14 -14 -21q-4 -14 -5 -21q-1 -4 -1 -13q0 -3 -1 -7.5t-1.5 -8.5t-0.5 -8v-45t1 -45 q1 0 0 -28v-28q0 -2 1 -6t1 -6q7 -22 20 -34q3 -4 9 -10q2 -5 9 -8q14 -7 17 -8q6 -2 10 -2q5 -1 14 -1t14 -1h22q104 0 125 -1q8 0 26 0.5t26 0.5h29zM500 826q-18 22 -27 39q-5 8 -17 24q-2 3 -5.5 10t-5.5 10q-1 1 -3 5q-1 9 -11 21q-24 34 -33 52q-5 8 -10 19 q-12 26 -32 54l-6 9q2 1 5 1h15q10 0 14 1q3 1 10 1h103h94h43h23h6q5 -4 7 -9q21 -43 32 -71q6 -13 11 -25l18 -39q3 -8 8 -16q3 -6 27 -53q2 -4 6 -12.5t6 -12.5q0 -1 1 -2.5t0 -2.5q-1 0 -3 -0.5t-3 -0.5h-21q-15 0 -22 -1q-5 -1 -15.5 -1h-15.5h-39q-4 0 -11 -0.5 t-11 -0.5q-16 -1 -32 0q-19 3 -38 0q-15 -2 -32 0q-6 1 -20 1h-16z" glyph-name="Ograve" unicode=""/><glyph d="M1161 279q-1 -1 -1 -3q0 -7 -1 -22t-1 -23q-1 -17 -1 -51q0 -3 -1 -9t-1 -8q0 -8 -4 -22q-9 -30 -15 -43q-6 -12 -15 -24q-15 -18 -16 -19q-6 -7 -22 -19q-15 -11 -49 -25q-17 -5 -51 -13q-8 -2 -14 -2q-9 0 -26 -0.5t-25 -0.5q-4 0 -10.5 -0.5t-9.5 -0.5q-24 1 -65 1 h-65q-5 0 -20 -1t-24 0q-20 1 -59 1q-45 0 -68 -1q-46 -1 -91 0h-37t-37 1q-16 1 -93 1q-9 0 -26 -0.5t-25 -0.5q-7 0 -19 2q-8 0 -12 1q-4 0 -12.5 2t-12.5 3q-10 2 -30 8q-4 1 -20 7q-18 5 -36 20q-17 12 -32 32q-9 10 -15 21q-7 13 -14 34q-2 6 -4.5 16.5t-3.5 14.5 t-1 12q-2 12 -2 37q0 28 -1 42q-1 4 -1 14v15q-1 7 -1 41q1 18 1 48v48q0 6 0.5 17t1.5 17q0 13 1 19q1 5 1 15v15t2 17q0 2 0.5 5.5t0.5 5.5q1 7 8 29q3 10 8 23q6 14 22 34q2 2 5.5 6.5t6.5 7.5t20 18q18 13 50 24q10 4 43 13q14 2 20 2l18 3h3q24 1 71 1h155 q37 -1 111 -1h48q43 3 97 1q35 -1 105 -1q9 -1 26 -1.5t26 -0.5q4 0 13 -0.5t13 -0.5q1 -1 3 -1q24 0 48 -6q19 -3 34 -9q16 -4 42 -19q1 -1 5 -3q13 -5 27 -22q16 -18 22 -28q11 -15 15 -33q6 -20 9 -29q0 -2 0.5 -6.5t1.5 -6.5q0 -7 2 -17v-4v-16q0 -32 1 -49 q0 -4 1 -13.5t1 -14.5q0 -4 1 -4v-46l-1 -1v-27q0 -1 1 -1v-46zM703 173h17q41 0 52 2q21 3 33 12q8 4 22 14q23 19 25 51q0 3 1 4q0 2 0.5 7t0.5 8q1 6 1.5 17.5t0.5 17.5q0 62 -1 75q-1 2 0 5t1 4v22t-1 22q-1 14 -11 27q-3 4 -9.5 11t-9.5 10q-18 15 -32 18q-5 1 -14.5 3 t-13.5 2q-10 0 -14 1q-5 0 -13.5 1t-12.5 1q-44 0 -53 -1q-6 -1 -18 -1q-16 0 -49.5 0.5t-50.5 0.5q-39 0 -59 -2h-2q-8 0 -22 -2q-4 0 -14 -2q-10 -1 -28 -9q-19 -8 -27 -18q-12 -14 -14 -21q-4 -14 -5 -21q-1 -4 -1 -13q0 -3 -1 -7.5t-1.5 -8.5t-0.5 -8v-45t1 -45 q1 0 0 -28v-28q0 -2 1 -6t1 -6q7 -22 20 -34q3 -4 9 -10q2 -5 9 -8q14 -7 17 -8q6 -2 10 -2q5 -1 14 -1t14 -1h22q104 0 125 -1q8 0 26 0.5t26 0.5h29zM870 1069q-1 -1 -2 -3t-2 -3q-20 -30 -43 -76q-15 -29 -36 -54q-5 -7 -8 -14q-2 -10 -12 -24q-5 -7 -14 -22t-14 -23 l-18 -24q-2 -1 -6 -1h-194q-2 0 -6 0.5t-6 0.5q-1 0 -4 0.5t-5 0.5h-49q-1 0 -4 0.5t-5 0.5q0 2 3 11q4 7 10 20.5t10 20.5q2 2 2 5q2 3 4.5 9t3.5 8q8 11 21 42q10 20 15 31l18 42l21 45q5 9 10 11q9 -4 24 -2q14 2 39.5 2h31.5q12 0 18 -2h11h129q9 0 25.5 -0.5t24.5 -0.5 q4 0 7 -1z" glyph-name="Oacute" unicode=""/><glyph d="M1161 279q-1 -1 -1 -3q0 -7 -1 -22t-1 -23q-1 -17 -1 -51q0 -3 -1 -9t-1 -8q0 -8 -4 -22q-9 -30 -15 -43q-6 -12 -15 -24q-15 -18 -16 -19q-6 -7 -22 -19q-15 -11 -49 -25q-17 -5 -51 -13q-8 -2 -14 -2q-9 0 -26 -0.5t-25 -0.5q-4 0 -10.5 -0.5t-9.5 -0.5q-24 1 -65 1 h-65q-5 0 -20 -1t-24 0q-20 1 -59 1q-45 0 -68 -1q-46 -1 -91 0h-37t-37 1q-16 1 -93 1q-9 0 -26 -0.5t-25 -0.5q-7 0 -19 2q-8 0 -12 1q-4 0 -12.5 2t-12.5 3q-10 2 -30 8q-4 1 -20 7q-18 5 -36 20q-17 12 -32 32q-9 10 -15 21q-7 13 -14 34q-2 6 -4.5 16.5t-3.5 14.5 t-1 12q-2 12 -2 37q0 28 -1 42q-1 4 -1 14v15q-1 7 -1 41q1 18 1 48v48q0 6 0.5 17t1.5 17q0 13 1 19q1 5 1 15v15t2 17q0 2 0.5 5.5t0.5 5.5q1 7 8 29q3 10 8 23q6 14 22 34q2 2 5.5 6.5t6.5 7.5t20 18q18 13 50 24q10 4 43 13q14 2 20 2l18 3h3q24 1 71 1h155 q37 -1 111 -1h48q43 3 97 1q35 -1 105 -1q9 -1 26 -1.5t26 -0.5q4 0 13 -0.5t13 -0.5q1 -1 3 -1q24 0 48 -6q19 -3 34 -9q16 -4 42 -19q1 -1 5 -3q13 -5 27 -22q16 -18 22 -28q11 -15 15 -33q6 -20 9 -29q0 -2 0.5 -6.5t1.5 -6.5q0 -7 2 -17v-4v-16q0 -32 1 -49 q0 -4 1 -13.5t1 -14.5q0 -4 1 -4v-46l-1 -1v-27q0 -1 1 -1v-46zM703 173h17q41 0 52 2q21 3 33 12q8 4 22 14q23 19 25 51q0 3 1 4q0 2 0.5 7t0.5 8q1 6 1.5 17.5t0.5 17.5q0 62 -1 75q-1 2 0 5t1 4v22t-1 22q-1 14 -11 27q-3 4 -9.5 11t-9.5 10q-18 15 -32 18q-5 1 -14.5 3 t-13.5 2q-10 0 -14 1q-5 0 -13.5 1t-12.5 1q-44 0 -53 -1q-6 -1 -18 -1q-16 0 -49.5 0.5t-50.5 0.5q-39 0 -59 -2h-2q-8 0 -22 -2q-4 0 -14 -2q-10 -1 -28 -9q-19 -8 -27 -18q-12 -14 -14 -21q-4 -14 -5 -21q-1 -4 -1 -13q0 -3 -1 -7.5t-1.5 -8.5t-0.5 -8v-45t1 -45 q1 0 0 -28v-28q0 -2 1 -6t1 -6q7 -22 20 -34q3 -4 9 -10q2 -5 9 -8q14 -7 17 -8q6 -2 10 -2q5 -1 14 -1t14 -1h22q104 0 125 -1q8 0 26 0.5t26 0.5h29zM610 937q-1 -2 -4 -5t-4 -5q-14 -24 -22 -36q-4 -8 -7 -11q-14 -22 -22 -33q-1 -3 -4 -7t-4 -7l-2 -2q-9 -2 -37 -2h-35 h-35q-4 0 -12 -0.5t-12 -0.5q-2 0 -6 0.5t-6 0.5t-8 -0.5t-9 -0.5h-8q-7 0 -22 0.5t-23 0.5h-36h-5q1 3 3 7q6 11 19.5 31t20.5 31q5 8 14.5 22.5t11.5 18.5q11 17 30 43q5 7 15 25q17 25 19 28q5 11 7 13q11 16 13 20q4 5 11.5 15.5t10.5 15.5q1 2 3.5 6t4.5 6q15 22 19 30 q2 2 2 3h11h12.5h10.5q10 -2 15 0h3h29h13h22h96h26q1 0 1 -1q3 -5 10 -15.5t11 -15.5q12 -20 17 -29q7 -10 19 -30q6 -10 18.5 -30.5t19.5 -30.5q4 -6 12 -16.5t11 -14.5q33 -44 37 -50q3 -4 9 -12.5t9 -12.5q6 -10 10 -15l30 -39q-12 -2 -18 -2h-103h-22q-23 1 -23 0 q-16 -1 -42.5 -1h-42.5q-3 0 -9 0.5t-10 0.5q-4 8 -10 17l-33 57q-6 11 -14 23q-1 1 -3 5t-3 5z" glyph-name="Ocircumflex" unicode=""/><glyph d="M1161 279q-1 -1 -1 -3q0 -7 -1 -22t-1 -23q-1 -17 -1 -51q0 -3 -1 -9t-1 -8q0 -8 -4 -22q-9 -30 -15 -43q-6 -12 -15 -24q-15 -18 -16 -19q-6 -7 -22 -19q-15 -11 -49 -25q-17 -5 -51 -13q-8 -2 -14 -2q-9 0 -26 -0.5t-25 -0.5q-4 0 -10.5 -0.5t-9.5 -0.5q-24 1 -65 1 h-65q-5 0 -20 -1t-24 0q-20 1 -59 1q-45 0 -68 -1q-46 -1 -91 0h-37t-37 1q-16 1 -93 1q-9 0 -26 -0.5t-25 -0.5q-7 0 -19 2q-8 0 -12 1q-4 0 -12.5 2t-12.5 3q-10 2 -30 8q-4 1 -20 7q-18 5 -36 20q-17 12 -32 32q-9 10 -15 21q-7 13 -14 34q-2 6 -4.5 16.5t-3.5 14.5 t-1 12q-2 12 -2 37q0 28 -1 42q-1 4 -1 14v15q-1 7 -1 41q1 18 1 48v48q0 6 0.5 17t1.5 17q0 13 1 19q1 5 1 15v15t2 17q0 2 0.5 5.5t0.5 5.5q1 7 8 29q3 10 8 23q6 14 22 34q2 2 5.5 6.5t6.5 7.5t20 18q18 13 50 24q10 4 43 13q14 2 20 2l18 3h3q24 1 71 1h155 q37 -1 111 -1h48q43 3 97 1q35 -1 105 -1q9 -1 26 -1.5t26 -0.5q4 0 13 -0.5t13 -0.5q1 -1 3 -1q24 0 48 -6q19 -3 34 -9q16 -4 42 -19q1 -1 5 -3q13 -5 27 -22q16 -18 22 -28q11 -15 15 -33q6 -20 9 -29q0 -2 0.5 -6.5t1.5 -6.5q0 -7 2 -17v-4v-16q0 -32 1 -49 q0 -4 1 -13.5t1 -14.5q0 -4 1 -4v-46l-1 -1v-27q0 -1 1 -1v-46zM703 173h17q41 0 52 2q21 3 33 12q8 4 22 14q23 19 25 51q0 3 1 4q0 2 0.5 7t0.5 8q1 6 1.5 17.5t0.5 17.5q0 62 -1 75q-1 2 0 5t1 4v22t-1 22q-1 14 -11 27q-3 4 -9.5 11t-9.5 10q-18 15 -32 18q-5 1 -14.5 3 t-13.5 2q-10 0 -14 1q-5 0 -13.5 1t-12.5 1q-44 0 -53 -1q-6 -1 -18 -1q-16 0 -49.5 0.5t-50.5 0.5q-39 0 -59 -2h-2q-8 0 -22 -2q-4 0 -14 -2q-10 -1 -28 -9q-19 -8 -27 -18q-12 -14 -14 -21q-4 -14 -5 -21q-1 -4 -1 -13q0 -3 -1 -7.5t-1.5 -8.5t-0.5 -8v-45t1 -45 q1 0 0 -28v-28q0 -2 1 -6t1 -6q7 -22 20 -34q3 -4 9 -10q2 -5 9 -8q14 -7 17 -8q6 -2 10 -2q5 -1 14 -1t14 -1h22q104 0 125 -1q8 0 26 0.5t26 0.5h29zM715 826h-2q-9 0 -29 4h-2q-2 1 -3 1l-8 2q-18 4 -28 6l-12 3q-4 1 -10 3q-3 0 -9 2q-2 0 -4.5 0.5t-3.5 0.5q-8 2 -13 4 l-6 1q-3 0 -9 2q-5 2 -19 4l-15 3q-7 3 -14 3q-13 -3 -23 -19q-2 -2 -4 -6q-1 -2 -3 -4l-3 -6l-6 -1q-8 -2 -11 -2q-2 0 -10 2q-2 1 -6.5 2t-7.5 1l-39 9q-2 0 -28 6q-8 2 -13 3q-2 0 -7 1.5t-8 2.5t-7 3q-1 0 -3 0.5t-3 0.5q-2 1 -8 3q-12 3 -17 15l-1 5l1 4q2 4 4 12 q2 9 8 27q10 29 25 50q10 15 16 20q25 21 45 33q22 12 35 16q14 5 31 7q6 1 21 1h13h6q12 0 21 -3l5 -1q22 -4 55 -11q6 -1 16.5 -3.5t13.5 -3.5t9 -2.5t9 -2.5q4 -1 12 -2.5t12 -2.5l12 -3q8 -2 15 -2q5 0 6 1h2q11 3 14 9v1q1 2 3.5 6t4.5 6q1 3 4 6l2 2l2 3l5 2q3 1 9 1 t12 -2t10 -2h3q19 -3 37 -9q41 -12 45 -13q2 -1 7 -2t7 -1q4 0 12 -2h1q12 -4 16 -9l4 -4l-1 -7q0 -4 -1 -7q-1 -2 -2 -6t-2 -6l-3 -9q-2 -6 -3 -10q-1 -2 -2.5 -6.5t-2.5 -6.5t-2.5 -6t-1.5 -5q-8 -22 -10 -27q-9 -19 -19 -28q-10 -12 -21 -20q-12 -10 -19 -13 q-28 -15 -55 -20q-3 -1 -11 -1q-1 0 -2 -0.5t-2 -0.5q-4 0 -5 -1q-2 0 -5.5 -0.5t-6.5 -0.5h-19z" glyph-name="Otilde" unicode=""/><glyph d="M1161 279q-1 -1 -1 -3q0 -7 -1 -22t-1 -23q-1 -17 -1 -51q0 -3 -1 -9t-1 -8q0 -8 -4 -22q-9 -30 -15 -43q-6 -12 -15 -24q-15 -18 -16 -19q-6 -7 -22 -19q-15 -11 -49 -25q-17 -5 -51 -13q-8 -2 -14 -2q-9 0 -26 -0.5t-25 -0.5q-4 0 -10.5 -0.5t-9.5 -0.5q-24 1 -65 1 h-65q-5 0 -20 -1t-24 0q-20 1 -59 1q-45 0 -68 -1q-46 -1 -91 0h-37t-37 1q-16 1 -93 1q-9 0 -26 -0.5t-25 -0.5q-7 0 -19 2q-8 0 -12 1q-4 0 -12.5 2t-12.5 3q-10 2 -30 8q-4 1 -20 7q-18 5 -36 20q-17 12 -32 32q-9 10 -15 21q-7 13 -14 34q-2 6 -4.5 16.5t-3.5 14.5 t-1 12q-2 12 -2 37q0 28 -1 42q-1 4 -1 14v15q-1 7 -1 41q1 18 1 48v48q0 6 0.5 17t1.5 17q0 13 1 19q1 5 1 15v15t2 17q0 2 0.5 5.5t0.5 5.5q1 7 8 29q3 10 8 23q6 14 22 34q2 2 5.5 6.5t6.5 7.5t20 18q18 13 50 24q10 4 43 13q14 2 20 2l18 3h3q24 1 71 1h155 q37 -1 111 -1h48q43 3 97 1q35 -1 105 -1q9 -1 26 -1.5t26 -0.5q4 0 13 -0.5t13 -0.5q1 -1 3 -1q24 0 48 -6q19 -3 34 -9q16 -4 42 -19q1 -1 5 -3q13 -5 27 -22q16 -18 22 -28q11 -15 15 -33q6 -20 9 -29q0 -2 0.5 -6.5t1.5 -6.5q0 -7 2 -17v-4v-16q0 -32 1 -49 q0 -4 1 -13.5t1 -14.5q0 -4 1 -4v-46l-1 -1v-27q0 -1 1 -1v-46zM703 173h17q41 0 52 2q21 3 33 12q8 4 22 14q23 19 25 51q0 3 1 4q0 2 0.5 7t0.5 8q1 6 1.5 17.5t0.5 17.5q0 62 -1 75q-1 2 0 5t1 4v22t-1 22q-1 14 -11 27q-3 4 -9.5 11t-9.5 10q-18 15 -32 18q-5 1 -14.5 3 t-13.5 2q-10 0 -14 1q-5 0 -13.5 1t-12.5 1q-44 0 -53 -1q-6 -1 -18 -1q-16 0 -49.5 0.5t-50.5 0.5q-39 0 -59 -2h-2q-8 0 -22 -2q-4 0 -14 -2q-10 -1 -28 -9q-19 -8 -27 -18q-12 -14 -14 -21q-4 -14 -5 -21q-1 -4 -1 -13q0 -3 -1 -7.5t-1.5 -8.5t-0.5 -8v-45t1 -45 q1 0 0 -28v-28q0 -2 1 -6t1 -6q7 -22 20 -34q3 -4 9 -10q2 -5 9 -8q14 -7 17 -8q6 -2 10 -2q5 -1 14 -1t14 -1h22q104 0 125 -1q8 0 26 0.5t26 0.5h29zM364 827q-2 1 -5 1l-1 2q-1 2 -1 7v108v57v7h9q6 -1 19 1h3h13.5h16h13.5q10 -1 64 -1h65h7v-5v-45q0 -21 -0.5 -62 t-0.5 -61v-5q-1 0 -2 -1h-2h-17q-38 0 -57 -1q-6 0 -18 -2q-6 -1 -18 -1q-1 1 -3 1q-19 0 -29 1q-9 1 -50 1q-5 0 -6 -2zM666 1009q2 0 6 -0.5t6 -0.5q3 0 7 0.5t6 0.5q1 0 3 1h2h14h16h13q11 -1 65 -1h64h7q0 -1 0.5 -2.5t0.5 -2.5q0 -30 -1 -46v-93q0 -20 -1 -30v-4 q-1 0 -4 -1h-30h-22t-22 -1q-3 0 -9 -1t-9 -1q-5 -1 -17 -1h-1q-2 1 -3 1q-19 0 -29 1q-9 1 -50 1q-5 0 -6 -2q-2 1 -5 1l-1 1v1v6v109v57v7z" glyph-name="Odieresis" unicode=""/><glyph d="M644 699q4 5 9 15.5t6 12.5l13 26q5 5 16 5h71h52q14 0 21 -2h7h19t20 1q4 1 27 1h55q8 0 10 -1q0 -7 -5 -14q-6 -13 -20 -39l-3 -6l2 -1q14 -2 20 -2q18 -1 36 -6q34 -8 52 -16q2 -1 5 -2t4 -2q13 -7 17 -9q18 -8 33 -28q2 -4 7.5 -11t8.5 -10q7 -9 14 -27 q10 -28 12 -43q1 -2 1 -6t1 -6q2 -11 2.5 -23t0.5 -27v-23q0 -10 1 -14v-5q0 -11 0.5 -34t0.5 -35v-45q0 -34 -1 -51v-7q0 -1 -0.5 -4t-0.5 -5q0 -35 -1 -52q0 -10 -1 -15q-1 -3 -1 -10t-4 -21q-5 -20 -12 -39q-7 -17 -18 -30q-7 -7 -13 -16q-17 -17 -32 -27q-6 -4 -32 -16 q-15 -6 -33 -10q-4 -1 -13 -3.5t-14 -3.5q-8 -2 -11 -2h-25q-27 -2 -76.5 -2h-61.5h-64h-72q-3 0 -9 1t-9 1q-12 -1 -34.5 -1.5t-29.5 -0.5q-2 0 -3 -1q-13 -24 -37 -72h-2l-2 -1q-75 0 -112 1q-25 0 -32 2h-6h-117q-1 0 -5 -0.5t-5 -0.5q-5 -1 -15 -1q-1 3 1 5l27 54 q1 2 3 5.5t3 5.5v4q-1 0 -3 0.5t-3 0.5q-20 0 -43 5q-2 0 -16 3.5t-21 5.5q-9 4 -27 10q-25 9 -49 33q-4 4 -8 9t-8.5 11.5t-7.5 9.5q-8 11 -13 24q-11 37 -12 40t-1 9l-3 27v27v4q-2 8 -2.5 16.5t-0.5 19v16.5q0 13 -1 16v7v25q0 7 1 10v9v75q0 23 1 35q0 5 2 13v13v6 q0 1 3 43q0 6 2 14q12 39 17 48q5 12 12 20q16 21 29 33q18 15 36 23q21 9 67 22q3 1 6.5 1.5t8 1t6.5 0.5q14 3 55 3q52 3 63 2q2 0 6 -0.5t7 -0.5h9h58h19q11 2 21 0q5 0 13 -0.5t12 -0.5h110h9zM683 189q1 0 3 -1h2l83 3q16 2 28 7q12 7 22 14q25 16 31 48v2q0 6 1 16 t2 16v81v65q0 11 -1 16q-3 12 -17 28q-1 0 -2 1l-2 2q-3 -6 -9.5 -18t-9.5 -18q-36 -70 -52 -105l-15.5 -31t-15.5 -32q-1 -2 -43 -83q-1 -2 -2.5 -5.5t-2.5 -5.5zM552 521q-2 1 -5 1h-33q-7 0 -10 -1q-7 -1 -21 -1q-1 0 -10.5 -1t-14.5 -2q-19 -4 -36 -13q-16 -8 -29 -26 q-6 -8 -8 -21q-1 -4 -2 -11t-2 -11q-2 -20 -2 -29q0 -23 0.5 -69t0.5 -69q0 -26 20 -49q5 9 13 25q38 74 56 112q12 27 40 81q12 25 38 73q1 2 2.5 5.5t2.5 5.5z" glyph-name="Oslash" horiz-adv-x="1230" unicode=""/><glyph d="M848 696q1 -1 3 -2l1 -1h32h89q11 0 17 -2h23q2 0 9.5 -0.5t11.5 -1.5h9h57q1 0 3.5 -0.5t3.5 -0.5q1 -2 1 -4v-165q0 -10 -1 -15q-1 -3 -1 -11v-78q0 -17 2 -25v-8v-77q0 -3 -0.5 -10.5t-0.5 -11.5q-2 -21 1 -31v-11v-58q0 -5 -2 -32q-1 -7 -5 -16q-12 -29 -28 -56 l-1 -2q-1 -1 -11.5 -13.5t-16.5 -17.5q-20 -18 -46 -29q-20 -8 -58 -16q-22 -5 -55 -5h-215h-76h-38h-5q-5 2 -23 2h-203q-10 0 -15 -1q-3 -1 -9 -1h-36q-5 0 -13 2l-18 3q-4 0 -10 2q-5 2 -16 4t-17 4q-8 3 -16 9q-2 2 -13 9t-16 11q-6 3 -11 8q-13 16 -29 32q-5 6 -10 18 q-11 25 -19 55q-2 12 -2 17v66q0 10 -1 15q-1 3 -1 9v84q0 11 -1 16q-1 1 -1 9v42v7q2 6 2 17q0 22 2 33v8v68q0 17 -1 25q-1 10 -1 29v26q0 12 -2 18v7v13q-1 7 3 23q3 1 10 1h61h49q4 0 16 2h14q8 -2 24 -2h27q10 0 15 2h7q13 0 19 2h3h43q2 1 8 -2q1 -2 1 -14v-165 q0 -17 2 -25v-8v-61v-102q0 -7 0.5 -23t0.5 -23v-6q2 -5 2 -15t2 -15q1 -8 8 -16q21 -19 47 -30q7 -3 21 -5h46q3 0 9 -0.5t9 -0.5h32q1 0 5 0.5t6 0.5h54q1 0 4 0.5t5 0.5q10 3 22 1q10 -2 14 -2h25q13 0 20 2h6q13 0 28 5q3 1 10 2.5t11 2.5q11 2 25 13q6 5 15 23 q2 6 4 18q1 5 2 15.5t2 15.5q1 7 1 21q-1 64 -1 193v120q0 10 -1 15v8q-1 18 -1 53q0 1 0.5 2.5t0.5 2.5q1 0 5 1t5 1t3 2h28zM484 826q-18 22 -27 39q-5 8 -17 24q-2 3 -5.5 10t-5.5 10q-1 1 -3 5q-1 9 -11 21q-24 34 -33 52q-5 8 -10 19q-12 26 -32 54l-6 9q2 1 5 1h15 q10 0 14 1q3 1 10 1h103h94h43h23h6q5 -4 7 -9q22 -43 32 -71q7 -13 11 -25l18 -39q3 -8 8 -16q3 -6 27 -53q2 -4 6 -12.5t6 -12.5q0 -1 1 -2.5t0 -2.5q-1 0 -3 -0.5t-3 -0.5h-21q-15 0 -22 -1q-5 -1 -15.5 -1h-15.5h-39q-4 0 -11 -0.5t-11 -0.5q-16 -1 -32 0q-19 3 -38 0 q-15 -2 -32 0q-6 1 -20 1h-16z" glyph-name="Ugrave" horiz-adv-x="1179" unicode=""/><glyph d="M848 696q1 -1 3 -2l1 -1h32h89q11 0 17 -2h23q2 0 9.5 -0.5t11.5 -1.5h9h57q1 0 3.5 -0.5t3.5 -0.5q1 -2 1 -4v-165q0 -10 -1 -15q-1 -3 -1 -11v-78q0 -17 2 -25v-8v-77q0 -3 -0.5 -10.5t-0.5 -11.5q-2 -21 1 -31v-11v-58q0 -5 -2 -32q-1 -7 -5 -16q-12 -29 -28 -56 l-1 -2q-1 -1 -11.5 -13.5t-16.5 -17.5q-20 -18 -46 -29q-20 -8 -58 -16q-22 -5 -55 -5h-215h-76h-38h-5q-5 2 -23 2h-203q-10 0 -15 -1q-3 -1 -9 -1h-36q-5 0 -13 2l-18 3q-4 0 -10 2q-5 2 -16 4t-17 4q-8 3 -16 9q-2 2 -13 9t-16 11q-6 3 -11 8q-13 16 -29 32q-5 6 -10 18 q-11 25 -19 55q-2 12 -2 17v66q0 10 -1 15q-1 3 -1 9v84q0 11 -1 16q-1 1 -1 9v42v7q2 6 2 17q0 22 2 33v8v68q0 17 -1 25q-1 10 -1 29v26q0 12 -2 18v7v13q-1 7 3 23q3 1 10 1h61h49q4 0 16 2h14q8 -2 24 -2h27q10 0 15 2h7q13 0 19 2h3h43q2 1 8 -2q1 -2 1 -14v-165 q0 -17 2 -25v-8v-61v-102q0 -7 0.5 -23t0.5 -23v-6q2 -5 2 -15t2 -15q1 -8 8 -16q21 -19 47 -30q7 -3 21 -5h46q3 0 9 -0.5t9 -0.5h32q1 0 5 0.5t6 0.5h54q1 0 4 0.5t5 0.5q10 3 22 1q10 -2 14 -2h25q13 0 20 2h6q13 0 28 5q3 1 10 2.5t11 2.5q11 2 25 13q6 5 15 23 q2 6 4 18q1 5 2 15.5t2 15.5q1 7 1 21q-1 64 -1 193v120q0 10 -1 15v8q-1 18 -1 53q0 1 0.5 2.5t0.5 2.5q1 0 5 1t5 1t3 2h28zM843 1069q-1 -1 -2 -3t-2 -3q-20 -30 -43 -76q-15 -29 -36 -54q-5 -7 -8 -14q-2 -10 -12 -24q-5 -7 -14 -22t-14 -23l-18 -24q-2 -1 -6 -1h-194 q-2 0 -6 0.5t-6 0.5t-5 0.5t-4 0.5h-49q-1 0 -4 0.5t-5 0.5q0 2 3 11q4 7 10 20.5t10 20.5q2 2 2 5q2 3 4.5 9t3.5 8q8 11 21 42q10 20 15 31l18 42l21 45q5 9 10 11q9 -4 24 -2q14 2 39.5 2h31.5q12 0 18 -2h11h129q9 0 25.5 -0.5t24.5 -0.5q4 0 7 -1z" glyph-name="Uacute" horiz-adv-x="1179" unicode=""/><glyph d="M848 696q1 -1 3 -2l1 -1h32h89q11 0 17 -2h23q2 0 9.5 -0.5t11.5 -1.5h9h57q1 0 3.5 -0.5t3.5 -0.5q1 -2 1 -4v-165q0 -10 -1 -15q-1 -3 -1 -11v-78q0 -17 2 -25v-8v-77q0 -3 -0.5 -10.5t-0.5 -11.5q-2 -21 1 -31v-11v-58q0 -5 -2 -32q-1 -7 -5 -16q-12 -29 -28 -56 l-1 -2q-1 -1 -11.5 -13.5t-16.5 -17.5q-20 -18 -46 -29q-20 -8 -58 -16q-22 -5 -55 -5h-215h-76h-38h-5q-5 2 -23 2h-203q-10 0 -15 -1q-3 -1 -9 -1h-36q-5 0 -13 2l-18 3q-4 0 -10 2q-5 2 -16 4t-17 4q-8 3 -16 9q-2 2 -13 9t-16 11q-6 3 -11 8q-13 16 -29 32q-5 6 -10 18 q-11 25 -19 55q-2 12 -2 17v66q0 10 -1 15q-1 3 -1 9v84q0 11 -1 16q-1 1 -1 9v42v7q2 6 2 17q0 22 2 33v8v68q0 17 -1 25q-1 10 -1 29v26q0 12 -2 18v7v13q-1 7 3 23q3 1 10 1h61h49q4 0 16 2h14q8 -2 24 -2h27q10 0 15 2h7q13 0 19 2h3h43q2 1 8 -2q1 -2 1 -14v-165 q0 -17 2 -25v-8v-61v-102q0 -7 0.5 -23t0.5 -23v-6q2 -5 2 -15t2 -15q1 -8 8 -16q21 -19 47 -30q7 -3 21 -5h46q3 0 9 -0.5t9 -0.5h32q1 0 5 0.5t6 0.5h54q1 0 4 0.5t5 0.5q10 3 22 1q10 -2 14 -2h25q13 0 20 2h6q13 0 28 5q3 1 10 2.5t11 2.5q11 2 25 13q6 5 15 23 q2 6 4 18q1 5 2 15.5t2 15.5q1 7 1 21q-1 64 -1 193v120q0 10 -1 15v8q-1 18 -1 53q0 1 0.5 2.5t0.5 2.5q1 0 5 1t5 1t3 2h28zM584 937q-1 -2 -4 -5t-4 -5q-14 -24 -22 -36q-4 -8 -7 -11q-14 -22 -22 -33q-2 -3 -4 -7t-4 -7l-2 -2q-9 -2 -37 -2q0 1 -18 1l-17 -1h-35 q-4 0 -12 -0.5t-12 -0.5q-2 0 -6 0.5t-6 0.5t-8 -0.5t-9 -0.5h-8q-7 0 -22 0.5t-23 0.5h-36h-5q1 3 3 7q6 11 19.5 31t20.5 31q5 8 14.5 22.5t11.5 18.5q11 17 30 43q5 7 15 25q17 25 19 28q6 11 7 13q11 16 13 20q3 5 11 15.5t11 15.5q1 2 3.5 6t4.5 6q15 22 19 30q2 2 2 3 h11h12.5h10.5q10 -2 15 0h3h29h13h22h96h26q1 0 1 -1q3 -5 10 -15.5t11 -15.5q12 -20 17 -29q7 -10 19 -30q6 -10 18.5 -30.5t19.5 -30.5q4 -6 12 -16.5t11 -14.5q33 -44 37 -50q3 -4 9 -12.5t9 -12.5q6 -10 10 -15l9 -12t11 -14.5t10 -12.5q-12 -2 -18 -2h-103h-22 q-23 1 -23 0q-16 -1 -42.5 -1h-42.5q-3 0 -9 0.5t-10 0.5q-4 8 -10 17l-33 57q-6 11 -14 23q-1 1 -3 5t-3 5z" glyph-name="Ucircumflex" horiz-adv-x="1179" unicode=""/></font>
</defs>
</svg>
