<?xml version="1.0" standalone="no"?>
<!DOCTYPE svg PUBLIC "-//W3C//DTD SVG 1.1//EN" "http://www.w3.org/Graphics/SVG/1.1/DTD/svg11.dtd">
<svg xmlns="http://www.w3.org/2000/svg"><metadata>This SVG WebFont was generated by YouWorkForThem.
Copyright (c) 2019 by Tom Chalky. All rights reserved.</metadata><defs><font horiz-adv-x="1273" id="ywftsvg"><font-face ascent="800" bbox="-108 -344 1760 1098" cap-height="694.5" descent="-200" font-family="" font-stretch="normal" font-weight="400" panose-1="0 0 0 0 0 0 0 0 0 0" underline-position="0" underline-thickness="0" unicode-range="U+000D-2122" units-per-em="1000" x-height="678.5"/><missing-glyph horiz-adv-x="400"/><glyph glyph-name=".notdef" horiz-adv-x="400"/><glyph glyph-name="glyph1" horiz-adv-x="0"/><glyph glyph-name="glyph2" horiz-adv-x="333"/><glyph glyph-name="glyph3" horiz-adv-x="0"/><glyph glyph-name="glyph3" horiz-adv-x="0"/><glyph glyph-name="space" horiz-adv-x="400" unicode=" "/><glyph d="M159 198h-13h-14.5h-12.5q-12 0 -15 7q-2 7 -5 31q-1 7 -2 15t-2 18t-2 15q-3 15 -7 45l-6 45q-4 31 -4 91q0 20 -2 57t-2 56v52v29q0 1 1 3t1 3v5.5t1 5.5q4 8 35 8h87q9 0 29 1t30 1q6 0 39 -1t39 0q20 4 36 -1q4 -2 5 -4t1 -16q2 -60 2 -92q2 -145 -3 -185l-12 -93 q-6 -40 -8 -56q-4 -31 -6 -34q-8 -8 -40 -4q-24 3 -55 1q-16 0 -48 -1.5t-47 -1.5zM118 212q24 0 71 2t70 2q30 0 45 -1q3 0 9.5 -0.5t9.5 -0.5h10q2 1 3 1q0 1 1 4q2 7 5 35q1 7 3 21.5t3 21.5q16 100 16 152v83q0 78 -1 88q-1 6 -1 17.5v17.5v3v4v3q-1 3 0 4q-4 0 -5 1 q-3 1 -23 1q-6 -1 -37 0t-37 1q-20 0 -58 -1t-57 -1h-40q-13 0 -15 -1t-2 -13q-2 -8 -2 -25v-74q4 -29 4.5 -86.5t3.5 -84.5q1 -14 3 -29.5t5 -34.5t4 -29q1 -9 3.5 -25.5t4.5 -30t4 -25.5zM234 -1q-15 0 -45 1t-45 1q-34 0 -50 -1q-11 -1 -14.5 3.5t-3.5 16.5v56q0 6 -1 19 t-1 19q0 2 -1 10t-0.5 13.5t3.5 8.5q3 4 8.5 5t15.5 0l9 -1h192h63q10 0 11 -3q0 -2 1 -4q1 -9 1 -19.5t-0.5 -23.5t-0.5 -20q0 -42 -1 -63q0 -15 -15 -16h-63q-11 0 -32 -1t-31 -1zM221 13q17 0 65.5 2t74.5 1q0 20 0.5 60t0.5 60h-133q-13 0 -39 1t-39 1q-11 0 -31.5 -1 t-30.5 -1q0 -10 1 -28t1 -27v-67q10 3 34 1h40q9 0 27.5 -1t28.5 -1z" glyph-name="exclam" horiz-adv-x="444" unicode="!"/><glyph d="M298 447q-167 0 -228 4q28 61 40 82q12 22 30.5 65t22.5 52q6 12 13 28q10 20 14 22q1 1 14 1h28q9 1 52.5 0t52.5 -1h129q-10 -27 -34.5 -76t-34.5 -73q-22 -50 -38 -82q-7 -18 -14 -20t-47 -2zM266 463q6 0 19 -0.5t19 -0.5h22q7 0 10 1q4 1 7 5q5 7 17 36q12 24 17 37 q9 21 68 145q-20 0 -68.5 -0.5t-67.5 0.5q-64 4 -106 0q-5 0 -8 -2q-2 -2 -4.5 -8t-2.5 -7q-4 -10 -14 -30q-5 -10 -13.5 -30.5t-12.5 -30.5q-10 -21 -29 -59t-27 -55q29 0 87 -0.5t87 -0.5zM661 447q-39 0 -116 2t-115 2q10 20 28 57t32.5 67.5t26.5 58.5q11 29 24 53 q3 7 8.5 10t9.5 3.5t12.5 0.5h12.5q10 1 60.5 0t60.5 -1h120q-10 -27 -35 -76.5t-34 -72.5q-23 -54 -30 -67q-14 -31 -19 -34q-3 -2 -15 -2q-5 0 -15.5 -0.5t-15.5 -0.5zM620 463q8 0 22 -0.5t22 -0.5q15 0 23 1q12 0 15 6q19 35 32 68q12 30 38 82.5t32 66.5 q-24 1 -70.5 0.5t-69.5 -0.5q-43 2 -65 1q-3 0 -14.5 -1t-17.5 0q-2 0 -4.5 0.5t-3.5 0t-2.5 -1.5t-2.5 -4q-11 -21 -28 -59.5t-22 -49.5q-8 -18 -25.5 -53.5t-25.5 -53.5q27 0 83 -1t84 -1z" glyph-name="quotedbl" horiz-adv-x="899" unicode="&quot;"/><glyph d="M618 -21q-11 0 -32.5 1t-31.5 1q-24 1 -73 1q-21 0 -24 5q-1 1 5 18q9 32 23 77h-52h-31q-8 0 -10 -8q-1 -2 -1 -3q-2 -7 -8 -22t-9 -24l-9 -30q-3 -11 -4 -11q-2 -1 -19 -1q-24 0 -37 -1q-10 0 -30.5 -1t-30.5 -1q-90 0 -108 1q5 18 15 52t14 49q-13 1 -40 1 q-10 1 -30 1q-17 0 -20 2q-4 4 0 37v20v24v20q1 11 1 33.5v33.5q0 13 1 14t11 1q36 2 111 0h15q9 -1 12 2q3 5 6.5 18t3.5 14q5 15 22 67q-69 0 -86 3q-7 1 -7 8q0 33 1 49q0 15 0.5 45t0.5 45v26v10q1 1 28 1h72q7 0 21.5 -0.5t21.5 -0.5q6 0 9 6q0 3 1 4q7 21 8 25 q5 13 13 39l3 9t2 9q0 1 1 4.5t2.5 7t2.5 4.5h21q12 -1 35 -1q26 0 84.5 1.5t89.5 0.5q-24 -72 -36 -107q40 -2 62 -2h28q2 2 5.5 13.5t3.5 12.5q4 11 19 59q1 2 2.5 10t3.5 10t12 2q136 6 219 1q-4 -12 -11.5 -34t-13.5 -40t-11 -34h20h23.5h20.5q20 0 25 -2q3 -2 4 -6 q2 -11 2 -89v-20.5v-24v-19.5q0 -17 -2 -20t-13 -3q-22 -2 -65 -2t-61 -1q-11 -1 -12 -4q-1 -1 -2 -4q-4 -11 -10 -31q-3 -8 -11 -29t-11 -33h71q17 0 20 -2q2 -1 2.5 -4t1 -7t0.5 -5q1 -42 1 -125q0 -21 -2 -31q0 -8 -2 -8q-1 -1 -4 -1q-9 -2 -69 -2q-11 -1 -33 -1t-33 -1 q-11 0 -12 -1l-4 -11q-2 -5 -6.5 -15.5t-6.5 -16.5q-6 -22 -10 -33q-4 -21 -8 -23l-3 1q-2 0 -3 -1q-11 0 -16 -1q-7 -1 -39 -1zM475 -3q63 0 128 -3q20 -2 41 0q2 0 7.5 0.5t8.5 0.5q10 2 11 6q1 2 2 6q4 12 12 35t12 34q6 17 9 18q5 2 26 2q17 1 47 1.5t40 0.5h20 q13 0 14 1t1 18v26v61v25q0 17 -1 20q-1 2 -1 3q-1 0 -4 1q-2 1 -9 1q0 1 -9 0h-8q-45 -2 -67 1q2 15 7.5 31t13 35t10.5 29l9 27q2 5 9 5q8 1 17.5 1.5t21.5 1t18 0.5q43 0 64 1h14h2q3 1 4 5v2q1 5 1 36q0 86 -1 97q0 11 -1 13t-11 2h-36q-34 0 -51 2q7 26 35 107 q-18 1 -38.5 1t-45.5 -0.5t-39 -0.5q-10 0 -30 -0.5t-30 -0.5h-12q-4 -1 -4.5 -1.5l-1 -1t-1.5 -5.5q-6 -18 -8 -27l-18 -54q0 -1 -2.5 -8t-4.5 -9q-2 -1 -18 -1q-62 -2 -102 4l36 105q-11 0 -32 -1t-37.5 -1.5t-31.5 -0.5h-53q-9 1 -25 1h-6q-1 0 -4.5 0.5t-5.5 0.5 q-6 2 -6 -4q-4 -6 -6 -20q-3 -7 -7 -21q-15 -46 -18 -55q-1 -1 -2.5 -4.5t-2.5 -4.5h-20q-16 1 -46 1q-7 0 -21.5 0.5t-21.5 0.5h-24h-11v-19q1 -36 -1 -109q0 -2 -0.5 -9t-1 -11.5t0.5 -7.5q1 -1 27 -1q9 0 26.5 -1t26.5 -1q14 0 15 -6v-6q-1 -11 -8.5 -31t-8.5 -23 q-3 -9 -9.5 -28t-9.5 -28q-5 -7 -8 -8t-7.5 -1t-9.5 0.5t-8 0.5q-38 1 -115 1q0 -98 -2 -147v-6t1.5 -2t6.5 -1q6 -1 19 -1q20 0 30 -1q26 0 39 -1q-5 -18 -15 -52t-14 -49q43 -3 128 1q13 1 39 1q13 0 19 1q7 0 8.5 0.5t3.5 6.5q16 49 22 64q1 2 2.5 9t3.5 12.5t5 6.5h28 h79h8q2 -2 -3 -21zM853 258zM514 254q-13 0 -39 1t-40 1q4 19 16.5 53t14.5 40l9 27q0 1 0.5 3t1 3.5t1.5 1.5h16h103q-20 -64 -31 -95q-5 -22 -10 -29q-2 -4 -6 -5q-2 -1 -36 -1zM453 270q15 0 47 -2h29h12q7 2 19 47q3 9 9 27.5t9 27.5h-75h-13q-3 -2 -9 -21 q-4 -10 -13.5 -37t-14.5 -42z" glyph-name="numbersign" horiz-adv-x="1044" unicode="#"/><glyph d="M478 -163h-30q-9 0 -12 2.5t-4 13.5v141h-62q-45 5 -52 5h-136h-68q-9 0 -11 3q-4 5 -4 25v108v47q2 13 27 11h143q43 0 129 -2t129 -2q9 0 32.5 -1.5t35.5 -0.5q1 1 31 1l30 -1q30 0 61 3q37 5 43 22q4 12 -2 18.5t-12.5 8t-19.5 2.5q-29 4 -66 4q-46 1 -138 1 q-170 0 -238 6q-69 6 -117 37q-30 19 -47 39q-16 18 -27 56q-20 57 -9 121t54 107q40 40 107 57q34 9 60 11h59q45 0 68 -1q0 10 -0.5 29t-0.5 34t1 28q2 13 2 40q0 2 -1 9.5t0 12.5t5 8h2.5t3.5 1q-2 -1 -3 -1l8 3l1 1h14h22q23 1 23 0q2 0 5 -1t6 -1q17 -1 49 -1 q15 0 46.5 0.5t47.5 0.5h18h12q1 0 1 1l2 1q9 2 17 0q12 -2 16 -6.5t4 -17.5q0 -10 1 -28.5t1.5 -33.5t0.5 -28v-41v-9h11h27q14 0 42 1t43 1q14 0 40 -1t39 -1q49 0 74 1q19 2 23 -3q3 -4 4 -11t0 -17.5t-1 -11.5v-90v-39q0 -15 -6 -18q-4 -2 -10.5 -2.5t-14.5 0.5t-10 1 q-7 0 -22 -1t-23 -1q-9 -1 -20 -1t-25 0.5t-21 0.5q-62 0 -186 2q-41 0 -121 2h-79q-5 0 -13.5 -1t-12.5 -1q-7 -1 -19.5 -1.5t-16.5 -0.5q-14 -2 -23 -16t5 -23q5 -3 12 -3.5t16.5 0.5t12.5 1q24 0 36 -1q9 0 26 -1t31 -1.5t26 -0.5t38.5 1t40.5 0q9 0 36.5 -0.5t42.5 -1.5 q58 -5 71 -5q113 0 166 -25q83 -41 104 -108q25 -79 5 -157q-9 -38 -44 -77q-36 -36 -58 -47q-50 -25 -83 -25q-30 1 -92 1q-13 0 -37 1t-36 1q2 -8 2 -57.5v-57.5q0 -2 2 -12.5t1.5 -14t-1.5 -11.5q-2 -4 -7 -6t-9 -2t-11.5 0.5t-8.5 0.5h-126q-17 0 -51 -2q-47 0 -47 -2z M447 -149q19 0 58 2.5t59 2.5h159q0 26 -2 80v44q0 3 -1 10t-1 12.5t3 8.5q2 4 14 4h42q14 0 40 -1t40 -1q61 0 87 10q42 14 67 41q36 34 49 61q14 32 16 66q8 85 -24 135q-37 61 -125 86q-34 11 -85 11q-15 -1 -41 0.5t-36 1.5l-75 3q-7 0 -40 1t-40 0q-5 -2 -36 -0.5 t-36 1.5q-13 0 -37 1t-36 1q-3 0 -15.5 -0.5t-19 0t-15 3.5t-12.5 9q-8 12 -5.5 25t12.5 23q7 6 17 8.5t26 3t20 0.5q34 4 68 3q13 -1 40 -1q14 0 40 -2h51q25 0 75 -1t75 -1h94q9 0 26.5 1t26.5 1h48q2 1 4 1h1q-1 2 0 4v9v22v89v22v11q-1 3 -1 5h-3q-1 1 -9.5 0t-9.5 -1 q-4 -1 -12 -1h-80q-24 2 -51 2t-60.5 -1t-51.5 -1q-20 0 -23 6v32q0 14 -1 42.5t-1 42.5q-1 6 -1 18v19q-3 6 -20 3q-7 -1 -83 -1h-89q-7 0 -20.5 1.5t-19.5 1.5h-22l-18 -3q3 -10 3 -21.5t-1.5 -26t-1.5 -22.5q-1 -13 -1 -38v-37q0 -6 -1.5 -10t-5.5 -5.5t-6.5 -2t-10.5 0 t-10 0.5q-47 0 -71 2q-63 4 -131 -25q-69 -30 -95 -87q-32 -69 -15 -143q11 -44 22 -62q12 -23 47 -46q30 -20 61 -29q1 0 62 -9q14 -1 126 -4q40 -1 141 -1.5t156 -3.5q53 -3 60 -23q8 -29 -17 -47q-11 -7 -50 -12q-36 -6 -75 -3q-10 1 -29.5 1.5t-25.5 0.5q-15 1 -40.5 1 h-39.5q-23 0 -70.5 1t-71.5 1q-11 0 -35 1t-36 1h-82h-79h-9q-1 0 -2 -4v-6v-31v-80v-22q0 -20 2 -23h18h19h40h78q46 0 69 -1q42 -4 63 -4q2 0 11 1t14.5 1t11.5 -2.5t7 -7.5v-36q1 -15 1 -44l-1 -34q0 -35 1 -35zM367 9zM458 177zM773 425zM739 427zM661 430zM897 667z " glyph-name="dollar" horiz-adv-x="1173" unicode="$"/><glyph d="M185 -8h-54q-4 0 -12.5 1t-13.5 1q-21 0 -23 1q-15 6 7 22q12 12 38 34q31 28 93 83.5t94 82.5q79 69 94 81h-136q-10 0 -31 -0.5t-34 -0.5t-31 1.5t-32 6.5q-29 10 -48.5 34t-21.5 55q-1 8 -1 74v76q0 43 4 65q5 28 34 50q27 19 58 22q11 2 30.5 1.5t30.5 0.5 q5 1 30.5 0t30.5 -1h76q45 0 54 1q9 0 30 -0.5t30 0.5q35 3 68 -10.5t50 -42.5q13 -21 13 -68q0 -55 1 -82q53 53 75 71q52 42 84 72q14 12 38 34l5.5 5.5t6.5 6t5 5.5q2 1 5.5 5t5.5 5q5 1 17 -1q10 -1 32 -1h61q17 0 50.5 -0.5t50.5 -1.5q9 -1 26 0t22 1q3 0 12 1 t16.5 0.5t12.5 -2.5q4 -2 4 -7q-1 -5 -10 -14q-4 -4 -17.5 -16t-21.5 -18q-13 -11 -38 -32.5t-38 -32.5q-21 -19 -92.5 -82t-109.5 -98h132q49 0 73 1q44 0 68 -10q29 -11 47 -36.5t18 -56.5v-135v-18v-20t-1 -17t-3 -18.5t-5 -16t-9 -16.5t-13 -13q-24 -19 -58 -26 q-12 -2 -32.5 -1.5t-32.5 -0.5q-13 -1 -60 1q-12 0 -36.5 -0.5t-37.5 -0.5q-83 0 -124 -1q-34 -2 -65 11.5t-47 40.5q-15 24 -15 69v88q-56 -47 -93 -83q-16 -15 -51 -46t-52 -47l-24 -21q-10 -10 -16 -12q-3 -1 -34 -1h-35h-67h-29q-5 0 -14.5 -1t-13.5 -1zM181 7 q10 0 30.5 1t30.5 1q25 -1 76 -1q26 0 39 1h13q6 1 14 9q9 8 26.5 23.5t26.5 23.5q27 23 91 81t100 87q0 -11 0.5 -33t0.5 -34q0 -7 -0.5 -23.5t-0.5 -26.5t1.5 -23.5t5.5 -24.5q13 -36 51 -50q17 -6 44 -8q7 -1 21.5 0t19.5 1q23 -2 91.5 -1t91.5 1h88q53 0 81 35 q6 7 9.5 14.5t5 19t2 16.5t0 20t-0.5 17v92q0 5 0.5 22.5t0 25.5t-3 21.5t-7.5 22.5q-19 36 -64 46q-14 3 -29 4t-38 0t-30 -1q-11 0 -31.5 0.5t-37.5 0.5t-32 -1h-35q-32 0 -37 3q-4 2 -3 6q0 3 5 8t16.5 15t15.5 14q13 11 39.5 36.5t41.5 37.5q52 44 77 67q29 26 61 52 q12 10 35 31t35 31q-10 0 -32 -1t-33 -1q-8 0 -23.5 1t-23.5 1q-23 0 -34 -1q-6 -1 -16 0t-13 1q-24 1 -71 1q-2 0 -9 1t-11 1t-8 -1q-1 0 -13 -12q-7 -6 -15 -13.5t-17 -16t-14 -13.5q-7 -6 -22 -20.5t-24 -20.5q-8 -6 -24.5 -19t-24.5 -20q-9 -8 -18.5 -17t-21.5 -20.5 t-18 -17.5q-18 -18 -32 -21q-2 16 -2 71q0 6 0.5 21.5t0.5 24.5t-2 21.5t-7 21.5q-18 37 -65 47q-16 3 -47 3t-38 1q-6 1 -17 0t-15 -1h-49h-95h-82q-52 -2 -81 -38q-5 -7 -8.5 -15t-4.5 -19t-1.5 -17.5t0 -20.5t0.5 -17v-104q0 -62 18 -87q21 -29 71 -36q13 -2 28 -2.5 t34.5 0.5t28.5 1q67 0 101 1q6 0 18 -0.5t18 -0.5q25 0 29 -7q3 -4 -7 -12q-4 -3 -12.5 -10t-12.5 -11q-46 -38 -95 -81t-112 -99.5t-94 -83.5q7 0 19.5 -1t19.5 -1h42zM1043 680zM889 115q-35 0 -50 21q-13 19 -15 56q0 27 12 46.5t37 22.5q31 2 45 -8q21 -18 24 -51 q4 -34 -8 -60.5t-45 -26.5zM839 192q4 -35 10 -45q11 -16 36 -18q28 -1 37.5 20t5.5 50q-2 25 -16 39q-13 13 -39 8q-14 -2 -21.5 -11.5t-9.5 -18t-3 -24.5zM345 417q-34 0 -49 24t-13 55t16 50t43 18q33 -2 46 -21q13 -20 15 -58q0 -30 -14.5 -49t-43.5 -19zM338 549 q-22 0 -32 -17.5t-8 -39.5q2 -29 10 -42q10 -17 37 -19q24 -1 34 16.5t9 43.5q-2 30 -14 46q-9 12 -36 12z" glyph-name="percent" horiz-adv-x="1244" unicode="%"/><glyph d="M780 -8q-19 0 -55.5 2.5t-50.5 2.5q-37 0 -115 2q-79 0 -237 2q-64 2 -95 8q-53 10 -95 49q-44 40 -53 86q-11 51 -5 99q5 37 48 90q2 2 6 8t6 8q2 4 8 10q1 2 3 3q2 2 1 8q-1 3 -5.5 10t-5.5 10q-4 8 -11 30q-11 46 -3 95q7 45 10 54q5 20 25 42q37 40 87 58 q28 11 91 13h198h60.5h72h61.5q16 0 47.5 -1t47.5 -1q2 0 12 1t16.5 0.5t9.5 -3.5t4.5 -9.5t1.5 -13t-0.5 -14.5t-0.5 -10q0 -14 -1.5 -50.5t-0.5 -56.5q0 -2 0.5 -5.5t0.5 -6v-5.5t-1.5 -5.5t-4.5 -3.5q-6 -3 -14 -3t-17.5 1.5t-13.5 1.5q-34 0 -101 -1t-101 -1 q-40 0 -120 -2q-34 0 -42 -13q-6 -10 -4.5 -22.5t9.5 -20.5q6 -5 22 -12q5 -2 25 -2q21 0 63 2q8 0 24 -1t25 -1h63q27 0 82 -1t83 -1q18 0 53 1t52 1q86 0 110 2q0 1 28 0h28q1 0 12 1t18 0t10 -5t4 -11.5t0 -19t-1 -13.5v-69q0 -4 0.5 -13t0.5 -16t-1 -12q-3 -11 -35 -11 q-1 1 -25 1l-23 -1h-25q-4 -1 -4 -8v-18q0 -19 1 -57.5t1 -57.5q0 -18 -0.5 -53.5t-0.5 -52.5q0 -11 -8 -13q-18 -3 -54 -3h-63h-43q-5 0 -19.5 1t-22.5 0q-27 -3 -53 -3zM765 8q44 0 66 1q19 2 57 0q32 -2 46.5 -1.5t47 2t46.5 1.5q-3 4 -1 41.5t2 41.5v96q0 8 -1 25t-1 26 q0 26 7 29q2 1 34 1q32 3 39 2q1 0 9.5 -1t14 -1.5t8.5 1.5v16v32v48v27v4v6v4q1 2 -0.5 2.5t-4.5 -0.5h-8q-31 0 -92.5 -1t-92.5 -1q-13 0 -39.5 -1t-40.5 -1t-42 1t-42 1q-23 0 -67 0.5t-67 0.5q-10 0 -40.5 1t-47.5 0q-15 -1 -45 -1q-32 0 -36 1q-14 3 -28 14.5t-17 25.5 q-3 21 7 36.5t30 19.5q11 2 49 2q8 0 23.5 1t23.5 1h116h102h68q-2 8 -2 17t1 20t1 17q1 17 1 51v25v14v5q1 4 0 5t-5 0q-3 1 -8 1t-11 -0.5t-9 -0.5q-4 0 -12 1t-13 1q-19 1 -54 0t-46 -1q-19 0 -58 0.5t-58 0.5q-30 0 -88.5 1t-87.5 1q-19 0 -53.5 -2t-45.5 -2 q-47 -1 -89 -27q-56 -35 -66 -72q-11 -38 -11 -107q0 -36 27 -86l3 -6q4 -6 3 -7q0 -1 -2.5 -3t-6.5 -4l-3 -2q-5 -3 -29 -36q-20 -24 -29 -44q-8 -16 -10 -50q-2 -64 14 -98q23 -47 72 -78q32 -21 99 -27q59 -5 250 -5q43 0 129 -2q13 0 36 -1t42 -1.5t36 -0.5zM912 422z M411 669zM615 165q-9 0 -29 1t-30 1q-12 0 -55.5 -0.5t-56.5 1.5q-21 1 -36.5 14.5t-20.5 34.5q-2 12 10 28q14 17 44 25q12 3 28 4.5t26.5 1t30 -1.5t26.5 -1q11 0 31 -1t30 -1h55q7 0 23 1.5t24 0.5q5 -1 11 -0.5t13 0t11 -2.5q3 -2 4.5 -8t1.5 -10.5t-0.5 -11.5t-0.5 -9 v-28q0 -26 -1 -29q-1 -4 -4.5 -6t-6.5 -2t-8.5 0.5t-7.5 0.5q-20 1 -58.5 -0.5t-53.5 -1.5zM461 182q123 0 134 -1q13 -1 61 1h84v39q0 1 1 10.5t1 17t-2 8.5h-15q-2 0 -7 1t-8 0q-5 0 -15.5 -0.5t-16.5 -0.5q-19 0 -57.5 1t-57.5 1h-71q-51 0 -70 -11q-17 -9 -20 -25 q-2 -12 11 -27q13 -14 48 -14z" glyph-name="ampersand" horiz-adv-x="1246" unicode="&amp;"/><glyph d="M278 424q-7 0 -23 1t-24 1t-12 5q-4 4 -14 19q-33 45 -42 71q-3 8 -13.5 21.5t-12.5 15.5q-9 15 -25 45q-10 21 -42 70q14 3 65 5h98h51q50 1 50 0h39q15 0 20 -6q4 -5 15 -29q7 -15 21 -47q5 -12 29 -65q5 -12 19 -38.5t20 -40.5q9 -16 4 -22q-2 -2 -27 -2 q-16 0 -47.5 -1t-47.5 -1q-32 -2 -48 -1q-10 1 -28.5 0t-24.5 -1zM236 440h61q11 1 33 0t34 0h31t31 1q10 0 30 0.5t30 0.5q-9 20 -28.5 59t-28.5 59l-24 54q-8 18 -17 37q-5 11 -10 12h-31q-13 1 -38 1q-12 0 -37.5 -0.5t-38.5 -0.5q-23 0 -69 -1t-69 -1q14 -21 37 -65 q12 -21 38 -57q3 -4 5.5 -11.5t4.5 -10.5q1 -2 15 -25q6 -9 18 -29q1 -1 4.5 -7t5.5 -8.5t5.5 -5t7.5 -2.5z" glyph-name="quotesingle" horiz-adv-x="570" unicode="'"/><glyph d="M347 -208q-34 0 -50 0.5t-43.5 7t-45.5 18.5q-39 27 -49 39q-22 28 -40 65q-14 28 -22.5 58t-11.5 67.5t-4 60t0 69.5t1 62q0 46 -2 140q-1 29 0.5 87.5t0.5 88.5q-2 92 14 143q18 53 27 71q22 44 43 64q33 30 66 42q11 4 72 12q13 1 78 1q1 0 73 3h10.5h12.5h11 q24 0 31 -5q4 -1 5 -3v-11q0 -8 0.5 -24.5t0.5 -24.5q1 -45 0 -88q0 -7 -0.5 -21t-0.5 -20q-1 -3 -0.5 -7.5t0 -10t-1.5 -6.5q-2 -2 -28 -2q-22 0 -34 -1q-39 -2 -61 -17q-28 -21 -30 -55q-1 -15 -1 -90q0 -29 1 -86t1 -86q1 -33 -0.5 -93t-1.5 -83v-86q4 -32 38 -49 q8 -4 18.5 -6.5t18 -3t21 -0.5h18.5h36q6 0 7 -1t1 -6q2 -13 2 -78q0 -15 -0.5 -44.5t-0.5 -44.5q0 -31 -1 -34q-1 -4 -3.5 -6t-5 -2.5t-7.5 0t-7 0.5q-12 0 -37.5 -1t-38.5 -1t-39.5 -1t-40.5 -1zM335 873q-31 0 -71 -5q-35 -5 -71 -33q-48 -35 -76 -118q-14 -45 -17 -65 q-4 -21 -4 -65q0 -103 -2 -155q-1 -24 0.5 -67.5t1.5 -60.5v-165q0 -94 11 -140q16 -67 57 -125q11 -15 45 -38q10 -8 23 -15q3 -1 33 -9q22 -4 44.5 -5t57 0t44.5 1q23 0 71 2h19q10 0 11 5q1 6 1 13.5t-0.5 16.5t-0.5 13q0 14 0.5 42t0.5 42v37q0 18 -1 19h-21h-8 q-30 0 -46 1t-38.5 10.5t-34.5 27.5q-11 16 -11 72q0 55 1 83q2 23 0.5 167t-1.5 166q0 5 -0.5 22t0 24.5t1.5 22t4 23.5t9 19.5t15 18.5q15 14 52 23q26 4 38 4q3 0 16.5 -0.5t15.5 1.5q5 1 5 7v4q0 2 0.5 7.5t0.5 8.5q1 14 1 41v87q-1 5 -0.5 12.5t0 15t-2.5 9.5t-18 2 h-24q-11 0 -31.5 -1.5t-31.5 -1.5q-23 -1 -68 -1z" glyph-name="parenleft" horiz-adv-x="590" unicode="("/><glyph d="M247 -209q-12 0 -36 1.5t-36 1.5h-44q-20 2 -32 2q-25 0 -26 1v28v45q-1 31 -1 91v36q0 10 1 12t5 3h27q7 0 21 0.5t21 0.5q43 2 67 22q5 4 8.5 10t5 9.5t2.5 12.5t1 11.5v13.5v12v89q-3 147 0 177v89v91q0 63 -11 80q-16 24 -58 33q-15 3 -41 4t-35 2q-8 1 -10 6 q-1 6 -1 17v17q-1 28 -1 85v42q0 16 1 24v20q2 6 11.5 9t18 3t21.5 -0.5t15 -0.5q9 0 26.5 -1t31.5 -1.5t26 -0.5q41 0 83 -3q48 -5 61 -11q71 -30 106 -100q40 -81 41 -148q5 -179 1 -320v-172q2 -82 -11 -140q-15 -62 -58 -127q-15 -22 -54 -47q-22 -14 -34 -18 q-9 -3 -41 -8q-34 -3 -72 -3zM98 -190q18 0 53 -1t52 -1q9 0 39.5 -1t51 0t39.5 5q28 5 32 7q20 12 29 19q29 19 48 48q38 56 52 124q9 42 9 128v52v62v52q2 168 -1 303q-1 71 -30 139q-32 73 -90 106q-38 21 -123 21q-14 0 -42 0.5t-42 0.5q-71 3 -78 2q-6 -1 -7 -5 q-1 -3 -1 -20q-1 -15 -1 -47q0 -65 1 -78v-19t1 -19t10 -6q3 0 8.5 0.5t8.5 0.5q35 0 70 -11q34 -11 48 -39q11 -21 11 -77v-168q0 -14 -1 -40.5t-1 -39.5q-1 -17 0 -46.5t1 -39.5q0 -13 0.5 -40.5t0.5 -41.5q0 -70 -2 -80q-7 -28 -35 -47q-20 -12 -71 -14q-12 -1 -38 -1 q-12 0 -13 -1t-1 -23v-41.5t1 -41.5v-81h11z" glyph-name="parenright" horiz-adv-x="590" unicode=")"/><glyph d="M390 176q-7 0 -28.5 1t-32.5 0q-6 0 -17.5 0.5t-17.5 0.5q-1 0 -9 0.5t-10 1.5q-1 1 -1 14q0 6 -1 18t-1 18v68q-12 -5 -48.5 -22t-57.5 -24q-5 -2 -14.5 -5.5t-11.5 -4.5q-5 -1 -6 -0.5t-3 5.5q-2 3 -9 20t-12 26q-4 8 -10 26t-11 26q-15 33 -16 43q0 5 4 8q5 3 15.5 8 t15.5 7q36 17 65 29q-48 22 -59 26q-2 1 -13 5t-19.5 8t-9.5 8t2 9.5t7 11.5t5 9q11 18 24 48q17 38 22 54q7 18 18 18q4 -1 25 -11q15 -5 32 -14q11 -5 32.5 -15t32.5 -15q0 37 -1 55q-1 10 1 30q0 12 2 14q4 4 7.5 5t11.5 0.5t9 -0.5q46 -2 69 -2q7 0 30.5 0.5t36.5 1.5 q8 1 26 1q18 3 23 2t6 -9q1 -4 1 -26v-73q11 5 35 16t35 17q18 8 34 14l7 3.5t9 4t7 1.5q5 -1 9 -5t5.5 -8t3.5 -11.5t3 -9.5q10 -25 27 -60q4 -9 12.5 -25t11.5 -21q6 -6 4 -10q-1 -4 -14 -8l-87 -39l60 -27q11 -5 31 -15q10 -5 10 -6q3 -9 -12 -34q-1 -3 -6.5 -14 t-7.5 -17q-1 -4 -3.5 -12.5t-4.5 -12.5q-19 -42 -25 -54q-5 -7 -6 -7l-23 9q-46 18 -116 49q-1 -13 0 -38t1 -37q0 -3 -1 -8.5t-1.5 -10t-0.5 -8.5q0 -15 -1 -17q-2 -3 -9 -4t-17 0l-10 1q-12 1 -34.5 0t-29.5 -1zM363 193q6 0 16.5 -1t15.5 -1q27 0 40 1q6 0 17.5 -0.5 t16.5 -0.5q6 0 7 1t1 18q1 11 1 69q0 29 3 34q2 6 10 3q48 -20 71 -31q4 -2 12.5 -6t13.5 -6q1 0 7 -2t9 -4q2 0 10 -4t11 -4q2 0 4.5 5.5t5 12.5t3.5 9q16 32 17 35q3 10 11 28t11 26q0 1 1.5 5t0.5 5q0 3 -13 7q-5 2 -14 6.5t-16.5 8t-14.5 6.5q-19 9 -59 27q22 12 117 53 q-17 27 -27 53q-15 29 -17 35q-6 14 -8 21q-6 19 -7 19q-2 1 -16 -6l-21 -9l-39 -18q-61 -27 -64 -29q-1 19 -1 115q-75 -6 -175 -3h-12q-6 -6 -6 -7q-1 -20 0 -41q2 -45 -2 -62q-55 25 -67 31q-26 12 -40 18l-21 9h-1q-7 1 -8 -3q-1 -1 -1 -2q-26 -74 -57 -121 q17 -8 57.5 -25.5t61.5 -28.5q-30 -12 -45 -19q-12 -5 -34 -15q-32 -15 -36 -18q-3 -3 -3 -5q0 -1 1 -4l1 -3q1 -4 3 -10q2 -4 7 -13t7 -14t5 -15t5 -15l6.5 -13l6.5 -13q4 -10 7 -16q2 -6 7 -6q5 1 16.5 5.5t13.5 5.5q14 6 65 30q4 1 15 6t17 7q9 4 14 1v-13q0 -5 -0.5 -15 t-0.5 -15q0 -29 1 -44q0 -4 0.5 -11t0.5 -10v-9q2 -4 4 -5t37 -1q5 0 17 0.5t17 0.5zM281 301z" glyph-name="asterisk" horiz-adv-x="770" unicode="*"/><glyph d="M459 42q-15 0 -45.5 0.5t-46.5 0.5q-38 0 -45 2q-2 0 -4 1.5t-3 2.5t-1.5 3t-0.5 3.5t-0.5 4.5t-0.5 4q-6 90 -6 92q-1 0 0 22v23q0 41 1 48h-109q-12 1 -36 1h-37q-5 0 -15.5 0.5t-16.5 0.5q-18 3 -19 4q-3 3 -3 15v33q0 12 1 36t1 37v33q0 22 1 24q2 4 9 4h36 q23 0 70 -1t71 -1h33q14 0 16 1q3 2 1 13q-1 6 -1 56q0 40 1 59q1 6 1.5 24.5t2.5 28.5q1 4 3 6.5t6 3t7 1t8 0t7 -0.5q25 -1 74 -1q16 0 46 -0.5t45 -0.5h70q2 0 11 0.5t16 0.5t14 -1.5t9 -4.5q1 -2 1 -23v-35v-60q0 -8 -0.5 -29t0.5 -29q1 -9 8 -9h17h33q31 4 51 0h62h32 q21 0 26 -4q6 -5 6 -33v-65q0 -7 1 -21.5t0.5 -26t-2.5 -21.5q-1 -4 -3 -6.5t-4 -4t-5.5 -2t-5.5 -0.5h-7h-7q-22 -1 -65 -1q-7 0 -20 -1t-23.5 -1.5t-19.5 -0.5h-34h-36l-4 -1v-3v-7q-2 -10 -2 -15q-1 -17 0 -33q0 -5 0.5 -14.5t0.5 -14.5q0 -4 -2 -30q0 -8 2 -55 q0 -15 -4 -23q-2 -4 -7.5 -6t-9.5 -2t-12 0.5t-9 0.5h-72q-38 -2 -57 -2zM442 58q88 0 132 1h35q5 1 6 10q1 3 0 23t-1 24q0 6 1 25.5t0 30.5q-2 39 1 59v8.5t0.5 9t2.5 8t6 4.5q2 1 26 1h36q65 0 130 3q28 0 31 1q3 2 3 23v69q0 5 1 17t0.5 21.5t-2.5 17.5q-1 3 -1 4t-2 1 q-1 1 -2 1h-3h-4.5h-3.5h-35q-9 0 -56 1t-57 0q-18 -2 -38 0q-22 0 -24 1q-3 2 -5 6t-3 10t-1 11t0.5 11.5t0.5 8.5l-1 31q-1 32 1 32v39.5t1 39.5q-18 -1 -103 0t-102 1h-63h-16q-5 -7 -5 -8q0 -4 -1 -10.5t-1.5 -11.5t-0.5 -10q-3 -90 -2 -108q0 -3 2.5 -18t-0.5 -17 q-1 -3 -5 -6q-4 -2 -29 -2h-124q-7 0 -28.5 1t-32.5 0h-3.5h-4h-3.5h-3h-4q0 -2 -1 -6t-1 -10.5t0.5 -14t0.5 -11.5q0 -21 -2 -61v-31q0 -14 1 -16q-2 -4 -1 -5.5t5 -0.5q6 0 8 -1q20 -1 119 -1q11 0 32 -0.5t32 -0.5q29 2 44 -3q-4 -13 -4 -68v-36q1 -6 2 -19t2 -20 q0 -29 1 -43q2 -14 4 -15t25 -1h87zM629 514z" glyph-name="plus" horiz-adv-x="950" unicode="+"/><glyph d="M227 -122q-26 0 -78 2t-79 2q9 33 39 116q10 25 25 74.5t19 62.5q10 34 16 51q6 14 11 16h17q6 -1 17 1q19 2 72 0.5t72 -1.5h87q43 -3 50 -5q-38 -90 -42 -100q-16 -42 -27 -62q-2 -4 -6.5 -11.5t-6.5 -11.5q-2 -5 -4.5 -15.5t-4.5 -15.5l-30 -66q-2 -5 -7 -13t-7 -13 q-3 -7 -7 -9q-2 -1 -23 -1q-6 0 -17 -0.5t-17 -0.5h-21.5h-25.5h-22zM185 -106q14 0 58 -1t67 0q26 0 30 1q7 1 9 6q1 1 8 13q14 28 29 63q9 22 10 27q1 9 7 21l24 45q5 13 14.5 37t17.5 43.5t16 36.5q-45 1 -135 1q-10 0 -59.5 1.5t-59.5 -0.5q-3 0 -11.5 -1t-13.5 0 q-7 1 -9 0t-5 -8t-7 -21.5t-7 -21.5q-1 -4 -34 -111q-7 -23 -22.5 -66t-22.5 -63q16 0 48 -1t48 -1z" glyph-name="comma" horiz-adv-x="561" unicode=","/><glyph d="M644 251q-32 0 -94.5 1.5t-94.5 1.5q-11 0 -66 1t-66 0q-93 -5 -217 0q-17 0 -25 1q-10 0 -10 1v12q0 5 0.5 13t0.5 13q1 17 1 99q1 9 1 26q-4 11 0 16q1 3 5 4h20q77 0 116 -1q37 0 112 1t113 1q13 0 46 -1.5t51 -0.5q38 2 115 0l45 1q45 0 45 -1q17 -1 51 0t51 0 q18 0 19 -2q2 -1 2 -7q1 -19 1 -58v-58q0 -4 1 -16.5t0.5 -21.5t-3.5 -16q-1 -4 -2 -4h-4q-9 -1 -29 -1q-10 0 -30.5 -0.5t-31.5 -0.5q-21 0 -62 -1.5t-61 -1.5zM401 268q167 0 182 -1q61 -5 143 0q11 1 68 1q6 0 19 1t19 1h4h6h5q2 1 4 1q0 1 1 3v12v72v37q0 11 -1 17v7 q-1 5 -3 5t-4 1h-34h-40q-10 0 -30.5 0.5t-30.5 0.5h-144q-26 -1 -74 0t-63 1q-29 0 -85.5 -0.5t-84.5 -0.5h-170q0 -20 -0.5 -60t-0.5 -60q0 -4 -0.5 -11t-0.5 -10v-15h5q5 0 5 -1q21 -1 63 -1h242z" glyph-name="hyphen" horiz-adv-x="949" unicode="-"/><glyph d="M224 -1q-11 0 -23 0.5t-26.5 1.5t-22.5 1q-11 1 -34 1h-17q-3 0 -6.5 -1t-5.5 -1q-7 -2 -13 2q-4 2 -4 10v74q0 13 -0.5 38.5t-0.5 38.5v20q0 4 0.5 4.5t6.5 1.5q22 2 65 2q26 0 76 -2h154q0 -134 -2 -172v-2q0 -12 -8 -12h-21t-21 -1q-34 0 -52 -1q-7 0 -22 -1.5 t-23 -1.5zM207 0zM210 14q12 0 33.5 1.5t32.5 1.5q13 0 37 0.5t36 0.5q7 0 7.5 1t0.5 8v19q0 6 0.5 19t0.5 19q1 0 0 37v37v18h-21h-36h-80q-12 0 -36 0.5t-37 0.5q-5 0 -31.5 -1.5t-31.5 0.5q0 -26 0.5 -80t0.5 -80q2 1 23 1h33z" glyph-name="period" horiz-adv-x="438" unicode="."/><glyph d="M70 -142q15 37 90.5 217.5t112.5 278.5q80 202 106 259q27 59 55 132q5 11 14.5 35t14.5 35q1 3 4 12.5t5.5 15.5t7.5 11.5t11 6.5q4 1 36 1h41h38t38 -1q20 -1 69.5 1t69.5 0q-4 -13 -47 -121q-11 -27 -32.5 -75.5t-27.5 -63.5q-54 -131 -111 -278q-16 -40 -50 -122 q-30 -74 -38 -92q-3 -6 -54 -128q-3 -8 -8.5 -22t-10 -25.5t-8.5 -21.5q-3 -6 -7.5 -17t-6.5 -16q-8 -21 -10 -22q0 -2 -13 -0.5t-14 1.5h-44q-15 0 -43 0.5t-43 0.5q-85 2 -145 -2zM330 -126q2 0 14.5 -1t13.5 0h4l1 1q1 2 2 3q1 2 3 7t3 6q7 19 21 55q39 94 43 104 q10 25 31.5 75.5t32.5 76.5q27 66 82 203.5t84 207.5q10 23 28 65l24 56q5 10 12.5 29.5t10.5 26.5l24 60q-21 2 -62 -2q-10 -1 -61 -1q-21 1 -130 1q-19 0 -21 -3q-4 -4 -7.5 -16t-4.5 -14q-8 -21 -26 -63q-42 -107 -52 -129q-40 -90 -108.5 -261.5t-84.5 -210.5 q-13 -31 -53.5 -127t-61.5 -149q39 3 118 1q40 -1 120 -1zM464 117z" glyph-name="slash" horiz-adv-x="857" unicode="/"/><glyph d="M334 -2q-21 0 -61 2q-42 2 -68 13q-53 24 -63 33q-27 25 -42 48q-30 45 -28 135q1 27 -0.5 76.5t-1.5 68.5q0 13 1 39.5t1 39.5q0 63 2 76q3 21 23 59q16 26 37 45q51 45 129 50q52 3 156 3q9 0 32 -1.5t36 -0.5q8 0 33.5 1t39.5 0q102 -2 154 -1q184 6 241 -87 q23 -40 27 -62q3 -14 3 -74q0 -22 1 -32q1 -6 0 -17t-1 -14v-22v-26v-22q-1 -16 0.5 -69t-0.5 -80t-17 -64t-44 -60q-32 -25 -49 -33q-20 -9 -60 -19q-23 -4 -107 -4q-179 4 -299 0q-13 0 -38 -0.5t-37 -0.5zM253 17q5 0 15 -1.5t15 -1.5q13 -1 38 -1q44 0 66 1 q22 0 66.5 0.5t67.5 0.5q21 0 74 0.5t74 -0.5q64 -3 120 1q65 3 116.5 43t62.5 102q3 21 3.5 46t0 55.5t-0.5 46.5v66q0 9 0.5 30.5t-0.5 30.5q-2 25 -0.5 45.5t-2.5 44.5t-14 43q-17 33 -38 51q-29 24 -64 36q-18 7 -36.5 9.5t-50.5 3t-37 0.5q-16 1 -149 1q-120 0 -135 1 q-10 2 -74 0.5t-74 -1.5q-82 0 -133 -32q-25 -16 -45 -43.5t-28 -56.5q-5 -21 -3 -74q0 -24 -2 -72q-1 -15 2 -143q0 -5 -0.5 -25t0 -28t1.5 -23.5t4.5 -27.5t8.5 -24q29 -63 92 -87q43 -17 60 -17zM478 174q-43 0 -62 7q-18 8 -39 37q-5 6 -8 13.5t-4.5 12.5t-2.5 15.5 t-1 13.5v15.5v14.5q0 11 0.5 34t0.5 34q0 59 1 64q4 24 26.5 43t47.5 24q42 7 111 5q6 0 24 -1t27 0q31 2 55 -15q20 -12 32 -32q9 -19 9 -59q1 -47 -1 -141q-1 -31 -24.5 -53.5t-55.5 -28.5q-5 -2 -37 -2h-37q-20 -1 -62 -1zM375 277q0 -30 11 -47q20 -28 35 -35 q10 -4 52 -7q34 0 52 1h28h28.5t28.5 3t27 8q16 8 32 28q4 5 6 10t3 12t1 11v13v12q0 10 1.5 63.5t-0.5 64.5q-2 55 -48 72q-8 3 -16 4t-18.5 1t-16.5 1q-8 0 -23.5 1t-23.5 1q-10 1 -54 -2q-38 -2 -54 -9q-31 -13 -44 -38q-6 -10 -6 -54q2 -35 0 -69q0 -40 -1 -45z" glyph-name="zero" horiz-adv-x="1075" unicode="0"/><glyph d="M445 -5q-39 0 -115 1t-115 1q-9 0 -10 1v13v68q0 14 -1 55.5t0 63.5v108q0 27 -1 40q0 1 -1 21.5t-2 30.5q-1 5 -4 6l-2 1h-16h-34q-58 0 -63 1q-8 1 -9.5 4t-0.5 11q5 49 2 91q-2 34 0 67q0 26 1 31q1 4 12 10q18 8 53 19.5t48 16.5q3 1 24 10.5t32 13.5q8 3 17.5 4 t23 0t17.5 -1q11 0 32.5 -1t32.5 -1h49q9 -1 27 0.5t25 1.5q5 1 14 1h14q11 0 12 -1q1 -2 1 -16q0 -23 1 -34q1 -10 1 -30.5t1 -30.5q2 -88 0 -263v-136q0 -22 -1 -66t-1 -66v-44q-11 0 -32.5 -1t-31.5 -1zM413 11h64h15q2 1 2 10v37q0 16 1 45t1.5 53t0.5 45v286 q0 105 -2 135q-1 6 -1 17t-1 16v14h-19q-9 0 -26.5 -1t-26.5 -1q-22 0 -66 0.5t-65 0.5h-30q-12 0 -28 -9q-53 -21 -59 -23q-11 -4 -32 -11.5t-32 -11.5q-1 -1 -7.5 -2.5t-9.5 -3.5q-4 -3 -4 -17q-1 -13 -1 -39q-1 -13 0 -36t1 -30q0 -53 -3 -65q18 -1 107 -1q12 0 15 -1 q5 -1 6 -3q2 -4 2.5 -17.5t0.5 -14.5q2 -31 2 -92q0 -43 0.5 -129t0.5 -129v-16v-1q3 -4 5 -4h5h30q38 0 57 -1h97z" glyph-name="one" horiz-adv-x="582" unicode="1"/><glyph d="M116 -4q-3 0 -11 -1t-15 -1t-11 2q-8 3 -8 20q0 34 1 50q1 33 1 98q1 17 0.5 30.5t0 30.5t2.5 30q6 34 36 79q26 42 54 57q71 36 159 36q28 0 59.5 0.5t70 1.5t59.5 1h46q33 0 45 5q20 9 20 25q0 12 -21 25q-9 5 -42 5q-6 0 -21.5 -1t-24.5 0q-16 1 -47 1q-37 0 -44 -2 q-22 -8 -33 -20q-8 -6 -9 -15q0 -1 -1 -5.5t-2 -6.5q-1 -1 -5 -2h-12q-33 0 -49 -1q-63 -1 -189 -1h-22q-2 0 -7.5 -1.5t-7.5 -0.5q-12 1 -12 21q4 68 15 95q17 40 51.5 72.5t75.5 47.5q20 7 46.5 10.5t41.5 4t51 0t43 -0.5q14 0 55 -1t63 0q0 1 50 0h49q7 0 40.5 -1t40.5 0 q48 4 77 -8q39 -16 71 -35q37 -22 62 -59.5t31 -80.5q5 -32 0 -85q-2 -32 -24 -77q-11 -25 -58 -59q-34 -26 -79 -38q-21 -5 -74 -5q-16 0 -50 -0.5t-50 -0.5q-66 0 -98 -1q-61 0 -81 -3q-36 -6 -41 -46q24 -1 68 0t58 1q48 0 144 2q33 1 90 -0.5t105 -1t90 5.5 q0 -14 0.5 -41.5t0.5 -40.5q0 -16 -1 -49t-1 -49q0 -9 -3 -11.5t-13 -3.5h-54h-111q-129 4 -213 0q-35 -1 -212 1q-36 1 -108 -1q-22 -1 -65 -1h-29q-9 2 -14 0zM86 10q14 0 176 3t177 -2q23 -1 102 1q15 0 46 0.5t47 0.5q75 -1 224 -1q51 -3 59 -1l6 1q1 0 1 2.5t-0.5 5 t0.5 4.5q0 9 2 27q1 23 0 64.5t-1 59.5q-22 -2 -132 -2q-23 -1 -67 -0.5t-66 0.5q-80 -1 -239 -1q-5 0 -14 -0.5t-14 -1.5q-19 0 -21 1q-3 2 -3 9q1 3 1 9t1 9q7 31 31 43q15 7 58 7q217 2 261 2q65 0 108 29q61 38 78 76q24 49 21.5 110.5t-32.5 107.5q-30 44 -86 72 q-24 12 -51 20q-25 7 -60 4q-17 -2 -36.5 -2t-43.5 1t-37 1q-11 0 -32.5 0.5t-32.5 0.5q-39 -2 -59 0h-78q-92 0 -121 -5q-60 -10 -106 -52q-49 -44 -59 -102q-2 -11 -2.5 -31.5t-1.5 -29.5q13 2 79 2q10 0 38.5 1t43.5 0h71h41q2 1 4 1q1 0 2 2q0 2 1 4q3 8 8 15 q21 25 61.5 29.5t70.5 -0.5q12 0 36.5 0.5t37.5 -0.5q37 0 53 -30q7 -14 -0.5 -28.5t-21.5 -21.5q-17 -9 -76 -9q-91 2 -151 -3q-16 -1 -71.5 -0.5t-70.5 -5.5q-22 -5 -67 -25q-23 -10 -48 -45q-26 -36 -36 -67q-7 -20 -7 -82q0 -29 -1 -88t-1 -89z" glyph-name="two" horiz-adv-x="1029" unicode="2"/><glyph d="M572 -5h-250q-53 1 -80.5 3t-68.5 17.5t-64 46.5q-31 42 -37 100q-1 7 -1 42v13q1 1 12 1q77 2 230 2q3 0 23.5 1t24.5 0q7 0 10.5 -2.5t6.5 -8t6 -8.5q4 -4 8 -6t10 -3t9 -1h11h10q11 0 32.5 -0.5t31.5 -0.5t29.5 -0.5t28.5 -0.5q56 -3 61 -2q26 5 31 30q4 27 -16 31 q-12 3 -36 3q-2 0 -62 3q-78 2 -116 2q-17 0 -25 1q-15 0 -16 1q-3 2 -3.5 9.5t0.5 18.5t1 12q1 13 0.5 59t2.5 59q1 5 3 6q2 2 9 2.5t8 0.5h65q9 0 29 -0.5t30 -0.5q7 0 19.5 -0.5t22.5 -0.5t18 1q25 2 34 22q13 29 -13 38q-17 5 -54 5h-65q-43 0 -53 -5q-9 -4 -18 -13 q-1 -1 -7 -8.5t-10 -9.5q-2 -2 -9 -2h-8q-18 0 -26 1q-11 0 -33 1t-33 1q-10 0 -60 -1.5t-61 0.5q0 1 -27 0h-27h-8q-3 3 -3 25q-5 66 24 110q33 49 80 69q55 24 113 25q22 1 61 -0.5t55 -1.5q42 0 127 0.5t127 0.5q92 0 120 -9q48 -14 95 -65q37 -42 42 -87q7 -68 -8 -111 q-13 -33 -24 -48q-2 -4 -3 -5q-4 -6 -2 -10q2 -5 11 -12t10 -8q34 -35 39 -89q4 -69 0 -96q-9 -56 -53 -95q-29 -26 -68.5 -38t-76.5 -11.5t-79 0.5q-19 0 -58 -1.5t-59 -1.5zM515 11q40 0 119.5 0.5t119.5 0.5q129 -2 181 83q21 35 19 98q-2 62 -15 87q-13 29 -29 43 q-10 10 -16 15q-11 6 -11 9q0 1 3.5 5t3.5 5q10 12 13 17q9 15 21 49q13 41 4 105q-5 33 -44 77q-40 44 -88 56q-29 7 -115 7q-81 -1 -244 -1q-18 0 -54 1t-54 1q-61 0 -109 -20q-50 -21 -79 -60q-31 -44 -28 -106q0 -8 1 -10q2 -5 6 -5h4q5 0 13.5 0.5t12.5 0.5 q10 0 29 -0.5t28 -0.5h37h44h38q45 -3 55 -1q5 1 17 13q10 10 24 18q14 6 50 6q11 0 32.5 0.5t32.5 0.5q9 -1 19 -0.5t21.5 -0.5t22 -3t18.5 -7.5t12 -14.5q9 -23 -6 -44t-38 -24q-6 -1 -51 -1q-22 1 -64 1h-55q-25 0 -26 -1t-1 -22v-58q0 -6 -0.5 -16t-0.5 -16v-26 q2 -1 24 -1h29q38 -2 56 -2l114 -3q50 0 50 -39q0 -27 -18 -41q-16 -12 -47 -12q-19 0 -57 1t-57 1q-19 1 -55 1q-39 0 -54 16q-1 1 -4 6.5t-5 6.5t-6 1t-9 -0.5t-6 -0.5h-56q-9 0 -55.5 -1t-55.5 0h-48q-11 -1 -32 -1h-5q-4 1 -5.5 0t-0.5 -4v-18q-1 -48 24 -91.5t67 -62.5 q30 -13 108 -17q19 -1 114 -1q39 1 117 1z" glyph-name="three" horiz-adv-x="1056" unicode="3"/><glyph d="M749 -4q-11 0 -67.5 1t-67.5 0h-23q-4 3 -4 11q-2 13 1 77q-14 0 -41 0.5t-40 0.5q-17 1 -48.5 0t-41.5 -1q-95 3 -162 1h-80q-8 0 -33 -1t-39 0q-22 0 -25 1q-5 2 -5 22v80q-1 12 -1 37q0 2 0.5 9.5t1.5 10.5q3 7 11 15q34 49 48 67q9 12 24.5 36.5t23.5 35.5 q8 12 24.5 32t21.5 27q16 24 49 71t49 70q28 40 41 62q9 18 11 19q2 2 33 2q29 1 87 -1q17 0 50 1t49 1q123 2 157 -1q-18 -33 -62 -95q-22 -34 -34 -50q-27 -34 -32 -45q-5 -9 -16.5 -25.5t-15.5 -23.5t-38 -54q-12 -15 -24 -34t-26 -42t-23 -36q17 1 47 0t39 -1h11 q3 1 3 0.5t1 0.5q0 2 1 3q1 2 1 8.5v9.5q0 5 1 15t1 15q0 50 1 75v16q0 9 3 11q6 3 28 0h42h24.5h28h23.5q14 0 41.5 0.5t41.5 0.5q13 -1 40 -1h27q3 -1 4 -6v-12v-47q1 -15 2.5 -44.5t1.5 -43.5q11 0 31 -0.5t31 -0.5q1 0 11.5 1t18.5 0.5t10 -2.5q7 -5 3 -27v-11.5v-14 v-11.5q1 -12 2.5 -35.5t1.5 -35.5v-31q0 -23 -2 -25q-1 -1 -25 -1q-14 -1 -44 -1h-36q-5 -7 -5 -8q1 -5 1 -15q1 -6 1 -18v-18q0 -22 -1 -23q-1 -2 -22 -2q-23 0 -35 -1q-14 -1 -87 -1zM626 12q16 0 96 -1t96 0q6 0 18 0.5t18 0.5q11 0 17 1h8v11q-1 7 0 21t0 21q-4 27 0 30 q1 1 10 1h22h56h11.5t10.5 1q1 1 1 21q0 13 -2 39q-2 21 -2 95q0 8 -2 9h-11h-50q-3 0 -11.5 -0.5t-16 -0.5t-10.5 3q-5 4 -5 37q-3 114 -3 115h-70q-12 1 -35.5 0.5t-34.5 -0.5q-16 0 -63 -1t-62 1q-2 0 -5 0.5t-4 -1.5v-3q-1 -5 -1 -17q0 -45 -1 -67q0 -8 -0.5 -17 t-1.5 -19.5t-1 -16.5q0 -12 -1 -13h-21q-96 0 -120 3q42 62 61 94q12 22 35 50q7 10 19.5 28.5t16.5 24.5q12 15 19 26l5 10t7 12q5 8 19 26.5t21 29.5q9 14 33.5 48.5t36.5 54.5q-8 -2 -36 1q-20 1 -60 -1q-68 -2 -103 -2q-17 0 -50.5 0.5t-49.5 0.5h-15q-28 0 -29 -1 q-2 -2 -5 -8l-3 -6q-8 -14 -12 -20q-21 -33 -63 -91.5t-52 -73.5q-10 -14 -30 -39.5t-28 -37.5q-10 -14 -30 -44t-30 -44q-22 -32 -34 -48q-11 -15 -12 -22v-28q0 -11 1 -32.5t1 -39t-2 -32.5q165 0 248 -1h141q24 1 68 -1q8 0 27 0.5t26 -0.5q5 -1 5.5 -2t0.5 -7 q-1 -11 -1 -34q-2 -30 0 -39v-6h3t5 1h3h13zM837 12zM87 97z" glyph-name="four" horiz-adv-x="1090" unicode="4"/><glyph d="M695 -6q-28 0 -116 1.5t-136 0.5q-11 0 -31 -0.5t-31 -0.5q-9 0 -30 1.5t-32 0.5q-89 -2 -133 -1h-48h-57q-10 2 -10 23v38v60v33v12t2 15q2 4 8 5q3 1 29 4h34h35q51 2 256 0q9 0 28 0.5t28 0.5q58 0 65 1q35 5 41 25q4 11 -0.5 21.5t-15.5 15.5q-13 6 -30.5 9 t-28.5 3.5t-34.5 0t-29.5 -0.5h-128q-82 -1 -245 -1q-9 0 -9 1q-2 2 -2 19v59q0 22 -0.5 64.5t-0.5 63.5q0 23 1 68.5t1 67.5q-3 53 1 68q1 4 5 7q6 3 26 3q26 1 74.5 0t63.5 -1q23 0 68 1t68 1t68.5 -1t67.5 -1h140q0 -1 31 -1l31 1q9 1 24 0t21 -1h55q4 0 16 1t20 0.5 t15 -3.5q3 -1 5 -6q1 -3 1 -19q1 -7 1 -67v-62q0 -31 -12 -33h-24q-7 0 -20 -0.5t-19 -0.5q-10 0 -31 -0.5t-32 -0.5q-22 0 -66 0.5t-66 0.5h-58t-59 1q-24 1 -70 1h-21q-13 0 -15 -1q-4 -1 -5 -2q-1 -3 -1 -13v-16q2 -5 11 -5h32q22 -1 66 -1q39 0 115 2q12 0 38 1 t46.5 0.5t38.5 -2.5q45 -6 104 -45q49 -33 73 -87q16 -34 16 -111q0 -65 -31 -113q-36 -53 -87 -79q-24 -11 -53 -16q-3 -1 -22.5 -5.5t-29.5 -4.5zM660 10q6 0 17 -0.5t16 -0.5q7 0 34 5q38 8 58 16q32 13 60.5 40.5t42.5 59.5q18 39 14 133q-2 59 -64 121q-48 48 -113 56 q-28 3 -149 1q-88 -2 -132 -1q-27 0 -40 1h-31q-15 5 -8 52q0 4 1.5 7t5.5 4l6 1.5t8.5 1t7.5 0.5h73q98 -2 146 -2q122 -2 157 -1q50 2 76 2q14 0 15 2q2 3 2 18v33q0 71 -1 85q0 10 -1 15v4q0 2 -5 3q-4 1 -10 1t-13 -0.5t-11 -0.5q-20 0 -59 1t-58 0q-55 -2 -162 0 t-157 1t-151 -1q-41 -1 -83 0q-13 1 -38 1h-18q-6 -2 -7 -11q-2 -18 -1.5 -82.5t0.5 -82.5q-1 0 0 -75v-75v-66h372q5 0 21 1t26.5 1t27.5 -0.5t28 -4t22.5 -8.5t18 -14.5t8.5 -22.5q2 -14 -2 -24.5t-13.5 -16.5t-20.5 -9.5t-26 -4.5t-26.5 -1t-26 0.5t-20.5 0.5 q-31 -1 -94.5 1t-94.5 0q-30 -2 -95 -1.5t-95 -2.5q-11 -1 -12 -6v-24v-51v-63v-11q1 -2 1 -4v-1q1 1 4 1h26h38q16 1 45.5 0t38.5 -1h109q17 -2 100 1q41 1 114.5 0t97.5 -1z" glyph-name="five" horiz-adv-x="1003" unicode="5"/><glyph d="M471 -2q-17 0 -51 1t-51 1q-8 0 -49 -1t-49 0q-57 4 -89 25q-48 32 -73 71q-16 23 -24 56.5t-9 54t-2 62.5v31.5t-0.5 38t-2.5 32.5q-2 17 0 35q1 17 3 50t4 50q6 61 33 95q38 48 71 62q28 11 84 21q14 2 107 2l57 -1q57 0 57 1q18 0 54 0.5t54 0.5h107.5t107.5 -2 q35 -1 104 1q10 -4 11 -7q1 -9 1 -27v-27q0 -35 2 -109v-15q-2 -3 -6 -4q-8 -1 -23.5 -1.5t-20.5 -0.5q-38 -2 -112 0q-38 1 -112 -1q-74 0 -110 -1q-86 0 -102 -2q-28 -4 -43 -17q-8 -7 -13 -16q-2 -8 -2 -12q2 -7 5 -8h28q16 0 24 1q36 0 54 1q56 0 166 2q67 0 101 -2 q30 -2 45 -5q12 -2 50 -21q46 -19 78 -56t40 -84q7 -42 2 -91q-2 -26 -5 -39q-7 -22 -24 -46q-54 -87 -154 -98q-21 -2 -105 0q-54 1 -109 0q-36 -1 -109 -1zM360 14h236q40 1 118 -1q74 -2 111 6q48 11 88 56q40 46 47 81q4 20 4 91q-2 58 -42 103q-24 28 -79 54 q-33 15 -47 17q-19 3 -52 5q-15 2 -89 0.5t-89 -1.5q-20 0 -60 -0.5t-60 -1.5q-10 0 -28.5 -0.5t-27.5 -0.5t-14 1q-5 2 -6 3v4q-6 23 9 43t39 27q13 4 29.5 6t27 2t31.5 -0.5t28 -0.5q45 0 136.5 0.5t137.5 0.5q34 -2 69 0h14.5t17.5 2h4v20q0 24 -1 70.5t-1 69.5 q-12 -2 -88 -0.5t-87 1.5q-131 0 -157 2q-21 1 -60 -1t-53 -2h-93q-67 2 -89 0q-98 -10 -138 -51q-34 -37 -44 -68q-8 -23 -12 -85q0 -4 -6 -68q0 -8 0.5 -17.5t1.5 -21t1 -17.5v-40.5t0.5 -43.5t2 -40t4.5 -42q10 -46 25 -71q21 -33 65 -64q15 -11 31 -17t36.5 -8.5t34 -3 t39 0.5t35.5 1zM606 173q-104 0 -156 2q-50 2 -67 24q-15 18 -15 60q30 -2 106.5 -0.5t106.5 0.5l19 1q19 0 25.5 -1t20.5 -3.5t21 -9t11 -16.5q11 -30 -14 -43.5t-58 -13.5zM586 188h11h15t15 0.5t16 3t12 5.5t9 8.5t2 12.5q-1 9 -6.5 15t-16 8t-18 3t-20.5 1h-16 q-31 1 -100.5 -1.5t-106.5 -0.5q0 -34 25 -45q20 -9 65 -9q38 -1 114 -1z" glyph-name="six" horiz-adv-x="1066" unicode="6"/><glyph d="M190 -2q-18 0 -52 2q44 50 67 75q17 19 46.5 56.5t39.5 49.5q13 15 41.5 53t45.5 57q6 7 75 95q20 26 47 57q7 8 20 24.5t20 24.5h-82q-8 0 -21 1t-23.5 1.5t-19.5 0.5h-64q-15 1 -42 0t-36 -1q-13 0 -80 -1t-80 0q-11 0 -15 4t-4 34q-1 13 -1 82q0 5 0.5 16t0.5 17 q-3 24 -1 30q1 7 8 9h36q0 -1 62 -1l63 1h48h55.5h47.5q12 0 74 -2q11 0 33 0.5t34 0.5q160 2 191 1q78 -1 155 0q50 0 60 1q1 0 4 1t5 0q4 -2 4 -23q-1 -22 0 -66t0 -66q0 -6 -3 -13t-6.5 -11t-10 -10.5t-8.5 -9.5q-25 -30 -47 -59q-57 -79 -81 -107q-82 -98 -92 -111 q-8 -12 -98 -120q-22 -28 -47 -56l-24 -27q-10 -8 -15 -9h-68h-79h-103q-27 -1 -80 -1zM168 13q10 -1 63.5 0t63.5 1h78q81 0 121 -1q23 0 26 1q5 2 14 12l8 11q14 15 40 47q25 29 73.5 89.5t73.5 90.5q39 45 74 89q16 19 42.5 56t32.5 45q20 26 40 49q18 21 19 24q1 0 1 7 l-1 8v64.5t1 64.5q-164 -3 -185 -2q-12 0 -36 1.5t-36 2t-36 -0.5q-44 -3 -179 -3q-10 0 -42.5 1t-49.5 0q-64 0 -96 1t-96 0.5t-95 -0.5q1 -22 0 -65.5t0 -65.5q0 -30 2 -32q1 -1 14 -1h19q12 0 35 0.5t34 0.5h71q9 0 32.5 1.5t36.5 0.5q19 -1 56 -1q8 0 53 -2h22h26.5 h22.5h31q17 0 20 -5q1 -3 -3 -9q-10 -12 -16 -20t-19 -23.5t-20 -23.5q-12 -15 -36 -46t-36 -46q-14 -18 -41 -50t-35 -42q-18 -22 -50.5 -64t-40.5 -52q-44 -55 -97 -113z" glyph-name="seven" horiz-adv-x="1038" unicode="7"/><glyph d="M767 -1q-17 0 -49 1t-49 1q-37 1 -111 -1h-213h-24h-25t-22.5 0.5t-24.5 1.5t-22.5 3t-24 5.5t-21.5 8t-23 10.5q-39 23 -62.5 60t-24.5 81q-2 62 10 100q8 27 22 46q19 28 34 38q-28 35 -35 78q-5 37 -2 84q2 44 24.5 81t60.5 55l12 6t14.5 7t12.5 5q26 8 40 11 q16 3 98 3q34 0 102 -1t102 0q125 2 188 -1q56 -2 89 -21q48 -29 72 -65q49 -75 22 -183q-9 -28 -16 -39q-1 -1 -5.5 -7t-5.5 -10q0 -1 -1 -1.5t-1 -1.5l10 -10q33 -34 44 -77q28 -117 -29 -196q-21 -30 -67 -52q-41 -20 -99 -20zM644 16q18 0 53 -1t52 -1q72 0 99 12 q50 23 72 51q28 37 34 83q6 48 -5 99q-10 43 -43 76q-12 12 -14 15q-3 3 -2 7q1 2 5 6.5t5 5.5q6 8 14 21q17 37 17 95q0 50 -22 93q-17 35 -70 68q-25 15 -44 18q-10 3 -29.5 4t-22.5 1q-23 2 -92 0q-69 -3 -208 1h-54q-54 -1 -54 0q-56 0 -90 -9q-24 -6 -50 -21 q-26 -13 -34 -21q-37 -34 -45 -86q-9 -48 2 -106q2 -11 7 -22.5t8.5 -17.5t13 -20.5t11.5 -17.5q-61 -35 -70 -110q-12 -96 22 -148q40 -62 135 -75q15 -2 87 -2q33 1 99 1q35 0 106 0.5t107 0.5zM536 177q-43 0 -64 1q-54 0 -69 6q-17 6 -24 22.5t0 33.5q6 15 23 25t34 10 q42 1 125 1h13h14.5t14 -0.5t15 -2t12.5 -3.5t12 -5.5t9 -8t7.5 -11.5t3.5 -15q1 -18 -11 -31.5t-31 -17.5q-15 -4 -84 -4zM467 192h61q61 -1 61 0q35 2 46 11q12 10 12.5 24t-11.5 25q-13 10 -48 10h-66q-10 0 -31.5 -1t-32.5 -1q-35 -2 -45 -7q-19 -9 -22 -22 q-3 -19 7 -28q6 -5 16.5 -8t15.5 -3.5t20.5 0t16.5 0.5zM454 415q-13 0 -26.5 8.5t-20.5 19.5q-14 22 11 47q17 17 46 17h62q5 0 21.5 1t26 0.5t23 -3t23 -8.5t14.5 -17q12 -24 -4.5 -43t-42.5 -19q-132 -3 -133 -3zM450 492q-14 -5 -25 -16.5t-6 -24.5q11 -23 48 -21 q12 0 36.5 0.5t36.5 0.5q45 0 50 1q15 3 25 11t9 21q-1 26 -42 28q-22 1 -68 1q-6 0 -18.5 -0.5t-18.5 -0.5h-27v0z" glyph-name="eight" horiz-adv-x="1058" unicode="8"/><glyph d="M511 -3q-47 0 -159 2t-172 1q-8 0 -23 -0.5t-22 -0.5h-11q-1 1 -1 12q-2 70 -2 104v54v15q2 3 7 4q14 1 30.5 1.5t36 1t30.5 0.5h192q151 0 181 2q32 2 48 14q10 8 15 16q9 18 3 24h-20q-16 0 -24 -1q-10 0 -29 -0.5t-28 -0.5q-73 0 -219 -2q-55 0 -94 5q-15 2 -43 15 q-2 1 -18.5 8.5t-24.5 12.5q-42 26 -67 65.5t-26 85.5q-2 53 3 88q4 45 45 88q37 42 75 59q36 16 92 16q108 -2 216 0q34 0 102 -1t102 -1q79 0 95 -2q44 -5 79 -32q52 -42 69 -77q16 -30 23 -82q3 -25 3 -99q0 -11 1 -31t1.5 -36.5t0.5 -31.5q1 -16 -2.5 -45t-3.5 -39 q-2 -62 -20 -101q-21 -46 -64 -74q-33 -23 -89 -30q-49 -7 -204 -5h-44q-2 0 -21 0.5t-19 -2.5zM469 11q16 0 55.5 1.5t60.5 0.5h94q70 -2 95 1q58 10 69 14q39 14 69 47q31 38 40 76q2 9 7 78q5 50 4 86q-2 60 -2 91v16t-0.5 17t-1 15.5t-1 17t-1 16t-2 17t-3.5 15.5 t-4 16.5t-5 15t-7 15.5q-13 26 -59 66q-30 27 -67 34q-31 5 -78 3q-31 -1 -93 -1q-14 0 -42.5 1t-42.5 1q-17 0 -50.5 -0.5t-50.5 -0.5q-28 0 -91 1t-97 0q-43 -2 -79 -21q-31 -18 -62 -55q-33 -40 -37 -77q-2 -28 -2 -81q2 -85 80 -136q13 -9 32 -17q3 -1 17.5 -8.5 t22.5 -10.5q23 -7 84 -7q32 0 192 2q65 0 97 1h44q22 0 24 -2q1 -1 1 -15q0 -22 -12 -37q-24 -27 -80 -29q-31 -1 -89.5 -1.5t-76.5 -0.5h-165q-42 1 -96 -2h-20q-5 -6 -5 -7v-12q0 -33 1 -49q2 -62 2 -92q11 2 84.5 0.5t85.5 -1.5h88q24 0 36 -1q3 0 11.5 1t15 0.5 t10.5 -2.5zM475 424q-33 0 -65 3q-18 2 -29.5 13t-12.5 29q0 15 9 24t25.5 12.5t30 4.5t34 0.5t24.5 -0.5q8 0 35 0.5t40 0t33.5 -2.5t37.5 -6q34 -9 42 -42q7 -21 1 -32q-1 -2 -21 -2q-34 1 -97 -0.5t-87 -1.5zM419 427zM419 441q8 0 29.5 -1.5t33.5 -0.5q12 0 35.5 0.5 t35.5 0.5q13 0 39 0.5t39 0.5h22h13q1 2 0.5 5t-0.5 8l-1 5q-3 8 -7.5 14t-12 10t-13 6.5t-16 3.5t-15.5 1.5t-17 0.5h-14q-102 2 -136 0q-48 0 -51 -23q-2 -15 9 -23t27 -8z" glyph-name="nine" horiz-adv-x="1066" unicode="9"/><glyph d="M220 392q-17 0 -50.5 1.5t-50.5 1.5q-6 0 -17.5 -1t-16.5 -1q-12 1 -12 19q0 78 -1 117q0 30 -1 44q0 6 1 7q2 3 19 3q16 -1 47 0t45 1q19 -1 114 -1h57h14q1 0 3 -1q2 0 2 -3v-2q2 -17 2 -36.5t-1 -43t-1 -36.5q-1 -12 -1 -36v-24q-2 -4 -7 -4q-9 -1 -27 -1 q-10 0 -31 -0.5t-32 -0.5q-10 0 -28 -1.5t-27 -1.5zM134 410q11 0 58.5 -2t58.5 0q15 2 69 2q5 0 14.5 0.5t14.5 0.5q8 0 9 2v21q0 45 1 68v33v18v8v2q0 3 -0.5 3.5t-4.5 1.5q-5 1 -11 1t-13 -0.5t-10 -0.5h-36h-67q-87 2 -131 0q0 -26 0.5 -80t0.5 -80q7 2 47 2zM225 13 q-36 0 -70 3h-36h-18q-2 0 -5.5 -1t-5.5 -1q-9 0 -13 2q-4 1 -4 10v69q0 13 -0.5 39t-0.5 38q0 2 -1 11.5t0 14.5q2 5 8 5q4 1 13 1h14q12 1 36 1q12 0 37.5 -0.5t37.5 -0.5h156q0 -154 -1 -173q0 -11 -2 -12q-1 -1 -3 -1.5t-3 -0.5h-42q-17 -1 -52 -1q-8 0 -23 -1.5 t-22 -1.5zM211 28q10 0 21 0.5t24.5 1.5t20.5 1q12 0 36 0.5t36 0.5q7 0 8 1t1 6v2v19q0 25 1 37v74v18h-22h-36h-79q-12 0 -36.5 1t-36.5 1q-8 0 -29.5 -1.5t-33.5 -0.5q0 -27 0.5 -80.5t0.5 -79.5q3 2 23 2q22 0 33 -1q53 0 68 -2v0z" glyph-name="colon" horiz-adv-x="439" unicode=":"/><glyph d="M298 -126q-152 0 -228 3q18 63 35 103q9 22 44 137q3 9 9 27.5t9 27.5q7 22 9 23q0 4 13 3t14 -1h46.5h54.5h47q65 1 147 -2q-28 -58 -39 -88q-14 -38 -22 -57q-3 -6 -11 -20.5t-11 -22.5q-3 -6 -7 -20t-7 -20q-9 -20 -27 -58q-14 -31 -21 -34q-2 -1 -5.5 -1t-8 0.5 t-6.5 0.5q-12 -1 -35 -1zM268 -111h54h25q4 3 8 15q33 61 41 94q4 16 18 42t18 36q6 13 20 49.5t23 55.5q-42 2 -127 2q-18 0 -61.5 0.5t-61.5 -0.5q-5 0 -14.5 -0.5t-14.5 -0.5l-4 1q-5 1 -6 0q-4 -2 -4 -13q-3 -7 -7.5 -21t-6.5 -20q-6 -19 -17.5 -57t-17.5 -57 q-7 -21 -21.5 -62t-21.5 -62q30 0 89.5 -1t88.5 -1zM322 392q-20 0 -62 2q-16 1 -69 -1q-11 0 -13 2q-3 2 -3 11v81q0 13 -0.5 38t-0.5 38v18h17q11 0 32 1t31 1q22 0 70 -2q25 0 75.5 0.5t76.5 0.5v-74q0 -8 -0.5 -25t-0.5 -26v-16.5v-19v-16.5q-1 -9 -13 -9h-45 q-18 -1 -54 -1q-1 0 -17 -1.5t-24 -1.5zM237 410q9 0 57 -2.5t58 0.5q15 2 69 2q9 1 29 1h6q4 1 4 0v4v17q1 12 1.5 35.5t0.5 35.5q0 23 -1 35q0 2 1 9t1 12.5t-2 7.5h-31h-38h-69q-11 0 -35 0.5t-36 0.5q-7 0 -29.5 -1t-34.5 0q1 -53 1 -159q7 2 48 2z" glyph-name="semicolon" horiz-adv-x="561" unicode=";"/><glyph d="M783 17q-6 0 -12.5 2t-14.5 6t-11 5q-34 12 -50 18q-14 5 -43 14.5t-44 14.5q-18 6 -73.5 24t-85.5 29q-74 28 -82 30q-16 6 -47.5 17t-47.5 16q-35 13 -74 24q-12 4 -36 13.5t-37 13.5q-8 3 -23 8.5t-20 7.5q-4 1 -6 3.5t-2 4v8.5v92q0 8 -0.5 23t-0.5 22q0 22 3 24 q7 7 32 13q5 2 17.5 5.5t19.5 5.5q5 2 29.5 11t38.5 13l60 21q71 25 91 31q15 5 42 15.5t40 14.5q28 10 84.5 28.5t84.5 28.5l174 60q0 -10 1 -41.5t0 -48.5q-2 -42 -2 -62v-30v-24q-1 -2 -13 -7q-5 -2 -15 -5.5t-15 -5.5l-63 -21q-22 -8 -63.5 -21.5t-55.5 -18.5 q-27 -10 -78.5 -27.5t-65.5 -22.5q20 -7 60 -20.5t60 -20.5q21 -7 63 -23q6 -2 26 -7.5t31 -9.5q82 -28 124 -43q6 -2 7 -7q1 -4 1 -28q0 -21 -2 -65q0 -12 0.5 -35.5t0.5 -34.5v-31q0 -5 -1 -6t-6 -1zM89 273q166 -61 264 -93q23 -8 68 -24.5t68 -23.5q20 -7 60 -20t60 -20 q28 -9 83.5 -29t83.5 -29q-1 63 0 124v30v14v10q-3 3 -10 3q-27 11 -61 21q-37 13 -112 38.5t-113 38.5q-92 33 -101 36q40 17 119.5 44t89.5 31q10 3 27.5 8t22.5 7q18 5 63 22q8 3 28 9.5t31 10.5q13 4 13 5v14q0 22 1 32q0 22 0.5 66t0.5 66l-165 -57q-25 -9 -80.5 -27 t-85.5 -29q-16 -6 -75.5 -27t-91.5 -33q-48 -16 -72 -23q-13 -4 -37 -13t-33 -12q-7 -2 -20 -6.5t-19 -6.5q-8 -3 -9 -6q-1 -2 0 -9t1 -8v-24q2 -74 1 -110zM158 465z" glyph-name="less" horiz-adv-x="869" unicode="&lt;"/><glyph d="M642 382q-55 0 -98 4h-106q-34 0 -103 -1t-104 -1q-15 0 -46 1t-47 1q-8 0 -22 0.5t-22 0.5q-11 0 -16 2q-2 1 -4 1q-1 0 -1 2v3q-2 4 0 20t2 20v59v67q2 10 15 11h61h112q23 0 65.5 1t77 1t65.5 -2q0 -2 55 -1l56 1h104q8 0 44.5 -1t43.5 0q16 1 46 1t39 -3q3 -1 5.5 -3 t3 -5.5t0.5 -6v-7.5v-6q0 -41 1 -61q1 -10 0 -27.5t-1 -23.5q3 -30 -2 -38q-3 -4 -11.5 -5t-19.5 -0.5t-14 0.5q-18 0 -58 -2q-20 0 -60.5 -1t-60.5 -1zM541 401q15 0 52.5 -2.5t58.5 -1.5q9 2 65 2h65q44 2 64 2h2q4 0 4.5 0.5t1.5 5.5v7v29v55v31q-1 6 -1 18q0 6 -1 7 t-6 2q-15 3 -49.5 1t-49.5 -1q-12 1 -113 1h-132q-20 0 -60.5 1t-61.5 1q-48 0 -145 -1t-145 -1v-99v-30q0 -1 -1.5 -8t-2 -11.5t1.5 -7.5h26h25q80 -2 120 -2q21 0 63 1t64 1h155zM642 102q-49 0 -98 3h-106q-35 0 -105 -0.5t-105 -0.5q-15 0 -45 0.5t-45 0.5q-8 1 -23.5 1 h-22.5q-10 0 -14 2q-2 1 -3 1l-2 2v3q-2 4 0 20t2 20v59v67q2 10 15 11h56h112q23 0 66 1.5t78.5 1.5t66.5 -3h107h110q10 0 40.5 -1t47.5 0q16 1 46 1t39 -3q9 -2 9 -25q0 -40 1 -60q1 -10 0 -28.5t-1 -24.5q3 -33 -2 -40q-4 -4 -12 -5t-21 0t-14 1q-40 -2 -61 -2 q-78 -2 -116 -2zM541 120q14 0 51.5 -2.5t58.5 -1.5q27 2 122 2q44 2 67 2h13q1 1 1 14v30v56q0 21 -1 31v15q0 6 -1 7t-6 2q-15 3 -49.5 1t-49.5 -1q-9 1 -116 1h-133q-20 0 -60 1.5t-61 1.5q-238 -3 -287 -2v-97v-33q0 -2 -1.5 -8.5t-1.5 -9t1 -7.5q1 -2 24 -2h27 q78 -2 116 -2q22 0 65.5 1t65.5 1h155z" glyph-name="equal" horiz-adv-x="951" unicode="="/><glyph d="M74 20q-3 11 -3 43q0 7 1 29.5t0 35.5q-1 21 -1 64v27q0 6 5 9q6 4 24 9q10 4 30 10q48 17 61 22q17 6 54 17.5t56 18.5q24 9 71.5 25t70.5 24q-45 15 -133 45q-7 2 -27 10t-31 11q-11 4 -31 10t-31 9q-11 4 -33.5 12t-33.5 12l-33 12q-14 5 -16 9v28q0 25 -1 38 q0 8 -1 30.5t0 34.5v74q22 -8 75 -27t82 -28q28 -10 84.5 -28.5t85.5 -27.5q19 -7 80 -28.5t94 -32.5q77 -28 85 -30q11 -4 36 -13t39 -13q3 -1 22.5 -7t28.5 -11q5 -3 5 -12q0 -7 -0.5 -20.5t-0.5 -20.5q0 -16 -0.5 -47.5t-0.5 -47.5q0 -27 -1 -28t-12 -5q-18 -6 -27 -10 q-31 -9 -42 -14q-22 -10 -34 -13q-14 -5 -41 -14t-41 -13q-18 -6 -50.5 -17.5t-59 -21t-49.5 -18.5q-38 -15 -111.5 -38.5t-82.5 -26.5q-24 -7 -78 -27t-84 -29zM86 216q-2 -42 0 -85v-46v-46q57 20 162 55.5t135 45.5q96 34 143 51q25 9 76 26t76 25q5 1 14 5.5t14 6.5 q7 2 21.5 7t21.5 8q1 0 8.5 2t10.5 4q4 3 4 15q0 30 1 45q0 14 0.5 42t0.5 41v13q-1 1 -12 5q-8 3 -26 8q-10 3 -29 10.5t-28 10.5q-10 3 -36.5 11.5t-40.5 14.5q-20 7 -75 25.5t-84 29.5q-79 29 -177 61q-34 11 -95 32.5t-84 29.5v-77q1 -24 1 -72v-29l15 -5q3 -1 9 -3.5 t9 -3.5q88 -31 126 -42q25 -7 71.5 -24t54.5 -20q19 -7 56 -19t55 -19q-36 -15 -106 -39t-84 -29q-17 -6 -49.5 -16t-48.5 -16q-10 -4 -49.5 -17.5t-60.5 -21.5zM744 457z" glyph-name="greater" horiz-adv-x="869" unicode=">"/><glyph d="M531 190q-28 0 -84.5 0.5t-84.5 0.5h-78q-16 0 -17 2v25q0 7 0.5 21.5t0.5 22.5q0 76 3 101q7 56 46 69q17 7 91 9q62 0 94 1q7 0 22 -0.5t25 -1t22.5 1.5t22.5 6q21 9 22 24q3 19 -19 29q-13 6 -34 4h-47q-9 0 -25 -1t-29.5 -1.5t-25.5 -0.5q-32 0 -39 -3 q-15 -6 -22 -31q0 -9 -2 -12q-1 -2 -5 -3q-3 -1 -46 -1q-22 0 -65.5 1.5t-65.5 2t-65 -0.5q-30 0 -45 1q-9 0 -10 1v10q-1 36 6 72q11 52 28 72q23 29 71 57q45 24 91 27q8 0 22.5 -0.5t21.5 -0.5q9 0 26 0.5t26 0.5q21 0 88 -1t104 0q102 2 185 -1q37 -1 85 -28 q40 -20 66 -55q52 -72 36 -184q-6 -45 -36.5 -82t-73.5 -60q-53 -27 -140 -29q-41 0 -61 -1q-30 0 -36 -5q-9 -8 -9 -41q0 -13 -5 -16q-4 -2 -35 -2zM282 206h150q46 0 69 -1h47q8 6 8 9q0 14 1 22q3 22 23 30q7 3 36 3h38q24 0 36 1q87 2 149 45q37 26 58 65q17 34 17 82 q2 57 -9 88q-15 44 -43 72t-73 43q-4 1 -11 4t-13 5t-12 3q-16 3 -51 1q-18 0 -75 1t-88 0l-47 1q-46 0 -46 -1q-14 0 -44 1t-45 1q-20 0 -43 -0.5t-43 -1t-42 -6t-40 -15.5q-50 -28 -70 -52q-17 -20 -28 -70q-1 -5 -2.5 -16t-2.5 -17q0 -2 -1 -9t-1 -11.5t1 -9.5q1 -1 5 -3 q3 -1 11 -1q14 0 20 1h44q31 -1 93 -1q15 0 44.5 -1t43.5 -1h3.5h5h3.5q2 1 4 6q1 2 2.5 7t2.5 7q12 21 26 26q12 4 38 4q5 0 16 0.5t16 0.5q29 1 88 1q50 2 67 -16q15 -16 12 -34.5t-21 -29.5q-21 -12 -78 -12q-149 0 -179 -3q-49 -4 -62 -39q-7 -22 -7 -98q-1 -27 -1 -81z M423 5q-13 0 -41 1t-42 1q-23 2 -47 0h-24v28v48q-1 24 -1 72q9 0 52.5 1.5t52.5 -0.5q46 -1 138 -1h33h22q3 -1 3 -10q1 -13 1 -39q-2 -46 -2 -68v-25q-2 -4 -7 -4q-11 -1 -68 -1q-11 0 -35 -1.5t-35 -1.5zM397 21q40 0 120 2h32q4 -1 5 0t0 5v11v15q1 25 1 74v8q1 4 0 5 t-5 0h-19h-36h-71q-12 0 -36 0.5t-36 0.5q-14 1 -38 0t-32 -1q0 -10 0.5 -29.5t0.5 -28.5v-33v-29q3 -1 6.5 -0.5t9 1t6.5 0.5h29q10 0 31 -0.5t32 -0.5z" glyph-name="question" horiz-adv-x="1015" unicode="?"/><glyph d="M607 7h-198q-27 1 -81 1q-74 -2 -101 1q-87 8 -127 75q-27 45 -28 83q-1 18 -1.5 50t-0.5 42q0 118 1 178l-1 43q0 43 1 43q1 44 22 84q42 78 132 86q13 5 96.5 3t96.5 -2q35 1 207 1h171q53 0 79 -11q40 -18 65 -44q30 -34 41 -80q3 -13 3 -81q2 -118 2 -177 q0 -13 -1 -39.5t-1 -39.5q2 -59 -4 -84q-10 -41 -38 -74t-66 -45q-41 -14 -90 -3q-34 6 -71 41q-15 15 -29.5 35.5t-23 35.5t-22.5 42t-20 38q-8 13 -22 39q-1 1 -3 5t-4 7.5t-4 4.5h-24h-97q-7 0 -14 -10q-2 -3 -3.5 -6.5t-4 -8t-3.5 -7.5q-1 -2 -4 -7.5t-6 -9.5t-6 -5h-16 h-24q-8 0 -24.5 -0.5t-25.5 -0.5q-52 2 -79 2q28 60 121 220q6 10 17.5 31t17.5 31q8 18 16 31q4 6 9 6q8 1 72 1q25 0 75 -2q27 0 32 -1q3 0 4.5 -1.5t3 -5.5t3.5 -6q3 -5 15.5 -25.5t18.5 -32.5q5 -9 14.5 -27.5t14.5 -27.5t15.5 -26t15.5 -26q13 -22 36 -64t32 -58 q3 -6 5.5 -10t7 -8.5t9.5 -3.5t7 5t2 13v9q0 12 1 36t1 36q1 31 -1 138q-1 29 -3 45.5t-12.5 36.5t-31.5 31q-18 9 -72 11h-67h-160h-96h-19t-21 -0.5t-18.5 -1.5t-20 -3.5t-16.5 -6.5t-17.5 -10t-13.5 -14q-15 -18 -17 -66q-2 -23 -2 -70q-2 -61 1 -147q2 -51 11 -69 q17 -31 51 -40q17 -4 37.5 -5.5t35 -1.5t40 0.5t35.5 0.5q27 0 79 0.5t79 0.5q11 0 13 -1q3 -3 3 -21q0 -53 1 -80q0 -20 -1 -22t-3 -3t-9 -1zM349 23q43 0 128 -0.5t128 -0.5v75q0 15 -1 18v5h-1h-4h-8h-40h-157q-5 0 -24 -0.5t-28 0t-24 2t-26.5 5t-21.5 9.5 q-29 18 -38.5 45t-11.5 70q-2 94 -1 141q0 23 2 67q2 50 14 73q27 48 105 50h85h152q16 0 45.5 0.5t53 0.5t44.5 -1q83 -6 104 -58q6 -14 9 -31t3.5 -32.5t0.5 -33v-32.5q0 -44 -2 -134q0 -3 0.5 -14.5t0.5 -18t-2 -15.5t-7 -14q-14 -10 -26 -4t-21 20q-11 19 -31.5 57 t-30.5 55q-37 64 -60 107q-20 34 -29 52l-17 27q-3 3 -28 3q-24 1 -72 1q0 1 -16 1l-17 -1h-17h-20q-3 -1 -6 -5.5t-5.5 -11t-3.5 -8.5q-3 -6 -9.5 -17.5t-9.5 -17.5q-11 -20 -33 -58l-69 -120q-3 -6 -27 -53q30 -1 91 -1h39q11 0 14 6q8 14 11 20q12 24 15 26q2 2 26 2h87 q4 0 12 0.5t12 0.5h9q6 -3 13 -22q20 -31 39 -68q4 -8 14.5 -27.5t17 -30.5t16 -26.5t20.5 -27t23 -21.5q35 -27 71 -28q51 -2 77 11q66 33 82 110q2 12 2 73q0 13 1 38.5t1 37.5q0 26 -0.5 76.5t-0.5 75.5q0 52 -1 77q-1 33 -22 75q-35 66 -118 76q-12 3 -71 2t-71 -1 q-20 1 -182 1q-30 0 -89 -0.5t-88 -0.5h-88q-39 -2 -60 -12q-40 -19 -58 -42q-24 -30 -33 -66q-6 -23 -4 -74q1 -13 -2 -76q-1 -8 -0.5 -22.5t0.5 -21.5q-1 -14 1 -40q1 0 1 -30l-1 -30v-25v-29v-25q3 -48 17 -76q15 -31 38 -52q40 -37 138 -37q12 0 35.5 0.5t35.5 0.5z M654 441zM521 343q-23 0 -35 1q3 5 16 26t19 32q14 -16 36 -56q-12 -3 -36 -3zM511 357h23q-2 3 -5.5 10t-5.5 10q-2 -4 -6 -10t-6 -10z" glyph-name="at" horiz-adv-x="1075" unicode="@"/><glyph d="M997 8q-69 0 -103 1q-21 0 -23 1q-1 1 -11 17t-16 24q-26 42 -31 48q-13 18 -14 20q-1 1 -3 4.5t-3 4.5q-2 1 -15 1q-67 -3 -123 -2q-22 1 -67.5 1t-68.5 1h-32q-33 0 -35 -1q-5 -2 -13 -18q-1 -2 -7 -11t-9 -14q-5 -8 -16.5 -25t-17.5 -26l-12 -18q-4 -6 -8 -7 q-3 -1 -30 -1h-38q-11 0 -34.5 0.5t-35.5 0.5q-130 0 -196 3q32 56 48 85q21 39 25 45q6 9 17.5 24.5t16.5 24.5q112 170 129 196q15 24 57.5 86t63.5 98q9 17 30 49t30 48q14 28 22 31h25q5 0 15.5 -0.5t15.5 -0.5q21 0 64 -1t65 -1h60q21 0 31 1q1 0 9.5 1.5t8.5 -0.5 q5 0 8 -9q3 -4 8.5 -12.5t8.5 -12.5q31 -42 33 -46q11 -20 34.5 -54.5t32.5 -49.5q3 -7 11.5 -19t11.5 -18q5 -8 13 -23.5t11 -20.5q12 -19 36 -53t30 -44q7 -10 19.5 -27.5t22.5 -32t18 -27.5q55 -90 61 -99q11 -15 32 -47.5t32 -47.5l6 -7q6 -8 9 -12.5t6.5 -11.5 t1.5 -10.5t-9 -4.5q-18 -1 -161 -1h-47zM880 23h258h58q-56 77 -105 156q-3 4 -21.5 35.5t-29.5 46.5q-8 11 -22 35q-4 7 -13 18t-12 16q-10 15 -28 40.5t-24 34.5q-8 12 -21.5 37.5t-21.5 37.5q-11 16 -19 29q-8 14 -26 40q-6 9 -23.5 37t-27.5 43q-4 6 -13 17.5t-14 17.5 q-10 16 -11 17t-20 1q-48 -2 -97 0q-17 0 -50 0.5t-49 0.5q-7 0 -21 0.5t-22 0.5h-6.5h-8.5h-7q-5 -1 -10 -8q-1 -1 -2.5 -4l-2.5 -5q-16 -27 -48 -78t-46 -75q-5 -9 -47 -69q-32 -48 -49 -73q-36 -56 -55 -85q-5 -8 -26.5 -39t-31.5 -48q-6 -10 -27.5 -39.5t-30.5 -47.5 q-7 -15 -23.5 -44t-24.5 -44q25 0 73 -1t72 -1h121h27q12 0 16 5t8 11t8.5 13.5t7.5 11.5q3 5 25 40q3 4 8 12.5t8 12.5q6 12 11 14h14h26h60h70h82.5h70.5q2 0 9.5 1t13.5 1t9 -2q1 0 9 -12q2 -3 6.5 -9.5t6.5 -9.5q12 -15 31 -45.5t28 -43.5zM696 301h-149q26 41 36 55 q3 4 17 25q14 20 18 21q8 2 23 -21q16 -24 24 -37q5 -7 15.5 -21.5t15.5 -21.5zM573 315h95q-4 5 -20.5 31t-26.5 38q-25 -33 -48 -69z" glyph-name="A" unicode="A"/><glyph d="M325 4q-27 0 -81 1t-81 1q-55 0 -83 2q-7 3 -8 6t-1 6t0.5 7.5t0.5 6.5q0 113 2 343q0 24 0.5 51t1.5 59.5t1 50.5q1 43 0 85q-1 15 -1 45q0 27 4 30q2 2 5.5 2.5t7 0t7.5 0.5h31q14 -1 43 -1h44q32 -1 90 0.5t80 1.5h82.5h81.5t81.5 -1t81.5 -1q11 0 49.5 0.5t54.5 0.5 t48.5 -3.5t51.5 -10.5t42.5 -20.5t41.5 -33.5q19 -21 35 -69q7 -24 7 -80q0 -36 -12 -71q-1 -2 -3.5 -8t-4.5 -9q-1 -2 -4.5 -8.5t-4.5 -9.5q-1 -4 -1 -5l6 -6q7 -6 10 -9q53 -50 53 -139q-2 -103 -44 -145q-36 -34 -59 -43q-33 -12 -70 -18q-22 -3 -46.5 -4t-54.5 -1 t-47 -1q-27 -2 -87 -0.5t-87 0.5q-59 -1 -178 -1q-15 0 -43.5 -1t-42.5 -1zM86 22q13 -3 79 -2t79 1q9 0 25.5 -1t29.5 -1.5t25 -0.5q14 0 43 1t44 1q115 0 172 2h87q70 -3 79 -2q21 2 70 2.5t76 3.5q51 8 81 19q23 9 55 41q17 18 26 44.5t10.5 46t1.5 51.5q0 73 -51 123 q-2 2 -10.5 8.5t-10.5 10.5t6 14q20 33 24 66q13 75 -14 139q-28 67 -117 90q-22 5 -45.5 6.5t-55 0.5t-45.5 -1q-102 2 -152 2q-26 1 -77 0t-76 0q-53 1 -157 -1h-84h-41t-42 1q-14 0 -22 -1q-8 -5 -8 -7v-22q-1 -14 0 -40t1 -34q0 -26 -2 -77.5t-2 -77.5 q0 -46 -1.5 -163.5t-0.5 -181.5v-61zM666 179q-18 0 -56 2t-58 2q-17 0 -36 0.5t-42 1.5t-36 1h-46h-25v20v34q0 2 -0.5 9.5t-0.5 12.5t1.5 10t5.5 7q5 2 32 2q20 0 31 -1q10 -1 28.5 0t25.5 1q37 1 104.5 -0.5t94.5 -1.5q47 0 65 -10q27 -16 19 -43q-12 -47 -107 -47z M433 201q18 0 51.5 -2t43.5 -2q48 0 98 -3q75 0 92 4q21 5 36 20t1 32q-6 8 -18.5 11.5t-22 4t-26 -0.5t-20.5 -1q-17 0 -49 1t-48 1h-146q-38 5 -43 -1v-20v-45q8 0 25 0.5t26 0.5zM598 425q-38 0 -115.5 0.5t-116.5 0.5q1 18 1 55v19v19q2 3 7 4h34h80q24 -1 73 0t74 0 q18 -1 31 -2.5t31.5 -6.5t26 -17t1.5 -31q-4 -12 -12.5 -21t-17.5 -13t-24 -6t-24 -2t-26 0.5t-23 0.5zM481 441q23 0 68 -1t67 -1h23t28 0.5t22 6t19 16.5q4 10 5 17t-5.5 12.5t-12.5 8.5t-16.5 4.5l-17.5 2.5t-15 1h-59h-58q-98 0 -147 1q0 -46 -1 -68h32h37h31z" glyph-name="B" horiz-adv-x="1174" unicode="B"/><glyph d="M414 4q-8 0 -27 1.5t-30 0.5q-31 -2 -63 0q-28 0 -57 6q-19 5 -53 21q-50 21 -84 68q-24 30 -24 86q-6 252 -6 254q2 78 14 118q15 51 58 88q49 42 108 48q20 2 92 2q22 0 65 1.5t65 1.5q11 0 34.5 -0.5t35.5 -0.5q11 0 32.5 -1t31.5 -1q163 0 244 1q82 2 118 -8 q61 -15 99 -60q41 -49 46 -99q1 -11 1 -66v-32q0 -11 -1 -12t-18 -1q-10 -1 -30 -1q-12 0 -34.5 1t-33.5 1h-142q-26 -2 -40 -4q-5 33 -8 40q-11 27 -45 41q-9 4 -18.5 5t-24 1h-18.5q-13 1 -35.5 0t-29.5 -1q-16 0 -65 1t-65 -1q-77 -4 -106 -25q-19 -14 -22 -50 q-3 -23 -1 -52q1 -18 1 -53q1 -12 0.5 -21.5t0 -21.5t2.5 -21q7 -28 39 -46q6 -3 14 -5t13.5 -2t16 -0.5t14.5 -0.5q17 -1 51.5 -1t51.5 -1q66 -1 130 0q42 2 58 11q27 14 38 35q4 10 8 25q0 13 2 15h15h38h31.5h37.5h32q104 -3 124 -4q16 0 18 -2q1 -1 1 -13v-50 q0 -77 -31 -120q-18 -26 -41 -47q-19 -16 -58 -30q-10 -4 -59 -11q-32 -4 -50 -3h-129q-119 -4 -268 -4q-10 0 -32 -0.5t-32 -0.5zM361 21q10 0 36 -1.5t41 -0.5q28 1 83 1q9 0 40.5 -1t48.5 0q9 0 24.5 1t28 1.5t24.5 0.5q125 2 150 2q103 0 138 11q40 12 64 36 q32 31 46 62q15 34 15 77v41v19q-1 1 -15 1q-6 0 -18 2h-43q-11 0 -32.5 0.5t-31.5 0.5h-64h-42q-1 0 -11.5 1t-10.5 0q-4 -3 -6 -15q-6 -21 -15 -30q-5 -6 -25 -22q-22 -17 -62 -19q-73 -3 -146 0q-15 1 -62 1.5t-73 2.5q-40 3 -64 35q-13 20 -15 74q-2 108 1 139 q7 63 102 74q20 2 151 2q7 0 42 1.5t42 -0.5q27 0 40 -1q11 0 35 -10q36 -16 47 -54l3 -12q1 -6 2 -6.5t7 -0.5q15 1 45 1q116 0 174 -1h38q5 0 7 3v14v24q0 63 -6 82q-7 27 -36 62q-17 20 -59 43q-23 13 -74 21q-18 4 -76.5 1.5t-77.5 -1.5q-29 1 -87 1q-10 0 -40.5 -1 t-47.5 0q-118 4 -178 1h-46t-54.5 -0.5t-46.5 -2.5q-42 -3 -70 -14q-30 -12 -66 -46q-23 -23 -36 -61q-5 -17 -12 -78q-4 -47 0 -165q1 -21 1.5 -69.5t2.5 -74.5q3 -40 28 -73t63 -51q48 -22 84 -27q8 -1 95 -1z" glyph-name="C" horiz-adv-x="1207" unicode="C"/><glyph d="M652 7q-15 0 -45.5 1t-45.5 1q-31 -1 -92 -1q-33 -1 -93.5 0t-79.5 1h-85q-78 3 -79 3q-15 0 -41 -2q-17 0 -18 3q-1 1 -1 29q-2 34 -2 49q0 42 3.5 156t2.5 176q-3 155 -2 175q0 9 0.5 38t1.5 45q0 7 1 8l1 3q1 0 4 1q3 2 17.5 1.5t18.5 -0.5q6 0 17 1.5t17 1.5h39 q14 0 43.5 0.5t43.5 0.5q24 0 79 2.5t85 1.5h335q117 0 162 -6q81 -11 133 -73q26 -33 33 -67q2 -8 7 -79q6 -59 9 -125q1 -45 0 -90q-2 -59 -5 -75q-9 -45 -26 -69q-28 -36 -46 -52q-28 -28 -66 -42q-15 -6 -76 -13q-42 -5 -80 -2q-12 1 -43.5 0.5t-43.5 -0.5q-14 0 -42 -1 t-41 -1zM591 23q5 0 35 -1.5t36 0.5q12 1 73 1q48 0 71 1q11 0 31.5 -1t30.5 0q87 4 121 22q41 22 83 74q19 26 26 57q5 20 7 59q4 80 0 133q-4 69 -7 100q0 6 -1 28t-1.5 32.5t-4.5 26.5t-10 28q-28 55 -84 82q-42 20 -124 22q-144 1 -288 0q-198 0 -264 -3q-47 -1 -142 -1 q-8 0 -16.5 -0.5t-19 -1.5t-16.5 -1q-10 -1 -29 -1q-6 -1 -7 -2t-1 -6v-2q-1 -6 -1 -18q1 -27 0 -77t-1 -66q0 -25 1 -73.5t1 -72.5q0 -45 -2.5 -134.5t-2.5 -133.5q0 -25 2 -69q49 3 117 -1q41 -1 124 -1h263zM568 191q-52 0 -152 6q-5 0 -23.5 -0.5t-23.5 1.5q-5 1 -5 11 v35q0 92 -4 167q-2 35 1 84q0 1 0.5 11t2.5 12h10q12 1 23 0q30 -1 86 0.5t74 1.5q132 -3 159 -4h17.5t21 -0.5t18 -3t16.5 -7.5q21 -16 33 -51q5 -16 7 -68q3 -71 1 -86q-6 -48 -23 -72q-18 -25 -61 -30q-30 -5 -93 -5q-15 0 -43 -1t-42 -1zM378 212q80 -2 120 -5 q24 -1 141 1q13 0 37 0.5t36 0.5q38 0 66 11q38 17 38 104q0 9 -1 36.5t0 42.5q0 35 -12 59q-14 31 -36 36q-17 4 -68 4q-70 3 -142 3q-24 0 -72.5 -1t-71.5 -1q-4 0 -11.5 0.5t-10.5 0.5h-7q-6 0 -8 -4q-2 -6 -2 -40q-1 -31 2 -71q2 -23 2 -177z" glyph-name="D" horiz-adv-x="1214" unicode="D"/><glyph d="M826 -4q-25 0 -155 5q-61 2 -153 -3q-67 -2 -133 3q-27 1 -160 1q-26 0 -78 2q-7 0 -20 1t-19 1h-32q-5 2 -5 12q-2 21 0 43q1 14 1 40v39q4 104 3 157q-1 13 -1 40t-1 41v82q3 29 3 150q-1 12 -1 38q0 32 1 36q2 5 3 6h4h27q46 0 139 2.5t140 2.5q5 0 17 -0.5t18 -0.5 h18h18q21 -2 65 0h38h38q26 1 78 1q19 0 69.5 -2.5t78.5 -2.5q27 0 79.5 -0.5t78.5 -0.5q10 0 12 -4q2 -3 2.5 -8t0.5 -11v-9q3 -21 3 -64v-80v-12h-15q-13 0 -53 -1t-62 0q-118 2 -148 0q-11 -2 -67 -0.5t-67 1.5q-12 0 -37.5 -1.5t-38.5 -1.5q-49 0 -74 -1q-13 -1 -39 -1 h-18h-7q-1 -1 -1 -6v-6q0 -30 1 -35q1 -3 1 -5q1 1 4 0h9q8 -1 25 -1q105 0 157 3q32 2 145 2q13 0 39 -0.5t38 -0.5t35.5 0.5t34.5 0.5q8 0 30 -2q18 0 19 -1t1 -22q0 -24 1 -37v-82q0 -23 -1 -34v-11q-1 -3 -5 -4q-5 -2 -15.5 -2.5t-11.5 -0.5q-11 -1 -33 -1 q-49 0 -140.5 2.5t-127.5 2.5q-25 0 -75 -3t-75 -3h-39h-20q-1 -2 -1 -20q-4 -32 -1 -35q1 -1 14 -1q8 -1 26 -1q133 0 150 1q63 3 126 3q11 0 34 -1.5t35 -1.5q24 1 73 1q22 0 72 1t77 0q17 0 19 -2q1 -1 1 -26q0 -13 -0.5 -39t-0.5 -39v-78q-1 -6 -2 -6.5t-4 -0.5 q-4 -1 -13 -1t-13 -1q-11 -1 -68 -4q-8 0 -22.5 -1t-26.5 -1.5t-22 -0.5zM651 16q22 0 92.5 -3t109.5 -1q10 0 29.5 0.5t35 1t29.5 1.5q12 2 17 2q1 0 6.5 0.5t7.5 1.5q3 1 4 1q-1 1 1 4q1 3 1 7.5t-0.5 10t-0.5 7.5v31v51q0 5 0.5 13t0.5 13v10v10q1 5 -4 5h-22h-24h-53 q0 -3 -95 -2l-96 2q-26 1 -79 1q-6 0 -39.5 -2.5t-51.5 -1.5h-109q-32 0 -48 1q-1 0 -3 1q-3 0 -4 1v17q0 7 1 22t1 23v19q2 1 8 1q19 1 55.5 1.5t48.5 0.5q21 0 63 1.5t63 2t63 -0.5q81 -4 183 -4h17t20 0.5t17 2.5l5 2v17v28q1 22 0 63t-1 53q-6 0 -19 1.5t-20 1.5 q-32 0 -48 -1t-72 1h-83q-19 0 -125 -4t-162 -1q-7 3 -8 6t-1 47q0 25 2 27q1 1 12 1q9 1 26 1q33 0 97 2t96 2q14 1 41.5 0t41.5 -1l90 3q30 0 90 -1t90 -1h30h10v21q0 85 -1 102q0 24 -3 31l-9 5h-9h-29q-16 0 -48.5 1t-48.5 1q-30 0 -90 2t-91 2q-124 -2 -186 -1 q-115 2 -154 0q-84 -4 -191 -4h-23h-15v-4v-26v-30v-96q-1 -34 -1 -202q0 -33 -1.5 -98.5t-1.5 -98.5v-49q-4 -47 1 -51h23h21q17 -2 50 -2q29 -1 97 -1t105 -2q39 -2 174 -2q93 3 94 3z" glyph-name="E" horiz-adv-x="1091" unicode="E"/><glyph d="M213 0q-89 0 -120 4q-3 0 -5.5 1t-4.5 2.5t-3.5 2.5t-2.5 4t-1.5 4t-0.5 4.5v5v5.5v5v92v227q2 138 0 207q0 10 -0.5 30.5t-1.5 30.5v53q4 16 35 16h61q46 0 136.5 1t135.5 1q27 0 82 -2t82 -2.5t82 1.5q22 2 130 -1q19 -1 63 0.5t63 -0.5q18 -2 26 -2t12 -2t6 -6.5t2 -8 t-0.5 -9.5t-0.5 -8q1 -24 0 -68t-1 -58q0 -26 -9 -31q-2 -1 -6 -2q-3 -2 -28.5 -2h-29.5q-45 -1 -134 -1q-26 1 -74 0t-63 -1q-10 0 -61 1.5t-61 -0.5q-17 0 -55 1.5t-58 0.5q-8 0 -20 -2q-8 0 -10 -3v-18q-1 -10 -1 -32q0 -6 0.5 -8t2.5 -3t6 -1h3q38 -2 56 -2 q9 -1 25.5 0.5t23.5 1.5q13 0 39 -0.5t39 -0.5q25 0 124 1.5t124 -1.5q10 -1 30 0t28 1q15 0 18 -3q3 -2 3 -21q3 -53 -1 -126v-30q0 -17 -1 -18h-12q-16 -2 -31 0q-23 0 -68 0.5t-67 0.5h-122q-8 0 -59 1.5t-59 -0.5q-17 -1 -53 -1h-32q-6 0 -8 -0.5t-3 -2.5t-1 -7v-5 q-2 -29 -2 -132q0 -52 -2 -67q-1 -6 -3.5 -9.5t-8.5 -5t-10 -2t-12 0t-10 0.5q-82 -2 -121 -2zM90 19q3 -1 11 -1.5t10 -0.5q11 0 31 -2q21 -1 60 -1q77 0 116 2h31q13 0 14 3q1 2 1 5q1 21 1 64q0 85 3 128q0 28 3 30h21h56q13 0 39 1t39 1q19 1 56.5 0t55.5 -1q13 1 35 0 t29 -1h62h67q10 -1 30 -1h14q7 0 7.5 1t0.5 9q3 102 2 123v29q0 5 -1.5 6t-6.5 1q0 1 -9 0h-8q-27 -1 -53 0q-23 5 -120 2t-120 -3q-13 0 -37.5 0.5t-36.5 0.5q-9 0 -26 -1t-25 -1q-26 0 -53 3h-8t-7.5 0.5t-6 3t-3.5 7.5q-1 3 -1 25q0 24 1 35q0 15 7 20q3 2 13 2 q30 3 52 2q31 0 46 -1q9 -1 26.5 -1h26.5q19 -1 41 -1t49 0.5t41 0.5q43 0 130 0.5t130 1.5h30q14 0 16 5v27v32q2 44 2 64v27q-7 10 -9 10q-51 3 -52 3q-40 -2 -61 -2q-64 0 -129 3q-22 1 -63.5 -1t-59.5 -2q-14 0 -55.5 2t-63.5 2h-269h-62h-28q-25 0 -29 -1q-5 -1 -5 -12 v-30q0 -11 0.5 -32t0.5 -31q1 -98 1 -294v-237v-24z" glyph-name="F" horiz-adv-x="1074" unicode="F"/><glyph d="M416 1q-31 0 -46 1h-42q-52 0 -78 4q-18 3 -75 27q-40 19 -66 53q-25 33 -32 76q-2 14 -2 39t-1 36q0 10 -0.5 41t-1.5 48q-2 32 -2 98q0 14 2 42l3 42q0 35 19 75q39 76 126 97q32 8 83 8q81 3 82 3q17 0 50 0.5t49 0.5q13 0 38.5 -1t37.5 -1q17 0 49 -0.5t48 -0.5 q15 0 45.5 1t46.5 1q118 0 178 -1q30 -1 90 1h44q2 0 10.5 1t15 0.5t10.5 -2.5q3 -2 4 -5t1 -8.5v-7.5q1 -18 1 -53q0 -81 -1 -97q0 -13 -1 -15q-1 -4 -3 -5q-5 -3 -38 -3q-30 -2 -91 2q-29 1 -88 -1q-27 0 -83 -2q-90 -3 -169 1q-62 2 -94 2q-72 0 -89 -4q-49 -9 -64 -43 q-13 -27 -9 -74q3 -39 1 -87v-10.5v-10.5t0.5 -9t1.5 -9.5t2.5 -8t4 -9t6 -7.5t8.5 -8q24 -20 66 -20q29 0 89 2q30 2 87 -2q16 -1 46.5 -0.5t45.5 0.5q57 0 86 -2v45q-49 0 -99 3q-16 1 -48 1h-47h-5h-6h-5q-3 1 -4 1l-1 3q-1 2 -1 19v26q-3 60 -2 107q0 29 2 30q1 1 16 1 h29q17 0 106 -2q19 -1 55 0.5t50 1.5q17 0 49 -1t49 -1q19 -1 56 0t48 1q9 0 25.5 -0.5t24.5 -0.5q9 0 10 -1q2 -2 2 -15q3 -37 1 -165v-57.5v-57.5q-2 -60 -26 -86q-36 -41 -85 -45q-35 -3 -104 -1q-76 2 -115 1q-18 -1 -64 -0.5t-64 0.5q-164 -2 -248 -2zM361 18 q10 0 34.5 -1.5t37.5 -0.5q12 0 36 0.5t37 0.5q101 0 151 1q24 0 74 -2q23 0 73 2q23 0 69 -1t70 -1h43.5t42.5 6.5t40 19.5q29 23 35 51q4 20 4 62q0 21 0.5 64.5t0.5 65.5q0 96 -1 115q0 14 -2 15q0 1 -13 1h-35q-24 1 -74 -1q-19 0 -40 0.5t-46.5 1.5t-40.5 1t-61.5 -1 t-72.5 0q-46 2 -69 1h-32q-6 0 -6.5 -0.5t-1.5 -6.5t-1 -20v-69q2 -20 2 -30q0 -2 -0.5 -9.5t-0.5 -14.5t2 -8h3q3 -1 7 -2h3q10 0 15 1l18 1q17 0 17 -1q11 0 33 -1t33 -1q11 -1 34 -1t35 -1q14 0 15 -1q2 -1 2 -7v-30v-33q-1 -2 -6 -2q-5 -1 -13 0t-11 1q-14 1 -37.5 1 h-38.5q-14 1 -39 0t-33 -1t-22.5 1t-26.5 1.5t-23 0.5t-66 -2.5t-66 0.5q-33 2 -59 20t-30 49q-2 10 -2 21.5t1 26t1 22.5q0 20 -2 62q-6 77 39 105q20 12 45.5 17.5t48.5 5t49 -0.5h23h27h23q44 -4 66 -4q23 -1 139 2q22 0 68 1t68 1q13 1 37.5 -0.5t34.5 -1.5h36q5 1 15 1 q10 1 11 11v75v39v19v10.5t-1 9.5q-1 2 -36 2q-6 0 -18 -0.5t-18 -0.5q-13 0 -38 -0.5t-37 -0.5q-23 0 -69.5 1t-69.5 1q-32 0 -90.5 -1t-106.5 -1t-90 2q-10 2 -75 0.5t-75 -1.5t-30 -1t-31 -1q-41 0 -62 -4q-72 -14 -116 -65q-19 -20 -28 -56q-5 -16 -9 -60 q-2 -23 -2 -140q0 -23 1.5 -70t1.5 -71q2 -46 6 -62q5 -26 27 -53q33 -44 109 -67q15 -5 33 -7t30.5 -2t35 0.5t31.5 0.5z" glyph-name="G" horiz-adv-x="1216" unicode="G"/><glyph d="M929 -2q-11 0 -34 1.5t-35 1.5q-5 0 -16 -0.5t-17 -0.5q-2 0 -12.5 -1t-17.5 0t-11 4q-5 4 -5 21q-1 15 -1 46v44t-1 43q-3 72 -3 74v18q-1 5 -6 5h-4q-8 0 -23 -0.5t-22 -0.5q-99 2 -149 1h-194q0 -25 1.5 -89.5t0.5 -99.5q0 -25 -1 -37q0 -18 -4 -21q-2 -2 -7 -2.5 t-11.5 -0.5h-8.5q-6 0 -19 -1t-20 -1q-23 0 -89 2.5t-89 -0.5q-26 -2 -39 -2q-13 -1 -17 6q-3 6 -3 37v51q1 35 1 94.5v95.5v196q0 24 -1 95.5t1 95.5q0 7 4 11.5t11 5.5t13 1t15.5 -0.5t12.5 -0.5q15 0 46 1t46 1h104q30 2 45 -2q4 0 5 -1q2 -2 2 -14q4 -10 1.5 -109.5 t-2.5 -109.5q45 0 127 1t149 1t127 -2q0 136 -2 157q-1 10 -1 31q0 34 1 36q2 5 8 7.5t13 3t14.5 0.5h11.5q33 3 67 3q45 -3 46 -3h53h38q3 0 20.5 1.5t19.5 -0.5q9 -2 12 -9t2 -23v-15v-69q0 -26 -2 -156q0 -27 2 -79t2 -78q-1 -52 1 -156q2 -55 0 -83q0 -16 -4 -19 q-2 -2 -15 -2q-23 0 -68.5 -2.5t-68.5 -2.5zM871 16q7 0 21.5 -1.5t21.5 -1.5q24 -1 49 0q45 5 83 5h24q1 1 1 16q1 0 1 28l-1 29q-1 19 -1 56.5v56.5q-1 21 -1 56v56q0 13 -1 36t-1.5 42t-0.5 36q2 145 1 217v25q-1 5 -2 6h-4t-5.5 -0.5t-4.5 -0.5h-61h-68q-49 3 -99 0 q-16 -2 -23 -2q-7 -1 -8 -2.5t-1 -6.5v-4q-1 -19 1 -56q2 -25 2 -110v-31q0 -15 -1 -18q-1 -2 -1 -3t-1 -1t-3 -1h-22q-72 2 -217 0h-117q-27 -2 -53 0q-15 0 -17 1v10v112q1 19 1 56v31v16q-1 7 -3 8l-3 1q-2 1 -24 1q-16 0 -24 -1h-56q-9 0 -28 0.5t-28 0.5t-27.5 -1 t-27.5 -1q-4 0 -14 -0.5t-14 -0.5h-25q-3 -2 -3.5 -12t0.5 -23.5t1 -14.5q-1 -59 0 -119q2 -58 0 -231q-1 -57 0 -115q1 -9 0 -57t-1 -58q0 -22 1 -24q1 -4 1.5 -4.5t5.5 -0.5q2 0 5.5 0.5t5.5 0.5q8 0 24 1t25 1q35 -1 104 -1q63 0 94 1h6q6 0 7 7q0 4 0.5 12t0.5 13v57 q0 20 -1 58t-1 57v30q0 11 1 13t7 3q8 1 24 -1q19 -2 115 -0.5t115 1.5q16 0 50 -0.5t50 -0.5h55q8 0 10 -1v-16q0 -37 2 -111t2 -111v-12q1 -2 8 -3q4 0 12 0.5t12 0.5q7 0 22 0.5t22 0.5z" glyph-name="H" horiz-adv-x="1176" unicode="H"/><glyph d="M178 0h-55q-37 0 -40 1q-9 4 -9 19v44q2 69 0 210v200v102q0 36 -1 54v49q2 14 15 14q9 1 24.5 0t20.5 -1q34 0 102 -2q1 0 94 3q3 0 12 1t16.5 0.5t11.5 -2.5q7 -3 7 -23q2 -35 0 -102.5t-1 -98.5q1 -71 1 -212v-132v-63v-30q-4 -21 -4 -22q-7 -9 -29 -7q-3 0 -10 1 t-12 0q-3 0 -10 -0.5t-10 -0.5q-27 -2 -123 -2zM90 14h123q37 0 113 4q4 0 11 -1t10 -1q9 0 11 1q1 1 3 6q1 5 1 62v42v49v42q0 87 1 131q1 22 -1 64t-2 60q2 76 2 113q-1 0 0 32v33q5 22 0 27t-23 0q-134 -3 -252 1q0 -23 1 -69t1 -68q0 -10 1.5 -63t-0.5 -63 q-1 -22 -1 -132q0 -115 2 -148q0 -2 -1 -37t-1 -56t1 -29z" glyph-name="I" horiz-adv-x="441" unicode="I"/><glyph d="M144 1q-4 0 -19.5 -1t-25.5 0t-19 4q-6 2 -7 7q-2 6 -2 34q0 25 2 72.5t2 61.5q0 11 3 13t8.5 3t12.5 1h9h76h77q45 0 67 3q62 12 66 65q2 24 2 145v78.5t-2 78.5q-1 23 -1 71q1 11 1 33v6.5t0.5 7.5t2.5 5q3 3 32 3q6 1 19 1.5t19 0.5q15 1 41 1h42q128 3 144 4 q1 -17 1 -51.5t1 -51.5q3 -65 2 -118q0 -212 -1 -239q-2 -89 -10 -110q-16 -47 -64 -82q-72 -52 -206 -44q-20 4 -136.5 1t-136.5 -3zM111 16q40 0 118.5 1t117.5 1q20 0 59.5 -0.5t58.5 -0.5q64 0 104 17q56 24 81 57q29 36 31 103q0 18 2 53.5t2 53.5q0 101 -1 121 q0 19 0.5 66.5t-0.5 66.5q-3 65 -3 129q-34 -1 -121.5 -3t-135.5 -4h-15v-12q-1 -11 -1 -33q-2 -37 1 -65q1 -15 1 -135l1 -66q1 -66 -1 -66q0 -3 -0.5 -14t-1 -15t-1.5 -13t-2.5 -14t-4.5 -12t-7 -13t-10 -11q-28 -26 -102 -26q-43 -1 -128 -1h-36q-27 0 -28 -2v-19v-17 q0 -5 -0.5 -17t-0.5 -18q-2 -36 -2 -55q0 -29 1 -32q1 -5 7 -5h17z" glyph-name="J" horiz-adv-x="777" unicode="J"/><glyph d="M288 -10q-21 0 -70.5 2t-76.5 1h-38q-18 -3 -23 3q-4 5 -4.5 16t1 25.5t1.5 18.5q0 22 -1.5 67.5t-0.5 68.5q0 99 -1 149l3 142q0 9 1.5 69.5t-0.5 69.5q-4 47 7 52q3 2 26 2h11h13h11q29 -1 67 2q11 1 23 1t27.5 -0.5t23.5 -0.5q40 0 80 -3q9 0 11 -8q2 -11 2 -35v-74 q0 -13 -1 -39t-1 -39q78 50 118 74q6 4 29 17.5t35 21.5q34 23 62 39q11 6 30 19.5t29 18.5q14 8 35 8.5t37 -1.5q50 -2 151 0q54 1 161 -1h38t37 -1q11 0 12 -2q4 -5 1 -13q-4 -5 -21 -14q-5 -3 -16.5 -10t-17.5 -11q-10 -6 -29 -18.5t-29 -18.5q-74 -42 -109 -66 q-25 -17 -66 -39q-7 -4 -33 -20.5t-41 -24.5q-6 -4 -58.5 -37.5t-82.5 -47.5q11 -7 30 -21.5t27 -19.5q11 -7 34 -21t34 -21q120 -73 136 -83q7 -5 58.5 -40t79.5 -51q113 -64 138 -80q12 -9 12 -10q0 -2 -3.5 -6.5t-5.5 -5.5q-3 -2 -9 -2t-13.5 1t-9.5 1q-39 -3 -40 -3 q-37 2 -168 2q-55 2 -83 1q-9 0 -27 1t-32 1t-26 -2q-36 -4 -59 1q-8 1 -31 17q-13 9 -33 25q-19 14 -73 45q-16 9 -75 51q-127 85 -133 89q0 -119 1 -178v-29q0 -17 -4 -20t-11 -4t-16 -0.5t-12 0.5q-8 0 -24.5 -0.5t-24.5 -0.5zM247 4q18 0 53 1t52 1q12 0 13 1v5 q1 6 1 18q0 8 -0.5 23t-0.5 23q-2 69 -1 104q0 54 3 71q29 -25 120 -85q20 -13 60 -41q14 -10 42.5 -26.5t35.5 -20.5q15 -9 40.5 -28.5t38.5 -27.5q17 -11 21 -13q3 -1 9.5 -1h9.5q21 0 31 1h39h53q17 0 49 -0.5t48 -0.5h59t59 -1q4 0 19 -1t23 0q32 2 49 2q-51 32 -113 66 q-40 22 -116 74q-40 28 -117 74t-109 67l-54 36q-31 22 -37 31q66 34 190 114q18 12 54 32.5t51 30.5q17 11 49 30.5t43 26.5q15 9 116 71q-30 0 -89 1t-89 1q-29 0 -86.5 -0.5t-86.5 -0.5q-7 0 -22 0.5t-22 0.5q-29 2 -43 -4q-12 -5 -32 -20t-30 -20q-23 -12 -69 -44 q-11 -7 -34 -20.5t-34 -20.5q-54 -32 -80 -49q-30 -20 -46 -28q-3 13 -3 41q2 42 2 62v20.5v24v19.5v10v12.5v9.5l-1 4l-4 1q-2 1 -18 1q-120 3 -131 2q-30 -3 -60 -3q-6 0 -18 0.5t-17 0.5h-14q-7 -1 -8.5 -2t-1.5 -7q-1 -10 0 -29.5t1 -28.5q-1 -13 -1.5 -36t-0.5 -30 q0 -21 -1.5 -63t-1.5 -62q0 -211 2 -271q1 -11 1 -32.5t1 -32.5q0 -6 -0.5 -18.5t-0.5 -18.5q-1 -6 -1 -16q7 -8 10 -8q27 1 76.5 -1t69.5 -2z" glyph-name="K" horiz-adv-x="1289" unicode="K"/><glyph d="M256 -7q-15 0 -43 1t-42 1q-46 -2 -70 -1q-2 0 -11 -0.5t-11 0.5q-4 2 -4 23q-1 12 -1 74q-1 171 0 341q0 28 -0.5 86t-0.5 87v41v28q2 2 18 2h11h12.5h10.5h36h36h80q51 0 77 1q13 2 18 -5q3 -5 3 -40q-2 -107 -1 -161q0 -18 1.5 -74.5t0.5 -86.5v-82v-22v-18 q2 -3 12 -3q4 0 11 -0.5t10 -0.5q13 0 39.5 -1t40.5 -1q13 0 39.5 1t39.5 1q0 1 86 0h85q24 0 82 -0.5t82 0.5q18 1 34 0q28 0 30 -3q1 -1 1 -18q0 -7 0.5 -22.5t0.5 -22.5q1 0 1 -46l-1 -46q0 -22 -1 -24q-4 -8 -22 -8h-266h-350q-13 0 -37.5 -0.5t-36.5 -0.5zM214 9h76.5 h89.5h76q34 1 123 0t123 1q18 1 55 -0.5t56 -0.5q15 0 45 -0.5t46 0.5l21 -1q21 0 21 1q8 0 9 1v11v21v62q0 21 -1 32v15v18q-1 1 -34 1q-16 -1 -50 -1q-23 -1 -64.5 0t-54.5 1q-100 0 -120 1q-18 0 -38.5 -0.5t-45 -1.5t-38.5 -1q-39 0 -117 2h-6t-7.5 0.5t-7.5 1.5 t-6.5 2.5t-3.5 4.5v9v30q0 20 0.5 61t0.5 61t-1.5 59t-1.5 59q0 85 1 127v67v11h-14q-11 -1 -33 -1h-113h-113q0 -28 1 -117t0 -138q-1 -130 0 -262q0 -15 1 -62.5t0 -73.5q0 -1 63 -1z" glyph-name="L" horiz-adv-x="1056" unicode="L"/><glyph d="M332 -5q-27 0 -82.5 1.5t-83.5 1.5h-80q-11 0 -12 6q-1 4 -1 47q4 124 2 186q-1 0 -1 85l1 86v184v62v17q3 7 33 7q35 -1 99 0t84 1q78 0 87 -1q8 -2 20 -18q10 -12 28 -38q11 -16 51.5 -69t61.5 -84q19 -28 119 -153q10 12 62 82q43 57 53 73q4 7 14.5 18.5t14.5 17.5 q25 34 28 37q12 14 58 78q18 26 28 37q1 1 3.5 5.5t4 6t4.5 3.5t6 2q5 1 10.5 1t12.5 -0.5t11 -0.5h57q75 0 112 1q10 1 27.5 0t23.5 -1h25q2 0 6 0.5t7.5 0.5t5.5 -1q4 -2 5 -7q2 -12 2 -17v-55v-103q-1 -108 0 -216q0 -36 0.5 -110t0.5 -110q0 -16 -2 -50q0 -6 -4 -8 q-3 -2 -17 -2h-95q-18 0 -56 1t-57 1h-55q-14 0 -15 1q-3 2 -3 11q-1 8 -1 18t0.5 22.5t0.5 18.5q0 55 1 65q1 15 1 31.5t-0.5 37t-0.5 31.5q-6 -9 -20 -26t-21 -26q-22 -32 -34 -47q-32 -38 -47 -59t-16 -22q-5 -4 -28 -4h-180q-15 1 -44 1q-28 0 -31 1q-5 2 -15 17 q-4 6 -12.5 17.5t-12.5 17.5q-5 8 -50 66q-10 12 -28 35t-23 29q1 -26 1 -156v-40q3 -30 0 -38q-2 -4 -6 -6q-4 -1 -38 -1zM179 12q22 0 66 -1.5t67 -1.5h17q28 0 30 1h4v10q0 2 -0.5 6.5t-0.5 6.5v33q0 21 0.5 64t0.5 64q0 10 -2 39.5t-2 45.5l81 -102q32 -40 48 -63 q21 -29 23 -32q9 -13 14 -14h23q130 -2 197 -2h23q19 0 21 1t4 4t4.5 7.5t3.5 5.5q4 6 14 18q8 10 24 29.5t24 29.5q5 7 37 50.5t52 64.5q0 -115 -2 -148v-51v-26v-31q1 -3 1 -5q1 0 3 -1h13h22h50q62 -2 93 -2h38h25q28 0 29 1t1 20v25q0 9 0.5 27.5t0.5 27.5q-2 66 -2 98 v416v25v4l-1 4v1q-2 0 -4 1q-3 1 -8 1t-10.5 -0.5t-7.5 -0.5q-21 0 -31 1q-21 1 -57.5 0t-48.5 -1h-106h-13q-3 -2 -10 -12l-27 -36q-6 -8 -125 -167q-7 -9 -50 -66.5t-67 -87.5q-79 97 -159 206q-13 20 -40.5 55.5t-39.5 52.5l-18 27q-20 27 -24 29h-30q-12 1 -38 1 q-48 0 -73 -1q-8 0 -34.5 1t-40.5 0q-5 0 -17 -0.5t-18 -0.5h-18h-17q-2 -1 -2.5 -8t0.5 -16.5t1 -10.5q0 -97 -2 -295q0 -49 2 -149q0 -28 -1.5 -85t-1.5 -86q15 0 46 -0.5t46 -0.5z" glyph-name="M" horiz-adv-x="1334" unicode="M"/><glyph d="M1085 -2q-56 0 -168 2q-15 0 -43 -0.5t-43 -0.5q-23 0 -33 8q-22 18 -33 26q-20 14 -128 102q-21 17 -62.5 49t-59.5 47q-64 53 -68 56q-9 7 -33.5 25.5t-37.5 29.5q1 -35 -1 -107q0 -21 0.5 -62.5t0.5 -62.5v-59q0 -18 1 -26v-21q-2 -4 -32 -4q-11 0 -32 -0.5t-31 -0.5 q-43 -1 -131 -1h-58q-8 1 -10.5 1.5t-6.5 3.5t-4 9q0 4 0.5 12t0.5 11v21.5v25v20.5q0 14 -0.5 43t-0.5 43q0 11 1.5 47t0.5 56q-1 39 1 115q0 81 -2 121q-1 10 0 29t1 24v56q0 3 -1 11t-1 14t2 10t8 5t15 1h11q40 3 122 3q20 0 59 -0.5t58 -0.5q30 0 43 -11q5 -4 20 -15 t22 -17q38 -32 111.5 -88t88.5 -68q12 -9 43.5 -36.5t50.5 -40.5q18 -13 50 -39t42 -34q0 25 -0.5 73.5t-0.5 72.5q-1 26 0 73t1 63q0 6 -0.5 17t-0.5 16q0 22 1 24q3 7 18 7h37q18 0 74 -1t75 1q22 2 65 2q24 0 27 -1q4 -2 4 -8q1 -16 1 -147q0 -24 0.5 -73t0.5 -74 q-1 -52 -1 -155l3 -135q0 -22 -2 -64q0 -18 -8 -22q-4 -1 -27 -1zM87 11zM1079 12q25 0 26 1t1 31q2 36 1 55q-2 37 -2 111v290q0 27 -0.5 81t-0.5 82q-16 0 -58.5 -1.5t-65.5 -0.5q-108 2 -139 1q-8 -1 -9 -1.5t-1 -8.5q0 -6 0.5 -17.5t0.5 -17.5q1 -23 -1 -65 q0 -4 0.5 -14t0.5 -14q0 -6 -0.5 -16t-0.5 -16q0 -11 0.5 -31t0.5 -30q0 -109 -1 -130q-16 13 -67 53q-48 36 -75 59q-25 21 -52.5 43.5t-63.5 50t-54 41.5q-32 24 -94 74q-5 4 -35 27q-17 15 -19 15h-34q-23 0 -70.5 1t-84 1t-69.5 -3q-23 0 -25 -2q-1 -2 -0.5 -6t1 -10.5 t0.5 -8.5v-51q0 -6 -1.5 -22.5t-0.5 -25.5q1 -22 1 -64q0 -13 1 -53t0 -62q0 -16 0.5 -56.5t-0.5 -56.5q-1 -30 -1 -179v-39q-3 -9 -1 -13q1 -1 25 -1q20 0 61.5 -0.5t62.5 -0.5q46 2 70 2h29q26 0 27 2v30v33v67q0 21 -1 70.5t-0.5 86t3.5 70.5q16 -15 50 -43 q53 -39 69 -53q65 -54 121 -96q37 -27 135 -110q12 -9 34 -26.5t34 -26.5q7 -5 27 -5q17 1 53 1q36 1 101 -0.5t91 -1.5z" glyph-name="N" horiz-adv-x="1213" unicode="N"/><glyph d="M539 -4q-31 0 -91.5 1t-90.5 1q-109 -2 -157 16q-45 16 -66 37q-28 27 -41 56q-10 24 -14 51t-4.5 64t-1.5 53q-1 12 -1 25.5t0.5 30.5t0.5 26q0 56 2 84q3 85 17 118q5 15 14 28q22 32 54 54q22 13 74 28q18 5 40.5 7t35.5 2.5t43 0t37 -0.5q30 0 91 -0.5t91 -0.5 q30 -1 84 0t71 1q19 0 55 -0.5t65 -1t55 -1.5q88 -3 152 -37q32 -17 53 -52t26 -74q1 -12 1.5 -24.5t1 -27.5t0.5 -23q0 -2 1.5 -19.5t1.5 -26.5q0 -108 -3 -164q-2 -39 -3 -54t-8.5 -44.5t-22.5 -49.5q-29 -36 -57 -52q-36 -19 -83 -27q-6 -1 -78 -4q-17 -1 -48 0t-41 1 h-53h-62.5h-53.5q-14 0 -43 -0.5t-44 -0.5zM379 12q23 0 81 -1.5t90 -0.5h165q14 0 40.5 0.5t39.5 0.5q15 0 44 -0.5t43 -0.5q73 3 79 4q52 12 78 27q61 33 78 112q3 12 5 73q0 10 1 30t1 30q2 37 -0.5 105t-2.5 90q0 74 -51 128q-19 20 -61 35q-41 12 -80 15 q-47 3 -99.5 3.5t-117 0t-99.5 -0.5q-55 1 -163 1q-152 0 -166 -1q-88 -8 -134 -47q-54 -45 -59 -128q-2 -29 -2.5 -82.5t-1.5 -74.5q0 -52 1 -78q1 -14 1.5 -40.5t1.5 -39.5q7 -84 73 -126q24 -16 68 -26q40 -9 67 -9q27 1 80 1zM621 168q-129 0 -155 1q-46 2 -64 22 q-28 28 -30 52q-2 4 -2 37v38q-2 38 0 77q2 46 14 64q15 24 48 36q15 5 34.5 7.5t32 3t38 0t32.5 -0.5h80q6 0 36.5 1.5t36.5 -0.5q50 -5 66 -11q33 -12 50 -47q4 -7 5.5 -16.5t1.5 -16t-0.5 -18.5t-0.5 -16v-38.5v-38.5q0 -56 -8 -76q-13 -32 -52 -50q-20 -9 -80 -9 q-14 0 -41.5 -0.5t-41.5 -0.5zM489 184q12 0 73 -1t73 0h68q47 0 65 5q36 9 50 36q11 19 11 59q2 50 1 75q0 7 0.5 33.5t-1.5 33.5q-3 27 -36 51q-12 9 -58 14q-12 1 -139 1q-104 0 -130 -3q-41 -6 -59 -23q-17 -16 -21 -58q-2 -17 -2 -81v-35.5t2 -43.5q1 -15 11 -30 t23 -23q16 -10 69 -10z" glyph-name="O" horiz-adv-x="1231" unicode="O"/><glyph d="M127 -1q-5 0 -16 1t-17 1q-17 0 -18 1q-2 2 -2 7.5t1 12t1 7.5v38q0 29 -0.5 85t-0.5 84q0 56 -0.5 167t-0.5 166v73q0 2 -0.5 8.5t0 10t1 9t3.5 9t7 5.5q3 1 33 1q28 0 42 -1q0 -2 39 -1l39 1q0 1 82 0h82q27 0 81.5 1t82.5 1q118 -2 176 -2h46q47 1 47 0q48 0 76 -7 q80 -19 122 -66q29 -33 40 -60q13 -31 17 -76q4 -51 -4 -87q-6 -25 -28 -74q-32 -68 -111 -96q-47 -16 -144 -16q-19 0 -53.5 -0.5t-62.5 -1t-53 -1.5q-29 -1 -173 -1q-28 0 -42 1q-3 0 -11 1t-14.5 1t-10.5 -2q-2 -1 -2 -11v-19q0 -23 -1 -35q0 -25 -2 -77q0 -10 -2 -32 q0 -19 -3 -21q-4 -2 -10 -2.5t-14.5 0.5t-10.5 1q-15 -1 -47 -1q-56 -2 -85 -2q-13 0 -39 -0.5t-40 -0.5zM91 16q8 0 30 -1.5t34 -0.5h81l84 3h20h20q3 2 3 29q1 12 1 37t1 37q1 13 1 74v17q1 2 3.5 2.5t7 0.5h6.5q13 0 39 -0.5t39 -0.5q167 0 335 3q95 2 130 11 q78 20 113 81q21 38 30 70q7 27 7 80q0 47 -14 83q-10 26 -39 60q-13 14 -29.5 25t-30 18.5t-36 12.5t-34.5 7.5t-39.5 4t-36.5 1.5h-39h-36h-160q-161 1 -161 0h-79h-80h-76q-10 -1 -35.5 -0.5t-35.5 0.5q-24 0 -26 -2v-16v-22v-72q0 -25 0.5 -77t0.5 -78 q-2 -27 -0.5 -160.5t1.5 -160.5v-66zM462 374h-61h-28q-5 1 -6 4q-2 3 -2 10.5v8.5q0 20 -1 30q0 9 -0.5 28t-0.5 29q0 18 1 20q2 3 7 3q32 2 49 2h34h39.5h33.5h118q75 0 94 -5q25 -7 43.5 -30t8.5 -45t-33.5 -36.5t-48.5 -16.5q-16 -1 -35 -1t-42.5 0.5t-35.5 0.5h-68 q-11 0 -33 -1t-33 -1zM380 389q36 0 108 1t108 1h93h30q20 3 40 21q21 19 21 32q0 20 -27 37q-22 14 -88 14q-15 0 -45 -1t-46 -1q-13 0 -47 1.5t-52 0.5h-53q-4 0 -10.5 -0.5t-9.5 -0.5q-23 0 -24 -1q-5 -4 0 -26q0 -18 1 -26q0 -35 1 -52z" glyph-name="P" horiz-adv-x="1178" unicode="P"/><glyph d="M979 -114q-19 0 -54 2t-47 2q-14 0 -43 -1t-43 -1h-83h-42q-1 0 -17 -1.5t-16 0.5q-5 2 -15 22q-8 12 -24 38q-8 12 -26 36q-1 2 -3.5 5t-4.5 5.5t-4 4.5q-4 4 -15 4q-60 0 -90 1q-11 0 -42 1t-48 0h-85q-96 8 -143 51q-55 49 -60 126q-4 54 -4 163q2 135 5 162 q8 83 66 129q54 45 155 49q64 2 193 0h174.5t174.5 -1q34 0 53.5 -1t52.5 -4t54.5 -10.5t46.5 -19t42 -31.5t28 -46q6 -14 10 -28t5.5 -34t2 -28t1 -35t0.5 -30q3 -82 0 -163q0 -6 -0.5 -22.5t-1 -23.5t-1.5 -21.5t-2.5 -23t-4.5 -20.5t-7 -22.5t-10 -20.5q-34 -62 -121 -86 q-31 -8 -78 -10q15 -21 45 -65q23 -35 26 -52zM951 -100h9q-10 20 -38 57.5t-38 59.5q10 1 30.5 1t30.5 1q32 2 77 22q66 27 90 110q3 12 4.5 25t1.5 29.5t1 24.5q1 13 2 38.5t1 38.5q0 22 -0.5 47.5t-1.5 56.5t-1 48q-4 99 -38 141q-21 25 -55 42q-30 16 -76 21 q-26 3 -162 6h-55h-65.5h-55.5q-28 0 -83.5 0.5t-82.5 0.5h-95q-61 0 -81 -3q-96 -12 -137 -60q-43 -49 -45 -122q0 -11 -0.5 -23.5t-1.5 -28t-1 -23.5q-1 -14 -1 -42v-42q-1 -14 2 -82t4 -76q12 -78 73 -117q28 -18 68 -25q37 -8 70 -8q57 1 172 -1h80q7 0 15 -9 q6 -7 26 -34q4 -6 11.5 -17.5t11.5 -17.5q1 -1 4.5 -6.5t5.5 -9.5l3.5 -7l4.5 -9t4 -5h12q6 1 18 1q30 0 45 -1q14 0 40.5 0.5t39.5 0.5q9 0 36 1t42 0h37q12 -2 19 -2q19 0 23 -2zM616 174q-101 0 -151 2q-45 0 -64 18q-28 30 -32 52q-2 13 -1.5 36.5t-0.5 37.5v77 q2 45 12 64q13 26 51 41q16 6 37 8.5t35 2.5t40 -0.5t35 -0.5q16 0 49 1t58.5 0.5t48.5 -2.5q49 -4 69 -19q35 -27 39 -56q2 -8 1.5 -36t-0.5 -36q0 -51 -1 -77q-2 -47 -14 -66q-20 -30 -61 -41q-16 -4 -74 -4q-12 0 -37.5 -1t-38.5 -1zM541 190h141h13.5h14.5h13.5t14 1 t12.5 2t13.5 3t12 4.5t12.5 6t12 7.5q8 6 13.5 15.5t8 17t4 21t2 20t0 21.5t-0.5 19v72q0 45 -14 61q-22 26 -56 33q-25 5 -62 5q-26 0 -78 -0.5t-77 -0.5h-17.5h-20t-18 -0.5t-20.5 -2t-17.5 -3.5t-18.5 -5.5t-16 -8.5q-11 -7 -17.5 -16.5t-9 -26t-3.5 -23t0 -29.5v-23 q-1 -16 0 -45.5t1 -38.5q0 -41 21 -63q14 -14 25 -18q6 -3 35 -5h24h28.5h24.5z" glyph-name="Q" horiz-adv-x="1231" unicode="Q"/><glyph d="M130 2q-10 0 -28 1t-27 1q1 30 1 64t-0.5 75.5t-0.5 63.5l-1 107q0 108 1 108q1 42 0 118t-1 100q0 2 -1 12t-0.5 17t3.5 11q4 8 25 8q0 1 51 0h51h455l222 -3q45 -1 103 -33q34 -17 70 -60q28 -37 36 -108q4 -37 -1 -59q-7 -29 -21 -58q-29 -61 -64 -87 q-43 -32 -101 -39q17 -18 55 -60.5t59 -63.5q42 -42 63 -62q33 -33 43 -51h-268h-67h-26q-16 0 -18 1q-3 1 -8.5 8.5t-6.5 8.5q-16 18 -23 27q-8 9 -21 24.5t-19 22.5q-12 14 -37.5 45.5t-40.5 47.5q-3 3 -21 26l-17 17h-27h-40h-75h-16q-10 0 -11 -5q-1 -9 1 -41 q0 -21 -2 -65q-1 -12 -1 -35t-1 -35q0 -6 -0.5 -17.5t-1.5 -17.5q0 -8 -2 -8q-1 -1 -4 -1q-13 -2 -77 -2q-27 0 -81 -1.5t-81 -1.5zM89 19q7 0 29 -1t34 0h72q12 0 36.5 0.5t36.5 0.5q12 1 35 1h16h8q4 2 5 4q2 5 2 16.5v13.5q1 18 0 35q0 12 1.5 36.5t1.5 36.5v75q0 7 3 9 q2 1 26 1t72.5 -0.5t73.5 -0.5h14q4 -2 14 -15q1 -1 43 -49q10 -12 34.5 -42t38.5 -45q42 -50 44 -53q1 -1 8.5 -11t12.5 -12q2 -1 22 -1q81 3 161 0q31 -1 87 0t73 1q-17 19 -57.5 59.5t-60.5 63.5q-17 18 -50.5 54t-50.5 54q70 16 79 19q48 21 76 57q25 34 42 94 q10 35 -2 99q-5 22 -17 45q-6 14 -31 41q-27 29 -79 50q-36 14 -101 18q-16 1 -34.5 1t-41 -0.5t-34.5 -0.5q-36 0 -219 1.5t-220 -0.5q-86 0 -104 -1q-26 0 -39 1q0 1 -15 0h-14q-26 0 -28 -1q-4 -2 -5 -8t0 -17l1 -11v-40q0 -74 1 -111v-72v-85v-72q0 -86 1 -129 q1 -19 0 -55t-1 -54zM76 35zM465 407h-44h-26q-23 0 -25 1t-4 5q-1 5 -1 18q0 8 0.5 24.5t0.5 25.5v26q2 4 7 4q20 0 30 1h43q6 0 24 1t28 0q36 -2 110 -2q8 0 46.5 1.5t46.5 -0.5q56 -4 64 -48q3 -21 -11.5 -36.5t-36.5 -17.5q-19 -2 -57 0h-68h-63q-63 -3 -64 -3zM380 422 q30 0 90 1t91 1h100q5 0 18 -1t22 -1t19.5 2.5t17.5 7.5q15 12 12 31t-20 27q-18 10 -75 8q-11 -2 -85.5 -0.5t-85.5 1.5q-31 0 -91 -2q-10 0 -11 -1q-2 -1 -2 -10v-14v-50z" glyph-name="R" horiz-adv-x="1206" unicode="R"/><glyph d="M392 -1q-21 0 -64.5 2.5t-65.5 2.5t-66 -0.5t-66 -0.5h-30q-6 5 -6 7q0 7 -1 20.5t-1.5 24t-0.5 20.5q1 41 1 124q88 0 262 -2q22 0 65 -1t64 -1q14 0 58.5 -0.5t67.5 -1.5q7 0 30 -1t35 0q37 0 58 7q11 3 18.5 13.5t3.5 21.5q-1 4 -5.5 6.5t-11.5 4t-12.5 2t-13 1 t-9.5 0.5q-44 3 -265 3q-66 0 -132 3q-68 4 -111 21q-56 23 -86 64q-9 12 -23 54q-8 23 -11 53q-6 59 19 115q26 58 86 90q51 27 118 34q22 2 67 0q24 -1 74 -1q16 0 57.5 -1.5t63.5 -0.5q14 0 39 1t45.5 1.5t38.5 0.5q115 0 129 1q7 3 60 1t60 -2q44 0 65 1q4 0 12 0.5 t12 0.5h7q2 -1 4 -4q1 -3 1 -8t-0.5 -11t-0.5 -9q0 -24 -1 -36q0 -48 1 -71v-34v-18q-1 -1 -15 -1q-6 0 -17 -0.5t-17 -0.5q-22 0 -67.5 -0.5t-68.5 -0.5q-22 0 -67 0.5t-68 0.5q-70 0 -105 2h-31t-31 1q-28 3 -56 0l-27 -3h-16.5t-16.5 -1q-12 -3 -19.5 -14t0.5 -22 q6 -6 24 -6q6 0 18 0.5t17 0.5q11 0 32.5 -0.5t32.5 -1.5q14 -2 64.5 -1.5t64.5 0.5q40 -1 125 -7h49.5t67.5 -5q66 -14 114 -53t61 -100q13 -60 1 -122q-13 -55 -65 -104q-45 -43 -104 -54q-7 -1 -65 -1q-22 0 -62 2q-66 1 -132 0h-71.5t-71.5 -1q-1 0 -24 -1t-34 -2 q-19 -2 -59 -2zM291 19q19 0 58 -3t59 -3q8 1 24.5 2t24.5 1q11 1 30 1.5t25 0.5q24 2 69 2h55h131q76 -2 114 -2q61 0 107 34q50 39 69 85q18 41 14 105q-4 69 -38 107q-39 46 -98 65q-45 14 -124 14q-21 0 -59.5 3t-54.5 3h-117q-21 0 -63 1.5t-64 1.5q-41 0 -51 7 q-10 8 -11 22t7 23q13 19 43 19q10 -1 52 4q17 2 52 0q12 -1 33.5 -1.5t28.5 -0.5q18 -1 104 -1l123 -1q123 -2 123 1q19 1 60 1q-1 27 0 81t0 81q-38 -1 -144 -0.5t-144 -1.5q-9 0 -33 0.5t-34 -0.5q-24 -1 -71 -1q-120 0 -144 1h-24h-28.5h-24.5q-54 2 -69 1 q-76 -8 -132 -42q-59 -35 -75 -109t9 -136q13 -35 33 -54q25 -22 48 -34q43 -24 129 -28q50 -2 300 -2q2 0 74 -3q47 -2 63 -8q23 -8 18 -36q-5 -29 -44 -37q-31 -6 -68 -4h-34h-35q-120 2 -144 4q-53 3 -154.5 2t-154.5 1h-20q-6 0 -6.5 -1.5t-0.5 -8.5v-39q0 -9 -1 -37 t0 -43q0 -28 2 -34q1 -4 10 -4h22h80q11 0 35 0.5t36 0.5z" glyph-name="S" horiz-adv-x="1175" unicode="S"/><glyph d="M387 2q-12 0 -13 2v18q0 8 -0.5 22t-1 25.5t-1.5 21.5q-4 46 0 139q1 21 1 130v71q0 7 -0.5 20t-0.5 24t1 20q-8 1 -97 1q-101 0 -114 -1q-60 -4 -103 -1q-17 3 -18 5q-2 4 -2 18q-1 8 -1 27q0 16 -1 48t-1 48q2 14 2 21v19q3 8 24 5q40 -2 97 1q15 2 59 1t59 -1 q19 0 56 -1.5t55 -1.5q16 0 48 1.5t48 1.5q18 1 50.5 0t43.5 -1h115q36 0 108 0.5t109 0.5q18 -1 54 -1q20 0 29 -1h21q1 -1 1 -15q-1 -9 -1 -53v-60v-33q0 -17 -1 -20q-1 -4 -5.5 -5.5t-8.5 -1t-10 1t-8 0.5h-66q-34 0 -114.5 -2t-124.5 -1q0 -35 1 -143.5t0 -167.5 q-2 -132 -1 -158q2 -14 -1 -20q-2 -3 -16 -3q-16 1 -45 0t-38 -1h-188zM322 511q34 0 51 -2q12 0 14 -2q1 -1 0.5 -6t-1.5 -7q-1 -19 0.5 -57.5t0.5 -57.5q-1 -9 0 -57t1 -58q0 -20 -2 -59t-2 -58q0 -22 2 -65.5t2 -65.5q47 1 142 1q47 0 70 -1q10 0 31 1t31 1q1 5 0 16 t-1 14q0 7 -0.5 21t-0.5 21q0 58 1 88q3 79 1 179v39t-1 40v44q0 28 1 29q2 1 19 1q30 -2 46 -1q13 0 38 1t37 1q17 0 51.5 0.5t52.5 0.5q82 0 92 -1v78v37q0 2 0.5 8t0.5 9q0 2 0.5 7.5t0.5 10t-1 6.5l1 1q0 1 -1 2h-11h-18q-27 0 -41 1h-82q-40 2 -151 0.5t-151 -1.5 q-12 0 -36 1t-36 1q-66 -3 -68 -3q-29 -1 -82.5 0.5t-74.5 1.5q-9 0 -36.5 1t-42.5 0q-78 -3 -79 -3h-20q-11 3 -14 2h-3q0 -1 -1 -3l-1 -8q0 -3 -0.5 -8.5t-0.5 -7.5q-1 -13 0 -36t1 -30v-40q1 -4 1.5 -11.5t0.5 -11.5q0 -5 1 -5.5t7 -0.5q28 -2 82 0q10 0 28 1t33 1.5 t28 0.5q30 -1 90 -1zM62 671z" glyph-name="T" horiz-adv-x="1069" unicode="T"/><glyph d="M584 -1q-18 0 -52 1.5t-51 1.5h-114q-45 0 -54 -1q-22 -3 -50 -1q-17 2 -43 8q-33 9 -51 21q-57 40 -73 78q-11 26 -17 50q-2 10 -2 61q0 34 -2 104q0 6 -2 48t1 47q3 26 3 105q0 9 -1 27t-1 28v48q-4 28 0 42q3 12 5 13h22q75 0 112 2q9 1 25.5 0t21.5 -1q23 -1 50 2 q15 2 45 2q12 -1 16.5 -5t5.5 -15v-126q0 -19 0.5 -56t0.5 -56v-83q0 -38 1 -57q0 -40 3 -51q4 -13 30 -30q22 -14 57 -14h49q49 -1 49 0q33 0 49 2q11 1 30.5 -0.5t25.5 -1.5q28 0 47 5q35 9 45 18q21 18 21 89q-1 43 -1 129q0 39 -1 116t-1 115q0 21 9 23l18 3 q11 0 30.5 -1.5t30.5 -1.5h61q10 0 28 -1t27 -1q8 0 25.5 -1t26.5 -1h25q22 0 23 -1q2 -2 2 -30v-57q0 -70 -1 -105q-2 -33 0 -97.5t1 -94.5v-101q0 -32 -4 -48q-4 -19 -22 -50q-49 -92 -177 -99h-126h-93q-13 0 -41 -0.5t-42 -0.5zM549 14h174h117q63 0 107 11q52 14 83 52 q36 42 43 82q2 16 2 48q0 40 -1 48v42q1 19 1 58q0 13 -1 39t-1 39q0 15 1 45t1 45v115v22q0 7 -1 9h-15h-50q-48 4 -106 4h-55q-6 0 -17 1t-16 1h-8l-3 -1h-4l-2 -1v-5v-28v-23q2 -18 2 -110v-117q0 -102 -2 -117q-3 -23 -5 -33.5t-11 -25t-24 -21.5q-31 -15 -90 -15 q-4 0 -26 1t-27 0q-11 -1 -31 -1.5t-26 -0.5q-31 -1 -93 1q-29 0 -50 10q-31 18 -41 33q-4 6 -9 43v51v91q0 15 -1 45.5t-1 46.5v116v32v24h-25q-15 0 -23 -1q-25 -3 -92 -1q-8 0 -23.5 -1t-23.5 -1h-61h-22q-5 -2 -6 -8v-12q0 -2 1.5 -18.5t1.5 -24.5q0 -18 1 -53t1 -52 q0 -40 -5 -90q-1 -17 1 -48.5t2 -42.5q0 -18 1 -52.5t1 -51.5q0 -44 1 -49q2 -16 15 -49q16 -37 65 -71q22 -15 45 -21q28 -6 43 -8q4 -3 42.5 -1t43.5 2h110h51q7 0 20.5 -1t20.5 -1zM547 14zM1041 90zM319 670v0v0z" glyph-name="U" horiz-adv-x="1179" unicode="U"/><glyph d="M485 -1q-17 0 -22 7q-4 6 -11.5 17t-10.5 15q-6 8 -42 71q-11 19 -22 34q-2 3 -15 26q-8 13 -51 74q-11 17 -42 67q-5 9 -19.5 36.5t-23.5 41.5q-17 26 -46 74.5t-42 68.5q-36 54 -60 86q-30 41 -43 70q24 0 72.5 -1t72.5 -1q10 0 28 1t28 1h94h44q23 0 25 -1t17 -27 q10 -18 22 -38q29 -40 46 -69q6 -11 19.5 -36t21.5 -38q32 -52 49 -78q20 -30 30 -46q23 -32 28 -44q37 54 100 158t78 127q7 11 21 36t22 37t12 14q5 3 33 3h170q83 2 151 -1q-3 -14 -9.5 -26.5t-20.5 -32t-17 -23.5q-11 -16 -32 -49.5t-31 -50.5q-12 -18 -30.5 -52 t-22.5 -41q-20 -33 -60 -97l-57 -87q-18 -30 -56 -88q-5 -7 -26 -40.5t-33 -49.5l-15 -21q0 -1 -5 -9t-8 -11q-6 -5 -35 -5q-6 -1 -34 0t-33 1h-72h-66h-36q-5 0 -17 -1.5t-18 -1.5zM474 14q10 0 29 1t28 1h59h114q6 0 26 -1t31 0h11t13 2q4 2 9.5 12t6.5 11q6 9 52 79 q19 28 55.5 85t55.5 85q41 62 104 174q23 41 72 115.5t59 91.5q-155 2 -311 0q-17 0 -23 -9q-4 -6 -11 -18.5t-10 -18.5q-19 -34 -45 -73q-17 -26 -47.5 -77.5t-36.5 -61.5q-38 -63 -49 -78q-24 -38 -37 -48q-6 9 -17 28t-17 28q-34 50 -43 68q-7 13 -23.5 38t-24.5 38 q-2 4 -17.5 31.5t-24.5 41.5q-9 12 -24.5 36.5t-18.5 28.5q-4 6 -10 17.5t-9 16.5q-4 11 -11 15h-22q-107 0 -161 -2q-28 -1 -80 0.5t-69 1.5q8 -14 25.5 -37.5t20.5 -28.5q10 -13 48 -70q11 -16 81 -131q10 -17 35 -62.5t41 -69.5l45 -66q14 -20 20 -30q3 -4 7 -12t6 -11 q30 -42 43 -68q30 -56 45 -73z" glyph-name="V" horiz-adv-x="1276" unicode="V"/><glyph d="M1125 -3h-56q-14 0 -20 1q-16 2 -54 2q-5 0 -14 -0.5t-14 -0.5q-31 0 -34 1q-5 2 -9.5 8.5t-9 17t-5.5 13.5q-19 39 -59 117q-6 11 -14.5 32t-11.5 28q-5 13 -36 72q-2 -6 -44 -98q-26 -60 -40 -89q-9 -17 -27 -53q-2 -4 -6.5 -14t-8.5 -18t-9 -13q-3 -4 -29 -4l-56 3 h-103q-15 0 -43 -1t-42 -1q-25 0 -29 5q-6 6 -19 37q-8 17 -22.5 50t-22.5 49q-32 65 -90.5 199t-89.5 199q-35 74 -45 94q-21 38 -21 44q0 5 3 7q2 1 18 1q46 0 54 1t23.5 0t20.5 -1h92q6 0 54.5 2t54.5 -1q13 -2 16 -5q3 -2 11 -19q2 -5 12 -26t15 -33q15 -38 47.5 -108 t46.5 -102q5 11 14.5 32t17.5 38t16 32q8 17 21.5 48.5t19.5 43.5q10 21 22 49q1 3 4.5 13t7 17t7.5 11t22 4h42q20 -2 103 0t102 2h22q10 -1 15 -15q4 -8 12.5 -27.5t13.5 -29.5q41 -84 100 -219q44 94 66 142q7 15 20 43t14 31q5 11 13 33q1 2 7.5 18.5t11.5 22.5q3 4 9 5 h13h15.5h12.5q12 0 37.5 -1t38.5 -1q31 0 86.5 -2.5t77.5 -2.5h34q12 -3 8 -12q-3 -9 -7.5 -19t-10.5 -22t-9 -19q-35 -77 -65 -148q-10 -23 -21.5 -48.5t-25.5 -56.5t-22 -48q-6 -13 -28.5 -66.5t-38.5 -81.5q-7 -14 -20.5 -40t-17.5 -34q-8 -13 -19 -39.5t-17 -37.5 q-2 -4 -4 -6t-3.5 -2h-8.5h-17q-27 0 -40 -1q-1 0 -10.5 1t-16.5 0.5t-8 -3.5zM1058 12q16 0 47.5 1t46.5 1h46h22q1 1 10 19q6 16 10 24q9 24 18 39q46 86 84 174q12 27 41.5 91.5t44.5 99.5q15 34 45.5 102t45.5 103q-77 0 -115 4q-20 1 -61.5 0.5t-62.5 0.5q-38 2 -59 2 q-5 0 -8 -3l-7 -14q-8 -20 -12 -29q-9 -22 -26.5 -61t-22.5 -50q-16 -35 -48 -103q-1 -3 -4 -10.5t-5.5 -13.5t-6.5 -11.5t-8 -6.5q-3 -1 -5 0t-4 3.5t-3 4t-2.5 5t-1.5 4.5q-45 103 -99 217q-7 14 -19 42q-10 21 -11 21q-2 1 -7 1t-10.5 -0.5t-7.5 -0.5h-66q-19 0 -59 -1 t-60 -1q-5 0 -21.5 1t-25.5 0q-20 0 -22 -1t-4 -5.5t-4 -10.5t-3 -8q-7 -17 -24 -55t-26 -59q-24 -56 -48 -104q-9 -15 -14 -29q-1 -2 -3.5 -7.5t-4.5 -9.5t-6 -5q-3 -2 -5.5 -1t-4 1.5t-3 4t-2 5t-2 5t-1.5 4.5q-8 18 -24.5 55t-24.5 55q-9 20 -49 109q-8 18 -13 27 q-12 27 -14 29q-3 3 -9.5 5t-12.5 2t-15 -0.5t-11 -0.5q-12 0 -41.5 -1.5t-45.5 -0.5h-62q-9 -1 -26 0t-25 1q-12 -1 -33.5 -1.5t-28.5 -0.5q23 -46 62.5 -131.5t52.5 -112.5q20 -41 56 -125q5 -11 15.5 -33t15.5 -33q3 -7 8.5 -20t10 -23.5t8.5 -19.5l15.5 -31t15.5 -32 q4 -10 13.5 -32t14.5 -33q7 -17 12 -24q3 -5 7 -6h18q47 0 60 2q8 1 23 1h23h71q66 -3 68 -3h14q2 1 5 7t3 7q3 5 5.5 10.5t6 12.5l5.5 11l63 132q4 8 11 22.5t12.5 26.5t9.5 23q2 5 6.5 16t8.5 18.5t10 13.5q5 -7 22 -38q3 -7 14 -28t16 -33q4 -10 47 -102q4 -8 13 -25 t13 -26l6.5 -13t6.5 -14q0 -1 4 -10t7 -11q2 -2 8.5 -2t15 1t9.5 1h26h35q23 0 26 -2z" glyph-name="W" horiz-adv-x="1613" unicode="W"/><glyph d="M528 -1h-458q63 51 170 129q7 5 21 17q4 4 13 9.5t12 7.5q8 6 23.5 17t22.5 17q11 9 44 33t49 39q20 16 59 44.5t56 42.5q-10 10 -29.5 23t-26.5 19q-11 9 -53 40q-36 25 -57 45q-9 8 -27 21t-25 19q-88 69 -113 85q-18 12 -52 40q-3 4 -11 10l-12 9q-4 4 -8 18 q10 1 29 0t25 -1q27 0 77 2h19.5h22.5h19q50 -2 76 -2q46 0 68 2q16 2 49 0q5 0 17 1.5t21 1t16 -3.5q10 -4 20 -12.5t22 -19.5t18 -16q58 -45 127 -102q8 -6 13 -11q1 -1 3 -2t3 -2h6q1 0 14 10q12 10 19 15q54 43 58 46q6 5 27.5 23t33.5 28l30 24q3 2 7.5 6.5t9 8 t8.5 4.5q3 1 22 1h36q12 0 35 -1t34 -1q36 0 101.5 1.5t119 1.5t101.5 -3q-43 -40 -149 -125q-5 -4 -19.5 -14.5t-21.5 -16.5q-2 -2 -7 -5.5t-8 -5.5q-4 -3 -10 -9l-8 -8q-12 -11 -94 -72q-15 -11 -100 -78q36 -26 115 -84t122 -88q40 -28 116 -90q83 -67 96 -80 q-22 -7 -100 -7h-126h-113q-16 -1 -100 -1q-12 1 -22 9q-23 17 -41 33q-46 43 -83 68q-16 11 -43.5 34t-38.5 31q-16 13 -20 15q-2 1 -3 2t-2 0q-2 -1 -3 -2q-4 -1 -11 -8q-24 -18 -40 -32q-77 -64 -91 -75q-23 -19 -57 -43q-5 -4 -20 -15t-23 -17zM1021 14h79h99 q21 0 73 -1t89.5 -0.5t72.5 3.5q-15 12 -44.5 36t-44.5 36q-6 5 -44 33q-42 34 -44 35q-21 14 -80.5 58.5t-93.5 67.5q-8 6 -23 17t-20 15t-18 12.5t-19 13.5q-11 10 4 21q9 7 48 38q60 46 91 68q38 29 73 61q5 5 42 31l45 36q9 8 41.5 34t49.5 41q-115 2 -138 1 q-22 -1 -46.5 -1.5t-55 -1t-46.5 -0.5q-9 0 -19.5 0.5t-23.5 1.5t-20 1h-31q-27 0 -32 -3q-9 -6 -53 -45q-7 -6 -25 -20.5t-28 -22.5t-30 -23t-23 -18q-18 -14 -26 -21q-2 -1 -10.5 -9t-12.5 -9q-3 -1 -7 0.5t-8.5 5.5t-8.5 7t-8.5 7.5l-5.5 5.5q-11 9 -33 26.5t-26 20.5 q-36 30 -54 44q-8 6 -27 22.5t-30 24.5q-8 5 -15.5 7t-23 1t-16.5 -1q-5 0 -14.5 1t-14.5 1t-16 -1t-17 -1q-46 -2 -70 -2q-25 0 -75 2q-23 1 -75 -2t-79 0q10 -8 28.5 -23t20.5 -17q9 -7 26.5 -19t24.5 -18q23 -18 55 -41q6 -4 24.5 -19.5t28.5 -22.5q9 -6 25 -20t25 -20 q9 -7 27.5 -20t27.5 -19l26 -19.5t28 -20.5q19 -13 42 -36q-17 -14 -54 -40.5t-55 -41.5t-56 -43.5t-56 -43.5q-30 -25 -59 -43q-10 -7 -28 -21t-25 -19q-10 -8 -118 -88h234h116h58q6 0 13.5 4.5t16.5 13t12 10.5q66 48 152 121q38 30 41 32q17 14 23 12q3 -1 20 -14 q3 -2 9.5 -7t9.5 -8q6 -4 12.5 -9.5t14.5 -12.5t12 -11q32 -22 47 -33q6 -4 18 -15.5t20 -16.5q12 -8 38 -32t43 -34zM1286 673z" glyph-name="X" horiz-adv-x="1549" unicode="X"/><glyph d="M665 -3h-54q-13 0 -18 1q-7 1 -25 1q-26 0 -30 2q-4 1 -6 5.5t-2.5 7.5t0 10t0.5 8v43q0 12 1 49.5t0 58.5q0 5 -0.5 14.5t-0.5 14.5q0 19 -7 26q-8 8 -25.5 20.5t-20.5 15.5q-24 21 -47 44q-3 3 -8.5 9.5t-8.5 9.5q-5 5 -14 11.5t-12 9.5q-29 26 -85.5 76.5t-84.5 76.5 q-73 68 -98 89q-58 50 -84 76q8 4 16.5 5.5t20.5 1.5t18 1q14 1 82 1h86q5 0 19 1.5t21 0.5q4 0 13.5 -1t14.5 -1h82h41q18 0 22 -3q3 -2 29 -28q10 -11 30 -31q30 -31 61 -61q38 -36 58 -53q23 -20 31 -24q2 -1 3 -2t2 0t3 2q1 1 3.5 3t3.5 3l15 15q85 85 110 108 q6 6 17 16.5t20.5 19t17.5 16.5q2 2 5 5.5t6 6.5t6 5q4 2 8 2t9.5 -1t8.5 -1q4 -1 25 2q24 2 35 2q13 0 38.5 -1t37.5 -1q31 0 128.5 1.5t150.5 0.5q-8 -11 -18 -21t-23.5 -22t-20.5 -19q-27 -28 -85 -82q-81 -78 -152 -134q-14 -10 -28 -22.5t-32 -29.5t-27 -25 q-74 -68 -88 -81l-22 -19q-3 -4 -3 -23v-65v-123q0 -11 -2 -15.5t-12 -5.5h-51q-9 0 -25 1t-25 1q-20 0 -31 -1q-22 0 -23 -4zM602 12q23 0 70 2t71 2q8 0 24.5 -1t24.5 -1h24q3 2 3 6v10v134q0 11 0.5 32.5t0.5 31.5q0 5 3 9.5t5 7t8.5 7t7.5 5.5q21 18 92 84q65 61 91 81 q69 57 84 70q51 46 85 81q1 1 52 49l16 16l18.5 18.5l16.5 16.5q-42 0 -127.5 -1t-128.5 -1q-11 0 -31 1t-31 1q-18 0 -56 -4q-3 0 -14.5 1.5t-12.5 -1.5l-5.5 -5.5l-6.5 -6.5l-11 -11q-8 -8 -17.5 -17t-21 -19.5t-17.5 -16.5q-34 -31 -99 -98q-4 -4 -12 -11.5t-12 -10.5 q-5 -5 -8 -7q-2 -1 -7 1q-8 3 -27 19q-5 4 -13 11t-9 8q-47 41 -114 110q-4 5 -13 13.5t-14 12.5q-4 5 -12 13l-16 16q-7 3 -31 0h-41q-63 0 -75 1h-78q-15 0 -44.5 -0.5t-44.5 -0.5q-14 0 -42.5 -1t-42.5 -1q14 -11 38.5 -33.5t36.5 -31.5q15 -12 65 -60q13 -12 39.5 -35.5 t38.5 -34.5q7 -6 29.5 -27t35.5 -31q10 -8 31 -28t33 -30q13 -10 35 -33t33 -32l39 -30q2 -2 7 -6t7.5 -7t6.5 -7t5.5 -8.5t1.5 -9.5q0 -8 0.5 -38t-1.5 -38q-1 -10 -1 -88v-28v-12l1 -5q1 0 4 -1h26q23 0 27 -2z" glyph-name="Y" horiz-adv-x="1388" unicode="Y"/><glyph d="M214 -3h-19h-14q-4 2 -5 2h-51h-25q-16 0 -19 1q-7 4 -7 27v53q0 15 -2 47q-3 31 -1 41q2 5 6.5 9t12.5 8l10 5q9 5 24 14t19 11q5 3 39 21t50 30l159 105q44 26 94 60q9 6 43 27.5t51 34.5h-122q-20 -2 -43 -2t-51 1t-43 1q-20 0 -61.5 -1.5t-62.5 -1.5q-44 0 -66 1 q-3 0 -9.5 -1.5t-11 -1t-7.5 4.5q-3 3 -3 16q-2 21 -1 31q1 11 -0.5 31t-1.5 29q2 19 2 58q0 22 8 26q3 1 21 1h34q20 0 30 1q6 1 16 0t13 -1q10 0 31 1t31 1q23 0 67 -2q46 -1 130 0.5t117 1.5q32 0 98 -1t98 -1h104h74q53 0 59 -1q5 -1 12 -0.5t14 -0.5t9 -4q3 -4 3 -24 q0 -26 -1 -39q-4 -39 -1 -65q3 -23 1 -28q-1 -4 -8 -9q-10 -6 -27.5 -19t-21.5 -16q-6 -5 -53 -33q-19 -12 -55.5 -37.5t-55.5 -37.5q-6 -4 -18 -11t-21.5 -13t-17.5 -12q-9 -7 -27.5 -20t-27.5 -19q-14 -10 -114 -70q-11 -6 -28.5 -19.5t-21.5 -16.5h190q25 0 75 2t75 2h96 h44h32q7 -3 7 -18q0 -7 2 -21q1 -6 1 -13t-0.5 -16t-0.5 -14q0 -6 -1 -18t-1 -19q0 -31 -1 -46q0 -1 0.5 -7t0.5 -9t-2 -7t-5 -6q-6 -3 -32 0h-51q-14 0 -41 1t-41 1q-12 0 -34.5 -1t-33.5 -1h-95h-161h-103q-71 -2 -97 1q-7 1 -19.5 0t-16.5 -1q-7 0 -23 0.5t-24 0.5 q-8 -1 -49 -1q-1 0 -9.5 0.5t-15 0.5t-13.5 -1t-8 -3zM184 12q18 0 64 2.5t71 1.5q24 -2 37 -2q5 0 15.5 1.5t15.5 0.5q18 -2 79 -2q143 0 183 2q15 1 43 -0.5t39 -1.5h93l76 2q77 1 77 -2h44h23h29v21v25v38q3 39 3 41q0 3 -1 7.5t-1 6.5q0 1 0.5 13t-1.5 12q-1 2 -8 2 q-16 0 -46 -0.5t-45 -0.5h-85q-47 -3 -188 -3q-113 -2 -170 1q12 11 25 21.5t29.5 21.5t27 17.5t31 19t28.5 17.5q19 11 88 59q17 11 47.5 30.5t38.5 24.5q14 10 41.5 29t41.5 29q11 7 40 24t43 28q3 3 8.5 8t8.5 7q1 1 10 6t12 8q2 3 -1 22v28q0 16 2 50v28v13q-1 1 -7.5 1 h-9.5q-31 3 -64 3.5t-78.5 -0.5t-63.5 -1h-99h-196h-89h-104q-9 1 -55.5 0t-55.5 -1q-10 0 -28.5 0.5t-27.5 0.5h-32q-23 0 -25 -1t-4 -1v-3v-7v-20q0 -8 -1 -24t-1 -23q0 -5 1 -16.5t1 -17.5v-54q8 2 18.5 2.5t23 -0.5t18.5 -1h72q9 0 27 1t27 1h74q24 0 73.5 1t88 1 t73.5 -3q-1 -1 -4 -7t-5 -9q-2 -2 -41 -29q-62 -40 -70 -46q-25 -18 -78 -49t-77 -49l-33 -22t-41 -28q-27 -19 -62 -38q-37 -21 -80 -47q-11 -5 -19 -10q-11 -8 -12 -12q-3 -11 2 -44q1 -13 0.5 -47t-0.5 -47q0 -3 0.5 -5t2 -2.5t3 -0.5h4.5h5h27h29q22 0 25 -2z" glyph-name="Z" horiz-adv-x="1180" unicode="Z"/><glyph d="M252 -207q-17 0 -49 2q-11 1 -61 -2q-42 0 -51 1q-18 1 -19 17q-1 14 0.5 38t1.5 34v126q0 17 -1 50.5t-1 50.5v18v22v18q1 0 0 28v28v252q0 87 2 112q1 19 -0.5 54.5t-1.5 46.5v112v19.5v22.5v19v6.5v6.5t0.5 5t2 4.5t4 3t6.5 2.5q26 3 37.5 3t38.5 -2t38 -2 q103 0 116 1t120 1q60 0 90 -2q12 0 15 -4v-17q2 -38 4 -57q1 -11 1 -66v-19q2 -14 0 -18t-11 -4h-30h-48h-82q0 -22 1 -67t1 -68q0 -52 -2 -67q-1 -11 0.5 -33.5t0.5 -32.5q-1 -17 -1 -157q0 -21 1 -63.5t1 -63.5q0 -29 -1 -86t-1 -85h143q13 0 16 -1q6 -1 6 -7 q2 -4 0.5 -34t-1.5 -34v-85q0 -18 -2 -20q-4 -5 -25 -5q-20 0 -60 -1t-61 -1q-13 0 -39 1t-38 1q-11 0 -31 -1t-30 -1zM227 -192q12 0 48 1t56 0q19 0 58 -0.5t59 -0.5q10 0 36 2h27h8q4 -1 5 0t0 5v16q0 22 0.5 67.5t0.5 68.5h-99q-3 0 -27.5 -1.5t-27.5 0.5q-6 1 -9 5.5 t-3 8.5t0.5 12.5t0.5 10.5q0 20 0.5 61.5t0.5 61.5q1 21 0 58t-1 49v78.5v92.5v79q0 8 1 48t0 49q-2 80 -2 119q0 14 6 18q1 1 23 1h39h105q-2 6 -2 19v15v16.5v19v16.5q-1 12 -3 38q-1 7 -1 22v2q0 6 -1 7.5t-8 1.5q-11 0 -33 1t-33 1h-104q-13 0 -94.5 -1.5t-94.5 0.5 q-15 1 -44 1q-20 0 -23 -1q-4 0 -5 -1v-13v-98q0 -59 1 -88q0 -11 1.5 -39.5t0.5 -44.5q-3 -61 -3 -184q1 -34 1 -102v-99q1 -12 1 -26.5t-0.5 -32.5t-0.5 -28v-85q2 -22 2 -98q0 -66 -1 -74q-2 -31 -1 -47q0 -5 1 -6t6 -2h9h11h9q9 0 25.5 0.5t24.5 0.5q10 1 29 0t25 -1z M528 836z" glyph-name="bracketleft" horiz-adv-x="618" unicode="["/><glyph d="M783 -147q-39 3 -82.5 3.5t-98.5 -1t-83 -1.5q-5 0 -15 -0.5t-15 -0.5q-9 0 -12 6q-7 13 -16.5 38.5t-10.5 28.5q-36 90 -55 135q-111 267 -117 283q-15 38 -45.5 113.5t-45.5 113.5q-10 24 -30.5 71.5t-30.5 71.5q-3 8 -33 80q-22 58 -23 62q29 2 41 2.5t41 -1.5t41 -2 q25 0 75 1t76 1t32 -12q1 -2 22 -56q9 -23 27.5 -68.5t28.5 -68.5q93 -222 107 -258q79 -201 107 -265q10 -24 30.5 -71t30.5 -71q49 -121 54 -134zM489 -132q115 0 138 2q22 1 66 1q8 0 31.5 -0.5t36.5 -1.5q-26 64 -103 245q-15 34 -100 249l-50 125q-40 97 -49 116 q-17 36 -51 124q-18 44 -27 65q-2 6 -7 18t-6 14q-3 13 -6 16q-3 2 -18 2h-35q-49 0 -73 -1q-52 0 -78 1q-54 2 -70 1q12 -34 43 -105q22 -54 38 -88q18 -40 67 -163q124 -307 164 -401q15 -35 44 -108.5t45 -110.5z" glyph-name="backslash" horiz-adv-x="858" unicode="\"/><glyph d="M229 -199q-23 0 -70 1.5t-71 1.5q-8 0 -8 2q-1 0 -1 3q-1 3 -1 31q1 26 1 77q0 2 -2.5 33t1.5 33q2 5 3 6h4h17q118 0 141 -1q0 94 -1 282t-1 281q0 13 0.5 38.5t0.5 37.5q3 75 2 85q-17 -1 -100 -1h-20h-23.5h-20.5q-7 0 -9 1q-1 1 -1 14q2 19 2.5 54.5t1.5 49.5 q0 9 0.5 26t1.5 26q0 11 1 13q1 1 4 1.5t4 0.5q25 1 223 1q19 0 57 -0.5t56 -0.5q20 1 61 1h18h22h18h4l2 -2v-3v-17q0 -39 -1 -59v-38v-45v-39q-2 -171 0 -227q1 0 1 -60l-1 -60v-124q-2 -79 -2 -235v-62t1 -62q1 -12 1 -36q0 -15 -1 -18q-2 -5 -7.5 -7.5t-10.5 -2.5 t-13.5 0.5t-9.5 0.5q-46 -1 -139 -1h-135zM158 -184h206h109h50h7v14v24v414q0 23 0.5 65t0.5 76.5t-1 64.5q-1 17 -0.5 49t0.5 48v30.5v35.5v31q3 91 1 205v10h-10h-24h-55h-97q-163 2 -217 0q-5 0 -13.5 -0.5t-12.5 -0.5q-9 0 -10 -0.5t-1 -9.5l-3 -45l-3 -101 q16 0 46.5 -0.5t55 -0.5t46.5 1q2 0 7.5 0.5t9 1t6.5 -0.5q2 -1 2 -19v-36q-1 -91 -1 -271q0 -37 -1 -147.5t1 -147.5q0 -11 0.5 -33t0.5 -33q-1 -11 -1 -35v-27q-1 -4 -10 -4q-23 0 -34 1h-58h-41q-21 0 -22 -1v-19q1 -6 1 -18q1 -12 1 -35v-41q0 -4 -1 -13t-1.5 -14.5 t1.5 -12.5q1 -2 1 -3h3h8h17q24 -2 36 -2z" glyph-name="bracketright" horiz-adv-x="618" unicode="]"/><glyph d="M87 175h-17q2 11 8 24t11 20.5t15.5 22.5t13.5 20q16 22 57 88l28 40t31 47q40 66 61 98q21 33 67 97q8 12 24 38q3 8 6 9q2 2 10.5 2h9.5q8 1 51 0t51 -1q18 0 52 1t51 1q7 0 23.5 -1.5t24.5 -0.5q4 0 10.5 1t10.5 1t8.5 -1.5t7.5 -6.5l66 -105q80 -130 126 -190 q21 -28 63.5 -88t66.5 -90q1 -1 4 -5t4 -6t1 -5t-4 -6t-11 -3.5t-17 0.5t-12 1h-115q-6 0 -19 1t-20 1q-42 -2 -61 -2q-50 -2 -59 -2q-10 0 -30 2q-9 0 -15 10q-28 41 -65 111q-4 7 -13 20.5t-13 20.5q-22 38 -33 56q-11 -18 -33.5 -51t-32.5 -48q-5 -7 -13.5 -21.5 t-12.5 -21.5q-6 -10 -19 -28.5t-19 -27.5q-1 -1 -4 -7.5t-5 -8.5q-5 -5 -21 -5q-8 -1 -29 -0.5t-30 0.5q-15 -1 -135 -1h-105zM400 665q-14 -25 -76 -113q-23 -32 -80 -126q-5 -9 -19 -27t-20 -29q-10 -16 -32 -48q-14 -22 -42 -66.5t-42 -66.5h88h73h22h25.5h21.5q8 1 17 1 t20.5 -0.5t17.5 -0.5q2 0 8 0.5t9 1.5q5 1 9 7q8 15 16 24q13 19 35 55t28 45q29 47 68 99q8 -12 25.5 -43t28.5 -47q14 -19 35 -57t27 -47q3 -4 8 -13t7 -13q1 -1 3 -5t3 -5q2 -1 18 -1q25 -3 62 1q11 1 104 1q97 -2 145 0q-32 42 -94 130q-12 16 -34 45.5t-39.5 54 t-31.5 47.5q-84 137 -97 156q-2 3 -10.5 17t-13.5 20q-5 5 -16 4t-23 0q-51 2 -77 0q-30 -3 -88.5 -1t-88.5 0z" glyph-name="asciicircum" horiz-adv-x="1121" unicode="^"/><glyph d="M963 -152q-20 0 -59.5 2t-58.5 2q-12 0 -36.5 -1t-37.5 -1h-297q-64 2 -96 2q-24 0 -71.5 -1t-71.5 -1q-16 0 -47.5 1t-47.5 1h-33q-5 1 -9 0.5t-9.5 0t-8.5 3.5q-4 4 -4.5 13t1 21.5t1.5 15.5v116q0 16 21 16h75h152q7 0 71 2.5t71 -1.5q7 -1 69 -1h75q26 -1 154 2 q10 0 32 -1t32 -1q50 0 76 -1q12 0 75 1.5t76 -0.5q18 -1 60 -1t64 -2q7 0 9 -3v-18q0 -39 1 -58v-67q0 -2 0.5 -8.5t0 -10t-1.5 -8t-4.5 -7t-8.5 -3.5q-12 -1 -76 -1q-24 -1 -73 -1q-11 0 -33 -1t-32 -1zM864 -134q-55 0 -171 -2q-38 0 -114.5 0.5t-115.5 0.5q-9 0 -29 0.5 t-31 0.5q-22 1 -67 1q-6 0 -19 -1t-19 -1q-62 0 -186 2h-5h-6h-5q-5 2 -6 5q-1 5 0.5 15t1.5 12q1 19 1 56v68q67 -1 191.5 0.5t163.5 1.5q12 0 36 -1t35 -1h81q28 0 83.5 1t82.5 1q12 0 35 -1t34 -1h83h83h44q6 0 17.5 -1t17.5 -1q46 2 70 2t26 -3q1 -1 1 -5.5t-0.5 -10 t-0.5 -6.5v-70v-44v-15q-1 -2 -11 -2q-24 0 -51 -0.5t-59.5 -1.5t-50.5 -1h-37q-37 -1 -37 0q-44 2 -66 2z" glyph-name="underscore" horiz-adv-x="1281" unicode="_"/><glyph d="M278 726q-7 0 -23 1t-24 1t-12 5q-4 4 -14 19q-33 45 -42 71q-3 8 -13.5 21.5t-12.5 15.5q-9 15 -25 45q-10 21 -42 70q14 3 65 5h98h51q50 1 50 0h39q15 0 20 -6q4 -5 15 -29q7 -15 21 -47q5 -12 29 -65q5 -12 19 -38.5t20 -40.5q9 -16 4 -22q-2 -2 -27 -2 q-16 0 -47.5 -1t-47.5 -1q-32 -2 -48 -1q-10 1 -28.5 0t-24.5 -1zM236 742h61q11 1 33 0t34 0h30.5t31.5 1q10 0 30 0.5t30 0.5q-9 20 -28.5 59t-28.5 59l-24 54q-8 18 -17 37q-5 11 -10 12h-31q-13 1 -38 1q-12 0 -37.5 -0.5t-38.5 -0.5q-23 0 -69 -1t-69 -1q14 -21 37 -65 q12 -21 38 -57q3 -4 5.5 -11.5t4.5 -10.5q1 -2 15 -25q6 -9 18 -29q1 -1 4.5 -7t5.5 -8.5t5.5 -5t7.5 -2.5z" glyph-name="grave" horiz-adv-x="570" unicode="`"/><glyph d="M997 8q-69 0 -103 1q-21 0 -23 1q-1 1 -11 17t-16 24q-26 42 -31 48q-13 18 -14 20q-1 1 -3 4.5t-3 4.5q-2 1 -15 1q-67 -3 -123 -2q-22 1 -67.5 1t-68.5 1h-32q-33 0 -35 -1q-5 -2 -13 -18q-1 -2 -7 -11t-9 -14q-5 -8 -16.5 -25t-17.5 -26l-12 -18q-4 -6 -8 -7 q-3 -1 -30 -1h-38q-11 0 -34.5 0.5t-35.5 0.5q-130 0 -196 3q32 56 48 85q21 39 25 45q6 9 17.5 24.5t16.5 24.5q112 170 129 196q15 24 57.5 86t63.5 98q9 17 30 49t30 48q14 28 22 31h25q5 0 15.5 -0.5t15.5 -0.5q21 0 64 -1t65 -1h60q21 0 31 1q1 0 9.5 1.5t8.5 -0.5 q5 0 8 -9q3 -4 8.5 -12.5t8.5 -12.5q31 -42 33 -46q11 -20 34.5 -54.5t32.5 -49.5q3 -7 11.5 -19t11.5 -18q5 -8 13 -23.5t11 -20.5q12 -19 36 -53t30 -44q7 -10 19.5 -27.5t22.5 -32t18 -27.5q55 -90 61 -99q11 -15 32 -47.5t32 -47.5l6 -7q6 -8 9 -12.5t6.5 -11.5 t1.5 -10.5t-9 -4.5q-18 -1 -161 -1h-47zM880 23h258h58q-56 77 -105 156q-3 4 -21.5 35.5t-29.5 46.5q-8 11 -22 35q-4 7 -13 18t-12 16q-10 15 -28 40.5t-24 34.5q-8 12 -21.5 37.5t-21.5 37.5q-11 16 -19 29q-8 14 -26 40q-6 9 -23.5 37t-27.5 43q-4 6 -13 17.5t-14 17.5 q-10 16 -11 17t-20 1q-48 -2 -97 0q-17 0 -50 0.5t-49 0.5q-7 0 -21 0.5t-22 0.5h-6.5h-8.5h-7q-5 -1 -10 -8q-1 -1 -2.5 -4l-2.5 -5q-16 -27 -48 -78t-46 -75q-5 -9 -47 -69q-32 -48 -49 -73q-36 -56 -55 -85q-5 -8 -26.5 -39t-31.5 -48q-6 -10 -27.5 -39.5t-30.5 -47.5 q-7 -15 -23.5 -44t-24.5 -44q25 0 73 -1t72 -1h121h27q12 0 16 5t8 11t8.5 13.5t7.5 11.5q3 5 25 40q3 4 8 12.5t8 12.5q6 12 11 14h14h26h60h70h82.5h70.5q2 0 9.5 1t13.5 1t9 -2q1 0 9 -12q2 -3 6.5 -9.5t6.5 -9.5q12 -15 31 -45.5t28 -43.5zM696 301h-149q26 41 36 55 q3 4 17 25q14 20 18 21q8 2 23 -21q16 -24 24 -37q5 -7 15.5 -21.5t15.5 -21.5zM573 315h95q-4 5 -20.5 31t-26.5 38q-25 -33 -48 -69z" glyph-name="a" unicode="a"/><glyph d="M325 4q-27 0 -81 1t-81 1q-55 0 -83 2q-7 3 -8 6t-1 6t0.5 7.5t0.5 6.5q0 113 2 343q0 24 0.5 51t1.5 59.5t1 50.5q1 43 0 85q-1 15 -1 45q0 27 4 30q2 2 5.5 2.5t7 0t7.5 0.5h31q14 -1 43 -1h44q32 -1 90 0.5t80 1.5h82.5h81.5t81.5 -1t81.5 -1q11 0 49.5 0.5t54.5 0.5 t48.5 -3.5t51.5 -10.5t42.5 -20.5t41.5 -33.5q19 -21 35 -69q7 -24 7 -80q0 -36 -12 -71q-1 -2 -3.5 -8t-4.5 -9q-1 -2 -4.5 -8.5t-4.5 -9.5q-1 -4 -1 -5l6 -6q7 -6 10 -9q53 -50 53 -139q-2 -103 -44 -145q-36 -34 -59 -43q-33 -12 -70 -18q-22 -3 -46.5 -4t-54.5 -1 t-47 -1q-27 -2 -87 -0.5t-87 0.5q-59 -1 -178 -1q-15 0 -43.5 -1t-42.5 -1zM86 22q13 -3 79 -2t79 1q9 0 25.5 -1t29.5 -1.5t25 -0.5q14 0 43 1t44 1q115 0 172 2h87q70 -3 79 -2q21 2 70 2.5t76 3.5q51 8 81 19q23 9 55 41q17 18 26 44.5t10.5 46t1.5 51.5q0 73 -51 123 q-2 2 -10.5 8.5t-10.5 10.5t6 14q20 33 24 66q13 75 -14 139q-28 67 -117 90q-22 5 -45.5 6.5t-55 0.5t-45.5 -1q-102 2 -152 2q-26 1 -77 0t-76 0q-53 1 -157 -1h-84h-41t-42 1q-14 0 -22 -1q-8 -5 -8 -7v-22q-1 -14 0 -40t1 -34q0 -26 -2 -77.5t-2 -77.5 q0 -46 -1.5 -163.5t-0.5 -181.5v-61zM666 179q-18 0 -56 2t-58 2q-17 0 -36 0.5t-42 1.5t-36 1h-46h-25v20v34q0 2 -0.5 9.5t-0.5 12.5t1.5 10t5.5 7q5 2 32 2q20 0 31 -1q10 -1 28.5 0t25.5 1q37 1 104.5 -0.5t94.5 -1.5q47 0 65 -10q27 -16 19 -43q-12 -47 -107 -47z M433 201q18 0 51.5 -2t43.5 -2q48 0 98 -3q75 0 92 4q21 5 36 20t1 32q-6 8 -18.5 11.5t-22 4t-26 -0.5t-20.5 -1q-17 0 -49 1t-48 1h-146q-38 5 -43 -1v-20v-45q8 0 25 0.5t26 0.5zM598 425q-38 0 -115.5 0.5t-116.5 0.5q1 18 1 55v19v19q2 3 7 4h34h80q24 -1 73 0t74 0 q18 -1 31 -2.5t31.5 -6.5t26 -17t1.5 -31q-4 -12 -12.5 -21t-17.5 -13t-24 -6t-24 -2t-26 0.5t-23 0.5zM481 441q23 0 68 -1t67 -1h23t28 0.5t22 6t19 16.5q4 10 5 17t-5.5 12.5t-12.5 8.5t-16.5 4.5l-17.5 2.5t-15 1h-59h-58q-98 0 -147 1q0 -46 -1 -68h32h37h31z" glyph-name="b" horiz-adv-x="1174" unicode="b"/><glyph d="M414 4q-8 0 -27 1.5t-30 0.5q-31 -2 -63 0q-28 0 -57 6q-19 5 -53 21q-50 21 -84 68q-24 30 -24 86q-6 252 -6 254q2 78 14 118q15 51 58 88q49 42 108 48q20 2 92 2q22 0 65 1.5t65 1.5q11 0 34.5 -0.5t35.5 -0.5q11 0 32.5 -1t31.5 -1q163 0 244 1q82 2 118 -8 q61 -15 99 -60q41 -49 46 -99q1 -11 1 -66v-32q0 -11 -1 -12t-18 -1q-10 -1 -30 -1q-12 0 -34.5 1t-33.5 1h-142q-26 -2 -40 -4q-5 33 -8 40q-11 27 -45 41q-9 4 -18.5 5t-24 1h-18.5q-13 1 -35.5 0t-29.5 -1q-16 0 -65 1t-65 -1q-77 -4 -106 -25q-19 -14 -22 -50 q-3 -23 -1 -52q1 -18 1 -53q1 -12 0.5 -21.5t0 -21.5t2.5 -21q7 -28 39 -46q6 -3 14 -5t13.5 -2t16 -0.5t14.5 -0.5q17 -1 51.5 -1t51.5 -1q66 -1 130 0q42 2 58 11q27 14 38 35q4 10 8 25q0 13 2 15h15h38h31.5h37.5h32q104 -3 124 -4q16 0 18 -2q1 -1 1 -13v-50 q0 -77 -31 -120q-18 -26 -41 -47q-19 -16 -58 -30q-10 -4 -59 -11q-32 -4 -50 -3h-129q-119 -4 -268 -4q-10 0 -32 -0.5t-32 -0.5zM361 21q10 0 36 -1.5t41 -0.5q28 1 83 1q9 0 40.5 -1t48.5 0q9 0 24.5 1t28 1.5t24.5 0.5q125 2 150 2q103 0 138 11q40 12 64 36 q32 31 46 62q15 34 15 77v41v19q-1 1 -15 1q-6 0 -18 2h-43q-11 0 -32.5 0.5t-31.5 0.5h-64h-42q-1 0 -11.5 1t-10.5 0q-4 -3 -6 -15q-6 -21 -15 -30q-5 -6 -25 -22q-22 -17 -62 -19q-73 -3 -146 0q-15 1 -62 1.5t-73 2.5q-40 3 -64 35q-13 20 -15 74q-2 108 1 139 q7 63 102 74q20 2 151 2q7 0 42 1.5t42 -0.5q27 0 40 -1q11 0 35 -10q36 -16 47 -54l3 -12q1 -6 2 -6.5t7 -0.5q15 1 45 1q116 0 174 -1h38q5 0 7 3v14v24q0 63 -6 82q-7 27 -36 62q-17 20 -59 43q-23 13 -74 21q-18 4 -76.5 1.5t-77.5 -1.5q-29 1 -87 1q-10 0 -40.5 -1 t-47.5 0q-118 4 -178 1h-46t-54.5 -0.5t-46.5 -2.5q-42 -3 -70 -14q-30 -12 -66 -46q-23 -23 -36 -61q-5 -17 -12 -78q-4 -47 0 -165q1 -21 1.5 -69.5t2.5 -74.5q3 -40 28 -73t63 -51q48 -22 84 -27q8 -1 95 -1z" glyph-name="c" horiz-adv-x="1207" unicode="c"/><glyph d="M652 7q-15 0 -45.5 1t-45.5 1q-31 -1 -92 -1q-33 -1 -93.5 0t-79.5 1h-85q-78 3 -79 3q-15 0 -41 -2q-17 0 -18 3q-1 1 -1 29q-2 34 -2 49q0 42 3.5 156t2.5 176q-3 155 -2 175q0 9 0.5 38t1.5 45q0 7 1 8l1 3q1 0 4 1q3 2 17.5 1.5t18.5 -0.5q6 0 17 1.5t17 1.5h39 q14 0 43.5 0.5t43.5 0.5q24 0 79 2.5t85 1.5h335q117 0 162 -6q81 -11 133 -73q26 -33 33 -67q2 -8 7 -79q6 -59 9 -125q1 -45 0 -90q-2 -59 -5 -75q-9 -45 -26 -69q-28 -36 -46 -52q-28 -28 -66 -42q-15 -6 -76 -13q-42 -5 -80 -2q-12 1 -43.5 0.5t-43.5 -0.5q-14 0 -42 -1 t-41 -1zM591 23q5 0 35 -1.5t36 0.5q12 1 73 1q48 0 71 1q11 0 31.5 -1t30.5 0q87 4 121 22q41 22 83 74q19 26 26 57q5 20 7 59q4 80 0 133q-4 69 -7 100q0 6 -1 28t-1.5 32.5t-4.5 26.5t-10 28q-28 55 -84 82q-42 20 -124 22q-144 1 -288 0q-198 0 -264 -3q-47 -1 -142 -1 q-8 0 -16.5 -0.5t-19 -1.5t-16.5 -1q-10 -1 -29 -1q-6 -1 -7 -2t-1 -6v-2q-1 -6 -1 -18q1 -27 0 -77t-1 -66q0 -25 1 -73.5t1 -72.5q0 -45 -2.5 -134.5t-2.5 -133.5q0 -25 2 -69q49 3 117 -1q41 -1 124 -1h263zM568 191q-52 0 -152 6q-5 0 -23.5 -0.5t-23.5 1.5q-5 1 -5 11 v35q0 92 -4 167q-2 35 1 84q0 1 0.5 11t2.5 12h10q12 1 23 0q30 -1 86 0.5t74 1.5q132 -3 159 -4h17.5t21 -0.5t18 -3t16.5 -7.5q21 -16 33 -51q5 -16 7 -68q3 -71 1 -86q-6 -48 -23 -72q-18 -25 -61 -30q-30 -5 -93 -5q-15 0 -43 -1t-42 -1zM378 212q80 -2 120 -5 q24 -1 141 1q13 0 37 0.5t36 0.5q38 0 66 11q38 17 38 104q0 9 -1 36.5t0 42.5q0 35 -12 59q-14 31 -36 36q-17 4 -68 4q-70 3 -142 3q-24 0 -72.5 -1t-71.5 -1q-4 0 -11.5 0.5t-10.5 0.5h-7q-6 0 -8 -4q-2 -6 -2 -40q-1 -31 2 -71q2 -23 2 -177z" glyph-name="d" horiz-adv-x="1214" unicode="d"/><glyph d="M826 -4q-25 0 -155 5q-61 2 -153 -3q-67 -2 -133 3q-27 1 -160 1q-26 0 -78 2q-7 0 -20 1t-19 1h-32q-5 2 -5 12q-2 21 0 43q1 14 1 40v39q4 104 3 157q-1 13 -1 40t-1 41v82q3 29 3 150q-1 12 -1 38q0 32 1 36q2 5 3 6h4h27q46 0 139 2.5t140 2.5q5 0 17 -0.5t18 -0.5 h18h18q21 -2 65 0h38h38q26 1 78 1q19 0 69.5 -2.5t78.5 -2.5q27 0 79.5 -0.5t78.5 -0.5q10 0 12 -4q2 -3 2.5 -8t0.5 -11v-9q3 -21 3 -64v-80v-12h-15q-13 0 -53 -1t-62 0q-118 2 -148 0q-11 -2 -67 -0.5t-67 1.5q-12 0 -37.5 -1.5t-38.5 -1.5q-49 0 -74 -1q-13 -1 -39 -1 h-18h-7q-1 -1 -1 -6v-6q0 -30 1 -35q1 -3 1 -5q1 1 4 0h9q8 -1 25 -1q105 0 157 3q32 2 145 2q13 0 39 -0.5t38 -0.5t35.5 0.5t34.5 0.5q8 0 30 -2q18 0 19 -1t1 -22q0 -24 1 -37v-82q0 -23 -1 -34v-11q-1 -3 -5 -4q-5 -2 -15.5 -2.5t-11.5 -0.5q-11 -1 -33 -1 q-49 0 -140.5 2.5t-127.5 2.5q-25 0 -75 -3t-75 -3h-39h-20q-1 -2 -1 -20q-4 -32 -1 -35q1 -1 14 -1q8 -1 26 -1q133 0 150 1q63 3 126 3q11 0 34 -1.5t35 -1.5q24 1 73 1q22 0 72 1t77 0q17 0 19 -2q1 -1 1 -26q0 -13 -0.5 -39t-0.5 -39v-78q-1 -6 -2 -6.5t-4 -0.5 q-4 -1 -13 -1t-13 -1q-11 -1 -68 -4q-8 0 -22.5 -1t-26.5 -1.5t-22 -0.5zM651 16q22 0 92.5 -3t109.5 -1q10 0 29.5 0.5t35 1t29.5 1.5q12 2 17 2q1 0 6.5 0.5t7.5 1.5q3 1 4 1q-1 1 1 4q1 3 1 7.5t-0.5 10t-0.5 7.5v31v51q0 5 0.5 13t0.5 13v10v10q1 5 -4 5h-22h-24h-53 q0 -3 -95 -2l-96 2q-26 1 -79 1q-6 0 -39.5 -2.5t-51.5 -1.5h-109q-32 0 -48 1q-1 0 -3 1q-3 0 -4 1v17q0 7 1 22t1 23v19q2 1 8 1q19 1 55.5 1.5t48.5 0.5q21 0 63 1.5t63 2t63 -0.5q81 -4 183 -4h17t20 0.5t17 2.5l5 2v17v28q1 22 0 63t-1 53q-6 0 -19 1.5t-20 1.5 q-32 0 -48 -1t-72 1h-83q-19 0 -125 -4t-162 -1q-7 3 -8 6t-1 47q0 25 2 27q1 1 12 1q9 1 26 1q33 0 97 2t96 2q14 1 41.5 0t41.5 -1l90 3q30 0 90 -1t90 -1h30h10v21q0 85 -1 102q0 24 -3 31l-9 5h-9h-29q-16 0 -48.5 1t-48.5 1q-30 0 -90 2t-91 2q-124 -2 -186 -1 q-115 2 -154 0q-84 -4 -191 -4h-23h-15v-4v-26v-30v-96q-1 -34 -1 -202q0 -33 -1.5 -98.5t-1.5 -98.5v-49q-4 -47 1 -51h23h21q17 -2 50 -2q29 -1 97 -1t105 -2q39 -2 174 -2q93 3 94 3z" glyph-name="e" horiz-adv-x="1091" unicode="e"/><glyph d="M213 0q-89 0 -120 4q-3 0 -5.5 1t-4.5 2.5t-3.5 2.5t-2.5 4t-1.5 4t-0.5 4.5v5v5.5v5v92v227q2 138 0 207q0 10 -0.5 30.5t-1.5 30.5v53q4 16 35 16h61q46 0 136.5 1t135.5 1q27 0 82 -2t82 -2.5t82 1.5q22 2 130 -1q19 -1 63 0.5t63 -0.5q18 -2 26 -2t12 -2t6 -6.5t2 -8 t-0.5 -9.5t-0.5 -8q1 -24 0 -68t-1 -58q0 -26 -9 -31q-2 -1 -6 -2q-3 -2 -28.5 -2h-29.5q-45 -1 -134 -1q-26 1 -74 0t-63 -1q-10 0 -61 1.5t-61 -0.5q-17 0 -55 1.5t-58 0.5q-8 0 -20 -2q-8 0 -10 -3v-18q-1 -10 -1 -32q0 -6 0.5 -8t2.5 -3t6 -1h3q38 -2 56 -2 q9 -1 25.5 0.5t23.5 1.5q13 0 39 -0.5t39 -0.5q25 0 124 1.5t124 -1.5q10 -1 30 0t28 1q15 0 18 -3q3 -2 3 -21q3 -53 -1 -126v-30q0 -17 -1 -18h-12q-16 -2 -31 0q-23 0 -68 0.5t-67 0.5h-122q-8 0 -59 1.5t-59 -0.5q-17 -1 -53 -1h-32q-6 0 -8 -0.5t-3 -2.5t-1 -7v-5 q-2 -29 -2 -132q0 -52 -2 -67q-1 -6 -3.5 -9.5t-8.5 -5t-10 -2t-12 0t-10 0.5q-82 -2 -121 -2zM90 19q3 -1 11 -1.5t10 -0.5q11 0 31 -2q21 -1 60 -1q77 0 116 2h31q13 0 14 3q1 2 1 5q1 21 1 64q0 85 3 128q0 28 3 30h21h56q13 0 39 1t39 1q19 1 56.5 0t55.5 -1q13 1 35 0 t29 -1h62h67q10 -1 30 -1h14q7 0 7.5 1t0.5 9q3 102 2 123v29q0 5 -1.5 6t-6.5 1q0 1 -9 0h-8q-27 -1 -53 0q-23 5 -120 2t-120 -3q-13 0 -37.5 0.5t-36.5 0.5q-9 0 -26 -1t-25 -1q-26 0 -53 3h-8t-7.5 0.5t-6 3t-3.5 7.5q-1 3 -1 25q0 24 1 35q0 15 7 20q3 2 13 2 q30 3 52 2q31 0 46 -1q9 -1 26.5 -1h26.5q19 -1 41 -1t49 0.5t41 0.5q43 0 130 0.5t130 1.5h30q14 0 16 5v27v32q2 44 2 64v27q-7 10 -9 10q-51 3 -52 3q-40 -2 -61 -2q-64 0 -129 3q-22 1 -63.5 -1t-59.5 -2q-14 0 -55.5 2t-63.5 2h-269h-62h-28q-25 0 -29 -1q-5 -1 -5 -12 v-30q0 -11 0.5 -32t0.5 -31q1 -98 1 -294v-237v-24z" glyph-name="f" horiz-adv-x="1074" unicode="f"/><glyph d="M416 1q-31 0 -46 1h-42q-52 0 -78 4q-18 3 -75 27q-40 19 -66 53q-25 33 -32 76q-2 14 -2 39t-1 36q0 10 -0.5 41t-1.5 48q-2 32 -2 98q0 14 2 42l3 42q0 35 19 75q39 76 126 97q32 8 83 8q81 3 82 3q17 0 50 0.5t49 0.5q13 0 38.5 -1t37.5 -1q17 0 49 -0.5t48 -0.5 q15 0 45.5 1t46.5 1q118 0 178 -1q30 -1 90 1h44q2 0 10.5 1t15 0.5t10.5 -2.5q3 -2 4 -5t1 -8.5v-7.5q1 -18 1 -53q0 -81 -1 -97q0 -13 -1 -15q-1 -4 -3 -5q-5 -3 -38 -3q-30 -2 -91 2q-29 1 -88 -1q-27 0 -83 -2q-90 -3 -169 1q-62 2 -94 2q-72 0 -89 -4q-49 -9 -64 -43 q-13 -27 -9 -74q3 -39 1 -87v-10.5v-10.5t0.5 -9t1.5 -9.5t2.5 -8t4 -9t6 -7.5t8.5 -8q24 -20 66 -20q29 0 89 2q30 2 87 -2q16 -1 46.5 -0.5t45.5 0.5q57 0 86 -2v45q-49 0 -99 3q-16 1 -48 1h-47h-5h-6h-5q-3 1 -4 1l-1 3q-1 2 -1 19v26q-3 60 -2 107q0 29 2 30q1 1 16 1 h29q17 0 106 -2q19 -1 55 0.5t50 1.5q17 0 49 -1t49 -1q19 -1 56 0t48 1q9 0 25.5 -0.5t24.5 -0.5q9 0 10 -1q2 -2 2 -15q3 -37 1 -165v-57.5v-57.5q-2 -60 -26 -86q-36 -41 -85 -45q-35 -3 -104 -1q-76 2 -115 1q-18 -1 -64 -0.5t-64 0.5q-164 -2 -248 -2zM361 18 q10 0 34.5 -1.5t37.5 -0.5q12 0 36 0.5t37 0.5q101 0 151 1q24 0 74 -2q23 0 73 2q23 0 69 -1t70 -1h43.5t42.5 6.5t40 19.5q29 23 35 51q4 20 4 62q0 21 0.5 64.5t0.5 65.5q0 96 -1 115q0 14 -2 15q0 1 -13 1h-35q-24 1 -74 -1q-19 0 -40 0.5t-46.5 1.5t-40.5 1t-61.5 -1 t-72.5 0q-46 2 -69 1h-32q-6 0 -6.5 -0.5t-1.5 -6.5t-1 -20v-69q2 -20 2 -30q0 -2 -0.5 -9.5t-0.5 -14.5t2 -8h3q3 -1 7 -2h3q10 0 15 1l18 1q17 0 17 -1q11 0 33 -1t33 -1q11 -1 34 -1t35 -1q14 0 15 -1q2 -1 2 -7v-30v-33q-1 -2 -6 -2q-5 -1 -13 0t-11 1q-14 1 -37.5 1 h-38.5q-14 1 -39 0t-33 -1t-22.5 1t-26.5 1.5t-23 0.5t-66 -2.5t-66 0.5q-33 2 -59 20t-30 49q-2 10 -2 21.5t1 26t1 22.5q0 20 -2 62q-6 77 39 105q20 12 45.5 17.5t48.5 5t49 -0.5h23h27h23q44 -4 66 -4q23 -1 139 2q22 0 68 1t68 1q13 1 37.5 -0.5t34.5 -1.5h36q5 1 15 1 q10 1 11 11v75v39v19v10.5t-1 9.5q-1 2 -36 2q-6 0 -18 -0.5t-18 -0.5q-13 0 -38 -0.5t-37 -0.5q-23 0 -69.5 1t-69.5 1q-32 0 -90.5 -1t-106.5 -1t-90 2q-10 2 -75 0.5t-75 -1.5t-30 -1t-31 -1q-41 0 -62 -4q-72 -14 -116 -65q-19 -20 -28 -56q-5 -16 -9 -60 q-2 -23 -2 -140q0 -23 1.5 -70t1.5 -71q2 -46 6 -62q5 -26 27 -53q33 -44 109 -67q15 -5 33 -7t30.5 -2t35 0.5t31.5 0.5z" glyph-name="g" horiz-adv-x="1216" unicode="g"/><glyph d="M929 -2q-11 0 -34 1.5t-35 1.5q-5 0 -16 -0.5t-17 -0.5q-2 0 -12.5 -1t-17.5 0t-11 4q-5 4 -5 21q-1 15 -1 46v44t-1 43q-3 72 -3 74v18q-1 5 -6 5h-4q-8 0 -23 -0.5t-22 -0.5q-99 2 -149 1h-194q0 -25 1.5 -89.5t0.5 -99.5q0 -25 -1 -37q0 -18 -4 -21q-2 -2 -7 -2.5 t-11.5 -0.5h-8.5q-6 0 -19 -1t-20 -1q-23 0 -89 2.5t-89 -0.5q-26 -2 -39 -2q-13 -1 -17 6q-3 6 -3 37v51q1 35 1 94.5v95.5v196q0 24 -1 95.5t1 95.5q0 7 4 11.5t11 5.5t13 1t15.5 -0.5t12.5 -0.5q15 0 46 1t46 1h104q30 2 45 -2q4 0 5 -1q2 -2 2 -14q4 -10 1.5 -109.5 t-2.5 -109.5q45 0 127 1t149 1t127 -2q0 136 -2 157q-1 10 -1 31q0 34 1 36q2 5 8 7.5t13 3t14.5 0.5h11.5q33 3 67 3q45 -3 46 -3h53h38q3 0 20.5 1.5t19.5 -0.5q9 -2 12 -9t2 -23v-15v-69q0 -26 -2 -156q0 -27 2 -79t2 -78q-1 -52 1 -156q2 -55 0 -83q0 -16 -4 -19 q-2 -2 -15 -2q-23 0 -68.5 -2.5t-68.5 -2.5zM871 16q7 0 21.5 -1.5t21.5 -1.5q24 -1 49 0q45 5 83 5h24q1 1 1 16q1 0 1 28l-1 29q-1 19 -1 56.5v56.5q-1 21 -1 56v56q0 13 -1 36t-1.5 42t-0.5 36q2 145 1 217v25q-1 5 -2 6h-4t-5.5 -0.5t-4.5 -0.5h-61h-68q-49 3 -99 0 q-16 -2 -23 -2q-7 -1 -8 -2.5t-1 -6.5v-4q-1 -19 1 -56q2 -25 2 -110v-31q0 -15 -1 -18q-1 -2 -1 -3t-1 -1t-3 -1h-22q-72 2 -217 0h-117q-27 -2 -53 0q-15 0 -17 1v10v112q1 19 1 56v31v16q-1 7 -3 8l-3 1q-2 1 -24 1q-16 0 -24 -1h-56q-9 0 -28 0.5t-28 0.5t-27.5 -1 t-27.5 -1q-4 0 -14 -0.5t-14 -0.5h-25q-3 -2 -3.5 -12t0.5 -23.5t1 -14.5q-1 -59 0 -119q2 -58 0 -231q-1 -57 0 -115q1 -9 0 -57t-1 -58q0 -22 1 -24q1 -4 1.5 -4.5t5.5 -0.5q2 0 5.5 0.5t5.5 0.5q8 0 24 1t25 1q35 -1 104 -1q63 0 94 1h6q6 0 7 7q0 4 0.5 12t0.5 13v57 q0 20 -1 58t-1 57v30q0 11 1 13t7 3q8 1 24 -1q19 -2 115 -0.5t115 1.5q16 0 50 -0.5t50 -0.5h55q8 0 10 -1v-16q0 -37 2 -111t2 -111v-12q1 -2 8 -3q4 0 12 0.5t12 0.5q7 0 22 0.5t22 0.5z" glyph-name="h" horiz-adv-x="1176" unicode="h"/><glyph d="M178 0h-55q-37 0 -40 1q-9 4 -9 19v44q2 69 0 210v200v102q0 36 -1 54v49q2 14 15 14q9 1 24.5 0t20.5 -1q34 0 102 -2q1 0 94 3q3 0 12 1t16.5 0.5t11.5 -2.5q7 -3 7 -23q2 -35 0 -102.5t-1 -98.5q1 -71 1 -212v-132v-63v-30q-4 -21 -4 -22q-7 -9 -29 -7q-3 0 -10 1 t-12 0q-3 0 -10 -0.5t-10 -0.5q-27 -2 -123 -2zM90 14h123q37 0 113 4q4 0 11 -1t10 -1q9 0 11 1q1 1 3 6q1 5 1 62v42v49v42q0 87 1 131q1 22 -1 64t-2 60q2 76 2 113q-1 0 0 32v33q5 22 0 27t-23 0q-134 -3 -252 1q0 -23 1 -69t1 -68q0 -10 1.5 -63t-0.5 -63 q-1 -22 -1 -132q0 -115 2 -148q0 -2 -1 -37t-1 -56t1 -29z" glyph-name="i" horiz-adv-x="441" unicode="i"/><glyph d="M144 1q-4 0 -19.5 -1t-25.5 0t-19 4q-6 2 -7 7q-2 6 -2 34q0 25 2 72.5t2 61.5q0 11 3 13t8.5 3t12.5 1h9h76h77q45 0 67 3q62 12 66 65q2 24 2 145v78.5t-2 78.5q-1 23 -1 71q1 11 1 33v6.5t0.5 7.5t2.5 5q3 3 32 3q6 1 19 1.5t19 0.5q15 1 41 1h42q128 3 144 4 q1 -17 1 -51.5t1 -51.5q3 -65 2 -118q0 -212 -1 -239q-2 -89 -10 -110q-16 -47 -64 -82q-72 -52 -206 -44q-20 4 -136.5 1t-136.5 -3zM111 16q40 0 118.5 1t117.5 1q20 0 59.5 -0.5t58.5 -0.5q64 0 104 17q56 24 81 57q29 36 31 103q0 18 2 53.5t2 53.5q0 101 -1 121 q0 19 0.5 66.5t-0.5 66.5q-3 65 -3 129q-34 -1 -121.5 -3t-135.5 -4h-15v-12q-1 -11 -1 -33q-2 -37 1 -65q1 -15 1 -135l1 -66q1 -66 -1 -66q0 -3 -0.5 -14t-1 -15t-1.5 -13t-2.5 -14t-4.5 -12t-7 -13t-10 -11q-28 -26 -102 -26q-43 -1 -128 -1h-36q-27 0 -28 -2v-19v-17 q0 -5 -0.5 -17t-0.5 -18q-2 -36 -2 -55q0 -29 1 -32q1 -5 7 -5h17z" glyph-name="j" horiz-adv-x="777" unicode="j"/><glyph d="M288 -10q-21 0 -70.5 2t-76.5 1h-38q-18 -3 -23 3q-4 5 -4.5 16t1 25.5t1.5 18.5q0 22 -1.5 67.5t-0.5 68.5q0 99 -1 149l3 142q0 9 1.5 69.5t-0.5 69.5q-4 47 7 52q3 2 26 2h11h13h11q29 -1 67 2q11 1 23 1t27.5 -0.5t23.5 -0.5q40 0 80 -3q9 0 11 -8q2 -11 2 -35v-74 q0 -13 -1 -39t-1 -39q78 50 118 74q6 4 29 17.5t35 21.5q34 23 62 39q11 6 30 19.5t29 18.5q14 8 35 8.5t37 -1.5q50 -2 151 0q54 1 161 -1h38t37 -1q11 0 12 -2q4 -5 1 -13q-4 -5 -21 -14q-5 -3 -16.5 -10t-17.5 -11q-10 -6 -29 -18.5t-29 -18.5q-74 -42 -109 -66 q-25 -17 -66 -39q-7 -4 -33 -20.5t-41 -24.5q-6 -4 -58.5 -37.5t-82.5 -47.5q11 -7 30 -21.5t27 -19.5q11 -7 34 -21t34 -21q120 -73 136 -83q7 -5 58.5 -40t79.5 -51q113 -64 138 -80q12 -9 12 -10q0 -2 -3.5 -6.5t-5.5 -5.5q-3 -2 -9 -2t-13.5 1t-9.5 1q-39 -3 -40 -3 q-37 2 -168 2q-55 2 -83 1q-9 0 -27 1t-32 1t-26 -2q-36 -4 -59 1q-8 1 -31 17q-13 9 -33 25q-19 14 -73 45q-16 9 -75 51q-127 85 -133 89q0 -119 1 -178v-29q0 -17 -4 -20t-11 -4t-16 -0.5t-12 0.5q-8 0 -24.5 -0.5t-24.5 -0.5zM247 4q18 0 53 1t52 1q12 0 13 1v5 q1 6 1 18q0 8 -0.5 23t-0.5 23q-2 69 -1 104q0 54 3 71q29 -25 120 -85q20 -13 60 -41q14 -10 42.5 -26.5t35.5 -20.5q15 -9 40.5 -28.5t38.5 -27.5q17 -11 21 -13q3 -1 9.5 -1h9.5q21 0 31 1h39h53q17 0 49 -0.5t48 -0.5h59t59 -1q4 0 19 -1t23 0q32 2 49 2q-51 32 -113 66 q-40 22 -116 74q-40 28 -117 74t-109 67l-54 36q-31 22 -37 31q66 34 190 114q18 12 54 32.5t51 30.5q17 11 49 30.5t43 26.5q15 9 116 71q-30 0 -89 1t-89 1q-29 0 -86.5 -0.5t-86.5 -0.5q-7 0 -22 0.5t-22 0.5q-29 2 -43 -4q-12 -5 -32 -20t-30 -20q-23 -12 -69 -44 q-11 -7 -34 -20.5t-34 -20.5q-54 -32 -80 -49q-30 -20 -46 -28q-3 13 -3 41q2 42 2 62v20.5v24v19.5v10v12.5v9.5l-1 4l-4 1q-2 1 -18 1q-120 3 -131 2q-30 -3 -60 -3q-6 0 -18 0.5t-17 0.5h-14q-7 -1 -8.5 -2t-1.5 -7q-1 -10 0 -29.5t1 -28.5q-1 -13 -1.5 -36t-0.5 -30 q0 -21 -1.5 -63t-1.5 -62q0 -211 2 -271q1 -11 1 -32.5t1 -32.5q0 -6 -0.5 -18.5t-0.5 -18.5q-1 -6 -1 -16q7 -8 10 -8q27 1 76.5 -1t69.5 -2z" glyph-name="k" horiz-adv-x="1289" unicode="k"/><glyph d="M256 -7q-15 0 -43 1t-42 1q-46 -2 -70 -1q-2 0 -11 -0.5t-11 0.5q-4 2 -4 23q-1 12 -1 74q-1 171 0 341q0 28 -0.5 86t-0.5 87v41v28q2 2 18 2h11h12.5h10.5h36h36h80q51 0 77 1q13 2 18 -5q3 -5 3 -40q-2 -107 -1 -161q0 -18 1.5 -74.5t0.5 -86.5v-82v-22v-18 q2 -3 12 -3q4 0 11 -0.5t10 -0.5q13 0 39.5 -1t40.5 -1q13 0 39.5 1t39.5 1q0 1 86 0h85q24 0 82 -0.5t82 0.5q18 1 34 0q28 0 30 -3q1 -1 1 -18q0 -7 0.5 -22.5t0.5 -22.5q1 0 1 -46l-1 -46q0 -22 -1 -24q-4 -8 -22 -8h-266h-350q-13 0 -37.5 -0.5t-36.5 -0.5zM214 9h76.5 h89.5h76q34 1 123 0t123 1q18 1 55 -0.5t56 -0.5q15 0 45 -0.5t46 0.5l21 -1q21 0 21 1q8 0 9 1v11v21v62q0 21 -1 32v15v18q-1 1 -34 1q-16 -1 -50 -1q-23 -1 -64.5 0t-54.5 1q-100 0 -120 1q-18 0 -38.5 -0.5t-45 -1.5t-38.5 -1q-39 0 -117 2h-6t-7.5 0.5t-7.5 1.5 t-6.5 2.5t-3.5 4.5v9v30q0 20 0.5 61t0.5 61t-1.5 59t-1.5 59q0 85 1 127v67v11h-14q-11 -1 -33 -1h-113h-113q0 -28 1 -117t0 -138q-1 -130 0 -262q0 -15 1 -62.5t0 -73.5q0 -1 63 -1z" glyph-name="l" horiz-adv-x="1056" unicode="l"/><glyph d="M332 -5q-27 0 -82.5 1.5t-83.5 1.5h-80q-11 0 -12 6q-1 4 -1 47q4 124 2 186q-1 0 -1 85l1 86v184v62v17q3 7 33 7q35 -1 99 0t84 1q78 0 87 -1q8 -2 20 -18q10 -12 28 -38q11 -16 51.5 -69t61.5 -84q19 -28 119 -153q10 12 62 82q43 57 53 73q4 7 14.5 18.5t14.5 17.5 q25 34 28 37q12 14 58 78q18 26 28 37q1 1 3.5 5.5t4 6t4.5 3.5t6 2q5 1 10.5 1t12.5 -0.5t11 -0.5h57q75 0 112 1q10 1 27.5 0t23.5 -1h25q2 0 6 0.5t7.5 0.5t5.5 -1q4 -2 5 -7q2 -12 2 -17v-55v-103q-1 -108 0 -216q0 -36 0.5 -110t0.5 -110q0 -16 -2 -50q0 -6 -4 -8 q-3 -2 -17 -2h-95q-18 0 -56 1t-57 1h-55q-14 0 -15 1q-3 2 -3 11q-1 8 -1 18t0.5 22.5t0.5 18.5q0 55 1 65q1 15 1 31.5t-0.5 37t-0.5 31.5q-6 -9 -20 -26t-21 -26q-22 -32 -34 -47q-32 -38 -47 -59t-16 -22q-5 -4 -28 -4h-180q-15 1 -44 1q-28 0 -31 1q-5 2 -15 17 q-4 6 -12.5 17.5t-12.5 17.5q-5 8 -50 66q-10 12 -28 35t-23 29q1 -26 1 -156v-40q3 -30 0 -38q-2 -4 -6 -6q-4 -1 -38 -1zM179 12q22 0 66 -1.5t67 -1.5h17q28 0 30 1h4v10q0 2 -0.5 6.5t-0.5 6.5v33q0 21 0.5 64t0.5 64q0 10 -2 39.5t-2 45.5l81 -102q32 -40 48 -63 q21 -29 23 -32q9 -13 14 -14h23q130 -2 197 -2h23q19 0 21 1t4 4t4.5 7.5t3.5 5.5q4 6 14 18q8 10 24 29.5t24 29.5q5 7 37 50.5t52 64.5q0 -115 -2 -148v-51v-26v-31q1 -3 1 -5q1 0 3 -1h13h22h50q62 -2 93 -2h38h25q28 0 29 1t1 20v25q0 9 0.5 27.5t0.5 27.5q-2 66 -2 98 v416v25v4l-1 4v1q-2 0 -4 1q-3 1 -8 1t-10.5 -0.5t-7.5 -0.5q-21 0 -31 1q-21 1 -57.5 0t-48.5 -1h-106h-13q-3 -2 -10 -12l-27 -36q-6 -8 -125 -167q-7 -9 -50 -66.5t-67 -87.5q-79 97 -159 206q-13 20 -40.5 55.5t-39.5 52.5l-18 27q-20 27 -24 29h-30q-12 1 -38 1 q-48 0 -73 -1q-8 0 -34.5 1t-40.5 0q-5 0 -17 -0.5t-18 -0.5h-18h-17q-2 -1 -2.5 -8t0.5 -16.5t1 -10.5q0 -97 -2 -295q0 -49 2 -149q0 -28 -1.5 -85t-1.5 -86q15 0 46 -0.5t46 -0.5z" glyph-name="m" horiz-adv-x="1334" unicode="m"/><glyph d="M1085 -2q-56 0 -168 2q-15 0 -43 -0.5t-43 -0.5q-23 0 -33 8q-22 18 -33 26q-20 14 -128 102q-21 17 -62.5 49t-59.5 47q-64 53 -68 56q-9 7 -33.5 25.5t-37.5 29.5q1 -35 -1 -107q0 -21 0.5 -62.5t0.5 -62.5v-59q0 -18 1 -26v-21q-2 -4 -32 -4q-11 0 -32 -0.5t-31 -0.5 q-43 -1 -131 -1h-58q-8 1 -10.5 1.5t-6.5 3.5t-4 9q0 4 0.5 12t0.5 11v21.5v25v20.5q0 14 -0.5 43t-0.5 43q0 11 1.5 47t0.5 56q-1 39 1 115q0 81 -2 121q-1 10 0 29t1 24v56q0 3 -1 11t-1 14t2 10t8 5t15 1h11q40 3 122 3q20 0 59 -0.5t58 -0.5q30 0 43 -11q5 -4 20 -15 t22 -17q38 -32 111.5 -88t88.5 -68q12 -9 43.5 -36.5t50.5 -40.5q18 -13 50 -39t42 -34q0 25 -0.5 73.5t-0.5 72.5q-1 26 0 73t1 63q0 6 -0.5 17t-0.5 16q0 22 1 24q3 7 18 7h37q18 0 74 -1t75 1q22 2 65 2q24 0 27 -1q4 -2 4 -8q1 -16 1 -147q0 -24 0.5 -73t0.5 -74 q-1 -52 -1 -155l3 -135q0 -22 -2 -64q0 -18 -8 -22q-4 -1 -27 -1zM87 11zM1079 12q25 0 26 1t1 31q2 36 1 55q-2 37 -2 111v290q0 27 -0.5 81t-0.5 82q-16 0 -58.5 -1.5t-65.5 -0.5q-108 2 -139 1q-8 -1 -9 -1.5t-1 -8.5q0 -6 0.5 -17.5t0.5 -17.5q1 -23 -1 -65 q0 -4 0.5 -14t0.5 -14q0 -6 -0.5 -16t-0.5 -16q0 -11 0.5 -31t0.5 -30q0 -109 -1 -130q-16 13 -67 53q-48 36 -75 59q-25 21 -52.5 43.5t-63.5 50t-54 41.5q-32 24 -94 74q-5 4 -35 27q-17 15 -19 15h-34q-23 0 -70.5 1t-84 1t-69.5 -3q-23 0 -25 -2q-1 -2 -0.5 -6t1 -10.5 t0.5 -8.5v-51q0 -6 -1.5 -22.5t-0.5 -25.5q1 -22 1 -64q0 -13 1 -53t0 -62q0 -16 0.5 -56.5t-0.5 -56.5q-1 -30 -1 -179v-39q-3 -9 -1 -13q1 -1 25 -1q20 0 61.5 -0.5t62.5 -0.5q46 2 70 2h29q26 0 27 2v30v33v67q0 21 -1 70.5t-0.5 86t3.5 70.5q16 -15 50 -43 q53 -39 69 -53q65 -54 121 -96q37 -27 135 -110q12 -9 34 -26.5t34 -26.5q7 -5 27 -5q17 1 53 1q36 1 101 -0.5t91 -1.5z" glyph-name="n" horiz-adv-x="1213" unicode="n"/><glyph d="M539 -4q-31 0 -91.5 1t-90.5 1q-109 -2 -157 16q-45 16 -66 37q-28 27 -41 56q-10 24 -14 51t-4.5 64t-1.5 53q-1 12 -1 25.5t0.5 30.5t0.5 26q0 56 2 84q3 85 17 118q5 15 14 28q22 32 54 54q22 13 74 28q18 5 40.5 7t35.5 2.5t43 0t37 -0.5q30 0 91 -0.5t91 -0.5 q30 -1 84 0t71 1q19 0 55 -0.5t65 -1t55 -1.5q88 -3 152 -37q32 -17 53 -52t26 -74q1 -12 1.5 -24.5t1 -27.5t0.5 -23q0 -2 1.5 -19.5t1.5 -26.5q0 -108 -3 -164q-2 -39 -3 -54t-8.5 -44.5t-22.5 -49.5q-29 -36 -57 -52q-36 -19 -83 -27q-6 -1 -78 -4q-17 -1 -48 0t-41 1 h-53h-62.5h-53.5q-14 0 -43 -0.5t-44 -0.5zM379 12q23 0 81 -1.5t90 -0.5h165q14 0 40.5 0.5t39.5 0.5q15 0 44 -0.5t43 -0.5q73 3 79 4q52 12 78 27q61 33 78 112q3 12 5 73q0 10 1 30t1 30q2 37 -0.5 105t-2.5 90q0 74 -51 128q-19 20 -61 35q-41 12 -80 15 q-47 3 -99.5 3.5t-117 0t-99.5 -0.5q-55 1 -163 1q-152 0 -166 -1q-88 -8 -134 -47q-54 -45 -59 -128q-2 -29 -2.5 -82.5t-1.5 -74.5q0 -52 1 -78q1 -14 1.5 -40.5t1.5 -39.5q7 -84 73 -126q24 -16 68 -26q40 -9 67 -9q27 1 80 1zM621 168q-129 0 -155 1q-46 2 -64 22 q-28 28 -30 52q-2 4 -2 37v38q-2 38 0 77q2 46 14 64q15 24 48 36q15 5 34.5 7.5t32 3t38 0t32.5 -0.5h80q6 0 36.5 1.5t36.5 -0.5q50 -5 66 -11q33 -12 50 -47q4 -7 5.5 -16.5t1.5 -16t-0.5 -18.5t-0.5 -16v-38.5v-38.5q0 -56 -8 -76q-13 -32 -52 -50q-20 -9 -80 -9 q-14 0 -41.5 -0.5t-41.5 -0.5zM489 184q12 0 73 -1t73 0h68q47 0 65 5q36 9 50 36q11 19 11 59q2 50 1 75q0 7 0.5 33.5t-1.5 33.5q-3 27 -36 51q-12 9 -58 14q-12 1 -139 1q-104 0 -130 -3q-41 -6 -59 -23q-17 -16 -21 -58q-2 -17 -2 -81v-35.5t2 -43.5q1 -15 11 -30 t23 -23q16 -10 69 -10z" glyph-name="o" horiz-adv-x="1231" unicode="o"/><glyph d="M127 -1q-5 0 -16 1t-17 1q-17 0 -18 1q-2 2 -2 7.5t1 12t1 7.5v38q0 29 -0.5 85t-0.5 84q0 56 -0.5 167t-0.5 166v73q0 2 -0.5 8.5t0 10t1 9t3.5 9t7 5.5q3 1 33 1q28 0 42 -1q0 -2 39 -1l39 1q0 1 82 0h82q27 0 81.5 1t82.5 1q118 -2 176 -2h46q47 1 47 0q48 0 76 -7 q80 -19 122 -66q29 -33 40 -60q13 -31 17 -76q4 -51 -4 -87q-6 -25 -28 -74q-32 -68 -111 -96q-47 -16 -144 -16q-19 0 -53.5 -0.5t-62.5 -1t-53 -1.5q-29 -1 -173 -1q-28 0 -42 1q-3 0 -11 1t-14.5 1t-10.5 -2q-2 -1 -2 -11v-19q0 -23 -1 -35q0 -25 -2 -77q0 -10 -2 -32 q0 -19 -3 -21q-4 -2 -10 -2.5t-14.5 0.5t-10.5 1q-15 -1 -47 -1q-56 -2 -85 -2q-13 0 -39 -0.5t-40 -0.5zM91 16q8 0 30 -1.5t34 -0.5h81l84 3h20h20q3 2 3 29q1 12 1 37t1 37q1 13 1 74v17q1 2 3.5 2.5t7 0.5h6.5q13 0 39 -0.5t39 -0.5q167 0 335 3q95 2 130 11 q78 20 113 81q21 38 30 70q7 27 7 80q0 47 -14 83q-10 26 -39 60q-13 14 -29.5 25t-30 18.5t-36 12.5t-34.5 7.5t-39.5 4t-36.5 1.5h-39h-36h-160q-161 1 -161 0h-79h-80h-76q-10 -1 -35.5 -0.5t-35.5 0.5q-24 0 -26 -2v-16v-22v-72q0 -25 0.5 -77t0.5 -78 q-2 -27 -0.5 -160.5t1.5 -160.5v-66zM462 374h-61h-28q-5 1 -6 4q-2 3 -2 10.5v8.5q0 20 -1 30q0 9 -0.5 28t-0.5 29q0 18 1 20q2 3 7 3q32 2 49 2h34h39.5h33.5h118q75 0 94 -5q25 -7 43.5 -30t8.5 -45t-33.5 -36.5t-48.5 -16.5q-16 -1 -35 -1t-42.5 0.5t-35.5 0.5h-68 q-11 0 -33 -1t-33 -1zM380 389q36 0 108 1t108 1h93h30q20 3 40 21q21 19 21 32q0 20 -27 37q-22 14 -88 14q-15 0 -45 -1t-46 -1q-13 0 -47 1.5t-52 0.5h-53q-4 0 -10.5 -0.5t-9.5 -0.5q-23 0 -24 -1q-5 -4 0 -26q0 -18 1 -26q0 -35 1 -52z" glyph-name="p" horiz-adv-x="1178" unicode="p"/><glyph d="M979 -114q-19 0 -54 2t-47 2q-14 0 -43 -1t-43 -1h-83h-42q-1 0 -17 -1.5t-16 0.5q-5 2 -15 22q-8 12 -24 38q-8 12 -26 36q-1 2 -3.5 5t-4.5 5.5t-4 4.5q-4 4 -15 4q-60 0 -90 1q-11 0 -42 1t-48 0h-85q-96 8 -143 51q-55 49 -60 126q-4 54 -4 163q2 135 5 162 q8 83 66 129q54 45 155 49q64 2 193 0h174.5t174.5 -1q34 0 53.5 -1t52.5 -4t54.5 -10.5t46.5 -19t42 -31.5t28 -46q6 -14 10 -28t5.5 -34t2 -28t1 -35t0.5 -30q3 -82 0 -163q0 -6 -0.5 -22.5t-1 -23.5t-1.5 -21.5t-2.5 -23t-4.5 -20.5t-7 -22.5t-10 -20.5q-34 -62 -121 -86 q-31 -8 -78 -10q15 -21 45 -65q23 -35 26 -52zM951 -100h9q-10 20 -38 57.5t-38 59.5q10 1 30.5 1t30.5 1q32 2 77 22q66 27 90 110q3 12 4.5 25t1.5 29.5t1 24.5q1 13 2 38.5t1 38.5q0 22 -0.5 47.5t-1.5 56.5t-1 48q-4 99 -38 141q-21 25 -55 42q-30 16 -76 21 q-26 3 -162 6h-55h-65.5h-55.5q-28 0 -83.5 0.5t-82.5 0.5h-95q-61 0 -81 -3q-96 -12 -137 -60q-43 -49 -45 -122q0 -11 -0.5 -23.5t-1.5 -28t-1 -23.5q-1 -14 -1 -42v-42q-1 -14 2 -82t4 -76q12 -78 73 -117q28 -18 68 -25q37 -8 70 -8q57 1 172 -1h80q7 0 15 -9 q6 -7 26 -34q4 -6 11.5 -17.5t11.5 -17.5q1 -1 4.5 -6.5t5.5 -9.5l3.5 -7l4.5 -9t4 -5h12q6 1 18 1q30 0 45 -1q14 0 40.5 0.5t39.5 0.5q9 0 36 1t42 0h37q12 -2 19 -2q19 0 23 -2zM616 174q-101 0 -151 2q-45 0 -64 18q-28 30 -32 52q-2 13 -1.5 36.5t-0.5 37.5v77 q2 45 12 64q13 26 51 41q16 6 37 8.5t35 2.5t40 -0.5t35 -0.5q16 0 49 1t58.5 0.5t48.5 -2.5q49 -4 69 -19q35 -27 39 -56q2 -8 1.5 -36t-0.5 -36q0 -51 -1 -77q-2 -47 -14 -66q-20 -30 -61 -41q-16 -4 -74 -4q-12 0 -37.5 -1t-38.5 -1zM541 190h141h13.5h14.5h13.5t14 1 t12.5 2t13.5 3t12 4.5t12.5 6t12 7.5q8 6 13.5 15.5t8 17t4 21t2 20t0 21.5t-0.5 19v72q0 45 -14 61q-22 26 -56 33q-25 5 -62 5q-26 0 -78 -0.5t-77 -0.5h-17.5h-20t-18 -0.5t-20.5 -2t-17.5 -3.5t-18.5 -5.5t-16 -8.5q-11 -7 -17.5 -16.5t-9 -26t-3.5 -23t0 -29.5v-23 q-1 -16 0 -45.5t1 -38.5q0 -41 21 -63q14 -14 25 -18q6 -3 35 -5h24h28.5h24.5z" glyph-name="q" horiz-adv-x="1231" unicode="q"/><glyph d="M130 2q-10 0 -28 1t-27 1q1 30 1 64t-0.5 75.5t-0.5 63.5l-1 107q0 108 1 108q1 42 0 118t-1 100q0 2 -1 12t-0.5 17t3.5 11q4 8 25 8q0 1 51 0h51h455l222 -3q45 -1 103 -33q34 -17 70 -60q28 -37 36 -108q4 -37 -1 -59q-7 -29 -21 -58q-29 -61 -64 -87 q-43 -32 -101 -39q17 -18 55 -60.5t59 -63.5q42 -42 63 -62q33 -33 43 -51h-268h-67h-26q-16 0 -18 1q-3 1 -8.5 8.5t-6.5 8.5q-16 18 -23 27q-8 9 -21 24.5t-19 22.5q-12 14 -37.5 45.5t-40.5 47.5q-3 3 -21 26l-17 17h-27h-40h-75h-16q-10 0 -11 -5q-1 -9 1 -41 q0 -21 -2 -65q-1 -12 -1 -35t-1 -35q0 -6 -0.5 -17.5t-1.5 -17.5q0 -8 -2 -8q-1 -1 -4 -1q-13 -2 -77 -2q-27 0 -81 -1.5t-81 -1.5zM89 19q7 0 29 -1t34 0h72q12 0 36.5 0.5t36.5 0.5q12 1 35 1h16h8q4 2 5 4q2 5 2 16.5v13.5q1 18 0 35q0 12 1.5 36.5t1.5 36.5v75q0 7 3 9 q2 1 26 1t72.5 -0.5t73.5 -0.5h14q4 -2 14 -15q1 -1 43 -49q10 -12 34.5 -42t38.5 -45q42 -50 44 -53q1 -1 8.5 -11t12.5 -12q2 -1 22 -1q81 3 161 0q31 -1 87 0t73 1q-17 19 -57.5 59.5t-60.5 63.5q-17 18 -50.5 54t-50.5 54q70 16 79 19q48 21 76 57q25 34 42 94 q10 35 -2 99q-5 22 -17 45q-6 14 -31 41q-27 29 -79 50q-36 14 -101 18q-16 1 -34.5 1t-41 -0.5t-34.5 -0.5q-36 0 -219 1.5t-220 -0.5q-86 0 -104 -1q-26 0 -39 1q0 1 -15 0h-14q-26 0 -28 -1q-4 -2 -5 -8t0 -17l1 -11v-40q0 -74 1 -111v-72v-85v-72q0 -86 1 -129 q1 -19 0 -55t-1 -54zM76 35zM465 407h-44h-26q-23 0 -25 1t-4 5q-1 5 -1 18q0 8 0.5 24.5t0.5 25.5v26q2 4 7 4q20 0 30 1h43q6 0 24 1t28 0q36 -2 110 -2q8 0 46.5 1.5t46.5 -0.5q56 -4 64 -48q3 -21 -11.5 -36.5t-36.5 -17.5q-19 -2 -57 0h-68h-63q-63 -3 -64 -3zM380 422 q30 0 90 1t91 1h100q5 0 18 -1t22 -1t19.5 2.5t17.5 7.5q15 12 12 31t-20 27q-18 10 -75 8q-11 -2 -85.5 -0.5t-85.5 1.5q-31 0 -91 -2q-10 0 -11 -1q-2 -1 -2 -10v-14v-50z" glyph-name="r" horiz-adv-x="1206" unicode="r"/><glyph d="M392 -1q-21 0 -64.5 2.5t-65.5 2.5t-66 -0.5t-66 -0.5h-30q-6 5 -6 7q0 7 -1 20.5t-1.5 24t-0.5 20.5q1 41 1 124q88 0 262 -2q22 0 65 -1t64 -1q14 0 58.5 -0.5t67.5 -1.5q7 0 30 -1t35 0q37 0 58 7q11 3 18.5 13.5t3.5 21.5q-1 4 -5.5 6.5t-11.5 4t-12.5 2t-13 1 t-9.5 0.5q-44 3 -265 3q-66 0 -132 3q-68 4 -111 21q-56 23 -86 64q-9 12 -23 54q-8 23 -11 53q-6 59 19 115q26 58 86 90q51 27 118 34q22 2 67 0q24 -1 74 -1q16 0 57.5 -1.5t63.5 -0.5q14 0 39 1t45.5 1.5t38.5 0.5q115 0 129 1q7 3 60 1t60 -2q44 0 65 1q4 0 12 0.5 t12 0.5h7q2 -1 4 -4q1 -3 1 -8t-0.5 -11t-0.5 -9q0 -24 -1 -36q0 -48 1 -71v-34v-18q-1 -1 -15 -1q-6 0 -17 -0.5t-17 -0.5q-22 0 -67.5 -0.5t-68.5 -0.5q-22 0 -67 0.5t-68 0.5q-70 0 -105 2h-31t-31 1q-28 3 -56 0l-27 -3h-16.5t-16.5 -1q-12 -3 -19.5 -14t0.5 -22 q6 -6 24 -6q6 0 18 0.5t17 0.5q11 0 32.5 -0.5t32.5 -1.5q14 -2 64.5 -1.5t64.5 0.5q40 -1 125 -7h49.5t67.5 -5q66 -14 114 -53t61 -100q13 -60 1 -122q-13 -55 -65 -104q-45 -43 -104 -54q-7 -1 -65 -1q-22 0 -62 2q-66 1 -132 0h-71.5t-71.5 -1q-1 0 -24 -1t-34 -2 q-19 -2 -59 -2zM291 19q19 0 58 -3t59 -3q8 1 24.5 2t24.5 1q11 1 30 1.5t25 0.5q24 2 69 2h55h131q76 -2 114 -2q61 0 107 34q50 39 69 85q18 41 14 105q-4 69 -38 107q-39 46 -98 65q-45 14 -124 14q-21 0 -59.5 3t-54.5 3h-117q-21 0 -63 1.5t-64 1.5q-41 0 -51 7 q-10 8 -11 22t7 23q13 19 43 19q10 -1 52 4q17 2 52 0q12 -1 33.5 -1.5t28.5 -0.5q18 -1 104 -1l123 -1q123 -2 123 1q19 1 60 1q-1 27 0 81t0 81q-38 -1 -144 -0.5t-144 -1.5q-9 0 -33 0.5t-34 -0.5q-24 -1 -71 -1q-120 0 -144 1h-24h-28.5h-24.5q-54 2 -69 1 q-76 -8 -132 -42q-59 -35 -75 -109t9 -136q13 -35 33 -54q25 -22 48 -34q43 -24 129 -28q50 -2 300 -2q2 0 74 -3q47 -2 63 -8q23 -8 18 -36q-5 -29 -44 -37q-31 -6 -68 -4h-34h-35q-120 2 -144 4q-53 3 -154.5 2t-154.5 1h-20q-6 0 -6.5 -1.5t-0.5 -8.5v-39q0 -9 -1 -37 t0 -43q0 -28 2 -34q1 -4 10 -4h22h80q11 0 35 0.5t36 0.5z" glyph-name="s" horiz-adv-x="1175" unicode="s"/><glyph d="M387 2q-12 0 -13 2v18q0 8 -0.5 22t-1 25.5t-1.5 21.5q-4 46 0 139q1 21 1 130v71q0 7 -0.5 20t-0.5 24t1 20q-8 1 -97 1q-101 0 -114 -1q-60 -4 -103 -1q-17 3 -18 5q-2 4 -2 18q-1 8 -1 27q0 16 -1 48t-1 48q2 14 2 21v19q3 8 24 5q40 -2 97 1q15 2 59 1t59 -1 q19 0 56 -1.5t55 -1.5q16 0 48 1.5t48 1.5q18 1 50.5 0t43.5 -1h115q36 0 108 0.5t109 0.5q18 -1 54 -1q20 0 29 -1h21q1 -1 1 -15q-1 -9 -1 -53v-60v-33q0 -17 -1 -20q-1 -4 -5.5 -5.5t-8.5 -1t-10 1t-8 0.5h-66q-34 0 -114.5 -2t-124.5 -1q0 -35 1 -143.5t0 -167.5 q-2 -132 -1 -158q2 -14 -1 -20q-2 -3 -16 -3q-16 1 -45 0t-38 -1h-188zM322 511q34 0 51 -2q12 0 14 -2q1 -1 0.5 -6t-1.5 -7q-1 -19 0.5 -57.5t0.5 -57.5q-1 -9 0 -57t1 -58q0 -20 -2 -59t-2 -58q0 -22 2 -65.5t2 -65.5q47 1 142 1q47 0 70 -1q10 0 31 1t31 1q1 5 0 16 t-1 14q0 7 -0.5 21t-0.5 21q0 58 1 88q3 79 1 179v39t-1 40v44q0 28 1 29q2 1 19 1q30 -2 46 -1q13 0 38 1t37 1q17 0 51.5 0.5t52.5 0.5q82 0 92 -1v78v37q0 2 0.5 8t0.5 9q0 2 0.5 7.5t0.5 10t-1 6.5l1 1q0 1 -1 2h-11h-18q-27 0 -41 1h-82q-40 2 -151 0.5t-151 -1.5 q-12 0 -36 1t-36 1q-66 -3 -68 -3q-29 -1 -82.5 0.5t-74.5 1.5q-9 0 -36.5 1t-42.5 0q-78 -3 -79 -3h-20q-11 3 -14 2h-3q0 -1 -1 -3l-1 -8q0 -3 -0.5 -8.5t-0.5 -7.5q-1 -13 0 -36t1 -30v-40q1 -4 1.5 -11.5t0.5 -11.5q0 -5 1 -5.5t7 -0.5q28 -2 82 0q10 0 28 1t33 1.5 t28 0.5q30 -1 90 -1zM62 671z" glyph-name="t" horiz-adv-x="1069" unicode="t"/><glyph d="M584 -1q-18 0 -52 1.5t-51 1.5h-114q-45 0 -54 -1q-22 -3 -50 -1q-17 2 -43 8q-33 9 -51 21q-57 40 -73 78q-11 26 -17 50q-2 10 -2 61q0 34 -2 104q0 6 -2 48t1 47q3 26 3 105q0 9 -1 27t-1 28v48q-4 28 0 42q3 12 5 13h22q75 0 112 2q9 1 25.5 0t21.5 -1q23 -1 50 2 q15 2 45 2q12 -1 16.5 -5t5.5 -15v-126q0 -19 0.5 -56t0.5 -56v-83q0 -38 1 -57q0 -40 3 -51q4 -13 30 -30q22 -14 57 -14h49q49 -1 49 0q33 0 49 2q11 1 30.5 -0.5t25.5 -1.5q28 0 47 5q35 9 45 18q21 18 21 89q-1 43 -1 129q0 39 -1 116t-1 115q0 21 9 23l18 3 q11 0 30.5 -1.5t30.5 -1.5h61q10 0 28 -1t27 -1q8 0 25.5 -1t26.5 -1h25q22 0 23 -1q2 -2 2 -30v-57q0 -70 -1 -105q-2 -33 0 -97.5t1 -94.5v-101q0 -32 -4 -48q-4 -19 -22 -50q-49 -92 -177 -99h-126h-93q-13 0 -41 -0.5t-42 -0.5zM549 14h174h117q63 0 107 11q52 14 83 52 q36 42 43 82q2 16 2 48q0 40 -1 48v42q1 19 1 58q0 13 -1 39t-1 39q0 15 1 45t1 45v115v22q0 7 -1 9h-15h-50q-48 4 -106 4h-55q-6 0 -17 1t-16 1h-8l-3 -1h-4l-2 -1v-5v-28v-23q2 -18 2 -110v-117q0 -102 -2 -117q-3 -23 -5 -33.5t-11 -25t-24 -21.5q-31 -15 -90 -15 q-4 0 -26 1t-27 0q-11 -1 -31 -1.5t-26 -0.5q-31 -1 -93 1q-29 0 -50 10q-31 18 -41 33q-4 6 -9 43v51v91q0 15 -1 45.5t-1 46.5v116v32v24h-25q-15 0 -23 -1q-25 -3 -92 -1q-8 0 -23.5 -1t-23.5 -1h-61h-22q-5 -2 -6 -8v-12q0 -2 1.5 -18.5t1.5 -24.5q0 -18 1 -53t1 -52 q0 -40 -5 -90q-1 -17 1 -48.5t2 -42.5q0 -18 1 -52.5t1 -51.5q0 -44 1 -49q2 -16 15 -49q16 -37 65 -71q22 -15 45 -21q28 -6 43 -8q4 -3 42.5 -1t43.5 2h110h51q7 0 20.5 -1t20.5 -1zM547 14zM1041 90zM319 670v0v0z" glyph-name="u" horiz-adv-x="1179" unicode="u"/><glyph d="M485 -1q-17 0 -22 7q-4 6 -11.5 17t-10.5 15q-6 8 -42 71q-11 19 -22 34q-2 3 -15 26q-8 13 -51 74q-11 17 -42 67q-5 9 -19.5 36.5t-23.5 41.5q-17 26 -46 74.5t-42 68.5q-36 54 -60 86q-30 41 -43 70q24 0 72.5 -1t72.5 -1q10 0 28 1t28 1h94h44q23 0 25 -1t17 -27 q10 -18 22 -38q29 -40 46 -69q6 -11 19.5 -36t21.5 -38q32 -52 49 -78q20 -30 30 -46q23 -32 28 -44q37 54 100 158t78 127q7 11 21 36t22 37t12 14q5 3 33 3h170q83 2 151 -1q-3 -14 -9.5 -26.5t-20.5 -32t-17 -23.5q-11 -16 -32 -49.5t-31 -50.5q-12 -18 -30.5 -52 t-22.5 -41q-20 -33 -60 -97l-57 -87q-18 -30 -56 -88q-5 -7 -26 -40.5t-33 -49.5l-15 -21q0 -1 -5 -9t-8 -11q-6 -5 -35 -5q-6 -1 -34 0t-33 1h-72h-66h-36q-5 0 -17 -1.5t-18 -1.5zM474 14q10 0 29 1t28 1h59h114q6 0 26 -1t31 0h11t13 2q4 2 9.5 12t6.5 11q6 9 52 79 q19 28 55.5 85t55.5 85q41 62 104 174q23 41 72 115.5t59 91.5q-155 2 -311 0q-17 0 -23 -9q-4 -6 -11 -18.5t-10 -18.5q-19 -34 -45 -73q-17 -26 -47.5 -77.5t-36.5 -61.5q-38 -63 -49 -78q-24 -38 -37 -48q-6 9 -17 28t-17 28q-34 50 -43 68q-7 13 -23.5 38t-24.5 38 q-2 4 -17.5 31.5t-24.5 41.5q-9 12 -24.5 36.5t-18.5 28.5q-4 6 -10 17.5t-9 16.5q-4 11 -11 15h-22q-107 0 -161 -2q-28 -1 -80 0.5t-69 1.5q8 -14 25.5 -37.5t20.5 -28.5q10 -13 48 -70q11 -16 81 -131q10 -17 35 -62.5t41 -69.5l45 -66q14 -20 20 -30q3 -4 7 -12t6 -11 q30 -42 43 -68q30 -56 45 -73z" glyph-name="v" horiz-adv-x="1276" unicode="v"/><glyph d="M1125 -3h-56q-14 0 -20 1q-16 2 -54 2q-5 0 -14 -0.5t-14 -0.5q-31 0 -34 1q-5 2 -9.5 8.5t-9 17t-5.5 13.5q-19 39 -59 117q-6 11 -14.5 32t-11.5 28q-5 13 -36 72q-2 -6 -44 -98q-26 -60 -40 -89q-9 -17 -27 -53q-2 -4 -6.5 -14t-8.5 -18t-9 -13q-3 -4 -29 -4l-56 3 h-103q-15 0 -43 -1t-42 -1q-25 0 -29 5q-6 6 -19 37q-8 17 -22.5 50t-22.5 49q-32 65 -90.5 199t-89.5 199q-35 74 -45 94q-21 38 -21 44q0 5 3 7q2 1 18 1q46 0 54 1t23.5 0t20.5 -1h92q6 0 54.5 2t54.5 -1q13 -2 16 -5q3 -2 11 -19q2 -5 12 -26t15 -33q15 -38 47.5 -108 t46.5 -102q5 11 14.5 32t17.5 38t16 32q8 17 21.5 48.5t19.5 43.5q10 21 22 49q1 3 4.5 13t7 17t7.5 11t22 4h42q20 -2 103 0t102 2h22q10 -1 15 -15q4 -8 12.5 -27.5t13.5 -29.5q41 -84 100 -219q44 94 66 142q7 15 20 43t14 31q5 11 13 33q1 2 7.5 18.5t11.5 22.5q3 4 9 5 h13h15.5h12.5q12 0 37.5 -1t38.5 -1q31 0 86.5 -2.5t77.5 -2.5h34q12 -3 8 -12q-3 -9 -7.5 -19t-10.5 -22t-9 -19q-35 -77 -65 -148q-10 -23 -21.5 -48.5t-25.5 -56.5t-22 -48q-6 -13 -28.5 -66.5t-38.5 -81.5q-7 -14 -20.5 -40t-17.5 -34q-8 -13 -19 -39.5t-17 -37.5 q-2 -4 -4 -6t-3.5 -2h-8.5h-17q-27 0 -40 -1q-1 0 -10.5 1t-16.5 0.5t-8 -3.5zM1058 12q16 0 47.5 1t46.5 1h46h22q1 1 10 19q6 16 10 24q9 24 18 39q46 86 84 174q12 27 41.5 91.5t44.5 99.5q15 34 45.5 102t45.5 103q-77 0 -115 4q-20 1 -61.5 0.5t-62.5 0.5q-38 2 -59 2 q-5 0 -8 -3l-7 -14q-8 -20 -12 -29q-9 -22 -26.5 -61t-22.5 -50q-16 -35 -48 -103q-1 -3 -4 -10.5t-5.5 -13.5t-6.5 -11.5t-8 -6.5q-3 -1 -5 0t-4 3.5t-3 4t-2.5 5t-1.5 4.5q-45 103 -99 217q-7 14 -19 42q-10 21 -11 21q-2 1 -7 1t-10.5 -0.5t-7.5 -0.5h-66q-19 0 -59 -1 t-60 -1q-5 0 -21.5 1t-25.5 0q-20 0 -22 -1t-4 -5.5t-4 -10.5t-3 -8q-7 -17 -24 -55t-26 -59q-24 -56 -48 -104q-9 -15 -14 -29q-1 -2 -3.5 -7.5t-4.5 -9.5t-6 -5q-3 -2 -5.5 -1t-4 1.5t-3 4t-2 5t-2 5t-1.5 4.5q-8 18 -24.5 55t-24.5 55q-9 20 -49 109q-8 18 -13 27 q-12 27 -14 29q-3 3 -9.5 5t-12.5 2t-15 -0.5t-11 -0.5q-12 0 -41.5 -1.5t-45.5 -0.5h-62q-9 -1 -26 0t-25 1q-12 -1 -33.5 -1.5t-28.5 -0.5q23 -46 62.5 -131.5t52.5 -112.5q20 -41 56 -125q5 -11 15.5 -33t15.5 -33q3 -7 8.5 -20t10 -23.5t8.5 -19.5l15.5 -31t15.5 -32 q4 -10 13.5 -32t14.5 -33q7 -17 12 -24q3 -5 7 -6h18q47 0 60 2q8 1 23 1h23h71q66 -3 68 -3h14q2 1 5 7t3 7q3 5 5.5 10.5t6 12.5l5.5 11l63 132q4 8 11 22.5t12.5 26.5t9.5 23q2 5 6.5 16t8.5 18.5t10 13.5q5 -7 22 -38q3 -7 14 -28t16 -33q4 -10 47 -102q4 -8 13 -25 t13 -26l6.5 -13t6.5 -14q0 -1 4 -10t7 -11q2 -2 8.5 -2t15 1t9.5 1h26h35q23 0 26 -2z" glyph-name="w" horiz-adv-x="1613" unicode="w"/><glyph d="M528 -1h-458q63 51 170 129q7 5 21 17q4 4 13 9.5t12 7.5q8 6 23.5 17t22.5 17q11 9 44 33t49 39q20 16 59 44.5t56 42.5q-10 10 -29.5 23t-26.5 19q-11 9 -53 40q-36 25 -57 45q-9 8 -27 21t-25 19q-88 69 -113 85q-18 12 -52 40q-3 4 -11 10l-12 9q-4 4 -8 18 q10 1 29 0t25 -1q27 0 77 2h19.5h22.5h19q50 -2 76 -2q46 0 68 2q16 2 49 0q5 0 17 1.5t21 1t16 -3.5q10 -4 20 -12.5t22 -19.5t18 -16q58 -45 127 -102q8 -6 13 -11q1 -1 3 -2t3 -2h6q1 0 14 10q12 10 19 15q54 43 58 46q6 5 27.5 23t33.5 28l30 24q3 2 7.5 6.5t9 8 t8.5 4.5q3 1 22 1h36q12 0 35 -1t34 -1q36 0 101.5 1.5t119 1.5t101.5 -3q-43 -40 -149 -125q-5 -4 -19.5 -14.5t-21.5 -16.5q-2 -2 -7 -5.5t-8 -5.5q-4 -3 -10 -9l-8 -8q-12 -11 -94 -72q-15 -11 -100 -78q36 -26 115 -84t122 -88q40 -28 116 -90q83 -67 96 -80 q-22 -7 -100 -7h-126h-113q-16 -1 -100 -1q-12 1 -22 9q-23 17 -41 33q-46 43 -83 68q-16 11 -43.5 34t-38.5 31q-16 13 -20 15q-2 1 -3 2t-2 0q-2 -1 -3 -2q-4 -1 -11 -8q-24 -18 -40 -32q-77 -64 -91 -75q-23 -19 -57 -43q-5 -4 -20 -15t-23 -17zM1021 14h79h99 q21 0 73 -1t89.5 -0.5t72.5 3.5q-15 12 -44.5 36t-44.5 36q-6 5 -44 33q-42 34 -44 35q-21 14 -80.5 58.5t-93.5 67.5q-8 6 -23 17t-20 15t-18 12.5t-19 13.5q-11 10 4 21q9 7 48 38q60 46 91 68q38 29 73 61q5 5 42 31l45 36q9 8 41.5 34t49.5 41q-115 2 -138 1 q-22 -1 -46.5 -1.5t-55 -1t-46.5 -0.5q-9 0 -19.5 0.5t-23.5 1.5t-20 1h-31q-27 0 -32 -3q-9 -6 -53 -45q-7 -6 -25 -20.5t-28 -22.5t-30 -23t-23 -18q-18 -14 -26 -21q-2 -1 -10.5 -9t-12.5 -9q-3 -1 -7 0.5t-8.5 5.5t-8.5 7t-8.5 7.5l-5.5 5.5q-11 9 -33 26.5t-26 20.5 q-36 30 -54 44q-8 6 -27 22.5t-30 24.5q-8 5 -15.5 7t-23 1t-16.5 -1q-5 0 -14.5 1t-14.5 1t-16 -1t-17 -1q-46 -2 -70 -2q-25 0 -75 2q-23 1 -75 -2t-79 0q10 -8 28.5 -23t20.5 -17q9 -7 26.5 -19t24.5 -18q23 -18 55 -41q6 -4 24.5 -19.5t28.5 -22.5q9 -6 25 -20t25 -20 q9 -7 27.5 -20t27.5 -19l26 -19.5t28 -20.5q19 -13 42 -36q-17 -14 -54 -40.5t-55 -41.5t-56 -43.5t-56 -43.5q-30 -25 -59 -43q-10 -7 -28 -21t-25 -19q-10 -8 -118 -88h234h116h58q6 0 13.5 4.5t16.5 13t12 10.5q66 48 152 121q38 30 41 32q17 14 23 12q3 -1 20 -14 q3 -2 9.5 -7t9.5 -8q6 -4 12.5 -9.5t14.5 -12.5t12 -11q32 -22 47 -33q6 -4 18 -15.5t20 -16.5q12 -8 38 -32t43 -34zM1286 673z" glyph-name="x" horiz-adv-x="1549" unicode="x"/><glyph d="M665 -3h-54q-13 0 -18 1q-7 1 -25 1q-26 0 -30 2q-4 1 -6 5.5t-2.5 7.5t0 10t0.5 8v43q0 12 1 49.5t0 58.5q0 5 -0.5 14.5t-0.5 14.5q0 19 -7 26q-8 8 -25.5 20.5t-20.5 15.5q-24 21 -47 44q-3 3 -8.5 9.5t-8.5 9.5q-5 5 -14 11.5t-12 9.5q-29 26 -85.5 76.5t-84.5 76.5 q-73 68 -98 89q-58 50 -84 76q8 4 16.5 5.5t20.5 1.5t18 1q14 1 82 1h86q5 0 19 1.5t21 0.5q4 0 13.5 -1t14.5 -1h82h41q18 0 22 -3q3 -2 29 -28q10 -11 30 -31q30 -31 61 -61q38 -36 58 -53q23 -20 31 -24q2 -1 3 -2t2 0t3 2q1 1 3.5 3t3.5 3l15 15q85 85 110 108 q6 6 17 16.5t20.5 19t17.5 16.5q2 2 5 5.5t6 6.5t6 5q4 2 8 2t9.5 -1t8.5 -1q4 -1 25 2q24 2 35 2q13 0 38.5 -1t37.5 -1q31 0 128.5 1.5t150.5 0.5q-8 -11 -18 -21t-23.5 -22t-20.5 -19q-27 -28 -85 -82q-81 -78 -152 -134q-14 -10 -28 -22.5t-32 -29.5t-27 -25 q-74 -68 -88 -81l-22 -19q-3 -4 -3 -23v-65v-123q0 -11 -2 -15.5t-12 -5.5h-51q-9 0 -25 1t-25 1q-20 0 -31 -1q-22 0 -23 -4zM602 12q23 0 70 2t71 2q8 0 24.5 -1t24.5 -1h24q3 2 3 6v10v134q0 11 0.5 32.5t0.5 31.5q0 5 3 9.5t5 7t8.5 7t7.5 5.5q21 18 92 84q65 61 91 81 q69 57 84 70q51 46 85 81q1 1 52 49l16 16l18.5 18.5l16.5 16.5q-42 0 -127.5 -1t-128.5 -1q-11 0 -31 1t-31 1q-18 0 -56 -4q-3 0 -14.5 1.5t-12.5 -1.5l-5.5 -5.5l-6.5 -6.5l-11 -11q-8 -8 -17.5 -17t-21 -19.5t-17.5 -16.5q-34 -31 -99 -98q-4 -4 -12 -11.5t-12 -10.5 q-5 -5 -8 -7q-2 -1 -7 1q-8 3 -27 19q-5 4 -13 11t-9 8q-47 41 -114 110q-4 5 -13 13.5t-14 12.5q-4 5 -12 13l-16 16q-7 3 -31 0h-41q-63 0 -75 1h-78q-15 0 -44.5 -0.5t-44.5 -0.5q-14 0 -42.5 -1t-42.5 -1q14 -11 38.5 -33.5t36.5 -31.5q15 -12 65 -60q13 -12 39.5 -35.5 t38.5 -34.5q7 -6 29.5 -27t35.5 -31q10 -8 31 -28t33 -30q13 -10 35 -33t33 -32l39 -30q2 -2 7 -6t7.5 -7t6.5 -7t5.5 -8.5t1.5 -9.5q0 -8 0.5 -38t-1.5 -38q-1 -10 -1 -88v-28v-12l1 -5q1 0 4 -1h26q23 0 27 -2z" glyph-name="y" horiz-adv-x="1388" unicode="y"/><glyph d="M214 -3h-19h-14q-4 2 -5 2h-51h-25q-16 0 -19 1q-7 4 -7 27v53q0 15 -2 47q-3 31 -1 41q2 5 6.5 9t12.5 8l10 5q9 5 24 14t19 11q5 3 39 21t50 30l159 105q44 26 94 60q9 6 43 27.5t51 34.5h-122q-20 -2 -43 -2t-51 1t-43 1q-20 0 -61.5 -1.5t-62.5 -1.5q-44 0 -66 1 q-3 0 -9.5 -1.5t-11 -1t-7.5 4.5q-3 3 -3 16q-2 21 -1 31q1 11 -0.5 31t-1.5 29q2 19 2 58q0 22 8 26q3 1 21 1h34q20 0 30 1q6 1 16 0t13 -1q10 0 31 1t31 1q23 0 67 -2q46 -1 130 0.5t117 1.5q32 0 98 -1t98 -1h104h74q53 0 59 -1q5 -1 12 -0.5t14 -0.5t9 -4q3 -4 3 -24 q0 -26 -1 -39q-4 -39 -1 -65q3 -23 1 -28q-1 -4 -8 -9q-10 -6 -27.5 -19t-21.5 -16q-6 -5 -53 -33q-19 -12 -55.5 -37.5t-55.5 -37.5q-6 -4 -18 -11t-21.5 -13t-17.5 -12q-9 -7 -27.5 -20t-27.5 -19q-14 -10 -114 -70q-11 -6 -28.5 -19.5t-21.5 -16.5h190q25 0 75 2t75 2h96 h44h32q7 -3 7 -18q0 -7 2 -21q1 -6 1 -13t-0.5 -16t-0.5 -14q0 -6 -1 -18t-1 -19q0 -31 -1 -46q0 -1 0.5 -7t0.5 -9t-2 -7t-5 -6q-6 -3 -32 0h-51q-14 0 -41 1t-41 1q-12 0 -34.5 -1t-33.5 -1h-95h-161h-103q-71 -2 -97 1q-7 1 -19.5 0t-16.5 -1q-7 0 -23 0.5t-24 0.5 q-8 -1 -49 -1q-1 0 -9.5 0.5t-15 0.5t-13.5 -1t-8 -3zM184 12q18 0 64 2.5t71 1.5q24 -2 37 -2q5 0 15.5 1.5t15.5 0.5q18 -2 79 -2q143 0 183 2q15 1 43 -0.5t39 -1.5h93l76 2q77 1 77 -2h44h23h29v21v25v38q3 39 3 41q0 3 -1 7.5t-1 6.5q0 1 0.5 13t-1.5 12q-1 2 -8 2 q-16 0 -46 -0.5t-45 -0.5h-85q-47 -3 -188 -3q-113 -2 -170 1q12 11 25 21.5t29.5 21.5t27 17.5t31 19t28.5 17.5q19 11 88 59q17 11 47.5 30.5t38.5 24.5q14 10 41.5 29t41.5 29q11 7 40 24t43 28q3 3 8.5 8t8.5 7q1 1 10 6t12 8q2 3 -1 22v28q0 16 2 50v28v13q-1 1 -7.5 1 h-9.5q-31 3 -64 3.5t-78.5 -0.5t-63.5 -1h-99h-196h-89h-104q-9 1 -55.5 0t-55.5 -1q-10 0 -28.5 0.5t-27.5 0.5h-32q-23 0 -25 -1t-4 -1v-3v-7v-20q0 -8 -1 -24t-1 -23q0 -5 1 -16.5t1 -17.5v-54q8 2 18.5 2.5t23 -0.5t18.5 -1h72q9 0 27 1t27 1h74q24 0 73.5 1t88 1 t73.5 -3q-1 -1 -4 -7t-5 -9q-2 -2 -41 -29q-62 -40 -70 -46q-25 -18 -78 -49t-77 -49l-33 -22t-41 -28q-27 -19 -62 -38q-37 -21 -80 -47q-11 -5 -19 -10q-11 -8 -12 -12q-3 -11 2 -44q1 -13 0.5 -47t-0.5 -47q0 -3 0.5 -5t2 -2.5t3 -0.5h4.5h5h27h29q22 0 25 -2z" glyph-name="z" horiz-adv-x="1180" unicode="z"/><glyph d="M406 -207h-55q-38 3 -45 4q-40 7 -51 14q-36 20 -53 36q-36 35 -61 97q-20 51 -25 111q-3 34 -3 134v34q0 23 -1 24q-4 5 -17.5 5.5t-17.5 4.5q-3 3 -3 26v37v71q0 2 -0.5 9t-0.5 11.5t2 9.5t5 7q4 3 10.5 4.5t11 2.5t8 5t3.5 11v137q0 65 10 102q41 142 133 184 q33 15 111 15q14 0 39.5 1t46 1.5t38.5 0.5h29q22 0 28 -3q5 -3 7 -9t2 -11.5t-0.5 -14.5t-0.5 -12q2 -93 0 -139v-8t-0.5 -8l-1.5 -6t-3 -6t-5.5 -3.5t-8.5 -1.5q-51 -3 -58 -4q-74 -12 -78 -64q-2 -32 -2 -95q0 -7 0.5 -28.5t0.5 -33t-2.5 -28t-8.5 -29.5q-13 -26 -38 -43 q19 -10 38 -32q12 -17 12 -55q0 -16 -1 -49t-1 -50q0 -8 -1 -29t-0.5 -36t3.5 -28q12 -51 81 -51q5 0 26.5 -1.5t26.5 0.5q19 0 21 -2q1 -1 1.5 -3t0.5 -3q1 -7 1 -44q0 -91 -1 -136v-6.5v-7.5v-6q-2 -9 -29 -9q-9 0 -28 -1t-28 -1h-39q-5 0 -14.5 -1t-13.5 -1zM346 -193z M348 -192q16 0 47 0.5t47 0.5h30t30 1q2 0 12.5 0.5t19.5 1t10 1.5v24v37v77v32v11v5h-12q-9 -1 -24.5 0t-20.5 1q-34 0 -50 7q-50 21 -52 73v28.5v34.5v29q0 12 1.5 49t0.5 57q-1 12 -8 23t-13.5 16t-21.5 14.5t-19 12.5q18 13 26 20.5t18 21.5t13 30q3 15 3.5 31 t-0.5 38.5t-1 31.5q1 18 1 52t4 48q15 51 79 62q22 5 52 5h13q6 0 6.5 1t1.5 7q0 6 0.5 17.5t0.5 17.5v131q0 14 -1 15q-1 4 -8 4h-31q-9 0 -27 -1t-27 -1h-56t-70 -2q-25 -2 -45 -7q-23 -6 -52 -28q-38 -30 -61 -78q-24 -52 -32 -100q-4 -23 -4 -109v-65q0 -42 -2 -48 q-4 -13 -26 -19q-1 0 -5.5 -1t-5.5 -2v-16v-37v-66q0 -28 1 -29q2 -2 9 -2.5t8 -0.5q21 -6 21 -22v-61v-33v-36.5t1 -31.5t2.5 -35.5t4.5 -31t8 -35t11 -31.5q23 -58 57 -90q5 -5 44 -31q7 -4 14.5 -6.5t18 -5t15.5 -3.5q12 -3 25 -3q3 0 9.5 -0.5t9.5 -0.5zM309 886z" glyph-name="braceleft" horiz-adv-x="627" unicode="{"/><glyph d="M83 -151h-12q-1 1 -1 14v58q2 76 1 114q0 29 -0.5 87t-0.5 87q0 41 1 123.5t1 123.5q0 22 0.5 64t0.5 63q-2 86 -2 128q-2 57 0 115q0 18 1 22q2 5 3 5h4q5 1 44 1q11 0 31.5 -1t30.5 -2q13 -1 35 0t29 1q11 0 32 0.5t31 0.5q45 0 51 -2q5 -2 7.5 -6.5t3 -7.5t0 -10.5 t-0.5 -9.5v-61q0 -18 -0.5 -56t-0.5 -57q0 -21 1 -63t1 -64v-114q-2 -170 -4 -255q-1 -43 1 -127t2 -126v-45q-43 3 -91.5 3t-107.5 -1.5t-91 -1.5zM86 839q-2 -6 -2 -46.5v-46.5q0 -50 3 -101q1 -17 0 -104t-1 -105q0 -36 -1 -109t-1 -110q0 -25 0.5 -73t0.5 -73 q0 -30 -0.5 -104t0.5 -104q23 1 69 1t69 1q31 3 69 1h33t33 -1q0 458 1 515q2 162 -1 243q-1 18 -1 38t0.5 45t0.5 38q0 42 1 64v20q0 9 -2 9q-2 1 -4 1h-34h-36q-49 0 -73 -1q-11 0 -73 2h-51zM359 839z" glyph-name="bar" horiz-adv-x="441" unicode="|"/><glyph d="M247 -197q-30 0 -92 2q-14 0 -42 2h-21h-18q-1 1 -1 26q0 36 -1 54q-1 34 -1 104q0 3 0.5 10t0.5 11q0 10 1 10q1 1 25 1q7 1 22.5 1t22.5 1q29 0 39 3q46 15 49 57v99q0 16 -1 50t-1 50q2 47 51 71q-46 29 -48 95q0 86 -1 129q0 43 -10 60q-15 26 -44 32q-25 7 -46 8 q-4 0 -15.5 -1t-20.5 -0.5t-14 3.5t-5 13q0 6 -1 18t-1 18v53v52v33q0 24 1 26q2 3 6.5 5t11 3t11.5 1t12 -0.5t8 -0.5q9 0 27 -1t27 -1q116 -3 131 -4q35 -2 49 -6q22 -7 50 -26q47 -34 75 -96q25 -58 32 -112q3 -18 3.5 -38t-0.5 -47.5t-1 -38.5v-62q0 -19 6 -23 q4 -3 14 -5t14 -4q4 -3 5 -6q1 -2 1 -25q0 -46 -1 -69q0 -53 1 -63q0 -9 -2 -10q-2 -2 -6 -2.5t-9 -0.5h-7q-15 -5 -16 -9t-1 -10t0.5 -14t0.5 -11v-69q0 -79 -6 -118q-8 -51 -36 -107q-28 -55 -71 -85q-32 -23 -46 -27q-28 -7 -52 -7q-40 -2 -59 -2zM101 -179q10 0 29.5 -1 t29.5 -1q48 0 58 -1q66 -6 112 5q2 0 13 1.5t16 3.5q9 4 27 16q28 18 41 32q32 37 55 99q8 23 13 47t6.5 53.5t2 47.5t0 54t-0.5 49q0 2 -1 12.5t0 17t5 10.5q6 6 23 10q12 2 12 3q1 2 0 9l-1 8q1 12 1 35.5t1 35.5q0 24 -1 36v13q0 7 -1 9t-7 3q-17 5 -23.5 12t-7.5 24v61 q0 105 -2 125q-4 51 -32 114q-14 29 -29 50q-17 23 -48 43q-29 19 -49 21q-35 4 -50 5q-23 3 -65.5 2.5t-65.5 0.5q-51 2 -66 1q-5 0 -7 -3v-4v-7v-5q-1 -12 -1 -36q0 -94 1 -112v-8.5t0.5 -11.5t2.5 -6h20q27 0 56 -6q70 -15 76 -74q2 -26 2 -74v-59q0 -4 0.5 -29t4.5 -37 q7 -19 25 -38q4 -4 33 -25q-19 -9 -30 -15.5t-22.5 -20t-12.5 -29.5q-2 -14 0 -72t2 -72q0 -57 -3 -71q-5 -30 -37 -49q-19 -11 -62 -13q-6 0 -18 -0.5t-18 -0.5h-18h-3q-1 -1 -1 -9q-2 -14 -0.5 -89t1.5 -90h14z" glyph-name="braceright" horiz-adv-x="629" unicode="}"/><glyph d="M581 158q-20 0 -98 17q-17 4 -49 12t-37 9l-42 9q-27 5 -34 2q-18 -8 -30 -26q-1 -2 -3.5 -6.5t-5 -8t-5.5 -4.5q-7 -3 -45 6q-10 3 -50 10q-32 7 -84 22q-20 4 -24 13q-1 9 -0.5 12.5t5 15t4.5 12.5q12 46 39 85q22 30 74 61q41 25 89 29q39 2 97 -10q68 -14 102 -23 q68 -18 88 -14q19 3 31 23q13 23 23 24q3 0 6 -0.5t6.5 -1.5t5.5 -1q7 -2 21 -4t44 -10q37 -12 86 -22q20 -4 21 -15q0 -5 -2 -12.5t-6 -17t-5 -11.5q-3 -8 -9.5 -29.5t-12 -35.5t-14.5 -26q-62 -84 -186 -84zM331 224q9 0 25 -3.5t21 -4.5q10 -2 30 -7.5t30 -7.5 q16 -3 57 -13.5t64 -13.5q15 -2 56 2q36 3 60 13q62 25 86 70q6 10 21 55q3 11 10 30t10 28q-9 4 -28 7t-23 4q-10 3 -28.5 8.5t-24.5 7.5q-10 3 -28.5 6.5t-23.5 4.5q-1 0 -8.5 2.5t-10.5 0.5q-3 -1 -6 -6t-6 -11l-4 -8q-15 -22 -46.5 -22.5t-54.5 8.5q-64 16 -107 26 q-82 15 -113 13q-51 -3 -107 -40q-31 -22 -41 -35q-16 -17 -28 -45q-10 -19 -19 -53q-7 -19 -4 -22q2 -2 7.5 -4t12 -3t8.5 -2q14 -4 123 -28q26 -7 30 -5q3 1 7.5 9.5t4.5 9.5q23 29 48 29z" glyph-name="asciitilde" horiz-adv-x="895" unicode="~"/><glyph d="M369 -57q-7 0 -9 1l-2 5v42v79h-82q-51 0 -77 6q-36 9 -68 31.5t-46 53.5q-10 23 -10 75q0 25 -2 73q-2 97 0 128q6 85 42 121q50 50 129 50q29 0 85 2q9 0 13 1h16v17v22v40q0 26 3 30q6 6 19 6q1 0 17 -1.5t24 -1.5h96h46q24 3 30 -3q3 -3 4 -10.5t0 -19.5t-1 -13 q0 -11 -0.5 -34t-0.5 -34q26 1 78 1h57q96 -10 136 -80q17 -28 17 -79v-45q0 -13 -12 -14h-76h-98q-12 0 -36 -2q-8 0 -10 2t-4 11q-10 48 -51 52q0 -30 -1.5 -107.5t-0.5 -119.5q18 1 33 15t20 31q3 15 9 17q1 1 3 1q4 1 36 1q125 0 166 -3q4 -1 7.5 -0.5t7 0t5.5 -3.5 t2 -30q0 -61 -10 -86q-14 -35 -44.5 -60.5t-67.5 -31.5q-37 -7 -85 -5q-53 0 -80 -1v-81v-34q-1 -13 -23 -13q-39 1 -110 0t-94 -1zM259 85q13 0 37 -0.5t37 -0.5h15q15 1 15 0q5 0 6 -1l3 -1q0 -1 1 -3q1 -3 1 -8.5t-0.5 -12t-0.5 -8.5v-30q-1 -32 0 -63q16 1 48.5 0.5 t49.5 0.5q12 1 110 1v51v40q0 30 1 32q3 5 21 5q14 0 44 2q10 0 36.5 -1.5t36.5 0.5q48 3 78 19q36 18 58 60q13 26 13 83q0 2 0.5 7t0.5 9.5t-1 6.5t-3 2.5t-5.5 0.5h-5.5q-28 2 -41 2h-95h-41h-15q-2 -1 -3.5 -9.5t-2.5 -9.5q-6 -16 -24 -29.5t-36 -15.5q-7 -1 -11.5 1 t-6 7.5t-1.5 10t0.5 12.5t0.5 11q0 23 1 68.5t1 67.5q0 8 0.5 23.5t0.5 23.5q0 2 -0.5 7t-0.5 8.5t1.5 8t4.5 6.5q9 5 28.5 -3.5t27.5 -17.5q11 -11 17 -34q2 -8 4 -9l4 1h6h13h94h43h20h24q1 1 1 37q0 28 -2 42q-6 42 -40.5 71t-78.5 37q-28 5 -64 2h-58h-36q-3 1 -5.5 2.5 t-3 4.5t-0.5 5v6v6v65v25h-23h-25h-100q-28 0 -42 1q-1 0 -8 1t-8 0q-2 -1 -2 -16q-1 -15 -1 -45q0 -4 0.5 -13t0.5 -16t-1 -13q-1 -11 -15 -11q-26 -2 -38 -2q-13 0 -40 -1t-40 -1q-40 1 -76 -16.5t-54 -51.5q-7 -12 -11 -26t-6.5 -25t-3.5 -29t-1 -26.5v-29v-26.5 q0 -70 3 -142q2 -49 22 -76q19 -25 65 -45q34 -15 82 -15zM356 216q-19 0 -36 17.5t-19 36.5l-3 75q0 4 -0.5 22t0 26.5t3.5 21.5t9 21q17 22 64 32q1 -23 0 -63.5t-1 -54.5q-1 -28 -1 -85v-37q-1 -12 -16 -12zM360 450q-41 -10 -46 -39q-1 -6 -1 -78q0 -40 2 -59 q1 -16 13 -28q20 -17 29 -16q-2 42 0.5 119t2.5 101z" glyph-name="cent" horiz-adv-x="965" unicode=""/><glyph d="M950 -3q-90 0 -268 1t-268 1h-140q-18 0 -61.5 0.5t-61.5 -0.5q-4 0 -12 1t-13 1q-22 -2 -32 -2q-12 0 -16.5 2.5t-4.5 14.5q-2 80 -2 119v16q0 23 3 32q2 4 8.5 6t17.5 2h12h70h19v15v40q-19 0 -57 -0.5t-56 -0.5q-15 0 -15 18v57q0 38 -1 56q-3 23 0 46q1 6 2 8.5 t4 4.5t8 2h58h22h17q8 0 10 4q1 1 1 10q2 64 12 97q7 23 49 72q28 33 84 52q35 12 88 12h111h110q7 0 51 1.5t51 -0.5q23 -1 104 1q28 0 42 -2q10 0 12 -2q5 -3 5 -17q1 -17 1 -104v-38q0 -25 -2 -27q-1 -1 -7.5 -2t-7.5 -1q-11 -1 -35 -1h-19h-22h-18q-20 0 -60 1t-60 1 q-29 0 -85 -2h-36q-9 -2 -22 -13q-27 -24 -28 -44q28 0 84.5 1t85.5 1q10 0 30 -1t30 -1q3 0 12 1t16.5 0.5t11.5 -2.5q5 -2 6 -9q1 -12 1 -25t-0.5 -29t-0.5 -24v-82q0 -13 -3 -16q-5 -5 -32 -5q-6 -2 -39.5 -0.5t-39.5 1.5h-141h-20h-4q-1 -1 -1 -18q0 -35 1 -36h20h23 q24 0 71.5 -1t71.5 -1q27 0 81 1t81 1h50h44q9 -3 10 -12q1 -7 1 -46q0 -5 0.5 -14.5t0.5 -14.5q1 -7 0 -20.5t-1 -19.5t1 -22.5t0 -25.5q-2 -17 -8 -18q-2 -1 -5 -1zM863 11h51h27q6 1 7 3q1 3 1 14q0 8 -1 25.5t0 26.5q2 4 0.5 24t-1.5 24v25v14q0 7 -3 9q-2 1 -27 1h-30 q-32 0 -94 -2q-35 -1 -105 -1q-11 0 -40 1.5t-45 0.5h-41h-26q-27 -1 -27 0q-12 2 -14 9q-1 3 -1 24q0 5 -0.5 15t-0.5 14q3 19 7 22h25h61q92 0 110 -1q8 -1 24 -1h24q4 -1 12 0t10 1q3 0 5 0.5t2.5 2t0.5 2.5v4.5v5.5v103v24v15q-1 2 0 4h-1q-2 0 -4 1h-25h-31h-106h-54 q-45 0 -49 1q-4 0 -6 2q-4 5 0 16q2 17 23 40q17 18 35 25q6 2 36 2q150 3 173 1q33 -2 98 -2q10 0 28 2q7 0 7.5 1.5t0.5 9.5v37v52v27v29q-1 3 -1 4t-4 2q-7 3 -18 1q-16 -1 -49 -1q-17 0 -51 0.5t-51 0.5q-19 1 -54.5 0t-46.5 -1h-213q-46 0 -89 -20q-28 -14 -40 -24 q-3 -2 -28 -30q-22 -28 -27 -38q-9 -16 -13 -44q-4 -34 -5 -50q0 -3 0.5 -12t-0.5 -16t-5 -11q-3 -3 -9.5 -3.5t-16.5 0.5t-11 1h-21h-43h-6h-5t-3 -0.5t-2.5 -2.5t-0.5 -6v-26q0 -17 0.5 -50.5t0.5 -50.5v-27h26h54h29q12 0 15 -2q4 -3 5 -7.5t0 -14.5v-9v-26q0 -15 -3 -20 q-2 -4 -7.5 -5t-14.5 0l-9 1q-10 0 -39.5 -0.5t-46.5 -1.5q-8 0 -9 -1v-12q0 -3 -2 -13q0 -35 1 -41q1 -15 1 -95q147 3 295 0q26 0 79.5 0.5t80.5 -0.5q25 0 75.5 -1t75.5 -1h170z" glyph-name="sterling" horiz-adv-x="1050" unicode=""/><glyph d="M695 -3q-96 0 -108 1q-20 0 -22 11v10.5v13v11.5q-8 -1 -77 -1h-85q-11 0 -34 1t-35 1q-11 0 -12 2q-6 4 -2 24q1 13 1 82q0 28 2 30q3 4 27 4h123h94q-2 24 -1 35q-7 -1 -65 -1h-74q-42 0 -62 2h-30h-13q-4 2 -4 11t1.5 21t1.5 14v70q0 20 1 21q4 5 20 5h71 q-4 4 -21 19.5t-27 23.5q-30 26 -45 41q-17 17 -51 46.5t-40 34.5l-20.5 20.5t-22.5 21.5q-6 6 -22.5 19.5t-24.5 21.5q-5 5 -31 27.5t-38 36.5q10 5 19 5h38q14 1 41 1.5t36 0.5h75q42 2 84 0q11 0 31 -0.5t31 -0.5l19 -1q20 0 20 1q2 0 17.5 1.5t17.5 -0.5q7 -1 16 -12 q3 -3 10.5 -10t11.5 -11q18 -20 55 -57q82 -80 108 -99q1 -1 6.5 -5t7.5 -6q6 -4 10 1l3 3q17 14 30 30q6 7 19 19t17 16q27 28 113 107q2 2 6.5 7.5t8.5 9.5t8 6q3 2 27 2h86h193q112 0 129 -2q-9 -15 -33.5 -37.5t-29.5 -27.5l-48 -45q-17 -18 -35 -35q-69 -64 -89 -81 q-74 -60 -109 -92q66 0 74 -1q15 -2 17 -6q3 -4 3 -37v-68v-6.5v-7.5t-1 -6t-3 -6.5t-6 -3.5h-26q-6 0 -16 -1t-16 -1h-86q-28 0 -43 -1h-21h-23q-4 -1 -4 -8v-14q0 -10 1 -11h23h133q64 0 80 -3h3q3 -1 3 -3q1 -2 1 -3q1 -5 1 -33v-71q0 -21 -3 -25t-26 -4l-159 -3h-44h-7 h-4q-1 0 -1 -2q-1 -2 -1 -3q-1 -3 0.5 -17.5t-2.5 -16.5q-3 -4 -31 -4h-47h-50q-7 0 -22 -1t-22 -1zM580 13q4 -2 35.5 -2h36.5q32 0 64 3h68h71v21q0 15 1 16q2 6 18 6h38h96h45q14 2 19 2h25q3 2 3 17q-2 10 0 21q0 8 -0.5 24t-0.5 23v17q0 8 -1 9.5t-7 1.5h-3h-49 q-13 0 -37 0.5t-36 0.5q-75 -2 -97 -1q-12 1 -13 9q-3 11 -1 35q2 15 8 18q1 1 3 1h46h107q8 1 23 1.5t23 0.5h17h11q5 1 5 3q1 1 1 2q1 3 1 29v49v12t-1 11q-1 5 -2 5.5t-7 1.5h-9q0 1 -22 0h-22h-5.5h-7.5h-8.5t-8.5 1t-6.5 2.5t-3 4.5t1.5 7q4 6 15.5 15.5t13.5 11.5 q14 12 42 34q7 6 36.5 30t44.5 38q7 6 19 18t22 21.5t19 17.5q42 39 124 121q-23 1 -66 -0.5t-60 -1.5h-162h-81q-28 0 -32 -3q-6 -4 -16.5 -15t-13.5 -14q-17 -17 -52.5 -49.5t-52.5 -49.5q-26 -25 -30 -31l-24 -24q-18 -18 -23 -19q-8 -2 -36 23q-7 5 -57 50l-24 24 t-25 24q-26 24 -50 50q-8 9 -17 17q-2 2 -5.5 6t-5.5 6q-5 5 -14 5q-5 0 -17 -1t-18 -1h-39q-17 0 -71 1t-84 0q-49 0 -73 -1h-42q-6 0 -21 -1.5t-23 -0.5q37 -31 103.5 -91.5t82.5 -74.5q75 -70 85 -78q42 -35 71 -64q-13 -8 -38 -8q-46 0 -68 1q-1 -29 -1 -87q0 -8 -2 -20 q0 -5 0.5 -6t3.5 -1h4q6 0 18.5 -0.5t19.5 -0.5q78 -3 174 -1q2 0 6 0.5t6 0.5h5t4.5 -1t3.5 -2t2.5 -3.5t0.5 -6.5v-35q0 -12 -9 -15q-4 -1 -50 -1h-40q-16 0 -67.5 1t-78.5 0q0 -10 -0.5 -30t-0.5 -30v-31q0 -1 -0.5 -7t-1 -9.5t0.5 -5.5q1 -1 25 -1q9 0 27 -2h63 q101 0 114 1q7 2 12 0l4 -2v-5q1 -4 1 -38zM561 606z" glyph-name="yen" horiz-adv-x="1456" unicode=""/><glyph d="M347 346q-11 0 -31.5 1t-30.5 1q-15 1 -42 0t-35 -1h-59q-1 0 -16.5 1t-23.5 2q-27 0 -31 2q-4 3 -4 29v37q1 63 1 190q0 16 -1.5 47.5t-1.5 46.5v48.5t1 48.5q0 24 3 28t31 4q14 0 41.5 -1.5t40.5 -1.5q15 0 46 0.5t47 0.5h46h23h16q6 -3 8 -12v-10q-1 -5 0 -13.5 t0 -12.5q-1 -15 -1 -89q0 -34 1 -101t1 -101v-93v-37q-1 -5 -2.5 -8.5t-5 -4.5t-5.5 -1.5t-8 0t-8 0.5zM300 363q5 0 15 -1t15 -1h18h9q1 0 5 1q-1 0 0 2v31v36v78v71q-2 18 -2 81v84q0 26 1 38v15q-1 2 -1 9l1 7h-15h-21h-40h-86q-12 0 -36.5 1t-36.5 1h-19h-17 q-3 -2 -3 -32v-85q0 -28 1 -84t1 -84v-131q0 -34 1 -35q2 -1 24 -1q6 -1 18 -1q20 -2 30 -2q23 0 68.5 1t69.5 1zM84 -174q-10 0 -12 13v47q0 10 0.5 29t0.5 28q0 10 1.5 35.5t0.5 39.5q-3 45 -3 90v162q0 30 1 32q4 8 30 8q15 1 91 -2q12 0 36.5 -1t37.5 -1q14 0 40 1t40 1 q18 0 21 -1q3 -2 4.5 -6t1.5 -7.5t-0.5 -9.5t-0.5 -8v-63q0 -17 -1 -49t-1 -58.5t2 -49.5q2 -9 1.5 -44t-0.5 -45q1 -18 -1 -85q0 -5 0.5 -15t0.5 -18t-1 -16q0 -4 -2 -6q-5 -3 -17 0q-15 1 -96 1q-29 0 -87.5 -1t-87.5 -1zM87 295v-241q0 -9 1.5 -29.5t0.5 -31.5 q-2 -34 -2 -51l1 -51q0 -51 -1 -51q23 0 136.5 1t136.5 0q0 14 0.5 39.5t0.5 46.5t-1 39q-2 42 -2 125q0 33 1 101t1 101q-10 0 -28 -1t-28 -1q-11 0 -32 1t-31 1q-129 2 -154 2z" glyph-name="brokenbar" horiz-adv-x="440" unicode=""/><glyph d="M429 -243h-34q-5 0 -16 1t-16 1q-68 5 -83 5q-5 0 -34 -1t-35 0q-16 1 -45 0t-38 -1q-24 0 -26 2q-5 4 -5 29v83v43q0 31 1 33q3 7 21 7q6 0 17.5 -1t18.5 -1h93q109 0 164 -1q9 0 27.5 -1t28.5 -1q61 0 91 -2h77q6 0 18 -1t18 -1q7 0 21.5 2t18.5 2q44 4 47 29 q1 7 -2 11.5t-9.5 7t-12 3t-14.5 1.5t-11 1q-51 4 -154 4h-98q-27 0 -79 2q-109 0 -156 13q-39 11 -74.5 36.5t-48.5 59.5q-32 76 -19 146q2 16 12 41q2 7 8.5 18.5t8.5 16.5q2 4 -5 17q-7 14 -8 17q-3 9 -13 40q-22 82 16 163q36 74 127 100q43 13 79 16q22 1 68 -1 q21 0 63 -1t63 -1q26 0 159 2q0 1 47 0h46q15 0 44.5 1.5t43.5 1.5q12 0 25 -0.5t28.5 -1.5t24.5 -1q72 0 81 1q2 0 8.5 1t9.5 1t7.5 -1t6.5 -4t3 -8v-40v-47v-58q0 -27 -1 -29q-4 -6 -27 -6h-44q-46 -2 -70 -2h-75q-9 0 -29.5 1.5t-31.5 0.5h-132q-11 0 -24 0.5t-29 1.5 t-25 1l-20 1q-20 0 -20 -1q-4 -1 -12.5 -1.5t-12.5 -0.5q-16 -3 -34 -3q-24 0 -32 -8q-14 -16 -2 -28q3 -3 8.5 -4.5t10 -1.5t12 0.5t9.5 0.5q22 0 63 -2t54 -2q15 -1 43 0.5t42 1.5q13 0 38.5 -0.5t38.5 -1.5q9 0 31 -2.5t34 -2.5q61 0 73 -1q79 -7 133 -44q42 -28 61 -61 q16 -27 23 -76q7 -44 -1 -84q-1 -3 -4 -17t-5 -21q-3 -8 -8 -17q-1 -1 -4 -6.5t-6 -10.5t-3 -6l9 -14q7 -14 8 -17q7 -18 12 -40q6 -30 4 -77q-3 -79 -61 -137q-63 -63 -136 -63q-212 2 -319 2q-13 0 -38 -1t-37 -1q-27 0 -40 -1q-28 0 -29 -4zM379 -228h35q10 0 28.5 2 t27.5 2q84 3 167 3q27 0 82 -0.5t83 -0.5q10 0 42 -2t53.5 0t41.5 9q45 17 66 37q35 35 46 52q19 33 22 70q6 42 0 83q-10 47 -26 71q-8 8 -7 15q1 2 3.5 5t3.5 4q2 3 10 19q17 36 17 76q0 55 -7 82q-11 42 -35 68q-31 31 -66 47q-49 25 -132 25q-29 0 -82 3t-75 3 q-49 0 -149 2q-8 0 -24 1t-24 1h-32q-30 0 -39 5q-13 7 -14.5 22.5t8.5 26.5q5 7 14.5 11t16 5t20 1.5t17.5 0.5q42 4 62 3q14 -1 41 -1.5t40 -1.5q14 -1 126 -1q23 1 66 0t57 -1h83q10 1 28 1h19q2 0 13 -0.5t11 1.5q3 1 3 34v75q-1 0 0 22v23v9h-11q-10 -2 -14 -2 q-41 -2 -80 0q-13 0 -40.5 1t-41.5 1q-13 0 -40 -1t-41 -1q-1 0 -160 -3q-26 0 -78.5 1t-78.5 1q-101 3 -121 1q-102 -5 -160 -55q-61 -55 -63 -144q-1 -37 13 -79q5 -21 13 -35q1 -2 4.5 -6.5t5 -8.5t1.5 -8q-1 -5 -7.5 -15t-7.5 -12q-9 -20 -15 -40q-9 -34 -6 -64 q5 -39 16 -75q14 -37 48 -64q37 -27 70 -36q12 -3 72 -11q24 -2 74 -2q13 0 39 -1t39 -1h183q46 0 69 -3q4 0 15 -1t17.5 -1.5t15 -3t14.5 -7.5q13 -10 9 -32q-7 -32 -48 -36q-6 -1 -17 -2t-17 -2h-43q-27 1 -80 1q-27 0 -77.5 2t-66.5 2h-131h-95h-43q-3 0 -12.5 1.5 t-13.5 2t-12 -1.5q-10 -4 -10 -2q2 2 5 1v-12v-22q0 -28 -1 -42q0 -65 1 -79v-8q1 -3 5 -3h20q28 0 42 1q11 1 30.5 0t25.5 -1q8 0 32.5 1t38.5 0q6 0 18.5 -1t18.5 -1h11t14.5 -1t10.5 -3zM559 -48zM395 25zM719 193h-95q-69 0 -89 2q-18 2 -51 1t-51 0t-28 10t-9 26 q4 35 52 35q14 0 42 2.5t42 2.5q16 0 85 -2.5t106 -1.5q44 0 49 -19q6 -23 -11.5 -39.5t-41.5 -16.5zM656 208h34q36 0 43 2q21 5 24 22q5 20 -14 21h-50q-13 0 -39 1t-39 1q-15 0 -43 1t-43 1q-7 0 -71 -5q-36 0 -44 -11q-3 -6 -3 -14q0 -7 4 -11t11.5 -5.5t14.5 -1.5 t16 0.5t12 0.5q31 0 93 -1t94 -1z" glyph-name="section" horiz-adv-x="1174" unicode=""/><glyph d="M186 724l-51 3h-24h-9q-3 0 -5 1q-1 -3 -2 -3q-7 -1 -11.5 2.5t-5.5 10.5t-1 13t0.5 14.5t0.5 10.5v110v29h28q14 2 29.5 2t34.5 -1t29 -1h54h23h17q2 -1 2 -17v-54q0 -54 -1 -81v-23v-11h-12q-12 -1 -37 -1q-20 0 -30 -1q-5 0 -15 -1.5t-14 -1.5zM124 742q7 0 37 -2 t37 0q21 3 64 3q17 0 18 1v17v47q0 13 0.5 39t0.5 39v14q-1 1 -14 1h-39q-48 0 -72 1q-18 1 -37 0q-3 0 -12.5 -1t-14.5 0q0 -27 0.5 -80t0.5 -79h31zM114 902zM481 725q-7 0 -41 2.5t-41 -0.5q-14 -2 -17 0q-6 3 -6 20v169q17 -1 47.5 -1h47.5h114q6 -2 7 -4t1 -13v-58 q0 -10 -0.5 -31t-0.5 -32v-30v-17q-1 -1 -14 -1q-5 -1 -16 -1h-17q-63 -3 -64 -3zM477 739q8 0 23 1.5t23 1.5q9 0 27 0.5t27 0.5q1 31 1 94q0 7 0.5 23t0.5 23v17q-1 1 -15 1l-45 -1q-45 0 -45 1q-6 0 -23 1t-26 0q-6 0 -17.5 -1t-17.5 -1q1 -53 1 -158h45q1 0 17 -1.5 t24 -1.5z" glyph-name="dieresis" horiz-adv-x="659" unicode=""/><glyph d="M388 -3h-119q-64 -2 -104 19q-49 24 -73 74q-23 47 -20 112q2 10 0.5 58t-1.5 58v112v45.5t2 56.5q6 59 54 107q24 24 60.5 35.5t71 10.5t71.5 -1h46h9h10.5h8.5q14 0 19 -2q3 -2 3 -9v-19q0 -10 0.5 -30t0.5 -29v-29q0 -7 -3 -8q-2 -1 -18 -1h-34q-79 0 -106 -23 q-14 -13 -21 -34t-8 -34.5t-1 -40.5q-2 -86 -2 -130v-28t0.5 -31.5t2.5 -27.5t6 -29q17 -48 87 -54q11 -1 65 -1h25h2q4 0 5 -4v-2q1 -15 -1 -63v-32v-22q-3 -4 -38 -4zM345 12q7 0 20 -0.5t19 -0.5q2 0 7 -0.5t8.5 -0.5t6.5 1q1 0 3 1l2 1q-1 2 0 4v17q1 15 1 46v19 q0 9 -2 10h-14h-20.5h-23.5t-21.5 1t-23 3t-19.5 5.5t-20.5 8.5t-16 13t-14.5 18q-14 22 -16 84q-1 30 -1 90q0 67 1 101q2 67 16 89q8 14 21.5 24t25.5 15t32.5 7.5t31 3t34.5 0t30 -0.5q0 44 -1 66v26q-1 5 -2 5.5t-8 1.5h-16h-109q-30 0 -59 -3q-20 -3 -52 -18 q-50 -25 -71 -91q-4 -13 -6 -29.5t-2.5 -26.5t0 -31.5t0.5 -27.5v-37v-44v-37q0 -13 1 -55.5t0 -64.5q-2 -44 2 -65q6 -28 24 -58q33 -56 93 -66q21 -4 42 -5t55 0t42 1zM736 -4q-10 0 -29 0.5t-28 0.5q-53 0 -59 1q-10 1 -11.5 4t-1.5 14q-1 24 -1 70v27v11h32q5 0 26 -0.5 t31 0t26 3t27 7.5q27 13 36.5 36t11.5 58q3 65 3 128q-3 97 -4 117q-3 31 -20.5 52.5t-47.5 26.5q-21 4 -57.5 4t-57.5 1h-2q-3 0 -4 2v4v9.5v12.5v10q0 11 0.5 31t0.5 31v22q2 4 11 4q15 3 60 1q13 0 60 0.5t60 -1.5q56 -3 96 -33q33 -24 56 -80q7 -16 9 -36.5t1.5 -37.5 t0.5 -37t1 -59v-58q1 -35 -1 -107q0 -8 0.5 -27t0.5 -30.5t-2 -27.5t-6 -28q-19 -59 -59 -90q-40 -32 -101 -35q-9 0 -28.5 -0.5t-29.5 -0.5zM684 12h33.5h39.5h34q10 0 30 2q17 3 47 18q39 19 61 67q18 42 18 90q-2 93 0 185q1 16 0 49t-1 50q2 64 -10 93q-37 91 -122 101 q-33 4 -100 2q-29 0 -44 1h-25h-14q-9 -1 -10 -6v-7v-9v-8q0 -19 -1 -29v-25v-10q-1 -4 0.5 -5t5.5 0h10q69 0 96 -5q24 -5 43.5 -20.5t26.5 -37.5q8 -21 10 -95q2 -81 0 -121q-1 -20 0 -38t-1 -39t-7 -37t-13.5 -28.5t-23.5 -20l-24 -12t-31.5 -6t-29.5 -2.5t-33.5 -0.5 t-28.5 0.5q0 -15 0.5 -44t0.5 -43q0 -7 0.5 -8.5t6.5 -2.5h18q6 0 18.5 0.5t19.5 0.5zM518 190q-90 0 -107 2q-26 3 -45 22.5t-21 44.5q-2 14 -2.5 30t-0.5 35.5v30.5q0 65 12 89q6 11 14 19q6 6 12.5 10t11.5 6t15 3.5t13.5 1.5t15.5 0.5t15 0.5q54 1 108 0h48q38 0 49 -4 q22 -8 36.5 -29t14.5 -45v-35q0 -8 -3 -10h-19h-31h-51q-5 1 -7 5q-1 2 -2.5 7.5t-2.5 7.5t-3 5.5t-4.5 4.5t-6.5 2.5t-9 1.5h-49q-37 0 -44 -2q-19 -6 -19 -33q-1 -19 1 -53q1 -25 25 -26q12 -1 35 -1h49q13 1 19.5 7t10.5 20q2 6 5 7q2 1 19 1h45q5 0 15.5 -1t15.5 -1 q9 0 10 -1t1 -18q1 -11 -1 -31q-3 -29 -24 -52q-18 -17 -52 -20q-8 -1 -28.5 -0.5t-28.5 0.5q-36 -2 -55 -2zM464 205q68 0 101 1q14 1 42 1q33 0 45 4q41 13 41 76q0 12 -1 13t-23 1h-42q-1 0 -5.5 0.5t-7 1t-4.5 -0.5q-1 -1 -2.5 -6.5t-1.5 -6.5q-13 -21 -39 -23 q-44 -2 -79 1q-27 2 -36 12q-10 11 -10 41q0 4 -1 16.5t-1 19.5t1 17t5.5 17t11.5 12q10 7 23.5 9t33 1t24.5 -1q38 0 45 -2q10 -3 16 -11q3 -4 5 -10t3 -8q2 -4 10 -4h25h27h19h3v18q0 30 -6 41q-18 38 -70 36q-34 -2 -94 -1t-93 0q-27 0 -39 -8q-20 -12 -29 -38 q-6 -21 -3 -109q0 -5 -0.5 -18t0 -20t1.5 -17.5t5 -18.5t11 -15q5 -5 10.5 -8.5t13 -6t11.5 -4t14 -2t12.5 -0.5h14.5h13z" glyph-name="copyright" horiz-adv-x="1048" unicode=""/><glyph d="M391 -3h-124q-60 -2 -101 20q-47 23 -73 76q-20 43 -18 114q1 22 0 63.5t-1 54.5v36v42.5v36.5q0 8 -0.5 28t-0.5 31t1.5 27.5t5.5 29.5q17 59 61 94q26 20 63 28.5t70.5 7t70.5 -1.5h52q9 0 25 -2q6 -1 6 -2l1 -4q1 -17 1 -47v-47v-24q-1 -1 -11 -1h-33h-18.5h-22 t-19 -1t-21.5 -3.5t-17.5 -7t-17.5 -10.5q-15 -12 -22.5 -34t-8 -34t-1.5 -42q0 -14 -1 -59t0 -70v-29.5t0.5 -30.5t2.5 -30t7 -29q17 -49 95 -53h68q13 0 16 -2q4 -2 4 -10q0 -38 -1 -57v-27q0 -24 -1 -26q-3 -5 -37 -5zM348 12q7 0 19.5 -0.5t18.5 -0.5h23q1 0 3 1 q2 0 2 1q-1 1 0 3t1 5t-0.5 6.5t-0.5 4.5q0 8 0.5 23.5t0.5 23.5v21q0 8 -2 9h-14h-18.5h-21t-19.5 0.5t-21 2t-19 4t-19.5 6.5t-16 9t-15 13t-11.5 17q-12 24 -14 86q-1 28 -1 85q0 66 1 99q2 66 14 88q7 13 16 22.5t23.5 15.5t24.5 9.5t29.5 4.5t27 1t30.5 -0.5t26 -0.5 v28v26q0 3 0.5 19t-1.5 20v3t-1 1q-1 1 -2 1q-1 1 -3 1h-3h-15q-21 0 -31 -1q-11 -1 -31.5 0t-26.5 1q-5 0 -24.5 0.5t-29 0t-24.5 -2.5t-26 -6q-59 -20 -87 -73q-17 -31 -20 -59q-1 -12 -1 -32v-32q0 -15 -1 -59t0 -68q0 -22 1 -64.5t1 -63.5q0 -55 1 -62q3 -28 20 -59 q15 -28 41 -48.5t57 -25.5q20 -4 41 -5t55.5 0t42.5 1zM755 -4h-99q-16 0 -24 1q-13 0 -14 2q-1 1 -1 7q-1 10 -1 32q0 10 -0.5 30.5t-0.5 31.5q0 22 3 24h10h28q20 -1 61 1q59 6 78 44q5 11 8 25.5t3.5 24t0.5 28.5v25q1 39 1 116q0 73 -5 100q-4 20 -16.5 34.5t-25 21.5 t-36 10.5t-36 3.5t-40 -0.5t-34.5 -0.5q0 77 2 115q0 7 4 9q5 3 25 3q11 0 31.5 -0.5t30.5 -0.5q98 2 131 -4q56 -9 94 -59q35 -47 38 -118v-62v-64v-38v-45v-38v-63q0 -41 -5 -61q-17 -76 -74 -108q-37 -20 -68 -24q-22 -3 -69 -3zM693 12q11 0 44.5 -1t51.5 0l36 3 q17 2 47 15q39 19 60.5 58t23.5 85q1 31 1 186v49t-1 49q0 8 0.5 30t-1 37.5t-5.5 29.5q-13 44 -46 76t-76 37q-37 5 -93 3h-49q-8 1 -26 1q-28 0 -29 -1v-23q0 -4 -0.5 -12t-0.5 -12v-25v-16v-5q-2 -4 -0.5 -5t5.5 0h26q12 1 24 0q30 0 51 -4q54 -9 73 -51q11 -23 13 -92 q1 -40 1 -119q-3 -98 -6 -116q-6 -27 -25 -47.5t-46 -26.5q-28 -6 -116 -6q0 -58 1 -87v-10q1 -1 10 -1h17q5 0 17 0.5t18 0.5zM342 188q-4 0 -11 0.5t-11 0.5q-10 0 -11 1v22v79v105q-1 18 -1 54q0 15 1 23q0 9 5 12q7 4 34 1q8 0 23.5 0.5t22.5 0.5q58 -1 118 0 q73 0 109 -1q66 0 95 -27q26 -25 29 -62.5t-18 -68t-57 -37.5q30 -33 61 -64l33 -36q-39 -2 -115 -2h-40h-15q-6 4 -14 17q-18 20 -44 52q-2 2 -6.5 7t-7.5 8q-10 12 -17 12q-23 0 -34 1h-15h-4q-5 0 -6 -5q-1 -4 -1 -9.5t0.5 -12t0.5 -9.5q-1 -12 -1 -35q0 -22 -2 -23 q-1 -1 -23 -1q-13 0 -39 -1.5t-39 -1.5zM324 204q28 -2 57 0q5 0 16.5 0.5t17.5 0.5h15v17q1 22 1 67q2 10 3 10q5 4 22 1h31h30q4 -1 7.5 -5t7.5 -9.5t6 -7.5q40 -49 43 -52q2 -3 7 -8.5t8 -8.5q4 -5 13 -5h39h46h39q-55 55 -89 95q5 2 18 5t21.5 6.5t16.5 8.5 q15 12 23.5 32.5t7.5 39.5q-3 48 -41 68q-24 13 -90 13h-61.5h-72.5h-62h-37h-20h-24q-1 -1 -1 -5.5t0.5 -10t0.5 -6.5v-24q0 -33 1 -49v-173zM450 359q-18 0 -19 1v12v35q1 1 1 3q0 1 1 1h4q10 2 30 2q12 0 34.5 -0.5t33.5 -0.5q5 0 16 1t18 1t15.5 -2t14.5 -7 q13 -11 8.5 -26.5t-21.5 -17.5q-8 -2 -18.5 -2t-23 1t-19.5 1q-13 0 -38 -1t-37 -1zM446 374q16 0 48 0.5t48 0.5h27q19 0 21 2q8 8 2 14t-15 7q-4 2 -25.5 0.5t-25.5 -1.5q-16 1 -48 1h-23q-7 0 -9 -3v-21z" glyph-name="registered" horiz-adv-x="1055" unicode=""/><glyph d="M219 406q-67 0 -92 19q-44 31 -51 78q-6 54 9 101t59 66q21 10 89 17q49 3 94 -18q28 -12 44 -42t16.5 -61.5t-5.5 -61.5q-16 -59 -62 -81q-38 -17 -101 -17zM247 673q-50 0 -85 -12q-41 -11 -61 -56q-16 -30 -12 -80q4 -51 31 -75q20 -20 35 -24q20 -4 45 -4q42 -3 81 4 q48 9 73 47q22 36 19 83q-6 65 -32 89q-31 28 -94 28zM227 499q-42 0 -47 43q-6 51 45 54q22 2 37.5 -8.5t16.5 -31.5q1 -25 -13.5 -41t-38.5 -16zM205 518q9 -6 24 -5t24 8q11 9 12.5 26t-8.5 27q-11 10 -30.5 9t-27.5 -12t-6 -27t12 -26v0z" glyph-name="degree" horiz-adv-x="450" unicode=""/><glyph d="M85 411q-12 0 -13 1v20q0 44 1 67q1 29 17.5 52t44.5 31q-13 -1 -37 -1q-21 0 -22 1q-2 2 -2 22q2 24 13 40q6 10 14 17.5t18.5 12t18 7t22 3.5t20.5 1.5t23 0t21 -0.5h89q41 2 73 -24q35 -29 30 -77q-5 -44 -38 -66q-7 -4 -15 -7t-14 -4.5t-16.5 -2.5t-14.5 -1h-16.5 h-15.5h-53q-29 0 -31 -10q26 1 106.5 0t106.5 2v-35v-34q0 -12 -2 -14q-1 -1 -19 -1q-24 0 -37 1h-57q-36 0 -107.5 -0.5t-107.5 -0.5zM175 571q-56 0 -77 -35q-11 -19 -11 -51q-1 -20 -1 -60q27 1 89.5 0.5t88.5 1.5q17 1 47.5 0t40.5 -1q2 0 8 -0.5t12 -0.5h12.5t10.5 1 t5 3t1 24q0 5 -0.5 14t-0.5 13q-34 -3 -95.5 -2t-96.5 0q-20 0 -22 8q-1 10 5.5 18.5t15.5 10.5q7 2 42 2q9 0 26.5 0.5t26.5 0.5q57 0 81 23q15 14 18.5 39.5t-5.5 43.5q-7 19 -27.5 32.5t-41.5 14.5q-17 0 -49 -0.5t-49 -0.5q-66 2 -86 -2q-23 -6 -40 -26q-13 -17 -15 -46 h14.5h16.5h14h27h27q1 0 2 3t2 4t3.5 3t3.5 3q8 6 20 7h17h20.5h17.5q22 -2 26 -15q3 -9 -2.5 -16.5t-14.5 -10.5q-3 -2 -25.5 -2h-25.5q-9 0 -27.5 -0.5t-28.5 -0.5zM275 601h-47q-27 0 -29 -15q10 0 30 0.5t30 0.5q22 0 24 3q3 4 0 7.5t-8 3.5z" glyph-name="uni00B2" horiz-adv-x="482" unicode=""/><glyph d="M266 411h-69q-57 0 -70 3q-34 8 -48 38q-4 8 -5.5 16t-2.5 21t-1 17h49h45q2 0 10 1t13 0t9 -4q1 0 2 -3t3 -4q3 -1 11 -1h30q3 0 20 -1.5t20 0.5q9 0 10 7q2 6 -1.5 7.5t-10.5 1.5q-29 0 -44 1q-38 0 -42 2h-2.5t-2.5 3v2q-1 2 -1 5v28v24q0 8 7 10q12 2 39 0 q3 0 12.5 -1t17 -0.5t11.5 2.5q10 7 6 12q-1 3 -16 3q-5 0 -14 0.5t-16.5 0.5t-13.5 -1q-5 0 -11 -4l-3 -4q-3 -4 -5 -5t-16 -1h-27h-42q-28 0 -31 2q-7 6 -4 33q5 20 18 35q27 28 79 28q15 0 46 -0.5t47 -0.5q6 0 27.5 1t35.5 0t26 -5q18 -5 33.5 -21t19.5 -33q5 -21 2 -41 q-4 -14 -8 -22q0 -1 -2.5 -4t-2.5 -4t2 -6q17 -25 19 -36q4 -26 0 -44q-4 -22 -21.5 -37t-39.5 -19q-8 -1 -47 -1q-16 -1 -50 -1zM240 426h92q49 0 69 25q10 13 11 35.5t-7 37.5q-2 5 -9 12t-9 11q-3 3 -3 6q1 3 7 9q10 17 11.5 38t-9.5 38q-24 31 -70 31h-31h-35.5h-30.5 q-6 0 -27.5 1t-35 0t-26.5 -6q-22 -9 -31 -23q-6 -6 -9.5 -17.5t-0.5 -18.5q1 -2 6 -3h10h23h47q11 0 17 4q1 1 5.5 4.5t8.5 4.5t42 1q34 0 39 -12q4 -9 0 -18.5t-13 -13.5q-6 -2 -13.5 -2.5t-17.5 0.5t-14 1h-21h-9q-3 -1 -4 -7v-18v-17q2 -3 13 -3q8 -1 27 -1q38 0 46 -1 q16 -2 18 -14q-1 -8 0.5 -13t-4.5 -8.5t-8.5 -5.5t-11 -2.5t-12.5 -0.5h-12.5h-10.5q-6 0 -17.5 0.5t-17.5 0.5q-14 0 -19 3l-6 6q-1 1 -7 2q-4 2 -28 0.5t-28 -1.5h-28h-10q-4 -3 1 -18q2 -12 10 -24q10 -17 37 -22q16 -2 33.5 -2.5t40 0.5t32.5 1z" glyph-name="uni00B3" horiz-adv-x="493" unicode=""/><glyph d="M308 709q-61 0 -183 2h-41q-12 0 -13 4v3q0 4 11 31q12 24 18 37q30 60 38 78q29 68 38 84q6 14 17 14q3 1 10.5 -0.5t10.5 -1.5q18 2 26 2q16 1 45.5 -0.5t41.5 -1.5q16 0 54 1t66.5 0.5t54.5 -3.5q-5 -11 -17 -30.5t-16 -26.5q-32 -60 -49 -82q-5 -7 -11.5 -20.5 t-9.5 -18.5q-8 -14 -26 -40q-15 -28 -24 -31q-5 -2 -12 -2t-16 1t-13 1zM87 725q21 0 62.5 -1t61.5 -1h73h36h19q4 1 9 5q3 3 38 59l4 8t4.5 8.5t3.5 7.5q0 1 17 26q13 18 33 55t31 53q-46 1 -137 1q-12 0 -34 1t-33 1h-34q-5 0 -17.5 -1.5t-19.5 -0.5q-12 0 -13 -1 q-5 -3 -8 -17q-9 -15 -14 -29q-4 -8 -13.5 -30.5t-15.5 -34.5q-5 -11 -15 -30.5t-14 -27.5q-11 -26 -24 -51z" glyph-name="acute" horiz-adv-x="568" unicode=""/><glyph d="M480 -344q-30 0 -89 0.5t-89 0.5h-19.5h-21.5t-20 0.5t-22 1.5t-19.5 3t-21 5.5t-18.5 7.5q-35 18 -61 48t-27 64q0 26 1 27q1 2 7 2.5t12.5 0.5h7.5q27 1 81 1h86q8 0 23 -0.5t23 -1.5h13q2 0 9.5 0.5t8.5 -0.5q3 -2 4 -5.5t0.5 -7.5t0.5 -7q1 -9 11 -11.5t18 1.5 q16 8 12 29q-1 18 -22 24q-12 4 -25 5t-33.5 0t-24.5 -1q-5 0 -25 -1t-33 0t-24 5q-34 13 -42 60q-2 12 -2 25.5t1 30t1 25.5v19q0 5 1 5.5t7 1.5q16 1 94 -2h53h62.5h53.5q-3 -37 2 -43q4 -6 14.5 -8t25.5 -1t18 1q42 0 69 -11q29 -12 57 -31q48 -34 50 -115 q3 -58 -55 -106q-50 -42 -133 -42zM423 -328q8 0 32 -0.5t36.5 -0.5t31.5 3t34 9q57 21 85 73q16 31 12 64.5t-23 61.5q-17 25 -48 41q-38 20 -60 22q-11 1 -38 1t-42 3q-12 2 -18.5 10t-7.5 16t-1 22q-187 0 -241 2v-39q0 -50 2 -58q7 -30 29 -40q7 -4 16.5 -5t25 0t17.5 1 h63q38 0 57 -10q25 -13 19.5 -44t-33.5 -35q-13 -2 -24 5t-13 20q0 6 -2 7q-1 1 -5.5 1h-5.5q-19 0 -28 1q-43 1 -130 1q-18 0 -58 -2h-13q-5 -2 -5 -8q-2 -13 3 -25q13 -47 74 -79q23 -13 59 -16q58 -3 59 -3q24 1 141 1z" glyph-name="cedilla" horiz-adv-x="743" unicode=""/><glyph d="M205 410q-8 0 -24 0.5t-25 0.5h-31q-1 1 -1 19v57v51q0 24 -1 26q-2 3 -8 3h-14q-25 0 -27 4q-1 1 -1 15v25q0 39 1 42q3 6 25 12q7 2 20 8t19 8t46 2q33 0 49 1h11q4 -1 4 -2q0 -2 1 -4q2 -5 2 -42q0 -39 1 -59q0 -82 -1 -123q0 -18 -1 -27q0 -11 -2 -14q-3 -3 -10.5 -4 t-19.5 0t-13 1zM236 420zM154 425q6 0 18.5 -0.5t18.5 -0.5h21q19 0 21 1q3 1 3 2v9q0 4 0.5 11t0.5 10v45q0 112 -1 167q0 -1 -27 -1l-27 1h-9h-10.5h-8.5t-23 -7q-16 -6 -23 -9q-5 -2 -13 -4q-6 -2 -6 -3q-1 -2 -1 -4q-3 -8 0 -26v-29q5 -5 6 -5h14q20 0 23 -1q2 -1 4 -1 q0 -1 1 -4q2 -5 2 -24q1 -21 1 -127h15z" glyph-name="uni00B9" horiz-adv-x="312" unicode=""/><glyph d="M263 409q-77 0 -115 1q-29 0 -50 15.5t-25 43.5q-3 20 -1 60q1 11 0 32.5t-1 28.5q0 43 10 60q13 26 41 34q3 2 26 2h26h26h26q62 2 110 -1q40 0 56 -11q20 -14 28 -40q3 -11 3 -57q0 -7 -0.5 -19t-0.5 -22.5t1 -19.5q4 -82 -43 -100q-14 -6 -59 -6q-9 0 -29 -0.5 t-29 -0.5zM241 424h82q16 0 24.5 0.5t21.5 3.5t21 11t13 20q5 13 6 29t0 36.5t-1 29.5v56q-2 29 -14 43q-15 18 -43 18h-58q0 1 -53 1l-54 -1q-20 4 -48 0.5t-41 -22.5q-11 -15 -11 -54q-1 -11 0 -31.5t1 -27.5q-5 -25 0 -60t32 -47q12 -5 55 -5h21h25h21zM243 495 q-32 0 -43 13q-8 9 -8 49q0 31 22 40q14 5 44 3q29 0 39 -17q4 -7 4 -41q0 -30 -13 -40q-10 -7 -45 -7zM230 586q-22 0 -24 -24q0 -35 3 -41q5 -11 29 -11q32 0 38 2q14 6 11 53q-2 24 -53 21h-4z" glyph-name="ordmasculine" horiz-adv-x="490" unicode=""/><glyph d="M263 28q-7 8 -45 49q-16 18 -34 34q-8 10 -7 12q0 1 2 3q8 9 73 74q26 25 78 77q259 259 291 292q12 12 36 35t35 34q4 4 10.5 11t12 12.5t10.5 9.5l5 4q4 4 5 4t3.5 -3t3.5 -3q30 -26 69 -67l4 -4t5 -5.5t2 -4.5q1 -3 -1 -7q-4 -7 -17.5 -20t-14.5 -14 q-38 -40 -80 -82.5t-97 -96.5t-81 -80q-18 -18 -53.5 -54t-53.5 -54q-105 -107 -161 -156zM194 122q7 -7 27.5 -28t31.5 -32q1 -1 3.5 -5.5t4.5 -5.5q4 -3 13 6q6 6 17.5 17t17.5 16q85 85 127 128q14 15 41.5 41.5t38.5 38.5q84 84 95 94q36 33 125 126q43 43 64 65 q2 3 3.5 4.5t1 3t-1 2.5t-3.5 3.5t-4 3.5l-8.5 8.5t-7.5 8.5l-33 33q-2 1 -7 6q-3 1 -4 3q-1 0 -1 -1q-2 0 -3 -1q-3 -1 -8.5 -6.5l-6.5 -6.5q-11 -12 -33 -34q-7 -7 -20.5 -20t-24 -23.5t-19.5 -20.5q-12 -13 -35 -35t-28 -27q-7 -7 -30 -30.5t-36 -36.5 q-50 -49 -149 -147.5t-148 -147.5zM266 402h-69q-53 0 -71 4q-34 8 -48 38q-4 8 -5 16t-1.5 20t-1.5 17q15 1 46 1h48q27 0 31 -3q1 -1 2.5 -3.5t3.5 -3.5q1 -1 11 -1h27q34 -3 42 -2q8 2 10 6q3 6 0 8t-9 3h-3q-29 0 -43 1q-40 0 -43 1q-5 2 -5 11q-1 9 -1 28q0 16 1 24v2 q0 6 6 7t37 1h24q19 0 21 1q9 7 4 12q-2 3 -15 3q-5 0 -14 0.5t-16.5 0.5t-13.5 -1t-11.5 -7t-7.5 -7h-19h-24h-45q-27 0 -29 2q-6 5 -3 35q7 22 19 34q28 27 80 27q15 -1 46 -1t47 -1q6 0 27 1t35 0t26 -5q17 -5 32.5 -20.5t19.5 -32.5q4 -19 1 -41q-1 -9 -8 -23l-2 -4 q-2 -3 -2 -4q-1 -3 1 -5q18 -27 19 -36q5 -27 0 -47q-4 -21 -21 -35t-39 -18q-11 -2 -47 -2q-9 0 -25.5 -0.5t-24.5 -0.5zM240 418h91q51 0 69 25q11 13 12 35.5t-7 37.5q-3 6 -10 12.5t-9 9.5q-2 4 -2 6l8 12q10 18 10 38.5t-11 37.5q-23 29 -71 29h-97q-5 0 -27 1 t-35.5 -0.5t-26.5 -6.5q-20 -9 -29 -22q-5 -7 -9 -20t-1 -18q2 -2 40 -2h48q11 0 16 6q8 6 14 7q4 1 47 1q29 0 34 -11q4 -10 -1.5 -20t-15.5 -13q-4 -1 -36 -1q-8 1 -24 1h-10q-5 -2 -5 -3v-4q-2 -11 0 -32q1 -5 1.5 -5.5t4.5 -0.5h4q10 -1 29 -1q29 0 43 -1q19 -2 22 -14 q-1 -6 1 -11t-2.5 -8t-5 -5.5t-7.5 -3.5t-9 -2t-9.5 -1h-9.5t-9 0.5t-8 0.5q-6 0 -18 0.5t-17 0.5q-15 0 -18 2q-2 1 -4 3l-3 3q-3 2 -8 2q-8 1 -17.5 1t-21 -0.5t-17.5 -0.5h-28h-10q-1 -2 -0.5 -5t1 -7.5t0.5 -5.5q3 -15 10 -24q13 -19 38 -22q15 -3 32.5 -3t40 1t33.5 1z M824 31q-11 0 -35 0.5t-36 0.5h-14q-2 1 -3 4q-3 7 0 30h-50.5h-59h-50.5q-36 0 -38 3v14v23q0 25 1 28q1 5 21 30q7 10 21 32q21 27 47 64q3 4 8 11.5l9 13.5t7 11q5 8 11 8h75.5t75.5 4q-8 -14 -66 -100q31 -1 95 -1h15q2 0 3 -2v-20q1 -6 1 -18.5t1 -18.5q1 0 11.5 1 t18.5 0.5t10 -2.5q1 -1 1 -28q0 -7 0.5 -19t0.5 -19q0 -15 -1 -16h-12h-30q5 -27 -1 -33h-14q-4 0 -11.5 -0.5t-11.5 -0.5zM818 46h12q9 0 12 1h4q1 0 1 2q1 1 1 2q1 2 0 9t-0.5 12.5t4.5 7.5h19h19q0 44 -1 49t-2 5h-4h-7h-20q-7 2 -8 11q-1 8 -1 48h-42h-43h-11 q-1 -1 -1 -19q0 -11 -2 -33q0 -5 -1 -6t-6 -1q-30 -1 -58 3q19 30 56.5 84.5t46.5 68.5h-20h-24h-20h-33h-15q-8 0 -11 -4q-8 -10 -21.5 -30t-17.5 -26l-36 -51q-6 -8 -18 -26q-2 -2 -6 -7t-7.5 -9.5t-4.5 -8.5v-26v-15q6 -6 7 -6h57h25h28.5h23.5q40 0 59 -3q0 -4 -2 -14 v-17h13q18 -1 55 -1zM707 148h19q7 0 8 1t1 9q1 6 1 17v16q-5 -7 -29 -43z" glyph-name="threequarters" horiz-adv-x="989" unicode=""/><glyph d="M649 272q-36 0 -107.5 1t-107.5 1v65q0 7 0.5 22t0.5 22q0 17 1 25v11q1 1 23 1q33 0 49 1q34 0 67 3q5 0 35 -2q14 0 43 -0.5t44 -0.5q3 0 13.5 1t15.5 0q8 -1 9 -7v-31v-49q1 -16 1 -49v-10q-1 -2 -5 -3t-17 -0.5t-18 0.5q-15 -1 -47 -1zM583 288h139q0 20 -0.5 60 t-0.5 60q-2 -1 -29 -1h-36q-20 0 -60 2q-8 1 -23 -0.5t-20 -1.5q-23 -1 -69 -1h-17h-17v-32q-1 -24 -1 -71v-10q-1 -4 0 -5.5t5 0.5h16h41h72zM721 -266q-18 0 -76 1t-89 0q-112 -2 -168 -1q-13 0 -38.5 1t-38.5 1q-64 0 -82 7q-55 20 -76 36q-30 20 -54 60q-35 61 -22 162 q10 79 87 130q65 40 149 42q23 1 69 1q34 0 39 3q12 8 12 32v22q1 5 2 6h14q14 1 87 1q29 0 85.5 -0.5t84.5 -0.5h22q7 0 7 -1l1 -4q2 -11 2 -24t-1 -29t-1 -24q0 -60 -4 -89q-6 -50 -38 -67q-17 -9 -80 -11q-14 0 -44 -0.5t-44 -0.5h-82q-20 0 -39 -8.5t-18 -25.5 q2 -32 57 -29q57 0 86 1q13 0 35 2h9.5h12h9.5q16 1 27 20q5 8 6 16q0 11 2 12q1 1 13 1h43q13 0 41 -1t42 -1t44 -0.5t44 -0.5q8 0 22 0.5t22 0.5q27 0 29 -2q2 -1 2 -16q1 -18 -2 -38q-6 -53 -17 -77q-31 -65 -119 -95q-36 -12 -74 -12zM609 -251h86q49 -2 78 6 q79 21 119 78q15 20 23 70q0 6 1.5 18.5t2.5 19.5v10v7q-2 1 -13 1q-12 1 -43 0.5t-43 -0.5h-85q-9 0 -25 1t-29.5 1.5t-25.5 0.5q-11 0 -12 -2q-1 -1 -2.5 -7t-2.5 -8q-8 -21 -23 -28q-8 -4 -20.5 -5t-22.5 -0.5t-21 -0.5q-30 -2 -91 -2q-4 0 -14 -0.5t-15.5 0t-13.5 1.5 t-14.5 3.5t-12.5 7.5q-14 11 -16.5 28t9.5 30q22 23 76 23h82q16 0 48 0.5t48 0.5q58 2 73 33q11 22 11 90q1 33 1 97h-127h-88q-5 0 -16 0.5t-17 0.5q-3 0 -9 -0.5t-9 -0.5q-6 0 -7 -0.5t-1 -5.5v-2q0 -43 -24 -53q-6 -2 -28 -2q-27 0 -41 -1q-86 0 -121 -12 q-79 -26 -116 -80q-32 -47 -28 -140q3 -74 56 -124q55 -51 128 -53q111 -1 335 -1z" glyph-name="questiondown" horiz-adv-x="1014" unicode=""/><glyph d="M997 8q-69 0 -103 1q-21 0 -23 1q-1 1 -11 17t-16 24q-26 42 -31 48q-13 18 -14 20q-1 1 -3 4.5t-3 4.5q-2 1 -15 1q-67 -3 -123 -2q-22 1 -67.5 1t-68.5 1h-32q-33 0 -35 -1q-5 -2 -13 -18q-1 -2 -7 -11t-9 -14q-5 -8 -16.5 -25t-17.5 -26l-12 -18q-4 -6 -8 -7 q-3 -1 -30 -1h-38q-11 0 -34.5 0.5t-35.5 0.5q-130 0 -196 3q32 56 48 85q21 39 25 45q6 9 17.5 24.5t16.5 24.5q112 170 129 196q15 24 57.5 86t63.5 98q9 17 30 49t30 48q14 28 22 31h25q5 0 15.5 -0.5t15.5 -0.5q21 0 64 -1t65 -1h60q21 0 31 1q1 0 9.5 1.5t8.5 -0.5 q5 0 8 -9q3 -4 8.5 -12.5t8.5 -12.5q31 -42 33 -46q11 -20 34.5 -54.5t32.5 -49.5q3 -7 11.5 -19t11.5 -18q5 -8 13 -23.5t11 -20.5q12 -19 36 -53t30 -44q7 -10 19.5 -27.5t22.5 -32t18 -27.5q55 -90 61 -99q11 -15 32 -47.5t32 -47.5l6 -7q6 -8 9 -12.5t6.5 -11.5 t1.5 -10.5t-9 -4.5q-18 -1 -161 -1h-47zM880 23h258h58q-56 77 -105 156q-3 4 -21.5 35.5t-29.5 46.5q-8 11 -22 35q-4 7 -13 18t-12 16q-10 15 -28 40.5t-24 34.5q-8 12 -21.5 37.5t-21.5 37.5q-11 16 -19 29q-8 14 -26 40q-6 9 -23.5 37t-27.5 43q-4 6 -13 17.5t-14 17.5 q-10 16 -11 17t-20 1q-48 -2 -97 0q-17 0 -50 0.5t-49 0.5q-7 0 -21 0.5t-22 0.5h-6.5h-8.5h-7q-5 -1 -10 -8q-1 -1 -2.5 -4l-2.5 -5q-16 -27 -48 -78t-46 -75q-5 -9 -47 -69q-32 -48 -49 -73q-36 -56 -55 -85q-5 -8 -26.5 -39t-31.5 -48q-6 -10 -27.5 -39.5t-30.5 -47.5 q-7 -15 -23.5 -44t-24.5 -44q25 0 73 -1t72 -1h121h27q12 0 16 5t8 11t8.5 13.5t7.5 11.5q3 5 25 40q3 4 8 12.5t8 12.5q6 12 11 14h14h26h60h70h82.5h70.5q2 0 9.5 1t13.5 1t9 -2q1 0 9 -12q2 -3 6.5 -9.5t6.5 -9.5q12 -15 31 -45.5t28 -43.5zM696 301h-149q26 41 36 55 q3 4 17 25q14 20 18 21q8 2 23 -21q16 -24 24 -37q5 -7 15.5 -21.5t15.5 -21.5zM573 315h95q-4 5 -20.5 31t-26.5 38q-25 -33 -48 -69zM546 772q-7 0 -23 1t-24 1t-12 5q-4 4 -14 19q-33 45 -42 71q-3 8 -13.5 21.5t-12.5 15.5q-9 15 -25 45q-10 21 -42 70q14 3 65 5h98h51 q50 1 50 0h39q15 0 20 -6q4 -5 15 -29q7 -15 21 -47q5 -12 29 -65q5 -12 19 -38.5t20 -40.5q9 -16 4 -22q-2 -2 -27 -2q-16 0 -47.5 -1t-47.5 -1q-32 -2 -48 -1q-10 1 -28.5 0t-24.5 -1zM504 788h61q11 1 33 0t34 0h30.5t31.5 1q10 0 30 0.5t30 0.5q-9 20 -28.5 59t-28.5 59 l-24 54q-7 18 -17 37q-5 11 -10 12h-31q-13 1 -38 1q-12 0 -37.5 -0.5t-38.5 -0.5q-23 0 -69 -1t-69 -1q14 -21 37 -65q12 -21 38 -57q3 -4 5.5 -11.5t4.5 -10.5q1 -2 15 -25q6 -9 18 -29q1 -1 4.5 -7t5.5 -8.5t5.5 -5t7.5 -2.5z" glyph-name="Agrave" unicode=""/><glyph d="M997 8q-69 0 -103 1q-21 0 -23 1q-1 1 -11 17t-16 24q-26 42 -31 48q-13 18 -14 20q-1 1 -3 4.5t-3 4.5q-2 1 -15 1q-67 -3 -123 -2q-22 1 -67.5 1t-68.5 1h-32q-33 0 -35 -1q-5 -2 -13 -18q-1 -2 -7 -11t-9 -14q-5 -8 -16.5 -25t-17.5 -26l-12 -18q-4 -6 -8 -7 q-3 -1 -30 -1h-38q-11 0 -34.5 0.5t-35.5 0.5q-130 0 -196 3q32 56 48 85q21 39 25 45q6 9 17.5 24.5t16.5 24.5q112 170 129 196q15 24 57.5 86t63.5 98q9 17 30 49t30 48q14 28 22 31h25q5 0 15.5 -0.5t15.5 -0.5q21 0 64 -1t65 -1h60q21 0 31 1q1 0 9.5 1.5t8.5 -0.5 q5 0 8 -9q3 -4 8.5 -12.5t8.5 -12.5q31 -42 33 -46q11 -20 34.5 -54.5t32.5 -49.5q3 -7 11.5 -19t11.5 -18q5 -8 13 -23.5t11 -20.5q12 -19 36 -53t30 -44q7 -10 19.5 -27.5t22.5 -32t18 -27.5q55 -90 61 -99q11 -15 32 -47.5t32 -47.5l6 -7q6 -8 9 -12.5t6.5 -11.5 t1.5 -10.5t-9 -4.5q-18 -1 -161 -1h-47zM880 23h258h58q-56 77 -105 156q-3 4 -21.5 35.5t-29.5 46.5q-8 11 -22 35q-4 7 -13 18t-12 16q-10 15 -28 40.5t-24 34.5q-8 12 -21.5 37.5t-21.5 37.5q-11 16 -19 29q-8 14 -26 40q-6 9 -23.5 37t-27.5 43q-4 6 -13 17.5t-14 17.5 q-10 16 -11 17t-20 1q-48 -2 -97 0q-17 0 -50 0.5t-49 0.5q-7 0 -21 0.5t-22 0.5h-6.5h-8.5h-7q-5 -1 -10 -8q-1 -1 -2.5 -4l-2.5 -5q-16 -27 -48 -78t-46 -75q-5 -9 -47 -69q-32 -48 -49 -73q-36 -56 -55 -85q-5 -8 -26.5 -39t-31.5 -48q-6 -10 -27.5 -39.5t-30.5 -47.5 q-7 -15 -23.5 -44t-24.5 -44q25 0 73 -1t72 -1h121h27q12 0 16 5t8 11t8.5 13.5t7.5 11.5q3 5 25 40q3 4 8 12.5t8 12.5q6 12 11 14h14h26h60h70h82.5h70.5q2 0 9.5 1t13.5 1t9 -2q1 0 9 -12q2 -3 6.5 -9.5t6.5 -9.5q12 -15 31 -45.5t28 -43.5zM696 301h-149q26 41 36 55 q3 4 17 25q14 20 18 21q8 2 23 -21q16 -24 24 -37q5 -7 15.5 -21.5t15.5 -21.5zM573 315h95q-4 5 -20.5 31t-26.5 38q-25 -33 -48 -69zM688 775q-61 0 -183 2h-41q-12 0 -13 4v3q0 4 11 31q12 24 18 37q30 60 38 78q29 68 38 84q6 14 17 14q3 1 10.5 -0.5t10.5 -1.5 q18 2 26 2q16 1 45.5 -0.5t41.5 -1.5q16 0 54 1t66.5 0.5t54.5 -3.5q-5 -11 -17 -30.5t-16 -26.5q-32 -60 -49 -82q-5 -7 -11.5 -20.5t-9.5 -18.5q-8 -14 -26 -40q-15 -28 -24 -31q-5 -2 -12 -2t-16 1t-13 1zM467 791q21 0 62.5 -1t61.5 -1h73h36h19q4 1 9 5q3 3 38 59 l12 24q0 1 17 26q13 18 33 55t31 53q-46 1 -137 1q-12 0 -34 1t-33 1h-34q-5 0 -17.5 -1.5t-19.5 -0.5q-12 0 -13 -1q-5 -3 -8 -17q-9 -15 -14 -29q-4 -8 -13.5 -30.5t-15.5 -34.5q-5 -11 -15 -30.5t-14 -27.5q-11 -26 -24 -51z" glyph-name="Aacute" unicode=""/><glyph d="M997 8q-69 0 -103 1q-21 0 -23 1q-1 1 -11 17t-16 24q-26 42 -31 48q-13 18 -14 20q-1 1 -3 4.5t-3 4.5q-2 1 -15 1q-67 -3 -123 -2q-22 1 -67.5 1t-68.5 1h-32q-33 0 -35 -1q-5 -2 -13 -18q-1 -2 -7 -11t-9 -14q-5 -8 -16.5 -25t-17.5 -26l-12 -18q-4 -6 -8 -7 q-3 -1 -30 -1h-38q-11 0 -34.5 0.5t-35.5 0.5q-130 0 -196 3q32 56 48 85q21 39 25 45q6 9 17.5 24.5t16.5 24.5q112 170 129 196q15 24 57.5 86t63.5 98q9 17 30 49t30 48q14 28 22 31h25q5 0 15.5 -0.5t15.5 -0.5q21 0 64 -1t65 -1h60q21 0 31 1q1 0 9.5 1.5t8.5 -0.5 q5 0 8 -9q3 -4 8.5 -12.5t8.5 -12.5q31 -42 33 -46q11 -20 34.5 -54.5t32.5 -49.5q3 -7 11.5 -19t11.5 -18q5 -8 13 -23.5t11 -20.5q12 -19 36 -53t30 -44q7 -10 19.5 -27.5t22.5 -32t18 -27.5q55 -90 61 -99q11 -15 32 -47.5t32 -47.5l6 -7q6 -8 9 -12.5t6.5 -11.5 t1.5 -10.5t-9 -4.5q-18 -1 -161 -1h-47zM880 23h258h58q-56 77 -105 156q-3 4 -21.5 35.5t-29.5 46.5q-8 11 -22 35q-4 7 -13 18t-12 16q-10 15 -28 40.5t-24 34.5q-8 12 -21.5 37.5t-21.5 37.5q-11 16 -19 29q-8 14 -26 40q-6 9 -23.5 37t-27.5 43q-4 6 -13 17.5t-14 17.5 q-10 16 -11 17t-20 1q-48 -2 -97 0q-17 0 -50 0.5t-49 0.5q-7 0 -21 0.5t-22 0.5h-6.5h-8.5h-7q-5 -1 -10 -8q-1 -1 -2.5 -4l-2.5 -5q-16 -27 -48 -78t-46 -75q-5 -9 -47 -69q-32 -48 -49 -73q-36 -56 -55 -85q-5 -8 -26.5 -39t-31.5 -48q-6 -10 -27.5 -39.5t-30.5 -47.5 q-7 -15 -23.5 -44t-24.5 -44q25 0 73 -1t72 -1h121h27q12 0 16 5t8 11t8.5 13.5t7.5 11.5q3 5 25 40q3 4 8 12.5t8 12.5q6 12 11 14h14h26h60h70h82.5h70.5q2 0 9.5 1t13.5 1t9 -2q1 0 9 -12q2 -3 6.5 -9.5t6.5 -9.5q12 -15 31 -45.5t28 -43.5zM696 301h-149q26 41 36 55 q3 4 17 25q14 20 18 21q8 2 23 -21q16 -24 24 -37q5 -7 15.5 -21.5t15.5 -21.5zM573 315h95q-4 5 -20.5 31t-26.5 38q-25 -33 -48 -69zM436 776q-22 0 -65 0.5t-64 0.5q9 20 50 82q7 11 29 44t33 52q27 45 57 87q12 18 18 26q2 3 5 8t4.5 8.5t5 7t6.5 4.5q5 3 22.5 1.5 t21.5 -1.5q32 0 47 -1q19 0 57 0.5t56 0.5q3 0 8.5 0.5t10 0.5t7.5 -1q8 -2 25 -31q10 -16 30 -48.5t30 -48.5q13 -20 39 -55.5t35 -48.5q24 -36 61 -83q-30 -3 -68 -3.5t-68.5 0t-68.5 -0.5q-37 0 -55 1q-15 0 -17 1q-1 0 -6 8q-7 12 -24.5 42.5t-28.5 46.5 q-6 -9 -17 -27.5t-17 -27.5q-10 -14 -20 -31q-8 -10 -9 -11q-4 -2 -30 -2h-37q-11 0 -32 -0.5t-31 -0.5zM425 792h61h39q33 0 36 3q5 5 19 30q12 18 18 28q10 17 32 49q3 -6 16.5 -27.5t20.5 -33.5q4 -7 12 -20.5t12 -20.5q4 -8 14 -8h24q17 0 50.5 0.5t50.5 0.5h107l-54 75 q-8 12 -28 39t-30 42q-18 28 -52 84q-4 6 -12.5 19t-12.5 20t-8 10h-13h-87q-54 0 -80 -1q-5 0 -19.5 1.5t-18.5 -0.5q-2 -1 -12 -16l-15 -21q-25 -35 -40 -60q-25 -41 -125 -193h95zM740 1084z" glyph-name="Acircumflex" unicode=""/><glyph d="M997 8q-69 0 -103 1q-21 0 -23 1q-1 1 -11 17t-16 24q-26 42 -31 48q-13 18 -14 20q-1 1 -3 4.5t-3 4.5q-2 1 -15 1q-67 -3 -123 -2q-22 1 -67.5 1t-68.5 1h-32q-33 0 -35 -1q-5 -2 -13 -18q-1 -2 -7 -11t-9 -14q-5 -8 -16.5 -25t-17.5 -26l-12 -18q-4 -6 -8 -7 q-3 -1 -30 -1h-38q-11 0 -34.5 0.5t-35.5 0.5q-130 0 -196 3q32 56 48 85q21 39 25 45q6 9 17.5 24.5t16.5 24.5q112 170 129 196q15 24 57.5 86t63.5 98q9 17 30 49t30 48q14 28 22 31h25q5 0 15.5 -0.5t15.5 -0.5q21 0 64 -1t65 -1h60q21 0 31 1q1 0 9.5 1.5t8.5 -0.5 q5 0 8 -9q3 -4 8.5 -12.5t8.5 -12.5q31 -42 33 -46q11 -20 34.5 -54.5t32.5 -49.5q3 -7 11.5 -19t11.5 -18q5 -8 13 -23.5t11 -20.5q12 -19 36 -53t30 -44q7 -10 19.5 -27.5t22.5 -32t18 -27.5q55 -90 61 -99q11 -15 32 -47.5t32 -47.5l6 -7q6 -8 9 -12.5t6.5 -11.5 t1.5 -10.5t-9 -4.5q-18 -1 -161 -1h-47zM880 23h258h58q-56 77 -105 156q-3 4 -21.5 35.5t-29.5 46.5q-8 11 -22 35q-4 7 -13 18t-12 16q-10 15 -28 40.5t-24 34.5q-8 12 -21.5 37.5t-21.5 37.5q-11 16 -19 29q-8 14 -26 40q-6 9 -23.5 37t-27.5 43q-4 6 -13 17.5t-14 17.5 q-10 16 -11 17t-20 1q-48 -2 -97 0q-17 0 -50 0.5t-49 0.5q-7 0 -21 0.5t-22 0.5h-6.5h-8.5h-7q-5 -1 -10 -8q-1 -1 -2.5 -4l-2.5 -5q-16 -27 -48 -78t-46 -75q-5 -9 -47 -69q-32 -48 -49 -73q-36 -56 -55 -85q-5 -8 -26.5 -39t-31.5 -48q-6 -10 -27.5 -39.5t-30.5 -47.5 q-7 -15 -23.5 -44t-24.5 -44q25 0 73 -1t72 -1h121h27q12 0 16 5t8 11t8.5 13.5t7.5 11.5q3 5 25 40q3 4 8 12.5t8 12.5q6 12 11 14h14h26h60h70h82.5h70.5q2 0 9.5 1t13.5 1t9 -2q1 0 9 -12q2 -3 6.5 -9.5t6.5 -9.5q12 -15 31 -45.5t28 -43.5zM696 301h-149q26 41 36 55 q3 4 17 25q14 20 18 21q8 2 23 -21q16 -24 24 -37q5 -7 15.5 -21.5t15.5 -21.5zM573 315h95q-4 5 -20.5 31t-26.5 38q-25 -33 -48 -69zM731 774q-7 0 -57 11q-23 5 -67 15q-22 6 -33 8q-3 0 -9 1.5t-8.5 2t-7 -0.5t-8.5 -5q-3 -3 -7.5 -11.5t-8.5 -11.5q-6 -6 -20 -6 q-11 -1 -42 8q-30 6 -46 9q-43 10 -57 17q-15 8 -17 22q-1 5 4 20q14 50 36 80q23 32 63 52.5t80 21.5q19 0 41.5 -3t36.5 -6t42 -10t37 -9q2 0 11.5 -3t15 -4t13 -0.5t11.5 3.5t12 16t18 15q5 1 31 -4q24 -3 43 -10q11 -3 34 -7.5t34 -8.5q18 -8 22 -17q3 -10 -6 -27 q-3 -7 -8.5 -26.5t-11 -33.5t-13.5 -25q-47 -73 -158 -73zM730 789q81 0 126 42q26 26 38 63l12 36q8 18 7 22q-1 6 -10 9.5t-23 6t-15 2.5q-8 2 -22.5 6t-26.5 7t-23 5q-22 6 -26 4q-7 -2 -13 -14q-16 -26 -49 -19q-23 5 -68.5 15.5t-68.5 15.5q-76 12 -136 -31 q-34 -25 -52 -58q-9 -19 -15 -37l-3 -9t-3 -10.5t-1 -8.5q0 -5 5 -9t10 -6t13.5 -4t10.5 -3q14 -4 40.5 -9.5t35.5 -7.5q3 0 13 -3t14 -3.5t13 1.5q4 3 10 13.5t10 13.5q10 8 21 8q13 -1 45 -10q11 -3 31.5 -7.5t29.5 -6.5q49 -14 70 -14zM727 971z" glyph-name="Atilde" unicode=""/><glyph d="M997 8q-69 0 -103 1q-21 0 -23 1q-1 1 -11 17t-16 24q-26 42 -31 48q-13 18 -14 20q-1 1 -3 4.5t-3 4.5q-2 1 -15 1q-67 -3 -123 -2q-22 1 -67.5 1t-68.5 1h-32q-33 0 -35 -1q-5 -2 -13 -18q-1 -2 -7 -11t-9 -14q-5 -8 -16.5 -25t-17.5 -26l-12 -18q-4 -6 -8 -7 q-3 -1 -30 -1h-38q-11 0 -34.5 0.5t-35.5 0.5q-130 0 -196 3q32 56 48 85q21 39 25 45q6 9 17.5 24.5t16.5 24.5q112 170 129 196q15 24 57.5 86t63.5 98q9 17 30 49t30 48q14 28 22 31h25q5 0 15.5 -0.5t15.5 -0.5q21 0 64 -1t65 -1h60q21 0 31 1q1 0 9.5 1.5t8.5 -0.5 q5 0 8 -9q3 -4 8.5 -12.5t8.5 -12.5q31 -42 33 -46q11 -20 34.5 -54.5t32.5 -49.5q3 -7 11.5 -19t11.5 -18q5 -8 13 -23.5t11 -20.5q12 -19 36 -53t30 -44q7 -10 19.5 -27.5t22.5 -32t18 -27.5q55 -90 61 -99q11 -15 32 -47.5t32 -47.5l6 -7q6 -8 9 -12.5t6.5 -11.5 t1.5 -10.5t-9 -4.5q-18 -1 -161 -1h-47zM880 23h258h58q-56 77 -105 156q-3 4 -21.5 35.5t-29.5 46.5q-8 11 -22 35q-4 7 -13 18t-12 16q-10 15 -28 40.5t-24 34.5q-8 12 -21.5 37.5t-21.5 37.5q-11 16 -19 29q-8 14 -26 40q-6 9 -23.5 37t-27.5 43q-4 6 -13 17.5t-14 17.5 q-10 16 -11 17t-20 1q-48 -2 -97 0q-17 0 -50 0.5t-49 0.5q-7 0 -21 0.5t-22 0.5h-6.5h-8.5h-7q-5 -1 -10 -8q-1 -1 -2.5 -4l-2.5 -5q-16 -27 -48 -78t-46 -75q-5 -9 -47 -69q-32 -48 -49 -73q-36 -56 -55 -85q-5 -8 -26.5 -39t-31.5 -48q-6 -10 -27.5 -39.5t-30.5 -47.5 q-7 -15 -23.5 -44t-24.5 -44q25 0 73 -1t72 -1h121h27q12 0 16 5t8 11t8.5 13.5t7.5 11.5q3 5 25 40q3 4 8 12.5t8 12.5q6 12 11 14h14h26h60h70h82.5h70.5q2 0 9.5 1t13.5 1t9 -2q1 0 9 -12q2 -3 6.5 -9.5t6.5 -9.5q12 -15 31 -45.5t28 -43.5zM696 301h-149q26 41 36 55 q3 4 17 25q14 20 18 21q8 2 23 -21q16 -24 24 -37q5 -7 15.5 -21.5t15.5 -21.5zM573 315h95q-4 5 -20.5 31t-26.5 38q-25 -33 -48 -69zM490 770q-8 0 -16.5 0.5t-18.5 1.5t-16 1h-24h-9q-3 0 -5 1q-1 -3 -2 -3q-7 -1 -11.5 2.5t-5.5 10.5t-1 13t0.5 14.5t0.5 10.5v110v29h28 q14 2 29.5 2t34.5 -1t29 -1h54h23h17q2 -1 2 -17q1 0 1 -27l-1 -27q0 -54 -1 -81v-23v-11h-12q-12 -1 -37 -1q-20 0 -30 -1q-5 0 -15 -1.5t-14 -1.5zM428 788q7 0 37 -2t37 0q21 3 64 3q17 0 18 1v17v47q0 13 0.5 39t0.5 39v4v6v4q-1 1 -14 1h-39q-48 0 -72 1q-18 1 -37 0 q-3 0 -12.5 -1t-14.5 0q0 -26 0.5 -79t0.5 -80h31zM418 948zM785 771q-7 0 -41 2.5t-41 -0.5q-14 -2 -17 0q-6 3 -6 20v169q17 -1 47.5 -1h47.5h114q6 -2 7 -4t1 -13v-58q0 -11 -0.5 -32t-0.5 -31v-30v-17q-1 -1 -14 -1q-5 -1 -16 -1h-17q-63 -3 -64 -3zM781 785q8 0 23 1.5 t23 1.5q9 0 27 0.5t27 0.5q1 31 1 94q0 7 0.5 23t0.5 23q0 1 0.5 5t0.5 7.5t-1 4.5t-15 1h-90q-6 0 -23 1t-26 0q-6 0 -17.5 -1t-17.5 -1q1 -53 1 -158h45q1 0 17 -1.5t24 -1.5z" glyph-name="Adieresis" unicode=""/><glyph d="M997 8q-69 0 -103 1q-21 0 -23 1q-1 1 -11 17t-16 24q-26 42 -31 48q-13 18 -14 20q-1 1 -3 4.5t-3 4.5q-2 1 -15 1q-67 -3 -123 -2q-22 1 -67.5 1t-68.5 1h-32q-33 0 -35 -1q-5 -2 -13 -18q-1 -2 -7 -11t-9 -14q-5 -8 -16.5 -25t-17.5 -26l-12 -18q-4 -6 -8 -7 q-3 -1 -30 -1h-38q-11 0 -34.5 0.5t-35.5 0.5q-130 0 -196 3q32 56 48 85q21 39 25 45q6 9 17.5 24.5t16.5 24.5q112 170 129 196q15 24 57.5 86t63.5 98q9 17 30 49t30 48q14 28 22 31h25q5 0 15.5 -0.5t15.5 -0.5q21 0 64 -1t65 -1h60q21 0 31 1q1 0 9.5 1.5t8.5 -0.5 q5 0 8 -9q3 -4 8.5 -12.5t8.5 -12.5q31 -42 33 -46q11 -20 34.5 -54.5t32.5 -49.5q3 -7 11.5 -19t11.5 -18q5 -8 13 -23.5t11 -20.5q12 -19 36 -53t30 -44q7 -10 19.5 -27.5t22.5 -32t18 -27.5q55 -90 61 -99q11 -15 32 -47.5t32 -47.5l6 -7q6 -8 9 -12.5t6.5 -11.5 t1.5 -10.5t-9 -4.5q-18 -1 -161 -1h-47zM880 23h258h58q-56 77 -105 156q-3 4 -21.5 35.5t-29.5 46.5q-8 11 -22 35q-4 7 -13 18t-12 16q-10 15 -28 40.5t-24 34.5q-8 12 -21.5 37.5t-21.5 37.5q-11 16 -19 29q-8 14 -26 40q-6 9 -23.5 37t-27.5 43q-4 6 -13 17.5t-14 17.5 q-10 16 -11 17t-20 1q-48 -2 -97 0q-17 0 -50 0.5t-49 0.5q-7 0 -21 0.5t-22 0.5h-6.5h-8.5h-7q-5 -1 -10 -8q-1 -1 -2.5 -4l-2.5 -5q-16 -27 -48 -78t-46 -75q-5 -9 -47 -69q-32 -48 -49 -73q-36 -56 -55 -85q-5 -8 -26.5 -39t-31.5 -48q-6 -10 -27.5 -39.5t-30.5 -47.5 q-7 -15 -23.5 -44t-24.5 -44q25 0 73 -1t72 -1h121h27q12 0 16 5t8 11t8.5 13.5t7.5 11.5q3 5 25 40q3 4 8 12.5t8 12.5q6 12 11 14h14h26h60h70h82.5h70.5q2 0 9.5 1t13.5 1t9 -2q1 0 9 -12q2 -3 6.5 -9.5t6.5 -9.5q12 -15 31 -45.5t28 -43.5zM696 301h-149q26 41 36 55 q3 4 17 25q14 20 18 21q8 2 23 -21q16 -24 24 -37q5 -7 15.5 -21.5t15.5 -21.5zM573 315h95q-4 5 -20.5 31t-26.5 38q-25 -33 -48 -69zM622 752q-67 0 -92 19q-44 31 -51 78q-6 54 9 101t59 66q21 10 89 17q49 3 94 -18q28 -12 44 -42t16.5 -61.5t-5.5 -61.5 q-16 -59 -62 -81q-38 -17 -101 -17zM650 1019q-50 0 -85 -12q-41 -11 -61 -56q-16 -30 -12 -80q4 -51 31 -75q20 -20 35 -24q20 -4 45 -4q42 -3 81 4q48 9 73 47q22 36 19 83q-6 65 -32 89q-31 28 -94 28zM630 845q-42 0 -47 43q-6 51 45 54q22 2 37.5 -8.5t16.5 -31.5 q1 -25 -13.5 -41t-38.5 -16zM608 864q9 -6 24 -5t24 8q11 9 12.5 26t-8.5 27q-11 10 -30.5 9t-27.5 -12t-6 -27t12 -26v0z" glyph-name="Aring" unicode=""/><glyph d="M1454 -7q-26 0 -84.5 2.5t-89.5 1.5q-29 0 -85 -1t-84 -1q-59 0 -176.5 3.5t-175.5 3.5q-2 0 -13 -1t-19 -0.5t-12 4.5q-5 3 -6 8.5t0 15t1 10.5v79q-44 -1 -198 1h-25q-5 -1 -9.5 -6.5t-10 -16t-5.5 -11.5q-5 -8 -16 -24.5t-16 -24.5q-3 -4 -17 -25q-5 -8 -7 -9 q-3 -3 -23 -3h-110q-34 0 -101.5 1.5t-101.5 1.5q5 14 40 76q4 8 12 23t13 23q12 18 31 45q12 16 31.5 46t24.5 38q11 16 57 88q34 54 66 98q14 23 32 47q6 8 15.5 24.5t15.5 24.5q38 62 58 93q6 9 15.5 25.5t11.5 20.5q5 8 6.5 10t5.5 3.5t10 1.5q43 1 121.5 -0.5 t109.5 -1.5h27q3 0 10 1t11 1t10 -1t10 -1h34q21 0 60 2t51 2q25 1 223 1q163 0 218 -3q43 -3 122 -3t100 -1q13 0 14 -1v-8q1 -8 2.5 -26t2.5 -26v-53l1 -31q0 -32 -1 -32q0 -6 -2 -8t-16 -2q-10 -1 -31 -1q-91 0 -99 1t-100 1q-43 0 -85 -3q-7 -1 -21 0t-18 1h-61 q-13 0 -39.5 -1t-39.5 -1q-15 0 -47 -1t-47 -1h-13q-5 -1 -6 -3q-3 -6 0 -24v-16v-5q-1 -4 0 -5t5 0h36q35 0 106 2.5t106 2.5h37.5h44.5h37q0 -1 50 -1l51 1q16 0 48 -2q16 -1 16 -17q0 -12 1 -48t0 -56q0 -55 -1 -60q-2 -11 -19 -11q-40 -3 -81 -3q-40 -1 -115 2t-109 3 q-33 0 -99 -3.5t-100 -3.5h-19q-1 -1 -1.5 -12.5t-0.5 -12.5v-30q31 1 104 -0.5t104 1.5q33 2 98 2q87 -3 96 -2h42q18 -1 55 1q18 1 56 1h56q16 -2 17 -20q0 -27 -1 -41q-1 -12 -1 -107v-6.5v-6.5t-1 -4.5t-3 -4t-6 -2.5q-14 -3 -47 -5q-13 0 -57 -2t-67 -2zM1307 12 q11 0 34.5 -1t35.5 -1q7 0 30 -0.5t36 -1.5q14 -1 39 0t32 1q12 1 34.5 2t33.5 1q4 0 7.5 0.5t8 1.5t7.5 1q8 0 10 1t4 0l1 2q1 2 1 3v21v74q0 6 1 25t0 29q0 7 -2 9h-14h-37l-69 -1q-69 -1 -69 1q-8 0 -32 -1.5t-32 0.5q-11 1 -67 1h-66q-7 0 -29 -2t-34 -2 q-26 -1 -73.5 0.5t-66.5 1.5h-27q-9 2 -9 19q-1 23 2 51q0 11 2 13q1 1 13 1h43q24 0 123.5 5t123.5 0q12 -1 35.5 -1t35.5 -1q24 -2 72 -2q9 0 28 0.5t29 0.5t16 1q11 0 16 1q4 1 5 2q1 2 1 9q2 14 0 70t-2 70v10q-1 1 -5 3q-4 1 -14 1h-36q-10 0 -30 -0.5t-30 -0.5 q-13 -1 -36 0t-30 1h-75q-22 0 -67 -1t-68 -1q-11 0 -32.5 -1t-32.5 -1h-72q-6 1 -8 6q-1 4 -1 9.5t0.5 12t0.5 9.5q-1 12 0 25q0 14 2 16q3 3 13 3q6 1 18.5 1h18.5q10 0 30.5 0.5t30.5 0.5q15 0 45 1.5t46 1.5q13 0 55 -1t65 0q12 0 32 1t36.5 1.5t31.5 0.5q22 0 67 -1 t68 -1h46q19 0 20 1v16v21q0 62 -1 74q0 5 -1 14t-1 13q0 11 -1 16q-1 3 -7 3q-24 0 -71 1t-70 1q-48 0 -72 2q-17 1 -53 3h-145q-192 2 -266 -2q-13 -1 -38 -1t-37 -1q-38 -2 -66 1q-6 1 -16 0t-13 -1h-35h-73q-92 2 -137 2h-13q-2 -1 -9 -15q-12 -20 -18 -31 q-5 -9 -16.5 -26.5t-17.5 -26.5q-69 -109 -71 -112q-14 -20 -40.5 -60t-39.5 -59q-9 -14 -32 -50t-37 -55q-23 -34 -40 -62q-7 -10 -20 -28t-18 -26q-6 -10 -16.5 -30t-13.5 -25t-14 -24t-16 -29q27 0 82.5 -1t83.5 -1h103h26q10 0 18 12q18 25 50 75q16 29 21 32h12h64h157 q11 0 16 -3q1 -1 1 -7v-13l-1 -7q0 -13 -0.5 -39t-0.5 -38v-2q0 -4 0.5 -5t1.5 -1.5t5 -0.5h2q5 0 13.5 -0.5t12.5 -0.5h47q22 -2 99 -2q37 0 105.5 -2.5t95.5 -2.5q34 0 101 1.5t100 1.5zM613 291q-21 0 -25 5q-1 4 -1 6t2.5 7t4.5 7.5t5 6.5t4 5q8 12 26 38q1 2 5 8.5 t7.5 11t6.5 5.5q9 5 25 -18q16 -24 23 -35l30 -42q-14 -5 -41 -5h-72zM606 306h95l-22 33t-25 36q-7 -11 -24 -33.5t-24 -35.5z" glyph-name="AE" horiz-adv-x="1749" unicode=""/><glyph d="M1115 264v-50q0 -78 -31 -120q-19 -27 -42 -47q-19 -18 -57 -30q-10 -4 -59 -11q-23 -4 -51 -4q-85 2 -128 0q-31 0 -46 -1q-4 -23 3 -31q4 -6 14.5 -7.5t26 -1t18.5 0.5q41 0 68 -11q35 -14 57 -31q49 -34 51 -115q1 -58 -56 -106q-50 -42 -133 -42q-30 0 -89 0.5 t-88 0.5h-20h-22t-20 0.5t-22 1.5t-19.5 3t-20.5 5.5t-18 7.5q-35 18 -61.5 48t-27.5 64q0 24 2 27q1 2 6.5 2.5t12 0.5h8.5q27 1 80 1h87q8 -1 23 -1t22 -1h14q2 0 8.5 0.5t8.5 -0.5q3 -2 4 -5.5t0.5 -7.5t0.5 -7q2 -9 11.5 -11.5t17.5 1.5q15 7 13 29q-3 18 -23 24 q-9 3 -20.5 4t-20 1t-22 -0.5t-20.5 -0.5q-6 0 -19.5 -0.5t-22 -0.5t-20 1t-19.5 4q-36 13 -42 60q-2 12 -2.5 25.5t0.5 30.5t1 25v9h-17q-7 0 -26.5 1.5t-30.5 0.5q-40 -2 -62 -1q-39 2 -57 7q-13 3 -54 21q-49 22 -83 68q-24 30 -24 86q-7 189 -6 254q0 69 13 118 q16 49 59 88q47 42 108 47q23 3 91 3q20 0 41.5 0.5t48 1.5t41.5 1q11 0 34.5 -0.5t35.5 -0.5q10 0 31.5 -1t32.5 -1q135 -2 244 1q78 2 118 -8q62 -17 99 -60q41 -49 45 -99q2 -22 2 -66v-32q0 -11 -1 -12q-2 -2 -19 -2h-30q-23 0 -67 2q-95 0 -142 -1q-20 0 -41 -3 q-2 27 -7 40q-11 28 -45 40q-8 4 -18.5 5t-23.5 1t-19 1q-10 0 -65 -2q-17 0 -65 1.5t-65 -0.5q-77 -4 -106 -26q-18 -13 -22 -49q-4 -30 -1 -53q1 -17 1 -52q0 -52 3 -65q5 -27 38 -45q6 -3 14.5 -5t14 -2t16 -0.5t14.5 -0.5q17 -1 51.5 -1t51.5 -1q44 -2 130 0q42 2 58 10 q30 18 37 35q3 6 8 26q0 1 1 7t2 7t15 1h38h31.5h37h31.5q17 -1 59.5 -1.5t65.5 -2.5q16 0 18 -2q1 -2 1 -13zM1100 204v41v19q0 1 -15 1q-6 0 -18 2h-13h-16h-14q-10 0 -31 0.5t-32 0.5h-64h-43h-21q-4 -2 -6 -14q-9 -24 -15 -31t-25 -21q-22 -17 -62 -19q-73 -3 -146 0 q-19 1 -64.5 1t-70.5 2q-41 3 -64 36q-15 22 -15 74q-2 108 1 139q6 63 102 74q20 2 151 2q9 0 38 1t45 0q27 0 41 -1q11 0 35 -10q36 -16 47 -54q2 -8 2 -12q1 -6 2.5 -7t7.5 0q15 1 44 1q117 0 175 -1q18 -2 38 0q5 0 6 3v13v25q0 66 -5 82q-7 26 -37 62q-18 21 -58 43 q-23 13 -74 21q-16 4 -77 1.5t-77 -2.5q-15 0 -44 1t-43 1q-12 0 -42 -1.5t-46 -0.5q-96 5 -178 2q-18 -1 -69 -1t-78 -2q-43 -4 -70 -14q-34 -13 -66 -47q-26 -26 -36 -60q-8 -27 -12 -78q-4 -47 0 -165q1 -22 1 -72t2 -72q8 -85 92 -124q46 -22 84 -27q12 -2 94 -2 q12 0 35.5 -1t35.5 -1h2h11q0 -8 1 -13v-1v-36q0 -54 1 -59q7 -30 29 -40q8 -4 17 -5t24.5 0t17.5 1h63q38 0 57 -10q25 -13 20 -44t-33 -35q-14 -2 -25 5t-12 20q-1 6 -2 7h-6t-6 1q-18 0 -27 1q-44 1 -130 1q-20 0 -58 -2h-13q-4 -1 -4.5 -1.5t-1 -1.5t-0.5 -5 q0 -17 3 -25q14 -47 75 -79q22 -12 58 -16q7 0 19 -1t22 -1.5t18 -0.5q23 1 141 1q8 0 32.5 -0.5t37 -0.5t31.5 3t34 9q55 20 85 73q15 31 11 64.5t-23 61.5q-17 24 -47 41q-40 20 -61 22q-11 1 -38 1t-41 3q-18 3 -22.5 13.5t-4.5 30.5q1 3 1 21v-1l24 2q84 2 125 2 q103 0 138 11q39 11 64 35q34 32 47 63q14 32 14 77z" glyph-name="Ccedilla" horiz-adv-x="1207" unicode=""/><glyph d="M826 -4q-25 0 -155 5q-61 2 -153 -3q-67 -2 -133 3q-27 1 -160 1q-26 0 -78 2q-7 0 -20 1t-19 1h-32q-5 2 -5 12q-2 21 0 43q1 14 1 40v39q4 104 3 157q-1 13 -1 40t-1 41v82q3 29 3 150q-1 12 -1 38q0 32 1 36q2 5 3 6h4h27q46 0 139 2.5t140 2.5q5 0 17 -0.5t18 -0.5 h18h18q21 -2 65 0h38h38q26 1 78 1q19 0 69.5 -2.5t78.5 -2.5q27 0 79.5 -0.5t78.5 -0.5q10 0 12 -4q2 -3 2.5 -8t0.5 -11v-9q3 -21 3 -64v-80v-12h-15q-13 0 -53 -1t-62 0q-118 2 -148 0q-11 -2 -67 -0.5t-67 1.5q-12 0 -37.5 -1.5t-38.5 -1.5q-49 0 -74 -1q-13 -1 -39 -1 h-18h-7q-1 -1 -1 -6v-6q0 -30 1 -35q1 -3 1 -5q1 1 4 0h9q8 -1 25 -1q105 0 157 3q32 2 145 2q13 0 39 -0.5t38 -0.5t35.5 0.5t34.5 0.5q8 0 30 -2q18 0 19 -1t1 -22q0 -24 1 -37v-82q0 -23 -1 -34v-11q-1 -3 -5 -4q-5 -2 -15.5 -2.5t-11.5 -0.5q-11 -1 -33 -1 q-49 0 -140.5 2.5t-127.5 2.5q-25 0 -75 -3t-75 -3h-39h-20q-1 -2 -1 -20q-4 -32 -1 -35q1 -1 14 -1q8 -1 26 -1q133 0 150 1q63 3 126 3q11 0 34 -1.5t35 -1.5q24 1 73 1q22 0 72 1t77 0q17 0 19 -2q1 -1 1 -26q0 -13 -0.5 -39t-0.5 -39v-78q-1 -6 -2 -6.5t-4 -0.5 q-4 -1 -13 -1t-13 -1q-11 -1 -68 -4q-8 0 -22.5 -1t-26.5 -1.5t-22 -0.5zM651 16q22 0 92.5 -3t109.5 -1q10 0 29.5 0.5t35 1t29.5 1.5q12 2 17 2q1 0 6.5 0.5t7.5 1.5q3 1 4 1q-1 1 1 4q1 3 1 7.5t-0.5 10t-0.5 7.5v31v51q0 5 0.5 13t0.5 13v10v10q1 5 -4 5h-22h-24h-53 q0 -3 -95 -2l-96 2q-26 1 -79 1q-6 0 -39.5 -2.5t-51.5 -1.5h-109q-32 0 -48 1q-1 0 -3 1q-3 0 -4 1v17q0 7 1 22t1 23v19q2 1 8 1q19 1 55.5 1.5t48.5 0.5q21 0 63 1.5t63 2t63 -0.5q81 -4 183 -4h17t20 0.5t17 2.5l5 2v17v28q1 22 0 63t-1 53q-6 0 -19 1.5t-20 1.5 q-32 0 -48 -1t-72 1h-83q-19 0 -125 -4t-162 -1q-7 3 -8 6t-1 47q0 25 2 27q1 1 12 1q9 1 26 1q33 0 97 2t96 2q14 1 41.5 0t41.5 -1l90 3q30 0 90 -1t90 -1h30h10v21q0 85 -1 102q0 24 -3 31l-9 5h-9h-29q-16 0 -48.5 1t-48.5 1q-30 0 -90 2t-91 2q-124 -2 -186 -1 q-115 2 -154 0q-84 -4 -191 -4h-23h-15v-4v-26v-30v-96q-1 -34 -1 -202q0 -33 -1.5 -98.5t-1.5 -98.5v-49q-4 -47 1 -51h23h21q17 -2 50 -2q29 -1 97 -1t105 -2q39 -2 174 -2q93 3 94 3zM485 772q-7 0 -23 1t-24 1t-12 5q-4 4 -14 19q-33 45 -42 71q-3 8 -13.5 21.5 t-12.5 15.5q-9 15 -25 45q-10 21 -42 70q14 3 65 5h98h101h39q15 0 20 -6q4 -5 15 -29q7 -15 21 -47q5 -12 29 -65q5 -12 19 -38.5t20 -40.5q9 -16 4 -22q-2 -2 -27 -2q-16 0 -47.5 -1t-47.5 -1q-32 -2 -48 -1q-10 1 -28.5 0t-24.5 -1zM443 788h61q11 1 33 0t34 0h31.5 t30.5 1q10 0 30 0.5t30 0.5q-9 20 -28.5 59t-28.5 59l-24 54q-8 18 -17 37q-5 11 -10 12h-31q-13 1 -38 1q-12 0 -37.5 -0.5t-38.5 -0.5q-23 0 -69 -1t-69 -1q14 -21 37 -65q12 -21 38 -57q3 -4 5.5 -11.5t4.5 -10.5q1 -2 15 -25q6 -9 18 -29q1 -1 4.5 -7t5.5 -8.5t5.5 -5 t7.5 -2.5z" glyph-name="Egrave" horiz-adv-x="1091" unicode=""/><glyph d="M826 -4q-25 0 -155 5q-61 2 -153 -3q-67 -2 -133 3q-27 1 -160 1q-26 0 -78 2q-7 0 -20 1t-19 1h-32q-5 2 -5 12q-2 21 0 43q1 14 1 40v39q4 104 3 157q-1 13 -1 40t-1 41v82q3 29 3 150q-1 12 -1 38q0 32 1 36q2 5 3 6h4h27q46 0 139 2.5t140 2.5q5 0 17 -0.5t18 -0.5 h18h18q21 -2 65 0h38h38q26 1 78 1q19 0 69.5 -2.5t78.5 -2.5q27 0 79.5 -0.5t78.5 -0.5q10 0 12 -4q2 -3 2.5 -8t0.5 -11v-9q3 -21 3 -64v-80v-12h-15q-13 0 -53 -1t-62 0q-118 2 -148 0q-11 -2 -67 -0.5t-67 1.5q-12 0 -37.5 -1.5t-38.5 -1.5q-49 0 -74 -1q-13 -1 -39 -1 h-18h-7q-1 -1 -1 -6v-6q0 -30 1 -35q1 -3 1 -5q1 1 4 0h9q8 -1 25 -1q105 0 157 3q32 2 145 2q13 0 39 -0.5t38 -0.5t35.5 0.5t34.5 0.5q8 0 30 -2q18 0 19 -1t1 -22q0 -24 1 -37v-82q0 -23 -1 -34v-11q-1 -3 -5 -4q-5 -2 -15.5 -2.5t-11.5 -0.5q-11 -1 -33 -1 q-49 0 -140.5 2.5t-127.5 2.5q-25 0 -75 -3t-75 -3h-39h-20q-1 -2 -1 -20q-4 -32 -1 -35q1 -1 14 -1q8 -1 26 -1q133 0 150 1q63 3 126 3q11 0 34 -1.5t35 -1.5q24 1 73 1q22 0 72 1t77 0q17 0 19 -2q1 -1 1 -26q0 -13 -0.5 -39t-0.5 -39v-78q-1 -6 -2 -6.5t-4 -0.5 q-4 -1 -13 -1t-13 -1q-11 -1 -68 -4q-8 0 -22.5 -1t-26.5 -1.5t-22 -0.5zM651 16q22 0 92.5 -3t109.5 -1q10 0 29.5 0.5t35 1t29.5 1.5q12 2 17 2q1 0 6.5 0.5t7.5 1.5q3 1 4 1q-1 1 1 4q1 3 1 7.5t-0.5 10t-0.5 7.5v31v51q0 5 0.5 13t0.5 13v10v10q1 5 -4 5h-22h-24h-53 q0 -3 -95 -2l-96 2q-26 1 -79 1q-6 0 -39.5 -2.5t-51.5 -1.5h-109q-32 0 -48 1q-1 0 -3 1q-3 0 -4 1v17q0 7 1 22t1 23v19q2 1 8 1q19 1 55.5 1.5t48.5 0.5q21 0 63 1.5t63 2t63 -0.5q81 -4 183 -4h17t20 0.5t17 2.5l5 2v17v28q1 22 0 63t-1 53q-6 0 -19 1.5t-20 1.5 q-32 0 -48 -1t-72 1h-83q-19 0 -125 -4t-162 -1q-7 3 -8 6t-1 47q0 25 2 27q1 1 12 1q9 1 26 1q33 0 97 2t96 2q14 1 41.5 0t41.5 -1l90 3q30 0 90 -1t90 -1h30h10v21q0 85 -1 102q0 24 -3 31l-9 5h-9h-29q-16 0 -48.5 1t-48.5 1q-30 0 -90 2t-91 2q-124 -2 -186 -1 q-115 2 -154 0q-84 -4 -191 -4h-23h-15v-4v-26v-30v-96q-1 -34 -1 -202q0 -33 -1.5 -98.5t-1.5 -98.5v-49q-4 -47 1 -51h23h21q17 -2 50 -2q29 -1 97 -1t105 -2q39 -2 174 -2q93 3 94 3zM597 775q-61 0 -183 2h-41q-12 0 -13 4v3q0 4 11 31q12 24 18 37q30 60 38 78 q29 68 38 84q6 14 17 14q3 1 10.5 -0.5t10.5 -1.5q18 2 26 2q16 1 45.5 -0.5t41.5 -1.5q16 0 54 1t66.5 0.5t54.5 -3.5q-5 -11 -17 -30.5t-16 -26.5q-32 -60 -49 -82q-5 -7 -11.5 -20.5t-9.5 -18.5q-8 -14 -26 -40q-15 -28 -24 -31q-5 -2 -12 -2t-16 1t-13 1zM376 791 q21 0 62.5 -1t61.5 -1h73h36h6h7h6q4 1 9 5q3 3 38 59l12 24q1 1 17 26q13 18 33 55t31 53q-46 1 -137 1q-12 0 -34 1t-33 1h-34q-5 0 -17.5 -1.5t-19.5 -0.5q-12 0 -13 -1q-5 -3 -8 -17q-9 -15 -14 -29q-4 -8 -13.5 -30.5t-15.5 -34.5q-5 -11 -15 -30.5t-14 -27.5 q-10 -26 -24 -51z" glyph-name="Eacute" horiz-adv-x="1091" unicode=""/></font>
</defs>
</svg>
