<svg id="Layer_2" data-name="Layer 2" xmlns="http://www.w3.org/2000/svg" viewBox="0 0 454.04 390.61"><defs><style>.cls-1,.cls-3{fill:none;stroke-miterlimit:10;}.cls-1{stroke:#231f20;stroke-width:6px;}.cls-2{fill:#fab292;}.cls-3{stroke:#fee9dd;stroke-width:8px;}</style></defs><path class="cls-1" d="M137.08,132" transform="translate(-3.31 -7.46)"/><path class="cls-2" d="M124.33,161.89c-.27.34,3.37-3.12,4-3.73C127.48,158.84,123.38,162.78,124.33,161.89Z" transform="translate(-3.31 -7.46)"/><polygon class="cls-2" points="112.01 161.51 113.52 160.11 109.75 163.45 112.01 161.51"/><path class="cls-2" d="M114.72,168.2c-6.17,5.94,1.25-.7-.85,1.52l-1.4,1.36,5.07-4.67C116.6,167,113.09,169.94,114.72,168.2Z" transform="translate(-3.31 -7.46)"/><path class="cls-2" d="M127.85,155.11c-2.41,2.31-2.17,1.89-.68.8l.6-.59S127.71,155.31,127.85,155.11Z" transform="translate(-3.31 -7.46)"/><path class="cls-2" d="M127.77,155.32c.25-.09,2-2,0,0Z" transform="translate(-3.31 -7.46)"/><path class="cls-2" d="M126.06,156.29l2.26-1.95c1.41-1.37,1.65-1.76,2.72-2.71A67.38,67.38,0,0,0,126.06,156.29Z" transform="translate(-3.31 -7.46)"/><path class="cls-2" d="M121.42,160.48l1-.81C123,159.09,123.18,158.88,121.42,160.48Z" transform="translate(-3.31 -7.46)"/><path class="cls-2" d="M124.42,158l-2,1.72c-1,1-3,2.87.74-.61C121.28,160.79,123.07,159.14,124.42,158Z" transform="translate(-3.31 -7.46)"/><path class="cls-2" d="M123.53,158.91a53.14,53.14,0,0,1-4.34,4.14C120.22,162.43,124.58,158.27,123.53,158.91Z" transform="translate(-3.31 -7.46)"/><path class="cls-2" d="M108.25,174.24,106.49,176l2.15-1.9C107.57,175.07,110.19,172.39,108.25,174.24Z" transform="translate(-3.31 -7.46)"/><path class="cls-2" d="M128.71,152.64c-1.33,1.24-3.5,3.36-5.19,5l1.59-1.37C126,155.35,126.75,154.49,128.71,152.64Z" transform="translate(-3.31 -7.46)"/><path class="cls-2" d="M123.52,157.61l-2.38,2C121,160,122.06,159,123.52,157.61Z" transform="translate(-3.31 -7.46)"/><polygon class="cls-2" points="111.18 159.53 116.13 155.2 111.09 159.56 111.18 159.53"/><polygon class="cls-2" points="125.18 144.61 128.31 141.78 123.57 146.04 125.18 144.61"/><path class="cls-2" d="M127.69,152.3c2.59-2.35,4.25-4.12,5.86-5.55-.53.36-2.77,2.35-4.79,4.15C129.92,149.92,129.7,150.25,127.69,152.3Z" transform="translate(-3.31 -7.46)"/><path class="cls-2" d="M125.81,153.5c.64-.55,1.76-1.54,2.95-2.6C128.15,151.42,127.27,152.18,125.81,153.5Z" transform="translate(-3.31 -7.46)"/><path class="cls-2" d="M121.62,158.84c.8-.76,2.88-2.75,3.71-3.65l-3.69,3.56S121.63,158.81,121.62,158.84Z" transform="translate(-3.31 -7.46)"/><path class="cls-2" d="M121.52,158.86l.12-.11a1.83,1.83,0,0,1,.12-.29Z" transform="translate(-3.31 -7.46)"/><path class="cls-2" d="M121.62,158.87s0,0,0,0C121.26,159.19,121.14,159.31,121.62,158.87Z" transform="translate(-3.31 -7.46)"/><path class="cls-2" d="M117.6,163.52c-2.15,1.91-4.51,3.89-7.57,7C112.63,168.17,114.37,166.39,117.6,163.52Z" transform="translate(-3.31 -7.46)"/><path class="cls-2" d="M117,163.32l-.74.92c1-.93,2.4-2.31,3.46-3.25Z" transform="translate(-3.31 -7.46)"/><polygon class="cls-2" points="112.46 156.93 113.7 155.86 113.97 155.53 112.46 156.93"/><path class="cls-2" d="M122.51,157a11.76,11.76,0,0,1-2.18,1.74c-.67.75-1,1.2-.93,1.25C120.58,158.89,122.71,156.93,122.51,157Z" transform="translate(-3.31 -7.46)"/><path class="cls-2" d="M121.7,158.21l-.22.19C121.17,158.7,121.07,158.8,121.7,158.21Z" transform="translate(-3.31 -7.46)"/><path class="cls-2" d="M119.79,158.1l-.67.65.65-.6Z" transform="translate(-3.31 -7.46)"/><path class="cls-2" d="M118.71,160.65c-.67.73.27-.1,1.45-1.16-.41.32-.69.51-.76.49C118.86,160.48,118.51,160.81,118.71,160.65Z" transform="translate(-3.31 -7.46)"/><path class="cls-2" d="M123.91,155l-2,2C123.1,155.85,124.89,154.07,123.91,155Z" transform="translate(-3.31 -7.46)"/><path class="cls-2" d="M122.49,157.41l.18-.15C123.45,156.49,123.06,156.86,122.49,157.41Z" transform="translate(-3.31 -7.46)"/><path class="cls-2" d="M122.49,157.41c-.56.48-1.5,1.33-2.33,2.08.32-.25.74-.6,1.32-1.09Z" transform="translate(-3.31 -7.46)"/><path class="cls-2" d="M95.67,180.51c3.46-3.26,6.78-6.14,3.18-2.53,2.7-2.34,14-13.14,20.27-19.23-1.51,1.42-2.91,2.74-5.05,4.55-1.86,1.82-4.18,4.41-7.4,7.27-1.93,1.53,1.1-1.28,2.86-3.08-4.25,4.13-6.45,5.73-12.75,11.73l2.35-2C98.15,178.18,96.53,179.62,95.67,180.51Z" transform="translate(-3.31 -7.46)"/><path class="cls-2" d="M119,159.3l.47-.36c.56-.62,1.9-2,4.54-4.58-1.76,1.51-3.06,2.71-4.21,3.79l-.27.68Z" transform="translate(-3.31 -7.46)"/><path class="cls-2" d="M119.65,159.14c-3.79,3.51-5.5,4.91-9.5,8.81.38-.1,3.23-2.86,4.94-4.32-1.14.66,2.15-1.91,4.14-4.08a8,8,0,0,1,1.1-.82c.42-.47,1-1,1.61-1.74-.08.09-.15.15-.23.23h0l-.06,0c-.46.46-.75.73-.48.46l-.09.07-1.42,1.33a10.13,10.13,0,0,1,1.42-1.33l.57-.53,0,0-2.27,1.72C119,159.48,119.13,159.44,119.65,159.14Z" transform="translate(-3.31 -7.46)"/><path class="cls-2" d="M101.83,178l.87-.83A7.39,7.39,0,0,0,101.83,178Z" transform="translate(-3.31 -7.46)"/><path class="cls-2" d="M104,175.81c.54-.48,2-1.88,1.71-1.46-1.08,1.11-1.8,1.7-3,2.86,1-.91,2.8-2.43,4.53-4.25l-.52.46c1.21-1.3,5.79-5.85,6.32-6.32C109.67,170.32,107.28,172.62,104,175.81Z" transform="translate(-3.31 -7.46)"/><path class="cls-2" d="M110.87,168.37l-2,1.56-3.17,3.16,1.95-1.85C107,172.07,109.35,169.78,110.87,168.37Z" transform="translate(-3.31 -7.46)"/><polygon class="cls-2" points="118.33 148.86 122.33 145.14 116.62 150.32 118.33 148.86"/><polygon class="cls-2" points="117.63 149.07 121.1 145.82 118.95 147.72 117.63 149.07"/><path class="cls-2" d="M65.34,183.45l-1,.87C64.64,184.06,65,183.77,65.34,183.45Z" transform="translate(-3.31 -7.46)"/><path class="cls-2" d="M65.47,184.07l1.71-1.6C66.23,183.34,65.53,184,65.47,184.07Z" transform="translate(-3.31 -7.46)"/><path class="cls-2" d="M115,151c3.15-3.12,8.07-7.93,4.19-4.26l-3.76,3.6C116.17,149.77,115.79,150.21,115,151Z" transform="translate(-3.31 -7.46)"/><path class="cls-2" d="M88.6,168.32l-1.13,1.11,3.67-3.37Z" transform="translate(-3.31 -7.46)"/><path class="cls-2" d="M72.87,183.05l2.35-2.41C74.39,181.47,73.6,182.27,72.87,183.05Z" transform="translate(-3.31 -7.46)"/><path class="cls-2" d="M59.31,185.1l-3.92,3.58A49,49,0,0,0,59.31,185.1Z" transform="translate(-3.31 -7.46)"/><path class="cls-2" d="M117.23,155.39a26,26,0,0,0,2.13-2.32C117.26,155.2,114.06,158.34,117.23,155.39Z" transform="translate(-3.31 -7.46)"/><path class="cls-2" d="M105.68,145.7c-.72.62-1.51,1.33-2.35,2.13C104,147.25,104.75,146.58,105.68,145.7Z" transform="translate(-3.31 -7.46)"/><path class="cls-2" d="M119.16,152.88l-.86.88c.68-.55,1.24-1,1.06-.69C120.92,151.48,121.85,150.47,119.16,152.88Z" transform="translate(-3.31 -7.46)"/><path class="cls-2" d="M55.13,174.39l.43-.45C55.05,174.42,55,174.46,55.13,174.39Z" transform="translate(-3.31 -7.46)"/><path class="cls-2" d="M91.21,136.08c.26-.2.3-.17.38-.18C91.84,135.64,91.78,135.63,91.21,136.08Z" transform="translate(-3.31 -7.46)"/><path class="cls-2" d="M121.68,154c.3-.18.43-.38,0,0Z" transform="translate(-3.31 -7.46)"/><path class="cls-2" d="M106.94,168.38c-.44.39-1,.89-1.86,1.72C106,169.24,106.58,168.7,106.94,168.38Z" transform="translate(-3.31 -7.46)"/><path class="cls-2" d="M95.11,174.61v0C94.39,175.31,94.53,175.17,95.11,174.61Z" transform="translate(-3.31 -7.46)"/><path class="cls-2" d="M120,155.7c.45-.45.82-.84,1.07-1.12C120.81,154.87,120.47,155.23,120,155.7Z" transform="translate(-3.31 -7.46)"/><path class="cls-2" d="M121.81,154c-.15.17-.23.28-.32.39C122.13,153.81,122.52,153.43,121.81,154Z" transform="translate(-3.31 -7.46)"/><path class="cls-2" d="M121.41,154.13c.09,0-.06.17-.31.45l.58-.58A1,1,0,0,1,121.41,154.13Z" transform="translate(-3.31 -7.46)"/><path class="cls-2" d="M69.18,169l.35-.35C67.91,170.07,68.18,169.85,69.18,169Z" transform="translate(-3.31 -7.46)"/><path class="cls-2" d="M74.43,186.79l.19-.17s.08-.09.13-.13Z" transform="translate(-3.31 -7.46)"/><path class="cls-2" d="M71.44,189.27c4.78-4.37,4.25-3.78,3.31-2.78l10.86-10.36Z" transform="translate(-3.31 -7.46)"/><path class="cls-2" d="M63.36,183.55l-3.28,3.33c-5.74,5.13-3.92,3.2-8.59,7.83,11.87-11.16,1.68-.65,13.54-11.8l-2.41,2.44c.09-.14-.61.52-.51.38-5.53,5.52,8.68-8,7.2-6.16-.84.93-2.52,2.61-4,3.88l3.09-2.6a19.42,19.42,0,0,1-2.08,1.94l1.19-.65-.36.33c1.9-1.72,4.85-4.35,6.11-5.46-1.64,1.67-1.29,1.15-2.75,2.56l3-2.57c-3,3-6.11,5.65-5.76,5.14-11.71,11.3,3.1-2.7-3.55,4.1l-1.63,1.29c-6.65,6.43-4.11,4.23-8.17,8.34,2.16-2.1,10.29-10.27,13.38-12.9-.85.89-1.22,1.34,1.24-.83-4.22,4-3.11,3.08-2.77,3l-5.59,5.26c1.71-1.42,4.54-4.11,7.12-6.41-.44.63-4.74,4.74-8.36,8.2-.71,1,6.81-6.67,8.08-7.44-2,2.18.4.14,3.92-2.82-1.82,1.92-3.43,3.2-5,4.75L71,182.53c-.08.13-1.46,1.41-2.15,2.06,1.8-1.55,5.59-5.26,7.23-6.56,6.18-5.76-8.74,8.75-1.6,2.32-1.55,1.54-3.44,3.21-5.59,5.26,4.79-4.1,3.51-3,9.85-8.58l-3.52,3.61c4.08-4.07,9.18-8.6,13.38-12.32,2-1.95,3.73-3.66,4.55-4.48l3.19-2.62c-.9.89-2.83,2.68-5.2,4.84l1.38-1.22c-2,2-5.26,5-8.42,7.91l3.37-3.32c-3.44,3.15-7.24,6.64-10.5,9.74.66-.6,1.23-1.09,1.57-1.36-.93.86-1.76,1.62-2.31,2.16s.67-.59,2.13-1.9L72.18,184l2.48-2.32L71,185.61c6.45-5.72,15.83-14.25,18.69-16.37-4.64,4.23-7.47,7-12.89,12.11,5.65-5.48-2.65,2.06-1.64.81-.52.64-3.12,3.06-4,3.89l5.47-4.64c-4.43,4.17-3.26,3.19-5,5,8.69-8.3,6-5.28,8.81-7.7-2.93,2.78-6,5.58-5.38,4.77-6.44,6.36,10.46-9.49,5-4.06-.11,0,.33-.41-1.18,1,2.68-2.38.8-.23-1.8,2.13l-.09,0c-.83,1.21.58.75,8-6.22-1,.91-9,8.41-10.49,9.82L99.87,163c-6.41,6-21.47,20.44-25.25,23.65-.86.91-1.86,2,.5,0,.87-.89,9.13-8.78,9.77-9.29-7,6.84-3.71,3.68-9.61,9.56,1.32-1.35,11.38-10.72,11.14-10.33-1.51,1.4-9.86,9.32-10.93,10.27l10-9c-1.82,1.61-8.33,7.83-11.06,10.5,1.9-1.84,0,.36,1-.5l2.19-2.24c-1.25,1.64,14-12.78,13.75-12.06-2.06,1.89-12.55,11.7-13.67,13,5.08-4.68,24.42-22.56,28.49-26l-2.83,2.75,3.42-2.93c-7.66,7-23.85,21.76-30.19,27.45-2.19,2.24-3.37,3.22-3,3.11a42.21,42.21,0,0,1-4.35,3.89l-1.44,2c5.86-5.55,6.12-5.31,11-9.93l-6.4,5.39c5.84-5.54,16.84-15.51,16-14.31C86.19,180.1,78,187.65,76,189.5c2-1.88,4.06-3.42,2.65-2.05l-3.23,2.86c-2.09,2.21,8-7.13,2.51-1.7-.33.41-7.41,7.29-3.93,4,6.62-6.4,27.32-26,32.4-30.64-.43.44-6.14,6.31-9.39,9.49-5.17,5-12.64,11.67-17.08,16,1.6-1.51,3.63-3.33,4.28-3.91-1.32,1.35-5,4.66-4.15,4.1,6-5.6-.28.71,5.08-4.69,1.81-1.49-1.1,1.28-.72,1.17,3.81-3.67,13.21-12.22,15-13.71-1.52,1.42-3.46,3.31-4.35,4.17-.31.74-2.89,3.42-2.74,3.69-1.42,1.38-3.06,3.13-5.66,5.5,1.08-1,3.12-2.83,3.33-2.9-5,5-.94.6-7,6.53,3.47-3.25,4.94-4.32,7.19-6.26,5.31-5.07.81-1.19-1.44.75,7.37-6.95,15.24-14.06,18.87-17,2-1.54-4.69,4.57-3.61,3.62-1,1.56,13.14-11.84,8.1-6.54-4.59,4.54-9.34,8.81-12.7,12-1.92,1.53,2.77-3,2.48-3l-2.1,2.22c-1.61,1.43-2.89,2.45-1.58,1.11-4.12,4.07-.25,1.35-3.89,5.28,1.61-1.43,3.32-2.89,5.17-4.7l-.74.53c3.72-3.65,5.39-4.78,7.06-6.55,2.76-2.4,7.06-6.22,5.08-4L105.57,170c1.56-1.48,3.09-3.11,1.42-1.62,2.43-2.17-7,7.08.06.54l3.6-3.61c2.8-2.42,8.62-7.64,7.06-5.9,5.23-5.05-.64.53,5.45-5.4-7.61,7.35,0-.67-8,7.1,7.08-6.87,2.88-3.05,8.87-9-1.76,1.67-3.33,3.23-2.57,2.3l-1.58,1.44.12-.14-.2.21c-.27.24-.32.29-.07.07-.74.76-1.65,1.65-2.63,2.59-4.11,3.77-4.16,3.46-6.31,5.37.77-.86,2.05-1.88,3.9-3.69l-3.23,2.86c3.91-3.71,6.33-6.33,8.79-8.33l0-.32c2.12-2.16,2.88-3.1,1.16-1.62.78-.87-4.51,3.91-1.38,1.08L117.44,156l1-.93c.27-.7-6.94,5.65-.12-1.29-1.06.85-2.35,1.91-1.36.73l3.37-3.22c-1.28,1,3.11-3.5-.46-.21,9-8.72,1.53-2.36,3-4.07l-4.43,4.17c.14-.35-1.23.71-3.15,2.24l-3.9,3.7c-3.34,2.9,2.47-3,1.87-2.78,1.51-1.4,1.17-1,.3-.09,8.61-8.58-6.92,5.55-.69-.75-1.47,1.29-1,.79-.08-.17l.22-.18s0-.07,0-.07c.65-.66,1.41-1.42,2-2-.93.92-1.69,1.68-2,2a11.49,11.49,0,0,0-1.71,1.29l4.18-4a.5.5,0,0,0-.13.1c1.49-1.53-2,1.82-5.17,4.84-.72.62-1.58,1.37-2.62,2.31,6.74-6.45-2.44,2,4.73-4.91-3.57,3.29-3,2.19-10.41,9.16a17.72,17.72,0,0,1,1.5-1.39c.78-.87,1.56-1.74-.59.17l5.31-5.07-7.33,6.62c3.17-3.16,5-5,9.23-8.77-6.54,5.74-2.56,2.06-9,7.78l3.47-3.25c-.2.06-4.93,4.32-2.11,1.58,6.42-6.35.19-1.61,5.92-7.76-10.1,9.67,4.39-4.49-3.51,2.94,2.38-2.29,3.69-3.63,5.85-5.54-2.56,2,3.53-3.9-3.25,2.23,2.39-2.3,3.57-3.28,5-4.65-.54.47-2.16,1.91-.74.53s2-1.87,3.13-2.83c-.6.18-8,7.15-15,13.7,3.19-3.21,2.68-2.82-2,1.41,2.24-2.18,4.56-4.49,5.5-5.14.27-.38,2.93-3.58-2.66,1.67,1.39-1.35.32-.49-.34.1.18-.47.67-1,0-.62l-.87.91c-6.79,6.28-1.62,1.28-2.55,1.92l.69-.65c4.58-4.87-2.44,2.07,2.83-3.45l-4.18,4c-9,8.47,5.08-5.27,1.47-2.18l-2.33,2.31c-3.17,2.82,12-11.8,13-13,.76-.76,1.28-1.15,1.89-1.67,5.08-5.25-5.52,5.14-7,6.17,2.93-2.83,7.56-7.06,8-7.7,2.34-2.31-9.93,8.71-4.41,3.2-2.25,2.19-4.49,4.37-6.28,5.9-.94.64,8.29-8.47,1-1.81.6-.6,1.2-1.17,1.76-1.7-1.94,1.65-3.38,2.59-7.33,6.2,14.38-13.73-7.6,6,5.74-6.54l-1,.37,1.37-1.28c.7-1-2.56,1.93-5.82,4.88.87-.9,2.14-2,2.84-2.7,2.43-2.81,1.84-2.31-5,3.73l4.3-4.11c-2.57,2.31,6.41-6.8,1.1-2.32.5-.45,1.34-1.24,2-1.79-5.37,4.48,11.31-12.06-4.55,2.69l-4.08,3.46c-1,1.41-6.87,6.41-9.39,9-1,.77,4.5-4.75,5.43-5.38l-.77.76c8.26-7.7,2.6-3.07,8.2-8.34-.89-.14,3.18-4.93,3.08-5.74l-6.34,6.08.21-.52c1.45-1.45,4.94-4.77,4.79-4.4,3.56-3.48-3.22,2.65-4.61,4,2.36-2.67,7.53-6.93,7.62-7.15l-.58.36-.72.72c-2.68,2.38-5.46,5-5.28,4.54,1.19-1.3,3.9-3.76,4.11-4,.45-.42.65-.64.13-.23l.34-.72-5,4.84c-2.57,2.25.08-.45-5.54,5,8.67-8.45,2.41-3.77,5.06-6.44-3.8,3.33-3.86,3.14-3.57,2.56-1,1-6.65,6.4-6.09,5.61,11.75-11,4.84-5,13.14-13.09-5.48,5.36-1.75.9-9.52,8.53.84-1,4.37-4.14,7-6.82-4.79,4,2.37-3.39.52-2.29C93.6,138.68,91.3,141,89,143l7.51-7.42c-.82.64-8.93,8.29-3.71,3.14-1.28,1.24-3.2,3.1-3.74,3.52,6.85-7.73-7.42,4.41,6-9.53-2.89,2.9-3.24,3.12-3.42,3.15-.67.72-3.79,3.58-5.86,5.55l5.51-5.74c-5.83,5.4-.68.07-6.23,5.24l1.08-.84c-6.63,6-14.33,13.82-22.71,21.69,7.54-6.85-10.64,10.71.18.93-1.66,1.65-2.74,2.49-4.65,4.35,3.64-3.33,4.45-4,3-2.32l-.9.82c1.2-.47-2.19,3-4.17,5.63l4.11-3.93c-.48.6-1.76,1.84-2.75,2.86,6.36-5.81.12-.57,7.12-7-8.31,8.05.44.72-9.05,9.81.07.18,4.75-4.55,4.82-4.37l-2.56,2.47,3.37-3.11c-.47.61-3.67,3.7-5.85,5.77.24-.26-.67.52-.88.68-3,3,1.33-.67.38.3L57,173.06c2.76-1.92-.23,1.72,5.36-2.9l1.92-1.87c3.86-3.14-1.94,2.23,0,1l-.47.42c2-1.77,3.05-2.62,2.9-2.33-2.35,2.08-4.31,4.33-6.93,6.61,4.14-3.37,3.18-2.73,10.61-9.38l-3.2,3.1c3-2.7,4.54-4.15,5.51-4.8-2.89,2.51-4.84,4.75-8.64,8.08-6.8,7,7.57-6.29-2.65,3.61,9.09-8.31,4.73-5,6.72-6.68,2.86-2.83,6.8-6.21,6-5.26-.11.28-11.3,11-10.91,11,0-.06-.66.58-.64.52-2.2,2.24,3.26-2.74-.34.87C67.68,170,62,175.49,69,169l-1.81,1.28c1.93-1.57,10.12-9.08,6.4-5.18-1.41,1.3-3.3,3-4.37,3.89-2,2,1.47-1.15-.57.88-6.93,6.51-1.76,1.15-7.16,6-2.86,2.82,5.25-4.47-2.3,2.53,9.61-8.89-1,1.37,6.45-5.32L61.45,177c.67-.59,2.68-2.38,2.62-2.23l-5.45,5c4.7-4.19-3.77,4-1.15,1.81-.38-.15,4.93-4.77,7.85-7.73,5.85-4.9-10.66,10.41-8.33,8.9a39.3,39.3,0,0,1,4.31-4.26c-.79.87-2.29,2.46-4.42,4.56,1.09-.57,4.22-4.06,6.87-6.36-5,4.85,2.16-1.81,3.88-3.23l-4.21,4c-2.44,2.83,8.85-8.2,5.82-4.87l-5.94,5.4,1.63-1.29-4.81,4.49c3.68-3.21,2.81-2.3,1.59-.89,2.94-2.83,7.66-7.19,7.91-7.19-2.42,2.44-4,3.73-3.28,3.33-2.67,2.45-6,5.53-2.21,1.79-1.38,1.29-2.68,2.45-4,3.73-2.8,2.8-.44.84-.35.87a11.87,11.87,0,0,1,.92-1l6.08-5.25c-1.55,1.53-2.85,2.7-4.12,3.84.5-.38,2.47-2.17,2.91-2.43-3.44,3.21-7,6.54-8.69,8l4-3.34c-1.47,1.42-4,4-5.26,5.13-1.89,2,7-5.93,4.46-3.25.67-.62,1.33-1.2,1.85-1.62-.61.9-4.67,5,.21.78l-6,5.9c1.54-1.16,7.59-7.45,10.15-9.37,2.13-1.66-5.17,5-6.82,6.68,3.18-2.83,9.63-8.61,4.79-3.73C63,184.07,63.87,183.17,63.36,183.55Zm4.53-.66c-.92.8-3.72,3.3-1.26.93C71.5,179.31,69.22,181.52,67.89,182.89Zm12.88-6.65c-1.42,1.28-.77.59.78-1C81.93,175,81.81,175.18,80.77,176.24Zm37-19.56-.21.19C119.09,155.24,118.47,155.88,117.73,156.68Zm-1.66,1.9c.6-.54,1.18-1.09,1.76-1.65-1.07,1-1.18,1-.93.69C115.81,158.68,115.07,159.42,116.07,158.58ZM97,141.71,96,142.78C94.67,143.85,95.78,142.83,97,141.71Z" transform="translate(-3.31 -7.46)"/><path class="cls-2" d="M74.7,181.34c.7-.68,1.48-1.42,2.27-2.17C76.25,179.82,75.43,180.59,74.7,181.34Z" transform="translate(-3.31 -7.46)"/><path class="cls-2" d="M60,184.44l0-.05-.76.71Z" transform="translate(-3.31 -7.46)"/><path class="cls-2" d="M77.85,189.6c.57-.61,1.32-1.36,2.11-2.12A24.1,24.1,0,0,0,77.85,189.6Z" transform="translate(-3.31 -7.46)"/><path class="cls-2" d="M124.08,152.74l-1.2.92c.26-.14-.64.74-1.29,1.4C122.58,154.13,124,152.77,124.08,152.74Z" transform="translate(-3.31 -7.46)"/><path class="cls-2" d="M98.92,178.27c.53-.47.09,0,.62-.5l2-1.85A18.85,18.85,0,0,0,98.92,178.27Z" transform="translate(-3.31 -7.46)"/><path class="cls-2" d="M110.18,166c-3.53,3.35-2.27,2.28-1.54,1.74,0,0,0,0,0,0C113.61,163.11,111.89,164.58,110.18,166Z" transform="translate(-3.31 -7.46)"/><path class="cls-2" d="M108.78,167.68c.19-.13.3-.19.16,0C110.93,165.81,109.32,167.25,108.78,167.68Z" transform="translate(-3.31 -7.46)"/><path class="cls-2" d="M118.62,156.58c-.88.9,4.55-4.25,3.13-2.87C126.29,149.5,116.06,158.61,118.62,156.58Z" transform="translate(-3.31 -7.46)"/><polygon class="cls-2" points="95.26 169.65 99.61 165.5 96.04 168.78 95.26 169.65"/><path class="cls-2" d="M101.21,173.47l-1.1,1.27c.73-.7,1.18-1.09,1.52-1.38C101.71,173.15,102.5,172.25,101.21,173.47Z" transform="translate(-3.31 -7.46)"/><path class="cls-2" d="M101.63,173.36c0,.12.09.07.82-.58A3.46,3.46,0,0,0,101.63,173.36Z" transform="translate(-3.31 -7.46)"/><polygon class="cls-2" points="93.79 170.72 94.67 169.82 94.91 169.43 93.79 170.72"/><path class="cls-2" d="M100.8,171.35l-1.38,1.05c-1.51,1.4-2.39,2.3-1.75,1.79C98.75,173.24,99.37,172.74,100.8,171.35Z" transform="translate(-3.31 -7.46)"/><path class="cls-2" d="M89.21,183.06c.87-.9,1.84-1.82,3.27-3.2L87.05,185Z" transform="translate(-3.31 -7.46)"/><path class="cls-2" d="M87.57,183.86c-1.52,1.4-4.5,3.87-4,3.72A51.62,51.62,0,0,0,87.57,183.86Z" transform="translate(-3.31 -7.46)"/><polygon class="cls-2" points="89.21 167.91 89.31 167.88 98.2 159.49 89.21 167.91"/><path class="cls-2" d="M69.57,193.64c-2,2.17,5.52-5.13,3-2.48,2.13-1.95,2.05-2.17,3.91-3.84A88.17,88.17,0,0,0,69.57,193.64Z" transform="translate(-3.31 -7.46)"/><path class="cls-2" d="M76.48,187.32l1.39-1.23C77.29,186.59,76.86,187,76.48,187.32Z" transform="translate(-3.31 -7.46)"/><polygon class="cls-2" points="92.33 123.75 94.09 121.89 91.16 124.78 92.33 123.75"/><path class="cls-2" d="M88.86,137.23l5.64-5.37-5.19,4.77C89.59,136.42,90.12,136,88.86,137.23Z" transform="translate(-3.31 -7.46)"/><path class="cls-2" d="M56.74,193.94l1.37-1.28a12.18,12.18,0,0,0,1.74-1.8Z" transform="translate(-3.31 -7.46)"/><polygon class="cls-2" points="56.37 181.1 56.27 181.23 61.35 176.35 56.37 181.1"/><path class="cls-2" d="M52,193.55c-.17.25,1-.77.85-.52C51.87,193.8,58.42,187.51,52,193.55Z" transform="translate(-3.31 -7.46)"/><path class="cls-2" d="M259.78,73.7c-.4.2,4.23-1.78,5.06-2.13Z" transform="translate(-3.31 -7.46)"/><polygon class="cls-2" points="245.68 69.86 247.6 69.15 242.85 70.79 245.68 69.86"/><path class="cls-2" d="M248.79,76.52c-8.08,2.84,1.42-.16-1.41,1l-1.83.69,6.51-2.28C251,76.15,246.57,77.42,248.79,76.52Z" transform="translate(-3.31 -7.46)"/><path class="cls-2" d="M266.3,70.54c-3.18,1-2.76.85-1,.33l.81-.26Z" transform="translate(-3.31 -7.46)"/><path class="cls-2" d="M266.12,70.61c.24-.06,2.66-.86,0,0Z" transform="translate(-3.31 -7.46)"/><path class="cls-2" d="M264.26,71l2.85-.82c1.88-.59,2.31-.74,3.67-1.15C269.22,69.52,267.35,70.07,264.26,71Z" transform="translate(-3.31 -7.46)"/><path class="cls-2" d="M258.25,72.77l1.22-.32C260.26,72.21,260.53,72.12,258.25,72.77Z" transform="translate(-3.31 -7.46)"/><path class="cls-2" d="M262,71.76l-2.56.69c-1.32.41-4,1.22.93-.24C258,72.94,260.3,72.25,262,71.76Z" transform="translate(-3.31 -7.46)"/><path class="cls-2" d="M260.79,72.18c-1.77.59-2.88,1-5.73,1.8C256.24,73.78,262,71.93,260.79,72.18Z" transform="translate(-3.31 -7.46)"/><path class="cls-2" d="M240.37,79.3l-2.33.91,2.75-.83C239.43,79.79,242.91,78.43,240.37,79.3Z" transform="translate(-3.31 -7.46)"/><path class="cls-2" d="M268.47,69.54l-6.93,1.92,2-.51C264.76,70.59,265.86,70.25,268.47,69.54Z" transform="translate(-3.31 -7.46)"/><path class="cls-2" d="M261.54,71.46l-3,.75A15.43,15.43,0,0,0,261.54,71.46Z" transform="translate(-3.31 -7.46)"/><path class="cls-2" d="M249.13,75.47c2.12-.56,4.24-1.12,6.34-1.71-2.13.58-4.28,1.15-6.43,1.69Z" transform="translate(-3.31 -7.46)"/><polygon class="cls-2" points="265.34 61.89 269.44 60.86 263.25 62.4 265.34 61.89"/><path class="cls-2" d="M267.9,69.43l7.84-1.89L269.56,69C271,68.64,270.67,68.73,267.9,69.43Z" transform="translate(-3.31 -7.46)"/><path class="cls-2" d="M265.72,69.8l3.84-.84Z" transform="translate(-3.31 -7.46)"/><path class="cls-2" d="M259.33,71.83l5-1.36-5,1.31Z" transform="translate(-3.31 -7.46)"/><path class="cls-2" d="M259.24,71.82l.16,0,.26-.14Z" transform="translate(-3.31 -7.46)"/><path class="cls-2" d="M259.31,71.85l0,0C258.85,72,258.68,72,259.31,71.85Z" transform="translate(-3.31 -7.46)"/><path class="cls-2" d="M253.51,73.86c-2.77.72-5.78,1.36-9.94,2.71C247,75.68,249.34,74.92,253.51,73.86Z" transform="translate(-3.31 -7.46)"/><path class="cls-2" d="M253.13,73.52,252,74c1.31-.36,3.21-.89,4.59-1.23Z" transform="translate(-3.31 -7.46)"/><polygon class="cls-2" points="248.23 66.42 249.82 66.07 250.23 65.91 248.23 66.42"/><path class="cls-2" d="M261.08,71a17.7,17.7,0,0,1-2.74.51,5.15,5.15,0,0,0-1.46.51C258.45,71.65,261.27,71,261.08,71Z" transform="translate(-3.31 -7.46)"/><path class="cls-2" d="M259.75,71.49l-.29.06C259,71.66,258.91,71.7,259.75,71.49Z" transform="translate(-3.31 -7.46)"/><path class="cls-2" d="M258.26,70.91l-.91.19.87-.17Z" transform="translate(-3.31 -7.46)"/><path class="cls-2" d="M256,72.24c-1,.27.28,0,1.82-.34a4.31,4.31,0,0,1-.9.11C256.18,72.17,255.71,72.28,256,72.24Z" transform="translate(-3.31 -7.46)"/><path class="cls-2" d="M263.35,70.22l-2.74.68C262.19,70.53,264.66,69.94,263.35,70.22Z" transform="translate(-3.31 -7.46)"/><path class="cls-2" d="M260.83,71.2l.23,0C262.12,70.88,261.6,71,260.83,71.2Z" transform="translate(-3.31 -7.46)"/><path class="cls-2" d="M260.83,71.2l-3.05.7c.4-.07.94-.18,1.68-.35Z" transform="translate(-3.31 -7.46)"/><path class="cls-2" d="M225.93,77.08c4.67-.88,9-1.52,4.07-.27,3.53-.49,18.8-3.87,27.35-5.71-2,.41-3.91.8-6.69,1.21-2.54.55-5.88,1.57-10.12,2.29-2.44.24,1.61-.54,4.06-1.14-5.79,1.27-8.52,1.34-17.06,3l3.06-.31C229.27,76.45,227.13,76.76,225.93,77.08Z" transform="translate(-3.31 -7.46)"/><path class="cls-2" d="M256.91,71.43l.58-.07c.81-.23,2.66-.67,6.29-1.49-2.28.41-4,.75-5.56,1.06l-.61.37Z" transform="translate(-3.31 -7.46)"/><path class="cls-2" d="M257.55,71.57c-5.06,1.1-7.23,1.4-12.68,2.7.38.13,4.25-.8,6.46-1.2-1.32.05,2.82-.58,5.64-1.37.87-.15,1.14-.18,1.37-.2.6-.17,1.35-.37,2.27-.6l-.31.07h0l-.08,0c-.62.14-1,.23-.64.14l-.11,0-1.9.42a14.76,14.76,0,0,1,1.9-.42l.75-.16.07,0c-.94.15-1.87.27-2.81.39C256.8,71.56,257,71.6,257.55,71.57Z" transform="translate(-3.31 -7.46)"/><path class="cls-2" d="M232.8,79.34,234,79A4.66,4.66,0,0,0,232.8,79.34Z" transform="translate(-3.31 -7.46)"/><path class="cls-2" d="M235.77,78.35c.7-.16,2.7-.68,2.21-.45-1.48.49-2.39.66-4,1.11a53,53,0,0,0,6-1.63l-.69.16c1.67-.62,7.87-2.44,8.56-2.59C243.34,76.17,240.14,77.06,235.77,78.35Z" transform="translate(-3.31 -7.46)"/><path class="cls-2" d="M245.32,75l-2.54.33-4.31,1.19,2.61-.64C240.1,76.32,243.3,75.49,245.32,75Z" transform="translate(-3.31 -7.46)"/><polygon class="cls-2" points="257.47 62.91 262.82 61.85 255.25 63.28 257.47 62.91"/><polygon class="cls-2" points="256.79 62.82 261.46 61.92 258.63 62.41 256.79 62.82"/><path class="cls-2" d="M200.1,49.24l-1.35,0Z" transform="translate(-3.31 -7.46)"/><path class="cls-2" d="M199.81,49.89l2.34,0C200.85,49.85,199.91,49.87,199.81,49.89Z" transform="translate(-3.31 -7.46)"/><path class="cls-2" d="M258.81,62.69c4.43-.32,11.29-.74,6-.51l-5.2.25C260.5,62.49,259.93,62.58,258.81,62.69Z" transform="translate(-3.31 -7.46)"/><path class="cls-2" d="M227.55,55.64l-1.58.07,5,0Z" transform="translate(-3.31 -7.46)"/><path class="cls-2" d="M206,55.85l3.35-.27C208.19,55.65,207.07,55.73,206,55.85Z" transform="translate(-3.31 -7.46)"/><path class="cls-2" d="M194.41,46.27l-5.29.32C189.15,46.7,191.81,46.45,194.41,46.27Z" transform="translate(-3.31 -7.46)"/><path class="cls-2" d="M257.8,67.84c2-.31,2.85-.47,3.09-.55C257.93,67.7,253.49,68.3,257.8,67.84Z" transform="translate(-3.31 -7.46)"/><path class="cls-2" d="M255.32,47.52c-.94-.05-2-.05-3.16,0A30,30,0,0,0,255.32,47.52Z" transform="translate(-3.31 -7.46)"/><path class="cls-2" d="M260.85,67.06l-1.22.17c.88,0,1.59,0,1.26.06C263.1,67,264.45,66.77,260.85,67.06Z" transform="translate(-3.31 -7.46)"/><path class="cls-2" d="M197.46,38.82l.57-.24C197.38,38.84,197.34,38.86,197.46,38.82Z" transform="translate(-3.31 -7.46)"/><path class="cls-2" d="M243.36,13.17a.46.46,0,0,1,.49.07C244.14,13,244.07,13,243.36,13.17Z" transform="translate(-3.31 -7.46)"/><path class="cls-2" d="M262.17,69c.34,0,.56-.08,0,0Z" transform="translate(-3.31 -7.46)"/><path class="cls-2" d="M241.9,72.61c-.58.08-1.32.19-2.5.39Z" transform="translate(-3.31 -7.46)"/><path class="cls-2" d="M228.5,69.32h0C227.51,69.43,227.7,69.41,228.5,69.32Z" transform="translate(-3.31 -7.46)"/><path class="cls-2" d="M259.84,69.45l1.52-.31Z" transform="translate(-3.31 -7.46)"/><path class="cls-2" d="M262.27,69.05l-.49.12C262.64,69,263.18,68.94,262.27,69.05Z" transform="translate(-3.31 -7.46)"/><path class="cls-2" d="M261.87,69c.09,0-.15.07-.51.15l.81-.14Z" transform="translate(-3.31 -7.46)"/><path class="cls-2" d="M211.91,39.12l.48-.1C210.25,39.33,210.59,39.3,211.91,39.12Z" transform="translate(-3.31 -7.46)"/><path class="cls-2" d="M204.68,61.86h.25l.18,0Z" transform="translate(-3.31 -7.46)"/><path class="cls-2" d="M200.79,61.55c6.49,0,5.69.12,4.32.29l15-.52Z" transform="translate(-3.31 -7.46)"/><path class="cls-2" d="M198.54,47.76l-4.67.44c-7.7.15-5.05-.13-11.61.38,16.28-.81,1.69.63,18-.08l-3.42.29c.16,0-.8,0-.64-.06-7.79.59,11.78-.31,9.48.16a43.61,43.61,0,0,1-5.54.35l4,.12a15.3,15.3,0,0,1-2.83.09l1.32.37-.48,0c2.56,0,6.51,0,8.19,0-2.33.19-1.73,0-3.76.08l4,.15c-4.22.23-8.32.13-7.72-.06-16.26.72,4.1.09-5.39.88l-2.07-.18c-9.24.41-5.89.5-11.64.91,3-.13,14.51-.92,18.57-.75-1.23.11-1.81.23,1.47.3-5.79.15-4.37.26-4,.44l-7.68.17c2.22.14,6.13,0,9.59.07-.75.24-6.7.42-11.71.58-1.21.37,9.53-.45,11-.06-2.92.35.22.49,4.82.77-2.64.26-4.7.05-6.89.16l6.12.08c-.14.05-2,.07-3,.08,2.37.11,7.67-.12,9.76.1,8.45-.06-12.35.75-2.74.93-2.18.12-4.71,0-7.68.1,6.31.37,4.58.33,13.07.57l-5,.4c5.76-.32,12.59-.12,18.19.06l6.38-.3,4.12.36c-1.25.07-3.89.07-7.1,0l1.84,0c-2.83.2-7.26.19-11.55.14l4.73-.22c-4.66,0-9.83-.06-14.32,0,.89,0,1.65.06,2.08.11-1.27,0-2.4,0-3.17,0a22.06,22.06,0,0,0,2.85.08l-8.55.22,3.4,0-5.35.63c8.62.26,21.3.42,24.84,1-6.27-.06-10.24.12-17.68.23,7.87-.31-3.35-.46-1.76-.8a49.17,49.17,0,0,1-5.6.17l7.17.48a44.58,44.58,0,0,0-7.07.4c12-.31,8,.34,11.7.52-4,.09-8.15.1-7.19-.23-9,.51,14.12.19,6.44.65-.1-.07.52-.12-1.53-.11,3.59.1.76.58-2.76.55l-.08-.07c-1.42.52-.06,1.51,10.15,1.33l-14.37.25,34.35,0c-8.77.16-29.63,1-34.59.73-1.24.16-2.7.34.4.53,1.25-.13,12.66-.56,13.47-.48-9.75.59-5.21.36-13.51,1,1.87-.19,15.62-.47,15.19-.27-2.06,0-13.56.46-15,.43l13.51,0c-2.44,0-11.43.37-15.24.63,2.64-.15-.23.45,1.11.54L208,64c-2,.66,19-.2,18.3.33-2.79.06-17.15.58-18.84.95,6.92-.16,33.24-1,38.56-.87l-3.94.28,4.51.07c-10.4.4-32.27.89-40.8.88-3.11.37-4.65.28-4.28.6a23.12,23.12,0,0,1-5.84,0l-2.35.92c8.06-.45,8.11.19,14.82-.2l-8.39-.41c8.05-.41,22.88-.69,21.5-.13-3.2.32-14.35.71-17,.86,2.77-.07,5.33.24,3.37.41h-4.33c-3,.52,10.71-.14,3.06.73-.51.15-10.34,1.1-5.57.8,9.16-.87,37.57-2.78,44.48-3.16-.62.06-8.74,1.1-13.27,1.58-7.18.74-17.18,1-23.35,1.62,2.2-.16,4.92-.24,5.8-.26-1.87.27-6.81.45-5.8.67,8.16-.58-.65.64,6.9-.4,2.35.09-1.65.43-1.27.72,5.26-.53,17.94-1.24,20.28-1.23-2.07.17-4.76.46-6,.6-.7.55-4.35,1.19-4.37,1.7-2,.24-4.31.75-7.83,1a36.37,36.37,0,0,1,4.43-.17c-7,1.1-1.14-.25-9.55.92,4.72-.49,6.57-.28,9.54-.4,7.29-.92,1.34-.65-1.64-.58,10.07-1.07,20.66-1.88,25.35-2.08,2.53,0-6.48.93-5,.81-1.68.87,17.59-1.79,10.39-.4-6.36,1.08-12.71,1.8-17.31,2.48-2.46,0,4-1,3.73-1.15l-3,.64c-2.14.19-3.78.19-1.94-.16-5.71,1-1,1.33-6.16,2.7,2.16-.22,4.4-.4,7-.89l-.93,0c5.12-.93,7.17-.82,9.53-1.38,3.65-.37,9.36-1.15,6.5-.44l-7.25,1.3c2.12-.38,4.29-.91,2.07-.61,3.23-.46-9.73,2.12-.23.57l5-1.06c3.68-.46,11.39-1.72,9.13-1.14,7.13-1.42-.82.1,7.52-1.54-10.39,2,.37-.42-10.54,1.67,9.69-1.82,4.08-.93,12.35-2.43-2.39.4-4.57.8-3.41.5l-2.12.31.18,0-.28,0c-.36,0-.43.06-.1,0l-3.63.65c-5.51.83-5.39.55-8.25.9,1.12-.27,2.75-.38,5.31-.82l-4.29.51c5.33-.81,8.83-1.54,12-1.8l.22-.21c3-.53,4.16-.82,1.9-.6,1.15-.22-5.94.58-1.74.1l-3.35.14,1.34-.17c.64-.32-8.95.38.68-1-1.36,0-3,.11-1.53-.2l4.64-.48c-1.64,0,4.62-.82-.23-.44,12.49-1.22,2.69-.86,4.89-1.28l-6.07.44c.33-.2-1.4-.23-3.86-.3l-5.37.37c-4.42.07,3.78-.77,3.21-1,2.05-.09,1.52,0,.29.14,12.1-1-8.87-.42,0-1.23-2,0-1.29-.11.06-.24a.84.84,0,0,0,.28,0c.06,0,.07,0,.06,0l2.86-.25c-1.3.09-2.38.18-2.88.23a9.17,9.17,0,0,0-2.13-.2l5.77-.29h-.17c2.13-.19-2.73,0-7.08.26-.95,0-2.09,0-3.48,0,9.31-.44-3.16-.18,6.78-.67-4.85.1-3.67-.42-13.87-.17a14.52,14.52,0,0,1,2,0c1.16-.17,2.32-.33-.56-.36l7.34-.27-9.89,0c4.48-.3,7.08-.44,12.73-.41-8.7-.21-3.28-.27-11.9-.43l4.75-.1c-.19-.13-6.55-.2-2.63-.37,9-.5,1.22-1.52,9.59-2.42-14,.36,6.26-.45-4.58-.32,3.31-.1,5.18-.24,8.05-.15-3.25-.37,5.24-.71-3.9-.86,3.32-.1,4.85,0,6.81,0-.72,0-2.88-.09-.9-.17s2.77,0,4.22.07c-.57-.42-10.76-.31-20.33-.2,4.53-.28,3.89-.38-2.39-.44a51,51,0,0,1,7.53-.05c.45-.16,4.57-1-3.1-.88,2-.08.57-.22-.32-.24.46-.34,1.15-.38.42-.7l-1.26.11c-9.25,0-2.06-.24-3.18-.49h1c6.66-.75-3.21-.21,4.4-1l-5.76.14c-12.37.19,7.29-.69,2.55-1l-3.28.2c-4.24-.09,16.82-.93,18.36-1.19a16.36,16.36,0,0,1,2.52.08c7.29-.73-7.54.11-9.3-.25,4.07-.18,10.34-.16,11.09-.46,3.29-.24-13.21-.44-5.42-1-3.13.18-6.26.35-8.62.23-1.12-.23,11.81-1.21,1.93-1.14.85-.07,1.67-.11,2.45-.14a76.22,76.22,0,0,0-9.62-.51c9.92-.51,7.49-.79,4.87-1s-5.43-.35,3.72-.81l-1-.67,1.87-.08c1.19-.53-3.2-.44-7.61-.34,1.24-.19,3-.21,3.91-.26,3.64-.92,2.85-1-6.3-.91l5.92-.49c-3.45.13,9.22-1.77,2.25-1.9.67-.06,1.82-.14,2.66-.16-3.51-.09.56-.93,2.81-1.59s2.63-1.14-8.15-.12l-5.37.07c-1.59.83-9.35,1-12.9,1.63-1.28-.06,6.42-1.34,7.56-1.18l-1.07.17c11.23-1.19,3.87-1.26,11.5-2.2-.75-1.28,5.34-3.47,5.49-5.1l-8.62,1.67.41-.54c2-.48,6.72-1.4,6.44-1,4.85-1.08-4.22.15-6.09.51,3.36-1.33,10.11-1.62,10.28-1.86l-.71-.18-1,.26c-3.57.42-7.31,1.13-7,.64,1.67-.6,5.28-1.19,5.59-1.37.61-.12.89-.22.21-.21l.61-.8-6.73,1.68c-3.4.44.24-.62-7.38,1.28,5.88-1.44,6.83-2.24,6.76-2.78s-1.21-.84.59-1.42c-5,.86-5,.52-4.54-.08-1.36.49-8.87,2.58-8,2,15.53-4.18,6.54-2.52,17.54-6.14-7.27,2.48-2.17-.66-12.44,3,1.15-.69,5.74-1.8,9.28-3.19-3.1.52-2.24-.2-1-1.19s3-2.23,1.78-2.42c-2,.72-5,2-8,2.88q4.86-2.09,9.66-4.27c-1.06.13-11.43,4.2-4.76,1.16a42.6,42.6,0,0,1-4.77,1.88c4.4-2.85,2-3.19.71-3.69S240,16.63,248,11.21c-3.49,2.15-3.94,2.15-4.18,2-.8.57-4.63,2.4-7.15,3.74q3.35-2.18,6.63-4.44c-7.06,3.62-.91-.57-7.59,3l1.31-.44c-4,2-8.29,4.53-12.88,7.18s-9.46,5.42-14.52,8.13c4.52-2.33,1.27-.4-1.52,1.21s-5.12,2.91,1.44-.26c-2.06,1.11-3.32,1.63-5.68,2.87,4.41-2.19,5.38-2.55,3.48-1.43l-1.1.53c1.26-.16-3,2.17-5.82,3.73l5.19-2.34c-.67.39-2.3,1.12-3.59,1.72,7.92-3.37.38-.39,9.08-4.18-5.25,2.43-5.25,2.56-5.43,2.79s-.53.52-6.62,3a9.14,9.14,0,0,0,.94-.34l2.09-.85c1.52-.61,3-1.23,3-1.16L201.85,37l4.27-1.65c-.67.35-4.81,2-7.62,3.06.33-.14-.8.28-1,.37-3.9,1.54,1.38-.4.12.11l2-.82c1.6-.49,1.34-.25,1.54-.19s.82,0,4.33-.86l2.55-.82c4.83-1.14-2.76,1.09-.47.74l-.62.16c2.59-.67,3.92-.93,3.65-.75-3.05.76-5.85,1.75-9.23,2.57,5.23-1.13,4.07-1,13.8-3.25l-4.3,1.16A55.21,55.21,0,0,1,218,35.41c-3.76.74-6.55,1.72-11.51,2.75-4.67,1.29-2.28.84-.41.53s3.19-.49-3.75,1.12c12.07-2.45,6.61-1.83,9.21-2.3,3.9-1,9-1.84,7.84-1.4-.24.25-15.35,3.58-15.08,3.78,0,0-.86.14-.81.11-3.07.7,4.21-.63-.78.48,7.33-1.33-.38.23,9-1.48l-2.22.1c2.47-.33,13.44-2.14,8.21-.82-1.9.31-4.4.65-5.79.84-2.74.58,1.86-.15-.95.43-9.37,1.62-2.12,0-9.27,1.18-3.94.79,6.83-1-3.32.81,6.45-1.13,6.06-1,5.29-.77s-1.92.48,3-.24l-5.62.92c.89-.12,3.55-.5,3.42-.42l-7.3,1.11c3.12-.46,1.77-.16.06.18s-3.77.73-2.07.54c-.2-.27,6.78-1.12,10.87-1.9,7.59-.68-14.7,2.51-12,2.47a48.76,48.76,0,0,1,6-1c-1.15.26-3.3.67-6.26,1.12,1.21.1,5.8-.84,9.28-1.19-6.86,1,2.82-.23,5.05-.34l-5.75.73c-3.63.82,12-1.39,7.58-.47l-8,.81,2.09-.08-6.55.74c4.88-.41,3.63-.19,1.82.17,4.05-.48,10.45-1.1,10.65-.93-3.4.48-5.47.48-4.63.67-3.61.3-8.13.7-2.84.06l-5.48.52c-3.91.5-.86.36-.81.45a11.44,11.44,0,0,1,1.34-.22l8-.4c-2.16.26-3.91.37-5.61.49.63,0,3.28-.18,3.78-.11-4.68.4-9.52.84-11.74.92l5.23-.16c-2,.21-5.59.65-7.32.76-2.75.38,9.13-.33,5.51.21.91-.06,1.79-.1,2.46-.1-1,.33-6.79.88-.32.74l-8.41.66c1.92.11,10.59-.87,13.79-.65,2.7.16-7.18.52-9.52.76,4.25-.11,12.91-.28,6.06.35C197.92,48,199.16,47.81,198.54,47.76Zm3.85,3.12c-1.21,0-5-.07-1.55-.22C207.47,50.56,204.3,50.71,202.39,50.88Zm14,5.51c-1.91,0-1-.13,1.23-.27C218.13,56.19,217.92,56.27,216.43,56.39Zm41,12.7-.28,0C259.36,68.7,258.48,68.86,257.42,69.09Zm-2.47.58c.81-.1,1.6-.22,2.4-.34-1.45.19-1.56.16-1.16,0C254.69,69.6,253.66,69.78,255,69.67Zm-5-39.07-1.47.4C246.8,31.11,248.29,30.87,249.94,30.6Z" transform="translate(-3.31 -7.46)"/><path class="cls-2" d="M208.5,55.82l3.15-.08C210.68,55.73,209.55,55.75,208.5,55.82Z" transform="translate(-3.31 -7.46)"/><path class="cls-2" d="M195.39,46.21h.06l-1,.07Z" transform="translate(-3.31 -7.46)"/><path class="cls-2" d="M205.63,69.61c.82-.15,1.87-.28,3-.39A14.13,14.13,0,0,0,205.63,69.61Z" transform="translate(-3.31 -7.46)"/><path class="cls-2" d="M264.83,69l-1.5.18a14.88,14.88,0,0,1-1.85.41C262.81,69.35,264.73,69,264.83,69Z" transform="translate(-3.31 -7.46)"/><path class="cls-2" d="M229.92,77.23c.7-.11.09.06.8-.06l2.63-.58A13.06,13.06,0,0,0,229.92,77.23Z" transform="translate(-3.31 -7.46)"/><path class="cls-2" d="M245.92,72.52c-4.79.88-3.14.7-2.23.65,0,0-.06,0,0,0C250.39,71.93,248.15,72.24,245.92,72.52Z" transform="translate(-3.31 -7.46)"/><path class="cls-2" d="M243.85,73.17c.23,0,.37,0,.14.08C246.68,72.75,244.54,73.1,243.85,73.17Z" transform="translate(-3.31 -7.46)"/><path class="cls-2" d="M258.18,69.46c-1.23.23,6.16-.92,4.2-.6C268.52,68,254.92,69.75,258.18,69.46Z" transform="translate(-3.31 -7.46)"/><polygon class="cls-2" points="226.85 68.05 232.75 66.91 227.97 67.7 226.85 68.05"/><path class="cls-2" d="M234.29,73.57l-1.6.5a19.85,19.85,0,0,1,2-.27C234.89,73.62,236,73.28,234.29,73.57Z" transform="translate(-3.31 -7.46)"/><path class="cls-2" d="M234.72,73.8c-.1.09,0,.14,1,0A2.5,2.5,0,0,0,234.72,73.8Z" transform="translate(-3.31 -7.46)"/><polygon class="cls-2" points="225.01 68.02 226.23 67.73 226.63 67.47 225.01 68.02"/><path class="cls-2" d="M235.1,70.88l-1.75,0c-2,.21-3.29.43-2.46.43C232.32,71.16,233.12,71.16,235.1,70.88Z" transform="translate(-3.31 -7.46)"/><path class="cls-2" d="M218.86,73.81c1.23-.25,2.56-.43,4.52-.73L216,74Z" transform="translate(-3.31 -7.46)"/><path class="cls-2" d="M217,73.09c-2.05.22-6,.21-5.43.59C213.63,73.48,215.37,73.6,217,73.09Z" transform="translate(-3.31 -7.46)"/><polygon class="cls-2" points="222.67 60.17 222.77 60.24 234.96 59.35 222.67 60.17"/><path class="cls-2" d="M196.55,65c-2.91.52,7.54-.22,3.9.29,2.89,0,3-.42,5.47-.43C202.86,64.8,204.58,64.6,196.55,65Z" transform="translate(-3.31 -7.46)"/><path class="cls-2" d="M205.92,64.9l1.86,0C207,64.9,206.43,64.9,205.92,64.9Z" transform="translate(-3.31 -7.46)"/><polygon class="cls-2" points="245.27 1.54 247.33 0 243.84 2.18 245.27 1.54"/><path class="cls-2" d="M240.35,12.83,247.11,9l-6.24,3.28C241.2,12.13,241.86,11.92,240.35,12.83Z" transform="translate(-3.31 -7.46)"/><path class="cls-2" d="M186.72,51.8l1.88,0a9.17,9.17,0,0,0,2.49-.22Z" transform="translate(-3.31 -7.46)"/><polygon class="cls-2" points="189.17 41.87 189.01 41.91 196.04 41.56 189.17 41.87"/><path class="cls-2" d="M183.43,48c-.29.08,1.28.07,1,.16C183.14,48.12,192.2,47.52,183.43,48Z" transform="translate(-3.31 -7.46)"/><path class="cls-2" d="M439.07,14.93c.25-1-3.08-.48-3.69-.6C436.19,16,439.94,14.85,439.07,14.93Z" transform="translate(-3.31 -7.46)"/><polygon class="cls-2" points="443.92 23.84 442.55 23.58 445.93 25.99 443.92 23.84"/><path class="cls-2" d="M447.23,47c5.71-1.45-.81-5.7,1.14-8.48l1.29-.47-4.61-1.23C445.87,40.17,448.86,44.59,447.23,47Z" transform="translate(-3.31 -7.46)"/><path class="cls-2" d="M434.78,55c2.23-.45,1.89,1.82.73-1.89a3.66,3.66,0,0,1-.57.33A4.26,4.26,0,0,1,434.78,55Z" transform="translate(-3.31 -7.46)"/><path class="cls-2" d="M434.94,53.47c-.14-1.61-1.87,1,0,0Z" transform="translate(-3.31 -7.46)"/><path class="cls-2" d="M436,61l-1.9-2.19c-1.33.4-1.69,2.27-2.62,1.54C432.46,62.52,433.77,62.14,436,61Z" transform="translate(-3.31 -7.46)"/><path class="cls-2" d="M440.07,63.15l-.8-1.14C438.71,62.18,438.51,62.47,440.07,63.15Z" transform="translate(-3.31 -7.46)"/><path class="cls-2" d="M437.58,59.6,439.27,62c.93-.28,2.78-.25-.6-1.11C440.35,61.16,438.74,60.63,437.58,59.6Z" transform="translate(-3.31 -7.46)"/><path class="cls-2" d="M438.5,58.29c1.28-1.16,2.12-2.7,4-.48C441.88,53.66,437.85,54.19,438.5,58.29Z" transform="translate(-3.31 -7.46)"/><path class="cls-2" d="M453.13,47.84l1.69-1.64-1.9-1.44C453.86,45.48,451.34,47.92,453.13,47.84Z" transform="translate(-3.31 -7.46)"/><path class="cls-2" d="M432.39,74.05c1.21.21,3.28-.52,4.84-.59l-1.3-1.65C435.05,72.57,434.2,74.06,432.39,74.05Z" transform="translate(-3.31 -7.46)"/><path class="cls-2" d="M437.23,73.46,439.17,76C439.54,73.85,438.58,73.41,437.23,73.46Z" transform="translate(-3.31 -7.46)"/><polygon class="cls-2" points="443.08 56.33 438.84 52.24 443.11 57.09 443.08 56.33"/><polygon class="cls-2" points="428.35 75.51 425.66 73.98 429.69 76.66 428.35 75.51"/><path class="cls-2" d="M431.64,88.93c-2.24-1.18-4,1-5.38-.17.28,1.63,2.15,3.17,3.84,4.58C429.21,91.93,429.58,90.57,431.64,88.93Z" transform="translate(-3.31 -7.46)"/><path class="cls-2" d="M432.5,95.67a13.42,13.42,0,0,0-2.4-2.33A8,8,0,0,0,432.5,95.67Z" transform="translate(-3.31 -7.46)"/><path class="cls-2" d="M438.32,80c-.74.13-2.68.35-3.57,1.6l3.47-.68Z" transform="translate(-3.31 -7.46)"/><path class="cls-2" d="M438.33,80.85l-.11,0c-.13,1-.29,1.7-.35,2Z" transform="translate(-3.31 -7.46)"/><path class="cls-2" d="M438.35,79.71c0,.09,0,.15,0,.24C438.66,79.88,438.78,79.83,438.35,79.71Z" transform="translate(-3.31 -7.46)"/><path class="cls-2" d="M443,69.92c1.83,1.49,3.69,4.56,6.78,1.86C447.53,70.64,445.78,72.18,443,69.92Z" transform="translate(-3.31 -7.46)"/><path class="cls-2" d="M442.69,78.84l.93-2.48c-.9,0-2.25.37-3.15-.38Z" transform="translate(-3.31 -7.46)"/><polygon class="cls-2" points="440.39 72.7 439.38 71.39 439.04 72.31 440.39 72.7"/><path class="cls-2" d="M436.08,91.7a4.68,4.68,0,0,1,1.52,3.78A10,10,0,0,0,439,91.24C438,91,436.09,90.16,436.08,91.7Z" transform="translate(-3.31 -7.46)"/><path class="cls-2" d="M437.48,86.46c.07.08.1.18.17.26C438,86.59,438.06,86.48,437.48,86.46Z" transform="translate(-3.31 -7.46)"/><path class="cls-2" d="M436.12,108.64l.65-.13-.59-.12Z" transform="translate(-3.31 -7.46)"/><path class="cls-2" d="M439.66,91.06c.75-1,0-1.75-1-2.45a7,7,0,0,1,.38,2.63C439.48,91.38,439.8,91.42,439.66,91.06Z" transform="translate(-3.31 -7.46)"/><path class="cls-2" d="M433.69,99.48a13.56,13.56,0,0,0,2.07-1.66C434.62,98.25,432.82,99.18,433.69,99.48Z" transform="translate(-3.31 -7.46)"/><path class="cls-2" d="M436.68,87a1,1,0,0,1-.14-.17C435.78,87.12,436.14,87.1,436.68,87Z" transform="translate(-3.31 -7.46)"/><path class="cls-2" d="M436.68,87a9.1,9.1,0,0,0,1.95,1.61,5.59,5.59,0,0,0-1-1.89A5.35,5.35,0,0,1,436.68,87Z" transform="translate(-3.31 -7.46)"/><path class="cls-2" d="M457.34,115.46c-3.12-.62-5.58-3.88-1.94-6-2.09-2.77-12.62-2.33-18.63-.95,1.36.24,2.63.39,4.15,3.12.91-.33,2.12-1.59,3.38-2.47s2.62-1.37,3.92-.13c1.22,3.55-1.47,2.6-3.34,4,4.11-.89,5.12,5,11,5l-1.62-3.24C455.13,114.91,456.42,116.18,457.34,115.46Z" transform="translate(-3.31 -7.46)"/><path class="cls-2" d="M437.61,103.82l-.28-1.06c-.68,1.1-2,1.79-4.66,3a5.76,5.76,0,0,0,3.51,2.61l1-5Z" transform="translate(-3.31 -7.46)"/><path class="cls-2" d="M437.82,98.18c3.35,1.14,4.53,3.78,8.41,2.66.1-3.06-2.63-2.43-3.92-4.38.31,5-1.75-1.58-4.09,1.72a7,7,0,0,1-.62-2.7,13.06,13.06,0,0,1-1.84,2.34,1.09,1.09,0,0,1,.23-.09v0h0c.45-.16.72-.2.45,0,0,0,0,.08.06.1a7.86,7.86,0,0,1,1.26.36c-.86,1.32-.91.12-1.26-.36l-.51-.11,0,0,1.34,5C437.92,101.79,438,100.49,437.82,98.18Z" transform="translate(-3.31 -7.46)"/><path class="cls-2" d="M457.05,74.85a1.76,1.76,0,0,1-.81.12C456.64,75.31,456.92,75.46,457.05,74.85Z" transform="translate(-3.31 -7.46)"/><path class="cls-2" d="M454.85,76.78c-.46-.39-1.82-.77-1.39-1.93,1.09-1,1.65.1,2.78.12-.87-.77-2.32-2.63-4.13-.51l.45.38c-1.3,1.94-5.75,4.21-6.2,3.83A33.16,33.16,0,0,0,454.85,76.78Z" transform="translate(-3.31 -7.46)"/><path class="cls-2" d="M447.3,87.86l1.33,4.25,3.15-1.83-1.79,0C450.89,87.94,448.65,88.26,447.3,87.86Z" transform="translate(-3.31 -7.46)"/><polygon class="cls-2" points="431.05 101.43 427.51 100.46 432.3 103.4 431.05 101.43"/><polygon class="cls-2" points="430.78 106.69 427.67 106.08 429.38 107.7 430.78 106.69"/><path class="cls-2" d="M290.83,362l-.79,1.34A3.64,3.64,0,0,0,290.83,362Z" transform="translate(-3.31 -7.46)"/><path class="cls-2" d="M299.26,358.29l-.47-1.51C298.78,357.74,298.89,358.39,299.26,358.29Z" transform="translate(-3.31 -7.46)"/><path class="cls-2" d="M402.58,238.24c-3.35.34-8.21-.06-4.88,1.25l3.35,1A2,2,0,0,1,402.58,238.24Z" transform="translate(-3.31 -7.46)"/><path class="cls-2" d="M355.7,307.1l1,.65c-.22-1.25-.43-2.42-.61-3.48C356,305.15,355.84,306.1,355.7,307.1Z" transform="translate(-3.31 -7.46)"/><path class="cls-2" d="M361.79,320.18l-3.17-.75A8.45,8.45,0,0,0,361.79,320.18Z" transform="translate(-3.31 -7.46)"/><path class="cls-2" d="M244.61,384.1l-.38,3.85C246.52,387.17,245,385.81,244.61,384.1Z" transform="translate(-3.31 -7.46)"/><path class="cls-2" d="M425.6,167.28a7.39,7.39,0,0,0-2.9,3.14C425.05,169.14,428.3,168.41,425.6,167.28Z" transform="translate(-3.31 -7.46)"/><path class="cls-2" d="M278.58,327.08a2.63,2.63,0,0,0,0,2.35A2.15,2.15,0,0,0,278.58,327.08Z" transform="translate(-3.31 -7.46)"/><path class="cls-2" d="M421.72,174.6c.39-.17.62-.37,1-.56a5.42,5.42,0,0,1,0-3.62C421,171.36,419.72,172.6,421.72,174.6Z" transform="translate(-3.31 -7.46)"/><path class="cls-2" d="M59.9,392.75c-.11-.17-.27-.27-.36-.47C59.43,392.74,59.61,392.79,59.9,392.75Z" transform="translate(-3.31 -7.46)"/><path class="cls-2" d="M19.46,345.61a7.84,7.84,0,0,1,1.86.51C21.09,345.78,20.55,345.59,19.46,345.61Z" transform="translate(-3.31 -7.46)"/><path class="cls-2" d="M429.43,134.77c-.05-1.14-.35-.24,0,0Z" transform="translate(-3.31 -7.46)"/><path class="cls-2" d="M443.83,131.65a3.32,3.32,0,0,0,1.6.72A4.3,4.3,0,0,1,443.83,131.65Z" transform="translate(-3.31 -7.46)"/><path class="cls-2" d="M439.72,191l0,.09C440.43,190.94,440.29,191,439.72,191Z" transform="translate(-3.31 -7.46)"/><path class="cls-2" d="M431.25,133.38a5,5,0,0,0-1.24,1.23A5.23,5.23,0,0,0,431.25,133.38Z" transform="translate(-3.31 -7.46)"/><path class="cls-2" d="M429.6,133.33c.21-.35.35-.64.48-.9C429.54,132.19,429.16,132.25,429.6,133.33Z" transform="translate(-3.31 -7.46)"/><path class="cls-2" d="M429.33,136.32a3.88,3.88,0,0,1,.68-1.71c-.27.18-.47.23-.58.16A14.75,14.75,0,0,1,429.33,136.32Z" transform="translate(-3.31 -7.46)"/><path class="cls-2" d="M157.7,387.36a2.26,2.26,0,0,1-.27-.32C156.29,388.53,156.81,388.28,157.7,387.36Z" transform="translate(-3.31 -7.46)"/><path class="cls-2" d="M418.05,282.28a2.08,2.08,0,0,0,0-.23l-.22.08Z" transform="translate(-3.31 -7.46)"/><path class="cls-2" d="M416.42,287.9c-.75-2.31-.89-3.58-.57-4.37s1.06-1.07,1.95-1.4c-2.9-1.74-5.78-3.54-8.59-5.39C411.74,280.33,414.17,284.08,416.42,287.9Z" transform="translate(-3.31 -7.46)"/><path class="cls-2" d="M270.8,371.71l4,1.73c-1.49,6.15-4.69,5.55-.35,8.51-1.82-5.13.84-6.51,3.5-7.9s5.28-2.84,3.31-7.91l2.74,1.29c-.57.14-.4.76-1,.89,5.67,3.18-.51-8.36,4.64-8.95,1.93.07,3.68,1,3.14,2.65l2.36-4.08c1.1-.29,1.66,1.54.56,1.83l4.94-3.3.1.31a37.77,37.77,0,0,1,.93-6.48c2,.77-.16,1.36.77,2.41.6-1.24,1.16-2.53,1.73-3.78a3.63,3.63,0,0,1-1,6.2c7.5,8.44,1.21-3.64,9.88-.87l-2.14,2.6c4.52,4.64,5.69,1.56,10.58,3.41-1.69-1.4-10.63-5.51-8.68-9.51,1.25.29,2.61.05,3.3-2.75,1.78,3.43,3,1.73,4.93.46l2.22,4.62c1.55-2.48.17-4.69.4-7.42,2.7-.84,5.07,2.4,7.22,5,4.35-1.37-5.71-4.17-1.49-7.49,4.17,0,5.47-3.13,7.87-7.91,3.12.31,1.11,3,2.63,3.8l0-4.68c.54-.18,1,1,1.21,1.6.91-2.32-2.33-4.55-.38-7.23-2.06-5.32,9.42,4.18,9.52-3.24,1.52.81,1.17,2.95,2.39,4.53,2.36-6.18,2.29-4.83,3.11-11.8l4.77,1.14c-4.19-2-3.56-7.63-2.92-12.33-1.72-1.14-3.22-2.15-4.06-2.56l2.63-4.7c.9.45,1.38,2.2,1.8,4.43.06-.52.11-1,.12-1.48,2.38.8,3.12,3.78,3.52,6.86-1-.59-2-1.24-3-1.9.57,3.27,1.36,6.79,3.07,9.26a3.12,3.12,0,0,1,.63-2,4,4,0,0,0,.75,2c.4.39.26-.83.26-2.35l3.78,4.41-.92-2.09,7.08,0c.88-7.16-.13-16.37,4.62-21.88.65,4.47,3.14,6.08,5.58,10.4-4.29-3.57-3.49,4.63-7.13,5.52,1.89-.47,2.73,1.77,2.74,2.73l3.1-7.35c1.92,3.57,2.71,1.94,5,2.53-5.17-6.25,1.46-7.05,2.5-10.59,1.56,2.2,2.42,4.91-.74,6.05,3.11,1.66,2.93-1,2.64-3.71s-.7-5.5,2.2-4.32c-.65.51-1.24.38-.78,1.71a3.48,3.48,0,0,1,2.8-2.83c1.32-.32,2.68,0,2.87,1.32l-.67.52a23.77,23.77,0,0,0,8.58-6.9c2.4-3.17,3.41-6.87,1.32-9.57a70,70,0,0,1,5.8,7.71,99.07,99.07,0,0,0-10.17-22.65c2,2.12,6.21,4.82,9.94,7.57s6.91,5.65,6.48,8.75c1.59-.6,3.61-1.5,3.82-5.25-1.31.36-8.2-3.16-7.87-4.49,3.66.59,4.71.53,5.75.38s2-.47,5.58-.88c-.94.28-3.09-1.18-4.85-2.9s-3.15-3.64-2.5-4.46c1,1,7.84,4.52,8.22,5.74-1.55-3.21-3.25-6.29-5-9.25.77,1.92,6.57,3.91,9.41,4-.91-.15-.31-1.21.5-2.45s1.79-2.67,1.7-3.53l-2.9,1.19c2-2.49-.27-5.21-2.68-7.84s-5-5.24-3.7-7.7c1.48,1.3,9.94,6,12.1,3.59-1.87-1.5-6.48-4.93-10.86-8.6s-8.56-7.61-9.43-10.44l2.78,0-1.63-4.47a140.69,140.69,0,0,1,11.38,10.1,91.34,91.34,0,0,1,9.9,11c2.74-1.31,3.13.53,4.06-2.64,2.72-.23,2.89,3,2.66,4,1.42-2.25,2.82-4.47,4.15-6.67-5.17-1.51-3.2-7.23-7.53-8.42.86,3.15,1.78,6.3,2.57,9.52-2.59-.76-5.74-3.19-8-5.95s-3.53-5.89-2.24-8.18c2.46-.55,8.73,4.06,10.46,4.55-1.53-1.26-1.71-5.86-.31-5.9l2,3c1.44-1.06.15-2.77-.77-4.41s-1.48-3.23,1.49-4.11c.7-1,7.71-1.36,4.74-2.53-6.46.06-24.64-5.42-28.65-8,.5-.25,7.46-4.06,10.75-4.49,2.57-.24,5.12,1.29,7.56,2.85s4.76,3.12,7,2.92a8.48,8.48,0,0,1-3.22-2.69c1.55-.85,4.2,1.83,4.34-1-5.1-2,2-5.25-4.05-2.56-.75-3,1.87-2.43,2.53-5.53-3.69,0-10.71-6-11.56-8.9a10.41,10.41,0,0,0,4.05.36c1.84-5.11,5-7.3,6.31-12.23,1.39-.13,3.51-2.15,5.55-.57-.77-.95-2.41-2-2.17-3.6,5.29-1.88-.11,3.59,5.94,2.65-3-.94-3.3-5-4.71-7.63-4.93-.42-2.11,4.8-.71,7.47-6.56-1.6-12.54-7-14.39-12.73-.75-4.39,4.64-.8,3.86-1.71,2.76-7.4-10.14-8.88-4.1-14.16,4.68-1.67,8.42,1.53,11.56,1.58,1,3.67-3.73,4.58-4,6.85l2.58-2.36c1.18,1.35,1.77,3.8.29,4.76,2.11-.66,3-3.88,3.91-7.6s1.74-7.94,4.06-10.64c-1.21-1.32-2.37-3.41-4.22-2.83l.24,2c-3.73,1.12-4.06-4.36-6.1-2.27-2-2.94-5.32-6.35-2.82-9.54l5,.1c-1.43-.15-3.26,1.85-1.94,3.08-1.92-1.8,7.43-4.41,1.34-7l-3.76,2c-1-1.45-2.67-3.12-3.87-4.8s-1.9-3.34-.92-4.78c-5,.73.45.8-5.46,2.18,3.61-.45,3.29,1.52,3,3.34s-.58,3.5,3.33,2.53c-6.86,1.24-3.38,3.47-9.39,5.48,1.61.17,3.22-.53,2,1.91a7.22,7.22,0,0,1,1.32.8c-.06.07-.09.09-.15.15l.21-.11c.22.15.27.17.08,0a5.84,5.84,0,0,1,2.63-.91,6.09,6.09,0,0,1,2.85,3.94c.41,1.48.59,2.94,1.41,3.81-1,1.41-1.71-1-3.56-.44l2.44,2.6c-3.58-.43-6.63,3-8-1l-.75,3.19c-2.33,1.52-3.59,4-2.48,5.84-1.08,1.35,3.09,4.62.61,2.73l1.12,5.5-.89-.15a10,10,0,0,0-.19,3.92c.12,1.37.35,2.79.4,4.2.08,2.8-.59,5.55-4.41,7.59.48,1.87,1.07,3.86-.64,6.37l-3.15-.25c.49,2.4-4.67,5.52-1.79,7.28-4.36,0-5.53,2.4-5.93,5.21s0,6.07-1.3,7.67l3.84,1.33c-1,2.46-.7,5.21-.15,8.86l3.47.91c1,1.82-.16,3.4-1.76,5s-3.53,3.34-4.1,5.53c-1.19-.74-.48-1.7.57-2.2-4.71,1.22-4.23,4.37-3.5,7.57s1.65,6.41-1.95,7.52c.79,1.55.06,2.17-1.07,2.58a.44.44,0,0,0-.07-.34,1.65,1.65,0,0,0-.22.42c-.76.23-1.62.43-2.36.71a7.05,7.05,0,0,0,2.28-.47,8.07,8.07,0,0,0-.06,3.76l-3.75-1.06c0,.11,0,.19,0,.31-1.79.53,1.25,1.66,4.17,2.24a8.93,8.93,0,0,0,1.4,2.52c-3-.84-2.9.12-2.87,1.11s0,2-3.26,1.07c1.25,1.12,1.07,2.77,1.23,4.61a7.81,7.81,0,0,0,3.34,6c-.78-.43-1.34-.34-1-.95-1.44.79-2.8,1.49-2,3.61l-4.32-2.37c1.23,2.05,2.37,4.16,3.46,6.35-3.55-.4-5.21-1.1-7.08-4.76,1,3.39.74,4.37.66,5.31s-.17,1.77.43,5.15l-2.05-2.42c-.42.49-.32,1.86-.43,3s-.45,1.91-1.6,1.17c-3.11-1.32-6,.76-9.89,3.14s-8.52,5.06-13.75,4.89c6.21,7.17-5.67-1.52-2.32,4.89-1.57-1.64-3.27-2.08-3-4.47-2.83,4.17-7.65.43-7.29,7.27-1.56-1.65-.79-3.28-1.85-4.17-.07.59-.27,2.37-1.34,1.47s-.36-1.93-.23-3.12c-3.8,2.64-.79,8.75,2.12,14.44-3.55-1.44-4.34-.48-3.72,4-1.75-1.39-4-2.6-1.91-4.69-1.55.57-10.07,2.24-7.68,6.77-1.08-.87-2.15.79-2.23,1.52-3.3,1.54-3.8,1.27-6.67,3.43l1.27.25c1.79,6.07-1.91,2.65-4.05,4.69l-.24-.59c-7.88-.69-1.46,3.25-9.57,1.89l2.14,3.21c3.39,7.53-7.36-1.51-9.17,3l2.22,1.31c-.51,3.45-10.3-7.28-12.55-7.27-.73-.43.09-1.34.39-2.1-6.94-1.87,1.7,4.78-1.28,7.66-1.89-2.08-2.32-6.55-4.91-5.8-1.08-.69-1.79,2.13-3,4.74s-2.77,5.05-5.53,3.52c1.63,1.52,3.27,3,2.3,5.28-2.26,1.9-10.26-3.89-9.76,3.16a3.12,3.12,0,0,1-1.15-1.27c-1.21,2.51-5.18,5.42-4.93,9.24-3.6-5.67-6-2.82-8.13,0s-4.11,5.58-6.39-.09c-1.94,1-3.88,2.09-5.84,3.07l-.29-1.23c-4.19.7-4.53,4-4.92,7.23-1.2-.44-.92-1.76-1.07-2.39-6.59-.12-6.92.39-9.9,7.84l-1.74-3.59c-.31,1.29-2.88.59-5.9.16s-6.46-.44-8.68,2.62a3.43,3.43,0,0,1,.14-1.89,5,5,0,0,1-2.26,1.59,7.79,7.79,0,0,1-2.75.25,53.92,53.92,0,0,1-5.82-1.05c-1.84-.34-3.46-.36-4.58.51s-1.76,2.77-1.62,6.42l-3.64,4.37c2.94,0,3.06,1.55,2.76,3.37s-1,3.89.43,4.82c-2.16,1.31-6.71-3.08-4.06-4.37l.57.62c-.2-3.8-2.09-4.1-4-4.08s-3.93.16-4.26-2.38a54.05,54.05,0,0,1-8.3.84c-2.78,0-5.55-.18-8.3-.43-5.51-.51-10.9-1.26-16.18-1.17l1.51,5.78-3.75-.16c-1-1.32-1.48-4.52,1.16-4.4-1.52-3.24-4.32,2.95-4.37,4.23-5.28-2.2,1.81-6.88.2-7l-2.13.51.5.67c-1.67,2.43-1.76,5-5,4.76-2.06-1.13-1.11-3.58-1.91-3.79,0-.42-.28-.61-1.23-.16l-4.72-.44,1.94,4.6c-2.09,2.3-4.49-.2-2.25,5-1.65-4-6.08-4.72-10.4-4.78s-8.46.57-9.43-.7c-3,3.3-5.95,3.22-9.54,2.69.87,1,1.27,6.2-1.86,5.47,1.49-10.68-5.58-4.82-7.69-12.68,1,2.61-1.21,2.82-3.27,3.3s-4,1.19-2.45,4.94c-2.53-1,.08-4-1.7-6.66a7.92,7.92,0,0,1-4.85,1,20.31,20.31,0,0,1-5-1.42c-3.42-1.28-6.85-3.12-10.6-2.81-.29,1.37.68,3.67-1.17,5.54q-1.52-3.76-2.92-7.52c-1.51.48-2.53,7.86-4.42,2.63.18,1.24.47,3.1-.57,3.37a27.74,27.74,0,0,0-10.38-4.17c-3.59-.68-7.23-1.11-10.89-1.67a44.23,44.23,0,0,1-5.35-1.26c-.87-.26-1.74-.56-2.59-.9a23.76,23.76,0,0,1-2.46-1.26,19.51,19.51,0,0,1-4.48-3.53,22.23,22.23,0,0,1-3.52-5.39c.72,3.21-.54,3-1.94,2.57.63.95-1.35,3.2-1.91,5-1.21-2.38-2.28-4.88-3.32-7.26-1.59,2.16-3.13,1.65-4.5,1s-2.71-1.3-4.17.79l2.12.07c-2.49,2.08-3.25,5.42-3.72,9.15S5.14,362.68,3.31,366c2.94-2.39,3.75.73,5.12,3.7a13.14,13.14,0,0,0,1.14,2.1,4.16,4.16,0,0,0,1.53,1.38c1.19.59,2.75.37,4.86-1.41.55,1.89-1.83,1.94-1.88,3.82,2.48-2.57,4.18-2.56,6.58-.23l-.59.65a25,25,0,0,1,5.35,1.9,34.66,34.66,0,0,1,4.34,2.45c1.4.9,2.81,1.95,4.44,3s3.47,2.09,5.71,3.2l.18-3.86c1.88,1,2,2.27,2.78,3.38,1.78-2.58.38-2.91-1-3.42s-2.78-1.08-1-3.9a5.08,5.08,0,0,0,2.54,4.11,19,19,0,0,0,4.79,1.65c3.39.92,6.65,1.68,6.83,6.19,3.12.58-.18-4.49,2.91-3.9l.45,2.48,1.26-2.88c1.94.78,2.53,3.86,2.32,5.86-.46-.31-1.5.36-2.06.45,2.28,3.13,7.69.15,8.46,1.12-.94-.58-1.89-1.22-2.82-1.84a38.31,38.31,0,0,1,6.78,0c2.3.17,4.65.46,7,.6a38.39,38.39,0,0,0,7,0,19.27,19.27,0,0,0,6.57-1.9l-.51-1.83c3.17-1.44,4.35-.93,5.62-.14a7,7,0,0,0,6,1.14l-.26.42a5.52,5.52,0,0,1,5-2.31c-1.76,2,3.08,4.17.79,6.41,6.72-3.39,3.36-2.71,7.83-9.26l1,3c1.52-2.65,1.66-4.08,5-4.81-2.74,2.52,2.07,4.54-1,7.88,7,6.56,10.35-6.49,13.57,3,3.18-8.22-6-4.55-4.25-6.31-1.49-2.69,2.63-6.13,4.8-5.32,2.21.17,3.83,10.5,9.52,10.25-.57,0-.59.59-1.16.57,2.17,2.05,4.1-2.91,6.8.42,1.32-5,3.42.17,3.62-6.17L150,389.19c2.92-1.73,5.37-9.21,10.31-5.84a11,11,0,0,1-2.62,4c1.5,1.8,2.67-1.35,4.24.48-.12,6.37-6.28,1.68-9.3,6.6,1.64,2.63,5.88-4.81,4.53,2.11,1-4.41,2.4-4.19,4-3.73s3.52,1.14,5.26-2.31l0,3.8c.58-.63,1.75-2.5,2.89-2.49l-1.74,5.06c1.46-2.2,3.06-1.4,4.68-.36s3.27,2.3,4.73,1c-6.48.68-1.85-4.43-4.79-7,3.7-2.85,5-.5,6.57,2.25s3.3,5.91,7.73,4.45c-1.18.69-4.85-1.73-3.15-3.69a11.4,11.4,0,0,1,5.54,3.56c5.86-1.69-1.43-3.73.77-6.43,2.65,4.27,2.63-2.31,4.91-4.16l.63,3.81c3.54.71,3.65-1.34,3.67-3.32s0-3.81,3.15-3c-.49,1.92-1,3.85-1.53,5.76,1-.64,1.9-1.32,2.84-2l.17,4.45c2.8-3.89,4-3.26,7.56-2.74-1.33-2.5-1-6.93,1.81-7.63,2.45,1.75-.28,3.85,3.65,2.3-.36,2.56-.7,5.82-3.29,2.73.09,1.27-.4,2.55-.32,3.81,2.76,2.18,5.55-.7,7-1.08a2.64,2.64,0,0,1-1.83-.48q2.37-3.35,4.65-6.66c1.29,1.17.85,2.48.39,3.77,1.11-.71,1.49-2.63,3.16-3.39.36,3.14,1.31,6.24-.87,8.31,1.64-1.6,3.25-3.18,4.8-4.88.74,1.21,3.92,2.76,3.5,4.09,1.84.42,3.36-1.61,5-3.6a14.21,14.21,0,0,1,2.61-2.64,3.85,3.85,0,0,1,3.16-.84,3,3,0,0,1,1-2.06c2-.3,4.18.18,6.25,0a6.66,6.66,0,0,0,3-.87,7.37,7.37,0,0,0,2.52-2.94l4.48,4.34c3.05-2.5-5.87-5.38-.84-9.52,3.42-3.19,3.23,3.91,5.24,4.84,1.07-3.39,2.32-10.21,7.74-7.46C273.06,371.23,271.79,370.85,270.8,371.71Zm40-21c-.41,1.11-.85,4.12-2.43,2.37C307.26,348.7,308.88,350.26,310.78,350.73ZM365,310.3c.09,1.42-1.07,1.36-2.75.65A2.41,2.41,0,0,1,365,310.3Zm65.31-163,.16.13C428.65,149,429.35,148.43,430.29,147.33Zm2.33-3.4a1.74,1.74,0,0,0-1.55-.49c.92.44.83,1.29.38,2.19C432.49,145.56,433.27,145.21,432.62,143.93ZM144.68,361.74l.76,1C143.78,363.88,144.23,362.87,144.68,361.74Z" transform="translate(-3.31 -7.46)"/><path class="cls-2" d="M361.11,318.65a7.81,7.81,0,0,1-1.36-1.64A1.66,1.66,0,0,0,361.11,318.65Z" transform="translate(-3.31 -7.46)"/><path class="cls-2" d="M244.68,383.39c-.06,0-.1,0-.15,0a3.36,3.36,0,0,0,.08.71Z" transform="translate(-3.31 -7.46)"/><path class="cls-2" d="M450,210.4a4.24,4.24,0,0,1-2.37.94A1.75,1.75,0,0,0,450,210.4Z" transform="translate(-3.31 -7.46)"/><path class="cls-2" d="M429.53,123.16l.61,2.52c0-1.17.9-1.45,1.6-1.94C430.84,123.65,429.47,123.91,429.53,123.16Z" transform="translate(-3.31 -7.46)"/><path class="cls-2" d="M456,105.2c-.43-.42,0-.78-.4-1.19l-1.8-.1C453.72,105.47,455,106.71,456,105.2Z" transform="translate(-3.31 -7.46)"/><path class="cls-2" d="M442.56,122.84c3.24.28,2.36-1.42,2-3.21a.5.5,0,0,1,0,.3C440.08,118.8,441.33,120.81,442.56,122.84Z" transform="translate(-3.31 -7.46)"/><path class="cls-2" d="M444.5,119.22a2.85,2.85,0,0,1,.13-1.59C442.86,117.18,444.17,118.22,444.5,119.22Z" transform="translate(-3.31 -7.46)"/><path class="cls-2" d="M431.39,138.83c1-.65-4-1.23-2.61-1.44C424.88,135.77,432.72,143.53,431.39,138.83Z" transform="translate(-3.31 -7.46)"/><polygon class="cls-2" points="450.03 115.53 445.98 115.58 449.04 117.02 450.03 115.53"/><path class="cls-2" d="M448.28,136.17l1.54-2.57a1.48,1.48,0,0,1-1.23-1C448.18,134.31,447.1,136,448.28,136.17Z" transform="translate(-3.31 -7.46)"/><path class="cls-2" d="M448.59,132.64a2.38,2.38,0,0,0-.3-2.32A5,5,0,0,0,448.59,132.64Z" transform="translate(-3.31 -7.46)"/><polygon class="cls-2" points="450.65 119.5 449.7 120.19 449.09 122.1 450.65 119.5"/><path class="cls-2" d="M441.75,165.38l.41,3.21c1.27.61,2.28,0,2-1.24C443.41,166.43,443.15,165.22,441.75,165.38Z" transform="translate(-3.31 -7.46)"/><path class="cls-2" d="M454.4,158.63c-1,.65-1.87.52-3.26.71l4.84,1.12Z" transform="translate(-3.31 -7.46)"/><path class="cls-2" d="M453.66,167.72c1.29.6,2.82,5.27,3.43,1.36C455.84,168.47,455.35,165.17,453.66,167.72Z" transform="translate(-3.31 -7.46)"/><polygon class="cls-2" points="432.23 203.51 432.41 202.75 424.59 200.44 432.23 203.51"/><path class="cls-2" d="M439.6,257.27c3.45-3-4.22-2.88-.56-5.28-1.42-1.59-3,1.95-4.13.41C435.84,255.4,434.24,256.14,439.6,257.27Z" transform="translate(-3.31 -7.46)"/><path class="cls-2" d="M434.91,252.4a9.43,9.43,0,0,0-.68-1.59A4.17,4.17,0,0,0,434.91,252.4Z" transform="translate(-3.31 -7.46)"/><polygon class="cls-2" points="11.13 330.99 10.11 328.55 10.02 331.59 11.13 330.99"/><path class="cls-2" d="M8.13,342l2-4.8-3.36,3.56C7.33,340.77,8.36,340.79,8.13,342Z" transform="translate(-3.31 -7.46)"/><path class="cls-2" d="M321.49,357l-.41-1.19c-.95-1-1.5-.86-2.6-.53Z" transform="translate(-3.31 -7.46)"/><polygon class="cls-2" points="286.83 360.43 287.39 360.3 284.49 356.45 286.83 360.43"/><path class="cls-2" d="M266.47,384.22c1.17-.22,2.07-1.68,3.24-1.9C267.63,384,264.1,378.86,266.47,384.22Z" transform="translate(-3.31 -7.46)"/><path class="cls-3" d="M-323.92-30" transform="translate(-3.31 -7.46)"/></svg>