<svg viewBox="0 0 288 115" fill="none" xmlns="http://www.w3.org/2000/svg">
<rect x="15" y="13" width="264" height="90" rx="29" fill="#EA5C58"/>
<path d="M71.5781 78.9219C71.5156 79.5469 71.2969 80.0312 70.9219 80.375C70.5469 80.75 70.0625 80.9375 69.4688 80.9375C69.1562 80.9375 68.8594 80.8906 68.5781 80.7969C67.9844 81.2656 67.2812 81.625 66.4688 81.875C65.6562 82.125 64.8906 82.375 64.1719 82.625C63.2969 82.5938 62.4375 82.5156 61.5938 82.3906C60.75 82.2656 59.875 82.2344 58.9688 82.2969C58.6562 82.0781 58.3281 81.9375 57.9844 81.875C57.6406 81.8125 57.2812 81.7656 56.9062 81.7344C56.5625 81.7344 56.2188 81.6875 55.875 81.5938C55.5625 81.5 55.25 81.2812 54.9375 80.9375H52.5938C52.375 80.9375 52.0469 80.8281 51.6094 80.6094C51.2031 80.4219 50.7344 80.2188 50.2031 80C49.7031 79.7812 49.1562 79.5781 48.5625 79.3906C48 79.2031 47.4688 79.1094 46.9688 79.1094H46.6875C46.3438 78.8281 45.9375 78.6094 45.4688 78.4531C45.0312 78.3281 44.5781 78.2031 44.1094 78.0781C43.6406 77.9844 43.1875 77.875 42.75 77.75C42.3125 77.625 41.9375 77.4531 41.625 77.2344C41.3125 77.0156 40.9531 76.7969 40.5469 76.5781C40.1406 76.3281 39.7188 76.2188 39.2812 76.25C38.6875 75.9062 38.0625 75.6094 37.4062 75.3594C36.7812 75.1094 36.1406 74.875 35.4844 74.6562L33.5625 73.9531C32.9375 73.7031 32.3125 73.4062 31.6875 73.0625C31.5938 73.0938 31.4844 73.0938 31.3594 73.0625C31.2344 73.0312 31.125 73.0156 31.0312 73.0156C30.8438 73.0156 30.7344 73.0781 30.7031 73.2031C30.4844 72.9844 30.2344 72.7969 29.9531 72.6406C29.7031 72.4844 29.4531 72.2969 29.2031 72.0781C29.0781 72.1094 28.9531 72.1406 28.8281 72.1719C28.7344 72.1719 28.6094 72.1719 28.4531 72.1719C28.1719 72.1719 27.8906 72.1406 27.6094 72.0781C27.3594 72.0156 27.1094 71.9375 26.8594 71.8438C26.5781 72.4688 26.3906 73.1719 26.2969 73.9531C26.2031 74.7344 26.125 75.5469 26.0625 76.3906C26.0312 77.2031 25.9844 78.0156 25.9219 78.8281C25.8594 79.6719 25.7188 80.4375 25.5 81.125C25.5625 81.375 25.5938 81.625 25.5938 81.875V82.6719C25.5938 83.2031 25.6719 83.625 25.8281 83.9375C25.7656 84.2188 25.7031 84.4844 25.6406 84.7344C25.6094 84.9844 25.5625 85.2344 25.5 85.4844C25.5312 85.8281 25.5469 86.1406 25.5469 86.4219C25.5781 86.7344 25.5938 87.0625 25.5938 87.4062V88.2031C25.5938 88.4844 25.5625 88.7656 25.5 89.0469C25.1875 89.2344 24.875 89.4062 24.5625 89.5625C24.25 89.75 23.9375 89.9688 23.625 90.2188C23.4062 89.8125 23.0312 89.5781 22.5 89.5156C22.375 89.6719 22.2812 89.875 22.2188 90.125C22.1875 90.4062 22.0469 90.5469 21.7969 90.5469C21.3594 90.2031 21 89.9219 20.7188 89.7031C20.4375 89.4844 20.125 89.1562 19.7812 88.7188C19.75 88.6562 19.7344 88.5781 19.7344 88.4844C19.7344 88.3281 19.7656 88.1875 19.8281 88.0625C19.8906 87.9375 19.9219 87.8125 19.9219 87.6875C19.9219 87.3125 19.875 86.9844 19.7812 86.7031C19.7188 86.2969 19.6719 85.8906 19.6406 85.4844C19.6094 85.1094 19.5938 84.7344 19.5938 84.3594C19.5938 83.8281 19.625 83.3125 19.6875 82.8125C19.7812 82.3125 19.9375 81.7969 20.1562 81.2656C20.5 80.3594 20.7344 79.4062 20.8594 78.4062C21.0156 77.4062 21.125 76.4062 21.1875 75.4062C21.25 74.375 21.2812 73.3438 21.2812 72.3125C21.3125 71.2812 21.375 70.2969 21.4688 69.3594C21.25 68.8594 20.9844 68.4688 20.6719 68.1875C20.3906 67.875 20.25 67.3906 20.25 66.7344C20.25 66.1406 20.4375 65.6875 20.8125 65.375C21.1875 65.0312 21.5156 64.625 21.7969 64.1562C21.7344 63.9688 21.7812 63.8438 21.9375 63.7812L22.5 58.8594C22.5312 58.5156 22.5781 58.1406 22.6406 57.7344C22.7344 57.3281 22.7969 56.9531 22.8281 56.6094C22.8906 55.8906 22.9219 55.1875 22.9219 54.5C22.9219 53.8125 22.9531 53.125 23.0156 52.4375C23.1719 50.9062 23.3125 49.3906 23.4375 47.8906C23.5938 46.3906 23.6719 44.8906 23.6719 43.3906C23.6719 42.6719 23.6406 41.9531 23.5781 41.2344C23.5469 40.5156 23.4531 39.7969 23.2969 39.0781C22.7656 39.2344 22.1719 39.4062 21.5156 39.5938C20.8906 39.75 20.3594 40.0312 19.9219 40.4375H19.5469C18.7344 40.4375 17.9688 40.5938 17.25 40.9062C16.5625 41.2188 15.8594 41.5156 15.1406 41.7969C14.8281 41.9531 14.5156 42.0625 14.2031 42.125C13.8906 42.1562 13.5625 42.2188 13.2188 42.3125C13.0625 42.3438 12.8906 42.4375 12.7031 42.5938C12.5156 42.75 12.3438 42.8594 12.1875 42.9219L11.3906 43.1094C11.1719 43.1719 11.0781 43.3125 11.1094 43.5312C11.1406 43.75 11.0625 43.8906 10.875 43.9531C10.7188 44.1094 10.5 44.1875 10.2188 44.1875C9.9375 44.1562 9.71875 44.1406 9.5625 44.1406H9.375C8.59375 44.7031 7.84375 45.1875 7.125 45.5938C6.375 45.9688 5.5 46.2188 4.5 46.3438L3.46875 47C3.125 47.2188 2.73438 47.3281 2.29688 47.3281C1.95312 47.3281 1.67188 47.2656 1.45312 47.1406C1.20312 46.7656 1.01562 46.3438 0.890625 45.875C0.734375 45.4062 0.484375 45 0.140625 44.6562C0.296875 44.5 0.40625 44.2969 0.46875 44.0469C0.5 43.7656 0.546875 43.5156 0.609375 43.2969C1.54688 42.8906 2.5 42.5 3.46875 42.125C4.40625 41.75 5.3125 41.2969 6.1875 40.7656C6.28125 40.7969 6.42188 40.8125 6.60938 40.8125C6.92188 40.8125 7.20312 40.7656 7.45312 40.6719C7.70312 40.5781 7.95312 40.4688 8.20312 40.3438C8.45312 40.2188 8.70312 40.1094 8.95312 40.0156C9.20312 39.9219 9.5 39.8906 9.84375 39.9219C10.9062 39.3281 12.0312 38.8438 13.2188 38.4688C14.4062 38.0938 15.5312 37.5781 16.5938 36.9219C16.75 36.9219 16.875 36.9531 16.9688 37.0156C17.0938 37.0781 17.2188 37.1094 17.3438 37.1094C17.4688 37.1094 17.5469 37.0938 17.5781 37.0625C17.7656 36.8125 18.0156 36.6406 18.3281 36.5469C18.6406 36.4219 18.9531 36.3281 19.2656 36.2656C19.6094 36.1719 19.9219 36.0625 20.2031 35.9375C20.5156 35.7812 20.7188 35.5469 20.8125 35.2344C20.9688 35.3594 21.2031 35.4219 21.5156 35.4219C22.0469 35.4219 22.5312 35.3125 22.9688 35.0938C23.4375 34.875 23.9375 34.7656 24.4688 34.7656C24.5938 34.7656 24.7031 34.7969 24.7969 34.8594C24.9219 34.8906 25.0469 34.9062 25.1719 34.9062C25.4219 34.9062 25.5469 34.8281 25.5469 34.6719C25.5781 34.5156 25.6719 34.375 25.8281 34.25C27.7344 33.9062 29.625 33.5938 31.5 33.3125C33.4062 33.0312 35.3281 32.8906 37.2656 32.8906C37.5469 32.7031 37.8594 32.6094 38.2031 32.6094C38.5469 32.6094 38.8594 32.7031 39.1406 32.8906C39.6719 32.8281 40.2031 32.7812 40.7344 32.75C41.2656 32.7188 41.7969 32.7031 42.3281 32.7031C43.5469 32.7031 44.7969 32.7812 46.0781 32.9375C47.3594 33.0938 48.625 33.3438 49.875 33.6875C51.1562 34 52.375 34.4375 53.5312 35C54.6875 35.5312 55.7656 36.1719 56.7656 36.9219C56.8594 37.2031 56.9844 37.4844 57.1406 37.7656C57.2969 38.0469 57.5 38.2656 57.75 38.4219C57.75 38.4844 57.7344 38.5312 57.7031 38.5625C57.7031 38.5938 57.7031 38.6406 57.7031 38.7031C57.7031 39.0469 57.7969 39.375 57.9844 39.6875C58.2031 40 58.3125 40.375 58.3125 40.8125C58.3125 41.25 58.2344 41.6875 58.0781 42.125C57.9531 42.5625 57.9062 43 57.9375 43.4375C57.5938 43.9375 57.2969 44.3906 57.0469 44.7969C56.8281 45.2031 56.6875 45.7188 56.625 46.3438C56.0625 46.9062 55.5625 47.5312 55.125 48.2188C54.6875 48.875 54.2344 49.5312 53.7656 50.1875C53.3281 50.8125 52.8281 51.3906 52.2656 51.9219C51.7031 52.4531 51.0312 52.875 50.25 53.1875C50.2188 53.5 50.0938 53.8438 49.875 54.2188H48.8906C48.7969 54.4688 48.6406 54.6562 48.4219 54.7812L47.7656 55.1562C47.5469 55.2812 47.3594 55.4375 47.2031 55.625C47.0781 55.8125 47.0156 56.0781 47.0156 56.4219C46.9531 56.3906 46.875 56.375 46.7812 56.375C46.4688 56.375 46.0938 56.5312 45.6562 56.8438C45.25 57.1562 44.9219 57.4062 44.6719 57.5938C44.1406 57.9688 43.5938 58.3125 43.0312 58.625C42.5 58.9375 42.0312 59.375 41.625 59.9375C40.375 60.4688 39.1875 61.0938 38.0625 61.8125C36.9375 62.5 35.7188 63.0469 34.4062 63.4531C33.9062 63.9844 33.3125 64.4062 32.625 64.7188C31.9688 65 31.3281 65.3125 30.7031 65.6562V65.7969C30.7031 66.0469 30.7969 66.2969 30.9844 66.5469C31.1719 66.7656 31.3906 66.9688 31.6406 67.1562C31.8906 67.3125 32.1562 67.4219 32.4375 67.4844C32.75 67.5469 33.0156 67.5469 33.2344 67.4844C33.8594 68.0469 34.5781 68.5 35.3906 68.8438C36.2031 69.1875 37.0469 69.5 37.9219 69.7812C38.7969 70.0625 39.6562 70.3594 40.5 70.6719C41.3438 70.9844 42.125 71.375 42.8438 71.8438H43.9688C44.6875 72.4688 45.5312 72.9375 46.5 73.25C47.5 73.5625 48.4531 73.8438 49.3594 74.0938C49.7344 74.4375 50.2031 74.7031 50.7656 74.8906C51.3594 75.0469 51.9219 75.125 52.4531 75.125H52.7344C52.8594 75.125 52.9688 75.1094 53.0625 75.0781V75.1719C53.0625 75.3281 53.1094 75.4375 53.2031 75.5C53.2969 75.5312 53.3906 75.5625 53.4844 75.5938C53.6094 75.5938 53.7188 75.625 53.8125 75.6875C53.9375 75.7188 54.0312 75.7812 54.0938 75.875H54.5625C55.2188 75.875 55.8438 76.0156 56.4375 76.2969C57.0312 76.5469 57.6562 76.6719 58.3125 76.6719C58.5938 76.6719 58.8125 76.6406 58.9688 76.5781C59.1562 76.6406 59.2969 76.7656 59.3906 76.9531C59.4844 77.1406 59.6094 77.2969 59.7656 77.4219C59.9844 77.3906 60.1875 77.3594 60.375 77.3281C60.5625 77.3281 60.75 77.3281 60.9375 77.3281C61.625 77.3281 62.2656 77.4062 62.8594 77.5625C63.4531 77.7188 64.0625 77.9531 64.6875 78.2656C65.6875 77.8281 66.6719 77.4688 67.6406 77.1875C68.6094 76.9062 69.6406 76.7656 70.7344 76.7656V76.8594C70.7344 77.2344 70.8281 77.5781 71.0156 77.8906C71.2344 78.2344 71.4219 78.5781 71.5781 78.9219ZM53.625 41.5156C53.625 41.1406 53.5469 40.8438 53.3906 40.625C53.2656 40.4062 53.0938 40.2188 52.875 40.0625C52.6562 39.875 52.4219 39.7031 52.1719 39.5469C51.9531 39.3906 51.75 39.1875 51.5625 38.9375C50.75 38.6875 49.9531 38.4062 49.1719 38.0938C48.3906 37.7812 47.5938 37.5156 46.7812 37.2969C46.375 37.2031 45.9688 37.125 45.5625 37.0625C45.1562 36.9688 44.75 36.9219 44.3438 36.9219H43.3125C43.125 36.8906 42.9219 36.8594 42.7031 36.8281C42.5156 36.7656 42.3281 36.7188 42.1406 36.6875C41.7031 36.625 41.2656 36.5781 40.8281 36.5469C40.4219 36.5156 40 36.5 39.5625 36.5C38.75 36.5 37.9375 36.5312 37.125 36.5938L34.6875 36.7812C34.3438 36.8125 33.9844 36.8281 33.6094 36.8281C33.2344 36.8281 32.8906 36.8594 32.5781 36.9219C32.4219 36.9531 32.2031 37.0312 31.9219 37.1562C31.6406 37.25 31.3438 37.3594 31.0312 37.4844C30.7188 37.5781 30.4062 37.6875 30.0938 37.8125C29.8125 37.9375 29.5625 38.0312 29.3438 38.0938C29.375 38.3125 29.3906 38.5312 29.3906 38.75V39.3594C29.3906 39.8281 29.375 40.2969 29.3438 40.7656C29.3125 41.2344 29.25 41.7031 29.1562 42.1719C29.125 42.3594 29.0781 42.5469 29.0156 42.7344C28.9531 42.9219 28.9062 43.1094 28.875 43.2969C28.8125 43.5781 28.7812 43.8906 28.7812 44.2344V45.125C28.7188 45.8438 28.6719 46.5469 28.6406 47.2344C28.6094 47.9219 28.5625 48.625 28.5 49.3438C28.3125 51.4062 28.1094 53.4531 27.8906 55.4844C27.7031 57.5156 27.5781 59.5625 27.5156 61.625C28.5469 61.4062 29.5312 61.0781 30.4688 60.6406C31.4062 60.2031 32.3281 59.7344 33.2344 59.2344C34.1406 58.7031 35.0469 58.1875 35.9531 57.6875C36.8594 57.1875 37.8125 56.7656 38.8125 56.4219C39.0625 56.0781 39.3594 55.7969 39.7031 55.5781C40.0781 55.3594 40.3906 55.0781 40.6406 54.7344C40.9531 54.7344 41.1875 54.6719 41.3438 54.5469C41.5 54.3906 41.7031 54.2812 41.9531 54.2188C43.4531 52.9062 44.9844 51.6719 46.5469 50.5156C48.1094 49.3594 49.6094 48.125 51.0469 46.8125C51.1719 46.375 51.375 45.9531 51.6562 45.5469C51.9688 45.1094 52.2656 44.6719 52.5469 44.2344C52.8281 43.7969 53.0781 43.3594 53.2969 42.9219C53.5156 42.4844 53.625 42.0156 53.625 41.5156ZM107.859 25.7656C107.859 26.0469 107.844 26.3281 107.812 26.6094C107.812 26.8906 107.797 27.1563 107.766 27.4062C107.672 27.5625 107.484 27.625 107.203 27.5938C106.953 27.5625 106.75 27.5469 106.594 27.5469C106.438 27.5469 106.297 27.5781 106.172 27.6406C106.078 27.6719 106.031 27.7656 106.031 27.9219C106.031 28.1094 106.047 28.2344 106.078 28.2969C105.828 28.2656 105.562 28.2344 105.281 28.2031C105 28.1719 104.75 28.0781 104.531 27.9219C104.094 28.0156 103.672 28.1406 103.266 28.2969C102.891 28.4531 102.516 28.625 102.141 28.8125C101.766 29 101.375 29.1719 100.969 29.3281C100.562 29.4844 100.141 29.5781 99.7031 29.6094C99.4219 29.9219 99.0625 30.1562 98.625 30.3125C98.1875 30.4688 97.7344 30.6094 97.2656 30.7344C96.7969 30.8594 96.3594 31.0156 95.9531 31.2031C95.5469 31.3594 95.2188 31.6094 94.9688 31.9531C94.2812 32.0156 93.625 32.1875 93 32.4688C92.375 32.75 91.75 33.0469 91.125 33.3594C90.5312 33.6719 89.9219 33.9688 89.2969 34.25C88.6719 34.5312 88 34.7188 87.2812 34.8125C87.0938 35 86.8594 35.1562 86.5781 35.2812C86.3281 35.4062 86.0625 35.5312 85.7812 35.6562C85.5 35.75 85.2344 35.8594 84.9844 35.9844C84.7344 36.1094 84.5312 36.2812 84.375 36.5H84.2812C84.1562 36.5 84.0625 36.4688 84 36.4062C83.9375 36.3438 83.8438 36.3125 83.7188 36.3125C83.625 36.3125 83.5625 36.3281 83.5312 36.3594C82.7812 36.7031 82.0312 37.0625 81.2812 37.4375C80.5312 37.8125 79.75 38.1719 78.9375 38.5156C77.3438 39.1719 75.7344 39.8125 74.1094 40.4375C72.4844 41.0625 70.9219 41.8281 69.4219 42.7344C69.0781 43.9844 68.7969 45.2656 68.5781 46.5781C68.3594 47.8594 67.9688 49.0938 67.4062 50.2812V52.4844C67.0938 53.0781 66.8906 53.7344 66.7969 54.4531C66.7031 55.1719 66.6562 55.8594 66.6562 56.5156C66.6562 56.7656 66.6562 57 66.6562 57.2188C66.6875 57.4062 66.7031 57.6094 66.7031 57.8281C67.6094 57.5781 68.4844 57.2969 69.3281 56.9844C70.2031 56.6719 71.0781 56.3906 71.9531 56.1406C72.3906 55.9844 72.8281 55.875 73.2656 55.8125C73.7344 55.75 74.1875 55.6406 74.625 55.4844C74.9688 55.3906 75.3281 55.2656 75.7031 55.1094C76.0781 54.9219 76.4375 54.75 76.7812 54.5938C77.7188 54.1875 78.6719 53.8281 79.6406 53.5156C80.6406 53.2031 81.6562 52.9688 82.6875 52.8125C83 52.5625 83.3438 52.3281 83.7188 52.1094C84.0938 51.8906 84.4688 51.7812 84.8438 51.7812C85.125 51.7812 85.3594 51.8281 85.5469 51.9219C86.0781 51.6094 86.7031 51.3281 87.4219 51.0781C88.1406 50.8281 88.8125 50.7344 89.4375 50.7969C89.5938 50.5781 89.7812 50.4375 90 50.375C90.2188 50.2812 90.4531 50.2344 90.7031 50.2344C90.8281 50.2344 90.9375 50.25 91.0312 50.2812C91.1562 50.2812 91.2969 50.2812 91.4531 50.2812C91.7656 50.0625 92.1094 49.9062 92.4844 49.8125C92.8594 49.7188 93.2344 49.6406 93.6094 49.5781C93.9844 49.5156 94.3438 49.4375 94.6875 49.3438C95.0625 49.2188 95.3906 49.0312 95.6719 48.7812C96.1094 48.8125 96.4531 48.9375 96.7031 49.1562C96.9844 49.375 97.2188 49.6406 97.4062 49.9531C97.5938 50.2656 97.75 50.5938 97.875 50.9375C98 51.2812 98.1562 51.6094 98.3438 51.9219C98.2812 52.1719 98.1875 52.375 98.0625 52.5312C97.9375 52.6562 97.7969 52.7812 97.6406 52.9062C97.4844 53.0312 97.3438 53.1562 97.2188 53.2812C97.0938 53.4062 97.0156 53.5781 96.9844 53.7969C95.8906 53.7969 94.8281 53.9531 93.7969 54.2656C92.7969 54.5781 91.7969 54.9375 90.7969 55.3438C89.8281 55.75 88.8281 56.1406 87.7969 56.5156C86.7969 56.8594 85.7656 57.0781 84.7031 57.1719C84.5469 57.3281 84.3438 57.4531 84.0938 57.5469L83.3906 57.7812C83.1719 57.8438 82.9688 57.9375 82.7812 58.0625C82.5938 58.1562 82.4531 58.3125 82.3594 58.5312C82.1719 58.4375 81.9688 58.3906 81.75 58.3906C81.2188 58.3906 80.7031 58.5312 80.2031 58.8125C79.7031 59.0938 79.1406 59.2344 78.5156 59.2344C78.2656 59.2344 78.0938 59.2188 78 59.1875C77.8438 59.4688 77.6094 59.6719 77.2969 59.7969C77.0156 59.9219 76.7031 60.0312 76.3594 60.125C76.0469 60.1875 75.7344 60.2812 75.4219 60.4062C75.1406 60.5312 74.9219 60.75 74.7656 61.0625C74.6719 61.0312 74.5625 61.0156 74.4375 61.0156H74.1562C73.6562 61.0156 73.0781 61.1094 72.4219 61.2969C71.7969 61.4531 71.3438 61.7656 71.0625 62.2344C70.8125 62.1719 70.5938 62.1406 70.4062 62.1406C69.9688 62.1406 69.5781 62.2344 69.2344 62.4219C68.8906 62.5781 68.5469 62.7656 68.2031 62.9844L67.1719 63.6406C66.8281 63.8594 66.4531 64.0156 66.0469 64.1094C65.2344 65.2656 64.6719 66.5938 64.3594 68.0938C64.0469 69.5938 63.8125 71.1562 63.6562 72.7812C63.5312 74.4062 63.4062 76.0156 63.2812 77.6094C63.1562 79.2344 62.9062 80.7188 62.5312 82.0625C62.7188 82.5625 62.8594 83.0938 62.9531 83.6562C63.0469 84.2188 63.125 84.7812 63.1875 85.3438C63.25 85.9375 63.3125 86.5312 63.375 87.125C63.4375 87.7188 63.5469 88.2812 63.7031 88.8125C63.8594 89.4688 64.1562 90.0469 64.5938 90.5469C65.0625 91.0781 65.3906 91.6719 65.5781 92.3281C65.7344 92.3594 65.8906 92.375 66.0469 92.375C66.2344 92.4062 66.4219 92.4219 66.6094 92.4219C67.7344 92.4219 68.7188 92.2031 69.5625 91.7656C70.4375 91.3281 71.25 90.7812 72 90.125C72.75 89.5 73.4688 88.8125 74.1562 88.0625C74.875 87.3438 75.6406 86.7031 76.4531 86.1406H77.3438C77.5625 85.8906 77.75 85.625 77.9062 85.3438C78.0625 85.0625 78.2344 84.7969 78.4219 84.5469C78.6094 84.2969 78.8281 84.0781 79.0781 83.8906C79.3281 83.7344 79.6406 83.625 80.0156 83.5625C80.1094 83.0938 80.3281 82.7344 80.6719 82.4844C81.0156 82.2344 81.25 81.8594 81.375 81.3594C81.4375 81.3906 81.5156 81.4062 81.6094 81.4062C81.8594 81.4062 82.0469 81.3438 82.1719 81.2188L82.875 80.5625C83.125 80.3125 83.3906 80.0625 83.6719 79.8125C83.9844 79.5938 84.2812 79.375 84.5625 79.1562C85.4688 78.5 86.375 77.8438 87.2812 77.1875C88.1875 76.5625 89.0156 75.8281 89.7656 74.9844C89.7969 75.0156 89.8438 75.0312 89.9062 75.0312C90.1562 75.0312 90.3281 74.9531 90.4219 74.7969C90.5156 74.6406 90.7344 74.5938 91.0781 74.6562C91.2656 74.375 91.4375 74.0938 91.5938 73.8125C91.75 73.5 91.875 73.1719 91.9688 72.8281L93.4688 73.0156C93.9688 73.0781 94.4688 73.1094 94.9688 73.1094C95.125 73.1094 95.2656 73.1094 95.3906 73.1094C95.5469 73.0781 95.6875 73.0312 95.8125 72.9688C96.1875 73.5625 96.3906 74.2031 96.4219 74.8906C96.4531 75.5469 96.5312 76.2031 96.6562 76.8594C96.5938 76.8594 96.5469 76.8594 96.5156 76.8594C96.5156 76.8281 96.4844 76.8125 96.4219 76.8125C96.2656 76.8125 96.1094 76.875 95.9531 77C95.8281 77.0938 95.6875 77.2188 95.5312 77.375L95.0625 77.8438C94.9062 78 94.7656 78.125 94.6406 78.2188C94.2969 78.4375 93.9375 78.625 93.5625 78.7812C93.1875 78.9688 92.8281 79.1562 92.4844 79.3438C92.1406 79.5312 91.8125 79.75 91.5 80C91.1875 80.2812 90.9375 80.625 90.75 81.0312C90.125 81.2812 89.5156 81.5469 88.9219 81.8281C88.3594 82.1094 87.8125 82.4062 87.2812 82.7188C87.125 82.875 86.9844 83.0312 86.8594 83.1875C86.7344 83.3438 86.6406 83.5156 86.5781 83.7031C85.7344 83.9844 85.0312 84.4062 84.4688 84.9688C83.9375 85.5312 83.3906 86.1406 82.8281 86.7969L82.7812 86.75C82.5625 86.75 82.4219 86.8281 82.3594 86.9844C82.3281 87.1406 82.1562 87.1875 81.8438 87.125C81.25 87.7812 80.625 88.3906 79.9688 88.9531C79.3125 89.5156 78.6406 90.0781 77.9531 90.6406C77.2656 91.2031 76.5781 91.7656 75.8906 92.3281C75.2031 92.9219 74.5625 93.5469 73.9688 94.2031C73.5625 94.3281 73.1719 94.4844 72.7969 94.6719C72.4219 94.8594 72.1406 95.1406 71.9531 95.5156H71.8125C71.4688 95.5156 71.2188 95.5938 71.0625 95.75C70.9375 95.9062 70.7812 96.1094 70.5938 96.3594C69.9375 96.5156 69.2656 96.6875 68.5781 96.875C67.8906 97.0625 67.1875 97.1562 66.4688 97.1562C65.9688 97.1562 65.4844 97.0625 65.0156 96.875C64.5781 96.6875 64.1406 96.4375 63.7031 96.125C63.2969 95.8438 62.9062 95.5312 62.5312 95.1875C62.1875 94.8438 61.8594 94.5156 61.5469 94.2031C61.3594 93.5781 61.1094 92.9219 60.7969 92.2344C60.5156 91.5781 60.375 90.9375 60.375 90.3125C60.375 90.1562 60.3906 90 60.4219 89.8438C60.4844 89.7188 60.5156 89.5938 60.5156 89.4688C60.5156 89.25 60.4375 89.1562 60.2812 89.1875C60.1562 89.2188 60.0625 89.1406 60 88.9531C59.9375 88.6406 59.8906 88.2812 59.8594 87.875C59.8594 87.5 59.8281 87.1406 59.7656 86.7969C59.6719 86.0781 59.5469 85.3438 59.3906 84.5938C59.2656 83.8438 59.125 83.1094 58.9688 82.3906C59.0938 82.3281 59.1875 82.2188 59.25 82.0625C59.3438 81.9375 59.4375 81.8125 59.5312 81.6875C59.4375 81.4375 59.3438 81.1562 59.25 80.8438C59.1875 80.5625 59.1562 80.2656 59.1562 79.9531C59.1562 79.3281 59.3906 78.8594 59.8594 78.5469C59.8594 78.3281 59.7969 78.1562 59.6719 78.0312C59.5781 77.9375 59.5312 77.7656 59.5312 77.5156C59.5312 77.4531 59.5469 77.2812 59.5781 77C59.6406 76.6875 59.7031 76.3438 59.7656 75.9688C59.8594 75.5938 59.9375 75.2344 60 74.8906C60.0625 74.5469 60.1094 74.3125 60.1406 74.1875C60.3594 72.75 60.5469 71.3438 60.7031 69.9688C60.8594 68.5625 61.0781 67.1562 61.3594 65.75C61.0469 65.5 60.6406 65.3125 60.1406 65.1875C59.6719 65.0312 59.3438 64.8281 59.1562 64.5781C59 64.3594 58.875 64.0781 58.7812 63.7344C58.6875 63.3906 58.6406 63.0938 58.6406 62.8438C58.6406 61.9375 59 61.2188 59.7188 60.6875C60.4375 60.125 61.2031 59.7969 62.0156 59.7031C62.4219 58.6094 62.7188 57.5 62.9062 56.375C63.125 55.2188 63.2969 54.0625 63.4219 52.9062L63.7969 49.3906C63.9219 48.2031 64.1094 47.0312 64.3594 45.875H64.0781C63.4531 45.875 62.8438 45.9688 62.25 46.1562C61.6562 46.3438 61.0469 46.4375 60.4219 46.4375H60.3281C59.4219 45.7188 58.9688 44.8594 58.9688 43.8594C58.9688 43.2656 59.0938 42.6719 59.3438 42.0781C59.8438 41.8906 60.2969 41.6406 60.7031 41.3281C61.1094 41.0156 61.5156 40.7031 61.9219 40.3906C62.3594 40.0469 62.7969 39.75 63.2344 39.5C63.6719 39.25 64.1562 39.0938 64.6875 39.0312C64.75 38.125 64.9062 37.2188 65.1562 36.3125C65.4062 35.4062 65.5312 34.5 65.5312 33.5938C65.5312 33.4062 65.5156 33.2188 65.4844 33.0312C65.4844 32.8438 65.4531 32.6562 65.3906 32.4688C65.6094 32.1875 65.75 31.8906 65.8125 31.5781C65.9062 31.2656 65.9531 30.9375 65.9531 30.5938C65.9531 30.2188 65.9219 29.8594 65.8594 29.5156C65.8281 29.1406 65.7812 28.7812 65.7188 28.4375C66 28.3125 66.2188 28.1875 66.375 28.0625C66.5312 27.9063 66.6719 27.7656 66.7969 27.6406C66.9531 27.5156 67.1406 27.4062 67.3594 27.3125C67.5781 27.2188 67.8906 27.1719 68.2969 27.1719C68.8906 27.1719 69.3906 27.2969 69.7969 27.5469C70.2344 27.7656 70.6094 28.0625 70.9219 28.4375C71.2344 28.8125 71.5 29.2344 71.7188 29.7031C71.9688 30.1719 72.2031 30.6406 72.4219 31.1094C72.3594 31.4531 72.2188 31.7031 72 31.8594C71.7812 32.0156 71.5938 32.2188 71.4375 32.4688C71.5 32.9688 71.5625 33.4531 71.625 33.9219C71.6875 34.3594 71.6875 34.8281 71.625 35.3281C71.9375 35.4844 72.2344 35.5625 72.5156 35.5625C72.9844 35.5625 73.4062 35.4375 73.7812 35.1875C74.1875 34.9375 74.4688 34.5938 74.625 34.1562H74.7188C74.8125 34.1562 74.8906 34.1875 74.9531 34.25C75.0469 34.3125 75.1562 34.3438 75.2812 34.3438H75.4688C75.8125 34.0312 76.1875 33.7969 76.5938 33.6406C77 33.4531 77.4219 33.2812 77.8594 33.125C78.2969 32.9688 78.7188 32.8125 79.125 32.6562C79.5625 32.4688 79.9688 32.2344 80.3438 31.9531C80.5312 32.0469 80.7344 32.0938 80.9531 32.0938C81.2656 32.0938 81.5625 32.0312 81.8438 31.9062C82.1562 31.7812 82.4531 31.6562 82.7344 31.5312C83.0156 31.375 83.3125 31.2344 83.625 31.1094C83.9688 30.9844 84.3281 30.9219 84.7031 30.9219C84.7656 30.9219 84.8438 30.9375 84.9375 30.9688C85.0312 30.9688 85.1094 30.9688 85.1719 30.9688C85.3906 30.9688 85.5156 30.8906 85.5469 30.7344C85.5781 30.5781 85.5781 30.4375 85.5469 30.3125C86.5469 30.0625 87.4062 29.7812 88.125 29.4688C88.875 29.125 89.7031 28.7344 90.6094 28.2969C90.6094 28.2656 90.6406 28.25 90.7031 28.25C90.7969 28.25 90.8594 28.2969 90.8906 28.3906C90.9219 28.4844 90.9375 28.5625 90.9375 28.625C91.125 28.5312 91.2188 28.375 91.2188 28.1562C91.25 27.9375 91.3281 27.75 91.4531 27.5938C91.5781 27.625 91.75 27.6406 91.9688 27.6406C92.25 27.6406 92.5312 27.5781 92.8125 27.4531C93.125 27.3281 93.4219 27.1875 93.7031 27.0312C93.9844 26.875 94.2656 26.7344 94.5469 26.6094C94.8281 26.4844 95.1094 26.4219 95.3906 26.4219C95.6406 26.4219 95.8438 26.4844 96 26.6094C96.1875 26.5156 96.375 26.3906 96.5625 26.2344C96.75 26.0469 96.9531 25.9531 97.1719 25.9531C97.2344 25.9531 97.2812 25.9687 97.3125 26C97.375 26.0313 97.4375 26.0625 97.5 26.0938C97.6562 25.9375 97.7969 25.8125 97.9219 25.7188C98.0781 25.625 98.1562 25.4688 98.1562 25.25C99.3125 25.125 100.375 24.875 101.344 24.5C102.344 24.0937 103.297 23.5625 104.203 22.9062C104.547 22.9687 104.875 23.0469 105.188 23.1406C105.531 23.2031 105.875 23.2344 106.219 23.2344C106.406 23.5781 106.578 23.9219 106.734 24.2656C106.891 24.6094 107.234 24.7656 107.766 24.7344C107.797 24.8906 107.812 25.0625 107.812 25.25C107.844 25.4375 107.859 25.6094 107.859 25.7656ZM140.578 75.2656C140.578 75.5781 140.562 75.8125 140.531 75.9688C140.375 76.0312 140.25 76.125 140.156 76.25C140.062 76.3438 139.906 76.375 139.688 76.3438C139.625 76.8125 139.469 77.2031 139.219 77.5156C138.969 77.8281 138.703 78.1094 138.422 78.3594C138.172 78.6406 137.922 78.9219 137.672 79.2031C137.422 79.5156 137.266 79.9062 137.203 80.375C136.734 80.625 136.266 80.9531 135.797 81.3594C135.359 81.7969 134.969 82.0938 134.625 82.25C134.375 82.375 134.109 82.4688 133.828 82.5312C133.547 82.625 133.266 82.7344 132.984 82.8594C132.078 83.2656 131.141 83.6875 130.172 84.125C129.234 84.5625 128.25 84.7812 127.219 84.7812H126.891C126.766 84.9062 126.609 84.9844 126.422 85.0156C126.234 85.0781 126.047 85.125 125.859 85.1562C125.672 85.1875 125.484 85.2344 125.297 85.2969C125.109 85.3594 124.969 85.4531 124.875 85.5781C124.531 85.4531 124.156 85.3906 123.75 85.3906H123.422C122.891 85.5156 122.391 85.6094 121.922 85.6719C121.453 85.7344 120.953 85.7656 120.422 85.7656C119.484 85.7656 118.547 85.7031 117.609 85.5781C116.672 85.4531 115.734 85.3438 114.797 85.25C114.203 84.7812 113.719 84.1875 113.344 83.4688C112.969 82.7812 112.781 82.0469 112.781 81.2656C112.781 80.6719 112.906 80.1094 113.156 79.5781C113.406 79.0781 113.734 78.625 114.141 78.2188H114.281C114.562 78.2188 114.844 78.1562 115.125 78.0312C115.438 77.9062 115.734 77.8438 116.016 77.8438C116.328 77.8438 116.578 77.9688 116.766 78.2188C116.984 78.4688 117.141 78.7656 117.234 79.1094C117.359 79.4531 117.438 79.7969 117.469 80.1406C117.5 80.5156 117.516 80.8125 117.516 81.0312C117.859 81.1875 118.219 81.2812 118.594 81.3125C119 81.3438 119.406 81.3594 119.812 81.3594C120.219 81.3594 120.672 81.3281 121.172 81.2656C121.672 81.2344 122.172 81.1562 122.672 81.0312C123.203 80.9375 123.703 80.8125 124.172 80.6562C124.672 80.5 125.094 80.2969 125.438 80.0469C127.156 79.8906 128.672 79.5 129.984 78.875C131.297 78.25 132.688 77.5156 134.156 76.6719C134.219 76.3281 134.344 76.0625 134.531 75.875C134.75 75.6562 134.859 75.3438 134.859 74.9375C134.859 74.875 134.844 74.8125 134.812 74.75C134.812 74.6562 134.812 74.5781 134.812 74.5156C134.188 73.7344 133.531 73.0469 132.844 72.4531C132.188 71.8594 131.328 71.4688 130.266 71.2812C130.141 71 129.938 70.7969 129.656 70.6719C129.375 70.5156 129.078 70.375 128.766 70.25C128.453 70.125 128.156 70 127.875 69.875C127.594 69.7188 127.391 69.4688 127.266 69.125C126.422 68.9688 125.547 68.7812 124.641 68.5625C123.766 68.3125 123.016 67.875 122.391 67.25C121.891 67.2188 121.406 67.125 120.938 66.9688C120.5 66.7812 120.062 66.6094 119.625 66.4531C119.188 66.2656 118.734 66.1094 118.266 65.9844C117.797 65.8281 117.312 65.75 116.812 65.75C116.688 65.5312 116.516 65.3594 116.297 65.2344C116.078 65.1094 115.828 65 115.547 64.9062C115.297 64.8125 115.047 64.7188 114.797 64.625C114.578 64.5 114.406 64.3281 114.281 64.1094C114.156 64.1406 114.062 64.2031 114 64.2969C113.938 64.3906 113.828 64.4375 113.672 64.4375H113.484C113.422 64.25 113.297 64.125 113.109 64.0625C112.922 63.9688 112.812 63.7969 112.781 63.5469C112.219 63.5156 111.703 63.4062 111.234 63.2188C110.797 63.0312 110.375 62.8281 109.969 62.6094C109.594 62.3594 109.203 62.125 108.797 61.9062C108.391 61.6875 107.938 61.5156 107.438 61.3906C107.125 61.1406 106.828 60.875 106.547 60.5938C106.297 60.2812 105.969 60.125 105.562 60.125C105.469 60.125 105.297 60.1562 105.047 60.2188C104.984 59.6562 104.75 59.2656 104.344 59.0469C103.938 58.7969 103.5 58.5781 103.031 58.3906C102.719 57.5781 102.297 56.8594 101.766 56.2344C101.234 55.6094 100.656 55.0312 100.031 54.5C100.094 54.3125 100.125 54.1719 100.125 54.0781C100.125 53.7656 100.047 53.5 99.8906 53.2812C99.7344 53.0312 99.5625 52.8281 99.375 52.6719C98.9375 51.2656 98.7188 49.8906 98.7188 48.5469C98.7188 46.6719 99.1406 44.9375 99.9844 43.3438C100.797 41.7188 102.094 40.5 103.875 39.6875C103.906 39.4375 103.984 39.2188 104.109 39.0312C104.266 38.8438 104.359 38.625 104.391 38.375C104.672 38.375 104.891 38.3125 105.047 38.1875C105.203 38.0625 105.344 37.9375 105.469 37.8125C105.625 37.6562 105.781 37.5156 105.938 37.3906C106.094 37.2656 106.297 37.1875 106.547 37.1562C107.734 36.125 109 35.2969 110.344 34.6719C111.688 34.0156 113.062 33.3438 114.469 32.6562C114.75 32.5312 114.984 32.2969 115.172 31.9531H115.453C115.766 31.9531 116 31.8906 116.156 31.7656C116.344 31.6094 116.609 31.5625 116.953 31.625C117.078 31.4375 117.234 31.3125 117.422 31.25C117.641 31.1875 117.844 31.1406 118.031 31.1094C118.25 31.0469 118.453 30.9688 118.641 30.875C118.828 30.7812 118.953 30.6406 119.016 30.4531H119.344C119.875 30.4531 120.391 30.375 120.891 30.2188C121.391 30.0312 121.891 29.8281 122.391 29.6094H122.719C123.344 29.6094 123.922 29.5 124.453 29.2812C125.016 29.0312 125.609 28.8594 126.234 28.7656C126.484 28.7031 126.734 28.6875 126.984 28.7188C127.234 28.75 127.484 28.7656 127.734 28.7656C127.891 28.7656 128.078 28.75 128.297 28.7188C128.516 28.6875 128.672 28.5937 128.766 28.4375H128.859C129.047 28.4375 129.156 28.5 129.188 28.625C129.219 28.75 129.312 28.8125 129.469 28.8125C129.688 28.8125 129.906 28.7812 130.125 28.7188C130.344 28.6563 130.562 28.625 130.781 28.625C131.719 28.625 132.641 28.7188 133.547 28.9062C134.484 29.0938 135.406 29.2656 136.312 29.4219C136.375 29.7969 136.531 30.0625 136.781 30.2188C137.062 30.375 137.359 30.5156 137.672 30.6406V30.8281C137.672 31.0781 137.734 31.2812 137.859 31.4375C137.734 31.875 137.516 32.2031 137.203 32.4219C136.891 32.6406 136.547 32.8281 136.172 32.9844C136.328 33.1094 136.422 33.2812 136.453 33.5C136.484 33.7188 136.5 33.9219 136.5 34.1094V34.6719L136.266 34.625C135.766 34.625 135.516 34.8594 135.516 35.3281C135.109 35.0781 134.656 34.9219 134.156 34.8594C133.688 34.7969 133.219 34.7656 132.75 34.7656C132.125 34.7656 131.469 34.7969 130.781 34.8594C130.094 34.8906 129.422 34.875 128.766 34.8125C128.516 35.125 128.203 35.3594 127.828 35.5156C127.453 35.6406 127.078 35.7031 126.703 35.7031C126.297 35.7031 125.906 35.625 125.531 35.4688C125.156 35.2812 124.891 35.0156 124.734 34.6719C124.578 34.6094 124.438 34.5781 124.312 34.5781H123.891C123.391 34.5781 122.891 34.6406 122.391 34.7656C121.922 34.8594 121.438 34.9844 120.938 35.1406C120.438 35.2656 119.938 35.4062 119.438 35.5625C118.969 35.6875 118.484 35.7656 117.984 35.7969C117.797 36.0469 117.547 36.2188 117.234 36.3125C116.922 36.4062 116.672 36.5781 116.484 36.8281C115.828 36.9531 115.234 37.1719 114.703 37.4844C114.172 37.7656 113.656 38.0781 113.156 38.4219L111.703 39.4062C111.234 39.7188 110.703 39.9844 110.109 40.2031C109.672 40.6719 109.266 41.0469 108.891 41.3281C108.516 41.6094 108.031 41.8594 107.438 42.0781C107.062 42.2031 106.844 42.3906 106.781 42.6406C106.75 42.8906 106.625 43.1406 106.406 43.3906C106.219 43.6094 105.984 43.7812 105.703 43.9062C105.453 44 105.234 44.1719 105.047 44.4219C104.891 44.6406 104.766 44.9062 104.672 45.2188C104.609 45.5 104.531 45.7812 104.438 46.0625C104.344 46.3438 104.234 46.625 104.109 46.9062C103.984 47.1562 103.797 47.375 103.547 47.5625C103.547 47.6875 103.531 47.8125 103.5 47.9375C103.5 48.0625 103.5 48.1719 103.5 48.2656C103.5 48.7031 103.547 49.1562 103.641 49.625C103.766 50.0625 103.844 50.5 103.875 50.9375C104.5 52.0312 105.234 53.0312 106.078 53.9375C106.922 54.8125 107.828 55.625 108.797 56.375C109.766 57.125 110.766 57.8281 111.797 58.4844C112.859 59.1406 113.906 59.7812 114.938 60.4062C115.312 60.375 115.656 60.4219 115.969 60.5469C116.281 60.6406 116.609 60.7031 116.953 60.7344C117.328 61.0156 117.766 61.2344 118.266 61.3906L119.766 61.8594C120.266 62.0156 120.75 62.2031 121.219 62.4219C121.688 62.6094 122.078 62.875 122.391 63.2188C122.547 63.25 122.688 63.2969 122.812 63.3594C122.938 63.3906 123.078 63.4062 123.234 63.4062C123.422 63.4062 123.531 63.3438 123.562 63.2188C124.969 63.75 126.344 64.3438 127.688 65C129.031 65.625 130.453 66.1094 131.953 66.4531C132.547 66.9531 133.203 67.3906 133.922 67.7656C134.641 68.1406 135.359 68.5312 136.078 68.9375C136.797 69.3125 137.484 69.7344 138.141 70.2031C138.797 70.6406 139.375 71.1719 139.875 71.7969C139.938 72.3906 140.062 72.9688 140.25 73.5312C140.469 74.0625 140.578 74.6406 140.578 75.2656ZM182.25 82.5781C182.25 82.9531 182.141 83.2656 181.922 83.5156C181.703 83.7969 181.438 84.0156 181.125 84.1719C180.812 84.3594 180.484 84.5156 180.141 84.6406C179.797 84.7969 179.5 84.9531 179.25 85.1094C178.531 84.9531 177.781 84.8125 177 84.6875C176.219 84.5938 175.516 84.3906 174.891 84.0781C173.609 82.6719 172.703 81.0469 172.172 79.2031C171.672 77.3906 171.344 75.5781 171.188 73.7656C171.125 73.2344 171.094 72.7188 171.094 72.2188C171.094 71.6875 171.062 71.1562 171 70.625C170.938 70.1562 170.656 69.875 170.156 69.7812C170.531 69.7188 170.797 69.5312 170.953 69.2188C171.109 68.875 171.203 68.5 171.234 68.0938C171.266 67.6562 171.266 67.2344 171.234 66.8281C171.234 66.3906 171.266 66.0312 171.328 65.75C171.078 65.8438 170.859 66.0625 170.672 66.4062C170.484 66.7188 170.312 67.0781 170.156 67.4844C170 67.8906 169.844 68.2969 169.688 68.7031C169.562 69.0781 169.438 69.375 169.312 69.5938C168 71.8438 166.469 73.8906 164.719 75.7344C163 77.5781 161.219 79.4062 159.375 81.2188C158.844 81.4062 158.344 81.6406 157.875 81.9219C157.406 82.2344 156.969 82.5625 156.562 82.9062C155.375 83.25 154.25 83.4219 153.188 83.4219C152.219 83.4219 151.266 83.2812 150.328 83C149.391 82.75 148.547 82.3125 147.797 81.6875L146.062 77.75C145.969 77.5 145.859 77.25 145.734 77C145.609 76.7188 145.516 76.4531 145.453 76.2031C145.391 75.9219 145.359 75.625 145.359 75.3125C145.391 74.9688 145.406 74.6719 145.406 74.4219C145.406 73.3281 145.438 72.2344 145.5 71.1406C145.594 70.0156 145.719 68.9062 145.875 67.8125C145.938 67.375 146.031 66.9219 146.156 66.4531C146.281 65.9844 146.375 65.5312 146.438 65.0938V64.5781C146.438 64.4219 146.422 64.2344 146.391 64.0156C146.359 63.7656 146.266 63.6094 146.109 63.5469C146.859 61.7344 147.234 59.8438 147.234 57.875C147.234 57.5625 147.219 57.2656 147.188 56.9844C147.188 56.6719 147.172 56.3594 147.141 56.0469C147.359 55.8281 147.5 55.5781 147.562 55.2969C147.625 54.9844 147.656 54.6719 147.656 54.3594C147.656 54.0156 147.656 53.6875 147.656 53.375C147.688 53.0625 147.781 52.7656 147.938 52.4844C147.906 52.1406 147.875 51.8125 147.844 51.5C147.844 51.1562 147.844 50.8125 147.844 50.4688C147.844 48.375 148 46.3125 148.312 44.2812C148.656 42.2188 148.828 40.1406 148.828 38.0469V36.0781C148.828 35.6406 148.828 35.1875 148.828 34.7188C148.859 34.25 148.922 33.7969 149.016 33.3594C149.141 32.9219 149.312 32.5156 149.531 32.1406C149.75 31.7344 150.062 31.3906 150.469 31.1094C150.531 31.1094 150.578 31.1094 150.609 31.1094C150.672 31.0781 150.734 31.0625 150.797 31.0625C151.078 31.0625 151.297 31.1406 151.453 31.2969C151.609 31.4219 151.844 31.4688 152.156 31.4375C152.719 32.25 153.156 33.1094 153.469 34.0156C153.812 34.9219 153.984 35.875 153.984 36.875C153.984 37.625 153.875 38.3594 153.656 39.0781C153.438 39.7969 153.328 40.5469 153.328 41.3281C153.328 41.6406 153.344 41.9531 153.375 42.2656C153.406 42.5781 153.422 42.8906 153.422 43.2031C153.422 43.5156 153.375 43.8281 153.281 44.1406C153.219 44.4219 153.078 44.6719 152.859 44.8906C152.922 45.5156 152.969 46.1562 153 46.8125C153.031 47.4375 153.047 48.0625 153.047 48.6875C153.047 50.4688 152.938 52.25 152.719 54.0312C152.5 55.8125 152.25 57.5938 151.969 59.375C151.688 61.1562 151.438 62.9375 151.219 64.7188C151 66.5 150.891 68.2969 150.891 70.1094V71.4688C150.891 71.9062 150.922 72.3594 150.984 72.8281C150.797 73.2656 150.703 73.7344 150.703 74.2344C150.703 74.9219 150.859 75.5938 151.172 76.25C151.484 76.9062 151.859 77.5 152.297 78.0312C152.453 78.0625 152.594 78.0781 152.719 78.0781C152.875 78.1094 153.031 78.125 153.188 78.125C154 78.125 154.719 77.9531 155.344 77.6094C156 77.2656 156.609 76.8438 157.172 76.3438C157.766 75.8438 158.344 75.3281 158.906 74.7969C159.469 74.2656 160.078 73.8281 160.734 73.4844C161.734 72.2031 162.672 70.9219 163.547 69.6406C164.422 68.3281 165.266 66.9688 166.078 65.5625C166.141 64.8125 166.328 64.0625 166.641 63.3125C166.984 62.5312 167.328 61.7656 167.672 61.0156C168.047 60.2656 168.375 59.5312 168.656 58.8125C168.969 58.0938 169.125 57.4062 169.125 56.75C169.125 56.4062 169.016 56.1719 168.797 56.0469C169.109 55.2344 169.344 54.3906 169.5 53.5156C169.656 52.6406 169.781 51.7656 169.875 50.8906C170 50.0156 170.125 49.1562 170.25 48.3125C170.375 47.4375 170.562 46.5781 170.812 45.7344C170.812 45.5469 170.797 45.3594 170.766 45.1719C170.766 44.9844 170.766 44.7969 170.766 44.6094C170.766 43.1719 170.906 41.7656 171.188 40.3906C171.469 38.9844 171.609 37.5625 171.609 36.125C171.609 35.7812 171.578 35.4688 171.516 35.1875C171.484 34.875 171.469 34.5781 171.469 34.2969C171.469 34.0469 171.547 33.8906 171.703 33.8281C171.891 33.7656 171.984 33.5938 171.984 33.3125C171.984 33.0625 171.953 32.7969 171.891 32.5156C171.859 32.2344 171.844 31.9375 171.844 31.625C171.844 30.6562 171.938 29.7031 172.125 28.7656C172.312 27.8281 172.406 26.875 172.406 25.9062V25.3438C172.406 25.125 172.375 24.9219 172.312 24.7344C172.531 24.3906 172.828 24.1719 173.203 24.0781C173.578 23.9531 173.938 23.8906 174.281 23.8906C174.844 23.8906 175.312 23.9531 175.688 24.0781C176.281 25.6719 176.781 27.3125 177.188 29C177.594 30.6562 177.922 32.3438 178.172 34.0625C178.234 34.4688 178.312 34.9062 178.406 35.375C178.531 35.8125 178.594 36.25 178.594 36.6875C178.594 36.7812 178.562 36.8906 178.5 37.0156C178.469 37.1406 178.438 37.2656 178.406 37.3906C178.375 37.6406 178.344 37.8906 178.312 38.1406C178.312 38.3906 178.312 38.6406 178.312 38.8906C178.312 39.6406 178.359 40.3906 178.453 41.1406C178.547 41.8906 178.594 42.6562 178.594 43.4375C178.594 44.3125 178.469 45.1562 178.219 45.9688C178 46.75 177.828 47.5781 177.703 48.4531C177.578 49.3594 177.531 50.25 177.562 51.125C177.594 52 177.531 52.8906 177.375 53.7969C177.312 54.1719 177.219 54.5469 177.094 54.9219C176.969 55.2656 176.906 55.6406 176.906 56.0469C176.906 56.3281 176.922 56.6094 176.953 56.8906C177.016 57.1719 177.047 57.4688 177.047 57.7812C177.047 58.25 176.938 58.6094 176.719 58.8594C176.781 59.1094 176.828 59.3438 176.859 59.5625C176.891 59.75 176.953 59.9688 177.047 60.2188C176.891 60.4062 176.781 60.6094 176.719 60.8281C176.656 61.0469 176.625 61.2812 176.625 61.5312C176.625 61.8438 176.641 62.1406 176.672 62.4219C176.703 62.6719 176.719 62.9375 176.719 63.2188C176.719 63.875 176.609 64.5 176.391 65.0938C176.203 65.6875 176.078 66.2969 176.016 66.9219C175.984 67.3594 175.969 67.7969 175.969 68.2344C176 68.6406 176.016 69.0625 176.016 69.5C176.016 69.9688 175.984 70.4219 175.922 70.8594C175.891 71.2969 175.766 71.7344 175.547 72.1719C175.609 72.3594 175.688 72.5469 175.781 72.7344C175.875 72.9219 176.016 73.0625 176.203 73.1562C176.203 74.125 176.328 75.1094 176.578 76.1094C176.859 77.0781 177.234 78 177.703 78.875C177.797 79.0625 177.938 79.2031 178.125 79.2969C178.312 79.3906 178.484 79.4844 178.641 79.5781C178.797 79.7031 178.922 79.8438 179.016 80C179.109 80.1562 179.125 80.3906 179.062 80.7031C179.125 80.7344 179.219 80.75 179.344 80.75C179.594 80.75 179.797 80.6875 179.953 80.5625C180.141 80.4375 180.359 80.375 180.609 80.375H180.938C181.219 80.6562 181.5 80.9844 181.781 81.3594C182.094 81.7344 182.25 82.1406 182.25 82.5781ZM234.234 89.1406C234.234 89.4219 234.125 89.6719 233.906 89.8906C233.719 90.1094 233.484 90.2812 233.203 90.4062C232.922 90.5625 232.625 90.7031 232.312 90.8281C232.031 90.9531 231.781 91.0625 231.562 91.1562C231.219 90.9688 230.859 90.8438 230.484 90.7812C230.141 90.7188 229.828 90.5625 229.547 90.3125H229.219C228.719 90.3125 228.328 90.375 228.047 90.5C227.609 90.3438 227.25 90.1094 226.969 89.7969C226.688 89.5156 226.422 89.2031 226.172 88.8594C225.922 88.5469 225.672 88.2344 225.422 87.9219C225.172 87.6094 224.859 87.3438 224.484 87.125C223.922 85.5625 223.422 83.9844 222.984 82.3906C222.547 80.7969 222.219 79.1719 222 77.5156C222.062 77.3594 222.109 77.1875 222.141 77C222.172 76.8125 222.188 76.6406 222.188 76.4844C222.188 76.3594 222.156 76.2344 222.094 76.1094C222.062 75.9531 221.969 75.8594 221.812 75.8281C221.969 75.5781 222.062 75.2969 222.094 74.9844C222.156 74.6406 222.188 74.3281 222.188 74.0469C222.188 73.4219 222.125 72.9062 222 72.5C222.188 72.3438 222.266 72.0938 222.234 71.75C222.203 71.375 222.281 71.1094 222.469 70.9531C222.312 70.4219 222.234 69.9062 222.234 69.4062C222.234 68.7188 222.312 68.0469 222.469 67.3906C222.656 66.7344 222.75 66.0625 222.75 65.375C222.75 65.2188 222.734 65.0625 222.703 64.9062C222.703 64.75 222.688 64.5938 222.656 64.4375C222.812 63.9375 222.953 63.4375 223.078 62.9375C223.234 62.4062 223.312 61.875 223.312 61.3438C223.312 60.9688 223.25 60.6562 223.125 60.4062C223.531 58.9688 223.812 57.5469 223.969 56.1406C224.156 54.7031 224.328 53.25 224.484 51.7812C224.453 51.7188 224.422 51.6719 224.391 51.6406C224.359 51.6094 224.344 51.5625 224.344 51.5C224.344 51.3438 224.422 51.2188 224.578 51.125C224.766 51.0312 224.844 50.8594 224.812 50.6094C224.438 50.9844 224.125 51.4219 223.875 51.9219C223.656 52.4219 223.438 52.9219 223.219 53.4219C223.031 53.9219 222.812 54.4219 222.562 54.9219C222.344 55.3906 222.047 55.8125 221.672 56.1875C221.641 56.5312 221.531 56.8594 221.344 57.1719C221.188 57.4844 221.109 57.8281 221.109 58.2031C221.078 58.2031 221.047 58.2031 221.016 58.2031C220.984 58.1719 220.938 58.1562 220.875 58.1562C220.75 58.1562 220.656 58.2344 220.594 58.3906C220.562 58.5469 220.469 58.5938 220.312 58.5312C219.594 59.9375 218.797 61.3125 217.922 62.6562C217.078 64 215.969 65.0781 214.594 65.8906C214.344 65.7969 214.109 65.75 213.891 65.75C213.484 65.75 213.078 65.875 212.672 66.125C212.297 66.3438 212.047 66.4531 211.922 66.4531C211.609 66.4531 211.219 66.2969 210.75 65.9844C210.312 65.6406 209.859 65.4531 209.391 65.4219C208.891 65.0781 208.469 64.7344 208.125 64.3906C207.812 64.0156 207.328 63.7969 206.672 63.7344C206.234 63.0781 205.797 62.4531 205.359 61.8594C204.953 61.2656 204.547 60.6875 204.141 60.125C203.766 59.5312 203.422 58.9062 203.109 58.25C202.828 57.5938 202.609 56.8594 202.453 56.0469C202.484 55.9844 202.5 55.9219 202.5 55.8594C202.5 55.6719 202.406 55.5938 202.219 55.625C202.062 55.6562 201.984 55.5625 201.984 55.3438V55.0156C201.984 54.7656 201.938 54.5469 201.844 54.3594C201.781 54.1406 201.766 53.9062 201.797 53.6562C201.578 53.3125 201.406 52.9531 201.281 52.5781C201.156 52.2031 200.938 51.875 200.625 51.5938V51.1719C200.625 50.9844 200.609 50.8125 200.578 50.6562C200.578 50.4688 200.531 50.3125 200.438 50.1875C200.375 50.0312 200.266 49.9375 200.109 49.9062C200.078 48.7812 199.844 47.6406 199.406 46.4844C199 45.2969 198.625 44.1562 198.281 43.0625C198.031 43.875 197.844 44.7031 197.719 45.5469C197.594 46.3594 197.531 47.1875 197.531 48.0312V48.8281C197.531 49.0781 197.562 49.3281 197.625 49.5781C197.531 49.7344 197.391 49.8438 197.203 49.9062C197.047 49.9688 196.953 50.0938 196.922 50.2812C196.891 50.4375 196.875 50.5938 196.875 50.75C196.906 50.9062 196.906 51.0625 196.875 51.2188C196.812 51.9688 196.719 52.6875 196.594 53.375C196.406 54.4062 196.188 55.4531 195.938 56.5156C195.688 57.5469 195.562 58.6094 195.562 59.7031C195.562 59.7656 195.562 59.8594 195.562 59.9844C195.594 60.0781 195.609 60.1562 195.609 60.2188C195.109 60.6562 194.844 61.2031 194.812 61.8594C194.781 62.5156 194.703 63.1406 194.578 63.7344C194.422 64.6094 194.234 65.4844 194.016 66.3594C193.797 67.2031 193.609 68.0781 193.453 68.9844C193.359 69.4844 193.281 69.9844 193.219 70.4844C193.156 70.9531 193.094 71.4375 193.031 71.9375C193 72.2188 192.891 72.4531 192.703 72.6406C192.547 72.8281 192.438 73.0469 192.375 73.2969C192.344 73.5156 192.328 73.7656 192.328 74.0469C192.359 74.2969 192.375 74.5312 192.375 74.75C192.375 75.125 192.344 75.4844 192.281 75.8281C192.219 76.1406 192.031 76.4219 191.719 76.6719C191.781 77.4844 191.922 78.1719 192.141 78.7344C192.359 79.3281 192.609 79.9844 192.891 80.7031H194.062V80.8906C194.062 81.2031 194.109 81.4844 194.203 81.7344C194.328 81.9844 194.562 82.0938 194.906 82.0625C194.875 82.1875 194.859 82.3438 194.859 82.5312C194.859 82.8125 194.906 83.0625 195 83.2812C195.125 83.5312 195.219 83.7969 195.281 84.0781C194.656 85.1094 193.984 85.875 193.266 86.375C192.547 86.875 191.562 87.125 190.312 87.125H189.562C189.406 86.625 189.219 86.1406 189 85.6719C188.781 85.2031 188.562 84.7344 188.344 84.2656C188.156 83.7969 187.984 83.3125 187.828 82.8125C187.703 82.3438 187.641 81.8438 187.641 81.3125C187.641 81.1875 187.656 81.0625 187.688 80.9375C187.719 80.8438 187.734 80.7344 187.734 80.6094C187.734 80.4531 187.672 80.3594 187.547 80.3281C187.422 80.2969 187.359 80.1406 187.359 79.8594C187.359 79.6406 187.344 79.4375 187.312 79.25C187.312 79.0625 187.312 78.8594 187.312 78.6406C187.312 77.6094 187.391 76.5938 187.547 75.5938C187.703 74.5625 187.812 73.5312 187.875 72.5C188.031 72.3438 188.109 72.1406 188.109 71.8906C188.109 71.6406 188.188 71.4375 188.344 71.2812V70.9531C188.344 70.3906 188.406 69.8281 188.531 69.2656C188.656 68.7031 188.797 68.1562 188.953 67.625C189.109 67.0938 189.25 66.5469 189.375 65.9844C189.5 65.4219 189.562 64.8594 189.562 64.2969V63.5469C189.562 63.3281 189.656 63.2344 189.844 63.2656C190.062 63.2656 190.188 63.1406 190.219 62.8906C190.281 62.4531 190.312 62.0312 190.312 61.625C190.344 61.1875 190.391 60.75 190.453 60.3125C190.609 59.4688 190.781 58.625 190.969 57.7812C191.156 56.9062 191.25 56.0312 191.25 55.1562V55.0156C191.25 54.9219 191.328 54.7344 191.484 54.4531C191.641 54.1406 191.719 53.8438 191.719 53.5625C191.719 53.3438 191.672 53.1406 191.578 52.9531C191.609 52.9844 191.672 53 191.766 53C191.891 53 191.969 52.9688 192 52.9062C192.062 52.8125 192.141 52.7344 192.234 52.6719C192.141 52.5469 192.094 52.4219 192.094 52.2969C192.094 52.1406 192.109 52 192.141 51.875C192.203 51.7188 192.234 51.5625 192.234 51.4062C192.234 51.1875 192.125 51.0312 191.906 50.9375C192.281 50.25 192.547 49.5156 192.703 48.7344C192.891 47.9531 193.016 47.1562 193.078 46.3438C193.172 45.5312 193.25 44.7188 193.312 43.9062C193.375 43.0625 193.516 42.2656 193.734 41.5156C193.672 41.3281 193.625 41.125 193.594 40.9062C193.594 40.6875 193.594 40.4844 193.594 40.2969C193.594 40.1719 193.578 40.0469 193.547 39.9219C193.516 39.7656 193.531 39.625 193.594 39.5C193.594 39.4375 193.609 39.3594 193.641 39.2656L193.734 38.9844C193.797 38.7656 193.828 38.5469 193.828 38.3281C193.859 38.0781 193.891 37.8281 193.922 37.5781C193.984 36.8594 194 36.125 193.969 35.375C193.969 34.625 194 33.875 194.062 33.125C193.969 33 193.875 32.9062 193.781 32.8438C193.688 32.75 193.625 32.625 193.594 32.4688C193.844 32.0312 194.109 31.625 194.391 31.25C194.703 30.8438 195.109 30.5312 195.609 30.3125C195.703 30.6562 195.953 30.8281 196.359 30.8281C196.547 30.8281 196.781 30.7812 197.062 30.6875C197.344 30.5938 197.531 30.4688 197.625 30.3125C198.156 30.5 198.688 30.5938 199.219 30.5938C199.781 30.5625 200.297 30.6875 200.766 30.9688C200.859 31.4375 200.984 31.9219 201.141 32.4219C201.297 32.9219 201.516 33.375 201.797 33.7812C201.859 34.1875 201.922 34.6875 201.984 35.2812C202.047 35.8438 202.109 36.4375 202.172 37.0625C202.234 37.6562 202.328 38.2344 202.453 38.7969C202.578 39.3281 202.75 39.75 202.969 40.0625C203 40.625 203.094 41.1875 203.25 41.75C203.406 42.3125 203.578 42.8594 203.766 43.3906C203.953 43.8906 204.109 44.3594 204.234 44.7969C204.391 45.2344 204.469 45.5938 204.469 45.875C204.469 46.125 204.422 46.2969 204.328 46.3906C204.266 46.4531 204.203 46.5781 204.141 46.7656C204.266 47.1094 204.438 47.4062 204.656 47.6562C204.875 47.875 205.109 48.1406 205.359 48.4531C205.828 50.2344 206.438 51.9688 207.188 53.6562C207.938 55.3438 208.844 56.9688 209.906 58.5312C210.188 58.5625 210.406 58.6406 210.562 58.7656C210.75 58.8906 211.031 58.9219 211.406 58.8594V59.1875C211.406 59.5 211.469 59.7188 211.594 59.8438C211.875 60.0312 212.203 60.125 212.578 60.125C212.984 60.125 213.297 60.0156 213.516 59.7969C213.766 59.5469 214 59.2656 214.219 58.9531C214.438 58.6406 214.656 58.3438 214.875 58.0625C215.094 57.7812 215.391 57.5938 215.766 57.5V57.4062C215.766 57.1562 215.812 56.9531 215.906 56.7969C216.031 56.6094 216.094 56.4062 216.094 56.1875C216.438 55.9375 216.703 55.625 216.891 55.25C217.078 54.875 217.25 54.5 217.406 54.125C217.562 53.7188 217.734 53.3438 217.922 53C218.141 52.6562 218.422 52.375 218.766 52.1562C219.203 50.8125 219.734 49.5625 220.359 48.4062C220.984 47.25 221.641 46.0781 222.328 44.8906C222.328 44.7969 222.312 44.7031 222.281 44.6094C222.25 44.4844 222.234 44.375 222.234 44.2812C222.234 44.25 222.266 44.1094 222.328 43.8594C222.484 43.5469 222.625 43.25 222.75 42.9688C222.875 42.6875 222.984 42.375 223.078 42.0312C223.391 41.0625 223.672 40.1094 223.922 39.1719C224.203 38.2344 224.609 37.3438 225.141 36.5V35.3281C225.703 34.2031 226.094 33.0156 226.312 31.7656C226.562 30.5156 226.859 29.2969 227.203 28.1094C227.266 27.7656 227.375 27.4219 227.531 27.0781C227.719 26.7031 227.938 26.4375 228.188 26.2812C228.094 26.0938 228.047 25.9062 228.047 25.7188C228.047 25.4688 228.078 25.25 228.141 25.0625C228.234 24.8437 228.312 24.625 228.375 24.4062C228.281 24.1875 228.234 23.9062 228.234 23.5625C228.234 23.125 228.359 22.7188 228.609 22.3438C228.859 21.9375 229.234 21.6719 229.734 21.5469C230.047 21.6406 230.312 21.7969 230.531 22.0156C230.75 22.2344 230.953 22.4688 231.141 22.7188C231.359 22.9375 231.578 23.125 231.797 23.2812C232.047 23.4063 232.359 23.4375 232.734 23.375C232.984 23.8438 233.156 24.3438 233.25 24.875C233.344 25.375 233.391 25.8906 233.391 26.4219C233.391 27.1406 233.328 27.8906 233.203 28.6719C233.078 29.4219 233.031 30.1875 233.062 30.9688C232.812 31.4688 232.625 32.0156 232.5 32.6094C232.406 33.1719 232.312 33.75 232.219 34.3438C232.125 34.9375 232.016 35.5156 231.891 36.0781C231.766 36.6406 231.547 37.1719 231.234 37.6719C231.141 39.0781 231.031 40.4531 230.906 41.7969C230.812 43.1406 230.656 44.4844 230.438 45.8281L230.016 48.5C229.953 48.7188 229.891 48.9688 229.828 49.25C229.766 49.5 229.734 49.7188 229.734 49.9062C229.734 50.0938 229.75 50.2969 229.781 50.5156C229.812 50.7031 229.906 50.8438 230.062 50.9375C229.844 51.25 229.688 51.625 229.594 52.0625C229.5 52.5 229.406 52.9688 229.312 53.4688L229.078 54.9219C229.016 55.3906 228.891 55.8125 228.703 56.1875V56.7031C228.703 57.9531 228.484 59.2344 228.047 60.5469V60.7812C228.047 60.9375 228.031 61.0781 228 61.2031C228 61.2969 228 61.4219 228 61.5781C228 61.7969 228.062 61.9688 228.188 62.0938C227.938 62.9062 227.703 63.75 227.484 64.625C227.266 65.4688 227.109 66.3438 227.016 67.25C226.922 68.4688 226.906 69.7188 226.969 71C227.031 72.25 226.875 73.4688 226.5 74.6562C226.688 75.2188 226.812 75.8281 226.875 76.4844L227.062 78.4531C227.125 79.1094 227.219 79.7344 227.344 80.3281C227.5 80.9531 227.781 81.4688 228.188 81.875C228.219 81.9375 228.234 82.0312 228.234 82.1562C228.234 82.4062 228.172 82.5938 228.047 82.7188C228.109 83.0312 228.219 83.2969 228.375 83.5156C228.531 83.7344 228.688 83.9375 228.844 84.125C229 84.3438 229.125 84.5781 229.219 84.8281C229.344 85.0781 229.406 85.3906 229.406 85.7656C229.656 86.1094 230.047 86.375 230.578 86.5625C231.109 86.75 231.641 86.9375 232.172 87.125C232.734 87.3125 233.219 87.5469 233.625 87.8281C234.031 88.1406 234.234 88.5781 234.234 89.1406ZM287.766 25.7656C287.766 26.0469 287.75 26.3281 287.719 26.6094C287.719 26.8906 287.703 27.1563 287.672 27.4062C287.578 27.5625 287.391 27.625 287.109 27.5938C286.859 27.5625 286.656 27.5469 286.5 27.5469C286.344 27.5469 286.203 27.5781 286.078 27.6406C285.984 27.6719 285.938 27.7656 285.938 27.9219C285.938 28.1094 285.953 28.2344 285.984 28.2969C285.734 28.2656 285.469 28.2344 285.188 28.2031C284.906 28.1719 284.656 28.0781 284.438 27.9219C284 28.0156 283.578 28.1406 283.172 28.2969C282.797 28.4531 282.422 28.625 282.047 28.8125C281.672 29 281.281 29.1719 280.875 29.3281C280.469 29.4844 280.047 29.5781 279.609 29.6094C279.328 29.9219 278.969 30.1562 278.531 30.3125C278.094 30.4688 277.641 30.6094 277.172 30.7344C276.703 30.8594 276.266 31.0156 275.859 31.2031C275.453 31.3594 275.125 31.6094 274.875 31.9531C274.188 32.0156 273.531 32.1875 272.906 32.4688C272.281 32.75 271.656 33.0469 271.031 33.3594C270.438 33.6719 269.828 33.9688 269.203 34.25C268.578 34.5312 267.906 34.7188 267.188 34.8125C267 35 266.766 35.1562 266.484 35.2812C266.234 35.4062 265.969 35.5312 265.688 35.6562C265.406 35.75 265.141 35.8594 264.891 35.9844C264.641 36.1094 264.438 36.2812 264.281 36.5H264.188C264.062 36.5 263.969 36.4688 263.906 36.4062C263.844 36.3438 263.75 36.3125 263.625 36.3125C263.531 36.3125 263.469 36.3281 263.438 36.3594C262.688 36.7031 261.938 37.0625 261.188 37.4375C260.438 37.8125 259.656 38.1719 258.844 38.5156C257.25 39.1719 255.641 39.8125 254.016 40.4375C252.391 41.0625 250.828 41.8281 249.328 42.7344C248.984 43.9844 248.703 45.2656 248.484 46.5781C248.266 47.8594 247.875 49.0938 247.312 50.2812V52.4844C247 53.0781 246.797 53.7344 246.703 54.4531C246.609 55.1719 246.562 55.8594 246.562 56.5156C246.562 56.7656 246.562 57 246.562 57.2188C246.594 57.4062 246.609 57.6094 246.609 57.8281C247.516 57.5781 248.391 57.2969 249.234 56.9844C250.109 56.6719 250.984 56.3906 251.859 56.1406C252.297 55.9844 252.734 55.875 253.172 55.8125C253.641 55.75 254.094 55.6406 254.531 55.4844C254.875 55.3906 255.234 55.2656 255.609 55.1094C255.984 54.9219 256.344 54.75 256.688 54.5938C257.625 54.1875 258.578 53.8281 259.547 53.5156C260.547 53.2031 261.562 52.9688 262.594 52.8125C262.906 52.5625 263.25 52.3281 263.625 52.1094C264 51.8906 264.375 51.7812 264.75 51.7812C265.031 51.7812 265.266 51.8281 265.453 51.9219C265.984 51.6094 266.609 51.3281 267.328 51.0781C268.047 50.8281 268.719 50.7344 269.344 50.7969C269.5 50.5781 269.688 50.4375 269.906 50.375C270.125 50.2812 270.359 50.2344 270.609 50.2344C270.734 50.2344 270.844 50.25 270.938 50.2812C271.062 50.2812 271.203 50.2812 271.359 50.2812C271.672 50.0625 272.016 49.9062 272.391 49.8125C272.766 49.7188 273.141 49.6406 273.516 49.5781C273.891 49.5156 274.25 49.4375 274.594 49.3438C274.969 49.2188 275.297 49.0312 275.578 48.7812C276.016 48.8125 276.359 48.9375 276.609 49.1562C276.891 49.375 277.125 49.6406 277.312 49.9531C277.5 50.2656 277.656 50.5938 277.781 50.9375C277.906 51.2812 278.062 51.6094 278.25 51.9219C278.188 52.1719 278.094 52.375 277.969 52.5312C277.844 52.6562 277.703 52.7812 277.547 52.9062C277.391 53.0312 277.25 53.1562 277.125 53.2812C277 53.4062 276.922 53.5781 276.891 53.7969C275.797 53.7969 274.734 53.9531 273.703 54.2656C272.703 54.5781 271.703 54.9375 270.703 55.3438C269.734 55.75 268.734 56.1406 267.703 56.5156C266.703 56.8594 265.672 57.0781 264.609 57.1719C264.453 57.3281 264.25 57.4531 264 57.5469L263.297 57.7812C263.078 57.8438 262.875 57.9375 262.688 58.0625C262.5 58.1562 262.359 58.3125 262.266 58.5312C262.078 58.4375 261.875 58.3906 261.656 58.3906C261.125 58.3906 260.609 58.5312 260.109 58.8125C259.609 59.0938 259.047 59.2344 258.422 59.2344C258.172 59.2344 258 59.2188 257.906 59.1875C257.75 59.4688 257.516 59.6719 257.203 59.7969C256.922 59.9219 256.609 60.0312 256.266 60.125C255.953 60.1875 255.641 60.2812 255.328 60.4062C255.047 60.5312 254.828 60.75 254.672 61.0625C254.578 61.0312 254.469 61.0156 254.344 61.0156H254.062C253.562 61.0156 252.984 61.1094 252.328 61.2969C251.703 61.4531 251.25 61.7656 250.969 62.2344C250.719 62.1719 250.5 62.1406 250.312 62.1406C249.875 62.1406 249.484 62.2344 249.141 62.4219C248.797 62.5781 248.453 62.7656 248.109 62.9844L247.078 63.6406C246.734 63.8594 246.359 64.0156 245.953 64.1094C245.141 65.2656 244.578 66.5938 244.266 68.0938C243.953 69.5938 243.719 71.1562 243.562 72.7812C243.438 74.4062 243.312 76.0156 243.188 77.6094C243.062 79.2344 242.812 80.7188 242.438 82.0625C242.625 82.5625 242.766 83.0938 242.859 83.6562C242.953 84.2188 243.031 84.7812 243.094 85.3438C243.156 85.9375 243.219 86.5312 243.281 87.125C243.344 87.7188 243.453 88.2812 243.609 88.8125C243.766 89.4688 244.062 90.0469 244.5 90.5469C244.969 91.0781 245.297 91.6719 245.484 92.3281C245.641 92.3594 245.797 92.375 245.953 92.375C246.141 92.4062 246.328 92.4219 246.516 92.4219C247.641 92.4219 248.625 92.2031 249.469 91.7656C250.344 91.3281 251.156 90.7812 251.906 90.125C252.656 89.5 253.375 88.8125 254.062 88.0625C254.781 87.3438 255.547 86.7031 256.359 86.1406H257.25C257.469 85.8906 257.656 85.625 257.812 85.3438C257.969 85.0625 258.141 84.7969 258.328 84.5469C258.516 84.2969 258.734 84.0781 258.984 83.8906C259.234 83.7344 259.547 83.625 259.922 83.5625C260.016 83.0938 260.234 82.7344 260.578 82.4844C260.922 82.2344 261.156 81.8594 261.281 81.3594C261.344 81.3906 261.422 81.4062 261.516 81.4062C261.766 81.4062 261.953 81.3438 262.078 81.2188L262.781 80.5625C263.031 80.3125 263.297 80.0625 263.578 79.8125C263.891 79.5938 264.188 79.375 264.469 79.1562C265.375 78.5 266.281 77.8438 267.188 77.1875C268.094 76.5625 268.922 75.8281 269.672 74.9844C269.703 75.0156 269.75 75.0312 269.812 75.0312C270.062 75.0312 270.234 74.9531 270.328 74.7969C270.422 74.6406 270.641 74.5938 270.984 74.6562C271.172 74.375 271.344 74.0938 271.5 73.8125C271.656 73.5 271.781 73.1719 271.875 72.8281L273.375 73.0156C273.875 73.0781 274.375 73.1094 274.875 73.1094C275.031 73.1094 275.172 73.1094 275.297 73.1094C275.453 73.0781 275.594 73.0312 275.719 72.9688C276.094 73.5625 276.297 74.2031 276.328 74.8906C276.359 75.5469 276.438 76.2031 276.562 76.8594C276.5 76.8594 276.453 76.8594 276.422 76.8594C276.422 76.8281 276.391 76.8125 276.328 76.8125C276.172 76.8125 276.016 76.875 275.859 77C275.734 77.0938 275.594 77.2188 275.438 77.375L274.969 77.8438C274.812 78 274.672 78.125 274.547 78.2188C274.203 78.4375 273.844 78.625 273.469 78.7812C273.094 78.9688 272.734 79.1562 272.391 79.3438C272.047 79.5312 271.719 79.75 271.406 80C271.094 80.2812 270.844 80.625 270.656 81.0312C270.031 81.2812 269.422 81.5469 268.828 81.8281C268.266 82.1094 267.719 82.4062 267.188 82.7188C267.031 82.875 266.891 83.0312 266.766 83.1875C266.641 83.3438 266.547 83.5156 266.484 83.7031C265.641 83.9844 264.938 84.4062 264.375 84.9688C263.844 85.5312 263.297 86.1406 262.734 86.7969L262.688 86.75C262.469 86.75 262.328 86.8281 262.266 86.9844C262.234 87.1406 262.062 87.1875 261.75 87.125C261.156 87.7812 260.531 88.3906 259.875 88.9531C259.219 89.5156 258.547 90.0781 257.859 90.6406C257.172 91.2031 256.484 91.7656 255.797 92.3281C255.109 92.9219 254.469 93.5469 253.875 94.2031C253.469 94.3281 253.078 94.4844 252.703 94.6719C252.328 94.8594 252.047 95.1406 251.859 95.5156H251.719C251.375 95.5156 251.125 95.5938 250.969 95.75C250.844 95.9062 250.688 96.1094 250.5 96.3594C249.844 96.5156 249.172 96.6875 248.484 96.875C247.797 97.0625 247.094 97.1562 246.375 97.1562C245.875 97.1562 245.391 97.0625 244.922 96.875C244.484 96.6875 244.047 96.4375 243.609 96.125C243.203 95.8438 242.812 95.5312 242.438 95.1875C242.094 94.8438 241.766 94.5156 241.453 94.2031C241.266 93.5781 241.016 92.9219 240.703 92.2344C240.422 91.5781 240.281 90.9375 240.281 90.3125C240.281 90.1562 240.297 90 240.328 89.8438C240.391 89.7188 240.422 89.5938 240.422 89.4688C240.422 89.25 240.344 89.1562 240.188 89.1875C240.062 89.2188 239.969 89.1406 239.906 88.9531C239.844 88.6406 239.797 88.2812 239.766 87.875C239.766 87.5 239.734 87.1406 239.672 86.7969C239.578 86.0781 239.453 85.3438 239.297 84.5938C239.172 83.8438 239.031 83.1094 238.875 82.3906C239 82.3281 239.094 82.2188 239.156 82.0625C239.25 81.9375 239.344 81.8125 239.438 81.6875C239.344 81.4375 239.25 81.1562 239.156 80.8438C239.094 80.5625 239.062 80.2656 239.062 79.9531C239.062 79.3281 239.297 78.8594 239.766 78.5469C239.766 78.3281 239.703 78.1562 239.578 78.0312C239.484 77.9375 239.438 77.7656 239.438 77.5156C239.438 77.4531 239.453 77.2812 239.484 77C239.547 76.6875 239.609 76.3438 239.672 75.9688C239.766 75.5938 239.844 75.2344 239.906 74.8906C239.969 74.5469 240.016 74.3125 240.047 74.1875C240.266 72.75 240.453 71.3438 240.609 69.9688C240.766 68.5625 240.984 67.1562 241.266 65.75C240.953 65.5 240.547 65.3125 240.047 65.1875C239.578 65.0312 239.25 64.8281 239.062 64.5781C238.906 64.3594 238.781 64.0781 238.688 63.7344C238.594 63.3906 238.547 63.0938 238.547 62.8438C238.547 61.9375 238.906 61.2188 239.625 60.6875C240.344 60.125 241.109 59.7969 241.922 59.7031C242.328 58.6094 242.625 57.5 242.812 56.375C243.031 55.2188 243.203 54.0625 243.328 52.9062L243.703 49.3906C243.828 48.2031 244.016 47.0312 244.266 45.875H243.984C243.359 45.875 242.75 45.9688 242.156 46.1562C241.562 46.3438 240.953 46.4375 240.328 46.4375H240.234C239.328 45.7188 238.875 44.8594 238.875 43.8594C238.875 43.2656 239 42.6719 239.25 42.0781C239.75 41.8906 240.203 41.6406 240.609 41.3281C241.016 41.0156 241.422 40.7031 241.828 40.3906C242.266 40.0469 242.703 39.75 243.141 39.5C243.578 39.25 244.062 39.0938 244.594 39.0312C244.656 38.125 244.812 37.2188 245.062 36.3125C245.312 35.4062 245.438 34.5 245.438 33.5938C245.438 33.4062 245.422 33.2188 245.391 33.0312C245.391 32.8438 245.359 32.6562 245.297 32.4688C245.516 32.1875 245.656 31.8906 245.719 31.5781C245.812 31.2656 245.859 30.9375 245.859 30.5938C245.859 30.2188 245.828 29.8594 245.766 29.5156C245.734 29.1406 245.688 28.7812 245.625 28.4375C245.906 28.3125 246.125 28.1875 246.281 28.0625C246.438 27.9063 246.578 27.7656 246.703 27.6406C246.859 27.5156 247.047 27.4062 247.266 27.3125C247.484 27.2188 247.797 27.1719 248.203 27.1719C248.797 27.1719 249.297 27.2969 249.703 27.5469C250.141 27.7656 250.516 28.0625 250.828 28.4375C251.141 28.8125 251.406 29.2344 251.625 29.7031C251.875 30.1719 252.109 30.6406 252.328 31.1094C252.266 31.4531 252.125 31.7031 251.906 31.8594C251.688 32.0156 251.5 32.2188 251.344 32.4688C251.406 32.9688 251.469 33.4531 251.531 33.9219C251.594 34.3594 251.594 34.8281 251.531 35.3281C251.844 35.4844 252.141 35.5625 252.422 35.5625C252.891 35.5625 253.312 35.4375 253.688 35.1875C254.094 34.9375 254.375 34.5938 254.531 34.1562H254.625C254.719 34.1562 254.797 34.1875 254.859 34.25C254.953 34.3125 255.062 34.3438 255.188 34.3438H255.375C255.719 34.0312 256.094 33.7969 256.5 33.6406C256.906 33.4531 257.328 33.2812 257.766 33.125C258.203 32.9688 258.625 32.8125 259.031 32.6562C259.469 32.4688 259.875 32.2344 260.25 31.9531C260.438 32.0469 260.641 32.0938 260.859 32.0938C261.172 32.0938 261.469 32.0312 261.75 31.9062C262.062 31.7812 262.359 31.6562 262.641 31.5312C262.922 31.375 263.219 31.2344 263.531 31.1094C263.875 30.9844 264.234 30.9219 264.609 30.9219C264.672 30.9219 264.75 30.9375 264.844 30.9688C264.938 30.9688 265.016 30.9688 265.078 30.9688C265.297 30.9688 265.422 30.8906 265.453 30.7344C265.484 30.5781 265.484 30.4375 265.453 30.3125C266.453 30.0625 267.312 29.7812 268.031 29.4688C268.781 29.125 269.609 28.7344 270.516 28.2969C270.516 28.2656 270.547 28.25 270.609 28.25C270.703 28.25 270.766 28.2969 270.797 28.3906C270.828 28.4844 270.844 28.5625 270.844 28.625C271.031 28.5312 271.125 28.375 271.125 28.1562C271.156 27.9375 271.234 27.75 271.359 27.5938C271.484 27.625 271.656 27.6406 271.875 27.6406C272.156 27.6406 272.438 27.5781 272.719 27.4531C273.031 27.3281 273.328 27.1875 273.609 27.0312C273.891 26.875 274.172 26.7344 274.453 26.6094C274.734 26.4844 275.016 26.4219 275.297 26.4219C275.547 26.4219 275.75 26.4844 275.906 26.6094C276.094 26.5156 276.281 26.3906 276.469 26.2344C276.656 26.0469 276.859 25.9531 277.078 25.9531C277.141 25.9531 277.188 25.9687 277.219 26C277.281 26.0313 277.344 26.0625 277.406 26.0938C277.562 25.9375 277.703 25.8125 277.828 25.7188C277.984 25.625 278.062 25.4688 278.062 25.25C279.219 25.125 280.281 24.875 281.25 24.5C282.25 24.0937 283.203 23.5625 284.109 22.9062C284.453 22.9687 284.781 23.0469 285.094 23.1406C285.438 23.2031 285.781 23.2344 286.125 23.2344C286.312 23.5781 286.484 23.9219 286.641 24.2656C286.797 24.6094 287.141 24.7656 287.672 24.7344C287.703 24.8906 287.719 25.0625 287.719 25.25C287.75 25.4375 287.766 25.6094 287.766 25.7656Z" fill="#01436C"/>
</svg>
